<?xml version="1.0" encoding="utf-8"?>
<!-- Generator: Adobe Illustrator 26.2.1, SVG Export Plug-In . SVG Version: 6.00 Build 0)  -->
<svg version="1.0" id="Layer_1" xmlns="http://www.w3.org/2000/svg" xmlns:xlink="http://www.w3.org/1999/xlink" x="0px" y="0px"
	 viewBox="0 0 73.4 160.8" style="enable-background:new 0 0 73.4 160.8;" xml:space="preserve">
<path d="M62.5,158.7c-4.4-1.3-5.5-5.5-8.3-7.9c-0.7-0.6-1-1.6-1.7-2.3c-3.4-3.8-6.9-7.5-10.2-11.3c-3.6-4.1-7.3-8.3-10.6-12.6
	c-2.6-3.5-4.8-7.2-5.6-11.7c-0.7-3.8-2.2-7.4-3.2-11.1c-1.6-5.5-3.1-11-4.7-16.6c-0.6-2.2-1.3-4.5-2-6.7c-1.5-4.9-2.6-9.9-4.1-14.8
	c-1.9-5.9-3.2-12-5.1-17.9c-1.7-5.6-3.9-11.1-4.8-17c-0.2-1.1-0.5-2.1-1-3.1c-0.7-1.5-1.5-3-0.9-4.6C1,19,1.8,16.6,3.4,15
	c4.3-4.5,5.4-6.8,15.4-10.8c6.8-2.7,13.4-4,20.5-3.6c3.2,0.2,5.9,1.9,8.4,3.9c3.8,3.1,5.7,7.2,5.6,12.2c0,1.3,0,2.7,0,4
	c-0.1,5,0.6,9.9,1.9,14.7c0.8,2.7,0.3,5.8,1.2,8.5c1.3,4,1.7,8.3,2.6,12.3c0.9,4.1,1.7,8.4,2.4,12.6c0.6,3.6,1.5,7.3,2.5,10.9
	c0.6,2.1,0.9,4.3,1.2,6.5c0.8,5.3,2.6,10.3,3.7,15.5c1.1,5.3,3.2,10.4,4.2,15.7c0.7,3.9,0.7,8.2-1.3,12.4
	c-2.5,5.2-3.8,11.1-5.5,16.7c-0.4,1.2-0.1,2.7-0.1,4C66.2,153.7,65.2,156.5,62.5,158.7z M54.2,112.6c0,3.3,0,6.6,0,9.5
	c-0.7,0.7-1,1-1.5,1.5c-1.1-0.8-2.9-1.3-3.3-2.3c-1.6-4.3-4.7-7.7-6.8-11.6c-0.7,0-1.3,0-2,0c-0.4,0.8-0.9,1.7-1.5,2.9
	c0,2.9,0,6.2,0,9.5c0,2,0.6,3.7,2,5.1c2.2,2.2,4.4,4.4,6.9,6.9c5.7-1.6,11.3-3.2,17.2-4.9c1.6-2.5,3-5.3,2.9-8.6
	c0-0.3-0.3-0.5-0.2-0.5c-1.4-0.5-2.6-1-3.5-1.3c-0.5-5.7-3.4-11.6-7.2-15.1c-0.3-0.4-0.6-0.8-1.4-1.8c-0.6,2.5-1.8,3.9-1.6,5.9
	C54.3,109.3,54.2,110.9,54.2,112.6z M45.2,30.6c-1.7-0.5-3.3,0.4-4.5,1.2c-5.1,3.2-10.9,3.8-16.5,4.7c-5.2,0.8-10.6,0.9-15.6-2.1
	c-1.1,2.9,0.4,5,1.1,7.1c2.1,6.5,4.8,12.7,6.6,19.2c1.8,6.5,4.2,12.9,5.9,19.5c1.2,4.6,3.9,8.9,4,13.8c3.1,7,4.5,14.5,7.1,21.6
	c0.5,1.3,0.6,3.4,2.7,3.6c0.5-3.7,1-7.4,1.4-10.8c0.8-1.1,1.6-2.1,2.2-2.7c1.8,0,3.1,0,4.5,0c1.6,2,3.1,3.9,5,6.2c0-3,0-5.4,0-7.8
	c1.6-2.4,3-4.6,4.4-6.7c2.2,0.4,4-0.3,5.5,1.1c1.2,1.1,2.6,1.9,4.4,3.2c-0.5-2.2-0.6-4-1.3-5.5c-0.9-2.1-0.7-4.4-1.3-6.5
	c-1.2-3.7-1.9-7.6-2.6-11.4c-0.7-4.1-2.3-8-2.1-12.2c-2-1.4-0.7-3.9-1.8-5.8c-0.8-1.4-0.7-3.6-1.2-5.5c-0.5-2-0.2-4.3-1.1-6
	c-1.2-2.3-0.3-4.8-1.2-7c-1.2-3.3-2-6.7-1.7-10.3c-0.5-1.4-1.1-2.7-1.6-4.1C45.6,28.8,45.6,28.8,45.2,30.6z M46.2,12.8
	c-1.1-1.4-2.1-3.3-3.6-4.2c-3.7-2-7.9-3-12-1.9c-5.6,1.5-11.1,3.5-16.3,6.2c-0.8,0.4-1.8,0.6-3.5,1.1c-1.4,2.1-3.2,4.9-4.9,7.6
	c1,2.2,1.9,4,2.8,5.8c0.4,0.1,1,0.1,1.3,0.4c2.3,1.6,5.1,2.8,7.3,2.7c3.2,0,6.4,0,9.6-0.9c4.5-1.3,9-2.2,13.1-4.4
	c4.1-2.2,6.8-5.2,6.2-10.3C46.1,14.4,46.2,13.7,46.2,12.8z"/>
<path d="M33.2,45c0.7-0.7,1.1-1.1,1.3-1.3c3.1,1.6,3.7,4.8,4.5,7.5c2.8,9.5,6.2,18.7,9.4,28.1c1.3,3.8,2.8,7.5,4.2,11.2
	c0.4,1.2,0.5,2.4,0.7,3.5c-3.1,2.3-4.2,2.1-5.1-0.9c-1.4-4.4-2.8-8.8-4.2-13.2C42.2,74.3,40.8,68.6,39,63
	c-1.7-5.4-2.5-11.2-4.9-16.4C33.9,46,33.5,45.5,33.2,45z"/>
<path d="M25.9,45.2c2.3,0.7,2.8,1.6,3.3,2.9c3,7.9,4.8,16.3,7.8,24.2c1.9,5,3.9,10,5.5,15.2c0.5,1.6,1.1,3.2,1.5,4.8
	c0.2,0.6,0,1.3,0,1.7c-1.6,1.9-3.1,2.2-4.3,0.8c-1.7-6-3.3-11.5-4.9-17c-1.9-6.7-4.4-13.2-5.8-20c-0.5-2.3-1.2-4.6-2.1-6.6
	C26,49.2,26.5,47.6,25.9,45.2z"/>
<path d="M19,45.3c0.7,0.9,1.7,1.7,2,2.7c2,7.1,5,14,6.9,21c1.8,6.8,4.4,13.1,6.8,19.6c0.6,1.6,1,3.2,1.6,5.1
	c-1.1,0.8-2.1,1.5-3.2,2.3c-0.1,0-0.8-0.4-1.6-0.9c-1.2-5.3-3.7-10.6-5-16.1c-1.4-5.7-3.3-11.3-4.4-17.1C21,56.6,18.8,51.3,18,45.7
	C18.3,45.6,18.7,45.5,19,45.3z"/>
<path d="M41.3,40.6c3.7-0.2,2,3.5,3.8,4.5c0.2,4.9,2.7,9.2,4,13.8c1.6,5.8,3.3,11.6,5,17.3c0.7,2.5,1.7,4.9,2.5,7.4
	c0.3,0.9,0.4,1.8,0.6,2.7c-3.4,0.1-3.3,0-4.1-2.1c-2.3-5.9-3.8-12-5.7-18c-1.1-3.5-1.9-7.2-3-10.7c-1.1-3.4-1.4-6.9-3-10.2
	C40.8,44,41.3,42.3,41.3,40.6z"/>
<path d="M34.7,11.6c0.8,0.8,1.6,1.6,2.9,2.9c-0.5,1.5-0.7,3.7-1.8,4.9c-1.7,1.8-3.9,3.2-6.2,4.2c-2,0.8-4.3,1-6.5,1
	c-1.8,0-3.7-0.5-5.5-0.7c-0.9-2.5-0.6-4.7,0.6-6.6c1.6-2.6,4.5-3.3,7-4.6c1-0.5,2-0.9,3-1C30.4,11.5,32.5,11.6,34.7,11.6z"/>
</svg>
