<?xml version="1.0" encoding="utf-8"?>
<!-- Generator: Adobe Illustrator 26.1.0, SVG Export Plug-In . SVG Version: 6.00 Build 0)  -->
<svg version="1.1" id="Layer_1" xmlns="http://www.w3.org/2000/svg" xmlns:xlink="http://www.w3.org/1999/xlink" x="0px" y="0px"
	 viewBox="0 0 65 65" style="enable-background:new 0 0 65 65;" xml:space="preserve">
<style type="text/css">
	.st0{fill:#217DC0;}
	.st1{fill:#51B9D2;}
	.st2{fill:#52BAD3;}
</style>
<g>
	<path d="M3.9,53.5l2,9.1h-1l-0.5-2.1H1.9l-0.5,2.1h-1l2-9.1H3.9z M2,59.6h2.2l-1.1-5.1L2,59.6z"/>
	<path d="M9.4,58h2.5v4.6h-0.4l-0.4-0.9c-0.2,0.3-0.4,0.6-0.7,0.8s-0.6,0.3-1,0.3c-0.5,0-0.9-0.1-1.2-0.3s-0.5-0.4-0.6-0.7
		s-0.2-0.6-0.2-1v-5.6c0-0.6,0.2-1.1,0.5-1.4c0.4-0.3,0.9-0.5,1.7-0.5s1.3,0.2,1.7,0.5c0.4,0.4,0.6,0.8,0.6,1.4V56h-1v-0.8
		c0-0.4-0.1-0.6-0.3-0.8s-0.5-0.3-1-0.3c-0.4,0-0.8,0.1-1,0.3s-0.3,0.5-0.3,0.8v5.6c0,0.3,0.1,0.6,0.2,0.8S8.9,62,9.3,62
		c0.3,0,0.5-0.1,0.8-0.2c0.2-0.2,0.4-0.3,0.6-0.6s0.2-0.4,0.2-0.6v-1.8H9.4V58z"/>
	<path d="M16,62.6h-2.3v-0.8h0.7v-7.4h-0.7v-0.8H16v0.8h-0.7v7.4H16V62.6z"/>
	<path d="M18.1,53.5h1v8.3h2.5v0.8h-3.4v-9.1H18.1z"/>
	<path d="M22.9,62.6v-9.1h3.9v0.8h-2.9v3.2h2.4v0.8h-2.4v3.4H27v0.8L22.9,62.6L22.9,62.6z"/>
	<path d="M35.2,58.9c0.3,0.3,0.5,0.6,0.5,0.9c0.1,0.3,0.1,0.6,0.1,1c0,0.6-0.2,1.1-0.5,1.4c-0.4,0.4-0.9,0.5-1.8,0.5
		c-0.8,0-1.4-0.2-1.7-0.5s-0.5-0.8-0.5-1.4v-1.2h1v1.2c0,0.3,0.1,0.6,0.3,0.8s0.6,0.3,1,0.3s0.8-0.1,1-0.3s0.3-0.5,0.3-0.8
		s0-0.5-0.1-0.7s-0.2-0.4-0.4-0.6L32,57.1c-0.3-0.3-0.5-0.6-0.6-0.9c-0.1-0.3-0.2-0.6-0.2-1c0-0.6,0.2-1.1,0.6-1.4
		c0.4-0.3,0.9-0.5,1.7-0.5s1.3,0.2,1.7,0.5c0.3,0.4,0.5,0.8,0.5,1.4v1.2h-1v-1.2c0-0.3-0.1-0.6-0.3-0.8s-0.5-0.3-1-0.3
		s-0.8,0.1-1,0.3s-0.3,0.5-0.3,0.8s0,0.5,0.1,0.7s0.2,0.4,0.4,0.6L35.2,58.9z"/>
	<path d="M41.5,60.1h1v0.8c0,0.6-0.2,1.1-0.5,1.4c-0.4,0.4-0.9,0.5-1.7,0.5s-1.3-0.2-1.7-0.5S38,61.4,38,60.8v-5.6
		c0-0.6,0.2-1.1,0.5-1.4c0.4-0.3,0.9-0.5,1.7-0.5s1.3,0.2,1.7,0.5c0.4,0.4,0.6,0.8,0.6,1.4v1.3h-1v-1.3c0-0.4-0.1-0.6-0.3-0.8
		s-0.5-0.3-1-0.3c-0.4,0-0.8,0.1-1,0.3s-0.3,0.5-0.3,0.8v5.6c0,0.3,0.1,0.6,0.3,0.8s0.5,0.3,1,0.3c0.4,0,0.8-0.1,1-0.3
		s0.3-0.5,0.3-0.8V60.1z"/>
	<path d="M44.6,62.6v-9.1h2.1c0.7,0,1.3,0.2,1.6,0.5c0.4,0.4,0.5,0.8,0.5,1.4v2c0,0.5-0.1,0.8-0.3,1.2s-0.5,0.5-0.9,0.7l1.7,3.4h-1
		l-1.6-3.2h-1.1v3.2h-1V62.6z M47.8,55.4c0-0.3-0.1-0.6-0.3-0.8s-0.5-0.3-0.9-0.3h-1.1v4.2h1.1c0.4,0,0.7-0.1,0.9-0.3
		s0.3-0.5,0.3-0.8V55.4z"/>
	<path d="M54.5,53.5h1v7.4c0,0.6-0.2,1.1-0.6,1.4c-0.4,0.4-1,0.5-1.7,0.5c-0.8,0-1.4-0.2-1.7-0.5s-0.6-0.8-0.6-1.4v-7.4h1v7.4
		c0,0.3,0.1,0.6,0.3,0.8s0.6,0.3,1,0.3c0.5,0,0.8-0.1,1-0.3s0.3-0.5,0.3-0.8V53.5z"/>
	<path d="M57.8,62.6v-9.1h1.3l1.7,6.1l1.6-6.1h1.3v9.1h-1V55l-1.6,5.9h-0.9L58.7,55v7.5L57.8,62.6L57.8,62.6z"/>
</g>
<g>
	<path class="st0" d="M22.5,11.7c1-0.7,1.9-1.5,3-2.1c2.6-1.5,5.5-2,8.5-1.8c3.1,0.1,5.7,1.3,8.1,3.2c2.6,2,4.4,4.6,5.3,7.8
		c1.3,4.7,0.6,9-2.2,13c-1.2,1.7-2.7,3.2-4.5,4.3c-2,1.2-4.2,2-6.5,2.1c-4.2,0.3-8.4,0.2-12.6,0.2c-1.7,0-3.3,0-5,0
		c-0.4,0-0.6-0.1-0.6-0.5c0-1.2,0-2.4,0-3.7c0,0,0,0,0-0.1c0.1,0,0.2,0,0.3,0c4.2,0,8.5,0,12.7,0c1.5,0,2.9,0,4.4-0.1
		c2.8-0.2,5.2-1.2,7.2-3.1c1.8-1.8,2.9-4,3.1-6.5c0.2-2.3-0.1-4.4-1.1-6.5c-0.9-1.9-2.3-3.3-4.1-4.4c-3.6-2.1-7.3-2.3-10.9-0.4
		c-3.3,1.7-5.2,4.6-5.9,8.3c-0.3,1.7,0,3.3,0.5,5c0.1,0.4,0.3,0.8,0.4,1.3c0.6-0.2,1.2-0.4,1.8-0.6c0,0,0,0.1,0.1,0.1
		c-0.8,1.6-1.5,3.3-2.3,4.9c-0.1,0-0.3-0.1-0.5-0.2c-1-0.4-1.9-0.9-2.9-1.3c-0.5-0.2-0.9-0.4-1.4-0.6c-0.1-0.1-0.2-0.2-0.4-0.3
		c0.6-0.2,1.2-0.4,1.7-0.6c-0.2-0.8-0.6-1.5-0.7-2.4c-0.2-1.1-0.4-2.1-0.4-3.2c-0.1-2.3,0.2-4.5,1.2-6.6c0.2-0.4,0.4-0.9,0.5-1.3
		c0.2-0.2,0.4-0.4,0.5-0.6c0.5-0.8,1.1-1.6,1.8-2.3C21.9,12.4,22.2,12,22.5,11.7z"/>
	<path class="st1" d="M22.5,11.7c-0.3,0.3-0.6,0.7-0.9,1c-0.7,0.7-1.3,1.5-1.8,2.3c-0.1,0.2-0.3,0.4-0.5,0.6c-2-0.2-3.6-1-4.9-2.5
		c-1.5-1.7-2.1-3.6-2-5.8c0.2-3.4,2.9-6.5,6.3-7.1c2.3-0.4,4.5,0,6.4,1.5C25.6,2.1,26,2.5,26.4,3c0.1,0.2,0.2,0.2,0.4,0.1
		c0.4-0.3,0.8-0.5,1.3-0.8C28,2.7,28,3.1,27.9,3.5c-0.2,1.1-0.5,2.1-0.7,3.2C26.9,7,26.9,7,26.4,6.9c-1.3-0.3-2.6-0.6-3.8-0.9
		c-0.1,0-0.2,0-0.4-0.1c0.3-0.5,0.9-0.6,1.3-1c-0.3-0.5-0.8-0.9-1.3-1.1c-2.7-1.4-5.9,0.4-6.3,3.4c-0.3,2,1.2,4.7,4,4.9
		c0.7,0,1.4,0,2-0.3C22.1,11.8,22.3,11.7,22.5,11.7z"/>
	<path class="st2" d="M49.3,40c0-0.5,0-1.1,0-1.6c-3.1,0-6.1,0-9.1,0v-0.1c0.1-0.1,0.2-0.2,0.3-0.3c0.6-0.4,1.3-0.8,1.9-1.2
		c0.9-0.6,1.8-1.3,2.4-2.2c0.3-0.3,0.6-0.5,1-0.5c1,0,2,0,3,0c0.1,0,0.2,0,0.4,0c0-0.6,0-1.2,0-1.8h0.1c1.3,1.3,2.6,2.6,3.9,3.9
		C52,37.5,50.7,38.7,49.3,40C49.4,40,49.4,40,49.3,40z"/>
</g>
</svg>
