<?xml version="1.0" encoding="utf-8"?>
<!-- Generator: Adobe Illustrator 26.1.0, SVG Export Plug-In . SVG Version: 6.00 Build 0)  -->
<svg version="1.1" id="Layer_1" xmlns="http://www.w3.org/2000/svg" xmlns:xlink="http://www.w3.org/1999/xlink" x="0px" y="0px"
	 viewBox="0 0 65 65" style="enable-background:new 0 0 65 65;" xml:space="preserve">
<style type="text/css">
	.st0{fill:#FFFFFF;}
	.st1{fill:#EE741B;}
	.st2{fill:#E95E1E;}
	.st3{fill:#EF7D4A;}
	.st4{fill:#ED6C1F;}
	.st5{fill:#E35B29;}
	.st6{fill:#F28A39;}
	.st7{fill:#F28D3B;}
	.st8{fill:#EE721B;}
	.st9{fill:#EC6819;}
	.st10{fill:#E95E1F;}
	.st11{fill:#ED6A1C;}
	.st12{fill:#E45926;}
	.st13{fill:#EE731B;}
	.st14{fill:#EA5918;}
	.st15{fill:#F07E47;}
	.st16{fill:#ED6E1D;}
	.st17{fill:#E95A19;}
</style>
<g>
	<path class="st0" d="M7.6,53.5l2.1,9.1h-1l-0.5-2.1H5.5L5,62.6H4l2.1-9.1H7.6z M5.7,59.6H8l-1.1-5.1L5.7,59.6z"/>
	<path class="st0" d="M11.6,62.6v-9.1h2.1c0.7,0,1.3,0.2,1.7,0.5c0.4,0.4,0.6,0.8,0.6,1.4v2c0,0.5-0.1,0.8-0.3,1.2
		c-0.2,0.3-0.5,0.5-0.9,0.7l1.7,3.4h-1.1l-1.6-3.2h-1.1v3.2h-1.1C11.6,62.7,11.6,62.6,11.6,62.6z M14.9,55.4c0-0.3-0.1-0.6-0.3-0.8
		s-0.5-0.3-0.9-0.3h-1.1v4.2h1.1c0.4,0,0.7-0.1,0.9-0.3s0.3-0.5,0.3-0.8V55.4z"/>
	<path class="st0" d="M22,54.3h-1.8v8.3h-1v-8.3h-1.8v-0.8H22V54.3z"/>
	<path class="st0" d="M25.8,62.6h-2.4v-0.8h0.7v-7.4h-0.7v-0.8h2.4v0.8h-0.7v7.4h0.7V62.6z"/>
	<path class="st0" d="M32.7,60.8c0,0.6-0.2,1.1-0.6,1.4c-0.4,0.4-1,0.5-1.8,0.5s-1.4-0.2-1.8-0.5c-0.4-0.4-0.6-0.8-0.6-1.4v-5.6
		c0-0.6,0.2-1.1,0.6-1.4c0.4-0.3,1-0.5,1.8-0.5s1.4,0.2,1.8,0.5c0.4,0.4,0.6,0.8,0.6,1.4V60.8z M31.7,55.2c0-0.4-0.1-0.6-0.4-0.8
		c-0.2-0.2-0.6-0.3-1.1-0.3s-0.8,0.1-1,0.3s-0.3,0.5-0.3,0.8v5.6c0,0.3,0.1,0.6,0.4,0.8c0.2,0.2,0.6,0.3,1.1,0.3s0.8-0.1,1-0.3
		s0.3-0.5,0.3-0.8V55.2z"/>
	<path class="st0" d="M39.1,58.9c0.3,0.3,0.5,0.6,0.6,0.9c0.1,0.3,0.1,0.6,0.1,1c0,0.6-0.2,1.1-0.6,1.4c-0.4,0.4-1,0.5-1.8,0.5
		s-1.4-0.2-1.8-0.5S35,61.4,35,60.8v-1.2h1v1.2c0,0.3,0.1,0.6,0.3,0.8s0.6,0.3,1,0.3s0.8-0.1,1-0.3s0.3-0.5,0.3-0.8s0-0.5-0.1-0.7
		s-0.2-0.4-0.4-0.6l-2.5-2.4c-0.3-0.3-0.5-0.6-0.6-0.9c-0.1-0.3-0.2-0.6-0.2-1c0-0.6,0.2-1.1,0.6-1.4c0.4-0.3,1-0.5,1.8-0.5
		s1.4,0.2,1.7,0.5c0.4,0.4,0.5,0.8,0.5,1.4v1.2h-1v-1.2c0-0.3-0.1-0.6-0.3-0.8s-0.5-0.3-1-0.3c-0.4,0-0.8,0.1-1,0.3
		s-0.3,0.5-0.3,0.8s0,0.5,0.1,0.7s0.2,0.4,0.4,0.6L39.1,58.9z"/>
	<path class="st0" d="M45.7,60.1h1v0.8c0,0.6-0.2,1.1-0.6,1.4c-0.4,0.4-1,0.5-1.7,0.5c-0.8,0-1.4-0.2-1.8-0.5
		c-0.4-0.4-0.6-0.8-0.6-1.4v-5.6c0-0.6,0.2-1.1,0.6-1.4c0.4-0.3,1-0.5,1.7-0.5c0.8,0,1.4,0.2,1.8,0.5c0.4,0.4,0.6,0.8,0.6,1.4v1.3
		h-1v-1.3c0-0.4-0.1-0.6-0.3-0.8s-0.6-0.3-1-0.3s-0.8,0.1-1,0.3s-0.3,0.5-0.3,0.8v5.6c0,0.3,0.1,0.6,0.3,0.8s0.6,0.3,1,0.3
		s0.8-0.1,1-0.3s0.3-0.5,0.3-0.8V60.1z"/>
	<path class="st0" d="M51.8,53.5l2.1,9.1h-1l-0.5-2.1h-2.7l-0.5,2.1h-1l2.1-9.1H51.8z M49.9,59.6h2.3l-1.1-5.1L49.9,59.6z"/>
	<path class="st0" d="M55.9,62.6v-9.1h2.3c0.7,0,1.3,0.2,1.7,0.5c0.4,0.4,0.6,0.8,0.6,1.4v5.2c0,0.6-0.2,1.1-0.5,1.4
		c-0.4,0.4-0.9,0.5-1.7,0.5L55.9,62.6L55.9,62.6z M59.4,55.4c0-0.3-0.1-0.5-0.3-0.8c-0.2-0.2-0.5-0.4-0.9-0.4h-1.3v7.4h1.3
		c0.4,0,0.7-0.1,0.9-0.4c0.2-0.2,0.3-0.5,0.3-0.8V55.4z"/>
</g>
<g>
	<path class="st1" d="M52.5,0v21.1c-1.2,0.4-2.4,0.8-3.5,1.2c-0.5,0.2-1.1,0.4-1.6,0.6c0-1.8,0-3.5,0-5.3c0.1,0.3,0.1,0.7,0.1,1
		c0,1.2,0,2.4,0,3.6c0.1-1.5,0.2-3,0.1-4.5c0-0.2-0.3-0.4-0.4-0.7c-0.6-0.7-1.3-0.6-2.1,0c-2.2,1.5-4.5,2.9-6.9,4
		c-1.4,0.6-2.2,1.4-2.1,2.9C36,24,36,24,35.9,24.1h-2.3l0,0l-0.1-2.6c0.1-0.8,0.7-1.2,1.3-1.6c3.6-2.2,7.3-4.3,10.9-6.5
		c0.2-0.1,0.5-0.3,0.6-0.4c0.6-0.6,0.5-1.7-0.3-2c-4-1.2-7.9-2.8-10.8-5.8c-1.8-1.9-3.3-2.2-5.1-0.6c-2.4,2.2-5.1,4-8.2,5.1
		c-2.4,0.8-4,1.4-4.5,3c0-0.1,0-0.1,0-0.2c0,0-0.1-0.1-0.2-0.2c0,0.4-0.1,0.8-0.1,1.2c0,2.3,0,4.7,0,7c0,0.3-0.1,0.7-0.2,1
		c-1.6-0.3-3.1-0.5-4.7-0.8v-14c0-0.1,0-6.7,0-6.7S44.1,0,52.5,0z"/>
	<path class="st1" d="M12.5,39.9c0-0.4,0-0.4,0-0.5c0-1.5,0,0.2,0-1c0.5,0,3.7-0.4,4.2-0.5c2.8-0.4,5.6-0.8,8.4-1.2
		c1.7-0.3,3.5-0.6,5.2-0.9c0.3,0.2,0.6,0.3,0.8,0.5c0.9,0.7,1.7,0.6,2.3-0.3c0.2-0.2,0.4-0.6,0.6-0.6c1.1-0.2,2.2-0.3,3.3-0.5
		c2,0.6,3.9,1.3,5.9,1.9c1.4,0.4,7,1.7,9.3,2.5c0,0,0-2.8,0,0.8C44.4,40,21.3,39.9,12.5,39.9z"/>
	<path class="st1" d="M12.5,31.6c2.7-0.3,5.3-0.5,8-0.8c0.4,0,0.7,0,1.1,0c0.3,0.1,0.6,0.2,0.8,0.4c2.1,1.2,4.2,2.4,6.2,3.6
		c0.2,0.1,0.4,0.4,0.6,0.5c-0.1,0.1-0.3,0.2-0.4,0.2c-1.6,0.2-3.2,0.5-4.8,0.6c-3.3,0.3-8.2,0.4-11.5,0.6
		C12.5,35.3,12.5,32.1,12.5,31.6z"/>
	<path class="st2" d="M43.2,36.7c-2-0.6-3.9-1.2-5.9-1.9v-0.1c0.4,0,0.9-0.1,1.3-0.1c2.8-0.4,5.7-0.8,8.5-1.2
		c1.8-0.2,3.5-0.5,5.3-0.8c0,0.2,0,0.4,0,0.6c-0.1,0.2,0,5.9,0,5.9S45.3,37.3,43.2,36.7z"/>
	<path class="st3" d="M52.5,32.7c-1.8,0.3-3.5,0.5-5.3,0.8c-2.8,0.4-5.7,0.8-8.5,1.2c-0.4,0.1-0.9,0.1-1.3,0.1c0-0.1,0-0.1,0-0.2
		c1.9-1.1,3.8-2.2,5.8-3.3c0.2,0,0.4,0.1,0.5,0.1c2.1-0.8,4.2-1.6,6.2-2.4c0.3-0.1,0.5-0.1,0.8-0.2c0.6,0,1.3-0.1,1.9-0.1
		C52.5,29.9,52.5,31.3,52.5,32.7z"/>
	<path class="st4" d="M12.5,20.5c1.6,0.3,3.1,0.5,4.7,0.8c0.1,0.1,0.1,0.1,0.2,0.2c0,1.5,0,3,0,4.5c-1.6-0.3-3.2-0.6-4.8-0.9
		C12.5,23.5,12.5,22,12.5,20.5z"/>
	<path class="st1" d="M50.6,28.7c-0.3,0.1-0.5,0.1-0.8,0.2c-1.1,0-2.1,0.1-3.2,0.1c0.2-0.7,0.5-1.3,0.6-2c0.1-0.6,0-1.2,0.1-1.9
		c1.7-0.3,3.4-0.5,5.2-0.8c0,1.2,0,2.4,0,3.6C51.9,28.2,51.2,28.5,50.6,28.7z"/>
	<path class="st2" d="M21.5,30.8c-0.4,0-0.7,0-1.1,0c-2.7,0.2-5.3,0.5-8,0.8c0-0.8,0-1.7,0-2.5c1.7-0.4,3.3-0.8,5-1.3
		c0.1,0.1,0.2,0.1,0.3,0.2c0.4,0.4,0.8,0.9,1.2,1.3C19.8,29.8,20.7,30.3,21.5,30.8z"/>
	<path class="st5" d="M17.5,27.8c-1.7,0.4-3.3,0.8-5,1.3c0-1.4,0-2.7,0-4.1c1.6,0.3,3.2,0.6,4.8,0.9l0,0
		C17.4,26.6,17.5,27.2,17.5,27.8z"/>
	<path class="st4" d="M52.5,24.4c-1.7,0.3-3.4,0.5-5.2,0.8c0-0.8,0-1.6,0-2.3c0.5-0.2,1.1-0.4,1.6-0.6c1.2-0.4,2.4-0.8,3.5-1.2
		C52.5,22.2,52.5,23.3,52.5,24.4z"/>
	<path class="st6" d="M50.6,28.7c0.6-0.3,1.3-0.5,1.9-0.8c0,0.2,0,0.4,0,0.6C51.9,28.6,51.2,28.7,50.6,28.7z"/>
	<path class="st0" d="M21.5,30.8c-0.8-0.5-1.7-1-2.5-1.5c-0.5-0.3-0.8-0.8-1.2-1.3c0-0.7-0.1-1.4-0.1-2c0-1.5,0-3,0-4.5c0-3,0-6,0-9
		c0.2-0.9,0.8-1.4,1.6-1.9c4-2.3,7.9-4.6,11.9-6.9c0.9-0.5,1.8-0.5,2.7,0c4.2,2.4,8.3,4.8,12.5,7.2c0.6,0.4,0.7,1.4,0.1,1.9
		c-0.2,0.2-0.4,0.3-0.6,0.4c-3.6,2.2-7.3,4.3-10.9,6.5c-0.6,0.4-1.2,0.8-1.3,1.6c0,0.3-0.1,0.7-0.1,1c0,4.6,0,9.1,0,13.7
		c-0.7,0.9-1.4,1-2.3,0.3c-0.2-0.2-0.5-0.3-0.8-0.5c-0.4-0.2-0.7-0.3-1.1-0.5c-0.2-0.2-0.4-0.4-0.6-0.5c-2.1-1.2-4.2-2.4-6.2-3.6
		C22.1,31,21.8,30.9,21.5,30.8z"/>
	<path class="st0" d="M47.3,22.8c0,0.8,0,1.6,0,2.3c0,0.6,0.1,1.3-0.1,1.9c-0.1,0.7-0.4,1.4-0.6,2c-1.2,0.7-2.4,1.4-3.6,2.2
		c-1.9,1.1-3.8,2.2-5.8,3.3c-0.1,0-0.2,0-0.3,0c-0.2-0.3-0.4-0.5-0.6-0.8c-0.1-0.2-0.1-0.3-0.2-0.5c0-1.5,0-3,0-4.5
		c0-0.1,0-0.1,0-0.2c0-0.9,0-1.8,0-2.7c0-0.7-0.1-1.5-0.1-2.2c-0.1-1.3,0.5-2,1.6-2.6c2.6-1.4,5.1-2.9,7.7-4.4
		c0.7-0.4,1.3-0.4,1.8,0.2c0.1,0.2,0.1,0.4,0.2,0.6C47.3,19.3,47.3,21,47.3,22.8z"/>
	<path class="st7" d="M37.1,34.5c0.1,0,0.2,0,0.3,0c0,0.1,0,0.1,0,0.2v0.1c-1.1,0.2-2.2,0.3-3.3,0.5c-0.2,0-0.4,0.4-0.6,0.6
		c0-4.6,0-9.1,0-13.7c0-0.3,0.1-0.7,0.1-1c0,0.9,0,1.8,0.1,2.6c0,0.7,0,1.5,0,2.2c0,0.8,0,1.7,0,2.5c0,1.6,0,3.1,0,4.7
		c0,0.3,0.2,0.5,0.3,0.8c0.4,0,0.8,0,1.3,0C35.8,34.2,36.4,34.4,37.1,34.5z"/>
	<path class="st4" d="M33.9,23.9c0.7,0,1.4,0,2,0c0,0.7,0,1.4,0,2c-0.2,0-0.3,0-0.5,0c-1.7,0-1.6,0.2-1.6-1.6
		C33.9,24.2,33.9,24.1,33.9,23.9z"/>
	<path class="st8" d="M17.7,12.4c0,3,0,6,0,9c-0.1,0-0.2,0-0.3,0c-0.1-0.1-0.1-0.1-0.2-0.2c0.1-0.3,0.2-0.7,0.2-1c0-2.3,0-4.7,0-7
		c0-0.4,0.1-0.8,0.1-1.2c0.1,0.1,0.2,0.1,0.2,0.2C17.7,12.3,17.7,12.3,17.7,12.4z"/>
	<path class="st8" d="M47.3,17.5c-0.1-0.2-0.1-0.4-0.2-0.6c0.1,0.2,0.4,0.4,0.4,0.7c0,1.5,0,3-0.1,4.5c0-1.2,0-2.4,0-3.6
		C47.5,18.2,47.4,17.8,47.3,17.5z"/>
	<path class="st9" d="M33.9,23.9c0,0.2,0,0.3,0,0.5c0,1.8-0.1,1.5,1.6,1.6v0.1c-0.6,0-1.2,0-1.8,0c0-0.7,0-1.5,0-2.2
		C33.7,23.9,33.8,23.9,33.9,23.9z"/>
	<path class="st9" d="M35.9,25.9c0-0.7,0-1.4,0-2c0.1-0.1,0.1-0.1,0.2-0.2c0,0.7,0.1,1.5,0.1,2.2C36.2,25.9,36,25.9,35.9,25.9z"/>
	<path class="st7" d="M29.2,35.3c0.4,0.2,0.7,0.3,1.1,0.5c-1.7,0.3-3.5,0.7-5.2,0.9c-2.8,0.4-5.6,0.8-8.4,1.2
		c-0.5,0.1-3.7,0.4-4.2,0.5c0-0.9,0,0.5,0-1.6c3.3-0.2,8.2-0.4,11.5-0.6c1.6-0.1,3.2-0.4,4.8-0.6C29,35.4,29.1,35.3,29.2,35.3z"/>
	<path class="st10" d="M43.1,31.2c1.2-0.7,2.4-1.4,3.6-2.2c1.1,0,2.1-0.1,3.2-0.1c-2.1,0.8-4.2,1.6-6.2,2.4
		C43.5,31.3,43.3,31.2,43.1,31.2z"/>
	<path class="st11" d="M17.3,21.4c0.1,0,0.2,0,0.3,0c0,1.5,0,3,0,4.5c-0.1,0-0.2,0-0.3,0l0,0C17.3,24.4,17.3,22.9,17.3,21.4z"/>
	<path class="st12" d="M17.3,25.9c0.1,0,0.2,0,0.3,0c0,0.7,0.1,1.4,0.1,2c-0.1-0.1-0.2-0.1-0.3-0.2C17.5,27.2,17.4,26.6,17.3,25.9z"
		/>
	<path class="st2" d="M35.2,34.1c-0.4,0-0.8,0-1.3,0c0-1.8,0-3.5,0-5.3c0.7,0.1,1.4,0.1,2,0.2c0,1.2,0,2.4,0,3.6
		c0,0.3,0.2,0.5,0.3,0.8c0.1,0.2,0.1,0.3,0.2,0.5C36,33.9,35.6,34,35.2,34.1z"/>
	<path class="st13" d="M35.9,28.9c-0.7-0.1-1.4-0.1-2-0.2c-0.1,0-0.2-0.1-0.3-0.2c0-0.8,0-1.7,0-2.5c0.6,0,1.2,0,1.8,0
		c0.6,0.1,0.4,0.5,0.5,0.9c0.1,0.5,0.2,1.1,0.3,1.6c0,0.1,0,0.1,0,0.2S36,28.9,35.9,28.9z"/>
	<path class="st14" d="M35.9,28.9c0.1-0.1,0.2-0.1,0.3-0.2c0,1.5,0,3,0,4.5c0-0.2-0.2-0.4-0.2-0.7C35.9,31.3,35.9,30.1,35.9,28.9z"
		/>
	<path class="st15" d="M35.2,34.1c0.4-0.1,0.8-0.2,1.3-0.3c0.2,0.3,0.4,0.5,0.6,0.8C36.4,34.4,35.8,34.2,35.2,34.1z"/>
	<path class="st16" d="M36.3,28.6c-0.1-0.5-0.2-1.1-0.3-1.6c-0.1-0.4,0.1-0.8-0.5-0.9c0-0.1,0-0.1,0-0.1c0.2,0,0.3,0,0.5,0
		c0.1,0,0.2,0,0.3,0C36.3,26.8,36.3,27.7,36.3,28.6z"/>
	<path class="st17" d="M33.6,28.6c0.1,0.1,0.2,0.1,0.3,0.2c0,1.8,0,3.5,0,5.3c-0.1-0.3-0.3-0.5-0.3-0.8
		C33.6,31.7,33.6,30.1,33.6,28.6z"/>
</g>
</svg>
