<?xml version="1.0" encoding="utf-8"?>
<!-- Generator: Adobe Illustrator 26.2.1, SVG Export Plug-In . SVG Version: 6.00 Build 0)  -->
<svg version="1.1" id="Layer_1" xmlns="http://www.w3.org/2000/svg" xmlns:xlink="http://www.w3.org/1999/xlink" x="0px" y="0px"
	 viewBox="0 0 65 65" style="enable-background:new 0 0 65 65;" xml:space="preserve">
<style type="text/css">
	.st0{fill:#FFFFFF;}
	.st1{fill:url(#SVGID_1_);}
	.st2{fill:url(#SVGID_00000072246461093698248310000012958908464847715987_);stroke:#FFFFFF;stroke-width:0.1327;}
</style>
<g>
	<path class="st0" d="M6.4,53.5c0.7,0,1.3,0.2,1.7,0.5c0.4,0.4,0.6,0.8,0.6,1.4v0.8c0,0.8-0.3,1.3-1,1.5c0.8,0.2,1.1,0.7,1.1,1.6
		v1.3c0,0.6-0.2,1.1-0.5,1.4c-0.4,0.4-0.9,0.5-1.7,0.5H4.2v-9.1H6.4z M7.6,55.4c0-0.3-0.1-0.5-0.3-0.8c-0.2-0.2-0.5-0.4-0.9-0.4H5.2
		v3.1h1.1c0.4,0,0.7-0.1,0.9-0.4c0.2-0.3,0.3-0.5,0.3-0.8V55.4z M7.7,59.4c0-0.3-0.1-0.5-0.3-0.8s-0.5-0.4-0.9-0.4H5.2v3.6h1.3
		c0.4,0,0.7-0.1,0.9-0.4c0.2-0.2,0.3-0.5,0.3-0.8V59.4z"/>
	<path class="st0" d="M15.9,60.8c0,0.6-0.2,1.1-0.6,1.4c-0.4,0.4-1,0.5-1.8,0.5s-1.4-0.2-1.8-0.5c-0.4-0.4-0.6-0.8-0.6-1.4v-5.6
		c0-0.6,0.2-1.1,0.6-1.4c0.4-0.3,1-0.5,1.8-0.5c0.8,0,1.4,0.2,1.8,0.5c0.4,0.4,0.6,0.8,0.6,1.4V60.8z M14.9,55.2
		c0-0.4-0.1-0.6-0.4-0.8c-0.2-0.2-0.6-0.3-1.1-0.3c-0.5,0-0.8,0.1-1,0.3c-0.2,0.2-0.3,0.5-0.3,0.8v5.6c0,0.3,0.1,0.6,0.4,0.8
		c0.2,0.2,0.6,0.3,1.1,0.3c0.5,0,0.8-0.1,1-0.3c0.2-0.2,0.3-0.5,0.3-0.8V55.2z"/>
	<path class="st0" d="M23,60.8c0,0.6-0.2,1.1-0.6,1.4c-0.4,0.4-1,0.5-1.8,0.5s-1.4-0.2-1.8-0.5c-0.4-0.4-0.6-0.8-0.6-1.4v-5.6
		c0-0.6,0.2-1.1,0.6-1.4c0.4-0.3,1-0.5,1.8-0.5c0.8,0,1.4,0.2,1.8,0.5c0.4,0.4,0.6,0.8,0.6,1.4V60.8z M22,55.2
		c0-0.4-0.1-0.6-0.4-0.8c-0.2-0.2-0.6-0.3-1.1-0.3c-0.5,0-0.8,0.1-1,0.3c-0.2,0.2-0.3,0.5-0.3,0.8v5.6c0,0.3,0.1,0.6,0.4,0.8
		c0.2,0.2,0.6,0.3,1.1,0.3c0.5,0,0.8-0.1,1-0.3c0.2-0.2,0.3-0.5,0.3-0.8V55.2z"/>
	<path class="st0" d="M29.2,54.3h-1.8v8.3h-1v-8.3h-1.8v-0.8h4.6V54.3z"/>
	<path class="st0" d="M34.8,58.9c0.3,0.3,0.5,0.6,0.6,0.9c0.1,0.3,0.1,0.6,0.1,1c0,0.6-0.2,1.1-0.6,1.4c-0.4,0.4-1,0.5-1.8,0.5
		c-0.8,0-1.4-0.2-1.8-0.5s-0.6-0.8-0.6-1.4v-1.2h1v1.2c0,0.3,0.1,0.6,0.3,0.8c0.2,0.2,0.6,0.3,1,0.3s0.8-0.1,1-0.3
		c0.2-0.2,0.3-0.5,0.3-0.8c0-0.3,0-0.5-0.1-0.7c-0.1-0.2-0.2-0.4-0.4-0.6l-2.5-2.4c-0.3-0.3-0.5-0.6-0.6-0.9c-0.1-0.3-0.2-0.6-0.2-1
		c0-0.6,0.2-1.1,0.6-1.4c0.4-0.3,1-0.5,1.8-0.5c0.8,0,1.4,0.2,1.7,0.5c0.4,0.4,0.5,0.8,0.5,1.4v1.2h-1v-1.2c0-0.3-0.1-0.6-0.3-0.8
		c-0.2-0.2-0.5-0.3-1-0.3c-0.4,0-0.8,0.1-1,0.3c-0.2,0.2-0.3,0.5-0.3,0.8c0,0.3,0,0.5,0.1,0.7c0.1,0.2,0.2,0.4,0.4,0.6L34.8,58.9z"
		/>
	<path class="st0" d="M41.7,54.3h-1.8v8.3h-1v-8.3H37v-0.8h4.6V54.3z"/>
	<path class="st0" d="M43.5,62.6v-9.1h2.1c0.7,0,1.3,0.2,1.7,0.5c0.4,0.4,0.6,0.8,0.6,1.4v2c0,0.5-0.1,0.8-0.3,1.2
		c-0.2,0.3-0.5,0.5-0.9,0.7l1.7,3.4h-1.1l-1.6-3.2h-1.1v3.2H43.5z M46.8,55.4c0-0.3-0.1-0.6-0.3-0.8s-0.5-0.3-0.9-0.3h-1.1v4.2h1.1
		c0.4,0,0.7-0.1,0.9-0.3c0.2-0.2,0.3-0.5,0.3-0.8V55.4z"/>
	<path class="st0" d="M53,53.5l2.1,9.1h-1l-0.5-2.1h-2.7l-0.5,2.1h-1l2.1-9.1H53z M51.1,59.6h2.3l-1.1-5.1L51.1,59.6z"/>
	<path class="st0" d="M57,62.6v-9.1h2.1c0.7,0,1.3,0.2,1.7,0.5c0.4,0.4,0.6,0.8,0.6,1.4v2.4c0,0.6-0.2,1.1-0.5,1.4
		c-0.4,0.4-0.9,0.5-1.7,0.5H58v2.8H57z M60.3,55.4c0-0.3-0.1-0.6-0.3-0.8s-0.5-0.3-0.9-0.3H58v4.6h1.1c0.4,0,0.7-0.1,0.9-0.3
		c0.2-0.2,0.3-0.5,0.3-0.8V55.4z"/>
</g>
<g>
	
		<linearGradient id="SVGID_1_" gradientUnits="userSpaceOnUse" x1="335.4178" y1="-405.4326" x2="379.274" y2="-370.6203" gradientTransform="matrix(1 0 0 1 -322.96 409.5219)">
		<stop  offset="0" style="stop-color:#5F4796"/>
		<stop  offset="1" style="stop-color:#4D4696"/>
	</linearGradient>
	<path class="st1" d="M12.9,5.2C12.8,2.5,15,0,17.8,0h29.3c2.9,0,5,2.5,4.9,5.2c-0.1,2.6,0,6,0.9,8.8s2.3,4.5,4.7,4.7v2.5
		c-2.4,0.2-3.8,2-4.7,4.7c-0.9,2.8-1,6.1-0.9,8.8c0.1,2.7-2,5.2-4.9,5.2H17.8c-2.9,0-5-2.5-4.9-5.2c0.1-2.6,0-6-0.9-8.8
		s-2.3-4.5-4.7-4.7v-2.5c2.4-0.2,3.8-2,4.7-4.7S13,7.8,12.9,5.2z"/>
	
		<linearGradient id="SVGID_00000059303761694576405930000011415794518117146762_" gradientUnits="userSpaceOnUse" x1="348.9086" y1="-398.5134" x2="358.7118" y2="-381.9349" gradientTransform="matrix(1 0 0 1 -322.96 409.5219)">
		<stop  offset="0" style="stop-color:#FFFFFF"/>
		<stop  offset="1" style="stop-color:#F0E5F2"/>
	</linearGradient>
	<path style="fill:url(#SVGID_00000059303761694576405930000011415794518117146762_);stroke:#FFFFFF;stroke-width:0.1327;" d="
		M33.6,30.6c4.6,0,7.4-2.3,7.4-6c0-2.8-2-4.9-5-5.2v-0.1c2.2-0.4,3.9-2.4,3.9-4.6c0-3.2-2.5-5.3-6.4-5.3h-8.7v21.3H33.6z M28.2,12.1
		h4.5c2.4,0,3.8,1.1,3.8,3.1c0,2.1-1.6,3.3-4.5,3.3h-3.8V12.1z M28.2,27.9v-7h4.5c3.2,0,4.9,1.2,4.9,3.5s-1.6,3.5-4.7,3.5H28.2z"/>
</g>
</svg>
