<?xml version="1.0" encoding="utf-8"?>
<!-- Generator: Adobe Illustrator 26.2.1, SVG Export Plug-In . SVG Version: 6.00 Build 0)  -->
<svg version="1.1" id="Layer_1" xmlns="http://www.w3.org/2000/svg" xmlns:xlink="http://www.w3.org/1999/xlink" x="0px" y="0px"
	 viewBox="0 0 65 65" style="enable-background:new 0 0 65 65;" xml:space="preserve">
<style type="text/css">
	.st0{fill:#FFFFFF;}
	.st1{fill:#0B77BD;}
	.st2{fill:#2997D4;}
	.st3{fill:#EFEEEE;}
</style>
<g>
	<path class="st0" d="M27,60.1h1v0.8c0,0.6-0.2,1.1-0.6,1.4c-0.4,0.4-1,0.5-1.7,0.5c-0.8,0-1.4-0.2-1.8-0.5
		c-0.4-0.4-0.6-0.8-0.6-1.4v-5.6c0-0.6,0.2-1.1,0.6-1.4c0.4-0.3,1-0.5,1.7-0.5c0.8,0,1.4,0.2,1.8,0.5c0.4,0.4,0.6,0.8,0.6,1.4v1.3
		h-1v-1.3c0-0.4-0.1-0.6-0.3-0.8c-0.2-0.2-0.6-0.3-1-0.3s-0.8,0.1-1,0.3s-0.3,0.5-0.3,0.8v5.6c0,0.3,0.1,0.6,0.3,0.8
		c0.2,0.2,0.6,0.3,1,0.3s0.8-0.1,1-0.3s0.3-0.5,0.3-0.8C27,60.9,27,60.1,27,60.1z"/>
	<path class="st0" d="M34.2,58.9c0.3,0.3,0.5,0.6,0.6,0.9c0.1,0.3,0.1,0.6,0.1,1c0,0.6-0.2,1.1-0.6,1.4c-0.4,0.4-1,0.5-1.8,0.5
		s-1.4-0.2-1.8-0.5s-0.6-0.8-0.6-1.4v-1.2h1v1.2c0,0.3,0.1,0.6,0.3,0.8c0.2,0.2,0.6,0.3,1,0.3s0.8-0.1,1-0.3s0.3-0.5,0.3-0.8
		s0-0.5-0.1-0.7s-0.2-0.4-0.4-0.6l-2.5-2.4c-0.3-0.3-0.5-0.6-0.6-0.9c-0.1-0.3-0.2-0.6-0.2-1c0-0.6,0.2-1.1,0.6-1.4
		c0.4-0.3,1-0.5,1.8-0.5s1.4,0.2,1.7,0.5c0.4,0.4,0.5,0.8,0.5,1.4v1.2h-1v-1.2c0-0.3-0.1-0.6-0.3-0.8s-0.5-0.3-1-0.3
		c-0.4,0-0.8,0.1-1,0.3s-0.3,0.5-0.3,0.8s0,0.5,0.1,0.7s0.2,0.4,0.4,0.6L34.2,58.9z"/>
	<path class="st0" d="M41.1,58.9c0.3,0.3,0.5,0.6,0.6,0.9c0.1,0.3,0.1,0.6,0.1,1c0,0.6-0.2,1.1-0.6,1.4c-0.4,0.4-1,0.5-1.8,0.5
		s-1.4-0.2-1.8-0.5S37,61.4,37,60.8v-1.2h1v1.2c0,0.3,0.1,0.6,0.3,0.8s0.6,0.3,1,0.3s0.8-0.1,1-0.3s0.3-0.5,0.3-0.8s0-0.5-0.1-0.7
		s-0.2-0.4-0.4-0.6l-2.5-2.4c-0.3-0.3-0.5-0.6-0.6-0.9c-0.1-0.3-0.2-0.6-0.2-1c0-0.6,0.2-1.1,0.6-1.4c0.4-0.3,1-0.5,1.8-0.5
		s1.4,0.2,1.7,0.5c0.4,0.4,0.5,0.8,0.5,1.4v1.2h-1v-1.2c0-0.3-0.1-0.6-0.3-0.8s-0.5-0.3-1-0.3c-0.4,0-0.8,0.1-1,0.3
		s-0.3,0.5-0.3,0.8s0,0.5,0.1,0.7s0.2,0.4,0.4,0.6L41.1,58.9z"/>
</g>
<g>
	<path class="st1" d="M50.4,0H14.6l3.2,35.8L32.5,40l14.7-4.2L50.4,0L50.4,0z"/>
	<path class="st2" d="M32.5,3.2v33.6l11.8-3.3L47,3.2C47,3.2,32.5,3.2,32.5,3.2z"/>
	<path class="st0" d="M42.1,8.5h-9.6v4.2h5.2l-0.3,4.2h-4.9V21h4.6l-0.3,4.8l-4.3,1.5v4.4l8.4-2.8l0.8-12.1l0,0L42.1,8.5z"/>
	<path class="st3" d="M32.5,8.5v4.2h-9.4l-0.3-4.2H32.5z M27.6,16.9l0.3,4.2h4.6v-4.2H27.6z M28.1,23.2h-4.2l0.3,5.8l8.4,2.8v-4.4
		l-4.4-1.5L28.1,23.2z"/>
</g>
</svg>
