<?xml version="1.0" encoding="utf-8"?>
<!-- Generator: Adobe Illustrator 26.2.1, SVG Export Plug-In . SVG Version: 6.00 Build 0)  -->
<svg version="1.1" id="Layer_1" xmlns="http://www.w3.org/2000/svg" xmlns:xlink="http://www.w3.org/1999/xlink" x="0px" y="0px"
	 viewBox="0 0 65 65" style="enable-background:new 0 0 65 65;" xml:space="preserve">
<style type="text/css">
	.st0{fill:#FFFFFF;}
	.st1{fill:#E83F31;}
</style>
<g>
	<path class="st0" d="M27.4,58h2.5v4.6h-0.4l-0.4-0.9c-0.2,0.3-0.4,0.6-0.8,0.8s-0.7,0.3-1,0.3c-0.5,0-0.9-0.1-1.2-0.3
		c-0.3-0.2-0.5-0.4-0.6-0.7s-0.2-0.6-0.2-1v-5.6c0-0.6,0.2-1.1,0.6-1.4c0.4-0.3,1-0.5,1.7-0.5c0.8,0,1.4,0.2,1.8,0.5
		c0.4,0.4,0.6,0.8,0.6,1.4V56h-1v-0.8c0-0.4-0.1-0.6-0.3-0.8c-0.2-0.2-0.6-0.3-1-0.3c-0.4,0-0.8,0.1-1,0.3c-0.2,0.2-0.3,0.5-0.3,0.8
		v5.6c0,0.3,0.1,0.6,0.2,0.8c0.1,0.2,0.4,0.3,0.8,0.3c0.3,0,0.6-0.1,0.8-0.2c0.2-0.2,0.4-0.3,0.6-0.6c0.2-0.2,0.2-0.4,0.2-0.6v-1.8
		h-1.6V58z"/>
	<path class="st0" d="M34.5,62.6h-2.4v-0.8h0.7v-7.4h-0.7v-0.8h2.4v0.8h-0.7v7.4h0.7V62.6z"/>
	<path class="st0" d="M40.5,54.3h-1.8v8.3h-1v-8.3h-1.8v-0.8h4.6V54.3z"/>
</g>
<path class="st1" d="M51.7,18.2L34.3,0.8c-1-1-2.6-1-3.6,0c0,0,0,0,0,0L27,4.4L31.6,9c1.1-0.4,2.3-0.1,3.1,0.7
	c0.8,0.8,1.1,2.1,0.7,3.2l4.4,4.4c1.1-0.4,2.3-0.1,3.2,0.7c1.2,1.2,1.2,3.1,0,4.3c-1.2,1.2-3.1,1.2-4.3,0c-0.9-0.9-1.1-2.2-0.7-3.3
	l-4.1-4.1v10.9c0.3,0.1,0.6,0.3,0.8,0.6c1.2,1.2,1.2,3.1,0,4.3c-1.2,1.2-3.1,1.2-4.3,0l0,0c-1.2-1.2-1.2-3.1,0-4.3c0,0,0,0,0,0
	c0.3-0.3,0.6-0.5,1-0.7v-11c-0.4-0.1-0.7-0.4-1-0.7c-0.9-0.9-1.1-2.2-0.7-3.4l-4.5-4.5l-12,12c-1,1-1,2.6,0,3.6c0,0,0,0,0,0
	l17.5,17.5c1,1,2.6,1,3.6,0c0,0,0,0,0,0l17.4-17.4C52.8,20.9,52.8,19.2,51.7,18.2C51.7,18.2,51.7,18.2,51.7,18.2"/>
</svg>
