<?xml version="1.0" encoding="utf-8"?>
<!-- Generator: Adobe Illustrator 26.2.1, SVG Export Plug-In . SVG Version: 6.00 Build 0)  -->
<svg version="1.1" id="Layer_1" xmlns="http://www.w3.org/2000/svg" xmlns:xlink="http://www.w3.org/1999/xlink" x="0px" y="0px"
	 viewBox="0 0 65 65" style="enable-background:new 0 0 65 65;" xml:space="preserve">
<style type="text/css">
	.st0{fill:#FFFFFF;}
</style>
<g>
	<path class="st0" d="M16.4,58H19v4.6h-0.4l-0.4-0.9c-0.2,0.3-0.4,0.6-0.8,0.8s-0.7,0.3-1,0.3c-0.5,0-0.9-0.1-1.2-0.3
		s-0.5-0.4-0.6-0.7s-0.2-0.6-0.2-1v-5.6c0-0.6,0.2-1.1,0.6-1.4c0.4-0.3,1-0.5,1.7-0.5c0.8,0,1.4,0.2,1.8,0.5
		c0.4,0.4,0.6,0.8,0.6,1.4V56h-1v-0.8c0-0.4-0.1-0.6-0.3-0.8c-0.2-0.2-0.6-0.3-1-0.3s-0.8,0.1-1,0.3c-0.2,0.2-0.3,0.5-0.3,0.8v5.6
		c0,0.3,0.1,0.6,0.2,0.8c0.1,0.2,0.4,0.3,0.8,0.3c0.3,0,0.6-0.1,0.8-0.2c0.2-0.2,0.4-0.3,0.6-0.6c0.2-0.2,0.2-0.4,0.2-0.6v-1.8h-1.6
		V58H16.4z"/>
	<path class="st0" d="M23.5,62.6h-2.4v-0.8h0.7v-7.4h-0.7v-0.8h2.4v0.8h-0.7v7.4h0.7V62.6z"/>
	<path class="st0" d="M29.5,54.3h-1.8v8.3h-1v-8.3h-1.8v-0.8h4.6C29.5,53.5,29.5,54.3,29.5,54.3z"/>
	<path class="st0" d="M31.4,62.6v-9.1h1v4.1h2.8v-4.1h1v9.1h-1v-4.2h-2.8v4.2H31.4z"/>
	<path class="st0" d="M42.5,53.5h1v7.4c0,0.6-0.2,1.1-0.6,1.4s-1,0.5-1.8,0.5s-1.4-0.2-1.8-0.5c-0.4-0.4-0.6-0.8-0.6-1.4v-7.4h1v7.4
		c0,0.3,0.1,0.6,0.3,0.8s0.6,0.3,1.1,0.3s0.8-0.1,1-0.3s0.3-0.5,0.3-0.8L42.5,53.5L42.5,53.5z"/>
	<path class="st0" d="M48.3,53.5c0.7,0,1.3,0.2,1.7,0.5c0.4,0.4,0.6,0.8,0.6,1.4v0.8c0,0.8-0.3,1.3-1,1.5c0.8,0.2,1.1,0.7,1.1,1.6
		v1.3c0,0.6-0.2,1.1-0.5,1.4c-0.4,0.4-0.9,0.5-1.7,0.5h-2.3v-9.1L48.3,53.5L48.3,53.5z M49.5,55.4c0-0.3-0.1-0.5-0.3-0.8
		c-0.2-0.2-0.5-0.4-0.9-0.4h-1.1v3.1h1.1c0.4,0,0.7-0.1,0.9-0.4c0.2-0.3,0.3-0.5,0.3-0.8V55.4z M49.7,59.4c0-0.3-0.1-0.5-0.3-0.8
		s-0.5-0.4-0.9-0.4h-1.3v3.6h1.3c0.4,0,0.7-0.1,0.9-0.4c0.2-0.2,0.3-0.5,0.3-0.8V59.4z"/>
</g>
<path class="st0" d="M53,0H13v40h40V0z M37.8,34.2c-0.8,0.1-1-0.3-1-0.7c0-0.5,0-2.9,0-4.9c0-1.4-0.5-2.3-1-2.7
	c3.3-0.4,6.8-0.8,6.8-6.5c0-1.6-0.6-2.4-1.5-3.5c0.2-0.4,0.7-2-0.2-4c-1.2-0.4-4.1,1.6-4.1,1.6c-1.2-0.3-2.5-0.5-3.7-0.5
	c-1.3,0-2.5,0.2-3.7,0.5c0,0-2.8-2-4.1-1.6c-0.8,2-0.3,3.6-0.2,4c-0.9,1-1.4,1.9-1.4,3.5c0,5.7,3.3,6.2,6.6,6.5
	c-0.4,0.4-0.8,1-0.9,2c-0.8,0.4-3,1-4.3-1.2c-0.8-1.4-2.3-1.5-2.3-1.5c-1.4,0-0.1,0.9-0.1,0.9c1,0.4,1.6,2.2,1.6,2.2
	c0.9,2.7,5,1.8,5,1.8c0,1.2,0,3.3,0,3.6c0,0.4-0.3,0.8-1,0.7c-5.9-2-10-7.6-10-14.1c0-8.2,6.3-14.4,14.5-14.4s14.8,6.2,14.8,14.4
	C47.7,26.6,43.7,32.2,37.8,34.2z M29,28.8c-0.2,0-0.3,0-0.3-0.2c0-0.1,0.1-0.2,0.3-0.3c0.2,0,0.3,0.1,0.3,0.2S29.2,28.7,29,28.8
	L29,28.8z M28.2,28.7c0,0.1-0.1,0.2-0.3,0.2c-0.2,0-0.3-0.1-0.3-0.2s0.1-0.2,0.3-0.2C28,28.4,28.2,28.5,28.2,28.7z M26.9,28.6
	c0,0.1-0.2,0.2-0.4,0.1c-0.2,0-0.3-0.2-0.3-0.3c0-0.1,0.2-0.2,0.4-0.1C26.9,28.3,27,28.5,26.9,28.6L26.9,28.6z M25.8,28.1
	c-0.1,0.1-0.2,0.1-0.4-0.1c-0.1-0.1-0.2-0.3-0.1-0.4s0.2-0.1,0.4,0.1C25.9,27.8,25.9,28,25.8,28.1z M25,27.3c-0.1,0.1-0.2,0-0.3-0.1
	c-0.1-0.1-0.1-0.3,0-0.3c0.1-0.1,0.2,0,0.3,0.1C25.1,27,25.1,27.2,25,27.3z M24.4,26.4c-0.1,0.1-0.2,0-0.3-0.1
	c-0.1-0.1-0.1-0.2,0-0.3c0.1-0.1,0.2,0,0.3,0.1C24.5,26.2,24.5,26.4,24.4,26.4z M23.8,25.8c0,0.1-0.2,0.1-0.2,0
	c-0.1-0.1-0.2-0.2-0.1-0.2c0-0.1,0.1-0.1,0.2,0C23.8,25.6,23.9,25.7,23.8,25.8z"/>
</svg>
