<?xml version="1.0" encoding="utf-8"?>
<!-- Generator: Adobe Illustrator 26.2.1, SVG Export Plug-In . SVG Version: 6.00 Build 0)  -->
<svg version="1.1" id="Layer_1" xmlns="http://www.w3.org/2000/svg" xmlns:xlink="http://www.w3.org/1999/xlink" x="0px" y="0px"
	 viewBox="0 0 65 65" style="enable-background:new 0 0 65 65;" xml:space="preserve">
<style type="text/css">
	.st0{fill:#E6520F;}
	.st1{fill:#ED6D1E;}
	.st2{fill:#FFFFFF;}
	.st3{fill:#EFEEEE;}
</style>
<g>
	<path class="st0" d="M50.4,0H14.6l3.2,35.8L32.5,40l14.8-4.2L50.4,0L50.4,0z"/>
	<path class="st1" d="M32.5,3.2v33.6l11.8-3.3l2.7-30.2C46.9,3.2,32.5,3.2,32.5,3.2z"/>
	<path class="st2" d="M32.5,21v-4.2h9.1l-0.8,12.2l-8.3,2.8v-4.4l4.3-1.5l0.3-4.8H32.5z M41.8,12.6l0.3-4.2h-9.7v4.2H41.8z"/>
	<path class="st3" d="M32.5,27.3v4.4l-8.3-2.8l-0.4-5.8H28l0.2,2.7L32.5,27.3z M27.3,12.6h5.2V8.3h-9.6L23.7,21h8.8v-4.2h-4.8
		L27.3,12.6z"/>
</g>
<g>
	<path class="st2" d="M19.8,62.6v-9.1h1v4.1h2.7v-4.1h1v9.1h-1v-4.2h-2.8v4.2H19.8z"/>
	<path class="st2" d="M30.9,54.3h-1.8v8.3h-1v-8.3h-1.8v-0.8h4.6C30.9,53.5,30.9,54.3,30.9,54.3z"/>
	<path class="st2" d="M32.7,62.6v-9.1h1.4l1.7,6.1l1.7-6.1h1.4v9.1h-1V55l-1.6,5.9h-0.9L33.7,55v7.5L32.7,62.6L32.7,62.6z"/>
	<path class="st2" d="M41.7,53.5h1v8.3h2.6v0.8h-3.5L41.7,53.5L41.7,53.5z"/>
</g>
</svg>
