<?xml version="1.0" encoding="utf-8"?>
<!-- Generator: Adobe Illustrator 26.2.1, SVG Export Plug-In . SVG Version: 6.00 Build 0)  -->
<svg version="1.1" id="Layer_1" xmlns="http://www.w3.org/2000/svg" xmlns:xlink="http://www.w3.org/1999/xlink" x="0px" y="0px"
	 viewBox="0 0 65 65" style="enable-background:new 0 0 65 65;" xml:space="preserve">
<style type="text/css">
	.st0{fill:#FFFFFF;}
	.st1{fill:url(#SVGID_1_);}
	.st2{fill:#F07E25;}
</style>
<g>
	<path class="st0" d="M3.2,62.6H0.9v-0.8h0.7v-7.4H0.9v-0.8h2.3v0.8H2.5v7.4h0.7V62.6z"/>
	<path class="st0" d="M5.5,53.5h1v8.3H9v0.8H5.5V53.5z"/>
	<path class="st0" d="M10.6,53.5h1v8.3h2.5v0.8h-3.5V53.5z"/>
	<path class="st0" d="M19.3,53.5h1v7.4c0,0.6-0.2,1.1-0.6,1.4s-1,0.5-1.7,0.5c-0.8,0-1.4-0.2-1.8-0.5s-0.6-0.8-0.6-1.4v-7.4h1v7.4
		c0,0.3,0.1,0.6,0.3,0.8c0.2,0.2,0.6,0.3,1,0.3c0.5,0,0.8-0.1,1-0.3c0.2-0.2,0.3-0.5,0.3-0.8V53.5z"/>
	<path class="st0" d="M26.6,58.9c0.3,0.3,0.5,0.6,0.6,0.9c0.1,0.3,0.1,0.6,0.1,1c0,0.6-0.2,1.1-0.5,1.4s-1,0.5-1.8,0.5
		c-0.8,0-1.4-0.2-1.8-0.5s-0.6-0.8-0.6-1.4v-1.2h1v1.2c0,0.3,0.1,0.6,0.3,0.8c0.2,0.2,0.6,0.3,1,0.3c0.5,0,0.8-0.1,1-0.3
		c0.2-0.2,0.3-0.5,0.3-0.8c0-0.3,0-0.5-0.1-0.7c-0.1-0.2-0.2-0.4-0.4-0.6l-2.4-2.4c-0.3-0.3-0.5-0.6-0.6-0.9c-0.1-0.3-0.2-0.6-0.2-1
		c0-0.6,0.2-1.1,0.6-1.4c0.4-0.3,1-0.5,1.7-0.5c0.8,0,1.3,0.2,1.7,0.5c0.4,0.4,0.5,0.8,0.5,1.4v1.2h-1v-1.2c0-0.3-0.1-0.6-0.3-0.8
		c-0.2-0.2-0.5-0.3-1-0.3s-0.8,0.1-1,0.3c-0.2,0.2-0.3,0.5-0.3,0.8c0,0.3,0,0.5,0.1,0.7c0.1,0.2,0.2,0.4,0.4,0.6L26.6,58.9z"/>
	<path class="st0" d="M33.3,54.3h-1.8v8.3h-1v-8.3h-1.8v-0.8h4.5V54.3z"/>
	<path class="st0" d="M35.1,62.6v-9.1h2.1c0.7,0,1.3,0.2,1.6,0.5c0.4,0.4,0.5,0.8,0.5,1.4v2c0,0.5-0.1,0.8-0.3,1.2s-0.5,0.5-0.9,0.7
		l1.7,3.4h-1.1l-1.6-3.2H36v3.2H35.1z M38.4,55.4c0-0.3-0.1-0.6-0.3-0.8c-0.2-0.2-0.5-0.3-0.9-0.3H36v4.2h1.1c0.4,0,0.7-0.1,0.9-0.3
		s0.3-0.5,0.3-0.8V55.4z"/>
	<path class="st0" d="M44.4,53.5l2,9.1h-1L45,60.5h-2.6l-0.5,2.1h-1l2-9.1H44.4z M42.5,59.6h2.3l-1.1-5.1L42.5,59.6z"/>
	<path class="st0" d="M51,54.3h-1.8v8.3h-1v-8.3h-1.8v-0.8H51V54.3z"/>
	<path class="st0" d="M57.3,60.8c0,0.6-0.2,1.1-0.6,1.4c-0.4,0.4-1,0.5-1.7,0.5s-1.4-0.2-1.8-0.5c-0.4-0.4-0.6-0.8-0.6-1.4v-5.6
		c0-0.6,0.2-1.1,0.6-1.4c0.4-0.3,1-0.5,1.7-0.5s1.4,0.2,1.8,0.5c0.4,0.4,0.6,0.8,0.6,1.4V60.8z M56.3,55.2c0-0.4-0.1-0.6-0.3-0.8
		c-0.2-0.2-0.6-0.3-1-0.3c-0.5,0-0.8,0.1-1,0.3c-0.2,0.2-0.3,0.5-0.3,0.8v5.6c0,0.3,0.1,0.6,0.3,0.8c0.2,0.2,0.6,0.3,1,0.3
		c0.5,0,0.8-0.1,1-0.3c0.2-0.2,0.3-0.5,0.3-0.8V55.2z"/>
	<path class="st0" d="M59.8,62.6v-9.1h2.1c0.7,0,1.3,0.2,1.6,0.5c0.4,0.4,0.5,0.8,0.5,1.4v2c0,0.5-0.1,0.8-0.3,1.2s-0.5,0.5-0.9,0.7
		l1.7,3.4h-1.1l-1.6-3.2h-1.1v3.2H59.8z M63.1,55.4c0-0.3-0.1-0.6-0.3-0.8c-0.2-0.2-0.5-0.3-0.9-0.3h-1.1v4.2h1.1
		c0.4,0,0.7-0.1,0.9-0.3s0.3-0.5,0.3-0.8V55.4z"/>
</g>
<g>
	
		<radialGradient id="SVGID_1_" cx="-224.8965" cy="-115.543" r="1.247177e-02" gradientTransform="matrix(2291.6677 0 0 -2218.751 515414.2188 -256351.1719)" gradientUnits="userSpaceOnUse">
		<stop  offset="0" style="stop-color:#423325;stop-opacity:0.98"/>
		<stop  offset="1" style="stop-color:#1A0D08"/>
	</radialGradient>
	<path class="st1" d="M13.7,1.7h37.6v36.6H13.7V1.7z"/>
	<path class="st2" d="M13.7,1.7h37.6v36.6H13.7V1.7z M12,40h41V0H12V40z M38.9,14.3c0-0.1,0.1-0.2,0.2-0.2h2.7
		c0.1,0,0.2,0.1,0.2,0.2v13.5c0,0.1,0,0.2-0.2,0.2h-2.6c-0.2,0-0.2-0.1-0.2-0.2L38.9,14.3L38.9,14.3L38.9,14.3z M38.7,10.4
		c0-1.1,0.8-1.7,1.7-1.7c1,0,1.7,0.7,1.7,1.7c0,1.1-0.7,1.7-1.8,1.7C39.4,12.1,38.7,11.5,38.7,10.4z M31,19.9c-0.5-1.9-1.6-6-2-8h0
		c-0.4,2-1.3,5.4-2,8H31z M26.2,22.6l-1.4,5.1c0,0.1-0.1,0.2-0.3,0.2h-2.5c-0.2,0-0.2-0.1-0.2-0.3l4.9-17c0.1-0.3,0.1-0.6,0.2-1.4
		c0-0.1,0.1-0.2,0.1-0.2h3.6c0.1,0,0.2,0,0.2,0.2l5.4,18.4c0,0.1,0,0.2-0.1,0.2h-2.8c-0.1,0-0.2,0-0.3-0.2l-1.4-5.1H26.2L26.2,22.6z
		"/>
</g>
</svg>
