<?xml version="1.0" encoding="utf-8"?>
<!-- Generator: Adobe Illustrator 26.1.0, SVG Export Plug-In . SVG Version: 6.00 Build 0)  -->
<svg version="1.1" id="Layer_1" xmlns="http://www.w3.org/2000/svg" xmlns:xlink="http://www.w3.org/1999/xlink" x="0px" y="0px"
	 viewBox="0 0 65 65" style="enable-background:new 0 0 65 65;" xml:space="preserve">
<style type="text/css">
	.st0{fill:#F6DF1C;}
	.st1{fill:#020203;}
</style>
<g>
	<path d="M5.6,53.5V61c0,0.6-0.2,1.1-0.5,1.4s-0.8,0.5-1.4,0.5s-1-0.2-1.4-0.5S1.8,61.6,1.8,61v-0.9h1v1c0,0.3,0.1,0.6,0.2,0.7
		S3.4,62,3.7,62s0.5-0.1,0.7-0.2c0.2-0.1,0.2-0.4,0.2-0.7v-6.7H2.8v-0.8L5.6,53.5L5.6,53.5z"/>
	<path d="M11,53.5l2.1,9.1h-1l-0.5-2.1H8.9l-0.5,2.1h-1l2.1-9.1H11z M9.1,59.6h2.3l-1.1-5.1L9.1,59.6z"/>
	<path d="M15.9,62.6l-2.1-9.1h1l1.8,8l1.8-8h1l-2.1,9.1H15.9z"/>
	<path d="M23.8,53.5l2.1,9.1h-1l-0.5-2.1h-2.7l-0.5,2.1h-1l2.1-9.1H23.8z M21.9,59.6h2.3l-1.1-5.1L21.9,59.6z"/>
	<path d="M31.6,58.9c0.3,0.3,0.5,0.6,0.6,0.9c0.1,0.3,0.1,0.6,0.1,1c0,0.6-0.2,1.1-0.6,1.4c-0.4,0.4-1,0.5-1.8,0.5s-1.4-0.2-1.8-0.5
		s-0.6-0.8-0.6-1.4v-1.2h1v1.2c0,0.3,0.1,0.6,0.3,0.8c0.2,0.2,0.6,0.3,1,0.3s0.8-0.1,1-0.3s0.3-0.5,0.3-0.8s0-0.5-0.1-0.7
		s-0.2-0.4-0.4-0.6l-2.5-2.4c-0.3-0.3-0.5-0.6-0.6-0.9c-0.1-0.3-0.2-0.6-0.2-1c0-0.6,0.2-1.1,0.6-1.4c0.4-0.3,1-0.5,1.8-0.5
		s1.4,0.2,1.7,0.5c0.4,0.4,0.5,0.8,0.5,1.4v1.2h-1v-1.2c0-0.3-0.1-0.6-0.3-0.8c-0.2-0.2-0.5-0.3-1-0.3c-0.4,0-0.8,0.1-1,0.3
		s-0.3,0.5-0.3,0.8s0,0.5,0.1,0.7s0.2,0.4,0.4,0.6L31.6,58.9z"/>
	<path d="M38.2,60.1h1v0.8c0,0.6-0.2,1.1-0.6,1.4c-0.4,0.4-1,0.5-1.7,0.5c-0.8,0-1.4-0.2-1.8-0.5c-0.4-0.4-0.6-0.8-0.6-1.4v-5.6
		c0-0.6,0.2-1.1,0.6-1.4c0.4-0.3,1-0.5,1.7-0.5c0.8,0,1.4,0.2,1.8,0.5c0.4,0.4,0.6,0.8,0.6,1.4v1.3h-1v-1.3c0-0.4-0.1-0.6-0.3-0.8
		s-0.6-0.3-1-0.3s-0.8,0.1-1,0.3s-0.3,0.5-0.3,0.8v5.6c0,0.3,0.1,0.6,0.3,0.8s0.6,0.3,1,0.3s0.8-0.1,1-0.3s0.3-0.5,0.3-0.8V60.1z"/>
	<path d="M41.7,62.6v-9.1h2.1c0.7,0,1.3,0.2,1.7,0.5c0.4,0.4,0.6,0.8,0.6,1.4v2c0,0.5-0.1,0.8-0.3,1.2c-0.2,0.3-0.5,0.5-0.9,0.7
		l1.7,3.4h-1.1l-1.6-3.2h-1.1v3.2h-1.1C41.7,62.7,41.7,62.6,41.7,62.6z M45,55.4c0-0.3-0.1-0.6-0.3-0.8s-0.5-0.3-0.9-0.3h-1.1v4.2
		h1.1c0.4,0,0.7-0.1,0.9-0.3s0.3-0.5,0.3-0.8V55.4z"/>
	<path d="M50.4,62.6H48v-0.8h0.7v-7.4H48v-0.8h2.4v0.8h-0.7v7.4h0.7V62.6z"/>
	<path d="M52.8,62.6v-9.1h2.1c0.7,0,1.3,0.2,1.7,0.5c0.4,0.4,0.6,0.8,0.6,1.4v2.4c0,0.6-0.2,1.1-0.5,1.4c-0.4,0.4-0.9,0.5-1.7,0.5
		h-1.1v2.8L52.8,62.6L52.8,62.6z M56.2,55.4c0-0.3-0.1-0.6-0.3-0.8s-0.5-0.3-0.9-0.3h-1.1v4.6H55c0.4,0,0.7-0.1,0.9-0.3
		s0.3-0.5,0.3-0.8V55.4z"/>
	<path d="M63,54.3h-1.8v8.3h-1v-8.3h-1.8v-0.8H63V54.3z"/>
</g>
<g>
	<path class="st0" d="M12.5,40V0h40v40H12.5z"/>
	<path class="st1" d="M38.7,29.9c0.8,1.2,1.6,2.5,3.4,2.5c1.5,0,2.3-0.7,2.3-1.7c0-1.2-0.8-1.6-2.5-2.4L41,27.9
		c-2.6-1.1-4.3-2.5-4.3-5.4c0-2.7,2-4.7,5.2-4.7c2.3,0,3.9,0.8,5.1,2.9l-2.7,1.7c-0.6-1.1-1.3-1.5-2.4-1.5s-1.7,0.5-1.7,1.5
		s0.7,1.5,2.3,2.1l0.9,0.4c3.1,1.3,4.8,2.7,4.8,5.6c0,3.2-2.6,5-5.9,5s-5.2-1.6-6.2-3.8L38.7,29.9z M25.8,30c0.5,1,1.4,1.7,2.7,1.7
		c1.1,0,1.8-0.5,1.8-2.3V17.8H34v12.4c0,3.8-2.1,5.4-5.3,5.4c-2.9,0-4.9-1.9-5.7-3.8L25.8,30z"/>
</g>
</svg>
