<?xml version="1.0" encoding="utf-8"?>
<!-- Generator: Adobe Illustrator 26.2.1, SVG Export Plug-In . SVG Version: 6.00 Build 0)  -->
<svg version="1.1" id="Layer_1" xmlns="http://www.w3.org/2000/svg" xmlns:xlink="http://www.w3.org/1999/xlink" x="0px" y="0px"
	 viewBox="0 0 65 65" style="enable-background:new 0 0 65 65;" xml:space="preserve">
<style type="text/css">
	.st0{fill:#FFFFFF;}
	.st1{fill:url(#SVGID_1_);}
	.st2{clip-path:url(#SVGID_00000000215725939857814900000006432754244391231912_);}
</style>
<g>
	<path class="st0" d="M4.7,53.5h1v8.3h2.6v0.8H4.7V53.5z"/>
	<path class="st0" d="M11.8,62.6H9.5v-0.8h0.7v-7.4H9.5v-0.8h2.4v0.8h-0.7v7.4h0.7V62.6z"/>
	<path class="st0" d="M16.1,58h2.5v4.6h-0.4l-0.4-0.9c-0.2,0.3-0.4,0.6-0.8,0.8s-0.7,0.3-1,0.3c-0.5,0-0.9-0.1-1.2-0.3
		c-0.3-0.2-0.5-0.4-0.6-0.7s-0.2-0.6-0.2-1v-5.6c0-0.6,0.2-1.1,0.6-1.4c0.4-0.3,1-0.5,1.7-0.5c0.8,0,1.4,0.2,1.8,0.5
		c0.4,0.4,0.6,0.8,0.6,1.4V56h-1v-0.8c0-0.4-0.1-0.6-0.3-0.8c-0.2-0.2-0.6-0.3-1-0.3c-0.4,0-0.8,0.1-1,0.3c-0.2,0.2-0.3,0.5-0.3,0.8
		v5.6c0,0.3,0.1,0.6,0.2,0.8c0.1,0.2,0.4,0.3,0.8,0.3c0.3,0,0.6-0.1,0.8-0.2c0.2-0.2,0.4-0.3,0.6-0.6c0.2-0.2,0.2-0.4,0.2-0.6v-1.8
		h-1.6V58z"/>
	<path class="st0" d="M21.2,62.6v-9.1h1v4.1H25v-4.1h1v9.1h-1v-4.2h-2.8v4.2H21.2z"/>
	<path class="st0" d="M32.4,54.3h-1.8v8.3h-1v-8.3h-1.8v-0.8h4.6V54.3z"/>
	<path class="st0" d="M36.3,53.5c0.7,0,1.3,0.2,1.7,0.5c0.4,0.4,0.6,0.8,0.6,1.4v0.8c0,0.8-0.3,1.3-1,1.5c0.8,0.2,1.1,0.7,1.1,1.6
		v1.3c0,0.6-0.2,1.1-0.5,1.4c-0.4,0.4-0.9,0.5-1.7,0.5h-2.3v-9.1H36.3z M37.6,55.4c0-0.3-0.1-0.5-0.3-0.8c-0.2-0.2-0.5-0.4-0.9-0.4
		h-1.1v3.1h1.1c0.4,0,0.7-0.1,0.9-0.4c0.2-0.3,0.3-0.5,0.3-0.8V55.4z M37.7,59.4c0-0.3-0.1-0.5-0.3-0.8s-0.5-0.4-0.9-0.4h-1.3v3.6
		h1.3c0.4,0,0.7-0.1,0.9-0.4c0.2-0.2,0.3-0.5,0.3-0.8V59.4z"/>
	<path class="st0" d="M44.9,53.5h1v7.4c0,0.6-0.2,1.1-0.6,1.4s-1,0.5-1.8,0.5s-1.4-0.2-1.8-0.5c-0.4-0.4-0.6-0.8-0.6-1.4v-7.4h1v7.4
		c0,0.3,0.1,0.6,0.3,0.8c0.2,0.2,0.6,0.3,1.1,0.3c0.5,0,0.8-0.1,1-0.3c0.2-0.2,0.3-0.5,0.3-0.8V53.5z"/>
	<path class="st0" d="M48.6,62.6v-9.1h2.1c0.7,0,1.3,0.2,1.7,0.5c0.4,0.4,0.6,0.8,0.6,1.4v2c0,0.5-0.1,0.8-0.3,1.2
		c-0.2,0.3-0.5,0.5-0.9,0.7l1.7,3.4h-1.1l-1.6-3.2h-1.1v3.2H48.6z M51.9,55.4c0-0.3-0.1-0.6-0.3-0.8s-0.5-0.3-0.9-0.3h-1.1v4.2h1.1
		c0.4,0,0.7-0.1,0.9-0.3c0.2-0.2,0.3-0.5,0.3-0.8V55.4z"/>
	<path class="st0" d="M55.3,62.6v-9.1h0.9l3.1,7v-7h1v9.1h-0.9l-3.1-7v7H55.3z"/>
</g>
<g>
	<linearGradient id="SVGID_1_" gradientUnits="userSpaceOnUse" x1="52.4248" y1="39.9248" x2="12.5752" y2="7.515527e-02">
		<stop  offset="0" style="stop-color:#E52628"/>
		<stop  offset="1" style="stop-color:#000000"/>
	</linearGradient>
	<rect x="12.7" class="st1" width="39.7" height="40"/>
	<g>
		<defs>
			<rect id="SVGID_00000010287745790325178980000014530809817897504410_" x="12.7" width="39.7" height="40"/>
		</defs>
		<clipPath id="SVGID_00000106849736905377311650000011861899995889272766_">
			<use xlink:href="#SVGID_00000010287745790325178980000014530809817897504410_"  style="overflow:visible;"/>
		</clipPath>
		<g style="clip-path:url(#SVGID_00000106849736905377311650000011861899995889272766_);">
			<path class="st0" d="M40.7,8.6c0.5-0.5,0.9-0.9,1.4-1.4c0,0.4,0.1,0.7,0.1,1c0.2,1.4,0.4,2.7,0.8,4c0.4,1.3,1.1,2.5,1.8,3.6
				c0.2,0.3,0.3,0.5,0.5,0.8c-0.1-0.1-0.3-0.2-0.4-0.2c-0.7-0.4-1.3-0.8-2-1.1c-1.3-0.6-2.6-1-4-1.2c-1-0.1-1.9-0.2-2.9-0.3
				c-0.1,0-0.2,0-0.3,0c0.5-0.6,1.1-1.1,1.6-1.7c-0.2-0.2-0.4-0.4-0.6-0.6c-1.3-1.1-2.7-1.9-4.2-2.5c-1.6-0.6-3.2-1-4.9-1.1
				c-1.1-0.1-2.1,0-3.2,0.1C22.9,8,21.5,8.4,20.1,9c-3.5,1.5-6.1,4-7.8,7.5c-0.9,1.9-1.4,3.8-1.6,5.9c-0.3,2.7-0.1,5.3,0.7,7.9
				c0.4,1.4,1.1,2.7,2,3.9c0.9,1.3,2,2.5,3.3,3.4c1,0.7,2.1,1.3,3.3,1.5c0.9,0.2,1.8,0.2,2.8,0.2c1.5,0,2.9-0.2,4.3-0.6
				c1.9-0.6,3.6-1.7,4.9-3.1c0.9-0.9,1.6-2,2.3-3.1c0.2-0.4,0.4-0.8,0.4-1.2c0-0.7-0.2-1.3-0.8-1.8c0.5-0.9,1-1.8,1.4-2.7
				c0,0,0,0-0.1,0C35.1,26.9,35,26.9,35,27c-0.3,0.4-0.7,0.9-1,1.3c-0.2,0.3-0.4,0.5-0.6,0.8c-0.4,0.4-0.8,0.7-1.3,0.8
				c-0.3,0-0.6,0-0.9-0.1c-0.4-0.1-0.8-0.2-1.2-0.2c-0.5-0.1-1.1,0-1.6,0.2c-0.8,0.3-1.5,0.7-2.2,1.4c-0.4,0.4-0.8,0.9-1.1,1.3
				c-0.6,0.7-1.3,1.3-2.2,1.5c-0.7,0.2-1.5,0.1-2.2,0c-0.5-0.1-1-0.2-1.4-0.5c-0.1-0.1-0.1-0.1-0.2-0.2c0,0,0.1,0,0.1,0
				c0.5,0,1-0.1,1.5-0.1c0.7,0,1.3-0.4,1.7-0.9c0.3-0.4,0.6-0.8,0.9-1.2c0.9-1.3,2.1-2.4,3.5-3.3c0.5-0.3,1-0.6,1.6-0.9
				c-0.1-0.1-0.1-0.1-0.2-0.1c-0.5-0.4-1.1-0.5-1.7-0.3c-1.5,0.4-2.9,1.1-3.9,2.3c-0.1,0.1-0.2,0.2-0.3,0.3
				c-0.3,0.4-0.7,0.6-1.1,0.8c-0.2,0.1-0.3,0.2-0.5,0.3c-0.4,0.2-0.5,0.5-0.4,1c0.1,0.2,0.2,0.4,0.3,0.6c0,0,0.1,0.1,0.1,0.1
				c-0.6-0.2-1.1-0.6-1.4-1.2c-0.4,0.1-0.7,0.2-1.1,0.2c0,0-0.1,0-0.1,0c-0.4,0.2-0.5,0.4-0.3,0.8c0,0,0,0.1,0,0.1
				c0,0-0.1-0.1-0.1-0.1c0,0-0.1-0.1-0.1-0.2c-0.3-0.3-0.5-0.6-0.9-0.8c-0.4-0.1-0.6-0.4-0.7-0.7c-0.3-1-0.2-2,0.4-2.9
				c0.1-0.1,0.2-0.2,0.2-0.2c0.4-0.4,0.9-0.3,1.2,0.2c0.1,0.1,0.1,0.1,0.2,0.1c0.1,0,0.2-0.1,0.3-0.1c0.1-0.1,0.2-0.1,0.3-0.3
				c0.2-0.5,0.7-0.7,1.2-0.8c0.1,0,0.3,0,0.4,0c0.1,0,0.3,0,0.4-0.1c0.4-0.3,0.8-0.7,1.1-1.1c0.6-0.6,1-1.4,1.4-2.1
				c0.2-0.3,0.4-0.6,0.6-0.9c0.1-0.2,0.1-0.3,0.1-0.5c0-0.5,0.1-1.1,0.4-1.5c0.4-0.6,1-0.9,1.6-1.1c0.9-0.2,1.8-0.2,2.7,0
				c0.2,0.1,0.4,0.1,0.6,0.1c0.2,0,0.3-0.1,0.4-0.2c0.7-0.9,1.6-1.6,2.6-2.2c0.6-0.3,1.2-0.6,1.9-0.9c0.2-0.1,0.4-0.1,0.6-0.2
				c-0.3,0.2-0.6,0.4-0.9,0.7c-0.3,0.2-0.6,0.5-0.8,0.8c-0.3,0.3-0.5,0.6-0.7,0.8c-0.2,0.3-0.5,0.6-0.6,1c0.2,0,0.4,0,0.5,0
				c0.1,0,0.3,0,0.4,0c0.2,0,0.2,0,0.3-0.1c0.2-0.3,0.5-0.6,0.7-0.8c0.7-0.8,1.6-1.2,2.7-1.4c0,0,0,0,0,0c-0.2,0.1-0.4,0.3-0.6,0.4
				c-0.4,0.3-0.8,0.7-1,1.2C35,18.2,35,18.4,35,18.7c0,0.1,0,0.1,0.1,0.1c1.9,0.2,3.8,0.9,5.4,2c1.1,0.8,2,1.7,2.7,2.9
				c0,0,0,0.1,0.1,0.1c-0.6-0.7-1.4-1.2-2.4-1.3c0.1,0.1,0.1,0.1,0.1,0.1c1.4,1.6,2.4,3.4,3.1,5.4c0.6,1.6,0.9,3.3,1,4.9
				c0.1,1.6,0,3.3-0.6,4.8c0,0.1-0.1,0.2-0.1,0.3c0,0,0,0-0.1,0c0-0.1,0-0.1-0.1-0.2c0-0.3-0.1-0.7-0.1-1c-0.1-0.5-0.2-0.9-0.5-1.3
				c-0.1-0.1-0.2-0.2-0.3-0.2c0,0,0,0.1,0,0.1c0,1.2-0.2,2.4-0.5,3.5c-0.2,0.7-0.7,1.3-1.2,1.9c-0.7,0.7-1.5,1.2-2.3,1.6
				c-0.7,0.4-1.5,0.7-2.2,1c-1.2,0.4-2.4,0.7-3.6,1c-2.7,0.5-5.5,0.7-8.3,0.6c-1,0-2-0.1-3-0.2c-1.7-0.1-3.3-0.6-4.9-1.4
				c-1.7-0.9-3.3-1.9-4.8-3.2c-1.7-1.6-3-3.4-4-5.4c-0.9-1.9-1.6-3.8-2-5.9C6,27.2,5.9,25.4,6,23.6C6,22,6.2,20.4,6.6,18.9
				c0.8-3.2,2.2-6.2,4.4-8.7c1.8-2.1,4-3.7,6.4-4.8c2-0.9,4.1-1.5,6.3-1.8c1.9-0.2,3.8-0.2,5.8,0c1.8,0.2,3.6,0.6,5.4,1.3
				c2.2,0.8,4.1,2,5.8,3.6C40.6,8.5,40.7,8.5,40.7,8.6z M24.9,24.2c0.1,0,0.1,0,0.1,0c0.5,0,1.1-0.1,1.6-0.3
				c0.7-0.2,1.3-0.6,1.8-1.2c0.1-0.1,0.2-0.3,0.3-0.4c-0.2-0.1-0.4-0.1-0.5-0.2c-0.8-0.2-1.5-0.2-2.2,0.3
				C25.4,22.9,25.1,23.5,24.9,24.2z"/>
		</g>
	</g>
</g>
</svg>
