<?xml version="1.0" encoding="utf-8"?>
<!-- Generator: Adobe Illustrator 26.1.0, SVG Export Plug-In . SVG Version: 6.00 Build 0)  -->
<svg version="1.1" id="Layer_1" xmlns="http://www.w3.org/2000/svg" xmlns:xlink="http://www.w3.org/1999/xlink" x="0px" y="0px"
	 viewBox="0 0 65 65" style="enable-background:new 0 0 65 65;" xml:space="preserve">
<style type="text/css">
	.st0{fill:#87BD34;}
	.st1{fill:#FFFFFF;}
</style>
<g>
	<path d="M11.8,62.6v-9.1h0.9l3.1,7v-7h1v9.1h-0.9l-3.1-7v7H11.8z"/>
	<path d="M24.2,60.8c0,0.6-0.2,1.1-0.6,1.4c-0.4,0.4-1,0.5-1.8,0.5s-1.4-0.2-1.8-0.5c-0.4-0.4-0.6-0.8-0.6-1.4v-5.6
		c0-0.6,0.2-1.1,0.6-1.4c0.4-0.3,1-0.5,1.8-0.5s1.4,0.2,1.8,0.5c0.4,0.4,0.6,0.8,0.6,1.4V60.8z M23.2,55.2c0-0.4-0.1-0.6-0.4-0.8
		c-0.2-0.2-0.6-0.3-1.1-0.3s-0.8,0.1-1,0.3s-0.3,0.5-0.3,0.8v5.6c0,0.3,0.1,0.6,0.4,0.8c0.2,0.2,0.6,0.3,1.1,0.3s0.8-0.1,1-0.3
		s0.3-0.5,0.3-0.8V55.2z"/>
	<path d="M26.8,62.6v-9.1H29c0.7,0,1.3,0.2,1.7,0.5c0.4,0.4,0.6,0.8,0.6,1.4v5.2c0,0.6-0.2,1.1-0.5,1.4c-0.4,0.4-0.9,0.5-1.7,0.5
		L26.8,62.6L26.8,62.6z M30.3,55.4c0-0.3-0.1-0.5-0.3-0.8c-0.2-0.2-0.5-0.4-0.9-0.4h-1.3v7.4H29c0.4,0,0.7-0.1,0.9-0.4
		c0.2-0.2,0.3-0.5,0.3-0.8v-5H30.3z"/>
	<path d="M33.8,62.6v-9.1h4v0.8h-3v3.2h2.5v0.8h-2.5v3.4H38v0.8L33.8,62.6L33.8,62.6z"/>
	<path d="M39.8,62.6V61h1.3v1.5L39.8,62.6L39.8,62.6z"/>
	<path d="M46.4,53.5V61c0,0.6-0.2,1.1-0.5,1.4s-0.8,0.5-1.4,0.5s-1-0.2-1.4-0.5s-0.5-0.8-0.5-1.4v-0.9h1v1c0,0.3,0.1,0.6,0.2,0.7
		s0.4,0.2,0.7,0.2s0.5-0.1,0.7-0.2c0.2-0.1,0.2-0.4,0.2-0.7v-7.5L46.4,53.5L46.4,53.5z"/>
	<path d="M52.8,58.9c0.3,0.3,0.5,0.6,0.6,0.9c0.1,0.3,0.1,0.6,0.1,1c0,0.6-0.2,1.1-0.6,1.4c-0.4,0.4-1,0.5-1.8,0.5s-1.4-0.2-1.8-0.5
		s-0.6-0.8-0.6-1.4v-1.2h1v1.2c0,0.3,0.1,0.6,0.3,0.8s0.6,0.3,1,0.3s0.8-0.1,1-0.3s0.3-0.5,0.3-0.8s0-0.5-0.1-0.7s-0.2-0.4-0.4-0.6
		l-2.5-2.4c-0.3-0.3-0.5-0.6-0.6-0.9c-0.1-0.3-0.2-0.6-0.2-1c0-0.6,0.2-1.1,0.6-1.4c0.4-0.3,1-0.5,1.8-0.5s1.4,0.2,1.7,0.5
		c0.4,0.4,0.5,0.8,0.5,1.4v1.2h-1v-1.2c0-0.3-0.1-0.6-0.3-0.8s-0.5-0.3-1-0.3c-0.4,0-0.8,0.1-1,0.3s-0.3,0.5-0.3,0.8s0,0.5,0.1,0.7
		s0.2,0.4,0.4,0.6L52.8,58.9z"/>
</g>
<g>
	<path class="st0" d="M32.4,26.6c-0.2,0-0.4,0-0.6,0.1l-5.5,3.2c-0.4,0.2-0.6,0.6-0.6,1v6.3c0,0.4,0.2,0.8,0.6,1l1.4,0.8
		c0.7,0.3,1,0.3,1.3,0.3c1,0,1.6-0.6,1.6-1.7v-6.2c0-0.1-0.1-0.2-0.2-0.2h-0.7c-0.1,0-0.2,0.1-0.2,0.2v6.2c0,0.5-0.5,1-1.3,0.6
		l-1.5-0.9c-0.1,0-0.1-0.1-0.1-0.1v-6.3c0-0.1,0-0.1,0.1-0.2l5.5-3.1c0.1,0,0.1,0,0.2,0l5.5,3.1c0.1,0,0.1,0.1,0.1,0.2v6.3
		c0,0.1,0,0.1-0.1,0.2l-5.5,3.1c0,0-0.1,0-0.2,0L31,39.7h-0.1c-0.4,0.2-0.5,0.2-0.8,0.4c-0.1,0-0.2,0.1,0,0.2l1.8,1.1
		c0.2,0.1,0.4,0.2,0.6,0.2s0.4-0.1,0.6-0.2l5.5-3.1c0.4-0.2,0.6-0.6,0.6-1V31c0-0.4-0.2-0.8-0.6-1L33,26.8
		C32.8,26.7,32.6,26.6,32.4,26.6L32.4,26.6z"/>
	<path class="st0" d="M33.9,31.2c-1.6,0-2.5,0.7-2.5,1.8c0,1.2,0.9,1.5,2.4,1.7c1.8,0.2,1.9,0.4,1.9,0.8c0,0.6-0.5,0.9-1.6,0.9
		c-1.4,0-1.8-0.4-1.9-1.1c0-0.1-0.1-0.1-0.2-0.1h-0.7c-0.1,0-0.2,0.1-0.2,0.2c0,0.9,0.5,2,2.9,2c1.7,0,2.7-0.7,2.7-1.9
		s-0.8-1.5-2.5-1.7s-1.9-0.3-1.9-0.7c0-0.3,0.1-0.8,1.4-0.8c1.1,0,1.5,0.2,1.7,1c0,0.1,0.1,0.1,0.2,0.1h0.7c0,0,0.1,0,0.1-0.1
		c0,0,0.1-0.1,0-0.1C36.5,31.8,35.7,31.2,33.9,31.2L33.9,31.2z"/>
</g>
<path class="st1" d="M43.7,4c-0.1,0-0.1,0-0.2,0c-0.1,0.1-0.2,0.2-0.2,0.3v8.9c0,0.1,0,0.2-0.1,0.2s-0.2,0-0.2,0l-1.5-0.8
	c-0.2-0.1-0.5-0.1-0.7,0L35.1,16c-0.2,0.1-0.3,0.4-0.3,0.6v6.7c0,0.2,0.1,0.5,0.3,0.6l5.8,3.3c0.2,0.1,0.5,0.1,0.7,0l5.8-3.3
	c0.2-0.1,0.3-0.4,0.3-0.6V6.6c0-0.3-0.1-0.5-0.4-0.6l-3.4-2C43.9,4,43.8,4,43.7,4L43.7,4z M6.5,12.4c-0.1,0-0.2,0-0.3,0.1l-5.8,3.3
	C0.1,15.9,0,16.1,0,16.4v9c0,0.1,0.1,0.2,0.2,0.3c0.1,0.1,0.2,0.1,0.3,0l3.4-2c0.2-0.1,0.4-0.4,0.4-0.6v-4.2c0-0.3,0.1-0.5,0.3-0.6
	l1.5-0.8c0.1-0.1,0.2-0.1,0.3-0.1c0.1,0,0.2,0,0.3,0.1l1.5,0.8c0.2,0.1,0.3,0.4,0.3,0.6v4.2c0,0.2,0.1,0.5,0.4,0.6l3.4,2
	c0.1,0.1,0.2,0.1,0.3,0s0.2-0.2,0.2-0.3v-9c0-0.2-0.1-0.5-0.3-0.6l-5.8-3.3C6.7,12.4,6.6,12.4,6.5,12.4L6.5,12.4z M58.5,12.4
	c-0.1,0-0.2,0-0.3,0.1l-5.8,3.3C52.2,16,52,16.2,52,16.5v6.7c0,0.3,0.1,0.5,0.4,0.6l5.7,3.3c0.2,0.1,0.5,0.1,0.7,0l3.5-1.9
	c0.1-0.1,0.2-0.2,0.2-0.3c0-0.1-0.1-0.2-0.2-0.3l-5.8-3.3c-0.1-0.1-0.2-0.2-0.2-0.3v-2.1c0-0.1,0.1-0.2,0.2-0.3l1.8-1
	c0.1-0.1,0.2-0.1,0.3,0l1.8,1c0.1,0.1,0.2,0.2,0.2,0.3v1.6c0,0.1,0.1,0.2,0.2,0.3c0.1,0.1,0.2,0.1,0.3,0l3.5-2
	c0.2-0.1,0.3-0.4,0.3-0.6v-1.6c0-0.2-0.1-0.5-0.3-0.6l-5.8-3.3C58.8,12.5,58.7,12.4,58.5,12.4L58.5,12.4z M41.2,17.4
	C41.2,17.4,41.3,17.4,41.2,17.4l2.1,1.2c0.1,0,0.1,0.1,0.1,0.2v2.3c0,0.1,0,0.1-0.1,0.2l-2,1.1c-0.1,0-0.1,0-0.2,0l-2-1.1
	c-0.1,0-0.1-0.1-0.1-0.2v-2.3c0-0.1,0-0.1,0.1-0.2L41.2,17.4L41.2,17.4L41.2,17.4L41.2,17.4z"/>
<path class="st0" d="M23.9,12.4c-0.1,0-0.2,0-0.3,0.1l-5.8,3.3c-0.2,0.1-0.3,0.4-0.3,0.6v6.7c0,0.3,0.1,0.5,0.3,0.6l5.8,3.3
	c0.2,0.1,0.5,0.1,0.7,0l5.8-3.3c0.2-0.1,0.3-0.4,0.3-0.6v-6.7c0-0.3-0.1-0.5-0.3-0.6l-5.8-3.3C24.1,12.4,24,12.4,23.9,12.4
	L23.9,12.4z M58.5,18.4L58.5,18.4L57.3,19l-0.1,0.1v1.3c0,0,0,0.1,0.1,0.1l1.1,0.6h0.1l1.1-0.6l0.1-0.1v-1.3c0,0,0-0.1-0.1-0.1
	L58.5,18.4C58.6,18.4,58.6,18.4,58.5,18.4L58.5,18.4z"/>
</svg>
