<?xml version="1.0" encoding="utf-8"?>
<!-- Generator: Adobe Illustrator 26.2.1, SVG Export Plug-In . SVG Version: 6.00 Build 0)  -->
<svg version="1.1" id="Layer_1" xmlns="http://www.w3.org/2000/svg" xmlns:xlink="http://www.w3.org/1999/xlink" x="0px" y="0px"
	 viewBox="0 0 65 65" style="enable-background:new 0 0 65 65;" xml:space="preserve">
<style type="text/css">
	.st0{fill:#FFFFFF;}
	.st1{fill:url(#SVGID_1_);}
	.st2{fill:#41BFEA;}
</style>
<g>
	<path class="st0" d="M2.9,62.6v-9.1H5c0.7,0,1.3,0.2,1.7,0.5c0.4,0.4,0.6,0.8,0.6,1.4v2.4c0,0.6-0.2,1.1-0.5,1.4
		c-0.4,0.4-0.9,0.5-1.7,0.5H3.9v2.8H2.9z M6.2,55.4c0-0.3-0.1-0.6-0.3-0.8S5.4,54.3,5,54.3H3.9v4.6H5c0.4,0,0.7-0.1,0.9-0.3
		c0.2-0.2,0.3-0.5,0.3-0.8V55.4z"/>
	<path class="st0" d="M9.5,62.6v-9.1h1v4.1h2.8v-4.1h1v9.1h-1v-4.2h-2.8v4.2H9.5z"/>
	<path class="st0" d="M21.5,60.8c0,0.6-0.2,1.1-0.6,1.4c-0.4,0.4-1,0.5-1.8,0.5s-1.4-0.2-1.8-0.5c-0.4-0.4-0.6-0.8-0.6-1.4v-5.6
		c0-0.6,0.2-1.1,0.6-1.4c0.4-0.3,1-0.5,1.8-0.5c0.8,0,1.4,0.2,1.8,0.5c0.4,0.4,0.6,0.8,0.6,1.4V60.8z M20.5,55.2
		c0-0.4-0.1-0.6-0.4-0.8c-0.2-0.2-0.6-0.3-1.1-0.3c-0.5,0-0.8,0.1-1,0.3c-0.2,0.2-0.3,0.5-0.3,0.8v5.6c0,0.3,0.1,0.6,0.4,0.8
		c0.2,0.2,0.6,0.3,1.1,0.3c0.5,0,0.8-0.1,1-0.3c0.2-0.2,0.3-0.5,0.3-0.8V55.2z"/>
	<path class="st0" d="M27.8,54.3h-1.8v8.3h-1v-8.3h-1.8v-0.8h4.6V54.3z"/>
	<path class="st0" d="M34.1,60.8c0,0.6-0.2,1.1-0.6,1.4c-0.4,0.4-1,0.5-1.8,0.5s-1.4-0.2-1.8-0.5c-0.4-0.4-0.6-0.8-0.6-1.4v-5.6
		c0-0.6,0.2-1.1,0.6-1.4c0.4-0.3,1-0.5,1.8-0.5c0.8,0,1.4,0.2,1.8,0.5c0.4,0.4,0.6,0.8,0.6,1.4V60.8z M33.1,55.2
		c0-0.4-0.1-0.6-0.4-0.8c-0.2-0.2-0.6-0.3-1.1-0.3c-0.5,0-0.8,0.1-1,0.3c-0.2,0.2-0.3,0.5-0.3,0.8v5.6c0,0.3,0.1,0.6,0.4,0.8
		c0.2,0.2,0.6,0.3,1.1,0.3c0.5,0,0.8-0.1,1-0.3c0.2-0.2,0.3-0.5,0.3-0.8V55.2z"/>
	<path class="st0" d="M40.5,58.9c0.3,0.3,0.5,0.6,0.6,0.9c0.1,0.3,0.1,0.6,0.1,1c0,0.6-0.2,1.1-0.6,1.4c-0.4,0.4-1,0.5-1.8,0.5
		c-0.8,0-1.4-0.2-1.8-0.5s-0.6-0.8-0.6-1.4v-1.2h1v1.2c0,0.3,0.1,0.6,0.3,0.8c0.2,0.2,0.6,0.3,1,0.3s0.8-0.1,1-0.3
		c0.2-0.2,0.3-0.5,0.3-0.8c0-0.3,0-0.5-0.1-0.7c-0.1-0.2-0.2-0.4-0.4-0.6l-2.5-2.4c-0.3-0.3-0.5-0.6-0.6-0.9c-0.1-0.3-0.2-0.6-0.2-1
		c0-0.6,0.2-1.1,0.6-1.4c0.4-0.3,1-0.5,1.8-0.5c0.8,0,1.4,0.2,1.7,0.5c0.4,0.4,0.5,0.8,0.5,1.4v1.2h-1v-1.2c0-0.3-0.1-0.6-0.3-0.8
		c-0.2-0.2-0.5-0.3-1-0.3c-0.4,0-0.8,0.1-1,0.3c-0.2,0.2-0.3,0.5-0.3,0.8c0,0.3,0,0.5,0.1,0.7c0.1,0.2,0.2,0.4,0.4,0.6L40.5,58.9z"
		/>
	<path class="st0" d="M43.7,62.6v-9.1h1v4.1h2.8v-4.1h1v9.1h-1v-4.2h-2.8v4.2H43.7z"/>
	<path class="st0" d="M55.8,60.8c0,0.6-0.2,1.1-0.6,1.4c-0.4,0.4-1,0.5-1.8,0.5s-1.4-0.2-1.8-0.5c-0.4-0.4-0.6-0.8-0.6-1.4v-5.6
		c0-0.6,0.2-1.1,0.6-1.4c0.4-0.3,1-0.5,1.8-0.5c0.8,0,1.4,0.2,1.8,0.5c0.4,0.4,0.6,0.8,0.6,1.4V60.8z M54.8,55.2
		c0-0.4-0.1-0.6-0.4-0.8c-0.2-0.2-0.6-0.3-1.1-0.3c-0.5,0-0.8,0.1-1,0.3c-0.2,0.2-0.3,0.5-0.3,0.8v5.6c0,0.3,0.1,0.6,0.4,0.8
		c0.2,0.2,0.6,0.3,1.1,0.3c0.5,0,0.8-0.1,1-0.3c0.2-0.2,0.3-0.5,0.3-0.8V55.2z"/>
	<path class="st0" d="M58.3,62.6v-9.1h2.1c0.7,0,1.3,0.2,1.7,0.5c0.4,0.4,0.6,0.8,0.6,1.4v2.4c0,0.6-0.2,1.1-0.5,1.4
		c-0.4,0.4-0.9,0.5-1.7,0.5h-1.1v2.8H58.3z M61.7,55.4c0-0.3-0.1-0.6-0.3-0.8s-0.5-0.3-0.9-0.3h-1.1v4.6h1.1c0.4,0,0.7-0.1,0.9-0.3
		c0.2-0.2,0.3-0.5,0.3-0.8V55.4z"/>
</g>
<g>
	
		<radialGradient id="SVGID_1_" cx="-224.8965" cy="-115.543" r="1.247177e-02" gradientTransform="matrix(2291.6677 0 0 -2218.751 515414.2188 -256351.1719)" gradientUnits="userSpaceOnUse">
		<stop  offset="0" style="stop-color:#35364E;stop-opacity:0.98"/>
		<stop  offset="1" style="stop-color:#111023"/>
	</radialGradient>
	<path class="st1" d="M13.7,1.7h37.6v36.6H13.7V1.7z"/>
	<path class="st2" d="M13.7,1.7h37.6v36.6H13.7V1.7z M12,40h41V0H12V40z M39.6,16.4c-1.4,0-1.8,0.7-1.8,1.2c0,0.6,0.3,1,2.1,2
		c2.7,1.3,3.5,2.5,3.5,4.4c0,2.7-2.1,4.2-4.9,4.2c-1.5,0-2.8-0.3-3.5-0.7c-0.1-0.1-0.1-0.1-0.1-0.3v-2.5c0-0.2,0.1-0.2,0.2-0.1
		c1.1,0.7,2.3,1,3.4,1c1.4,0,1.9-0.6,1.9-1.3c0-0.6-0.4-1.2-2.1-2.1c-2.4-1.2-3.4-2.3-3.4-4.3c0-2.2,1.7-4,4.7-4
		c1.5,0,2.5,0.2,3.1,0.5c0.1,0.1,0.2,0.2,0.2,0.3V17c0,0.1-0.1,0.2-0.3,0.2C41.9,16.7,40.8,16.4,39.6,16.4L39.6,16.4z M24.9,18.4
		c0.4,0,0.7,0,1.4,0c2,0,3.9-0.7,3.9-3.4c0-2.2-1.4-3.3-3.6-3.3c-0.7,0-1.3,0-1.6,0.1V18.4z M21.9,9.4c0-0.1,0.2-0.2,0.4-0.2
		c1.1-0.1,2.7-0.1,4.4-0.1c4.7,0,6.6,2.6,6.6,5.9c0,4.3-3.1,6.2-7,6.2c-0.6,0-0.9,0-1.3,0v6.6c0,0.1-0.1,0.2-0.2,0.2h-2.6
		c-0.1,0-0.2-0.1-0.2-0.2L21.9,9.4L21.9,9.4z"/>
</g>
</svg>
