<?xml version="1.0" encoding="utf-8"?>
<!-- Generator: Adobe Illustrator 26.1.0, SVG Export Plug-In . SVG Version: 6.00 Build 0)  -->
<svg version="1.1" id="Layer_1" xmlns="http://www.w3.org/2000/svg" xmlns:xlink="http://www.w3.org/1999/xlink" x="0px" y="0px"
	 viewBox="0 0 65 65" style="enable-background:new 0 0 65 65;" xml:space="preserve">
<style type="text/css">
	.st0{fill:#FFFFFF;}
	.st1{fill:#231F20;stroke:#231F20;stroke-width:3.652;}
	.st2{fill:#427CA3;}
	.st3{fill:none;stroke:#FFFFFF;stroke-width:1.2173;stroke-linecap:round;stroke-linejoin:round;}
	.st4{fill:none;stroke:#FFFFFF;stroke-width:1.2173;stroke-linecap:round;stroke-linejoin:bevel;}
	.st5{fill:none;stroke:#FFFFFF;stroke-width:1.2173;stroke-linejoin:round;}
	.st6{fill:#FFFFFF;stroke:#FFFFFF;stroke-width:0.4062;}
	.st7{fill:#FFFFFF;stroke:#FFFFFF;stroke-width:0.2024;}
</style>
<g>
	<path class="st0" d="M1.1,62.6v-9.1h2.1c0.7,0,1.3,0.2,1.7,0.5c0.4,0.4,0.6,0.8,0.6,1.4v2.4c0,0.6-0.2,1.1-0.5,1.4
		c-0.4,0.4-0.9,0.5-1.7,0.5H2.1v2.8L1.1,62.6L1.1,62.6z M4.5,55.4c0-0.3-0.1-0.6-0.3-0.8s-0.5-0.3-0.9-0.3H2.1v4.6h1.1
		c0.4,0,0.7-0.1,0.9-0.3c0.2-0.2,0.3-0.5,0.3-0.8L4.5,55.4L4.5,55.4z"/>
	<path class="st0" d="M12.3,60.8c0,0.6-0.2,1.1-0.6,1.4c-0.4,0.4-1,0.5-1.8,0.5s-1.4-0.2-1.8-0.5c-0.4-0.4-0.6-0.8-0.6-1.4v-5.6
		c0-0.6,0.2-1.1,0.6-1.4c0.4-0.3,1-0.5,1.8-0.5s1.4,0.2,1.8,0.5c0.4,0.4,0.6,0.8,0.6,1.4V60.8z M11.3,55.2c0-0.4-0.1-0.6-0.4-0.8
		c-0.2-0.2-0.6-0.3-1.1-0.3s-0.8,0.1-1,0.3s-0.3,0.5-0.3,0.8v5.6c0,0.3,0.1,0.6,0.4,0.8c0.2,0.3,0.5,0.4,1,0.4s0.8-0.1,1-0.3
		s0.3-0.5,0.3-0.8v-5.7H11.3z"/>
	<path class="st0" d="M18.6,58.9c0.3,0.3,0.5,0.6,0.6,0.9c0.1,0.3,0.1,0.6,0.1,1c0,0.6-0.2,1.1-0.6,1.4c-0.4,0.4-1,0.5-1.8,0.5
		s-1.4-0.2-1.8-0.5s-0.6-0.8-0.6-1.4v-1.2h1v1.2c0,0.3,0.1,0.6,0.3,0.8c0.2,0.2,0.6,0.3,1,0.3s0.8-0.1,1-0.3s0.3-0.5,0.3-0.8
		s0-0.5-0.1-0.7s-0.2-0.4-0.4-0.6l-2.5-2.4c-0.3-0.3-0.5-0.6-0.6-0.9c-0.1-0.3-0.2-0.6-0.2-1c0-0.6,0.2-1.1,0.6-1.4
		c0.4-0.3,1-0.5,1.8-0.5c0.8,0,1.4,0.2,1.7,0.5c0.4,0.4,0.5,0.8,0.5,1.4v1.2h-1v-1.2c0-0.3-0.1-0.6-0.3-0.8c-0.2-0.2-0.5-0.3-1-0.3
		c-0.4,0-0.8,0.1-1,0.3s-0.3,0.5-0.3,0.8s0,0.5,0.1,0.7s0.2,0.4,0.4,0.6L18.6,58.9z"/>
	<path class="st0" d="M25.5,54.3h-1.8v8.3h-1v-8.3h-1.8v-0.8h4.6C25.5,53.5,25.5,54.3,25.5,54.3z"/>
	<path class="st0" d="M29.2,58h2.5v4.6h-0.4l-0.4-0.9c-0.2,0.3-0.4,0.6-0.8,0.8s-0.7,0.3-1,0.3c-0.5,0-0.9-0.1-1.2-0.3
		c-0.3-0.2-0.5-0.4-0.6-0.7s-0.2-0.6-0.2-1v-5.6c0-0.6,0.2-1.1,0.6-1.4c0.4-0.3,1-0.5,1.7-0.5c0.8,0,1.4,0.2,1.8,0.5
		c0.4,0.4,0.6,0.8,0.6,1.4V56h-1v-0.8c0-0.4-0.1-0.6-0.3-0.8c-0.2-0.2-0.6-0.3-1-0.3s-0.8,0.1-1,0.3s-0.3,0.5-0.3,0.8v5.6
		c0,0.3,0.1,0.6,0.2,0.8s0.4,0.3,0.8,0.3c0.3,0,0.6-0.1,0.8-0.2c0.2-0.2,0.4-0.3,0.6-0.6c0.2-0.2,0.2-0.4,0.2-0.6v-1.8h-1.6
		C29.2,58.7,29.2,58,29.2,58z"/>
	<path class="st0" d="M34.3,62.6v-9.1h2.1c0.7,0,1.3,0.2,1.7,0.5c0.4,0.4,0.6,0.8,0.6,1.4v2c0,0.5-0.1,0.8-0.3,1.2
		c-0.2,0.3-0.5,0.5-0.9,0.7l1.7,3.4h-1.1l-1.6-3.2h-1.1v3.2h-1.1C34.3,62.7,34.3,62.6,34.3,62.6z M37.7,55.4c0-0.3-0.1-0.6-0.3-0.8
		s-0.5-0.3-0.9-0.3h-1.1v4.2h1.1c0.4,0,0.7-0.1,0.9-0.3s0.3-0.5,0.3-0.8V55.4z"/>
	<path class="st0" d="M41.1,62.6v-9.1h4v0.8h-3v3.2h2.5v0.8h-2.5v3.4h3.1v0.8L41.1,62.6L41.1,62.6z"/>
	<path class="st0" d="M51.1,58.9c0.3,0.3,0.5,0.6,0.6,0.9c0.1,0.3,0.1,0.6,0.1,1c0,0.6-0.2,1.1-0.6,1.4c-0.4,0.4-1,0.5-1.8,0.5
		s-1.4-0.2-1.8-0.5S47,61.4,47,60.8v-1.2h1v1.2c0,0.3,0.1,0.6,0.3,0.8s0.6,0.3,1,0.3s0.8-0.1,1-0.3s0.3-0.5,0.3-0.8s0-0.5-0.1-0.7
		s-0.2-0.4-0.4-0.6l-2.5-2.4c-0.3-0.3-0.5-0.6-0.6-0.9c-0.1-0.3-0.2-0.6-0.2-1c0-0.6,0.2-1.1,0.6-1.4c0.4-0.3,1-0.5,1.8-0.5
		s1.4,0.2,1.7,0.5c0.4,0.4,0.5,0.8,0.5,1.4v1.2h-1v-1.2c0-0.3-0.1-0.6-0.3-0.8s-0.5-0.3-1-0.3c-0.4,0-0.8,0.1-1,0.3
		s-0.3,0.5-0.3,0.8s0,0.5,0.1,0.7s0.2,0.4,0.4,0.6L51.1,58.9z"/>
	<path class="st0" d="M58.8,60.8c0,0.5-0.2,1-0.5,1.3s-0.8,0.5-1.4,0.6l0.4,1.8h-0.8l-0.4-1.8c-0.7-0.1-1.2-0.3-1.5-0.6
		s-0.5-0.8-0.5-1.4v-5.6c0-0.6,0.2-1.1,0.6-1.4c0.4-0.3,1-0.5,1.8-0.5s1.4,0.2,1.8,0.5c0.4,0.4,0.6,0.8,0.6,1.4L58.8,60.8L58.8,60.8
		z M57.9,55.2c0-0.4-0.1-0.6-0.4-0.8c-0.2-0.2-0.6-0.3-1.1-0.3s-0.8,0.1-1,0.3s-0.3,0.5-0.3,0.8v5.6c0,0.3,0.1,0.6,0.4,0.8
		c0.2,0.2,0.6,0.3,1.1,0.3s0.8-0.1,1-0.3s0.3-0.5,0.3-0.8V55.2z"/>
	<path class="st0" d="M61.4,53.5h1v8.3H65v0.8h-3.5L61.4,53.5L61.4,53.5z"/>
</g>
<path class="st1" d="M43,31.9c0.3-2.3,0.2-2.6,1.9-2.2h0.4c1.3,0.1,3-0.2,4-0.7c2.2-1,3.5-2.7,1.3-2.2c-4.9,1-5.3-0.6-5.3-0.6
	c5.2-7.7,7.4-17.5,5.5-19.8c-5-6.6-13.8-3.6-14-3.5h-0.1c-1-0.2-2.1-0.4-3.3-0.4c-2.2,0-3.9,0.5-5.2,1.5c0,0-15.8-6.5-15.1,8.2
	c0.2,3.1,4.5,23.6,9.6,17.4c1.9-2.2,3.7-4.2,3.7-4.2c0.9,0.6,2,0.9,3.1,0.8l0.1-0.1c0,0.3,0,0.6,0,0.9c-1.3,1.5-0.9,1.7-3.6,2.3
	c-2.7,0.5-1.1,1.5-0.1,1.8c1.3,0.3,4.1,0.7,6.1-2v0.3c0.5,0.4,0.4,3,0.5,4.8c0.1,1.9,0.2,3.6,0.5,4.6s0.8,3.6,4.3,2.9
	C40.5,41.2,42.7,40.3,43,31.9"/>
<path class="st2" d="M50.7,26.7c-4.9,1-5.3-0.6-5.3-0.6c5.2-7.7,7.4-17.5,5.5-19.8C45.8-0.2,37,2.8,36.8,2.9h-0.1
	c-1-0.2-2.1-0.4-3.3-0.4c-2.2,0-3.9,0.5-5.2,1.5c0,0-15.8-6.5-15.1,8.2c0.2,3.1,4.5,23.6,9.6,17.4c1.9-2.2,3.7-4.2,3.7-4.2
	c0.9,0.6,2,0.9,3.1,0.8l0.1-0.1c0,0.3,0,0.5,0,0.9c-1.3,1.5-0.9,1.7-3.6,2.3c-2.7,0.5-1.1,1.5-0.1,1.8c1.3,0.3,4.1,0.7,6.1-2v0.3
	c0.5,0.4,0.9,2.7,0.8,4.8s-0.1,3.5,0.3,4.6c0.4,1.1,0.8,3.6,4.3,2.9c2.9-0.6,4.4-2.2,4.7-4.9c0.2-1.9,0.4-1.6,0.5-3.3l0.3-0.8
	c0.3-2.6,0.1-3.4,1.9-3h0.4c1.3,0.1,3-0.2,4-0.7C51.5,28,52.8,26.3,50.7,26.7L50.7,26.7z"/>
<g>
	<g>
		<path class="st3" d="M32.5,28.3c-0.2,4.8,0,9.7,0.5,10.8c0.4,1.2,1.5,3.5,4.9,2.8c2.9-0.6,3.9-1.8,4.4-4.5l1.1-8.5 M28.3,4
			c0,0-15.8-6.5-15.1,8.2c0.2,3.1,4.5,23.6,9.6,17.4c1.9-2.2,3.6-4,3.6-4 M36.8,2.8C36.3,3,45.6-0.6,50.9,6.2
			c1.9,2.4-0.3,12.2-5.5,19.8"/>
		<path class="st4" d="M45.4,26c0,0,0.4,1.7,5.3,0.6c2.2-0.4,0.8,1.3-1.3,2.2c-1.8,0.8-5.8,1.1-5.9-0.1C43.3,25.9,45.6,26.8,45.4,26
			c-0.2-0.6-1.2-1.3-1.9-3c-0.6-1.4-8.1-12.4,2.1-10.8c0.4-0.1-2.7-9.7-12.2-9.9C23.9,2.1,24.2,14,24.2,14"/>
	</g>
	<g>
		<path class="st5" d="M29.8,27.1c-1.3,1.5-0.9,1.7-3.6,2.3c-2.7,0.5-1.1,1.5-0.1,1.8c1.3,0.3,4.1,0.7,6.1-2c0.6-0.8,0-2.2-0.8-2.5
			C31,26.5,30.5,26.3,29.8,27.1L29.8,27.1z"/>
		<path class="st3" d="M29.7,27c-0.1-0.9,0.3-1.9,0.7-3.1c0.7-1.8,2.2-3.7,1-9.4c-0.9-4.3-7.2-0.9-7.2-0.3s0.3,3-0.1,5.7
			c-0.5,3.6,2.3,6.6,5.6,6.4"/>
	</g>
</g>
<g>
	<path class="st6" d="M28.2,14.1c0,0.2,0.4,0.7,0.9,0.8s1-0.4,1-0.5S29.7,14,29.2,14C28.7,13.8,28.3,13.9,28.2,14.1L28.2,14.1z"/>
	<path class="st7" d="M43.8,13.7c0,0.2-0.4,0.7-0.9,0.8s-1-0.4-1-0.5c0-0.2,0.4-0.4,0.9-0.4C43.3,13.4,43.8,13.5,43.8,13.7
		L43.8,13.7z"/>
</g>
<path class="st3" d="M45.6,12.3c0.1,1.5-0.4,2.6-0.4,4.3c-0.1,2.4,1.2,5.2-0.7,8"/>
</svg>
