<?xml version="1.0" encoding="utf-8"?>
<!-- Generator: Adobe Illustrator 26.1.0, SVG Export Plug-In . SVG Version: 6.00 Build 0)  -->
<svg version="1.1" id="Layer_1" xmlns="http://www.w3.org/2000/svg" xmlns:xlink="http://www.w3.org/1999/xlink" x="0px" y="0px"
	 viewBox="0 0 65 65" style="enable-background:new 0 0 65 65;" xml:space="preserve">
<style type="text/css">
	.st0{fill:#56C2DE;}
	.st1{fill-rule:evenodd;clip-rule:evenodd;fill:#56C2DE;}
</style>
<g>
	<path d="M17.9,62.6v-9.1H20c0.7,0,1.3,0.2,1.7,0.5c0.4,0.4,0.6,0.8,0.6,1.4v2c0,0.5-0.1,0.8-0.3,1.2c-0.2,0.3-0.5,0.5-0.9,0.7
		l1.7,3.4h-1.1L20,59.4h-1.1v3.2C18.9,62.6,17.9,62.6,17.9,62.6z M21.2,55.4c0-0.3-0.1-0.6-0.3-0.8s-0.5-0.3-0.9-0.3h-1.1v4.2H20
		c0.4,0,0.7-0.1,0.9-0.3c0.2-0.2,0.3-0.5,0.3-0.8C21.2,57.4,21.2,55.4,21.2,55.4z"/>
	<path d="M24.7,62.6v-9.1h4v0.8h-3v3.2h2.5v0.8h-2.5v3.4h3.1v0.8L24.7,62.6L24.7,62.6z"/>
	<path d="M33.6,53.5l2.1,9.1h-1l-0.5-2.1h-2.7L31,62.6h-1l2.1-9.1H33.6z M31.7,59.6H34l-1.1-5.1L31.7,59.6z"/>
	<path d="M41,60.1h1v0.8c0,0.6-0.2,1.1-0.6,1.4c-0.4,0.4-1,0.5-1.7,0.5c-0.8,0-1.4-0.2-1.8-0.5c-0.4-0.4-0.6-0.8-0.6-1.4v-5.6
		c0-0.6,0.2-1.1,0.6-1.4c0.4-0.3,1-0.5,1.7-0.5c0.8,0,1.4,0.2,1.8,0.5c0.4,0.4,0.6,0.8,0.6,1.4v1.3h-1v-1.3c0-0.4-0.1-0.6-0.3-0.8
		s-0.6-0.3-1-0.3s-0.8,0.1-1,0.3s-0.3,0.5-0.3,0.8v5.6c0,0.3,0.1,0.6,0.3,0.8s0.6,0.3,1,0.3s0.8-0.1,1-0.3s0.3-0.5,0.3-0.8V60.1z"/>
	<path d="M48.1,54.3h-1.8v8.3h-1v-8.3h-1.8v-0.8h4.6V54.3z"/>
</g>
<g>
	<path class="st0" d="M36.6,20.1c0-2.2-1.8-4.1-4.1-4.1s-4.1,1.8-4.1,4.1s1.8,4.1,4.1,4.1C34.8,24,36.6,22.3,36.6,20.1z"/>
	<path class="st1" d="M45.9,12.5c0.9-3.5,1.9-9.8-1.9-12s-8.9,2-11.5,4.5c-2.6-2.4-7.8-6.6-11.7-4.4S18.1,9,19.1,12.4
		c-3.6,1-9.7,3.1-9.7,7.4s6.2,6.7,9.7,7.6c-0.9,3.5-2,9.6,1.8,11.9c3.9,2.1,9-1.8,11.7-4.3c2.7,2.5,7.6,6.6,11.5,4.3
		c3.9-2.1,2.9-8.5,1.9-12c3.5-1,9.6-3.3,9.6-7.5C55.6,15.7,49.5,13.6,45.9,12.5z M45.5,25.7c-0.6-1.8-1.4-3.7-2.3-5.7
		c1-1.9,1.6-3.9,2.2-5.6c2.6,0.8,8.3,2.4,8.3,5.6C53.6,23.2,48.2,25,45.5,25.7z M43.1,37.8c-2.9,1.6-7.1-2.2-9.1-4.1
		c1.4-1.4,2.6-3,3.9-4.8c2.2-0.2,4.3-0.5,6.3-1C44.7,30.5,46,36.3,43.1,37.8z M21.9,37.8c-2.9-1.6-1.5-7.1-0.9-9.6
		c1.9,0.4,4,0.7,6.3,0.9c1.3,1.7,2.6,3.4,4,4.7C29.5,35.3,24.8,39.4,21.9,37.8z M11.4,20.1c0-3.3,5.7-4.9,8.3-5.6
		c0.6,1.8,1.4,3.8,2.2,5.7c-1,1.9-1.7,3.9-2.3,5.8C17.1,25.1,11.4,23.2,11.4,20.1z M21.9,2.3c2.9-1.6,7.3,2.3,9.3,4.1
		c-1.4,1.4-2.7,3-4,4.7c-2.2,0.2-4.2,0.5-6.2,1C20.3,9.3,19,4,21.9,2.3z M39.2,13.2c1.4,0.2,2.9,0.4,4.2,0.7
		c-0.4,1.3-0.9,2.5-1.4,3.9C41.2,16.3,40.2,14.8,39.2,13.2z M32.5,7.8c0.9,1,1.8,2,2.7,3.2c-1.8-0.1-3.7-0.1-5.5,0
		C30.7,9.8,31.6,8.8,32.5,7.8z M23,17.8c-0.6-1.4-1.1-2.6-1.4-3.9c1.4-0.3,2.7-0.5,4.2-0.7C24.8,14.8,23.8,16.2,23,17.8z M25.7,26.9
		c-1.5-0.2-3-0.4-4.2-0.7c0.4-1.3,0.9-2.6,1.5-4C23.8,23.9,24.8,25.5,25.7,26.9z M32.6,32.4c-1-1-1.8-2-2.8-3.3
		c1.8,0.1,3.7,0.1,5.5,0C34.4,30.4,33.5,31.4,32.6,32.4z M42,22.3c0.6,1.4,1.2,2.7,1.5,4c-1.4,0.3-2.8,0.6-4.3,0.7
		C40.2,25.4,41.2,23.8,42,22.3z M36.7,27.2c-2.8,0.2-5.6,0.2-8.4,0c-1.6-2.2-3-4.6-4.2-7.1c1.3-2.5,2.6-4.8,4.2-7
		c2.8-0.2,5.6-0.2,8.4,0c1.5,2.2,3,4.6,4.2,7C39.7,22.5,38.3,24.9,36.7,27.2z M43,2.2c2.9,1.6,1.6,7.3,1,9.8c-1.9-0.4-4.1-0.8-6.2-1
		c-1.3-1.7-2.6-3.4-4-4.7C35.9,4.6,40.2,0.7,43,2.2z"/>
</g>
</svg>
