<?xml version="1.0" encoding="utf-8"?>
<!-- Generator: Adobe Illustrator 26.1.0, SVG Export Plug-In . SVG Version: 6.00 Build 0)  -->
<svg version="1.1" id="Layer_1" xmlns="http://www.w3.org/2000/svg" xmlns:xlink="http://www.w3.org/1999/xlink" x="0px" y="0px"
	 viewBox="0 0 65 65" style="enable-background:new 0 0 65 65;" xml:space="preserve">
<style type="text/css">
	.st0{fill:url(#SVGID_1_);}
</style>
<g>
	<path d="M12.9,54.3H11v8.3h-1v-8.3H8.2v-0.8h4.6v0.8H12.9z"/>
	<path d="M16.8,53.5l2.1,9.1h-1l-0.5-2.1h-2.7l-0.5,2.1h-1l2.1-9.1H16.8z M14.9,59.6h2.3l-1.1-5.1L14.9,59.6z"/>
	<path d="M22.8,62.6h-2.4v-0.8h0.7v-7.4h-0.7v-0.8h2.4v0.8h-0.7v7.4h0.7V62.6z"/>
	<path d="M25.2,53.5h1v8.3h2.6v0.8h-3.5v-9.1H25.2z"/>
	<path d="M30.4,62.6L29,53.5h1l1.1,7.7l1.6-7.7h0.9l1.6,7.7l1.1-7.7h1L36,62.6h-1.3l-1.5-7.3l-1.5,7.3H30.4z"/>
	<path d="M41.3,62.6H39v-0.8h0.7v-7.4H39v-0.8h2.4v0.8h-0.7v7.4h0.7v0.8H41.3z"/>
	<path d="M43.7,62.6v-9.1h0.9l3.1,7v-7h1v9.1h-0.9l-3.1-7v7H43.7z"/>
	<path d="M51.5,62.6v-9.1h2.3c0.7,0,1.3,0.2,1.7,0.5c0.4,0.4,0.6,0.8,0.6,1.4v5.2c0,0.6-0.2,1.1-0.5,1.4c-0.4,0.4-0.9,0.5-1.7,0.5
		L51.5,62.6L51.5,62.6z M55,55.4c0-0.3-0.1-0.5-0.3-0.8c-0.2-0.2-0.5-0.4-0.9-0.4h-1.3v7.4h1.3c0.4,0,0.7-0.1,0.9-0.4
		c0.2-0.2,0.3-0.5,0.3-0.8V55.4z"/>
</g>
<linearGradient id="SVGID_1_" gradientUnits="userSpaceOnUse" x1="-603.6176" y1="241.0619" x2="-603.5958" y2="241.0695" gradientTransform="matrix(2500 0 0 1500 1509048.5 -361580.7812)">
	<stop  offset="0" style="stop-color:#2598BD"/>
	<stop  offset="1" style="stop-color:#54BAA8"/>
</linearGradient>
<path class="st0" d="M32.5,2C25.4,2,21,5.5,19.2,12.6c2.7-3.5,5.7-4.9,9.3-4c2,0.5,3.5,2,5.1,3.6c2.6,2.6,5.6,5.7,12.2,5.7
	c7.1,0,11.5-3.5,13.2-10.6c-2.7,3.5-5.7,4.9-9.3,4c-2-0.5-3.5-2-5.1-3.6C42.1,5.1,39.1,2,32.5,2z M19.2,17.9
	c-7.1,0-11.5,3.5-13.2,10.6c2.6-3.5,5.7-4.9,9.3-4c2,0.5,3.5,2,5.1,3.6c2.6,2.6,5.6,5.7,12.2,5.7c7.1,0,11.5-3.5,13.2-10.6
	c-2.7,3.5-5.7,4.9-9.3,4c-2-0.5-3.5-2-5.1-3.6C28.8,21,25.8,17.9,19.2,17.9z"/>
</svg>
