<?xml version="1.0" encoding="utf-8"?>
<!-- Generator: Adobe Illustrator 26.2.1, SVG Export Plug-In . SVG Version: 6.00 Build 0)  -->
<svg version="1.1" id="Layer_1" xmlns="http://www.w3.org/2000/svg" xmlns:xlink="http://www.w3.org/1999/xlink" x="0px" y="0px"
	 viewBox="0 0 80 80" style="enable-background:new 0 0 80 80;" xml:space="preserve">
<style type="text/css">
	.st0{fill:#FFFFFF;}
</style>
<g>
	<path class="st0" d="M70.2,18.8c2.1-0.3,4.2-0.8,6.3-0.5c-0.2,0.6-0.3,1.2-0.7,1.7c-1.6,2-3.4,3.7-5.1,5.7c-3,3.4-5.5,7.2-8.2,10.8
		c-4.9,6.4-9.1,13.2-14.3,19.3c-1.3-0.9-2.9-1.2-4.2-2.2c-1.5-1-3-1.8-4.6-2.6c-2,2.5-4.7,4.2-7,6.5c-1.7,1.7-3.8,3.1-5.1,5.3
		c-0.7-0.5-1.1-1.2-1.3-1.9c-2.2-6.4-3.4-13.1-4-19.9c-2.7-1.2-5.3-2.6-8.1-3.7c-3-1.2-5.8-2.8-8.8-4c-1-0.3-1.3-1.5-1.1-2.4
		c0.6-0.3,1.3-0.5,2-0.7c7-1.5,13.8-3.6,20.8-4.9c6.7-1.3,13.4-2.5,20.1-3.2c2.8-0.2,5.5-0.6,8.2-0.9C60.1,20.6,65.1,19.5,70.2,18.8
		z M56.6,22.3C46.7,22.9,37,25,27.3,27c-6.9,1.4-13.6,3.5-20.4,5.2c2.7,1.3,5.3,2.8,8.1,3.7c2.9,1,5.5,2.6,8.4,3.5
		c0.2-0.1,0.7-0.2,1-0.3c7.8-3,16-4.9,24-7.5c2-0.6,4-1.4,6-1.4c0.1,0.2,0.3,0.5,0.4,0.7c-1.4,1.8-3.5,2.9-5.3,4.2
		c-5.6,3.7-11.1,7.5-16.7,11.2c1.9,0.8,3.8,1.7,5.6,2.7c3,1.5,6.2,2.8,8.7,5.1c2.6-3.2,5.2-6.4,7.6-9.8c3.5-5.1,7.4-9.9,11.1-14.9
		c2.4-3.2,5.1-6.1,7.8-9.1C68,20.7,62.3,21.7,56.6,22.3z M23.5,41.6c0.6,5.8,2,11.5,3.9,17c0.6-2.5,1-5.1,1.6-7.6
		c0.4-1.5,0.5-3.1,0.6-4.7c0.2-0.1,0.7-0.2,0.9-0.2c1.3-1.3,3-2.2,4.6-3.2c5.2-3.5,10.5-6.8,15.7-10.3
		C41.6,35.6,32.3,37.8,23.5,41.6z M30.9,47.5c-0.3,3.9-1.3,7.6-1.9,11.5c2.1-2.2,4.1-4.5,6.4-6.4c0.9-0.7,1.7-1.5,2.4-2.3
		C35.7,49,33.4,47.9,30.9,47.5z"/>
	<g>
		<path class="st0" d="M70.2,18.8c2.1-0.3,4.2-0.9,6.4-0.5c-0.4,2-2.1,3.4-3.4,4.9c-4.1,4.3-7.2,9.2-10.7,14
			c-2.4,3.1-4.5,6.4-6.8,9.6c-2.3,3.2-4.6,6.4-7.2,9.3c0,0-0.2,0.2-0.2,0.2l-0.3-0.2c-1.4-0.9-3.1-1.3-4.4-2.4
			c-1.4-0.9-2.8-1.7-4.3-2.5c0,0,0.3-0.1,0.3-0.1c-2.3,2.8-5.3,4.6-7.8,7.1c-1.6,1.4-3.4,2.8-4.4,4.7c-0.9-0.5-1.4-1.6-1.7-2.5
			c-0.9-2.7-1.7-5.4-2.3-8.2c-0.8-3.7-1.4-7.5-1.8-11.2c0,0,0.2,0.3,0.2,0.3c-1.4-0.6-2.8-1.3-4.2-1.9c-4.2-1.8-8.8-3.8-12.7-5.6
			c-1.3-0.4-1.8-2-1.4-3.2c0,0,0.2-0.1,0.2-0.1c1.1-0.7,2.9-0.9,4.2-1.2c9.5-2.4,19.2-4.8,28.9-6.3c5.6-0.9,11.2-1.3,16.8-1.9
			C59.1,20.7,64.6,19.5,70.2,18.8L70.2,18.8z M70.2,18.9c-5.6,0.8-11.1,2.1-16.7,2.7c-11.2,1.3-22.3,3.1-33.2,5.6
			c0,0-8.2,2.1-8.2,2.1s-4.1,1-4.1,1c-1.4,0.3-2.8,0.5-3.9,1.1l0.2-0.3c-0.2,0.7,0.1,1.6,0.8,1.8c5.7,2.7,11.3,5.1,16.9,7.8
			c0,0,0.2,0.1,0.2,0.1l0,0.2c0.5,5.6,1.3,11.3,2.9,16.7c0.6,1.7,0.8,3.8,2.3,5c0,0-0.2,0.1-0.2,0.1c1-1.8,2.9-3.2,4.4-4.6
			c2.5-2.6,5.6-4.5,7.8-7.3c2.4,1,4.4,2.6,6.8,3.6c0.8,0.3,1.6,0.6,2.3,1.1l-0.5,0.1c2.5-3,4.8-6.2,7.1-9.4
			c5.7-7.9,11.3-16.1,18-23.2c1.3-1.4,3-2.7,3.4-4.7c0,0,0.1,0.1,0.1,0.1C74.3,18.1,72.2,18.6,70.2,18.9L70.2,18.9z"/>
		<path class="st0" d="M56.6,22.4C39.7,23.6,23.4,28.5,7,32.6c0,0,0.1-0.8,0.1-0.8c2.7,1.3,5.3,2.8,8.1,3.8c2.9,1,5.5,2.6,8.3,3.5
			c6.7-2.4,16-5,23.3-7.2c2.3-0.7,5.4-2,7.8-2c0.1,0.1,0.4,0.7,0.5,0.8c0,0,0.1,0.2,0.1,0.2l-0.1,0.1c-2.6,3-7.6,5.8-10.8,8.1
			c0,0-11.2,7.6-11.2,7.6s-0.1-0.8-0.1-0.8c2.5,1,5,2.4,7.4,3.5c2.4,1.2,5,2.4,7.1,4.3c0,0-0.8,0.1-0.8,0.1c2.3-2.7,4.6-5.5,6.6-8.4
			c6-8.4,13-17.8,20.1-25.2c0,0,0.2,0.3,0.2,0.3C68,20.8,62.3,21.8,56.6,22.4L56.6,22.4z M56.6,22.3c5.9-0.6,11.7-1.7,17.6-2.3
			c-7.3,8.2-13.5,17.1-19.9,25.9c-2.2,3.1-4.6,6-7,8.9c0,0-0.4-0.4-0.4-0.4c-2.5-2.2-5.7-3.6-8.7-5.1c-2-1.1-4.1-2.1-6.3-3
			c4.1-2.7,13.6-8.9,17.6-11.6c1.8-1.3,3.8-2.4,5.2-4.1l0,0.3c0,0-0.4-0.7-0.4-0.7s0.2,0.1,0.2,0.1c-1.3,0-2.5,0.4-3.8,0.7
			C42,33.9,33,36,24.5,39.3c0,0-1,0.3-1,0.3l-0.1,0c-3-0.9-5.6-2.4-8.5-3.4c-3.3-1.1-6.3-2.8-9.4-4.2C22.3,27.6,39.3,23.4,56.6,22.3
			L56.6,22.3z"/>
		<path class="st0" d="M23.5,41.6c0.9,5.7,2.4,11.4,4.3,16.9c0,0-0.9,0-0.9,0c0.8-4.1,2.2-8.2,2.4-12.4c0.1,0,0.9-0.2,1-0.2
			c1.1-1.2,3.4-2.4,4.9-3.4c5-3.4,10-6.9,15.1-10.3c0,0,0.4,0.9,0.4,0.9C41.8,36.2,32.4,38.3,23.5,41.6L23.5,41.6z M23.4,41.5
			C33.1,37,43.9,34.3,54,31c-4.4,2.8-8.9,5.8-13.4,8.5c-3.3,2.2-7.1,4.1-10.1,6.7c0,0.1-0.9,0.2-1,0.3c0,0,0.1-0.2,0.1-0.2
			c0,2.1-0.3,4.2-0.7,6.3c-0.4,2.5-0.9,5.1-1.5,7.6C25.3,54.1,23.7,47.9,23.4,41.5L23.4,41.5z"/>
		<path class="st0" d="M30.9,47.5c0.3,3.9-0.9,7.7-1.8,11.5c0,0-0.3-0.1-0.3-0.1c2.8-3.1,5.5-6.2,8.6-8.9c0,0,0.1,0.8,0.1,0.8
			C35.5,49.5,33.3,48.3,30.9,47.5L30.9,47.5z M30.9,47.4c2.8,0.1,5.4,1.4,7.9,2.7c0,0-0.5,0.5-0.5,0.5c-3.1,3-6.7,5.5-9.5,8.8
			C29.1,55.4,29.9,51.4,30.9,47.4L30.9,47.4z"/>
	</g>
</g>
</svg>
