<?xml version="1.0" encoding="utf-8"?>
<!-- Generator: Adobe Illustrator 26.2.1, SVG Export Plug-In . SVG Version: 6.00 Build 0)  -->
<svg version="1.1" id="Layer_1" xmlns="http://www.w3.org/2000/svg" xmlns:xlink="http://www.w3.org/1999/xlink" x="0px" y="0px"
	 viewBox="0 0 172.2 169.4" style="enable-background:new 0 0 172.2 169.4;" xml:space="preserve">
<style type="text/css">
	.st0{fill:#3B4349;}
	.st1{fill:#FFFFFF;}
</style>
<path class="st0" d="M164.3,58.2c0,4.5,0,9.1,0,13.6c-0.1,0.6-0.2,1.3-0.3,1.9c-0.2,2.8-0.2,5.5-0.5,8.3c-1.2,10.7,0,21.9-1.3,32.6
	c-0.9,7.2-2.7,26.7-5.4,33.5c-4,10.2-50.2,11.5-56.8,12c-9.2,0.7-18.5,1.3-27.8,1.4c-6.6,0.1-13.2-0.6-19.8-1
	c-2.1-0.1-4.3-0.9-6.4-0.7c-5.2,0.5-9.9-0.7-14.2-3.5c-7.2-4.7-12-11.5-15.4-19.2c-4.4-10-5.9-20.8-6.7-31.6
	c-0.9-12.5,0-24.9,2.4-37.2c2.1-11-0.1-21.9,4.7-32.2C20,29.2,24.2,23,30.3,18.4c7.6-5.7,21.4-8.1,30.7-9.1
	C71.7,8,82.2,8.8,92.8,9.6c11,0.8,21.9,1.6,32.9,1.3c5-0.1,10.1,0.1,15.1,0.8c8.9,1.3,15.1,6.3,18,14.9c2.7,8,4.2,16.2,4.9,24.5
	C164,53.5,164.1,55.8,164.3,58.2z M53.6,85.9c2.8,0,5.5-0.1,8.2,0c2.9,0.2,5.8,0.4,8.6,1.1c3.5,0.8,4.2,3.3,2.2,5.9
	c0.2,1.6,0.4,2.8,0.4,4.1c-0.3,6.2-0.9,12.5-0.9,18.7c0,6.9,0.5,13.8,0.8,20.7c0.1,1.7,0,3.5,0,5.2c9.5-0.9,18.9-1.8,28.3-2.6
	c0-0.7,0-1.3,0-1.9c-0.1-9.4-0.3-18.8-0.2-28.3c0.1-5.8,0.1-11.7,1.7-17.4c0.1-0.4-0.1-0.9-0.3-1.2c-1.3-2.4-0.1-4.6,2.7-4.8
	c2.4-0.1,4.7-0.2,7.1-0.3c3-0.1,6-0.3,8.9-0.5c0.2-6.5,0.4-12.8,0.5-19.3c-1.1,0.1-2.3,0.3-3.5,0.3c-4.3,0-8.6,0.1-12.9,0
	c-2.7,0-4.3-1.7-3.7-4c0.5-2,0-3.9-0.2-5.8c-0.2-1.6-0.4-3.2-0.5-4.8c-0.2-3.1,1.2-4.7,4.3-5c2.8-0.2,5.6-0.5,8.4-0.6
	c3.1-0.2,6.2-0.3,9.4-0.4c-0.7-5.8-1.5-11.6-2.2-17.4c-1.6-0.2-3.2-0.5-4.7-0.6c-12.9-0.7-24.5,2.8-34.3,11.5
	c-5.4,4.8-9.5,10.2-10.7,17.6c-0.4,2.7-1.4,5.2-1.9,7.9c-0.4,2.3-1,3.1-3.3,3.3c-3.7,0.3-7.4,0.5-11.2,0.9c-0.5,0-1.2,0.5-1.3,0.8
	C52.5,74.7,52.5,80.4,53.6,85.9z M145.4,131.5c2.4-4.1,3.5-8.6,4-13.4C148,122.6,146.7,127.1,145.4,131.5z M25.1,55.6
	c-0.2,0-0.4-0.1-0.6-0.1c-1.1,5-2.2,10-3.4,15c0.1,0,0.3,0.1,0.4,0.1C22.7,65.6,23.9,60.6,25.1,55.6z M120.9,92.4
	c0.4,1.7,0.8,3.4,1.2,5C123.4,95,122.7,92.4,120.9,92.4z M40.8,129.6c-0.1,0.1-0.3,0.3-0.4,0.4c1.4,1.3,2.8,2.6,4.2,4
	C42.2,129.9,42.2,129.9,40.8,129.6z M60.6,51.1c1.3,0.1,3.5-2.7,4.1-5.2C63.2,47.7,61.9,49.4,60.6,51.1z M55.7,37
	c0.2,0.6,0.4,1.1,0.5,1.2c0.9-0.8,1.8-1.6,2.7-2.5C57.8,36.1,56.8,36.5,55.7,37z M64.7,95.1c0,1.6,0,3,0,4.4c0.1,0,0.2,0,0.3,0
	c0.3-1.4,0.5-2.9,0.8-4.4C65.2,95.1,64.9,95.1,64.7,95.1z"/>
<path class="st1" d="M145.4,131.5c1.3-4.5,2.6-8.9,4-13.4C148.9,122.9,147.7,127.4,145.4,131.5z"/>
<path class="st1" d="M25.1,55.6c-1.2,5-2.4,10-3.6,15c-0.1,0-0.3-0.1-0.4-0.1c1.1-5,2.2-10,3.4-15C24.7,55.5,24.9,55.5,25.1,55.6z"
	/>
<path class="st1" d="M120.9,92.4c1.8,0,2.5,2.6,1.2,5C121.7,95.8,121.3,94.1,120.9,92.4z"/>
<path class="st1" d="M40.8,129.6c1.5,0.3,1.5,0.3,3.8,4.4c-1.4-1.3-2.8-2.6-4.2-4C40.5,129.9,40.6,129.7,40.8,129.6z"/>
<path class="st1" d="M60.6,51.1c1.3-1.7,2.6-3.3,4.1-5.2C64.1,48.4,61.9,51.2,60.6,51.1z"/>
<path class="st1" d="M55.7,37c1.1-0.5,2.1-0.9,3.1-1.3c-0.9,0.8-1.8,1.7-2.7,2.5C56.1,38.1,55.9,37.7,55.7,37z"/>
<path class="st1" d="M64.7,95.1c0.3,0,0.6,0,1.1,0c-0.3,1.5-0.6,3-0.8,4.4c-0.1,0-0.2,0-0.3,0C64.7,98,64.7,96.6,64.7,95.1z"/>
</svg>
