<?xml version="1.0" encoding="utf-8"?>
<!-- Generator: Adobe Illustrator 26.2.1, SVG Export Plug-In . SVG Version: 6.00 Build 0)  -->
<svg version="1.0" id="Layer_1" xmlns="http://www.w3.org/2000/svg" xmlns:xlink="http://www.w3.org/1999/xlink" x="0px" y="0px"
	 viewBox="0 0 172.2 169.4" style="enable-background:new 0 0 172.2 169.4;" xml:space="preserve">
<style type="text/css">
	.st0{fill:#3B4349;}
	.st1{fill:#FFFFFF;}
</style>
<path class="st0" d="M164.3,58.2c0,4.5,0,9.1,0,13.6c-0.1,0.6-0.2,1.3-0.3,1.9c-0.2,2.8-0.2,5.5-0.5,8.3c-1.2,10.7,0,21.9-1.3,32.6
	c-0.9,7.2-2.7,26.7-5.4,33.5c-4,10.2-50.2,11.5-56.8,12c-9.2,0.7-18.5,1.3-27.8,1.4c-6.6,0.1-13.2-0.6-19.8-1
	c-2.1-0.1-4.3-0.9-6.4-0.7c-5.2,0.5-9.9-0.7-14.2-3.5c-7.2-4.7-12-11.5-15.4-19.2c-4.4-10-5.9-20.8-6.7-31.6
	c-0.9-12.5,0-24.9,2.4-37.2c2.1-11-0.1-21.9,4.7-32.2C20,29.2,24.2,23,30.3,18.4c7.6-5.7,21.4-8.1,30.7-9.1
	C71.7,8,82.2,8.8,92.8,9.6c11,0.8,21.9,1.6,32.9,1.3c5-0.1,10.1,0.1,15.1,0.8c8.9,1.3,15.1,6.3,18,14.9c2.7,8,4.2,16.2,4.9,24.5
	C164,53.5,164.1,55.8,164.3,58.2z M53.1,91.4c2.7,0,5.3-0.1,7.9,0c2.8,0.2,5.6,0.4,8.3,1c3.4,0.7,4,3,2.1,5.3
	c0.2,1.4,0.4,2.5,0.4,3.7c-0.3,5.6-0.9,11.3-0.9,16.9c0,6.2,0.5,12.4,0.8,18.7c0.1,1.5,0,3.2,0,4.7c9.1-0.8,18.1-1.6,27.2-2.3
	c0-0.6,0-1.2,0-1.7c-0.1-8.5-0.3-16.9-0.2-25.5c0.1-5.2,0.1-10.5,1.6-15.7c0.1-0.4-0.1-0.8-0.3-1.1c-1.2-2.2-0.1-4.1,2.6-4.3
	c2.3-0.1,4.5-0.2,6.8-0.3c2.9-0.1,5.8-0.3,8.5-0.5c0.2-5.9,0.4-11.5,0.5-17.4c-1.1,0.1-2.2,0.3-3.4,0.3c-4.1,0-8.3,0.1-12.4,0
	c-2.6,0-4.1-1.5-3.6-3.6c0.5-1.8,0-3.5-0.2-5.2c-0.2-1.4-0.4-2.9-0.5-4.3c-0.2-2.8,1.2-4.2,4.1-4.5c2.7-0.2,5.4-0.5,8.1-0.5
	c3-0.2,5.9-0.3,9-0.4c-0.7-5.2-1.4-10.5-2.1-15.7c-1.5-0.2-3.1-0.5-4.5-0.5c-12.4-0.6-23.5,2.5-32.9,10.4
	c-5.2,4.3-9.1,9.2-10.3,15.9c-0.4,2.4-1.3,4.7-1.8,7.1c-0.4,2.1-1,2.8-3.2,3c-3.6,0.3-7.1,0.5-10.7,0.8c-0.5,0-1.2,0.5-1.2,0.7
	C52,81.3,52,86.4,53.1,91.4z M145.4,131.5c2.4-4.1,3.5-8.6,4-13.4C148,122.6,146.7,127.1,145.4,131.5z M25.1,55.6
	c-0.2,0-0.4-0.1-0.6-0.1c-1.1,5-2.2,10-3.4,15c0.1,0,0.3,0.1,0.4,0.1C22.7,65.6,23.9,60.6,25.1,55.6z M117.6,97.2
	c0.4,1.5,0.8,3.1,1.2,4.5C120,99.6,119.4,97.2,117.6,97.2z M40.8,130.8c-0.1,0.1-0.3,0.3-0.4,0.4c1.3,1.2,2.7,2.3,4,3.6
	C42.1,131.1,42.1,131.1,40.8,130.8z M59.8,60c1.2,0.1,3.4-2.4,3.9-4.7C62.3,56.9,61,58.5,59.8,60z M55.1,47.3c0.2,0.5,0.4,1,0.5,1.1
	c0.9-0.7,1.7-1.4,2.6-2.3C57.1,46.5,56.1,46.8,55.1,47.3z M63.7,99.7c0,1.4,0,2.7,0,4c0.1,0,0.2,0,0.3,0c0.3-1.3,0.5-2.6,0.8-4
	C64.2,99.7,63.9,99.7,63.7,99.7z"/>
<path class="st1" d="M145.4,131.5c1.3-4.5,2.6-8.9,4-13.4C148.9,122.9,147.7,127.4,145.4,131.5z"/>
<path class="st1" d="M25.1,55.6c-1.2,5-2.4,10-3.6,15c-0.1,0-0.3-0.1-0.4-0.1c1.1-5,2.2-10,3.4-15C24.7,55.5,24.9,55.5,25.1,55.6z"
	/>
<path class="st1" d="M117.6,97.2c1.7,0,2.4,2.3,1.2,4.5C118.4,100.3,118,98.8,117.6,97.2z"/>
<path class="st1" d="M40.8,130.8c1.4,0.3,1.4,0.3,3.6,4c-1.3-1.2-2.7-2.3-4-3.6C40.5,131.1,40.6,130.9,40.8,130.8z"/>
<path class="st1" d="M59.8,60c1.2-1.5,2.5-3,3.9-4.7C63.1,57.6,61,60.1,59.8,60z"/>
<path class="st1" d="M55.1,47.3c1.1-0.5,2-0.8,3-1.2c-0.9,0.7-1.7,1.5-2.6,2.3C55.5,48.3,55.3,47.9,55.1,47.3z"/>
<path class="st1" d="M63.7,99.7c0.3,0,0.6,0,1.1,0c-0.3,1.4-0.6,2.7-0.8,4c-0.1,0-0.2,0-0.3,0C63.7,102.3,63.7,101,63.7,99.7z"/>
</svg>
