<?xml version="1.0" encoding="utf-8"?>
<!-- Generator: Adobe Illustrator 26.2.1, SVG Export Plug-In . SVG Version: 6.00 Build 0)  -->
<svg version="1.1" id="Layer_1" xmlns="http://www.w3.org/2000/svg" xmlns:xlink="http://www.w3.org/1999/xlink" x="0px" y="0px"
	 viewBox="0 0 172.2 169.4" style="enable-background:new 0 0 172.2 169.4;" xml:space="preserve">
<style type="text/css">
	.st0{fill:#FFFFFF;}
	.st1{fill:none;}
	.st2{fill:#F3F4F6;}
	.st3{fill:#3B4349;}
</style>
<path class="st0" d="M133.4,26.6c-4.5-1.3-8.9-2.6-13.4-4C124.8,23.1,129.3,24.2,133.4,26.6z"/>
<path class="st0" d="M94.3,40c0-1.8,2.6-2.5,5-1.2C97.7,39.2,96,39.6,94.3,40z"/>
<path class="st0" d="M131.5,131.2c0.3-1.5,0.3-1.5,4.4-3.8c-1.3,1.4-2.6,2.8-4,4.2C131.7,131.4,131.6,131.3,131.5,131.2z"/>
<path class="st0" d="M52.9,111.3c-1.7-1.3-3.3-2.6-5.2-4.1C50.3,107.9,53.1,110.1,52.9,111.3z"/>
<path class="st0" d="M38.9,116.3c-0.5-1.1-0.9-2.1-1.3-3.1c0.8,0.9,1.7,1.8,2.5,2.7C40,115.9,39.5,116,38.9,116.3z"/>
<path class="st1" d="M47.7,107.3c1.9,1.5,3.5,2.8,5.2,4.1C53.1,110.1,50.3,107.9,47.7,107.3z"/>
<path class="st0" d="M94.3,40c1.7-0.4,3.4-0.8,5-1.2C96.9,37.6,94.3,38.3,94.3,40z"/>
<path class="st0" d="M38.9,116.3c0.6-0.2,1.1-0.4,1.2-0.5c-0.8-0.9-1.6-1.8-2.5-2.7C38,114.1,38.4,115.1,38.9,116.3z"/>
<path class="st2" d="M163.3,99.7c-0.1-9.3-0.8-18.5-1.4-27.8c-0.5-6.6-1.7-52.8-12-56.8c-6.8-2.7-26.3-4.5-33.5-5.4
	c-10.6-1.4-21.9-0.1-32.6-1.3c-2.8-0.3-5.5-0.3-8.3-0.5c-0.6,0-1.3-0.2-1.9-0.3c-4.5,0-9.1,0-13.6,0c-2.3,0.2-4.7,0.4-7,0.6
	c-8.3,0.8-16.6,2.2-24.5,4.9c-8.6,3-13.7,9.1-14.9,18c-0.7,5-0.9,10-0.8,15.1c0.3,11-0.5,22-1.3,32.9c-0.8,10.6-1.6,21.1-0.4,31.7
	c1,9.3,0,24.9,5.7,32.5c4.6,6.2,7.3,9.5,14.2,12.7c9,4.2,18.2,3.7,27.8,5l0,0c-0.1-0.1-0.1-0.2-0.2-0.3c1.6,0.2,3.5,0.3,5.6,0.4
	c1.3-3.5,1.5-14.8,1.6-15.6c-18.7,3-26.5-10.7-34.6-25.1c13.4-2.3,26.7,34.8,39,4.5c-31.6-3.8-38.6-35.3-24.3-59.6
	c1.6-4.6-2.2-18.5,5.8-16.5c6.3,2.1,12.3,7,19,7.2c12.3-3.7,24.5,1.4,36.5,0c5.3-0.5,17-10.9,18.9-2.2c-2.4,20.5,12.7,32,3.3,52.5
	c-3.7,12.9-17.9,17.5-29.3,19.5c3,11,2.9,21.7,2.1,32.9c-0.1,1.2,0.1,2,0.5,2.7c2.7,0,5.5,0.1,8.5,0.2c0.3,0-0.6,0.3-1,0.4
	c9.8-0.9,19.5-2.4,28.7-6.4c7.7-3.4,14.5-8.2,19.2-15.4c2.8-4.3,4-9,3.5-14.2c-0.2-2.1,0.6-4.3,0.7-6.4
	C162.7,112.9,163.4,106.3,163.3,99.7z M32.4,38c2.6,0.6,5.4,2.8,5.2,4.1C35.9,40.8,34.3,39.5,32.4,38z M120,22.6
	c4.7,0.5,9.3,1.6,13.4,4C128.9,25.3,124.5,23.9,120,22.6z M131.9,131.6c-0.1-0.1-0.3-0.3-0.4-0.4c0.3-1.5,0.3-1.5,4.4-3.8
	C134.5,128.8,133.2,130.2,131.9,131.6z"/>
<path class="st3" d="M163.3,99.7c-0.1-9.3-0.8-18.5-1.4-27.8c-0.5-6.6-1.7-52.8-12-56.8c-6.8-2.7-26.3-4.5-33.5-5.4
	c-10.6-1.4-21.9-0.1-32.6-1.3c-2.8-0.3-5.5-0.3-8.3-0.5c-0.6,0-1.3-0.2-1.9-0.3c-4.5,0-9.1,0-13.6,0c-2.3,0.2-4.7,0.4-7,0.6
	c-8.3,0.8-16.6,2.2-24.5,4.9c-8.6,3-13.7,9.1-14.9,18c-0.7,5-0.9,10-0.8,15.1c0.3,11-0.5,22-1.3,32.9c-0.8,10.6-1.6,21.1-0.4,31.7
	c1,9.3,0,24.9,5.7,32.5c4.6,6.2,7.3,9.5,14.2,12.7c9,4.2,18.2,3.7,27.8,5l0,0c-0.1-0.1-0.1-0.2-0.2-0.3c1.6,0.2,3.5,0.3,5.6,0.4
	c1.3-3.5,1.5-14.8,1.6-15.6c-18.7,3-26.5-10.7-34.6-25.1c13.4-2.3,26.7,34.8,39,4.5c-31.6-3.8-38.6-35.3-24.3-59.6
	c1.6-4.6-2.2-18.5,5.8-16.5c6.3,2.1,12.3,7,19,7.2c12.3-3.7,24.5,1.4,36.5,0c5.3-0.5,17-10.9,18.9-2.2c-2.4,20.5,12.7,32,3.3,52.5
	c-3.7,12.9-17.9,17.5-29.3,19.5c3,11,2.9,21.7,2.1,32.9c-0.1,1.2,0.1,2,0.5,2.7c2.7,0,5.5,0.1,8.5,0.2c0.3,0-0.6,0.3-1,0.4
	c9.8-0.9,19.5-2.4,28.7-6.4c7.7-3.4,14.5-8.2,19.2-15.4c2.8-4.3,4-9,3.5-14.2c-0.2-2.1,0.6-4.3,0.7-6.4
	C162.7,112.9,163.4,106.3,163.3,99.7z M32.4,38c2.6,0.6,5.4,2.8,5.2,4.1C35.9,40.8,34.3,39.5,32.4,38z M120,22.6
	c4.7,0.5,9.3,1.6,13.4,4C128.9,25.3,124.5,23.9,120,22.6z M131.9,131.6c-0.1-0.1-0.3-0.3-0.4-0.4c0.3-1.5,0.3-1.5,4.4-3.8
	C134.5,128.8,133.2,130.2,131.9,131.6z"/>
</svg>
