<?xml version="1.0" encoding="utf-8"?>
<!-- Generator: Adobe Illustrator 26.1.0, SVG Export Plug-In . SVG Version: 6.00 Build 0)  -->
<svg version="1.1" id="Layer_1" xmlns="http://www.w3.org/2000/svg" xmlns:xlink="http://www.w3.org/1999/xlink" x="0px" y="0px"
	 viewBox="0 0 80 80" style="enable-background:new 0 0 80 80;" xml:space="preserve">
<style type="text/css">
	.st0{fill:#FFFFFF;}
</style>
<path class="st0" d="M67.2,28.6l0-0.7l0-0.5l-0.5,0l-24.9,0.4c0.2-1.7,0.4-3,0.5-3.9c0.1-1.2,0.2-1.9,0.3-2.2c0-0.1,0-0.1,0.4-0.2
	c0.9-0.1,2.9-0.4,7-3.8l0.8-0.6l-1-0.2c-0.8-0.2-1.5-0.3-2.3-0.3c-2.7,0-4.5,1.2-5.4,1.9c0,0-0.1,0-0.1,0.1c0.1-0.6,0.3-1.6,0.6-2.8
	l0.1-0.6c0.1-0.3,0.2-0.6,0.3-0.9c0.4-1.2,0.8-2.4,1.5-3.4c1,1.1,2.1,1.6,3.4,1.6c2.2,0,4.3-1.6,6.4-3.2c1-0.8,2-1.5,3-2.1l1-0.5
	l-1.1-0.4c-1.6-0.5-3.3-0.8-4.9-0.8c-4.5,0-8.2,2-10.5,5.5c-0.1-0.6-0.4-1.3-0.8-1.9c-2-2.9-6.4-4.8-8.5-4.8h0c-1,0-1.4,0.4-1.6,0.8
	c-0.3,0.8,0.2,1.9,1.8,3.4c0.8,1.2,1.6,2.5,2.4,3.7c0.4,0.7,0.8,1.4,1.2,2l0,0l0,0c0.3,0.4,0.7,0.7,1,1.1c1.6,1.7,2.7,2.9,2.3,5.3
	c-0.9-0.8-2.3-1.4-3.4-1.4c-0.8,0-1.5,0.3-1.8,0.9l-0.3,0.5l0.6,0.2c1.3,0.3,2.2,1.3,3.1,2.4c0.6,0.7,1.2,1.3,1.9,1.9
	c-0.2,1.2-0.3,2.1-0.5,2.7L18,28.2l-0.5,0l0,0.5l0,0.8c-0.2,1.8-0.4,3-0.7,4.5c-0.1,0.5-0.2,0.9-0.3,1.5c-0.2,1.4-0.9,2.8-2,4.2
	c-0.5,0.6-1,1.3-1.4,2.1c-0.5,0.9-0.6,1.9-0.3,2.7c0.3,0.8,0.9,1.4,1.9,1.8c0.8,0.4,1.8,0.5,2.6,0.7l0.2,0c0.6,0.1,0.6,0.1,0.7,0.7
	l0.1,0.8c0.3,2.8,0.7,5.7,1.1,8.5c0.2,1.8,1.3,3.1,3,3.8c1.7,0.7,3.4,0.9,5.1,1c1.8,0.1,3.5,0.1,5.1,0.1c0.2,0,0.2,0,0.2,0
	c0,0,0,0.1,0.1,0.2c0.3,2.8-0.2,5.6-0.7,8.3c-0.3,1.2-0.5,2.4-0.8,3.6c-0.2,0.8,0,1.3,0.6,1.5c0.1,0,0.2,0.1,0.4,0.1
	c0.3,0,0.8-0.1,1-1c0.1-0.4,0.2-0.9,0.3-1.3c0.3-1.3,0.7-2.7,0.9-4.1c0.5-2.8,0.6-5,0.4-7.1c-0.2-1.9-0.6-2.2-2.6-2.3l-1.1-0.1
	c-2.3-0.1-4.6-0.2-6.9-0.5c-2-0.2-2.8-1.2-3-3.4l0-0.2c0-0.2,0-0.3,0-0.5l-0.3-2.1c1.8,0,6.1-1.2,7.2-1.9c1.3-0.9,0.6-3.3-1-1.7
	c-1.2,1.2-4.7,1.5-6.4,1.7c-0.1-0.9-0.2-1.8-0.4-2.7c0-0.2,0-0.4-0.1-0.7c0-0.2,0-0.4,0-0.6c-0.1-1.3-0.7-2-2-2.3
	c-0.3-0.1-0.5-0.1-0.8-0.1c-0.2,0-0.5,0-0.7-0.1c-0.4-0.1-0.9-0.2-1.3-0.4c-0.4-0.2-0.7-0.4-0.8-0.6c-0.1-0.2,0-0.6,0.2-1
	c0.4-0.7,0.8-1.3,1.3-1.9c1.7-2.1,2.6-4.7,2.9-8c0.1-0.6,0.1-1,0.1-1.4c0-0.4,0.1-0.8,0.1-1.3l45.4-0.8c0.4,4.8-0.8,9.6-3.6,14.7
	c-1.1,1.9-2.3,3.8-3.5,5.5l-0.4,0.5c-2.3,3.4-3.7,6.8-4.3,10.2c-0.4,2.4-0.4,5,0,8.4c0.1,1,0.3,2.1,0.4,3.1c0.1,0.8,0.2,1.6,0.3,2.4
	c0.1,1.1,0.8,1.2,1.2,1.2c0,0,0.1,0,0.1,0c0.3,0,0.5-0.1,0.7-0.3c0.3-0.3,0.2-0.8,0.2-1.1c-0.2-2.2-0.5-4.4-0.7-6.6
	c-0.6-5.6,0.4-10.4,3.2-14.7c0.3-0.5,0.6-0.9,0.9-1.4c1.3-1.9,2.6-4,3.8-6c2.8-4.9,4.1-9.5,4.1-14.2C67.3,30.4,67.3,29.5,67.2,28.6z
	 M47.6,17.2C47.6,17.2,47.6,17.2,47.6,17.2C47.6,17.2,47.6,17.2,47.6,17.2C47.6,17.2,47.6,17.2,47.6,17.2z M48,12c0,0-0.1,0-0.1,0
	C47.9,12,48,12,48,12C48,12,48,12,48,12z M52.4,6c0.1,0,0.1,0,0.2,0c-0.3,0-0.5,0-0.8,0C52,6,52.2,6,52.4,6z M50,7.2
	c9.8-2.3-1.4,6.9-4,2.3C47,7.9,48.5,7.5,50,7.2z M42.3,15c-0.1,0.3-0.1,0.6-0.2,0.8C42.2,15.6,42.3,15.3,42.3,15z M32.3,4.8
	c0.1,0,0.2,0,0.2,0c0,0,0,0,0.1,0C32.5,4.8,32.4,4.8,32.3,4.8z M36.2,19.8C36.2,19.8,36.2,19.8,36.2,19.8
	C36.3,19.8,36.3,19.8,36.2,19.8C36.3,19.8,36.2,19.8,36.2,19.8z M32.4,75.2c-0.1,0-0.1,0-0.2,0C32.3,75.2,32.4,75.2,32.4,75.2
	C32.5,75.1,32.5,75.2,32.4,75.2z M40.1,14.6L40.1,14.6c0,0-0.4,0-1.2-0.9c-0.3-0.4-0.8-1.1-1.5-2c-1-1.2-2.9-3.7-3.1-4.6
	c3.3,0.3,5.1,3.5,5.6,5.3C40.4,13.8,40.2,14.5,40.1,14.6z M55,75c-0.1,0-0.1,0-0.1,0C54.9,75,55,75,55,75C55.1,75,55,75,55,75z"/>
</svg>
