<?xml version="1.0" encoding="utf-8"?>
<!-- Generator: Adobe Illustrator 26.2.1, SVG Export Plug-In . SVG Version: 6.00 Build 0)  -->
<svg version="1.1" id="Layer_1" xmlns="http://www.w3.org/2000/svg" xmlns:xlink="http://www.w3.org/1999/xlink" x="0px" y="0px"
	 viewBox="0 0 80 80" style="enable-background:new 0 0 80 80;" xml:space="preserve">
<style type="text/css">
	.st0{fill:#FFFFFF;}
</style>
<g>
	<g>
		<g>
			<g>
				<path class="st0" d="M22,53.7c-0.3-0.1-0.5-0.3-0.7-0.6c-0.2-0.2-0.3-0.5-0.5-0.9c-0.1-0.4-0.2-0.7-0.3-1.1
					c-0.1-0.7-0.2-1.5-0.3-2.6c0-0.3,0-0.7,0-1.3V46c0-0.3,0-0.6,0-0.9c0-0.7,0-1.2,0.1-1.6c0-0.2-0.1-0.3-0.1-0.5
					c0-0.7,0.3-1.2,0.8-1.6c0.5-0.4,1.1-0.6,1.9-0.6c0.3,0,0.6,0.1,0.8,0.2c0.2,0.2,0.4,0.4,0.4,0.6c0,0.1,0,0.2-0.1,0.3
					c-0.1,0.1-0.2,0.1-0.3,0.1c-0.1,0-0.2,0-0.4-0.1c-0.1,0-0.2-0.1-0.2-0.2h-0.2v0c-0.4,0-0.8,0.1-1,0.3c-0.2,0.1-0.4,0.4-0.5,0.7
					c0,0.1-0.1,0.3-0.1,0.5c0,0.2,0,0.4,0,0.5c0,0.1,0,0.3,0,0.5l0,0.6l0,0.6c0,0.2,0,0.4-0.1,0.6c-0.1,0.3-0.1,0.5-0.1,0.6V47
					c0,0.4,0,1,0.1,1.8c0,0.6,0.1,1.3,0.2,1.9c0.1,0.6,0.3,1.1,0.6,1.5c0.3,0.4,0.6,0.6,1.1,0.6c0.2,0,0.4-0.1,0.7-0.3
					c0.3-0.2,0.5-0.3,0.6-0.3c0.2,0,0.3,0.1,0.5,0.3c0,0.4-0.2,0.7-0.5,1c-0.3,0.2-0.6,0.3-1,0.4c-0.2,0-0.4,0-0.5,0
					C22.5,53.9,22.2,53.8,22,53.7z"/>
				<g>
					<path class="st0" d="M22,53.7c-0.8-0.4-1.2-1.4-1.5-2.2c-0.8-2.6-0.9-5.3-0.4-8.1c0,0,0,0.1,0,0.1c-0.1-0.7,0-1.4,0.5-2
						c0.8-1,3.4-1.7,3.8-0.1c0.1,0.5-0.5,0.7-0.9,0.6c-0.2,0-0.4,0-0.6-0.3l0.2,0.1l-0.2,0c-0.2,0-0.3-0.1-0.3-0.3
						c0,0,0.3,0.3,0.3,0.3c-0.4,0-0.8,0.1-1,0.5c-0.4,0.9-0.2,1.8-0.1,2.7c-0.1,1.4-0.1,3,0,4.5c0.1,0.7,0.2,1.4,0.5,2
						c0.2,0.4,0.4,0.7,0.8,0.8c0.4,0,0.6-0.3,1.1-0.4c0.3-0.2,0.8,0.1,1,0.3C25.4,53.9,23,54.3,22,53.7L22,53.7z M22,53.6
						c0.9,0.5,2.7,0.1,2.7-1.1c0,0,0.1,0.2,0.1,0.2c-0.2-0.1-0.3-0.2-0.4-0.1c-2.3,2-3.5-0.8-3.6-2.8c-0.1-1.6-0.1-3,0.1-4.6
						c0-1.5-0.1-4,2.1-3.8c0.2,0,0.3,0.1,0.2,0.3c0,0-0.3-0.3-0.3-0.3s0.2,0,0.2,0s0.3,0,0.3,0c0.1,0,0.1,0.2,0,0.1
						c-0.1,0,0.1,0.1,0.2,0.1c0.1,0,0.3,0.1,0.3,0c0.2,0,0.1-0.3,0-0.5c-0.8-0.7-2.4-0.2-3,0.7c-0.3,0.5-0.3,1.1-0.2,1.7
						c-0.1,0.8,0,1.7,0,2.6c0.1,1.7-0.2,3.5,0.1,5.2C20.9,52.3,21.2,53.2,22,53.6L22,53.6z"/>
				</g>
			</g>
		</g>
		<g>
			<g>
				<path class="st0" d="M27.8,53.7c-0.2-0.2-0.4-0.4-0.6-0.8c-0.3-0.7-0.5-1.4-0.6-2.2c-0.1-0.8-0.2-1.5-0.2-2.2c0-0.1,0-0.2,0-0.3
					v-0.3c0-0.1,0-0.1,0-0.1v-0.3l0-1.2c0-0.4,0.1-0.9,0.1-1.7c0.1-0.5,0.2-1.1,0.4-1.6c0.1-0.2,0.2-0.4,0.3-0.5
					c0.1-0.1,0.3-0.2,0.4-0.2c0.4,0,0.9,0.1,1.2,0.2c0.4,0.2,0.7,0.4,0.9,0.7c0.2,0.3,0.4,0.6,0.6,1c0.2,0.4,0.3,0.8,0.3,1.3
					c0.1,0.5,0.1,1,0.1,1.5v0.1c0,0.3,0,0.7,0,0.9l0,1c0,3.2-0.8,4.9-2.3,4.9C28.3,53.9,28,53.8,27.8,53.7z M29.1,53
					c0.2-0.2,0.3-0.4,0.4-0.7c0.2-0.6,0.3-1.2,0.4-1.9c0.1-0.6,0.1-1.1,0.1-1.5c0-0.5,0-1.2-0.1-2c-0.1-0.9-0.1-1.5-0.1-1.9v-0.3
					c0-0.4-0.2-0.8-0.4-1.1c-0.3-0.3-0.6-0.5-1-0.5c-0.4,0-0.6,0.2-0.8,0.7c-0.1,0.3-0.2,0.8-0.2,1.3c0,0.2,0,0.4,0,0.5v0.5l0,0.8
					c0,0.2,0,0.5,0,0.8c0,0.6,0,1.2,0.1,1.8c0,0.8,0.2,1.7,0.3,2.5c0.2,0.8,0.4,1.2,0.8,1.2C28.7,53.2,28.9,53.1,29.1,53z"/>
				<g>
					<path class="st0" d="M27.8,53.7c-1.3-1.2-1.6-3.2-1.7-4.8c-0.1-0.4,0-0.7,0-1c0,0.1,0.2,0.4,0.4,0.3c0,0-0.4-0.4-0.4-0.4
						c0.1-1.8,0.2-3.6,1.1-5.3c0.3-0.5,0.9-0.4,1.4-0.3c1.5,0.2,2.4,1.7,2.7,3.1c0.2,2.7,0.8,5.7-0.9,8C29.7,54,28.5,54.3,27.8,53.7
						L27.8,53.7z M27.8,53.6c0.3,0.3,0.8,0.3,1.2,0.2c1.3-0.5,1.2-2.1,1.3-3.2c-0.1-2.4,0.5-5.3-0.9-7.4c-3.2-2.7-2.5,2.7-2.5,4.6
						c0,0-0.4-0.4-0.4-0.4c0.3,0,0.4,0.2,0.5,0.5c0,0.1,0,0.3,0,0.4C27.1,49.9,26.4,52.3,27.8,53.6L27.8,53.6z"/>
					<path class="st0" d="M29.1,52.9c0.7-0.9,0.5-2.2,0.5-3.3c-0.1-1.7,0-3.4,0-5.1c0-0.7-0.8-1.5-1.5-1.1c-0.4,0.5-0.2,1.5-0.2,2.2
						c0,0.7,0,1.5,0,2.2C28.1,48.6,27.4,54.3,29.1,52.9L29.1,52.9z M29.1,53c-0.8,0.8-1.4-0.2-1.6-0.9c-1-2.6-0.8-5.6-0.4-8.2
						c0.5-1.8,2.6-0.8,2.7,0.6c0.1,1.8,0.7,3.4,0.4,5.2C30.1,50.8,29.9,52.1,29.1,53L29.1,53z"/>
				</g>
			</g>
		</g>
		<g>
			<g>
				<path class="st0" d="M32.9,53.5c0.1-0.9,0.2-2.4,0.2-4.3c0.1-2,0.1-3.2,0.1-3.6v-0.4c0-1.1,0.1-1.9,0.1-2.3
					c0-0.2,0.1-0.3,0.2-0.4c0.1-0.1,0.3-0.1,0.4-0.1c0.4,0,0.8,0,1.3,0.1c0.3,0,0.5,0.1,0.7,0.2c0.2,0.1,0.3,0.2,0.3,0.4
					c0,0.3-0.3,0.5-0.9,0.5c-0.2-0.1-0.5-0.2-0.9-0.2h-0.2v0.2c0,0.4,0,1-0.1,1.7c-0.1,0.6-0.1,1.2-0.1,1.7v0.5h0.1h0.2
					c0.6,0,0.8,0.1,0.8,0.4c0,0.1-0.1,0.3-0.2,0.4c-0.1,0.1-0.3,0.1-0.4,0.1c-0.3,0-0.5,0-0.7-0.1V53c0,0.5-0.1,0.7-0.4,0.7
					C33.3,53.8,33.1,53.7,32.9,53.5z M37,53.5c0.1-0.9,0.2-2.4,0.2-4.3c0.1-2,0.1-3.2,0.1-3.6v-0.4c0-1.1,0.1-1.9,0.1-2.3
					c0-0.2,0.1-0.3,0.2-0.4c0.1-0.1,0.3-0.1,0.4-0.1c0.4,0,0.8,0,1.3,0.1c0.3,0,0.5,0.1,0.7,0.2c0.2,0.1,0.3,0.2,0.3,0.4
					c0,0.3-0.3,0.5-0.9,0.5c-0.2-0.1-0.5-0.2-0.9-0.2h-0.2v0.2c0,0.4,0,1-0.1,1.7c-0.1,0.6-0.1,1.2-0.1,1.7v0.5h0.1h0.2
					c0.6,0,0.8,0.1,0.8,0.4c0,0.1-0.1,0.3-0.2,0.4c-0.1,0.1-0.3,0.1-0.4,0.1c-0.3,0-0.5,0-0.7-0.1V53c0,0.5-0.1,0.7-0.4,0.7
					C37.5,53.8,37.3,53.7,37,53.5z"/>
				<g>
					<path class="st0" d="M32.8,53.5c-0.3-3.4-0.1-7.2,0.3-10.6c0.1-0.8,1-0.6,1.6-0.6c0.5,0,1,0,1.5,0.4c0.5,0.3,0.1,1-0.3,1.1
						c-0.7,0.2-0.8-0.1-1.6,0c0,0,0.4-0.4,0.4-0.4c0.1,1.3,0,2.7,0,4c0,0-0.5-0.5-0.5-0.5c2.5-0.3,2,2.6-0.3,1.8
						c0,0,0.7-0.5,0.7-0.5c0,1.1-0.1,2.1-0.1,3.2c0,0.3-0.1,1.8-0.2,2.1C33.8,54.1,33.1,53.9,32.8,53.5L32.8,53.5z M32.9,53.5
						c0.5,0.2,0.9,0.2,0.8-0.4c-0.1-1.6-0.2-3.3-0.3-4.8c0-0.3,0.2-0.5,0.5-0.5c0.2,0,0.4,0.1,0.7,0.1c0.1,0,0.1-0.1,0.1,0
						c0,0,0,0.1,0.1,0.1c0,0,0,0,0,0c-0.1,0-0.4,0-0.6,0c-0.3,0-0.5-0.2-0.5-0.5c0-0.7,0.1-1.4,0.1-2c0-0.7,0.1-1.3,0.2-2
						c0-0.2,0.2-0.3,0.4-0.3c0.4,0,0.8,0,1.2,0.3c0,0-0.1,0-0.1,0c0.4,0,0.8,0,0.6-0.3c-0.5-0.4-1.5-0.4-2.1-0.4
						c-0.3,0.1-0.3,0.3-0.3,0.6C33.7,46.6,33.6,50,32.9,53.5L32.9,53.5z"/>
					<path class="st0" d="M37,53.5c-0.3-3.4-0.1-7.2,0.3-10.6c0.1-0.8,1-0.6,1.6-0.6c0.5,0,1,0,1.5,0.4c0.5,0.3,0.1,1-0.3,1.1
						c-0.7,0.2-0.8-0.1-1.6,0c0,0,0.4-0.4,0.4-0.4c0.1,1.3,0,2.7,0,4c0,0-0.5-0.5-0.5-0.5c2.5-0.3,2,2.6-0.3,1.8
						c0,0,0.7-0.5,0.7-0.5c0,1.1-0.1,2.1-0.1,3.2c0,0.3-0.1,1.8-0.2,2.1C38,54.1,37.3,53.9,37,53.5L37,53.5z M37.1,53.5
						c0.5,0.2,0.9,0.2,0.8-0.4c-0.1-1.6-0.2-3.3-0.3-4.8c0-0.3,0.2-0.5,0.5-0.5c0.2,0,0.4,0.1,0.7,0.1c0.1,0,0.1-0.1,0.1,0
						c0,0,0,0.1,0.1,0.1c0,0,0,0,0,0c-0.1,0-0.4,0-0.6,0c-0.3,0-0.5-0.2-0.5-0.5c0-0.7,0.1-1.4,0.1-2c0-0.7,0.1-1.3,0.2-2
						c0-0.2,0.2-0.3,0.4-0.3c0.4,0,0.8,0,1.2,0.3l-0.1,0c0.4,0,0.8,0,0.6-0.3c-0.5-0.4-1.5-0.4-2.1-0.4c-0.3,0.1-0.3,0.3-0.3,0.6
						C37.9,46.6,37.8,50,37.1,53.5L37.1,53.5z"/>
				</g>
			</g>
		</g>
		<g>
			<g>
				<path class="st0" d="M42.3,53.7c-0.1-0.1-0.2-0.2-0.2-0.4v-0.4v-0.3c0-0.1,0-0.2,0-0.4c0-0.2,0-0.6-0.1-1.1l0-1.1
					c0-0.6,0-1.4,0.1-2.5c0-1,0.1-1.8,0.1-2.5c0-0.2,0-0.4-0.1-0.7c0-0.3-0.1-0.6-0.1-0.7c0-0.8,0.2-1.2,0.7-1.2
					c0.4,0,0.8,0.1,1.3,0.2c0.5,0.1,0.7,0.3,0.7,0.5c0,0.1,0,0.2-0.1,0.3c-0.1,0.1-0.2,0.2-0.3,0.2c-0.5-0.2-0.9-0.3-1.3-0.3
					c0,0.2,0,0.4,0,0.7c0,0.4,0,0.9,0,1.2c0,0.5-0.1,0.9-0.1,1.2l0.1,0.3l0.3,0c0.1,0,0.2,0,0.3,0c0.5,0,0.8,0.2,0.8,0.5
					c0,0.1-0.1,0.2-0.2,0.3c-0.1,0.1-0.2,0.1-0.4,0.1c-0.2,0-0.4,0-0.5,0h-0.4c0,0.3,0,0.7,0,1.3c0,0.6,0,1.1,0,1.5
					c0,0.7-0.1,1.2-0.1,1.5c0,0.6,0,0.9,0,0.9l0.6,0c0.2,0,0.4,0,0.7,0c0.4,0,0.6,0.1,0.6,0.4c0,0.2-0.1,0.3-0.2,0.4
					c-0.1,0.1-0.3,0.1-0.5,0.1h-1.4C42.5,53.8,42.4,53.8,42.3,53.7z"/>
				<g>
					<path class="st0" d="M42.2,53.7c-0.1-0.1-0.2-0.2-0.2-0.4c-0.2-2.7-0.7-5.6-0.3-8.3c0-1.1-0.2-3.1,1.5-2.6
						c0.9,0.1,2.6,0.7,1.1,1.6c-0.5,0-0.9-0.2-1.4-0.3c0,0,0.3-0.3,0.3-0.3c0.1,1.1,0.1,2.1,0.1,3.2c0-0.3,0,0.2,0.1,0.2
						c0,0-0.5-0.4-0.5-0.4c0.6-0.1,1.4-0.2,1.8,0.4c0.3,0.5,0,1.1-0.5,1.3c-0.5,0.2-0.7,0-1,0.1l0.1,0l-0.4,0l0.5-0.6
						c0.1,1.7,0,3.5-0.1,5.2c0,0.1,0,0,0-0.1c0,0-0.1-0.2-0.2-0.2c-0.2,0-0.2,0-0.1,0c0,0,0.1,0,0.1,0c0.2,0,0.8,0,1,0.1
						c0.2,0,0.5,0,0.8,0.2c0.3,0.2,0.3,0.6,0.1,0.9c-0.4,0.4-0.9,0.2-1.4,0.2C43.1,53.8,42.6,54,42.2,53.7L42.2,53.7z M42.3,53.6
						c0.3,0.2,0.8,0.1,1.2,0.1c0.4,0,0.9,0,1.1-0.3c0.1-0.4-0.2-0.3-0.5-0.2c0,0-0.6,0.1-0.6,0.1c-0.1,0-0.4,0-0.5,0.1
						c0,0,0,0-0.2,0c-0.2-0.1-0.2-0.2-0.3-0.3c-0.2-0.9-0.1-1.9-0.1-2.8c0-0.9,0-1.7,0-2.6c0-0.6,0.6-0.5,1-0.5c0.2,0,0.5,0,0.4,0
						c0,0,0,0.1,0,0.1c0.1,0.1,0,0-0.2,0c-0.2,0-0.4,0-0.7,0c-0.4,0-0.4-0.4-0.5-0.7c0.1-1.1,0.2-2.1,0.2-3.2c0-0.1,0.1-0.2,0.2-0.2
						c0,0,0,0,0.1,0l1.3,0.4l-0.1,0c0.2-0.1,0.4-0.3,0.4-0.4c-0.3-0.4-1.6-0.7-2.1-0.5c-0.5,0.7,0.2,2.2,0,3.1c0,2.5-0.4,5-0.4,7.5
						C42.1,53.4,42.2,53.6,42.3,53.6L42.3,53.6z"/>
				</g>
			</g>
		</g>
		<g>
			<g>
				<path class="st0" d="M47.5,53.7c-0.1-0.1-0.2-0.2-0.2-0.4v-0.4v-0.3c0-0.1,0-0.2,0-0.4c0-0.2,0-0.6-0.1-1.1l0-1.1
					c0-0.6,0-1.4,0.1-2.5c0-1,0.1-1.8,0.1-2.5c0-0.2,0-0.4-0.1-0.7c0-0.3-0.1-0.6-0.1-0.7c0-0.8,0.2-1.2,0.7-1.2
					c0.4,0,0.8,0.1,1.3,0.2c0.5,0.1,0.7,0.3,0.7,0.5c0,0.1,0,0.2-0.1,0.3c-0.1,0.1-0.2,0.2-0.3,0.2c-0.5-0.2-0.9-0.3-1.3-0.3
					c0,0.2,0,0.4,0,0.7c0,0.4,0,0.9,0,1.2c0,0.5-0.1,0.9-0.1,1.2l0.1,0.3l0.3,0c0.1,0,0.2,0,0.3,0c0.5,0,0.8,0.2,0.8,0.5
					c0,0.1-0.1,0.2-0.2,0.3c-0.1,0.1-0.2,0.1-0.4,0.1c-0.2,0-0.4,0-0.5,0h-0.4c0,0.3,0,0.7,0,1.3c0,0.6,0,1.1,0,1.5
					c0,0.7-0.1,1.2-0.1,1.5c0,0.6,0,0.9,0,0.9l0.6,0c0.2,0,0.4,0,0.7,0c0.4,0,0.6,0.1,0.6,0.4c0,0.2-0.1,0.3-0.2,0.4
					c-0.1,0.1-0.3,0.1-0.5,0.1h-1.4C47.7,53.8,47.6,53.8,47.5,53.7z"/>
				<g>
					<path class="st0" d="M47.4,53.7c-0.1-0.1-0.2-0.2-0.2-0.4c-0.2-2.7-0.7-5.6-0.3-8.3c0-1.1-0.2-3.1,1.5-2.6
						c0.9,0.1,2.6,0.7,1.1,1.6c-0.5,0-0.9-0.2-1.4-0.3c0,0,0.3-0.3,0.3-0.3c0.1,1.1,0.1,2.1,0.1,3.2c0-0.3,0,0.2,0.1,0.2
						c0,0-0.5-0.4-0.5-0.4c0.6-0.1,1.4-0.2,1.8,0.4c0.3,0.5,0,1.1-0.5,1.3c-0.5,0.2-0.7,0-1,0.1l0.1,0l-0.4,0l0.5-0.6
						c0.1,1.7,0,3.6-0.1,5.2c0-0.1,0-0.2-0.2-0.3c-0.1,0-0.2,0-0.1,0c0,0,0.1,0,0.1,0c0.2,0,0.8,0,1,0.1c0.2,0,0.5,0,0.8,0.2
						c0.3,0.2,0.3,0.6,0.1,0.9c-0.4,0.4-0.9,0.2-1.4,0.2C48.3,53.8,47.8,54,47.4,53.7L47.4,53.7z M47.5,53.6
						c0.3,0.2,0.8,0.1,1.2,0.1c0.4,0,0.9,0,1.1-0.3c0.1-0.4-0.2-0.3-0.5-0.2c0,0-0.6,0.1-0.6,0.1c-0.1,0-0.4,0-0.4,0.1
						c-0.1,0,0,0-0.2,0c-0.2-0.1-0.2-0.2-0.3-0.3c-0.2-0.9-0.1-1.9-0.1-2.8c0-0.9,0-1.7,0-2.6c0-0.6,0.6-0.5,1-0.5
						c0.2,0,0.5,0,0.4,0c0,0,0,0.1,0,0.1c0.1,0.1,0,0-0.2,0c-0.2,0-0.4,0-0.7,0c-0.4,0-0.4-0.4-0.5-0.7c0.1-1.1,0.2-2.1,0.2-3.2
						c0-0.1,0.1-0.2,0.2-0.2c0,0,0,0,0.1,0c0,0,1.3,0.4,1.3,0.4l-0.1,0c0.2-0.1,0.4-0.3,0.4-0.4c-0.3-0.4-1.6-0.7-2.1-0.5
						c-0.5,0.7,0.2,2.2,0,3.1c0,2.5-0.4,5-0.4,7.5C47.3,53.4,47.4,53.6,47.5,53.6L47.5,53.6z"/>
				</g>
			</g>
		</g>
	</g>
	<g>
		<g>
			<g>
				<path class="st0" d="M34.3,31.1c-9.8,0-20.2-0.9-20.2-2.6c0-1.7,10.4-2.6,20.2-2.6s20.2,0.9,20.2,2.6
					C54.5,30.1,44.1,31.1,34.3,31.1z M34.3,26.1c-11.7,0-19.9,1.2-19.9,2.3c0,1.1,8.2,2.3,19.9,2.3s19.9-1.2,19.9-2.3
					C54.2,27.4,46,26.1,34.3,26.1z"/>
				<g>
					<path class="st0" d="M34.3,31.1c-6-0.1-12.2,0.4-18.1-1c-1.1-0.2-3.6-1.2-1.9-2.5c1.4-0.8,3-0.9,4.5-1.2
						c10.3-0.9,20.8-1.5,31.1-0.2c1.5,0.3,3.2,0.4,4.6,1.3c1.7,1.4-0.8,2.4-2,2.6C46.5,31.4,40.4,31,34.3,31.1L34.3,31.1z M34.3,31
						c6.4-0.2,12.9-0.5,19.1-2.2c0.2-0.1,0.3-0.2,0.5-0.3c0.1-0.1,0.2-0.2,0.1-0.1c0,0.1,0,0-0.1-0.1C51,27,47.7,27,44.6,26.7
						c-3.4-0.3-6.9-0.5-10.3-0.6C29.2,26,24,26.1,18.9,27c-1.4,0.3-3.3,0.5-4.3,1.4c1.1,0.9,2.9,1,4.3,1.3C24,30.5,29.2,31,34.3,31
						L34.3,31z"/>
					<path class="st0" d="M34.3,26.2c-3.4,0-6.7,0.2-10.1,0.6c-3.1,0.4-6.2,0.5-9.2,1.6c-0.2,0.1-0.3,0.2-0.2,0.1
						c-0.1-0.2,0,0,0.2,0.1c2.9,1.2,6.1,1.4,9.2,1.7c6.7,0.6,13.5,0.2,20.2-0.3c3.1-0.4,6.4-0.4,9.3-1.6c0.1,0,0,0,0,0.1
						c0,0.1,0.1,0.2,0,0.1c0,0-0.1-0.1-0.2-0.1c-2.9-1.1-6.1-1.2-9.1-1.7C41.1,26.4,37.7,26.2,34.3,26.2L34.3,26.2z M34.3,26.1
						c6.5,0.2,13.4-0.6,19.7,1.5c3.7,2.7-8.3,3.2-9.5,3.3c-8.5,0.5-16.9,0-25.3-0.7c-1.6-0.3-3.4-0.3-4.8-1.2
						c-1.1-1.3,1.4-1.8,2.2-2C22.4,25.8,28.4,26.2,34.3,26.1L34.3,26.1z"/>
				</g>
			</g>
		</g>
	</g>
	<g>
		<g>
			<g>
				<path class="st0" d="M54.3,40c0-1.3,0-2.6,0-3.9c0-2.5,0-5.1,0-7.6c0-0.6-0.8-0.6-0.8,0c0,2.1,0,4.2,0,6.2c0,1.9-0.2,4,0,5.9
					c0.1,0.8,0.3,1.6,0.3,2.5c0,1-0.1,2-0.1,3c0,1.7-0.2,3.4-0.3,5.1c-0.2,3.7-0.6,7.5-1.7,10.9c-1,3.2-2.5,6.4-5.3,7.8
					c-2.7,1.3-5.6,1-8.4,1c-1.7,0-3.3,0-5,0c-1.6,0.1-3.1-0.4-4.7-0.7c-1.6-0.3-3-0.7-4.5-1.4c-0.6-0.3-1.3-0.6-1.8-1
					c-0.7-0.5-1.1-1.3-1.6-2.1c-2-3-3.2-6.3-4.1-10c-0.5-2.2-0.4-4.4-0.7-6.6C15.5,47,15.2,45,15,42.9c-0.5-4.6-0.4-9.2-0.4-13.8
					c0-0.5-0.6-0.4-0.6,0c-0.1,4.4-0.2,8.8,0.2,13.1c0.1,0.9,0.2,1.9,0.3,2.8c0.2,1.1,0.1,2.2,0.3,3.3c0.3,2,0.2,4.1,0.5,6.2
					c0.5,3.7,1.8,7.7,3.6,10.7c0.8,1.3,1.6,2.7,2.7,3.6c1.2,0.9,2.7,1.6,4,2c1.6,0.5,3.2,0.7,4.8,1.1c1.6,0.4,3.3,0.1,4.9,0.1
					c1.8,0,3.7,0,5.5,0c1.4,0,2.7,0,4.1-0.4c1.2-0.3,2.4-0.9,3.4-1.7c1.1-0.9,1.9-2.3,2.6-3.7c1.6-3.1,2.4-6.7,2.9-10.3
					c0.3-2.2,0.2-4.4,0.5-6.5c0.2-2.1,0.3-4.2,0.3-6.3C54.7,42,54.4,41,54.3,40z"/>
				<path class="st0" d="M54.3,40c0-2.8,0-8.6-0.1-11.3c0.1-0.7-0.7-0.7-0.6,0c0.1,5-0.1,9.9,0.5,14.8c-0.2,6.9-0.1,14.3-2.7,20.8
					c-3.4,9.2-10.4,6.8-18.2,7c-2.4,0-4.6-0.7-6.9-1.2c-2.2-0.7-4.7-1.6-5.8-3.7c-2.6-3.9-4.2-8.4-4.8-13.1
					c-0.2-4.7-1.1-9.2-1.3-13.9c-0.2-3.3-0.2-7-0.3-10.3c0,0,0.1,0.1,0.1,0c0,0,0,0,0,0l0,0.9c0,5.2-0.1,10.4,0.7,15.6
					c0,0,0.1,1.7,0.1,1.7c0.4,4,0.4,8.1,1.8,11.9c1,3.1,2.5,6.5,4.9,8.8c1.8,1.4,3.9,2.2,6.1,2.6c0,0,3.4,0.7,3.4,0.7
					c1.1,0.1,2.2,0.1,3.4,0c5.4-0.2,12.5,1.4,15.5-4.3c3-4.9,3.8-11,4-16.7C54.6,46.9,54.8,43.5,54.3,40L54.3,40z M54.4,40
					c0.8,4.6,0,9.3-0.2,13.9c-0.3,4.6-1.2,9.4-3.5,13.5c-0.6,1-1.3,2.1-2.2,2.8c-1.9,1.5-4.4,2.1-6.8,2.1c-1.7,0-5.2,0.1-7,0.1
					c-1.1,0-2.3,0.1-3.6,0l-3.5-0.7c-3.5-0.6-7.2-2.4-8.8-5.7c-3.7-5.6-4.3-12.1-4.7-18.6c0,0-0.1-1.7-0.1-1.7
					c-0.8-5.2-0.6-10.5-0.5-15.7c0.1-0.4-0.2-1.3,0.4-1.6c0.5-0.2,1,0.2,0.9,0.7c0,0.9,0,2.4,0,3.3c-0.3,7,0.8,13.9,1.2,20.9
					c0.5,4.6,2.1,9.1,4.7,12.9c1.1,2.1,3.5,2.9,5.7,3.5c4.6,1.4,9.1,1,13.8,1c2.3,0,4.6-0.2,6.5-1.3c5.2-3.8,5.9-12.9,6.3-18.9
					c0.2-2,0.3-4.9,0.4-6.9c-0.5-4.9-0.1-9.9-0.1-14.8c-0.1-1,1.1-1.1,1,0C54.4,31.3,54.4,37.2,54.4,40L54.4,40z"/>
			</g>
		</g>
	</g>
	<g>
		<g>
			<g>
				<path class="st0" d="M54,28.4c-0.1-0.4-0.3-0.5-0.7-0.7c-0.5-0.3-1-0.7-1.5-0.9c-1.1-0.5-2.6-0.6-3.9-0.6c-1.5,0-2.9,0-4.4-0.1
					c-0.9,0-1.7-0.3-2.5-0.4c-0.6-0.1-1.3,0-1.9,0c-3.2,0-6.5-0.1-9.7,0.1c-1.7,0.1-3.3,0.4-5,0.3c-1.8,0-3.5-0.1-5.2,0.4
					c-1.5,0.4-3.1,0.5-4.5,1.1c-0.3,0.1-0.7,0.4-0.8,0.7c-0.1,0.4,0.4,0.6,0.7,0.8c0.1,0.1,0.3,0.1,0.4,0c0.2,0.2,0.4,0.3,0.6,0.4
					c1.2,0.6,2.4,0.8,3.7,0.9c1.6,0.1,3.1,0.1,4.7,0.2c1.6,0,3.1,0.2,4.7,0.3c3.1,0.2,6.3,0.3,9.4,0.3c3.3,0,6.5-0.3,9.8-0.8
					c1.5-0.2,2.9-0.6,4.4-0.9C53,29.6,54.2,29.5,54,28.4z M51.7,29.1c-1.4,0.3-2.8,0.7-4.3,0.9c-5.3,0.8-10.5,0.8-15.8,0.6
					c-2.9-0.1-5.8-0.4-8.7-0.6c-1.4-0.1-2.9,0-4.3-0.1c-0.8-0.1-1.5-0.3-2.3-0.5c-0.7-0.2-1.2-0.4-1.1-1.2c0.2-0.1,0.4-0.1,0.5-0.1
					c0.6-0.2,1.2-0.2,1.8-0.4c1.4-0.3,2.6-0.8,4.1-0.8c1.3-0.1,2.7,0,4,0c1.3,0,2.6-0.3,3.9-0.3c2.6-0.1,5.2-0.1,7.8-0.1
					c1.2,0,2.6-0.2,3.8,0c0.6,0.1,1.3,0.3,1.9,0.4c0.6,0.1,1.2,0,1.8,0c1.2,0,2.4,0,3.5,0.1c1.2,0,2.8,0.3,3.9,0.9
					c0.1,0,0.8,0.5,0.9,0.6C53.5,28.9,51.9,29,51.7,29.1z"/>
				<g>
					<path class="st0" d="M54,28.4c0-0.5-0.6-0.6-0.9-0.9c-3.5-2.4-8-0.4-11.8-1.4c-5.3,0-10.7-0.2-16,0.2c-1.8,0-3.6-0.2-5.3,0.2
						c-0.7,0.3-7.3,1.2-5.3,2.4c0.3,0.2,0.2,0.1,0.2,0.1c0.1,0,0.3-0.1,0.4,0c2.8,1.8,6.4,0.9,9.6,1.3c8.3,0.4,16.7,1.1,25-0.2
						c0.8-0.2,1.6-0.4,2.5-0.5C53,29.5,54.2,29.4,54,28.4L54,28.4z M54.1,28.4c0.2,1.1-1,1.3-1.8,1.4c-0.8,0.2-1.6,0.4-2.4,0.6
						c-4.9,1.2-10,1.7-15,1.4c-3-0.1-7.1-0.2-10-0.5c-3.3-0.4-7.2,0.4-10-1.8c0,0,0.4,0,0.4,0c-0.2,0.2-0.7,0.2-0.8,0
						c0,0-0.1-0.1-0.1-0.1c-2.1-1.7,1.8-2.4,3-2.6c2.6-0.7,5.3-1,8-0.9c4.5-0.5,8.9-0.8,13.4-0.7c0.9,0,1.8-0.1,2.7,0.1
						c0.9,0.2,1.7,0.5,2.6,0.4c3.3,0.3,7-0.2,9.7,2C53.9,28,54.1,28.2,54.1,28.4L54.1,28.4z"/>
					<path class="st0" d="M51.7,29.1c-2.7,0.6-6.5,1.4-9.2,1.7C36.3,31.6,30,31,23.8,30.3c-2.7-0.3-5.6,0.2-8.1-0.9
						c-0.4-0.1-0.7-0.8-0.6-1.2c0-0.1,0.1-0.2,0.2-0.2c0.8-0.3,1.7-0.4,2.5-0.6c2.4-0.8,5.1-1.1,7.5-0.9c3.2-0.3,6.7-0.6,10-0.5
						c1.5,0,3.5-0.1,5.1-0.1c0.9,0,1.8,0.3,2.5,0.5c1.3,0.1,3.6,0.1,5,0.3c1.7,0.1,3.5,0.4,4.9,1.3C54.2,28.7,52.5,29,51.7,29.1
						L51.7,29.1z M51.7,29.1c0.4-0.1,0.8-0.1,1.2-0.3c0.2-0.1,0.4-0.2,0.2-0.3c-0.8-0.6-1.8-1-2.8-1.2c-1.4-0.3-3.5-0.1-5-0.1
						c-0.8,0-1.6,0.2-2.6,0c-0.9-0.1-1.6-0.3-2.4-0.3c-3.3,0.1-6.8,0.2-10,0.2c-1.6,0-3.3,0.3-5,0.3c-1.7,0-3.4-0.2-4.9,0.1
						c-1.2,0.2-2.5,0.6-3.7,0.7c-0.4,0.1-0.8,0.2-1.2,0.3c0,0,0.2-0.2,0.2-0.2c-0.1,0.4,0,0.6,0.3,0.7c2.5,1.2,5.3,0.7,8,0.9
						c3.1,0.2,6.2,0.4,9.3,0.4C39.4,30.3,45.6,30.5,51.7,29.1L51.7,29.1z"/>
				</g>
			</g>
		</g>
	</g>
	<g>
		<g>
			<g>
				<path class="st0" d="M69.8,43.9c-0.4-2.5-0.9-5.8-3.8-7.1c-1.5-0.7-3.5-0.7-5.2-0.7c-2,0-4,0.2-5.9,0.4c-0.3,0-0.3,0.5,0,0.4
					c3-0.2,6.2-0.5,9.2-0.1c1.7,0.3,3,1.1,3.8,2.4c0.7,1.2,0.9,2.7,1.1,4c0.5,2.9,0,5.8-0.5,8.6c-0.5,2.6-1.8,5.3-5,6
					c-1.8,0.4-3.5,0.7-5.4,0.8c-0.8,0-1.7,0-2.5,0c-0.4,0-0.8,0-1.2,0c-0.3,0-0.6-0.1-0.9-0.1c-0.4,0-0.4,0.6,0,0.6
					c0.7,0,1.3,0.2,2,0.1c0.9,0,1.9,0,2.8,0c1.7-0.1,3.4-0.4,5.1-0.8c3-0.6,4.7-2.8,5.5-5.4c0.4-1.5,0.6-3.2,0.8-4.7
					C70,47,70,45.5,69.8,43.9z"/>
				<path class="st0" d="M69.8,43.9c-0.4-4.3-2.2-7.6-7-7.4c-2.5,0-5.1,0.2-7.6,0.5c0,0-0.2,0-0.2,0c0.2,0,0.2-0.3,0-0.4
					c-0.2,0,0,0,0.1,0c0,0,2.9-0.2,2.9-0.2c2.9,0,6.2-0.4,8.7,1.4c1.7,1.3,2.1,3.4,2.4,5.3c0.6,2.9,0.2,5.9-0.3,8.8
					c-0.8,5-3.7,6.6-8.5,7.2c-1.4,0.3-3,0.3-4.5,0.3c-0.7,0.1-1.7,0-2.4-0.1c0.3,0,0.3-0.4,0.1-0.5c0,0,0.4,0,0.4,0
					c3.1,0.3,6.2,0,9.3-0.6c1.8-0.3,3.5-1.4,4.5-3c1-1.6,1.4-3.6,1.7-5.5C69.8,47.8,70,45.9,69.8,43.9L69.8,43.9z M69.9,43.9
					c0.3,1.9,0.1,3.9-0.1,5.9c-0.2,1.9-0.4,4-1.4,5.8c-2.4,4.6-9.1,4.5-13.7,4.4c0,0-0.7-0.1-0.7-0.1c-0.4,0-0.9-0.1-1.1-0.5
					c-0.2-0.4,0.1-1.2,0.7-1.1c0.2,0,0.8,0.1,1,0.1c1.8,0,3.9,0.1,5.7-0.2c1.8-0.3,3.9-0.4,5.4-1.6c1.5-1.1,2.3-2.9,2.7-4.8
					c0.9-3.8,1.2-7.8-0.1-11.5c-1.5-4.1-6.6-3.3-10.1-3.2c0,0-2.9,0.2-2.9,0.2s-0.2,0-0.2,0c0,0-0.3,0-0.4-0.1
					c-0.4-0.2-0.4-0.7-0.2-1c0.2-0.2,0.4-0.2,0.6-0.3c0.6-0.1,1.2-0.1,1.8-0.2C64,35.5,69.1,35.4,69.9,43.9L69.9,43.9z"/>
			</g>
		</g>
	</g>
	<g>
		<g>
			<g>
				<path class="st0" d="M65.3,44.6c-0.2-1.7-0.7-3.5-2.5-4.4c-1-0.5-2.3-0.6-3.4-0.5c-1.6,0-3.3,0-4.9,0.1c-0.2,0-0.3,0.3,0,0.3
					c1.5,0.1,2.9,0.1,4.4,0.1c1.2,0,2.7,0,3.8,0.5c2.5,1.4,2.1,4.5,2.1,6.7c0,2.3,0.6,5.9-2.5,6.9c-2.7,0.9-5.3,1.4-8.2,1.4
					c-0.4,0-0.4,0.6,0,0.6c1.3,0,2.6-0.1,3.8-0.3c1.1-0.2,2.4-0.4,3.5-0.8c0.9-0.3,2-0.6,2.6-1.3c0.7-0.7,1-1.8,1.2-2.7
					c0.2-1,0.1-2.1,0.1-3.2C65.4,47,65.4,45.8,65.3,44.6z"/>
				<path class="st0" d="M65.3,44.6c-0.2-3.2-2.3-5-5.5-4.7c-0.8,0-4.5,0.2-5.2,0.2c0,0-0.1,0-0.1,0c0.1,0,0.2-0.1,0.2-0.3
					c0-0.1-0.1-0.2-0.2-0.2c0,0,0.2,0,0.2,0c6.2,0.4,10.7-1,10.3,7.3c0,2.6,0.8,6.7-2.5,7.8c-2.7,1-5.5,1.6-8.3,1.6
					c0,0,0.1,0,0.2-0.1c0.1-0.1,0-0.3-0.2-0.3c0,0,0.1,0,0.1,0c3,0,6.3-0.6,9-1.7c1.8-1.1,2-3.4,2-5.4C65.3,47.4,65.4,46,65.3,44.6
					L65.3,44.6z M65.4,44.6c0,2.8,0.6,5.8-0.3,8.5c-0.4,1.5-2.1,2.2-3.4,2.7c-2.4,0.9-4.9,1.2-7.4,1.2c-0.1,0-0.3,0-0.4-0.1
					c-0.8-0.3-0.7-1.5,0.1-1.6c2.8,0,5.6-0.5,8.2-1.3c2.9-1,2.3-4.6,2.4-7c0-1.4,0.1-2.8-0.4-4.1c-1.1-3-4.6-2.2-7.2-2.2
					c-0.8,0-1.7,0-2.5-0.1c-0.5,0-0.8-0.5-0.5-0.9c0.1-0.2,0.3-0.3,0.5-0.3c1.8-0.2,3.6-0.1,5.4,0C63.1,39.3,65.2,41.3,65.4,44.6
					L65.4,44.6z"/>
			</g>
		</g>
	</g>
	<g>
		<g>
			<g>
				<path class="st0" d="M56.3,36.5c-0.7,0-1.5,0.1-2.3,0.2c-0.2,0-0.2,0.4,0,0.4c0.8,0,1.5,0,2.3-0.1C56.6,37,56.6,36.5,56.3,36.5z
					"/>
				<path class="st0" d="M56.3,36.6c-0.5,0-0.9,0.6-1.4,0.5c-0.2,0-0.5-0.2-0.8-0.2c-0.1,0-0.1,0-0.1,0c0,0,0,0,0-0.1
					c0,0,0.1,0,0.1,0c0.7-0.3,1.5-0.5,2.2-0.1c0,0.1,0.1,0.2,0.1,0.1C56.4,36.7,56.4,36.6,56.3,36.6L56.3,36.6z M56.3,36.5
					c0.4,0,0.6,0.7,0.1,0.9c-0.8,0.4-1.5,0.2-2.4,0c-0.5-0.1-0.4-0.8,0-0.8c0.2,0,0.5-0.2,0.7-0.3C55.3,36,55.8,36.5,56.3,36.5
					L56.3,36.5z"/>
			</g>
		</g>
	</g>
	<g>
		<g>
			<g>
				<path class="st0" d="M16.3,34.3c0.1-0.1,0.1-0.2,0-0.2L16.2,34c-0.1-0.2-0.4-0.1-0.4,0.1c-0.3,2.2,0.1,4.6,0.3,6.8
					c0,0.4,0.7,0.4,0.7,0C16.5,38.6,16.3,36.5,16.3,34.3z"/>
				<path class="st0" d="M16.2,34.3c0-0.1,0-0.1,0-0.2c0,0-0.1-0.2-0.1-0.1c0,0-0.1,0.1,0,0c0,0.3,0,0.6,0,0.9
					c0.2,1.9-0.3,3.8,0.3,5.7c0.2,0.2-0.1,0.3-0.1-0.6C15.9,38.2,15.8,36.3,16.2,34.3L16.2,34.3z M16.3,34.4
					c0.6,2.1,0.8,4.2,0.9,6.4c0.1,0.8-1.1,1.1-1.3,0.3c0-0.1,0-0.2,0-0.3c0.1-1.3-0.2-2.5-0.5-3.8c-0.1-0.6-0.2-4,1-3.1
					C16.4,34,16.5,34.2,16.3,34.4L16.3,34.4z"/>
			</g>
		</g>
	</g>
	<g>
		<g>
			<g>
				<path class="st0" d="M19,41.9c-0.5-1-0.8-2.1-0.9-3.2c0-0.3-0.4-0.3-0.5,0c-0.1,1.2,0.3,2.4,0.8,3.5
					C18.6,42.6,19.2,42.4,19,41.9z"/>
				<path class="st0" d="M19,42c-0.3-0.6-1.1-1.2-1.1-2c0-0.4,0.1-0.8,0.1-1.1c0-0.2,0-0.2-0.1-0.1c0,0,0,0,0,0.1
					c0.2,1.2,0.7,2.1,0.8,3.3C18.6,42.4,19.1,42.3,19,42L19,42z M19.1,41.9c0.3,0.6-0.6,0.9-0.9,0.4c-0.9-0.9-1-2.4-0.7-3.6
					c0-0.3,0.5-0.5,0.7-0.3c0.1,0.1,0.1,0.3,0.1,0.3c0.1,0.4,0.3,0.7,0.4,1C19.1,40.4,18.8,41.3,19.1,41.9L19.1,41.9z"/>
			</g>
		</g>
	</g>
	<g>
		<g>
			<g>
				<path class="st0" d="M50.2,56.4c0-0.3-0.4-0.2-0.4,0c0.1,1.4,0.1,2.7-0.1,4.1c-0.2,1.2-0.7,2.4-1.2,3.6
					c-0.1,0.3,0.4,0.6,0.5,0.3c0.5-1.2,1-2.4,1.2-3.7C50.4,59.2,50.3,57.8,50.2,56.4z"/>
				<path class="st0" d="M50.1,56.4c0-0.2-0.3-0.2-0.3-0.1c0,0.1,0,0.3,0.1,0.5c0.2,1.1,0.5,2.3,0.2,3.3c-0.3,1.4-1.2,2.6-1.4,4
					c0.1,0,0-0.1-0.1,0c0,0,0-0.1,0-0.2C49.5,61.6,50.1,59,50.1,56.4L50.1,56.4z M50.2,56.4c0.2,1.5,0.7,2.9,0.4,4.5
					c-0.2,1.4-0.7,2.6-1.4,3.7c-0.4,0.5-1.3-0.1-1-0.6c0.7-1.2,1.1-2.5,1-3.9c0-1.3,0.3-2.5,0.4-3.8C49.8,56.1,50.2,56.2,50.2,56.4
					L50.2,56.4z"/>
			</g>
		</g>
	</g>
	<g>
		<g>
			<g>
				<path class="st0" d="M47.5,61.8c0,1.1-0.3,2-0.7,3c-0.1,0.3,0.4,0.4,0.5,0.1c0.3-1.1,0.6-2,0.6-3.2
					C47.9,61.5,47.5,61.6,47.5,61.8z"/>
				<path class="st0" d="M47.5,61.8c0,0.3,0.1,0.7,0.2,1c0.2,0.8-0.4,1.3-0.7,1.9C46.9,65,46.9,65,47,65c0.1,0,0.1-0.1,0.1-0.1
					c0.1-1.1,0.2-2.1,0.7-3c0-0.1,0.1,0,0.1-0.1C47.7,61.7,47.5,61.7,47.5,61.8L47.5,61.8z M47.4,61.8c0-0.4,0.7-0.4,0.7,0
					c0.5,1.1,0,2.3-0.6,3.2c-0.1,0.1-0.2,0.3-0.3,0.3c-0.5,0.1-0.7-0.3-0.5-0.7c0.1-0.3,0-0.7,0.1-1C46.7,63,47.4,62.5,47.4,61.8
					L47.4,61.8z"/>
			</g>
		</g>
	</g>
	<g>
		<g>
			<g>
				<path class="st0" d="M48.9,29.7c-2.1-1.2-4.8-1.3-7.1-1.3c-1.5,0-3,0.2-4.4,0.2c-1.4,0-2.9,0-4.3,0c-2.8,0-5.6-0.1-8.4,0.1
					c-1.3,0.1-2.7,0.1-4,0.3c-0.5,0.1-1.8,0.1-2,0.8c0,0.1,0,0.2,0.1,0.2c0,0,0,0,0.1,0c0.2,0.1,0.4-0.2,0.2-0.4
					c0.5,0.3,1.4,0,2-0.1c0.5-0.1,1.1-0.1,1.6-0.1c1.1,0,2.3-0.1,3.4-0.2c2.6,0,5.1-0.1,7.7-0.1c2.5,0,5.1-0.1,7.6-0.1
					c2.1,0,4.6,0,6.6,0.9c-0.1,0.2,0,0.5,0.3,0.5c0.3,0,0.5,0,0.7-0.2C49.1,30.2,49.1,29.9,48.9,29.7z"/>
				<path class="st0" d="M48.8,29.8c-2.3-1.3-5.1-1.1-7.7-1c-2.6,0.3-5.3,0.3-7.9,0.2c-4.6-0.2-9.3-0.5-13.8,0.4
					c-0.3,0.1-0.6,0.3-0.6,0.4c0,0,0,0,0,0c0,0,0.1,0,0.1,0c0,0,0,0,0,0c-0.1,0-0.1,0.1,0,0.1c0,0,0.3-0.5,0.3-0.5
					c0.1,0.1,0.4,0.1,0.7,0c4.5-0.9,9.1-0.6,13.6-0.7c4.8,0.1,9.9-0.7,14.4,1.2c0,0,0.1,0.1,0,0.1c-0.1,0.1,0,0.3,0.1,0.4
					C48.4,30.6,49.4,30.2,48.8,29.8L48.8,29.8z M48.9,29.7c0.9,0.8-1.4,1.5-1.1,0.3c0,0,0,0.1,0,0.1c-2.3-0.9-4.7-0.7-7.1-0.5
					c-4.8,0.3-9.7,0.3-14.5,0.2c0,0-3.6,0.1-3.6,0.1c-0.9,0-1.8,0-2.7,0.2c-0.3,0.1-1.4,0-1.2-0.6c0.5-0.5,0.9,0.7,0.2,0.8
					c-0.3,0.1-0.7-0.3-0.6-0.6c0.2-0.8,1.3-0.8,1.9-0.9c1.6-0.2,3.3-0.2,5-0.4c4-0.2,7.9-0.4,11.9-0.3C41,28.2,45.3,27.8,48.9,29.7
					L48.9,29.7z"/>
			</g>
		</g>
	</g>
	<g>
		<g>
			<g>
				<path class="st0" d="M41.2,30c-0.5-0.2-1.2,0-1.7,0c-1,0.2-1.9,0.2-2.9,0.3c-2,0.3-3.8,0.6-5.8,0.6c-2,0-3.9-0.3-5.9-0.3
					c0,0,0,0,0,0c0.5,0,0.9,0,1.4,0c0.5,0,1,0,1.4,0c0.4,0,0.4-0.7,0-0.7c0-0.1-0.1-0.1-0.2-0.1c-1.3-0.3-2.8-0.4-4.2-0.2
					c-0.1,0-0.2,0-0.3,0c-0.2-0.1-0.5-0.1-0.7-0.1c-0.2,0-0.4,0-0.6-0.1c-0.1,0-0.2,0-0.3,0.1c-0.3,0-0.6,0-1,0
					c0-0.2-0.1-0.3-0.3-0.3c-0.3,0-0.5,0-0.7,0.1c0,0,0,0,0,0c-0.1,0-0.2,0-0.2,0.1c-0.4,0-0.8,0.1-0.9,0.5
					c-0.1,0.5,0.3,0.7,0.7,0.8c0,0,0.1,0,0.2,0.1c1.8,0.1,3.5,0.6,5.3,0.7c1.9,0.1,3.9,0.4,5.8,0.4c1.8,0,3.6-0.1,5.5-0.4
					c0.9-0.2,1.8-0.2,2.7-0.3c0.5,0,0.9-0.2,1.4-0.2c0.1,0,0.5-0.1,0.8-0.1c0.1,0.2,0.5,0.2,0.6,0c0,0,0.1-0.1,0.1-0.1
					C41.4,30.4,41.3,30.1,41.2,30z"/>
				<path class="st0" d="M41.2,30.1c-0.6-0.3-1.3,0-2,0.1l-2,0.3c-1.3,0.2-2.7,0.5-4,0.7c-2.7,0.4-5.5,0-8.2-0.3
					c-0.4,0-0.4-0.6,0-0.6c0.6,0,2.3,0,2.9,0c0.1,0,0.1-0.3,0-0.3c0,0-0.1,0-0.1,0c0-0.1-0.3-0.1-0.4-0.2c0,0-0.5-0.1-0.5-0.1
					c-1.1-0.2-2.2-0.2-3.3,0c0,0-0.3,0-0.3,0l0,0c-0.2-0.1-0.4-0.1-0.7,0c-0.1,0-0.5-0.1-0.6,0c-0.1,0-0.1,0.1-0.2,0.1c0,0-1,0-1,0
					l-0.3-0.4c0,0.1,0,0.1,0,0.1c-0.1,0-0.3,0-0.4,0c-0.2,0-0.4,0.2-0.6,0.2c-0.3,0-0.7,0.2-0.5,0.4c0.1,0.1,0.4,0.1,0.5,0.2
					c0,0,0,0,0,0c0,0,0.2,0,0.2,0c0.6,0,1.8,0.2,2.4,0.3c6.3,0.9,12.6,0.8,18.9,0.1C41,31,41.6,30.4,41.2,30.1L41.2,30.1z M41.2,30
					c0.6,0.4-0.2,1.2-0.7,0.7c-3.3,0.6-7.2,1.6-10.8,1.5c-1.9,0-3.7-0.3-5.4-0.4c-1.8-0.1-3.5-0.6-5.2-0.8c-0.1,0-0.2-0.1-0.3-0.1
					c0,0,0.1,0.1,0.1,0.1c-0.2-0.1-0.5-0.1-0.7-0.3c-0.9-0.8,0.1-1.9,1-1.7c0,0-0.2,0-0.2,0s0.3-0.1,0.3-0.1s-0.1,0-0.1,0
					c0.2-0.1,0.3-0.1,0.4-0.1c0.3,0,0.6,0,0.8,0.1c0.2,0.1,0.4,0.3,0.3,0.6l-0.3-0.4l1,0l-0.2,0c0.3-0.2,0.7-0.1,1,0
					c0.1,0,0.5,0,0.7,0.1c0,0,0,0,0,0c0,0,0.4,0,0.2,0c1.3-0.2,2.6,0,3.9,0.2c0.2,0,0.5,0,0.6,0.3c0,0-0.1-0.1-0.1-0.1
					c0.5,0,0.7,0.9,0.1,1c-0.6,0-2.3,0.2-3,0.2c0,0,0-0.6,0-0.6c1.4,0,2.8,0.1,4.1,0.2c3.4,0.2,6.8-0.2,10.2-0.4
					C39.8,30,40.5,29.7,41.2,30L41.2,30z"/>
			</g>
		</g>
	</g>
	<g>
		<g>
			<g>
				<path class="st0" d="M50.3,29.5c-1.5-0.3-2.9-1-4.4-1c-0.6-0.1-1.1-0.1-1.7-0.2c-0.8-0.1-1.6-0.2-2.5-0.2c0,0,0,0,0,0
					c-1-0.2-2.1-0.2-3.2-0.2c-0.8,0-1.6-0.1-2.5,0.1c-0.2,0-0.5,0-0.8,0c-0.8-0.1-1.5-0.1-2.3-0.1c-1.4,0-2.8-0.1-4.2,0
					c-1.3,0.1-2.7,0.4-4,0.5c-1.2,0.1-2.3,0.3-3.5,0.5c0,0-0.1,0-0.1,0c-1.1,0-2.5,0.1-3.6,0.5c-0.4,0.1-0.3,0.7,0.1,0.7
					c1.1,0,2.2-0.2,3.3-0.4c0.2,0,0.5,0,0.7,0c0.3,0,0.7-0.1,1-0.2c0.4,0,1,0.1,1.4,0.2c0,0,0,0,0,0c0,0,0,0,0,0
					c-0.1,0.2-0.1,0.4,0,0.5c0,0.2,0.1,0.5,0.4,0.5c0.9,0.1,1.9,0.1,2.8,0.1c0,0.1,0,0.2,0.1,0.2c3.1,1.2,6.9,0.8,10.2,0.7
					c1.7-0.1,3.4-0.2,5.1-0.5c0.8-0.1,1.6-0.2,2.4-0.4c0.4-0.1,1-0.1,1.4-0.2c0,0,0,0,0,0c0.2,0,0.4,0,0.6,0.1
					c0.4,0,0.4-0.5,0.2-0.7c-0.2-0.1-0.4-0.2-0.7-0.3c0.3,0.1,0.6,0.1,0.8,0.2c0.3,0.1,0.7,0.2,1,0.3c0.2,0.1,0.4-0.1,0.4-0.2
					c0.4,0.1,0.8,0.2,1.2,0.3C50.5,30.3,50.7,29.6,50.3,29.5z M32.3,28.6c0.5,0,1,0,1.4,0c0,0.1,0.1,0.3,0.3,0.3
					c0.1,0,0.2,0,0.3,0.1c-0.6,0-1.1,0-1.7,0.1c-0.8,0-1.6,0-2.3,0.1c-1,0-2,0-3.1,0.1c-0.7,0-1.3-0.1-2-0.1c1-0.1,2.1-0.3,3.1-0.4
					C29.6,28.5,30.9,28.6,32.3,28.6z M32.7,31.2c-1.5,0-3.1-0.1-4.6-0.4c0.6,0,1.2,0,1.7-0.1c0.6,0.1,1.3,0.1,1.8,0.1
					c1.1,0,2.3-0.1,3.4-0.2c0,0,0.1,0,0.1,0c0,0.1,0,0.1,0.1,0.2C35.6,31,36,31,36.4,31c0.1,0,0.3,0,0.4,0
					C35.4,31.2,34.1,31.2,32.7,31.2z M42.6,30.5c-0.4,0.1-0.8,0.1-1.2,0.2c0.1-0.1,0.1-0.2,0.1-0.3c0.4,0,0.9,0,1.3,0
					c0.1,0,0.2-0.1,0.3-0.1c0,0,0,0,0.1,0c0.3,0,0.6,0.1,0.8,0.1C43.5,30.4,43,30.4,42.6,30.5z"/>
				<g>
					<path class="st0" d="M50.3,29.5c-2.8-1-5.7-1.1-8.6-1.1c-1.8-0.1-3.8-0.2-5.6,0c-1.4,0-2.8-0.1-4.3-0.1
						c-3.5-0.2-6.9,0.4-10.4,0.9c-1.2,0-2.6,0-3.7,0.6c0,0.1,0,0.2,0.2,0.2c1.1-0.1,2.1-0.3,3.2-0.5c0,0,0,0,0.1,0c0,0,0.8,0,0.8,0
						c0.4-0.1,1.2-0.3,1.6-0.1c0,0,0.8,0.1,0.8,0.1l0.3,0.3c0-0.1-0.2-0.2-0.3-0.2C24,29.5,24,30,24.3,29.9c0,0,0.2,0,0.2,0
						c0,0-0.1,0.1-0.1,0.1s0,0,0,0c-0.1-0.3,0.1,0.4,0.1,0.3c0-0.1,0,0,0,0c0,0,0,0,0,0c0,0,0.2,0,0.2,0c0.5,0,2,0,2.6,0.1
						c0,0,0.5,0.5,0.5,0.5c0,0,0-0.1-0.1-0.2c0-0.1-0.2-0.1-0.1-0.1c4.5,1.3,9.4,0.5,14,0.3c1.1-0.1,2.5-0.3,3.6-0.4
						c0.4,0,0.9,0,1.2-0.1c0,0,0.1,0,0.1,0l0.6,0.1c0.1,0,0.1,0,0.1,0c0,0,0,0,0.1-0.1c0-0.1,0-0.1,0-0.1c0,0,0,0,0,0
						c0,0-0.1-0.1-0.1-0.1l-0.5-0.2c-0.1,0-0.1-0.1-0.1-0.2c0-0.1,0.1-0.1,0.2-0.1c0.6,0.1,1.2,0.3,1.8,0.5c0.2,0.1,0.3,0,0.4-0.1
						c0,0,0.1-0.1,0.1-0.1l1.1,0.3C50.4,30.3,50.7,29.6,50.3,29.5L50.3,29.5z M50.3,29.4c0.5,0.1,0.3,1-0.2,0.8c0,0-1.1-0.3-1.1-0.3
						l0.1-0.1c-0.1,0.3-0.4,0.4-0.6,0.3c-0.6-0.1-1.2-0.3-1.8-0.3c0,0,0.1-0.3,0.1-0.3s0.5,0.2,0.5,0.2l0.1,0.1
						c0.5,0.3,0.3,1.2-0.3,1c0,0-0.6,0-0.6,0s0.1,0,0.1,0c-0.5,0.2-0.9,0.2-1.3,0.3c-2.7,0.6-5.7,1.1-8.5,1.1
						c-3,0.2-6.3,0.4-9.2-0.6c-0.4-0.1-0.8-0.3-0.8-0.8c0,0,0.5,0.5,0.5,0.5s-1.7-0.1-1.7-0.1c-0.1,0-1-0.1-1.1-0.1
						c-0.5-0.1-0.8-0.5-0.7-1c0,0,0.2,0.4,0.2,0.4c-0.4-0.2-0.4-0.8-0.1-1.1c0,0-0.1,0.1-0.1,0.1c0-0.1,0,0.3,0,0.3c0,0,0,0,0,0
						l0.3,0.3c-0.4-0.1-1.1-0.2-1.4-0.2C22.3,30,21.5,30,21,30c-0.8,0.1-2.2,0.3-3.2,0.3c-0.1,0-0.3,0-0.4-0.1
						c-1.3-1.5,3.1-1.5,3.9-1.5c4.3-0.7,9.5-1.7,13.9-1.3c2-0.1,4.4-0.1,6.4,0.3C44.6,28.1,47.5,28.5,50.3,29.4L50.3,29.4z"/>
					<path class="st0" d="M32.3,28.5c0.5,0.1,1.3-0.2,1.6,0c0,0,0,0.1,0,0.1c0.1,0.2,0.2,0.1,0.4,0.1c0.3,0,0.3,0.5,0,0.5
						c-0.7,0.2-1.4,0.3-2.1,0.3c-1.7,0-3.4-0.3-5.1,0c-0.7,0-1.3,0.1-2,0c-0.3,0-0.4-0.2-0.4-0.5c0-0.2,0.2-0.4,0.4-0.4l0.1,0
						l1.8-0.3C28.7,27.9,30.5,28.4,32.3,28.5L32.3,28.5z M32.3,28.6c-2.4,0.1-4.7,0.8-7.1,0.9c0,0,0-0.9,0-0.9
						c0.6,0.1,1.4,0.2,1.9,0.3c2.4,0.4,4.6-0.7,7.1-0.2c0,0-0.1,0.6-0.1,0.6c-0.2-0.1-0.6-0.3-0.6-0.6c0,0,0.2,0.1,0.2,0.1
						C33.2,28.7,32.8,28.6,32.3,28.6L32.3,28.6z"/>
					<path class="st0" d="M32.7,31.3c-1.6,0-3.2,0.6-4.8-0.1c-0.2-0.1-0.3-0.3-0.2-0.5c0.1-0.2,0.2-0.3,0.4-0.2
						c0.6,0.1,1.1,0.2,1.7,0.1c1.3,0.3,2.7-0.2,4.1-0.3c0.3,0,0.9-0.1,1.2-0.1c0.1,0,0,0,0,0l0,0.3c0,0.5,0.7,0.5,0.7,0
						c0-0.1,0-0.1,0,0c0.3,0.1,0.8,0.1,1.1,0.2c0.3,0,0.5,0.3,0.4,0.6c0,0.3-0.3,0.4-0.5,0.5C35.4,31.7,34.1,31.2,32.7,31.3
						L32.7,31.3z M32.7,31.2c1.4-0.1,2.7-0.6,4-0.6c0,0,0,1,0,1l-0.4,0c-0.4-0.1-0.7,0-1-0.3c-0.2-0.1-0.5-0.4-0.5-0.7
						c0,0,0.7,0.4,0.7,0.4c-0.2,0.1-0.4,0.1-0.5,0.1c-1.2,0-2.5-0.1-3.7-0.1c-0.5,0-0.9,0-1.4-0.1c0,0,0.1,0,0.1,0
						c-0.6,0.2-1.2,0.3-1.8,0.4c0,0,0.1-0.8,0.1-0.8C29.7,30.5,31.2,31.2,32.7,31.2L32.7,31.2z"/>
					<path class="st0" d="M42.6,30.5c-0.4,0-0.7,0.6-1.1,0.6c0,0-0.4-0.7-0.4-0.7c0.1,0.2,0.2-0.2,0.4-0.4c0.4,0.2,0.8,0.3,1.2,0.1
						c0.2-0.1,0-0.1,0-0.1c0.4-0.3,0.9-0.3,1.3-0.2c0.7,0,0.7,1,0,1.1C43.6,30.9,43,30.5,42.6,30.5L42.6,30.5z M42.6,30.4
						c0.4-0.1,0.8-0.7,1.3-0.7c0,0,0,1.1,0,1.1c-0.3,0-0.6-0.1-0.9-0.2l0.4-0.2c-0.2,0.3-0.6,0.3-0.7,0.2c-0.4-0.2-0.8-0.1-1.2,0.1
						c0,0,0.3-0.5,0.3-0.5c0.1,0.2,0.1,0.5,0,0.7l-0.4-0.7C41.7,30.1,42.2,30.5,42.6,30.4L42.6,30.4z"/>
				</g>
			</g>
		</g>
	</g>
	<g>
		<g>
			<g>
				<path class="st0" d="M47.7,29.7c-0.2-0.1-0.4-0.1-0.6-0.2c-0.4-0.1-0.9-0.3-1.3-0.4c-0.7-0.2-1.3-0.1-2-0.1
					c-0.5,0-0.4,0.7,0,0.7c0.5,0,1.1-0.1,1.6,0c-0.3,0.1-0.5,0.1-0.8,0.2c-0.1,0-0.3,0-0.4,0.1c0-0.1-0.2-0.3-0.3-0.2
					c-0.2,0-0.4,0.1-0.6,0.1c-0.8,0-1.7,0-2.5,0.2c-0.2,0-0.3,0.4-0.1,0.6c0,0,0,0,0,0c0,0.2,0.1,0.3,0.3,0.3c0.2,0,0.4,0,0.6,0
					c0.7,0,1.4-0.1,1.9-0.2c0.6-0.1,1.3-0.2,1.9-0.3c0.5-0.1,1.1-0.4,1.7-0.3c0.2,0.1,0.3,0.1,0.5,0.1
					C47.9,30.4,48.1,29.8,47.7,29.7z"/>
				<path class="st0" d="M47.7,29.7c-1.2-0.4-2.3-0.6-3.5-0.3c-0.1,0-0.3,0-0.3,0c0,0,0.1-0.1,0.1-0.1c0,0,0,0,0-0.1c0,0-0.2,0,0,0
					c0.5,0,1.1,0.1,1.6,0.2c0.3,0,0.3,0.4,0,0.5c-0.5,0-0.9,0.1-1.3,0.2c-0.2,0-0.1-0.2-0.2-0.2c-0.2,0-0.5,0.1-0.7,0.2
					c-0.8,0-1.6,0.2-2.3,0.4c0,0,0.1,0,0-0.2l0.2,0.3c0-0.1-0.2-0.1-0.1-0.1c0.1,0,0.5-0.1,0.6,0c1.8,0,3.7-0.6,5.5-0.4
					c0.2,0,0.5,0.3,0.6,0.2C47.9,30.1,47.9,29.8,47.7,29.7L47.7,29.7z M47.8,29.6c0.3,0.1,0.3,0.5,0,0.7c-0.2,0.2-0.6,0-0.8,0
					c-0.3,0-0.8,0.2-1.2,0.4c-1.3,0.5-3.1,0.8-4.2,0.7c-0.4,0-0.8,0.1-1.1-0.2c-0.2-0.1-0.3-0.3-0.3-0.5c0,0,0.2,0.3,0.2,0.3
					c-0.6-0.5-0.3-1.3,0.3-1.4c0.7-0.1,1.9,0,2.4,0.1c0.4-0.1,1-0.3,1.1,0.2c0,0-0.2-0.1-0.2-0.1c0.4-0.1,0.8-0.2,1.2-0.3l0,0.5
					c-0.5,0-1,0.1-1.5,0.1c-0.1,0-0.5,0-0.7-0.3c-0.4-0.5-0.1-1.2,0.5-1.3C45.3,28.3,46.4,29.2,47.8,29.6L47.8,29.6z"/>
			</g>
		</g>
	</g>
	<g>
		<g>
			<g>
				<path class="st0" d="M46.1,70.2c-0.6,1-1.3,1.5-2.4,1.9c-0.9,0.3-1.9,0.4-2.8,0.5c-2,0.2-4.1,0.4-6.1,0.3
					c-1.8-0.2-3.7-0.1-5.5-0.3c-1-0.1-2.3-0.2-3.1-0.9c-0.7-0.6-1.1-1.5-1.8-2.2c-0.1-0.2-0.4-0.1-0.5,0.1c0,0,0,0,0,0
					c-0.1,0.2,0,0.3,0.1,0.4c0.6,0.8,1,1.8,1.9,2.4c0.7,0.5,1.7,0.7,2.6,0.8c2.2,0.4,4.5,0.3,6.7,0.4c2.3,0.1,4.6-0.3,6.9-0.4
					c0.9,0,1.8-0.3,2.7-0.7c1-0.5,1.5-1,2-1.9C46.9,70.1,46.3,69.8,46.1,70.2z"/>
				<path class="st0" d="M46.1,70.2c-1,2-3.5,2.4-5.4,2.7c-4.1,0.8-8.3,0.3-12.5-0.3c-0.5-0.1-1-0.2-1.5-0.4c-1-0.4-1.6-1.4-2.2-2.3
					c-0.1-0.1-0.3-0.4-0.4-0.3c0,0-0.1,0.1-0.1,0.1c0,0,0,0,0,0c0,0,0.1,0,0.1,0.1c0.7,0.9,1.2,1.9,2.1,2.3c0.8,0.5,2,0.5,3,0.7
					c4.3,0.4,8.6,0.2,13,0c1.6-0.1,3.6-0.7,4.4-2.2C46.9,70.2,46.4,69.8,46.1,70.2L46.1,70.2z M46,70.1c0.3-0.5,1.1,0,0.7,0.5
					c-0.8,1.7-2.7,2.5-4.5,2.8c-4.3,0.7-8.8,0.8-13.2,0.2c-1.1-0.2-2.3-0.3-3.3-0.9c-1.1-0.7-1.5-1.8-2.1-2.7c0,0,0.1,0.1,0.1,0.1
					c-0.8-0.4,0.2-1.5,0.7-0.8c0.7,0.9,1.2,2.1,2.3,2.5c2.5,0.8,5.1,0.4,7.7,0.5c2,0.1,4.1,0,6.2-0.1C42.6,72.2,45,72.1,46,70.1
					L46,70.1z"/>
			</g>
		</g>
	</g>
	<g>
		<g>
			<g>
				<path class="st0" d="M31.2,17.9c-0.3-0.8-0.9-1.3-1.5-1.9c-0.9-1-1.2-2.2-1-3.5c0.1-0.6-0.8-0.6-0.9,0c-0.2,1.6,0.3,3,1.3,4.2
					c0.7,0.8,1.4,1.4,1.4,2.7c0,1.2-0.7,2.3-1.3,3.3c-0.3,0.5,0.5,1,0.8,0.5C30.9,21.5,31.9,19.7,31.2,17.9z"/>
				<path class="st0" d="M31.2,17.9c-0.4-1-1.4-1.5-2.1-2.4c-0.6-0.8-0.9-1.9-0.8-2.9c0,0,0-0.2,0-0.2c0,0,0,0,0,0
					c0.1,0.1,0-0.1-0.1,0c-0.1,0.1-0.1,0.3-0.1,0.5c-0.6,4.9,5.5,3.8,1.6,10c0,0,0-0.1,0-0.1c0,0,0,0-0.1,0c0,0.1,0.1-0.1,0.1-0.2
					C30.6,21.2,31.8,19.6,31.2,17.9L31.2,17.9z M31.3,17.9c0.7,1.9,0.2,4.1-1,5.7c-0.9,0.8-2.1-0.5-1.4-1.4c1-1.5,1.9-3.3,0.5-4.9
					c-1.1-1.2-1.8-2.8-1.9-4.5c-0.1-0.6,0.2-1.3,0.9-1.2c0.5,0,0.8,0.5,0.7,1c0,0.4,0,0.7,0,1.1C29.3,15.4,30.6,16.4,31.3,17.9
					L31.3,17.9z"/>
			</g>
		</g>
	</g>
	<g>
		<g>
			<g>
				<path class="st0" d="M35.4,14.2c-0.7-1.3-1.9-2-2-3.6c-0.1-1.8,0.2-3.7,0.6-5.5c0.1-0.6-0.8-0.8-0.9-0.2c-0.3,1.5-0.5,3-0.6,4.5
					c-0.1,1.2,0,2.4,0.7,3.4c0.8,1.1,1.6,1.9,1.9,3.3c0.3,1.4,0,2.9-0.7,4.1c-0.3,0.5,0.5,1,0.8,0.5C36.4,18.7,36.5,16.2,35.4,14.2z
					"/>
				<path class="st0" d="M35.3,14.2C35,13.5,34.5,13,34,12.4c-1.7-2-0.9-5.2-0.4-7.5c0-0.1-0.2-0.2-0.3-0.1
					c-0.4,1.4-0.7,2.9-0.7,4.3c0,0.7,0,1.5,0.2,2.1c0.3,1.3,1.8,2.1,2.4,3.7c0.7,1.5,0.6,3.2,0,4.7c-0.2,0.3-0.4,0.9-0.4,0.6
					c0,0,0,0,0,0C35.8,18.8,36.5,16.1,35.3,14.2L35.3,14.2z M35.4,14.1c1.1,2,1.4,4.6,0.2,6.7c-0.1,0.2-0.5,0.6-0.9,0.6
					c-0.7,0-1.2-0.9-0.8-1.5c0.8-1.3,1-3.1,0.4-4.5c-0.5-1.3-1.9-2.4-2.1-3.9c-0.2-1.5,0.1-3,0.2-4.5c0.1-0.7,0.2-1.5,0.3-2.2
					c0-0.3,0.4-0.6,0.7-0.5c0.5,0,0.9,0.5,0.8,1c0,0.2-0.1,0.6-0.1,0.8c-0.1,2.1-1.1,4.4,0,6.3C34.6,12.9,35.1,13.5,35.4,14.1
					L35.4,14.1z"/>
			</g>
		</g>
	</g>
	<g>
		<g>
			<g>
				<path class="st0" d="M40.7,18.2c-0.2-1.3-1.4-2.7-0.8-4c0.2-0.5-0.5-1-0.8-0.5c-0.5,1-0.3,1.9,0.1,2.9c0.6,1.6,0.6,2.9,0.3,4.6
					c-0.1,0.6,0.8,0.8,0.9,0.2C40.6,20.4,40.9,19.3,40.7,18.2z"/>
				<path class="st0" d="M40.6,18.2c-0.3-1.4-2-2.7-1.1-4.2c0.1,0,0-0.1,0-0.2c0,0,0-0.1-0.1,0c-0.7,1-0.3,2.1,0.3,3.1
					c0.7,1.3,0.7,2.9,0.4,4.4c0,0.1,0,0,0,0c0-0.1,0,0,0,0c0,0-0.1,0.1-0.1,0.1C40.2,20.4,40.8,19.3,40.6,18.2L40.6,18.2z
					 M40.7,18.2c0.2,1.2,0.3,2.3,0.1,3.5c-0.1,0.4-0.6,0.7-1,0.6c-0.6,0-1.1-0.7-0.9-1.2c0-0.2,0.1-0.6,0.2-0.8
					c0.5-1.9-0.3-3.6-0.5-5.5c0-0.6,0-1.8,0.9-1.7c0.7,0.1,0.9,0.8,0.6,1.4C40,15.7,40.5,17,40.7,18.2L40.7,18.2z"/>
			</g>
		</g>
	</g>
</g>
</svg>
