<?xml version="1.0" encoding="utf-8"?>
<!-- Generator: Adobe Illustrator 26.2.1, SVG Export Plug-In . SVG Version: 6.00 Build 0)  -->
<svg version="1.0" id="Layer_1" xmlns="http://www.w3.org/2000/svg" xmlns:xlink="http://www.w3.org/1999/xlink" x="0px" y="0px"
	 viewBox="0 0 256.1 121.5" style="enable-background:new 0 0 256.1 121.5;" xml:space="preserve">
<path d="M235.2,109.6c6.2-0.6,12.2,0.9,18.2-1.2c0.9,0.9,1.8,2,2.8,3c-0.1,0.2-0.1,0.6-0.3,0.8c-2.1,2.2-5,2.9-7.7,3.1
	c-9.2,0.6-18.4,0.7-27.6,1.1c-5.7,0.3-11.3-1.5-17.1-1.1c-5.8,0.4-11.7,0.3-17.5,0c-2.7-0.2-5,1-7.6,1.2c-2.4,0.1-4.7-0.3-7.2,0.8
	c-2.2,0.9-5,0.8-7.5,1c-5.7,0.5-11.3,2.8-17.1,2.2c-3.2,1.6-6.7,0.8-10.1,1c-2.4,0.1-4.7-0.3-7.1-1c-2.3-0.6-4.9,0.7-7.1-1
	c-0.5-0.4-1.6-0.1-2.5-0.1c-2.3,0-4.7-0.1-7,0c-12.7,0.7-25.4-1.5-38.1-1c-4.9,0.2-9.7,1.4-14.6,1c-3.2,1.9-6.7,0.8-10.1,1
	c-3.5,0.2-7,0.1-10.5,0c-1.6,0-3.2-0.6-4.5-1.2c-3.7-1.5-7.5-0.4-11.1-0.8c-1.8,1.5-4,0.8-6.1,1c-4.7,0.6-8.6-1.4-12.7-3.4
	c0-1.1,0-2.2,0-3.4c0.5-0.1,1.1-0.3,1.4-0.2c2,0.8,4,1.7,6.8,3c3.7,0.3,8.1-0.7,12.6-2.2c0-11.4,0.1-22.7,0-34
	c-0.1-8.7,1.8-17.3,1.1-26.1c-0.1-1.1,0-2.3,0-3.3c-0.5-0.2-1-0.4-1.1-0.3c-5.1,4.2-10.1,8.5-15.4,13c-1,0-2.3-0.1-4.3-0.2
	C12.1,55.7,17.2,49.6,23,44c5.6-5.4,11.5-10.5,17.5-15.6c5.9-5,11.2-10.5,16.7-15.6c4.7-1.7,9.4-1.3,14.1-1.4c1.4,0,2.7-0.7,4.1-0.9
	c1.4-0.3,2.9,0.6,4.2-0.9c0.3-0.3,1.3-0.1,1.9-0.1c1.2,0,2.3,0,3.5,0c12-0.3,24-0.7,36.1-1c5.3-1.8,10.8-0.2,16-1.2
	c4.4-0.8,8.8-0.2,13.1-1c3.6-0.7,7.2-0.2,10.6-1c3.3-0.8,6.5-0.2,9.6-0.9c5.4-1.2,10.7-0.7,16.1-1c2-0.1,4-0.8,5.9-1.2
	c4,3.8,7,8.1,10.2,12c2.5,3,5.2,5.8,8.6,7.9c4.4,2.7,8.4,6.1,12.9,8.8c4.6,2.7,9,5.6,13.5,8.4c0.8,0.5,2,0.8,2.3,1.4
	c2.4,5.2,8.1,6.4,12.1,10.8c0,0.1,0,1.2,0,2.6c-0.8,0.6-1.7,1.7-2.8,2.1c-1.6,0.6-3.4,1.1-5.1,1c-3.6-0.1-7.1,0.4-10.9,1.4
	c0,3,0,6.3,0,9.6c0,5-0.1,10,0,15c0.1,6.2,1.6,12.3,1,18.6C235.5,104.2,235.1,106.6,235.2,109.6z M125.7,60.8c3.7-1,7-1.7,10.3-2.7
	c3.1-1,6-0.7,9.1-0.2c1.7,0.3,3.5,0.3,5.3,0.6c1.7,0.3,3.5,1.1,5.1,0.9c2.4-0.4,4.7-1.2,7.1-0.9c1.6-2.2,4.6,0.3,6.2-2
	c2.5,0,5,0,7.5,0c5.5,0,11,0,16.5,0c1.1,0,2.3-0.1,3.3-0.4c5.1-1.3,10.1-2.8,15.4-2.7c5.8,0.1,11.6,0,17.3,0
	c0.8-0.8,1.3-1.3,2.1-2.1c3.3,0,6.7,0,10.6,0c-3.5-3.2-6.5-6.4-10-8.8c-5.6-4-11.6-7.4-17.4-11.1c-6.1-3.8-11.7-8.4-16.1-14
	c-2.7-3.4-5.8-6.1-8.3-9.2c-2,0.4-3.5,1-5,1.1c-4.3,0.1-8.9-0.8-12.9,0.3c-4.1,1.1-8.2,0.3-12.3,1.6c-3.4,1.1-7.3,0.4-11,1
	c-5.4,0.9-11,0.2-16.6,1c-7.6,1.1-15.3,0.1-23.1,1c-11.8,1.3-23.7-0.7-35.6,1.1c-3,0.5-6.1,0.2-8.9,1.5c0.3,0.4,0.6,0.8,1,1
	c5.6,3.4,11.4,6.4,16.8,10.4c5.2,3.9,10.4,7.9,15.5,11.9c4.1,3.2,8.3,6.2,12.8,8.9C115.7,52.3,121.5,55.2,125.7,60.8z M111.5,113.5
	c2.9,0,5.9-0.6,8.5,0.2c2.1,0.6,4.1,1,6.1,0.7c2.2-0.3,4,0.9,6.1,1.1c6.6,0.6,13-1,19.6-1.1c0.3,0,0.8,0,0.9-0.2
	c1.2-1.5,2.8-0.5,4.2-0.8c1.4-0.3,2.8-1.1,4.1-0.9c2.4,0.4,4.3-1.1,6.6-1.1c2.2,0,4.4-0.1,6.6-0.8c2.4-0.8,5.3-0.3,7.9-0.1
	c2.6,0.1,4.9-1.3,7.6-1.1c4.1,0.3,8.3,0.4,12.5,0c4.3-0.4,8.4,1.1,12.6,1.1c2,0,4.1-0.5,6.2,0.8c1.1,0.7,3,0.3,4.4,0.1
	c1.3-0.2,2.5-1,3.4-1.4c0.5-1.4,0.9-2.6,1.1-3c-0.3-2.3-0.7-3.8-0.7-5.4c0-13.2,0-26.3,0-39.5c0-1.3,0-2.5,0-4
	c-4,0.7-7.7-0.8-11.1,1.2c-1.7-1.4-3.9-1.6-5.5-0.7c-1.5,0.8-2.8,0.6-4.2,0.7c-3.2,0.4-6.6,0.1-9.5,1.2c-1.9,0.7-3.8,0.2-5.5,1.1
	c-3.1,1.6-6.5,0.3-9.7,0.7c-2.3-2-5.1-0.9-7.6-0.9c-2.5,0-5-0.3-7.7,0.7c-3,1.2-6.6,1-10,1.2c-2.8,0.2-5.8,0.6-8.4-0.1
	c-2.6-0.7-5.2-0.8-7.8-1.6c-2.1-0.7-4.7-0.4-7.2,0.3c-4.4,1.1-8.7,3.1-13.5,2.5c-3.2-3.9-7.5-6.5-12.4-9.3c0,1.4,0.1,2.2,0,3
	c-0.3,4.6,0.8,9.1,0.9,13.6C110.5,85.5,109.3,99.3,111.5,113.5z M31.1,45c0,9.3,0.3,18.7-0.1,28c-0.4,9.2,1.3,18.4,1.1,27.6
	c-0.1,4.3,0,8.6,0,12.8c5,0,9.1,3.2,14.1,1.8c-2.7-2.3,0.4-5.8-2-8.2c-0.4-0.4-0.1-1.6-0.1-2.4c0-6,0-12,0-18c0-1.1,0.1-2.1,0.6-3.3
	c1.1-2.9,2.8-5.5,4.1-8.3c1.4-2.8,3.9-3.7,5.9-5.3c2-1.5,4.6-2.6,7.6-2.2c2.1,0.3,4.3,0.1,6,0.1c4.7,2.4,7.8,5.9,9.5,10.3
	c1.3,3.7,2.3,7.6,2.3,11.5c0.1,7.6,0,15.3,0,23c8.5,0.2,16.7,2.1,25,0.8c0-14.3,0-28.5,0-42.7c0-3.2-0.2-6.4,0.1-9.5
	c0.3-3.3-1.8-6.2-1-9.4c-0.7-0.1-1.1,0-1.4-0.2c-6.7-5.2-13.3-10.6-20-15.8c-3.7-2.9-7.6-5.7-11.6-8.2c-4.5-2.8-9.1-5.2-13.7-7.8
	c-5.1,4.4-9.5,9.8-15,14.1C38.3,37,34.9,41.2,31.1,45z M66,72.5c-2.1,0-3.7,0-5.2,0c-1.1,0.7-2,1.3-3,1.7c-5.5,2.5-8.1,7.5-8.5,12.8
	c-0.8,9.4-0.2,18.9-0.2,28.5c1.1,0,1.9,0.1,2.7,0c0.9-0.2,1.7-0.9,2.6-0.9c4.7,0.2,9.3-1.7,14.1-1.1c1.8,0.2,3.7-0.5,5.6-0.8
	c0-7.2-0.1-14,0-20.7c0.1-4.4,0-8.6-2-12.6C72,78.7,72,78.2,72,77.6C69.9,75.8,67.9,74,66,72.5z"/>
<path d="M180.3,16.5c-0.9,4,1.5,6.8,2.1,10.1c0.6,3.2,2.2,6.2,1.6,9.8c-1.7,0.9-3.5,1.9-5.2,2.9c-7,0.9-13.9,3.3-21,2
	c-4.9-4.9-3.5-11.2-3.7-17.4c-0.5-0.2-1.1-0.3-1.6-0.5c-0.2-3,0.1-3.5,2-3.9c2.2-0.4,4.6-0.3,6.4-1.4c1.9-1.2,4.3,0.6,6-1.5
	c0.4-0.5,1.9,0,2.9-0.1c1.7-0.1,3.4,0.1,5.2-0.8C176.1,15,178.1,16.1,180.3,16.5z M158.5,37.4c7.4,0.8,15.3-1.9,20.5-3.3
	c0.3-2.4-0.1-4.6-1.4-6.8c-1.1-1.9-1.2-4.5-1.8-6.9c-7,1.2-13.8,2.3-20.8,3.5C157,28.2,156.2,33.2,158.5,37.4z"/>
<path d="M180.9,46.5c-1.4,0.7-2.4,1.3-3.7,1.9c0-1,0-1.7,0-2.6c1.5-0.7,3-1.5,4.6-2.3c2.5,0.6,5.3,1.8,8,1.7c2.7-0.1,5.4-1.3,8-2.1
	c1.2-0.4,2.3-0.9,3.4-1.4c1.9-0.9,3,0,4.2,1.9c-0.9,0.6-1.7,1.4-2.6,1.8c-3.8,1.5-7.9,1.6-11.7,2.9c-1.8,0.6-3.8-0.6-5.4-1.2
	C183.8,46.5,182.2,46.7,180.9,46.5z"/>
<path d="M92.3,27.5c-0.4-2.9,2.3-2.6,3.3-4c2.4,0.4,4.8,0,7.4,0.8c3.3,1.1,6.9-0.3,10.2-1.3c1.2-0.4,2.4-0.4,4.2-0.6
	c-0.4,1.7-0.7,2.8-0.9,3.7c-3.9,1.1-7.3,1.9-10.9,1.5c-1.7-0.2-3.3,0.1-5.2-0.8c-1.5-0.7-4.1-1.1-6,0.7C94.1,27.8,93,27.5,92.3,27.5
	z"/>
<path d="M131.7,52.9c-1.4-3.2,0.8-4.1,2.1-5.5c2,0.5,3.9-0.2,6.1,0.9c2.2,1.2,4.9-0.5,7.3-1.3c0.7-0.2,1.5-0.5,2.4-0.7
	c0.7,0.7,1.3,1.4,1.8,2c-1.9,4-6,2.6-9.3,4c-1.8-0.5-4.2-1.2-6.9-1.9C134.1,51.1,133,51.9,131.7,52.9z"/>
<path d="M143,39.5c0,1.3,0,2.5,0,3.6c-0.3,0.1-0.5,0.4-0.8,0.4c-2.1,0.1-4,0.2-6.1,0.8c-1.9,0.5-4.6,1.3-6.5-0.8
	c-2.3,0.5-4.9-1-7.1,0.9c-0.4,0.4-1.5,0.1-2.9,0.1c0.7-1.2,0.9-2.1,1.4-2.4c2.4-1.2,5-2.4,7.7-1.4c2.4,0.9,4.4,0.9,6.8,0
	C137.8,39.8,140.4,39.9,143,39.5z"/>
<path d="M141.1,20.2c0,1.4,0,2,0,2.8c-1.4,0.7-2.9,1.5-5.2,2.7c-2-0.2-4.8-0.6-8.3-1c-0.7,0.7-1.9,1.8-2.8,2.6c-1,0-1.8,0-2.8,0
	c0.7-2.9,3.3-3.8,4.6-5.8c2.3,0.1,4.4-0.1,6.7,0.8c1.2,0.5,3.2-0.8,4.8-1.2C138.9,20.8,139.8,20.6,141.1,20.2z"/>
<path d="M113.8,32.2c2.6,1.6,4.9,1.6,7.3,0.8c1.8-0.6,3.5-1.2,5.4-1.5c1.5-0.3,3-0.1,3.8,2c-0.4,0.5-1,1.2-1.5,2
	c-0.4-0.4-0.8-0.7-1.1-1c-4.4,1.6-8.8,1.3-13.4,0.3c-1.4,0.3-3.1,0.5-4.9,0.9C109.8,32.7,112.8,34.1,113.8,32.2z"/>
<path d="M170,76.5c0-2.5,0-4.6,0-7.1c-3.4,0.4-6.7,0.8-10,1c-3.5,0.2-7,0-10.8,0c-0.4-1.1-0.9-2.2-1.3-3.2c0.8-0.7,1.2-1.2,1.8-1.8
	c1.5,0,3.2,0,4.8,0c6.2,0,12.3,0.4,18.5-0.1c6-0.5,12-1,18.1-0.9c4.4,0.1,4.6,0.1,8.4,3.8c-0.5,5.4-0.9,11.1-1.4,16.6
	c1.1,0.6,2,1.2,3,1.8c0,2.9,0,5.6,0,8.6c-3.2,2.2-6.9,2.8-10.8,1.8c-0.8-0.2-1.5-0.4-2.3-0.6c-0.2,0-0.3,0-0.5,0
	c-8.1,0.7-16.1-0.2-24-1.2c-8-1-16-0.1-24-0.9c-2.4-1.8-0.9-4.3-1.2-5.6c0.9-3.4,2.8-4.8,5.6-5.3c1.1-4.8-1.1-10.1,1.7-14.9
	c2.9,2.5,0.8,5.9,1.8,9c3.4-1.4,7.1-0.9,10.7-0.9C162,76.4,165.8,76.5,170,76.5z M147.2,84.7c7.9-1.3,15.3,1.2,22.7,0.7
	c0-2.2,0-4.1,0-6c-5.8,0.6-11.1-1.5-16.7-1c-2.1,0.2-4.1,0-6,1.5C147.2,81.2,147.2,82.7,147.2,84.7z M173.6,76.4
	c2.7,0,5.4-0.2,8.1-0.8c2.8-0.7,6-0.1,9-0.1c0.8,0,1.6,0,2,0c0.7-0.7,1.1-1.1,1.4-1.4c0-1.5,0-3,0-4.5c-6.9,0-13.7,0-20.5,0
	C170.8,71.9,172.4,74.1,173.6,76.4z M172.7,79.5c0.6,2.3,1.1,4.1,1.7,6.2c5.9-0.5,11.7-1,17.3-1.5c2.1-1.3,1.6-3,1.3-4.8
	C186.3,79.5,179.9,79.5,172.7,79.5z"/>
<path d="M65.7,56.4c-10.8,1.3-19-6.3-17.6-16.5c2.4-3.8,3.9-5.3,7.9-7.7c3.4,0.3,7.4,0.5,11.2,0.8c1.7,1.7,3.6,3,4.6,4.8
	c1.1,1.8,1.9,4,2.1,6c0.2,2-0.7,4-1.1,6.2c-1,1-2.1,2.2-3.3,3.3C68.4,54.5,67.1,55.4,65.7,56.4z M59,43.4c0-2.2,0-4,0-5.8
	c-1.9,0-3.7,0-5.5,0c-0.7,1.9-2.2,3.6-1,5.8C54.6,43.4,56.7,43.4,59,43.4z M69.7,43.4c-2-2.4-3.5-4.2-4.7-5.7c-1.6,0-2.7,0-4.1,0
	c0.6,2,1,3.8,1.5,5.7C64.6,43.4,66.7,43.4,69.7,43.4z M59,45.3c-2.2,0.4-4.2-0.3-6.4,0.8c1.9,2.4,3.5,4.4,6.4,5.2
	C59,49.4,59,47.6,59,45.3z M63.3,51.2c0.3,0.2,0.6,0.5,0.9,0.7c1.3-1.3,2.7-2.7,3.8-3.8c0-1,0-1.8,0-2.4c-1.7,0-3.3,0-4.7,0
	C63.3,47.7,63.3,49.5,63.3,51.2z"/>
<path d="M54.3,92.8c0.6-0.6,1.5-1.4,2.3-2.3c0.9,0,1.9,0,3.1,0c0.7,0.8,1.4,1.7,2.6,3c-0.3,1.5-0.7,3.7-1.1,5.8c-2.1,0-3.9,0-5.7,0
	c-0.4-0.4-0.7-0.7-1.2-1.2C54.3,96.5,54.3,94.8,54.3,92.8z"/>
</svg>
