<?xml version="1.0" encoding="utf-8"?>
<!-- Generator: Adobe Illustrator 26.2.1, SVG Export Plug-In . SVG Version: 6.00 Build 0)  -->
<svg version="1.1" id="Layer_1" xmlns="http://www.w3.org/2000/svg" xmlns:xlink="http://www.w3.org/1999/xlink" x="0px" y="0px"
	 viewBox="0 0 47.4 54.1" style="enable-background:new 0 0 47.4 54.1;" xml:space="preserve">
<style type="text/css">
	.st0{fill:#993415;}
</style>
<path class="st0" d="M38.3,45.2c-2.2-2.5-4.9-4.8-8.2-6.9c-2.9-1.8-5.8-3.6-8.7-5.4l-1.2-0.7v-0.1l-1-0.7c-1.1-0.7-1.9-1.4-2.9-2.2
	c-0.2-0.2-0.5-0.4-0.8-0.6c2.7-2.1,5.4-4.2,8.1-6.4C27,19.6,31,17,34.9,14.4c1.3-0.9,2.7-1.8,4-2.6c0.6-0.4,1-1.1,1-1.8
	c0-0.3,0-0.8-0.4-1.3c-0.1-0.3-0.2-0.5-0.4-0.7c-0.5-0.6-1.4-2.8-2.3-2.5c-0.6,0.2-1.1,0.4-1.5,0.6s-0.8,0.4-1.2,0.6
	c-1.1,0.6-2.3,1.2-3.4,1.9c-2.9,1.9-5.8,2.8-8.4,4.5c-1.1,0.7-2.2,1.4-3.1,2.1l0,0c-3.9,2.8-6.9,7.9-9.9,10
	c-1.1,0.8-1.7,1.6-1.8,2.5C7.4,28.4,7.6,29,8,29.6c0.2,0.2,0.4,0.4,0.6,0.6c0.6,1,1.4,1.8,1.8,2.1c1.5,1.2,2.8,3,4,3.8
	c1.4,0.9,2.6,1.8,4.3,3.1c1,0.8,1.9,1.5,2.9,2.3c1.8,1.5,3.8,3,5.8,4.5c1.7,1.2,3.5,2.2,5.2,3.2c0.6,0.4,1.2,0.7,1.8,1.1
	c0.6,0.4,1.5,0.6,2.3,0.6c0.6,0,1.2-1.1,1.7-1.3c0.7-0.4,1.7-1.4,0.6-3.4C38.7,45.8,38.5,45.5,38.3,45.2z"/>
</svg>
