<?xml version="1.0" encoding="utf-8"?>
<!-- Generator: Adobe Illustrator 26.2.1, SVG Export Plug-In . SVG Version: 6.00 Build 0)  -->
<svg version="1.1" id="Layer_1" xmlns="http://www.w3.org/2000/svg" xmlns:xlink="http://www.w3.org/1999/xlink" x="0px" y="0px"
	 viewBox="0 0 154.7 154.7" style="enable-background:new 0 0 154.7 154.7;" xml:space="preserve">
<style type="text/css">
	.st0{fill:#3B4349;}
</style>
<path class="st0" d="M6.5,104.8c0-2.3-0.1-4.7,0-7c0.2-5,0.4-10,0.7-15c0.4-4.8,0.9-9.7,1.4-14.5c0.5-4.9,1.2-9.7,1.8-14.6
	c0.6-4.8,1.1-9.5,1.7-14.3c0.3-2.7,0.5-5.4,0.7-8.1c0-0.4-0.1-0.9-0.2-1.2c-1.9-4.3-0.9-9,3-12.3c4.2-3.5,8.7-6.4,14.1-7.7
	c4.2-1,8.5-1.7,12.8-2.6c5.6-1.3,11.3-1.3,17-1.5c5.4-0.2,10.9-0.3,16.3-0.2c5,0.1,9.9,0.4,14.8,0.8c4.7,0.4,9.5,1,14.2,1.7
	c4.6,0.7,9,1.8,13.6,2.6c4.4,0.7,8.3,2.6,12.3,4.4c5.3,2.4,9.5,6.2,12.5,11.1c2,3.3,2.8,7.1,3.3,10.9c0.8,6,0.6,12.1,0.5,18.2
	c-0.1,4.6-0.3,9.3-0.1,13.9c0.3,6.6,0.9,13.2,1.4,19.7c0.4,5.4,0.8,10.8,1.3,16.1c0.5,5.3-0.3,10.6-0.8,15.8
	c-0.5,5.1-2.1,9.6-4.6,13.9c-1.6,2.8-4.1,4.8-6.6,6.9c-4.6,3.7-10.1,4.8-15.7,5.7c-7.7,1.2-15.4,1.7-23.1,1.7
	c-4.7,0-9.4,0.2-14.2,0.1c-5.8-0.1-11.5-0.4-17.3-0.8c-4.7-0.3-9.3-0.8-13.9-1.5c-4.7-0.7-9.4-1.5-14-2.5c-4.3-1-8.4-2.3-12.6-3.4
	c-3.8-1-6.9-3.1-9.9-5.5c-5.7-4.4-8.2-10.7-9.3-17.5c-0.7-4.4-1.1-8.9-1.6-13.3C6.2,104.8,6.3,104.8,6.5,104.8z M119,114.2
	c-0.2-1.8-0.4-3.4-0.6-5.1c-0.4-3.1-1.1-6.2-1.1-9.3c0.1-5.7,0.4-11.4,1.2-17c0.6-4.3-0.5-7.8-2.7-11.4c-2.4-3.9-5.1-7.6-9.1-10.1
	c-2.2-1.4-6.2-1-7.9,0.7c-1.3,1.3-2.6,2.6-3.5,4.1c-1.2,1.9-1.9,4-3,6c-1.1,2.1-3.4,2.5-5.4,1.1c-1.3-0.9-1.5-2.2-1.4-3.7
	c0.2-2.3,0.3-4.6,0.5-6.6c-4.9,1-9.7,1.9-14.7,2.8c-0.1,0.6-0.1,1.4-0.2,2.2c-0.5,4.1-0.2,8.1,0.2,12.2c0.6,5.6,0.6,11.4,0.7,17
	c0.1,4.3-0.1,8.6-0.1,12.9c-0.1,3-0.1,3.2,2.8,3.4c4.8,0.4,9.6,0.6,14.5,0.9c0-0.7,0-1,0-1.2c-0.3-2.2-0.8-4.4-1-6.6
	c-0.5-6-1-12,0.4-18c0.6-2.5,1.3-5.1,2.1-7.5c0.5-1.5,1.2-3,3-3.4c1.9-0.4,4.2,0.8,4.8,3c1.4,4.8,2.9,9.7,3.8,14.6
	c0.7,4,0.4,8.1,0.5,12.2c0,2,0,4.1,0,6.1C108,113.8,113.4,114,119,114.2z M63.4,112.1c0,0,0-0.3,0-0.5c-0.1-3.3-0.2-6.7-0.3-10
	c0-4.9,0.1-9.8,0-14.7c-0.1-6.8-0.6-13.5-2-20.2c-0.2-0.9-0.4-1.2-1.4-1.2c-3.8-0.1-7.6-0.3-11.4-0.3c-0.4,0-1,0.4-1.2,0.8
	c-0.9,2.1-0.7,4.3-0.6,6.6c0.1,5.4-0.1,10.8-0.3,16.2c-0.1,6.1-0.4,12.1-0.4,18.2c0,2.2,0.5,4.3,0.8,6.1
	C52.4,112.7,57.8,112.4,63.4,112.1z M58,54.2c1.2-1.5,2.7-3.4,4-5.3c3.6-5.4,3.1-10-1.6-14.4c-2.3-2.2-5.1-3.6-8.4-2.7
	c-4,1.1-7.1,3.3-8.7,7.5c-1.6,4.3-0.7,9,2.8,11.8c2.3,1.9,5.2,2.4,8.2,2.6C55.4,53.7,56.5,54,58,54.2z M35.4,99.2
	c-0.1,0-0.2,0-0.3,0c-0.2,2.2-0.4,4.4-0.6,6.6c-0.2,1.8,0.4,3,1.7,4C35.9,106.4,35.7,102.8,35.4,99.2z M129,137.4
	c0.1,0.2,0.2,0.3,0.3,0.5c1.3-0.7,2.7-1.4,4-2.1c-0.1-0.2-0.2-0.3-0.3-0.5C131.6,136,130.3,136.7,129,137.4z"/>
</svg>
