<?xml version="1.0" encoding="utf-8"?>
<!-- Generator: Adobe Illustrator 26.2.1, SVG Export Plug-In . SVG Version: 6.00 Build 0)  -->
<svg version="1.1" id="Layer_1" xmlns="http://www.w3.org/2000/svg" xmlns:xlink="http://www.w3.org/1999/xlink" x="0px" y="0px"
	 viewBox="0 0 80 80" style="enable-background:new 0 0 80 80;" xml:space="preserve">
<style type="text/css">
	.st0{fill:#FFFFFF;}
</style>
<path class="st0" d="M46.4,16c1.4-1.2,2.3-1.9,4.1-2.9c-0.3,2.7-3.2,2.6-4.4,5.1c18.1-2.6,22.6,20.8,22.6,33.6c0.6,5.9,2,12-1,17.6
	c-1.2,2.4-4.6,3.7-6.3,0.9c-1.7,2.6-4.9,4.4-6.7,0.8c-2.4,3-5.6,2.7-6.1-1.3c-5.2,3.5-10.2,2.1-15.2-0.3c-2.7,2.1-5.6,3-7-0.9
	c-2.3,2.7-5.4,0.5-5.3-2.4C5.9,77.2,10.3,14.8,43.9,18.7c0.2-1.4-0.4-2.6-0.7-3.8c-0.3-1.1-1.9-1.7-1.6-3.2c1.8,1,2.4,2.6,3.1,4.5
	c1.3-1.4,0.7-5.2,3.3-4.6c-0.8,1.7-1.9,3.2-2.2,5.1c0.1,0,0.1,0.1,0.2,0.1C46.1,16.4,46.2,16.2,46.4,16z M25.4,42
	c0.4,7.7-1.4,15.8,3.4,22.4c15.6,16,30.4-2.4,30.3-18.6c5.5,0.2,6.7-8.4,0.2-7.1c-0.8-10.1-4.7-4-10.2-9.5
	c-5.5,2.3-12.2,1.7-17.9,2.2c-2.3,1.2-2.7,3.1-3.7,4.5C23,34.6,21.8,40.4,25.4,42z"/>
<path class="st0" d="M46.4,16c-0.1,0.2-0.3,0.4-0.4,0.6c-0.1,0-0.1-0.1-0.2-0.1c0.1-0.3,0.2-0.5,0.3-0.8
	C46.1,15.8,46.3,15.9,46.4,16z"/>
<path class="st0" d="M41.7,41.6c0.4,0.2,0.6,0.3,0.9,0.4c-1,3.3-2.4,6.4-3,9.7c1.8,0.6,3.6-0.1,5.3,0.8c-0.3,0.4-0.5,0.6-0.8,0.9
	c-1.7-0.7-3.6,0.1-5.1-0.7C37.7,49.1,41.1,45.4,41.7,41.6z"/>
<path class="st0" d="M42.3,61.6c-1.9-0.1-7.6-2.3-4.3-4.3c0.9,2.8,3.9,3.6,6.4,2.3c0.8-0.2,0.9-1.5,2.2-1
	C46.1,60.9,43.9,60.9,42.3,61.6z"/>
<path class="st0" d="M33.8,45.3c-3.5-1.1-2.2-6.8,1.2-6.5C39.8,38.7,38.5,46.3,33.8,45.3z M33.9,44c0.2,0,0.3,0,0.5-0.1
	c-0.1-1.4,0.2-2.6,0.9-3.8C32.5,39.6,32.6,42.7,33.9,44z"/>
<path class="st0" d="M49.2,39.6c3.9-0.7,4.8,3.5,1.7,5.7C47,46.3,45.7,41.2,49.2,39.6z M49.3,44c0.4-1.2,0.7-2.2,1-3.2
	C49,40.7,47.7,42.7,49.3,44z"/>
</svg>
