<?xml version="1.0" encoding="utf-8"?>
<!-- Generator: Adobe Illustrator 26.2.1, SVG Export Plug-In . SVG Version: 6.00 Build 0)  -->
<svg version="1.0" id="Layer_1" xmlns="http://www.w3.org/2000/svg" xmlns:xlink="http://www.w3.org/1999/xlink" x="0px" y="0px"
	 viewBox="0 0 285.1 251" style="enable-background:new 0 0 285.1 251;" xml:space="preserve">
<style type="text/css">
	.st0{fill:#3B4349;}
</style>
<g>
	<path class="st0" d="M73.3,184.2c0.2,0,0.4-0.1,0.5-0.1C73.7,184.1,73.5,184.2,73.3,184.2z"/>
	<path class="st0" d="M73.4,184.4c0.1,0,0.2,0,0.2-0.1C73.6,184.4,73.3,184.4,73.4,184.4z"/>
	<path class="st0" d="M74.1,184c0.1,0-0.1,0-0.3,0.1C74.3,184,74.5,183.9,74.1,184z"/>
	<path class="st0" d="M73.4,137.7c0.1,0,0.2,0,0.2-0.1C73.6,137.7,73.3,137.7,73.4,137.7z"/>
	<path class="st0" d="M73.3,137.5c0.2,0,0.4-0.1,0.5-0.1C73.7,137.4,73.5,137.5,73.3,137.5z"/>
	<path class="st0" d="M74.1,137.3c0.1,0-0.1,0-0.3,0.1C74.3,137.3,74.5,137.2,74.1,137.3z"/>
	<path class="st0" d="M74,90.5c0.1,0-0.1,0-0.3,0.1C74.2,90.5,74.5,90.5,74,90.5z"/>
	<path class="st0" d="M73.3,90.8c0.2,0,0.4-0.1,0.5-0.1C73.6,90.7,73.4,90.7,73.3,90.8z"/>
	<path class="st0" d="M73.4,91c0.1,0,0.2,0,0.2-0.1C73.5,90.9,73.3,91,73.4,91z"/>
	<path class="st0" d="M126.7,248.4c-0.1,0.3,0,0.4,0.4,0.4C127.1,248.7,126.7,248.4,126.7,248.4z"/>
	<path class="st0" d="M282.9,143.6L282.9,143.6L282.9,143.6z"/>
	<path class="st0" d="M141.9,250.5c-0.2,0,0.2,0,0.8-0.1C141.5,250.5,141,250.5,141.9,250.5z"/>
	<path class="st0" d="M283,143.6c9.3-41.4-12.6-92.7-53.1-119.1c0.3,0.2,0.7,0.4,0.9,0.6c-55.5-43-150.1-26.5-190,17.3
		C22,60.7,7.2,85.5,3.8,108.2l0.1-1.2c-19.1,60.3,34.4,134.8,105,141.4c1,0.2,2.5,0.9,3.4,0.6c-0.2,0-0.4,0-0.6,0
		c1,0.2,4.6,0.6,3.6,0.8c1.7,0.1,3.6,0.3,5.3,0.4c-0.9-0.2-5.7-0.3-4.4-0.9c7,0.8,10.4,2,17.6,1.3c-13.2,0.9,1.5,0.2,8.5-0.4
		c-1.1,0.2,2.5-0.1,3.1-0.2c-0.5,0-0.9,0.1-1.3,0.1c1,0,6.6-0.4,3.6-0.3c4.2-0.4,10.6-0.8,7.8-0.7c-3,0.2-4.6,0.2-1.6-0.1
		c1.7-0.2,3.4-0.3-1.4-0.2c3.5,0.2-19.2,0.5-22.5,0.4c-2,0.2-1.1,0.2-3.2,0.2c-0.6-2.2-8.3-0.4-9.9-2.3c26,4.7,58.2,0.3,84.8-11.9
		c-13,6.5-26.4,10.8-40.7,12.2C202.6,247.1,272,209.6,283,143.6z M150.9,249.3c1-0.1,0.8,0-0.1,0.1
		C150.5,249.4,150.5,249.4,150.9,249.3z M144.6,249.9c-0.3,0-0.6,0.1-0.8,0.1c4.1-0.1,7.1-0.6,11.6-0.8c-0.4,0-1.2,0.1-1.8,0.1
		c1.6,0-12.2,1-12.1,0.8C142.2,250.1,143.4,250,144.6,249.9z M112.9,247.8L112.9,247.8L112.9,247.8L112.9,247.8z M112.9,247.8
		L112.9,247.8L112.9,247.8L112.9,247.8z M112.7,248.4C112.8,248.4,112.8,248.4,112.7,248.4C112.8,248.4,112.7,248.4,112.7,248.4
		L112.7,248.4z M112.8,248.2c0,0,0,0.1,0,0.2C112.8,248.3,112.8,248.3,112.8,248.2z M112.8,248.2c0-0.1,0-0.1,0-0.2
		C112.8,248.1,112.8,248.1,112.8,248.2L112.8,248.2z M112.9,247.9L112.9,247.9L112.9,247.9L112.9,247.9z M112.9,247.8L112.9,247.8
		L112.9,247.8z M109.9,247L109.9,247L109.9,247z M109.9,247L109.9,247L109.9,247L109.9,247L109.9,247L109.9,247L109.9,247L109.9,247
		L109.9,247z M109.6,247.5c0-0.1,0.1-0.2,0.1-0.2C109.7,247.4,109.6,247.5,109.6,247.5L109.6,247.5z M109.9,247
		C110,246.9,110,246.9,109.9,247C110,246.9,110,246.9,109.9,247L109.9,247z M4.6,104.5L4.6,104.5L4.6,104.5z M213.6,181.6
		C213.5,181.8,213.4,181.8,213.6,181.6L213.6,181.6L213.6,181.6z M213.4,161.8c-1.6,18.2,6.8,21.1-11.6,20.3
		c-10.1,0.4-24-0.9-31.8-0.7c-25-3.7-41.2,0.2-62.9-1.1c-5.7,0-14.9,1-19.4,2.5l-1.3,0.1h0.2c-1.6,0.1-2.2,0-3.8,0.2
		c2.7-0.2,10.2-0.1,3.4,0.3c-9,0.3-5.2,0.1-13.3,0.9c0.2,0,0.3-0.1,0.5-0.1c-0.4,0-2.6,0.3-1.5,0.3c-8,3.2-0.6-15-1.7-19.2
		c33.5,2.1,67.5,1,101.3-0.7c-0.2,0-0.3,0-0.4,0C181.6,165.2,202.7,162.2,213.4,161.8z M70.6,185C70.1,185,70.2,185,70.6,185
		C70.7,184.9,70.7,184.9,70.6,185z M68.8,185.3c-3.5-2.9-0.4-11.9-1.4-17c0.7,6.3,0.6,9.5,0.3,15.4
		C67.6,183.9,68.8,185.5,68.8,185.3z M68.8,91.7c-0.3-0.2,0.1-0.2,0.2-0.2C71.1,91.3,69.3,91.7,68.8,91.7z M68.4,86.9
		c0.9-4.8,0.8-11.2,2.1-15.3c33.8,2.5,67.3,1,101-0.5c-0.2,0-0.3,0-0.4,0c6.8,2.4,46.5-7.5,42.4,1c-1,16.6,5.6,16.7-11.7,16.5
		c-10.1,0.4-24-0.9-31.8-0.7c-25-3.7-41.2,0.2-62.9-1.1c-5.7,0-14.9,1-19.4,2.5l-1.3,0.1h0.2c-1.6,0.1-2.2,0-3.8,0.2
		c2.7-0.2,10.2-0.1,3.4,0.3c-9,0.3-5.2,0.1-13.3,0.9c0.2,0,0.3-0.1,0.5-0.1c-0.4,0-2.6,0.3-1.5,0.3C67.1,92.6,68.1,89.7,68.4,86.9z
		 M83.8,138.5c-2.3-0.1-14.8,0.4-13.9,0.1C69.4,138.5,85.2,137.8,83.8,138.5z M68.8,138.5c-0.3-0.2,0.1-0.2,0.2-0.2
		C71.2,138.1,69.4,138.5,68.8,138.5z M213.6,134.9C213.7,134.7,213.4,135.2,213.6,134.9C213.5,135,213.5,135,213.6,134.9z
		 M68.1,137.4c0.9-6,1.2-13.1,2.3-19.1c33.6,2.7,67.3,1,101-0.5c-0.2,0-0.3,0-0.4,0c10.2,1.2,33.4-3.6,42.4-2.2
		c-1.5,19.1,6.4,20.3-11.6,19.8c-10.1,0.4-24-0.9-31.8-0.7c-25-3.7-41.2,0.2-62.9-1.1c-5.7,0-14.9,1-19.4,2.5l-1.3,0.1h0.2
		c-1.6,0.1-2.2,0-3.8,0.2c2.7-0.2,10.2-0.1,3.4,0.3c-9,0.3-5.2,0.1-13.3,0.9c0.2,0,0.3-0.1,0.5-0.1c-0.4,0-2.6,0.3-1.5,0.3
		C70.2,137.9,68.4,139,68.1,137.4z M70.6,138.3C70.1,138.3,70.2,138.3,70.6,138.3C70.7,138.2,70.7,138.2,70.6,138.3z M71,137.9
		c0.4,0.1-1.7,0.3-2.3,0.3c0.2,0,0.5-0.1,0.8-0.1c-0.8,0,4.6-0.8,4.8-0.6c-0.3,0.1-0.8,0.1-1.2,0.2C74,137.6,71.5,137.9,71,137.9z
		 M68.8,138.4C68.8,138.4,68.7,138.4,68.8,138.4L68.8,138.4z M70.5,91.5C70.1,91.5,70.2,91.5,70.5,91.5
		C70.7,91.4,70.7,91.5,70.5,91.5z M70.9,91.2c0.4,0.1-1.7,0.3-2.3,0.3c0.2,0,0.5-0.1,0.8-0.1c-0.8,0,4.6-0.8,4.8-0.6
		C74,91,73.4,91,73,91C74,90.8,71.4,91.1,70.9,91.2z M68.7,91.6C68.7,91.6,68.6,91.6,68.7,91.6S68.8,91.6,68.7,91.6z M69.9,91.8
		c1-0.1,11.4-0.8,14.6-0.1C81.8,91.6,69.3,92.2,69.9,91.8z M67.5,121.6c0.7,6.3,0.6,9.5,0.3,15.4c0.1-0.5,0,0.5,0.1,0.6
		c0.4,0.3,0.6,0.8,0.7,0.8C65.8,137.2,68.1,126.3,67.5,121.6z M67.5,75.2c0.7,6.2,0.6,9.2,0.3,15.1c0,0.3,0.3,1.1,0.8,1.4
		c-2.7-1.2-0.4-12.1-1.1-16.8C67.5,74.9,67.5,75.1,67.5,75.2z M68.8,185.1C68.8,185.1,68.7,185.1,68.8,185.1L68.8,185.1z
		 M68.8,185.2c-0.3-0.2,0.1-0.2,0.2-0.2C71.2,184.8,69.3,185.2,68.8,185.2z M71,184.6c0.4,0.1-1.7,0.3-2.3,0.3
		c0.2,0,0.5-0.1,0.8-0.1c-0.8,0,4.6-0.8,4.8-0.6c-0.3,0.1-0.8,0.1-1.2,0.2C74,184.3,71.5,184.6,71,184.6z M83.8,185.2
		c-2.3-0.1-14.8,0.4-13.9,0.1C69.4,185.2,85.2,184.5,83.8,185.2z M281.4,149.7L281.4,149.7L281.4,149.7z M173.7,3.3
		C173.6,3.4,173.6,3.4,173.7,3.3C173.6,3.4,173.6,3.4,173.7,3.3z M170.2,4.3c-0.1,0.1-0.1,0.2-0.2,0.2
		C170.1,4.4,170.2,4.3,170.2,4.3z M7.6,99.3L7.6,99.3C7.7,99.4,7.9,99.5,7.6,99.3z M7.7,99.3C7.6,99.3,7.6,99.3,7.7,99.3
		C7.6,99.3,7.6,99.3,7.7,99.3z M6,98.8L6,98.8L6,98.8z M2,150.4L2,150.4l0.1,0.1L2,150.4z M107.7,247.9c-1.3-0.2-2.6-0.7-3.8-1
		C105.1,247.2,111.3,248.2,107.7,247.9z M109,248.1L109,248.1C109,248,109,248,109,248.1z M111.6,248.8c-0.9,0-1.9-0.4-2.5-0.8
		c0.1-0.2,0.5-0.2,0.3,0.1c0.6,0,3.2,0.6,2.7,0.6C112.6,248.9,112,248.8,111.6,248.8z M115.6,249.5L115.6,249.5L115.6,249.5z
		 M115.9,248.9L115.9,248.9L115.9,248.9z M115.9,248.9L115.9,248.9L115.9,248.9z M115.9,249L115.9,249L115.9,249L115.9,249z
		 M115.9,248.9L115.9,248.9L115.9,248.9L115.9,248.9z M115.8,249.1L115.8,249.1L115.8,249.1z M115.9,248.9L115.9,248.9L115.9,248.9
		L115.9,248.9L115.9,248.9L115.9,248.9L115.9,248.9c-0.1,0.3-0.4,0.9-0.2,0.3c-0.7,1.3-4.5-1.2-3.1-0.4
		C113.1,248.5,115.5,249.8,115.9,248.9C115.9,248.9,115.9,248.8,115.9,248.9z M281.4,149.7L281.4,149.7L281.4,149.7z M282.2,147
		L282.2,147L282.2,147z M282.4,143.6c-0.1,0-0.4-0.1-0.4-0.1c0.2,0,0.4,0.1,0.5,0.1H282.4z"/>
	<path class="st0" d="M156.3,248l-0.2,0.3C156.3,248.2,156.3,248.1,156.3,248z"/>
	<path class="st0" d="M142.7,250.4c0.4,0,0.9-0.1,1.4-0.1C143.5,250.3,143,250.3,142.7,250.4z"/>
	<path class="st0" d="M143.6,250c-0.8,0.1-0.2,0,0.2,0C143.7,250,143.6,250,143.6,250z"/>
	<path class="st0" d="M112.7,248.8L112.7,248.8L112.7,248.8z"/>
	<path class="st0" d="M109.9,247L109.9,247L109.9,247L109.9,247L109.9,247L109.9,247z"/>
	<path class="st0" d="M112.7,248.8L112.7,248.8L112.7,248.8z"/>
	<path class="st0" d="M109.4,248.1L109.4,248.1L109.4,248.1z"/>
	<path class="st0" d="M115.9,248.9L115.9,248.9L115.9,248.9L115.9,248.9L115.9,248.9L115.9,248.9L115.9,248.9L115.9,248.9
		L115.9,248.9L115.9,248.9L115.9,248.9L115.9,248.9z"/>
	<path class="st0" d="M115.9,248.9L115.9,248.9L115.9,248.9z"/>
	<path class="st0" d="M112.7,248.8L112.7,248.8L112.7,248.8z"/>
	<path class="st0" d="M153.5,249.3h-0.1C153.5,249.3,153.5,249.3,153.5,249.3z"/>
	<path class="st0" d="M115.8,249.2L115.8,249.2L115.8,249.2z"/>
</g>
</svg>
