<?xml version="1.0" encoding="utf-8"?>
<!-- Generator: Adobe Illustrator 26.2.1, SVG Export Plug-In . SVG Version: 6.00 Build 0)  -->
<svg version="1.0" id="Layer_1" xmlns="http://www.w3.org/2000/svg" xmlns:xlink="http://www.w3.org/1999/xlink" x="0px" y="0px"
	 viewBox="0 0 285.2 250.1" style="enable-background:new 0 0 285.2 250.1;" xml:space="preserve">
<style type="text/css">
	.st0{fill:#3C4349;}
</style>
<path class="st0" d="M117,61.9L117,61.9c0.1-0.1,0.2-0.2,0.3-0.3C117.2,61.7,117.1,61.9,117,61.9z"/>
<path class="st0" d="M133.7,199.7L133.7,199.7c0.1,0.1,0.2,0.2,0.3,0.3C133.9,199.9,133.7,199.8,133.7,199.7z"/>
<path class="st0" d="M164.5,130.2c-18.7,17.6-42.7,40.6-67.2,63.2c-8.1,7.5-17.1,13.9-25.8,20.7c-2.1,1.6-4.6,2.9-7,3.9
	c-3.2,1.4-5.5,0.3-4.4-3c1.1-3.4,2.7-7.6,5.2-10c29.6-28.5,57.3-58.5,84.4-89.4c18.1-20.6,36.3-41.2,54.6-61.6
	c8.6-9.5,19.8-10.1,24.1-1.6c2.8,5.3,0.6,12.4-5.9,19C204.9,89.2,187.3,107,164.5,130.2z"/>
<path class="st0" d="M114.4,87.5c21.5,18.8,43.2,37.6,64.5,56.7c18.2,16.3,33.7,34.6,46.1,55.1c0.9,1.6,1.9,3.4,2.5,5.1
	c1.6,4.2,3.5,8.6-0.1,11.6c-2.8,2.1-10.1,1.6-14-1.7c-13.6-11.5-27.9-22.5-40.6-35.2c-17.6-17.9-33.5-37.4-50.3-56.1
	C103.7,102.2,99,93,79.9,72.5c-5.3-5.7-20.1-22.2-15.4-25.7c3.7-2.7,7,1.5,11.7,6.1c12.7,12.4,26.1,21.4,38.8,33.7
	C114.9,87,114.7,87.2,114.4,87.5z"/>
</svg>
