<?xml version="1.0" encoding="utf-8"?>
<!-- Generator: Adobe Illustrator 26.2.1, SVG Export Plug-In . SVG Version: 6.00 Build 0)  -->
<svg version="1.0" id="Layer_1" xmlns="http://www.w3.org/2000/svg" xmlns:xlink="http://www.w3.org/1999/xlink" x="0px" y="0px"
	 viewBox="0 0 285.1 251" style="enable-background:new 0 0 285.1 251;" xml:space="preserve">
<style type="text/css">
	.st0{fill:none;}
	.st1{fill:#3B4349;}
</style>
<path class="st0" d="M153.8,249.3c0.1,0,0.2,0,0.3,0c-0.2,0-0.4,0-0.6,0C153.7,249.3,153.8,249.3,153.8,249.3z"/>
<path class="st1" d="M69.3,91.5C69.2,91.5,69.2,91.5,69.3,91.5C69.2,91.5,69.2,91.5,69.3,91.5z"/>
<path class="st1" d="M69.4,91.5c0.8-0.1,1.8-0.2,1.5-0.3c0.5-0.1,3-0.4,2.1-0.2c0.4-0.1,1-0.1,1.2-0.2c-0.1-0.1-2.4,0.2-3.8,0.4
	c-0.3,0.1-0.6,0.1-0.8,0.1C69.4,91.4,69.3,91.5,69.4,91.5z M73.6,90.9c0,0.1-0.1,0.1-0.2,0.1C73.3,91,73.5,90.9,73.6,90.9z"/>
<path class="st0" d="M150.9,249.3c-0.4,0.1-0.4,0.1-0.1,0.1C151.7,249.3,151.9,249.2,150.9,249.3z"/>
<path class="st1" d="M212.2,68.5c-0.2,0-0.5,0.1-0.8,0.1c-0.4,0.1-0.8,0.2-1.3,0.4c1.2-0.1-1.1,0.3-1.5,0.3c0.2,0,0.4-0.1,0.5-0.1
	c-0.5,0-0.9,0.1-1.2,0.1c-0.1,0.1-0.3,0.1-0.2,0.1c-0.3,0-0.3,0,0,0c-6.5,0.6-3.6,0.5-12.3,0.7c-7.1,0.4,0.7,0.4,3.5,0.3
	c-1.7,0.2-2.3,0.1-3.9,0.2l0.2,0l-1.3,0.1c-4.7,1.5-14.1,2.5-20.1,2.5c-22.5-1.3-39.1,2.7-65-1c-8.1,0.2-22.5-1.1-32.9-0.6
	c-17.9-0.2-11-0.2-12.1,16.5c-4.3,8.6,36.6-1.4,43.7,1c34.7-1.5,69.1-3.1,103.9-0.6c1.3-4.1,1.2-10.5,2.1-15.3
	C213.8,70.7,214.5,68.4,212.2,68.5z"/>
<path class="st0" d="M143.8,250c-0.1,0-0.2,0-0.3,0c-0.4,0.1-0.3,0,0,0c0,0,0.1,0,0.1,0C143.6,250,143.7,250,143.8,250
	c0.2,0,0.5-0.1,0.8-0.1c-1.2,0.1-2.4,0.2-3.1,0.2c0,0.1,3.1-0.1,6.3-0.3c0,0-0.1,0-0.1,0c1.9-0.2,4.3-0.4,6-0.5c0,0-0.1,0-0.1,0
	C150.1,249.5,147.3,249.9,143.8,250z"/>
<path class="st1" d="M67.8,183.8c0.2-5.4,0.3-8.5-0.2-13.8c0.2,4.5-1.4,10.7,0.2,14C67.8,183.9,67.8,183.8,67.8,183.8z"/>
<path class="st1" d="M69,185.1c-0.1,0-0.4,0-0.2,0.2C69.3,185.2,71.2,184.8,69,185.1z"/>
<path class="st1" d="M68.6,91.6c-0.4-0.3-0.8-1-0.8-1.4c0.2-5.5,0.3-8.4-0.2-13.9C67.8,81.5,66.2,90.6,68.6,91.6z"/>
<path class="st1" d="M68.3,184.7C68.3,184.7,68.3,184.7,68.3,184.7C68.3,184.7,68.3,184.7,68.3,184.7z"/>
<path class="st1" d="M84.5,91.7c-3.2-0.7-13.7,0-14.6,0.1C69.3,92.2,81.8,91.6,84.5,91.7z"/>
<path class="st1" d="M213.4,115.7c-8.8-1.4-31.3,3.3-41.3,2.2c-32.9,1.6-65.8,3.2-98.6,0.5c-1.1,6-1.4,13.1-2.3,19.1
	c0.1,0.6,0.5,0.8,0.9,0.8c0.1,0,0.2,0,0.3,0c0,0,0.1,0,0.1,0c0,0,0.1,0,0.1,0c-0.1,0,0.3-0.1,1-0.2c0.4-0.1,0.8-0.2,1.2-0.3
	c-1.1,0.1,1-0.3,1.4-0.3c-0.2,0-0.3,0.1-0.5,0.1c0.4,0,0.8-0.1,1.2-0.1c0.1-0.1,0.3-0.1,0.2-0.1c0.3-0.1,0.2,0-0.1,0
	c6.3-0.6,3.5-0.5,11.8-0.7c6.7-0.3-0.7-0.4-3.3-0.3c1.6-0.2,2.2-0.1,3.7-0.2h-0.2l1.3-0.1c4.4-1.5,13.4-2.5,19-2.5
	c21.3,1.3,37.1-2.6,61.6,1.1c7.6-0.2,21.3,1.1,31.1,0.7C219.7,135.9,212,134.7,213.4,115.7z"/>
<path class="st1" d="M70.5,91.5C70.7,91.5,70.7,91.4,70.5,91.5L70.5,91.5z"/>
<path class="st0" d="M170.2,4.3c0,0-0.1,0.1-0.2,0.2C170.1,4.5,170.1,4.4,170.2,4.3z"/>
<path class="st1" d="M213.6,134.9C213.4,135.2,213.7,134.7,213.6,134.9L213.6,134.9z"/>
<path class="st1" d="M71,137.9c0.5,0,2.9-0.3,2.1-0.2c0.4-0.1,1-0.1,1.2-0.2c0,0-0.3,0-0.7,0c0,0.1-0.1,0.1-0.2,0.1
	c-0.2,0,0.2,0,0.2-0.1c-0.8,0.1-2.1,0.2-3,0.4c-0.2,0.1-0.5,0.1-0.7,0.2C70.6,138.1,71.3,138,71,137.9z"/>
<path class="st1" d="M68.9,91.6c-0.1,0-0.4,0-0.2,0.2C69.3,91.7,71.1,91.3,68.9,91.6z"/>
<path class="st0" d="M109.7,247.3c0,0-0.1,0.1-0.1,0.2C109.6,247.5,109.7,247.4,109.7,247.3z"/>
<path class="st1" d="M213.6,181.6C213.4,181.8,213.5,181.8,213.6,181.6L213.6,181.6z"/>
<path class="st1" d="M69.5,184.9c0.8-0.1,1.8-0.2,1.5-0.3c0.5,0,2.9-0.3,2.1-0.2c0.4-0.1,1-0.1,1.2-0.2c0,0-0.3,0-0.7,0
	c0,0.1-0.1,0.1-0.2,0.1c-0.2,0,0.2,0,0.2-0.1c-0.6,0.1-1.6,0.2-2.4,0.3c-0.4,0.1-0.7,0.2-1,0.2C69.7,184.8,69.4,184.9,69.5,184.9z"
	/>
<path class="st1" d="M66,166c10.6-0.3,31.7,1.5,42.3,0.2c33.8-0.2,67.7-1.1,100.9-5.1c-0.8,4,6.2,19.2,1,19.6c-0.3,0-0.7-0.1-1-0.1
	c-0.2,0-0.4-0.1-0.6-0.2c1.1,0-1.1-0.2-1.5-0.2c0.2,0,0.4,0.1,0.5,0.1c-0.4,0-0.8,0-1.2,0c-0.1,0-0.3,0-0.2,0c-0.3-0.1-0.2,0,0.1,0
	c-6.5-0.3-3.6-0.3-12.1,0c-6.9,0,0.7-0.5,3.4-0.5c-1.7-0.1-2.3,0-3.8,0l0.2,0l-1.3,0c-4.6-1.2-13.8-1.7-19.5-1.4
	c-21.6,2.5-38-0.4-62.7,4.7c-7.8,0.3-21.7,2.4-31.7,2.5C60.5,187.5,68.7,184.1,66,166z"/>
<path class="st1" d="M69.4,184.9C69.3,184.9,69.3,184.9,69.4,184.9C69.3,184.9,69.3,184.9,69.4,184.9z"/>
<path class="st0" d="M115.7,249.2c-0.2,0.6,0.1,0,0.2-0.3c-0.4,0.9-2.8-0.4-3.3-0.1c-0.8-0.4,0.1,0.1,1.1,0.5
	c0.6,0.1,1.1,0.2,1.4,0.3C115.4,249.5,115.6,249.4,115.7,249.2z"/>
<path class="st0" d="M282.4,143.6h0.1c-0.1,0-0.3-0.1-0.5-0.1C282,143.5,282.3,143.6,282.4,143.6z"/>
<path class="st0" d="M109.4,248.1c0.2-0.3-0.2-0.3-0.3-0.1c0.6,0.4,1.6,0.8,2.5,0.8c0.4,0,1,0.1,0.5-0.1
	C112.6,248.7,110,248.1,109.4,248.1z"/>
<path class="st0" d="M103.9,246.9c1.2,0.3,2.5,0.8,3.8,1C111.3,248.2,105.1,247.2,103.9,246.9z"/>
<path class="st1" d="M70,185.3c-1,0.3,11.5-0.2,13.9-0.1C85.2,184.5,69.4,185.2,70,185.3z"/>
<path class="st1" d="M73.4,184.4c0.1,0,0.2,0,0.2-0.1c0,0,0,0,0,0C73.6,184.4,73.3,184.4,73.4,184.4z"/>
<path class="st1" d="M74.1,184c0.1,0,0,0-0.2,0.1C74,184.1,74,184.1,74.1,184C74.3,184,74.4,184,74.1,184z"/>
<path class="st1" d="M73.4,137.7c0.1,0,0.2,0,0.2-0.1c0,0,0,0,0,0C73.6,137.7,73.3,137.7,73.4,137.7z"/>
<path class="st1" d="M74.1,137.3c0.1,0,0,0-0.2,0.1C74,137.4,74,137.4,74.1,137.3C74.3,137.3,74.4,137.2,74.1,137.3z"/>
<path class="st1" d="M74,90.5c0.1,0,0,0-0.2,0.1C73.9,90.6,74,90.6,74,90.5C74.3,90.5,74.4,90.5,74,90.5z"/>
<path class="st1" d="M73.6,90.9c-0.1,0-0.3,0.1-0.2,0.1C73.5,91,73.6,91,73.6,90.9z"/>
<path class="st1" d="M127.1,248.8c0-0.1-0.3-0.3-0.4-0.4c0,0,0,0,0,0C126.6,248.7,126.7,248.8,127.1,248.8z"/>
<path class="st1" d="M141.9,250.5c-0.2,0,0.2,0,0.8-0.1C141.5,250.5,141,250.5,141.9,250.5z"/>
<path class="st1" d="M69.3,138.2C69.3,138.2,69.3,138.2,69.3,138.2C69.3,138.2,69.3,138.2,69.3,138.2z"/>
<polygon class="st1" points="153.6,249.3 153.6,249.3 153.6,249.3 "/>
<path class="st1" d="M171,117.8c0,0,0.1,0,0.1,0c0.1,0,0.2,0,0.3,0C171.3,117.8,171.1,117.8,171,117.8z"/>
<path class="st1" d="M153.6,249.3C153.7,249.3,153.7,249.3,153.6,249.3c0.1,0,0.2,0,0.2,0C153.8,249.3,153.7,249.3,153.6,249.3
	C153.6,249.3,153.6,249.3,153.6,249.3z"/>
<path class="st1" d="M144.1,250.1c0.1,0,0.4,0,0.6,0c0.3,0,0.6-0.1,0.7-0.1C144.9,250,144.5,250.1,144.1,250.1z"/>
<path class="st1" d="M147.8,249.8c3.2-0.2,6.3-0.5,5.9-0.5C152,249.4,149.6,249.6,147.8,249.8C147.7,249.8,147.8,249.8,147.8,249.8z
	"/>
<path class="st1" d="M7.6,99.3C7.7,99.4,7.9,99.5,7.6,99.3L7.6,99.3z"/>
<path class="st1" d="M115.1,249.6c-0.3-0.1-0.9-0.2-1.4-0.3C114.2,249.5,114.7,249.6,115.1,249.6z"/>
<path class="st1" d="M154.8,249.2c-0.2,0-0.4,0-0.7,0c-0.1,0-0.2,0-0.3,0C154.2,249.3,154.5,249.3,154.8,249.2z"/>
<path class="st1" d="M230.5,24.9c0.1,0.1,0.2,0.2,0.3,0.2C230.7,25,230.6,24.9,230.5,24.9z"/>
<path class="st1" d="M154.8,249.2c0.2,0,0.4,0,0.6,0C155.3,249.2,155.1,249.2,154.8,249.2z"/>
<path class="st1" d="M111.7,249c0.1,0,0.2,0,0.3,0.1c0.1,0,0.2,0,0.3-0.1C112.1,249,111.9,249,111.7,249z"/>
<path class="st1" d="M131.3,250.8c0.8,0,1.6-0.1,2.5-0.2C132.8,250.7,132,250.7,131.3,250.8z"/>
<path class="st1" d="M67.5,75.2c0,0.4,0.1,0.8,0.1,1.2c0-0.6-0.1-1.1-0.1-1.5C67.5,74.9,67.5,75.1,67.5,75.2z"/>
<path class="st1" d="M69.5,184.9C69.5,184.9,69.5,184.9,69.5,184.9c-0.1,0-0.1,0-0.2,0C69.4,184.9,69.5,184.9,69.5,184.9z"/>
<path class="st1" d="M67.6,170c0-0.6-0.1-1.1-0.2-1.7C67.5,168.9,67.6,169.5,67.6,170z"/>
<path class="st1" d="M70.6,185C70.7,184.9,70.7,184.9,70.6,185L70.6,185z"/>
<path class="st1" d="M68.2,184.7c-0.2-0.2-0.3-0.4-0.4-0.7C67.9,184.2,68.1,184.4,68.2,184.7z"/>
<path class="st1" d="M67.5,122.5c0-0.3,0-0.6-0.1-0.8C67.5,121.9,67.5,122.2,67.5,122.5z"/>
<path class="st1" d="M68.8,185.3c-0.2-0.2-0.4-0.4-0.6-0.6C68.5,185.1,68.8,185.4,68.8,185.3z"/>
<path class="st1" d="M170.9,164.4c0.1,0,0.1,0,0.2,0c0.1,0,0.2,0,0.2,0C171.2,164.4,171,164.4,170.9,164.4z"/>
<path class="st1" d="M71.2,184.6c-0.4,0.1-0.7,0.1-1,0.2C70.4,184.7,70.8,184.7,71.2,184.6z"/>
<path class="st1" d="M69.3,184.9c-0.2,0-0.4,0-0.5,0.1C68.9,185,69.1,184.9,69.3,184.9z"/>
<path class="st1" d="M69.2,91.5c-0.2,0-0.4,0-0.5,0.1C68.8,91.6,69,91.5,69.2,91.5z"/>
<path class="st1" d="M69.5,138.2c0,0-0.1,0-0.1,0C69.4,138.2,69.5,138.2,69.5,138.2C69.5,138.2,69.5,138.2,69.5,138.2z"/>
<path class="st1" d="M69.4,91.5C69.4,91.5,69.4,91.5,69.4,91.5c-0.1,0-0.1,0-0.2,0C69.3,91.5,69.4,91.5,69.4,91.5z"/>
<path class="st1" d="M70.4,91.3c-0.3,0-0.6,0.1-0.8,0.1C69.9,91.4,70.2,91.3,70.4,91.3z"/>
<path class="st1" d="M171,71.1C171,71.1,171.1,71.1,171,71.1c0.2,0,0.3,0,0.4,0C171.3,71.1,171.1,71.1,171,71.1z"/>
<path class="st1" d="M73.5,184.2c0.1,0,0.2-0.1,0.3-0.1C73.7,184.1,73.6,184.2,73.5,184.2z"/>
<path class="st1" d="M73.5,184.2c-0.1,0-0.1,0-0.2,0C73.3,184.2,73.4,184.2,73.5,184.2z"/>
<polygon class="st1" points="73.6,184.3 73.6,184.3 73.6,184.3 "/>
<path class="st1" d="M73.9,184.1c0.1,0,0.1,0,0.2,0C74,184.1,74,184.1,73.9,184.1C73.9,184.1,73.9,184.1,73.9,184.1z"/>
<polygon class="st1" points="73.6,137.6 73.6,137.6 73.6,137.6 "/>
<path class="st1" d="M73.5,137.5c-0.1,0-0.1,0-0.2,0C73.3,137.5,73.4,137.5,73.5,137.5z"/>
<path class="st1" d="M73.5,137.5c0.1,0,0.2-0.1,0.3-0.1C73.7,137.4,73.6,137.4,73.5,137.5z"/>
<path class="st1" d="M73.9,137.4c0.1,0,0.1,0,0.2,0C74,137.4,74,137.4,73.9,137.4C73.9,137.4,73.9,137.4,73.9,137.4z"/>
<path class="st1" d="M73.8,90.6c0.1,0,0.2,0,0.3-0.1C74,90.6,73.9,90.6,73.8,90.6C73.8,90.6,73.8,90.6,73.8,90.6z"/>
<path class="st1" d="M73.3,90.8c0.2,0,0.4-0.1,0.5-0.1C73.6,90.7,73.4,90.7,73.3,90.8z"/>
<path class="st1" d="M126.7,248.4C126.7,248.4,126.7,248.4,126.7,248.4C126.7,248.4,126.7,248.4,126.7,248.4
	C126.7,248.4,126.7,248.4,126.7,248.4z"/>
<path class="st1" d="M156.3,248l-0.2,0.3C156.3,248.2,156.3,248.1,156.3,248z"/>
<path class="st1" d="M144.1,250.3c-0.6,0-1.1,0-1.4,0.1C143.1,250.4,143.6,250.3,144.1,250.3z"/>
<path class="st1" d="M143.5,250c0.1,0,0.2,0,0.3,0c-0.1,0-0.2,0-0.2,0C143.6,250,143.5,250,143.5,250z"/>
<path class="st1" d="M143.5,250C143.2,250,143.1,250.1,143.5,250L143.5,250z"/>
</svg>
