<?xml version="1.0" encoding="utf-8"?>
<!-- Generator: Adobe Illustrator 26.2.1, SVG Export Plug-In . SVG Version: 6.00 Build 0)  -->
<svg version="1.0" id="Layer_1" xmlns="http://www.w3.org/2000/svg" xmlns:xlink="http://www.w3.org/1999/xlink" x="0px" y="0px"
	 viewBox="0 0 285.2 250.1" style="enable-background:new 0 0 285.2 250.1;" xml:space="preserve">
<style type="text/css">
	.st0{fill:#3C4349;}
</style>
<path class="st0" d="M117,61.9C117,61.9,117,61.9,117,61.9c0.1-0.1,0.2-0.2,0.3-0.3C117.2,61.7,117.1,61.9,117,61.9z"/>
<path class="st0" d="M133.7,199.7C133.7,199.7,133.7,199.7,133.7,199.7c0.1,0.1,0.2,0.2,0.3,0.3
	C133.9,199.9,133.7,199.8,133.7,199.7z"/>
<path class="st0" d="M147.3,206.5c-0.1-0.1-0.3-0.2-0.5-0.4c-0.3-0.2-0.6-0.3-0.9-0.5c0.7,0.6-0.7-0.4-1-0.7
	c0.1,0.1,0.2,0.1,0.3,0.2c-0.3-0.2-0.5-0.4-0.8-0.6c-0.1-0.1-0.2-0.1-0.1-0.1c-0.2-0.2-0.1-0.1,0,0c-3.9-3.2-2.3-1.7-7.2-6.4
	c-4.1-3.7,0.2,0.6,1.8,2.1c-1-0.8-1.3-1.2-2.3-2.1l0.1,0.1l-0.8-0.7c-3.4-1.8-9.2-6.4-12.5-9.7c-11.7-13.1-23.1-20.1-35.4-36.5
	c-3.5-3.3-8.6-9.2-13.4-14.2c0.5-0.5,0.9-0.9,1.1-1.1c-0.3,0.2-0.8,0.6-1.2,1c-0.2-0.2-0.3-0.3-0.5-0.5c5-6.3,10.3-13.5,12.8-14.7
	c18.3-20,36.4-40,57-57.9c-1.5-3-5.1-6.5-7.3-9.6c-1.1-1.4-2-3.1-3.2-1.8c-0.1,0.1-0.2,0.3-0.4,0.5c-0.2,0.3-0.3,0.6-0.5,0.9
	c0.6-0.7-0.4,0.7-0.7,1c0.1-0.1,0.1-0.2,0.2-0.3c-0.2,0.3-0.4,0.5-0.6,0.8c-0.1,0.1-0.1,0.2-0.1,0.1c-0.2,0.2-0.1,0.1,0,0
	c-3.2,3.9-1.7,2.3-6.4,7.2c-3.7,4.1,0.6-0.2,2.1-1.8c-0.8,1-1.2,1.3-2.1,2.3l0.1-0.1l-0.7,0.8c-1.8,3.4-6.4,9.2-9.7,12.5
	c-13.1,11.7-20.1,23.1-36.5,35.4c-3.8,4-10.9,10-16.3,15.5c-0.4,0.3-0.8,0.7-1.2,1.3c-0.3,0.4-0.7,0.7-1,1.1
	c-2.8,2.8-4.6,4.5-5.4,5.7c-6.6,2.6,21.2,19.4,23.8,24.6c20,18.3,40,36.4,57.9,57c3-1.5,6.5-5.1,9.6-7.3
	C147,208.6,148.6,207.7,147.3,206.5z"/>
<path class="st0" d="M202.2,62.6c-0.1,0.1-0.3,0.2-0.5,0.4c-0.3,0.2-0.6,0.3-0.9,0.5c0.7-0.6-0.7,0.4-1,0.7c0.1-0.1,0.2-0.1,0.3-0.2
	c-0.3,0.2-0.5,0.4-0.8,0.6c-0.1,0.1-0.2,0.1-0.1,0.1c-0.2,0.2-0.1,0.1,0,0c-3.9,3.2-2.3,1.7-7.2,6.4c-4.1,3.7,0.2-0.6,1.8-2.1
	c-1,0.8-1.3,1.2-2.3,2.1l0.1-0.1l-0.8,0.7c-3.4,1.8-9.2,6.4-12.5,9.7c-11.7,13.1-23.1,20.1-35.4,36.5c-3.5,3.3-8.6,9.2-13.4,14.2
	c0.5,0.5,0.9,0.9,1.1,1.1c-0.3-0.2-0.8-0.6-1.2-1c-0.2,0.2-0.3,0.3-0.5,0.5c5,6.3,10.3,13.5,12.8,14.7c18.3,20,36.4,40,57,57.9
	c-1.5,3-5.1,6.5-7.3,9.6c-1.1,1.4-2,3.1-3.2,1.8c-0.1-0.1-0.2-0.3-0.4-0.5c-0.2-0.3-0.3-0.6-0.5-0.9c0.6,0.7-0.4-0.7-0.7-1
	c0.1,0.1,0.1,0.2,0.2,0.3c-0.2-0.3-0.4-0.5-0.6-0.8c-0.1-0.1-0.1-0.2-0.1-0.1c-0.2-0.2-0.1-0.1,0,0c-3.2-3.9-1.7-2.3-6.4-7.2
	c-3.7-4.1,0.6,0.2,2.1,1.8c-0.8-1-1.2-1.3-2.1-2.3l0.1,0.1l-0.7-0.8c-1.8-3.4-6.4-9.2-9.7-12.5c-13.1-11.7-20.1-23.1-36.5-35.4
	c-3.8-4-10.9-10-16.3-15.5c-0.4-0.3-0.8-0.7-1.2-1.3c-0.3-0.4-0.7-0.7-1-1.1c-2.8-2.8-4.6-4.5-5.4-5.7c-6.6-2.6,21.2-19.4,23.8-24.6
	c20-18.3,40-36.4,57.9-57c3,1.5,6.5,5.1,9.6,7.3C201.8,60.5,203.5,61.4,202.2,62.6z"/>
</svg>
