<?xml version="1.0" encoding="utf-8"?>
<!-- Generator: Adobe Illustrator 26.2.1, SVG Export Plug-In . SVG Version: 6.00 Build 0)  -->
<svg version="1.0" id="Layer_1" xmlns="http://www.w3.org/2000/svg" xmlns:xlink="http://www.w3.org/1999/xlink" x="0px" y="0px"
	 viewBox="0 0 285.2 250.1" style="enable-background:new 0 0 285.2 250.1;" xml:space="preserve">
<style type="text/css">
	.st0{fill:#3B4349;}
	.st1{fill:none;}
</style>
<g>
	<path class="st0" d="M283.2,143.9C283.2,143.9,283.2,143.9,283.2,143.9C283.2,143.9,283.2,143.9,283.2,143.9z"/>
	<path class="st1" d="M7.8,99.5c0.1,0.1,0.1,0.1,0.1,0.1C7.9,99.6,7.9,99.6,7.8,99.5L7.8,99.5z"/>
	<polygon class="st1" points="2.2,150.6 2.3,150.7 2.2,150.6 	"/>
	<path class="st1" d="M230.8,25.2c-0.2-0.1-0.5-0.3-0.8-0.5C230.3,24.8,230.6,25,230.8,25.2z"/>
	<path class="st1" d="M282.6,143.8l0.1,0c-0.1,0-0.3-0.1-0.5-0.1C282.2,143.7,282.6,143.8,282.6,143.8z"/>
	<path class="st0" d="M230.9,25.3C230.9,25.2,230.9,25.2,230.9,25.3c-0.1,0-0.1-0.1-0.1-0.1C230.9,25.2,230.9,25.2,230.9,25.3z"/>
	<path class="st0" d="M8,99.6C8,99.7,8,99.7,8,99.6L8,99.6z"/>
	<path class="st0" d="M240.3,34.3C240.3,34.3,240.3,34.3,240.3,34.3C240.3,34.3,240.2,34.2,240.3,34.3c-0.3-0.3-0.5-0.5-0.8-0.7
		C239.8,33.8,240,34,240.3,34.3C240.2,34.2,240.2,34.3,240.3,34.3C189.2-13.9,93.4-6.7,49.5,33.1C29,49.5,11.8,72.7,6.3,95l0.2-1.2
		c-24.9,58.1,21.2,137.5,90.7,150.9c0.8,0.2,1.9,0.8,2.8,0.9c0,0,0,0,0,0c0.2,0,0.4,0,0.6,0c-0.2,0-0.3,0-0.5,0
		c0.4,0.1,1.2,0.3,1.9,0.5c-0.9-0.5-1.7-1.1-0.9-0.6c0.4-0.2,2.6,1.3,3.2,0.4c0,0,0,0,0,0c0,0,0,0,0,0c-0.1,0.3-0.5,0.8-0.2,0.3
		c-0.1,0.2-0.4,0.3-0.6,0.3c0.3,0.1,0.4,0.2,0.1,0.2c1.7,0.3,3.5,0.7,5.2,0.9c-0.9-0.2-5.6-0.8-4.3-1.3c6.3,1.4,9.6,2.7,15.7,3
		c0.5,0,1,0,1.7,0c-0.6,0-1.1,0-1.7,0c-10.1-0.3,3.5,0.4,10.1,0.5c-0.9,0.1,1.1,0.1,2.4,0.2c0.2,0,0.5,0,0.7,0c-0.1,0-0.4,0-0.7,0
		c-0.2,0-0.4,0-0.6,0c1,0.1,6.6,0.2,3.6,0c4.2,0,10.6,0.2,7.8,0c-3-0.1-4.6-0.2-1.5-0.2c1.7,0,3.4,0.1-1.4-0.3
		c3.5,0.5-19.1-1.4-22.5-1.7c-2,0-1.1,0-3.2-0.1c-0.4-2.3-8.2-1.3-9.6-3.2c25.4,7.2,57.9,6,85.5-3.6c-13.5,5.2-27.3,8.2-41.7,8.2
		c41.6,3.6,114.2-27,131.6-91.6C293.9,117.4,277.4,64.6,240.3,34.3z M0.5,136.8L0.5,136.8l0.1,0.1L0.5,136.8z M11.1,86.6
		C11,86.6,11,86.6,11.1,86.6C11,86.6,11,86.6,11.1,86.6z M7.5,91.5C7.5,91.5,7.5,91.5,7.5,91.5C7.5,91.5,7.5,91.5,7.5,91.5z
		 M11,86.6L11,86.6c0,0,0.1,0.1,0.1,0.1c0,0,0,0,0,0C11.1,86.6,11.1,86.6,11,86.6z M103.9,246.6
		C103.9,246.5,103.9,246.5,103.9,246.6C103.9,246.5,103.9,246.5,103.9,246.6z M139,249.8c1,0,0.8,0.1-0.1,0
		C138.7,249.8,138.7,249.8,139,249.8z M132.7,249.8c-0.3,0-0.6,0-0.8,0c4.1,0.3,7.1,0.1,11.6,0.3c-0.4,0-1.2,0-1.8-0.1
		c1.6,0.1-12.2-0.2-12.1-0.3C130.3,249.7,131.5,249.7,132.7,249.8z M185.6,7.2C185.6,7.2,185.6,7.2,185.6,7.2
		C185.6,7.2,185.6,7.2,185.6,7.2z M182.1,7.8c-0.1,0.1-0.2,0.2-0.2,0.2C181.9,7.9,182,7.8,182.1,7.8z M95.8,63.5
		c0.2-0.2,0.5-0.5,0.7-0.7C96.3,63,96.1,63.3,95.8,63.5c-4.2,4.3-6.8,6.4-11.5,9.9c0.5-0.3-0.4,0.3-0.4,0.5c0,0.6-0.2,1.1-0.1,1.1
		C82.9,72.2,91.9,67.2,95.8,63.5z M93.8,87.4c-1.5-2-10.3-11.7-9.4-11.2C84.1,75.7,95.3,88,93.8,87.4z M85.2,76.5
		C85.3,76.6,85.3,76.6,85.2,76.5C84.8,76.2,84.9,76.2,85.2,76.5z M83.8,75.3c0-0.3,0.2-0.1,0.3,0C85.7,76.8,84.1,75.7,83.8,75.3z
		 M83.9,75.1C83.8,75.1,83.8,75,83.9,75.1C83.9,75.1,83.9,75.1,83.9,75.1z M96.2,244.2c-1.2-0.4-2.5-0.9-3.7-1.3
		C93.6,243.3,99.7,244.8,96.2,244.2z M97.4,244.4C97.4,244.4,97.4,244.4,97.4,244.4C97.5,244.4,97.5,244.4,97.4,244.4z M100,245.4
		c-0.9-0.1-1.8-0.6-2.4-1.1c0.1-0.2,0.6-0.1,0.3,0.1c0.6,0.1,3.1,0.9,2.6,0.8C101,245.7,100.4,245.5,100,245.4z M98.1,244L98.1,244
		c0.1-0.1,0.1-0.2,0.1-0.3C98.2,243.9,98.1,243.9,98.1,244z M98.5,243.5C98.5,243.5,98.5,243.5,98.5,243.5
		C98.5,243.5,98.5,243.5,98.5,243.5C98.5,243.5,98.5,243.5,98.5,243.5C98.5,243.5,98.5,243.5,98.5,243.5
		C98.4,243.5,98.4,243.5,98.5,243.5C98.4,243.5,98.5,243.5,98.5,243.5L98.5,243.5L98.5,243.5z M98.5,243.5
		C98.5,243.5,98.5,243.5,98.5,243.5C98.5,243.5,98.5,243.5,98.5,243.5z M98.5,243.5C98.5,243.4,98.5,243.4,98.5,243.5
		C98.6,243.4,98.5,243.4,98.5,243.5C98.5,243.4,98.5,243.4,98.5,243.5z M101.2,245.2C101.2,245.2,101.2,245.2,101.2,245.2
		C101.2,245.2,101.2,245.2,101.2,245.2C101.2,245.2,101.2,245.2,101.2,245.2z M101.2,245.1c0-0.1,0-0.1,0-0.2
		C101.2,245,101.2,245.1,101.2,245.1z M101.2,245C101.2,245,101.2,244.9,101.2,245c0-0.1,0.1-0.2,0.1-0.2
		C101.3,244.8,101.2,244.9,101.2,245z M101.3,244.6L101.3,244.6L101.3,244.6L101.3,244.6z M101.3,244.7L101.3,244.7
		C101.3,244.7,101.3,244.7,101.3,244.7L101.3,244.7z M101.4,244.6C101.4,244.6,101.4,244.6,101.4,244.6
		C101.4,244.6,101.4,244.6,101.4,244.6C101.4,244.6,101.4,244.6,101.4,244.6z M101.4,244.5C101.4,244.5,101.4,244.5,101.4,244.5
		C101.4,244.5,101.4,244.5,101.4,244.5z M169.1,144.3c0,0-0.1-0.1-0.1-0.1c0.1,0.1,0.2,0.2,0.3,0.3
		C169.2,144.4,169.1,144.4,169.1,144.3c6,9.1,25.2,24.5,30.1,32.8c-16.4,11.6-12.1,18.8-23.8,3.9c-7.1-7.9-15.4-20-20.8-26.2
		c-3.9-6.3-7.7-11.7-11.6-16.6c-9.1,9.4-17.3,18.7-28,28.1c-5.1,5-12.5,14-15.3,19.2l-1.1,1.2l0.1-0.2c-1.3,1.4-1.9,1.8-3.2,3.5
		c2.3-2.5,9.1-9,3.2-2.7c-7.9,8.1-4.6,4.7-11.3,12.5c0.1-0.2,0.3-0.4,0.4-0.5c-0.4,0.4-2.1,2.6-1.1,1.5c-2.9,5.4-4.3,2.2-6.3-0.5
		c-3.2-4.7-8.5-10-10.6-14.5c22.1-18.9,42.6-39.2,62.6-60c-6.4-7.2-12.8-14-19.1-22.6c-3.8-4.6-10.9-11.4-15.1-14l-1-1l0.1,0.1
		c-1.1-1.2-1.4-1.8-2.7-2.9c1.9,2.1,6.9,8.2,2.1,2.9c-6.2-7.2-3.6-4.2-9.7-10.2c0.2,0.1,0.3,0.2,0.4,0.4c-0.3-0.3-2-1.9-1.2-1
		c-0.3-0.3-0.7-0.6-1.1-0.9c1.1,1,2.9,2.7,2.9,2.8c-0.2-0.2-0.6-0.5-1-0.9c0.8,0.6-1.1-1.1-1.5-1.5c0.2,0.4-1.4-1.2-1.8-1.6
		c0.1,0.1,0.4,0.4,0.6,0.6c0,0,0,0,0,0c-0.6-0.5-0.9-1.1-0.3-1.8c5.4-3.3,11.4-7.8,17-10.9c12.7,18.2,26.9,35.2,41.5,51.9
		c5.7-6,11.4-12.1,17-18.1c0,0,0,0-0.1,0c0.1-0.1,0.2-0.2,0.4-0.4c-0.1,0.1-0.2,0.2-0.3,0.3c8.1-4.1,35.5-47.2,38.8-36.3
		c12.6,14.8,18.7,9,2.9,24c-8.7,9.2-22.2,20.3-29,27.4c-7.1,5.3-13.1,10.5-18.5,15.6C158.9,133.1,164,138.7,169.1,144.3z
		 M218.4,197.9L218.4,197.9C218.3,197.9,218.4,197.9,218.4,197.9C218.3,198.1,218.1,198.1,218.4,197.9z M216.7,141.4
		C216.7,141.4,216.7,141.4,216.7,141.4C216.7,141.4,216.7,141.4,216.7,141.4C216.7,141.4,216.7,141.4,216.7,141.4
		C216.9,141.2,216.5,141.6,216.7,141.4z M278.6,163.3C278.6,163.3,278.6,163.3,278.6,163.3C278.6,163.3,278.6,163.3,278.6,163.3z
		 M278.6,163.3C278.6,163.3,278.6,163.3,278.6,163.3C278.6,163.3,278.6,163.3,278.6,163.3z M279.7,160.7
		C279.7,160.7,279.7,160.7,279.7,160.7C279.7,160.7,279.7,160.7,279.7,160.7z M280.2,157.3c-0.1,0-0.4-0.1-0.4-0.1
		C280,157.2,280.2,157.3,280.2,157.3L280.2,157.3z"/>
</g>
</svg>
