<?xml version="1.0" encoding="utf-8"?>
<!-- Generator: Adobe Illustrator 26.2.1, SVG Export Plug-In . SVG Version: 6.00 Build 0)  -->
<svg version="1.1" id="Layer_1" xmlns="http://www.w3.org/2000/svg" xmlns:xlink="http://www.w3.org/1999/xlink" x="0px" y="0px"
	 viewBox="0 0 285.2 250.1" style="enable-background:new 0 0 285.2 250.1;" xml:space="preserve">
<style type="text/css">
	.st0{fill:#3C4349;}
	.st1{fill:#FFFFFF;}
</style>
<path class="st0" d="M117,61.9L117,61.9c0.1-0.1,0.2-0.2,0.3-0.3C117.2,61.7,117.1,61.9,117,61.9z"/>
<path class="st0" d="M133.7,199.7L133.7,199.7c0.1,0.1,0.2,0.2,0.3,0.3C133.9,199.9,133.7,199.8,133.7,199.7z"/>
<path class="st1" d="M159.6,129.5c-18.7,17.6-42.7,40.6-67.2,63.2c-8.1,7.5-17.1,13.9-25.8,20.7c-2.1,1.6-4.6,2.9-7,3.9
	c-3.2,1.4-5.5,0.3-4.4-3c-3.8-4.1-2.8-8.2-0.3-10.6c29.6-28.5,62.8-57.9,89.9-88.8c18.1-20.6,36.3-41.2,54.6-61.6
	c8.6-9.5,19.8-10.1,24.1-1.6c2.8,5.3,0.6,12.4-5.9,19C200,88.5,182.4,106.3,159.6,129.5z"/>
<path class="st1" d="M109.5,86.8c21.5,18.8,43.2,37.6,64.5,56.7c18.2,16.3,33.7,34.6,46.1,55.1c0.9,1.6,1.9,3.4,2.5,5.1
	c1.6,4.2,3.5,8.6-0.1,11.6c-2.8,2.1-10.1,1.6-14-1.7c-13.6-11.5-27.9-22.5-40.6-35.2c-17.6-17.9-33.5-37.4-50.3-56.1
	c-18.8-20.8-29.4-29.1-48.5-49.6c-5.3-5.7-14.2-23.1-9.5-26.6c3.7-2.7,11.2-2.2,15.9,2.4c12.7,12.4,21.9,25.1,34.6,37.4
	C110,86.3,109.8,86.5,109.5,86.8z"/>
</svg>
