<?xml version="1.0" encoding="utf-8"?>
<!-- Generator: Adobe Illustrator 26.2.1, SVG Export Plug-In . SVG Version: 6.00 Build 0)  -->
<svg version="1.1" id="Layer_1" xmlns="http://www.w3.org/2000/svg" xmlns:xlink="http://www.w3.org/1999/xlink" x="0px" y="0px"
	 viewBox="0 0 387.2 389" style="enable-background:new 0 0 387.2 389;" xml:space="preserve">
<style type="text/css">
	.st0{fill:#3C4349;}
</style>
<path class="st0" d="M184.5,217.9c-16.5-0.6-47.7-1.7-78.9-2.5c-6.3-0.2-12.7,0.7-18.9,0.1c-10.7-0.9-16.5-11.1-13.4-19.8
	c2.3-6.2,8.3-10.1,15-9c45,7.6,90.2,6.8,135.5,5.8c27.7-0.7,55.3-2.9,83.1-4.5c12.9-0.7,20.8,6.3,20.7,18.4c-0.1,12-8.1,19-21,18.3
	C270.9,222.7,235,220.7,184.5,217.9z"/>
<path class="st0" d="M218.8,129.3c-26.9-1.4-61.6-2.6-96.4-4.9c-11.5-0.7-22.9,4.9-34.3,2.8c-2.7-0.5-5.5-1.9-8.1-3.3
	c-3.3-1.9-4.3-17.9-0.9-20.2c3.3-2.3,7.6-4.9,11.3-4.8c43,1.6,85.6,3.7,128.5,0.2c28.6-2.3,57.3-4.6,85.9-6.5
	c13.4-0.8,22.1,10.2,18.9,23.3c-1.9,8.3-8.8,13.3-18.5,13.3C279,129.3,252.8,129.3,218.8,129.3z"/>
<path class="st0" d="M251.1,312.1c-28.8,1.9-57.6,0.9-86.5,2.4c-24.6,1.3-48.6-1.6-72-9.1c-1.8-0.6-3.8-1.5-5.4-2.4
	c-4.1-2.4-8.6-4.6-8.1-10.5c0.5-4.3,6.2-10.2,11.3-10.7c17.9-1.6,36-4.3,54.1-3.9c25.3,0.7,50.5,4.3,75.8,6.3
	c28.2,2.2,56.5,3.9,84.7,5.6c7.8,0.5,11.8,4.8,10.9,12c-0.7,5.6-4.2,11.6-10.9,11.6c-17.9,0-35.8,0-53.6,0
	C251.1,313,251.1,312.6,251.1,312.1z"/>
</svg>
