<?xml version="1.0" encoding="utf-8"?>
<!-- Generator: Adobe Illustrator 26.2.1, SVG Export Plug-In . SVG Version: 6.00 Build 0)  -->
<svg version="1.1" id="Layer_1" xmlns="http://www.w3.org/2000/svg" xmlns:xlink="http://www.w3.org/1999/xlink" x="0px" y="0px"
	 viewBox="0 0 120 120" style="enable-background:new 0 0 120 120;" xml:space="preserve">
<style type="text/css">
	.st0{fill:#FFFFFF;}
</style>
<g>
	<g>
		<path class="st0" d="M109.6,32.9c0-4.3,0-8.7,0.2-13c0-0.6-0.5-1.1-1.1-1.1c-0.6,0-1.1,0.5-1.1,1.1c0,0.6,0,1.3-0.1,1.9
			c-0.9-0.1-1.7-0.2-2.6-0.2c-0.8-0.1-1.6-0.1-2.4-0.1c-1.6-0.1-3.1-0.1-4.7-0.2c-2.5-0.1-4.9-0.2-7.4-0.2c-0.9,0-1.7,0-2.6,0
			c-3.6,0.1-7.1,0.2-10.7,0.3c-3.2,0.1-6.4,0.1-9.6,0.1c-2.6,0-5.3,0-7.9,0c-1.3,0-2.7,0-4.1-0.1c-1.9,0-3.8-0.1-5.7-0.1
			c-1,0-1.8,0.8-1.8,1.8c0,1,0.8,1.8,1.8,1.8c-0.2,1.4-0.5,2.8-0.8,4.3c-0.1,0.3,0.1,0.7,0.4,0.8c0,0,0.1,0,0.1,0
			c-0.1,1.2-0.1,2.3-0.2,3.5c-0.1,2-0.1,4.1-0.2,6.1c0,1.6-0.1,3.2-0.1,4.8c0,1.9-0.1,3.8-0.2,5.7c0,1.8-0.1,3.6-0.2,5.4
			c0,1.9-0.1,3.8-0.1,5.6c0,0.9,0,1.7,0,2.6c0,0.9,0,1.8,0.1,2.7c0,0.3,0.1,0.5,0.1,0.8c-0.1,0-0.2,0-0.3,0c-0.5,0-0.9,0.2-1.3,0.5
			c-0.3,0.3-0.5,0.8-0.5,1.3c0,0.5,0.2,1,0.5,1.3c0.3,0.3,0.8,0.6,1.3,0.5c2.7-0.2,5.4-0.4,8.1-0.6c1.8-0.1,3.6-0.2,5.4-0.3
			c3.6-0.2,7.2-0.2,10.8-0.2c3.6-0.1,7.2-0.2,10.8-0.4c1.8-0.1,3.6-0.2,5.4-0.5c2-0.2,3.9-0.5,5.9-0.8c1.3-0.2,2.7-0.4,4-0.6
			c1.3-0.2,2.7-0.3,4-0.4c1.4-0.1,2.8-0.1,4.2-0.1c0.4,0,0.7-0.1,1-0.4c0.6-0.1,1.1-0.6,1.1-1.3c-0.1-5.4,0-10.8,0.2-16.1
			c0-1.4,0.1-2.8,0.1-4.2c0-1.4,0-2.8,0-4.2C109.6,38.3,109.6,35.6,109.6,32.9z"/>
		<path d="M108.9,18.5c-0.6,0-1.1,0.5-1.1,1.1c0,0.6,0,1.3-0.1,1.9c-0.9-0.1-1.8-0.2-2.6-0.3c-0.8-0.1-1.6-0.1-2.4-0.1
			c-1.6-0.1-3.1-0.1-4.7-0.2c-2.5-0.1-4.9-0.2-7.4-0.2c-0.9,0-1.7,0-2.6,0c-3.6,0.1-7.2,0.2-10.7,0.3c-3.2,0.1-6.5,0.1-9.7,0.1
			c-2.7,0-5.3,0-8,0c-1.4,0-2.7,0-4.1-0.1c-1.9,0-3.8-0.1-5.7-0.1c-1,0-1.8,0.9-1.8,1.8c0,1,0.8,1.8,1.8,1.8
			c-0.2,1.4-0.5,2.9-0.8,4.3c-0.1,0.3,0.1,0.7,0.4,0.8c0,0,0.1,0,0.1,0c-0.1,1.2-0.1,2.4-0.2,3.5c-0.1,2.1-0.1,4.1-0.2,6.2
			c0,1.6-0.1,3.2-0.1,4.9c0,1.9-0.1,3.9-0.2,5.8c0,1.8-0.1,3.6-0.2,5.5c0,1.9-0.1,3.8-0.1,5.7c0,0.9,0,1.7,0,2.6
			c0,0.9,0,1.8,0.1,2.7c0,0.3,0.1,0.5,0.1,0.8c-0.1,0-0.2,0-0.3,0c-0.5,0-1,0.2-1.3,0.5c-0.3,0.4-0.5,0.8-0.5,1.3
			c0,0.5,0.2,1,0.5,1.3c0.3,0.3,0.8,0.6,1.3,0.5c2.7-0.2,5.4-0.4,8.1-0.6c1.8-0.1,3.7-0.2,5.5-0.3c3.6-0.2,7.3-0.2,10.9-0.2
			c3.6-0.1,7.2-0.2,10.8-0.4c1.8-0.1,3.7-0.3,5.5-0.5c2-0.2,4-0.5,5.9-0.8c1.4-0.2,2.7-0.4,4.1-0.6c1.4-0.2,2.7-0.3,4.1-0.4
			c1.4-0.1,2.8-0.1,4.3-0.1c0.4,0,0.7-0.1,1-0.4c0.6-0.1,1.1-0.6,1.1-1.3c-0.1-5.4,0-10.8,0.2-16.3c0-1.4,0.1-2.8,0.1-4.2
			c0-1.4,0-2.8,0-4.3c0-2.7,0-5.5-0.1-8.2c0-4.4,0-8.7,0.2-13.1C110,19,109.5,18.5,108.9,18.5z M107.4,36.7c0,2.8,0,5.5-0.1,8.3
			c0,2.8-0.2,5.5-0.3,8.3c-0.1,2.1-0.1,4.1-0.1,6.2c0,1,0,2,0,3c0,0.6,0,1.2,0.1,1.8c-0.6,0-1.3,0-1.9,0c-0.5,0-1,0-1.5,0
			c-1.3,0-2.6,0.1-3.9,0.3c-2.6,0.3-5.2,0.7-7.7,1c-1,0.1-1.9,0.2-2.9,0.3c-0.9,0.1-1.8,0.1-2.7,0.2c-1.9,0.1-3.7,0.2-5.6,0.3
			c-3.6,0.1-7.1,0.1-10.7,0.1c-1.7,0-3.5,0-5.2,0.1c-1.6,0-3.3,0.1-4.9,0.2c-3,0.1-6.1,0.4-9.1,0.6c-0.1-1.4-0.1-2.8-0.2-4.2
			c0-1.8,0-3.6,0-5.4c0-3.6,0.1-7.3,0.2-10.9c0-3.7,0-7.4,0.1-11.1c0-2,0.1-4.1,0.2-6.1c0.1-1.6,0.1-3.2,0.2-4.8
			C54.6,25,58.1,25,61.6,25c3.6,0,7.2,0,10.8,0c3.4,0,6.7-0.1,10.1-0.2c1.6-0.1,3.3-0.1,4.9-0.2c1.7-0.1,3.4-0.1,5.2-0.1
			c2.5,0,4.9,0,7.4,0c1.3,0,2.6,0,3.9-0.1c0.6,0,1.3-0.1,1.9-0.1c0.6,0,1.2-0.1,1.9-0.2C107.5,28.3,107.4,32.5,107.4,36.7z"/>
		<path d="M99,60.8c0.5-0.3,0.6-0.9,0.4-1.4c-0.5-1-1.1-1.9-1.7-2.8c-0.5-0.8-1-1.7-1.4-2.6c-0.5-1-1-1.9-1.5-2.9
			c-0.5-0.8-1-1.7-1.6-2.5c-0.5-0.8-1.1-1.7-1.6-2.5c-0.1-0.2-0.2-0.5-0.4-0.7c-0.2-0.3-0.4-0.7-0.7-0.9c-0.1-0.1-0.2-0.1-0.4-0.2
			c-0.2,0-0.3,0-0.5,0c-0.2,0-0.4,0.2-0.5,0.3c-0.2,0.2-0.4,0.3-0.6,0.5c-0.7,0.7-1.3,1.4-2,2.2c-0.7,0.8-1.3,1.6-1.9,2.4
			c-0.7,0.9-1.4,1.8-2.1,2.7c-0.6,0.7-1.1,1.4-1.7,2.1c-0.3,0.3-0.5,0.6-0.8,0.9c-0.4,0.5-0.8,0.9-1.3,1.3c-0.1,0.1-0.2,0.1-0.3,0.2
			c0,0,0,0,0,0c0,0-0.1-0.1-0.1-0.1c-0.2-0.3-0.3-0.5-0.5-0.8c-0.5-1.3-1.1-2.6-1.6-3.9c-0.1-0.2-0.3-0.5-0.6-0.6
			c0-0.1-0.1-0.2-0.1-0.3c-0.5-0.9-1-1.9-1.4-2.8c-0.4-0.9-0.9-1.7-1.3-2.6c-1-1.9-2.1-3.9-3.1-5.8c-0.5-0.9-1-1.8-1.5-2.7
			c-0.2-0.4-0.5-0.9-0.8-1.3c-0.2-0.3-0.4-0.6-0.6-0.9c-0.2-0.3-0.5-0.5-0.9-0.7c-0.2-0.1-0.4-0.1-0.5-0.1c0,0,0,0,0,0
			c-0.2,0-0.4,0.1-0.6,0.2c-0.2,0.1-0.4,0.2-0.6,0.4c-0.6,0.5-1.2,1-1.7,1.5c-0.5,0.6-1,1.1-1.6,1.7c-1.2,1.4-2.4,2.8-3.6,4.2
			c-0.2,0.2-0.3,0.5-0.3,0.8c0,0.2,0.1,0.4,0.2,0.6c-0.2,0.1-0.4,0.2-0.5,0.3c-0.3,0.3-0.4,0.7-0.4,1.1c-0.1,1.6-0.2,3.2-0.2,4.8
			c0,1.3,0,2.7,0,4c0,1.4,0.2,2.9,0.4,4.3c0.1,0.7,0.3,1.3,0.5,2c0,0,0,0,0,0c-0.2,0-0.4,0.1-0.6,0.1c-0.9,0.2-1.4,1.2-1.2,2.1
			c0.3,0.9,1.2,1.4,2.1,1.2c0.6-0.1,1.1-0.3,1.7-0.4c0.4-0.1,0.8-0.1,1.2-0.2c1.6-0.2,3.1-0.3,4.7-0.4c1.1,0,2.2-0.1,3.3-0.1
			c0.4,0.4,1,0.6,1.5,0.6c0.6,0,1.2-0.3,1.6-0.7c1.9,0,3.8-0.1,5.7-0.1c0.1,0.1,0.2,0.3,0.3,0.4c0.7,0.7,1.9,0.7,2.6,0
			c0.1-0.2,0.3-0.3,0.4-0.5c2.9-0.1,5.8-0.3,8.8-0.1c1.5,0.1,3.1,0.2,4.6,0.3c0.7,0.1,1.4,0.1,2.1,0.2c0.8,0.1,1.6,0.2,2.5,0.3
			c0.6,0.1,1.1-0.4,1.3-1C99.7,61.7,99.5,61.1,99,60.8z M59.8,59.8c-0.1-0.2-0.1-0.4-0.1-0.6c-0.1-0.4-0.2-0.7-0.3-1.1
			c0.1,0.2,0.3,0.3,0.4,0.4c0,0.1,0,0.2,0,0.3C59.8,59.2,59.8,59.5,59.8,59.8z M63.2,59.5c-0.1,0-0.2,0-0.2,0c-0.1,0-0.3,0-0.4,0
			c0,0,0,0,0,0c0.1-0.5,0.2-0.9,0.3-1.4c0-0.1,0.1-0.1,0.1-0.2c0.1-0.2,0.2-0.4,0.3-0.7c0,0.1,0,0.2-0.1,0.3
			C63.1,58.2,63,58.9,63.2,59.5z M63.3,39c-0.1,0-0.2,0-0.3,0.1c0,0,0,0-0.1,0c0.2-0.2,0.3-0.3,0.5-0.5C63.4,38.7,63.4,38.9,63.3,39
			z M65,36.5L65,36.5C65,36.5,65,36.5,65,36.5C65,36.5,65,36.5,65,36.5z M65.1,36.9C65.1,37,65,37,65,37c0.1-0.1,0.1-0.1,0.2-0.2
			c0,0,0,0.1,0.1,0.1C65.2,36.9,65.2,36.9,65.1,36.9z M69.2,58.2c0-0.2-0.1-0.4-0.2-0.5c0-0.3,0-0.5,0-0.8c0.1,0.4,0.2,0.9,0.4,1.3
			C69.3,58.1,69.2,58.1,69.2,58.2z M78.4,57.2C78.4,57.2,78.4,57.1,78.4,57.2c0,0,0.1,0,0.1,0C78.5,57.1,78.5,57.1,78.4,57.2z
			 M87.5,48.8c-0.1,0.2-0.2,0.4-0.3,0.6c-0.8,0.9-1.7,1.8-2.5,2.7c0.6-0.8,1.2-1.7,1.9-2.5c0,0,0,0.1-0.1,0.1c0.3-0.4,0.7-0.9,1-1.3
			C87.5,48.6,87.5,48.7,87.5,48.8z M89.7,46.1C89.7,46.1,89.7,46.1,89.7,46.1c0,0,0-0.1,0.1-0.1c0,0,0,0.1,0,0.1
			C89.8,46.2,89.8,46.1,89.7,46.1z"/>
		<path d="M101.6,33.5c-0.2-0.6-0.6-1.1-1-1.6c-0.1-0.1-0.2-0.2-0.3-0.3c-0.3-0.2-0.5-0.4-0.8-0.6c-0.3-0.2-0.7-0.3-1.1-0.4
			c-0.3-0.4-0.7-0.7-1.2-0.8c-0.9-0.2-1.9-0.5-2.8-0.5c-0.3,0-0.7,0-1,0.1c-0.6,0.1-1.2,0.4-1.7,0.7c-0.7,0.4-1.2,1-1.7,1.6
			c-0.1,0.3-0.3,0.5-0.4,0.8c-0.1,0.4-0.2,0.8-0.3,1.3c0,0.4,0,0.7,0.1,1.1c0.1,0.4,0.2,0.7,0.4,1.1c0.6,1.2,1.7,2.2,2.8,2.8
			c1.3,0.7,2.7,0.9,4.1,0.8c0.7-0.1,1.4-0.2,2-0.5c0.6-0.3,1.1-0.7,1.6-1.1c0.4-0.3,0.7-0.8,0.9-1.2c0.3-0.6,0.4-1.2,0.5-1.8
			c0-0.1,0-0.3,0-0.4C101.7,34.1,101.7,33.8,101.6,33.5z M95.7,34.3L95.7,34.3C95.7,34.3,95.7,34.3,95.7,34.3
			C95.7,34.3,95.7,34.3,95.7,34.3z"/>
	</g>
	<g>
		<path class="st0" d="M33.6,68.1c0,4.3,0,8.7-0.2,13c0,0.6,0.5,1.1,1.1,1.1c0.6,0,1.1-0.5,1.1-1.1c0-0.6,0-1.3,0.1-1.9
			c0.9,0.1,1.7,0.2,2.6,0.2c0.8,0.1,1.6,0.1,2.4,0.1c1.6,0.1,3.1,0.1,4.7,0.2c2.5,0.1,4.9,0.2,7.4,0.2c0.9,0,1.7,0,2.6,0
			c3.6-0.1,7.1-0.2,10.7-0.3c3.2-0.1,6.4-0.1,9.6-0.1c2.6,0,5.3,0,7.9,0c1.3,0,2.7,0,4.1,0.1c1.9,0,3.8,0.1,5.7,0.1
			c1,0,1.8-0.8,1.8-1.8c0-1-0.8-1.8-1.8-1.8c0.2-1.4,0.5-2.8,0.8-4.3c0.1-0.3-0.1-0.7-0.4-0.8c0,0-0.1,0-0.1,0
			c0.1-1.2,0.1-2.3,0.2-3.5c0.1-2,0.1-4.1,0.2-6.1c0-1.6,0.1-3.2,0.1-4.8c0-1.9,0.1-3.8,0.2-5.7c0-1.8,0.1-3.6,0.2-5.4
			c0-1.9,0.1-3.8,0.1-5.6c0-0.9,0-1.7,0-2.6c0-0.9,1.1-3.7,1.4-4.1c0.3-0.3-0.8-3.2-1.3-3.2c-2.7,0.2-5.4,0.4-8.1,0.6
			c-1.8,0.1-3.6,0.2-5.4,0.3c-3.6,0.2-7.2,0.2-10.8,0.2c-3.6,0.1-7.2,0.2-10.8,0.4c-1.8,0.1-3.6,0.2-5.4,0.5c-2,0.2-3.9,0.5-5.9,0.8
			c-1.3,0.2-2.7,0.4-4,0.6c-1.3,0.2-2.7,0.3-4,0.4c-1.4,0.1-2.8,0.1-4.2,0.1c-0.4,0-0.7,0.1-1,0.4c-0.6,0.1-1.1,0.6-1.1,1.3
			c0.1,5.4,0,10.8-0.2,16.1c0,1.4-0.1,2.8-0.1,4.2c0,1.4,0,2.8,0,4.2C33.6,62.7,33.6,65.4,33.6,68.1z"/>
		<path d="M34.4,82.5c0.6,0,1.1-0.5,1.1-1.1c0-0.6,0-1.3,0.1-1.9c0.9,0.1,1.8,0.2,2.6,0.3c0.8,0.1,1.6,0.1,2.4,0.1
			c1.6,0.1,3.1,0.1,4.7,0.2c2.5,0.1,4.9,0.2,7.4,0.2c0.9,0,1.7,0,2.6,0c3.6-0.1,7.2-0.2,10.7-0.3c3.2-0.1,6.5-0.1,9.7-0.1
			c2.7,0,5.3,0,8,0c1.4,0,2.7,0,4.1,0.1c1.9,0,3.8,0.1,5.7,0.1c1,0,1.8-0.9,1.8-1.8c0-1-0.8-1.8-1.8-1.8c0.2-1.4,0.5-2.9,0.8-4.3
			c0.1-0.3-0.1-0.7-0.4-0.8c0,0-0.1,0-0.1,0c0.1-1.2,0.1-2.4,0.2-3.5c0.1-2.1,0.1-4.1,0.2-6.2c0-1.6,0.1-3.2,0.1-4.9
			c0-1.9,0.1-3.9,0.2-5.8c0-1.8,0.1-3.6,0.2-5.5c0-1.9,0.1-3.8,0.1-5.7c0-0.9,0-1.7,0-2.6c0-0.9,0-1.8-0.1-2.7c0-0.3,1.9-3.7,1.6-4
			c-0.3-0.3-0.8-0.6-1.3-0.5c-2.7,0.2-5.4,0.4-8.1,0.6c-1.8,0.1-3.7,0.2-5.5,0.3c-3.6,0.2-7.3,0.2-10.9,0.2
			c-3.6,0.1-7.2,0.2-10.8,0.4c-1.8,0.1-3.7,0.3-5.5,0.5c-2,0.2-4,0.5-5.9,0.8c-1.4,0.2-2.7,0.4-4.1,0.6c-1.4,0.2-2.7,0.3-4.1,0.4
			c-1.4,0.1-2.8,0.1-4.3,0.1c-0.4,0-0.7,0.1-1,0.4c-0.6,0.1-1.1,0.6-1.1,1.3c0.1,5.4,0,10.8-0.2,16.3c0,1.4-0.1,2.8-0.1,4.2
			c0,1.4,0,2.8,0,4.3c0,2.7,0,5.5,0.1,8.2c0,4.4,0,8.7-0.2,13.1C33.2,82,33.7,82.5,34.4,82.5z M35.9,64.3c0-2.8,0-5.5,0.1-8.3
			c0-2.8,0.2-5.5,0.3-8.3c0.1-2.1,0.1-4.1,0.1-6.2c0-1,0-2,0-3c0-0.6,0-1.2-0.1-1.8c0.6,0,1.3,0,1.9,0c0.5,0,1,0,1.5,0
			c1.3,0,2.6-0.1,3.9-0.3c2.6-0.3,5.2-0.7,7.7-1c1-0.1,1.9-0.2,2.9-0.3C55.1,35,56,35,57,34.9c1.9-0.1,3.7-0.2,5.6-0.3
			c3.6-0.1,7.1-0.1,10.7-0.1c1.7,0,3.5,0,5.2-0.1c1.6,0,3.3-0.1,4.9-0.2c3-0.1,6.1-0.4,9.1-0.6c0.1,1.4,0.1,2.8,0.2,4.2
			c0,1.8,0,3.6,0,5.4c0,3.6-0.1,7.3-0.2,10.9c0,3.7,0,7.4-0.1,11.1c0,2-0.1,4.1-0.2,6.1c-0.1,1.6-0.1,3.2-0.2,4.8
			c-3.5-0.1-6.9-0.1-10.4-0.1c-3.6,0-7.2,0-10.8,0c-3.4,0-6.7,0.1-10.1,0.2c-1.6,0.1-3.3,0.1-4.9,0.2c-1.7,0.1-3.4,0.1-5.2,0.1
			c-2.5,0-4.9,0-7.4,0c-1.3,0-2.6,0-3.9,0.1c-0.6,0-1.3,0.1-1.9,0.1c-0.6,0-1.2,0.1-1.9,0.2C35.7,72.7,35.8,68.5,35.9,64.3z"/>
		<path d="M85.8,72c0.5-0.3,0.6-0.9,0.4-1.4c-0.5-1-1.1-1.9-1.7-2.8c-0.5-0.8-1-1.7-1.4-2.6c-0.5-1-1-1.9-1.5-2.9
			c-0.5-0.8-1-1.7-1.6-2.5c-0.5-0.8-1.1-1.7-1.6-2.5c-0.1-0.2-0.2-0.5-0.4-0.7c-0.2-0.3-0.4-0.7-0.7-0.9c-0.1-0.1-0.2-0.1-0.4-0.2
			c-0.2,0-0.3,0-0.5,0c-0.2,0-0.4,0.2-0.5,0.3c-0.2,0.2-0.4,0.3-0.6,0.5c-0.7,0.7-1.3,1.4-2,2.2c-0.7,0.8-1.3,1.6-1.9,2.4
			c-0.7,0.9-1.4,1.8-2.1,2.7c-0.6,0.7-1.1,1.4-1.7,2.1c-0.3,0.3-0.5,0.6-0.8,0.9c-0.4,0.5-0.8,0.9-1.3,1.3c-0.1,0.1-0.2,0.1-0.3,0.2
			c0,0,0,0,0,0c0,0-0.1-0.1-0.1-0.1c-0.2-0.3-0.3-0.5-0.5-0.8c-0.5-1.3-1.1-2.6-1.6-3.9c-0.1-0.2-0.3-0.5-0.6-0.6
			c0-0.1-0.1-0.2-0.1-0.3c-0.5-0.9-1-1.9-1.4-2.8c-0.4-0.9-0.9-1.7-1.3-2.6c-1-1.9-2.1-3.9-3.1-5.8c-0.5-0.9-1-1.8-1.5-2.7
			c-0.2-0.4-0.5-0.9-0.8-1.3c-0.2-0.3-0.4-0.6-0.6-0.9c-0.2-0.3-0.5-0.5-0.9-0.7c-0.2-0.1-0.4-0.1-0.5-0.1c0,0,0,0,0,0
			c-0.2,0-0.4,0.1-0.6,0.2c-0.2,0.1-0.4,0.2-0.6,0.4c-0.6,0.5-1.2,1-1.7,1.5c-0.5,0.6-1,1.1-1.6,1.7c-1.2,1.4-2.4,2.8-3.6,4.2
			c-0.2,0.2-0.3,0.5-0.3,0.8c0,0.2,0.1,0.4,0.2,0.6c-0.2,0.1-0.4,0.2-0.5,0.3c-0.3,0.3-0.4,0.7-0.4,1.1c-0.1,1.6-0.2,3.2-0.2,4.8
			c0,1.3,0,2.7,0,4c0,1.4,0.2,2.9,0.4,4.3c0.1,0.7,0.3,1.3,0.5,2c0,0,0,0,0,0c-0.2,0-0.4,0.1-0.6,0.1c-0.9,0.2-1.4,1.2-1.2,2.1
			c0.3,0.9,1.2,1.4,2.1,1.2c0.6-0.1,1.1-0.3,1.7-0.4c0.4-0.1,0.8-0.1,1.2-0.2c1.6-0.2,3.1-0.3,4.7-0.4c1.1,0,2.2-0.1,3.3-0.1
			c0.4,0.4,1,0.6,1.5,0.6c0.6,0,1.2-0.3,1.6-0.7c1.9,0,3.8-0.1,5.7-0.1c0.1,0.1,0.2,0.3,0.3,0.4c0.7,0.7,1.9,0.7,2.6,0
			c0.1-0.2,0.3-0.3,0.4-0.5c2.9-0.1,5.8-0.3,8.8-0.1c1.5,0.1,3.1,0.2,4.6,0.3c0.7,0.1,1.4,0.1,2.1,0.2c0.8,0.1,1.6,0.2,2.5,0.3
			c0.6,0.1,1.1-0.4,1.3-1C86.5,72.9,86.2,72.3,85.8,72z M46.6,71c-0.1-0.2-0.1-0.4-0.1-0.6c-0.1-0.4-0.2-0.7-0.3-1.1
			c0.1,0.2,0.3,0.3,0.4,0.4c0,0.1,0,0.2,0,0.3C46.5,70.4,46.5,70.7,46.6,71z M50,70.7c-0.1,0-0.2,0-0.2,0c-0.1,0-0.3,0-0.4,0
			c0,0,0,0,0,0c0.1-0.5,0.2-0.9,0.3-1.4c0-0.1,0.1-0.1,0.1-0.2c0.1-0.2,0.2-0.4,0.3-0.7c0,0.1,0,0.2-0.1,0.3
			C49.9,69.4,49.8,70.1,50,70.7z M50.1,50.2c-0.1,0-0.2,0-0.3,0.1c0,0,0,0-0.1,0c0.2-0.2,0.3-0.3,0.5-0.5
			C50.1,49.9,50.1,50,50.1,50.2z M51.8,47.7L51.8,47.7C51.8,47.7,51.8,47.7,51.8,47.7C51.8,47.7,51.8,47.7,51.8,47.7z M51.9,48.1
			c-0.1,0-0.1,0-0.1,0.1c0.1-0.1,0.1-0.1,0.2-0.2c0,0,0,0.1,0.1,0.1C52,48.1,51.9,48.1,51.9,48.1z M55.9,69.3c0-0.2-0.1-0.4-0.2-0.5
			c0-0.3,0-0.6,0-0.8c0.1,0.4,0.2,0.9,0.4,1.3C56.1,69.3,56,69.3,55.9,69.3z M65.2,68.3C65.2,68.3,65.2,68.3,65.2,68.3
			c0,0,0.1,0,0.1,0C65.3,68.3,65.2,68.3,65.2,68.3z M74.2,60c-0.1,0.2-0.2,0.4-0.3,0.6c-0.8,0.9-1.7,1.8-2.5,2.7
			c0.6-0.8,1.2-1.7,1.9-2.5c0,0,0,0.1-0.1,0.1c0.3-0.4,0.7-0.9,1-1.3C74.2,59.7,74.2,59.8,74.2,60z M76.5,57.3
			C76.4,57.3,76.4,57.3,76.5,57.3c0,0,0-0.1,0.1-0.1c0,0,0,0.1,0,0.1C76.6,57.3,76.5,57.3,76.5,57.3z"/>
		<path d="M88.3,47.5c-0.2-0.6-0.6-1.1-1-1.6c-0.1-0.1-0.2-0.2-0.3-0.3c-0.3-0.2-0.5-0.4-0.8-0.6c-0.3-0.2-0.7-0.3-1.1-0.4
			c-0.3-0.4-0.7-0.7-1.2-0.8c-0.9-0.2-1.9-0.5-2.8-0.5c-0.3,0-0.7,0-1,0.1c-0.6,0.1-1.2,0.4-1.7,0.7c-0.7,0.4-1.2,1-1.7,1.6
			c-0.1,0.3-0.3,0.5-0.4,0.8c-0.1,0.4-0.2,0.8-0.3,1.3c0,0.4,0,0.7,0.1,1.1c0.1,0.4,0.2,0.7,0.4,1.1c0.6,1.2,1.7,2.2,2.8,2.8
			c1.3,0.7,2.7,0.9,4.1,0.8c0.7-0.1,1.4-0.2,2-0.5c0.6-0.3,1.1-0.7,1.6-1.1c0.4-0.3,0.7-0.8,0.9-1.2c0.3-0.6,0.4-1.2,0.5-1.8
			c0-0.1,0-0.3,0-0.4C88.5,48.1,88.4,47.8,88.3,47.5z M82.4,48.3L82.4,48.3C82.4,48.3,82.4,48.3,82.4,48.3
			C82.4,48.3,82.4,48.3,82.4,48.3z"/>
	</g>
	<g>
		<path class="st0" d="M73.1,63c0-4.3,0-8.7,0.2-13c0-0.6-0.5-1.1-1.1-1.1c-0.6,0-1.1,0.5-1.1,1.1c0,0.6,0,1.3-0.1,1.9
			c-0.9-0.1-1.7-0.2-2.6-0.2c-0.8-0.1-1.6-0.1-2.4-0.1c-1.6-0.1-3.1-0.1-4.7-0.2c-2.5-0.1-4.9-0.2-7.4-0.2c-0.9,0-1.7,0-2.6,0
			c-3.6,0.1-7.1,0.2-10.7,0.3c-3.2,0.1-6.4,0.1-9.6,0.1c-2.6,0-5.3,0-7.9,0c-1.3,0-2.7,0-4.1-0.1c-1.9,0-3.8-0.1-5.7-0.1
			c-1,0-1.8,0.8-1.8,1.8c0,1,0.8,1.8,1.8,1.8c-0.2,1.4-0.5,2.8-0.8,4.3c-0.1,0.3,0.1,0.7,0.4,0.8c0,0,0.1,0,0.1,0
			c-0.1,1.2-0.1,2.3-0.2,3.5c-0.1,2-0.1,4.1-0.2,6.1c0,1.6-0.1,3.2-0.1,4.8c0,1.9-0.1,3.8-0.2,5.7c0,1.8-0.1,3.6-0.2,5.4
			c0,1.9-0.1,3.8-0.1,5.6c0,0.9,0,1.7,0,2.6c0,0.9,0,1.8,0.1,2.7c0,0.3,0.1,0.5,0.1,0.8c-0.1,0-0.2,0-0.3,0c-0.5,0-0.9,0.2-1.3,0.5
			c-0.3,0.3-0.5,0.8-0.5,1.3c0,0.5,0.2,1,0.5,1.3c0.3,0.3,0.8,0.6,1.3,0.5c2.7-0.2,5.4-0.4,8.1-0.6c1.8-0.1,3.6-0.2,5.4-0.3
			c3.6-0.2,7.2-0.2,10.8-0.2c3.6-0.1,7.2-0.2,10.8-0.4c1.8-0.1,3.6-0.2,5.4-0.5c2-0.2,3.9-0.5,5.9-0.8c1.3-0.2,2.7-0.4,4-0.6
			c1.3-0.2,2.7-0.3,4-0.4c1.4-0.1,2.8-0.1,4.2-0.1c0.4,0,0.7-0.1,1-0.4c0.6-0.1,1.1-0.6,1.1-1.3c-0.1-5.4,0-10.8,0.2-16.1
			c0-1.4,0.1-2.8,0.1-4.2c0-1.4,0-2.8,0-4.2C73.1,68.4,73.1,65.7,73.1,63z"/>
		<path d="M72.4,48.7c-0.6,0-1.1,0.5-1.1,1.1c0,0.6,0,1.3-0.1,1.9c-0.9-0.1-1.8-0.2-2.6-0.3c-0.8-0.1-1.6-0.1-2.4-0.1
			c-1.6-0.1-3.1-0.1-4.7-0.2C58.9,51.1,56.5,51,54,51c-0.9,0-1.7,0-2.6,0c-3.6,0.1-7.2,0.2-10.7,0.3c-3.2,0.1-6.5,0.1-9.7,0.1
			c-2.7,0-5.3,0-8,0c-1.4,0-2.7,0-4.1-0.1c-1.9,0-3.8-0.1-5.7-0.1c-1,0-1.8,0.9-1.8,1.8c0,1,0.8,1.8,1.8,1.8
			c-0.2,1.4-0.5,2.9-0.8,4.3c-0.1,0.3,0.1,0.7,0.4,0.8c0,0,0.1,0,0.1,0c-0.1,1.2-0.1,2.4-0.2,3.5c-0.1,2.1-0.1,4.1-0.2,6.2
			c0,1.6-0.1,3.2-0.1,4.9c0,1.9-0.1,3.9-0.2,5.8c0,1.8-0.1,3.6-0.2,5.5c0,1.9-0.1,3.8-0.1,5.7c0,0.9,0,1.7,0,2.6
			c0,0.9,0,1.8,0.1,2.7c0,0.3,0.1,0.5,0.1,0.8c-0.1,0-0.2,0-0.3,0c-0.5,0-1,0.2-1.3,0.5c-0.3,0.4-0.5,0.8-0.5,1.3
			c0,0.5,0.2,1,0.5,1.3c0.3,0.3,0.8,0.6,1.3,0.5c2.7-0.2,5.4-0.4,8.1-0.6c1.8-0.1,3.7-0.2,5.5-0.3c3.6-0.2,7.3-0.2,10.9-0.2
			c3.6-0.1,7.2-0.2,10.8-0.4c1.8-0.1,3.7-0.3,5.5-0.5c2-0.2,4-0.5,5.9-0.8c1.4-0.2,2.7-0.4,4.1-0.6c1.4-0.2,2.7-0.3,4.1-0.4
			c1.4-0.1,2.8-0.1,4.3-0.1c0.4,0,0.7-0.1,1-0.4c0.6-0.1,1.1-0.6,1.1-1.3c-0.1-5.4,0-10.8,0.2-16.3c0-1.4,0.1-2.8,0.1-4.2
			c0-1.4,0-2.8,0-4.3c0-2.7,0-5.5-0.1-8.2c0-4.4,0-8.7,0.2-13.1C73.5,49.2,73,48.7,72.4,48.7z M70.9,66.8c0,2.8,0,5.5-0.1,8.3
			c0,2.8-0.2,5.5-0.3,8.3c-0.1,2.1-0.1,4.1-0.1,6.2c0,1,0,2,0,3c0,0.6,0,1.2,0.1,1.8c-0.6,0-1.3,0-1.9,0c-0.5,0-1,0-1.5,0
			c-1.3,0-2.6,0.1-3.9,0.3c-2.6,0.3-5.2,0.7-7.7,1c-1,0.1-1.9,0.2-2.9,0.3c-0.9,0.1-1.8,0.1-2.7,0.2c-1.9,0.1-3.7,0.2-5.6,0.3
			c-3.6,0.1-7.1,0.1-10.7,0.1c-1.7,0-3.5,0-5.2,0.1c-1.6,0-3.3,0.1-4.9,0.2c-3,0.1-6.1,0.4-9.1,0.6c-0.1-1.4-0.1-2.8-0.2-4.2
			c0-1.8,0-3.6,0-5.4c0-3.6,0.1-7.3,0.2-10.9c0-3.7,0-7.4,0.1-11.1c0-2,0.1-4.1,0.2-6.1c0.1-1.6,0.1-3.2,0.2-4.8
			c3.5,0.1,6.9,0.1,10.4,0.1c3.6,0,7.2,0,10.8,0c3.4,0,6.7-0.1,10.1-0.2c1.6-0.1,3.3-0.1,4.9-0.2c1.7-0.1,3.4-0.1,5.2-0.1
			c2.5,0,4.9,0,7.4,0c1.3,0,2.6,0,3.9-0.1c0.6,0,1.3-0.1,1.9-0.1c0.6,0,1.2-0.1,1.9-0.2C71,58.5,70.9,62.6,70.9,66.8z"/>
		<path d="M62.5,91c0.5-0.3,0.6-0.9,0.4-1.4c-0.5-1-1.1-1.9-1.7-2.8c-0.5-0.8-1-1.7-1.4-2.6c-0.5-1-1-1.9-1.5-2.9
			c-0.5-0.8-1-1.7-1.6-2.5c-0.5-0.8-1.1-1.7-1.6-2.5c-0.1-0.2-0.2-0.5-0.4-0.7c-0.2-0.3-0.4-0.7-0.7-0.9c-0.1-0.1-0.2-0.1-0.4-0.2
			c-0.2,0-0.3,0-0.5,0c-0.2,0-0.4,0.2-0.5,0.3c-0.2,0.2-0.4,0.3-0.6,0.5c-0.7,0.7-1.3,1.4-2,2.2c-0.7,0.8-1.3,1.6-1.9,2.4
			c-0.7,0.9-1.4,1.8-2.1,2.7c-0.6,0.7-1.1,1.4-1.7,2.1c-0.3,0.3-0.5,0.6-0.8,0.9c-0.4,0.5-0.8,0.9-1.3,1.3c-0.1,0.1-0.2,0.1-0.3,0.2
			c0,0,0,0,0,0c0,0-0.1-0.1-0.1-0.1c-0.2-0.3-0.3-0.5-0.5-0.8c-0.5-1.3-1.1-2.6-1.6-3.9c-0.1-0.2-0.3-0.5-0.6-0.6
			c0-0.1-0.1-0.2-0.1-0.3c-0.5-0.9-1-1.9-1.4-2.8c-0.4-0.9-0.9-1.7-1.3-2.6c-1-1.9-2.1-3.9-3.1-5.8c-0.5-0.9-1-1.8-1.5-2.7
			c-0.2-0.4-0.5-0.9-0.8-1.3c-0.2-0.3-0.4-0.6-0.6-0.9c-0.2-0.3-0.5-0.5-0.9-0.7c-0.2-0.1-0.4-0.1-0.5-0.1c0,0,0,0,0,0
			c-0.2,0-0.4,0.1-0.6,0.2c-0.2,0.1-0.4,0.2-0.6,0.4c-0.6,0.5-1.2,1-1.7,1.5c-0.5,0.6-1,1.1-1.6,1.7c-1.2,1.4-2.4,2.8-3.6,4.2
			c-0.2,0.2-0.3,0.5-0.3,0.8c0,0.2,0.1,0.4,0.2,0.6c-0.2,0.1-0.4,0.2-0.5,0.3c-0.3,0.3-0.4,0.7-0.4,1.1c-0.1,1.6-0.2,3.2-0.2,4.8
			c0,1.3,0,2.7,0,4c0,1.4,0.2,2.9,0.4,4.3c0.1,0.7,0.3,1.3,0.5,2c0,0,0,0,0,0c-0.2,0-0.4,0.1-0.6,0.1c-0.9,0.2-1.4,1.2-1.2,2.1
			c0.3,0.9,1.2,1.4,2.1,1.2c0.6-0.1,1.1-0.3,1.7-0.4c0.4-0.1,0.8-0.1,1.2-0.2c1.6-0.2,3.1-0.3,4.7-0.4c1.1,0,2.2-0.1,3.3-0.1
			c0.4,0.4,1,0.6,1.5,0.6c0.6,0,1.2-0.3,1.6-0.7c1.9,0,3.8-0.1,5.7-0.1c0.1,0.1,0.2,0.3,0.3,0.4c0.7,0.7,1.9,0.7,2.6,0
			c0.1-0.2,0.3-0.3,0.4-0.5c2.9-0.1,5.8-0.3,8.8-0.1c1.5,0.1,3.1,0.2,4.6,0.3c0.7,0.1,1.4,0.1,2.1,0.2c0.8,0.1,1.6,0.2,2.5,0.3
			c0.6,0.1,1.1-0.4,1.3-1C63.3,91.8,63,91.3,62.5,91z M23.4,90c-0.1-0.2-0.1-0.4-0.1-0.6C23.1,89,23,88.7,23,88.3
			c0.1,0.2,0.3,0.3,0.4,0.4c0,0.1,0,0.2,0,0.3C23.3,89.4,23.3,89.6,23.4,90z M26.8,89.6c-0.1,0-0.2,0-0.2,0c-0.1,0-0.3,0-0.4,0
			c0,0,0,0,0,0c0.1-0.5,0.2-0.9,0.3-1.4c0-0.1,0.1-0.1,0.1-0.2c0.1-0.2,0.2-0.4,0.3-0.7c0,0.1,0,0.2-0.1,0.3
			C26.7,88.4,26.6,89,26.8,89.6z M26.9,69.2c-0.1,0-0.2,0-0.3,0.1c0,0,0,0-0.1,0c0.2-0.2,0.3-0.3,0.5-0.5
			C26.9,68.9,26.9,69,26.9,69.2z M28.5,66.7L28.5,66.7C28.5,66.7,28.5,66.7,28.5,66.7C28.5,66.7,28.5,66.7,28.5,66.7z M28.7,67.1
			c-0.1,0-0.1,0-0.1,0.1c0.1-0.1,0.1-0.1,0.2-0.2c0,0,0,0.1,0.1,0.1C28.8,67.1,28.7,67.1,28.7,67.1z M32.7,88.3
			c0-0.2-0.1-0.4-0.2-0.5c0-0.3,0-0.6,0-0.8c0.1,0.4,0.2,0.9,0.4,1.3C32.8,88.3,32.8,88.3,32.7,88.3z M42,87.3
			C42,87.3,42,87.3,42,87.3c0,0,0.1,0,0.1,0C42,87.3,42,87.3,42,87.3z M51,79c-0.1,0.2-0.2,0.4-0.3,0.6c-0.8,0.9-1.7,1.8-2.5,2.7
			c0.6-0.8,1.2-1.7,1.9-2.5c0,0,0,0.1-0.1,0.1c0.3-0.4,0.7-0.9,1-1.3C51,78.7,51,78.8,51,79z M53.3,76.3
			C53.2,76.3,53.2,76.3,53.3,76.3c0,0,0-0.1,0.1-0.1c0,0,0,0.1,0,0.1C53.3,76.3,53.3,76.3,53.3,76.3z"/>
		<path d="M65.1,63.6c-0.2-0.6-0.6-1.1-1-1.6c-0.1-0.1-0.2-0.2-0.3-0.3c-0.3-0.2-0.5-0.4-0.8-0.6c-0.3-0.2-0.7-0.3-1.1-0.4
			c-0.3-0.4-0.7-0.7-1.2-0.8c-0.9-0.2-1.9-0.5-2.8-0.5c-0.3,0-0.7,0-1,0.1c-0.6,0.1-1.2,0.4-1.7,0.7c-0.7,0.4-1.2,1-1.7,1.6
			c-0.1,0.3-0.3,0.5-0.4,0.8c-0.1,0.4-0.2,0.8-0.3,1.3c0,0.4,0,0.7,0.1,1.1c0.1,0.4,0.2,0.7,0.4,1.1c0.6,1.2,1.7,2.2,2.8,2.8
			c1.3,0.7,2.7,0.9,4.1,0.8c0.7-0.1,1.4-0.2,2-0.5c0.6-0.3,1.1-0.7,1.6-1.1c0.4-0.3,0.7-0.8,0.9-1.2c0.3-0.6,0.4-1.2,0.5-1.8
			c0-0.1,0-0.3,0-0.4C65.2,64.2,65.2,63.9,65.1,63.6z M59.2,64.5L59.2,64.5C59.2,64.5,59.2,64.5,59.2,64.5
			C59.2,64.5,59.2,64.5,59.2,64.5z"/>
	</g>
</g>
</svg>
