<?xml version="1.0" encoding="utf-8"?>
<!-- Generator: Adobe Illustrator 26.2.1, SVG Export Plug-In . SVG Version: 6.00 Build 0)  -->
<svg version="1.1" id="Layer_1" xmlns="http://www.w3.org/2000/svg" xmlns:xlink="http://www.w3.org/1999/xlink" x="0px" y="0px"
	 viewBox="0 0 984 984" style="enable-background:new 0 0 984 984;" xml:space="preserve">
<style type="text/css">
	.st0{fill:#FFFFFF;}
	.st1{fill:#2D3748;}
	.st2{fill:#2D3748;stroke:#2D3748;}
</style>
<rect class="st0" width="984" height="984"/>
<g>
	<polygon class="st1" points="264.7,96.7 288.7,96.7 288.7,72 264.7,72 264.7,48 240,48 240,72 240,72.7 240,96 240,96.7 240,120.7 
		264.7,120.7 	"/>
	<polygon class="st1" points="288,144 288,144.7 288,168.7 312,168.7 312.7,168.7 336.7,168.7 336.7,144.7 336.7,144 336.7,120.7 
		360.7,120.7 360.7,96.7 384,96.7 384,120.7 408.7,120.7 408.7,96.7 432,96.7 432.7,96.7 456.7,96.7 456.7,72 432.7,72 432.7,48 
		408.7,48 408,48 384.7,48 384,48 360.7,48 360,48 336,48 336,72 336,72.7 336,96 336,96.7 336,120 312.7,120 312,120 288,120 	"/>
	<path class="st1" d="M888,264.7h0.7H912h0.7h24V240h-24H912h-23.3H888h-24v24h-24v24h-24v24.7h24V336h-24v24h-23.3v-23.3V336v-23.3
		V312v-23.3V288v-23.3h24V240h-24H792h-23.3H768h-23.3v-23.3V216v-23.3V192v-24h-24H720h-24v24h-24v24v0.7v24h24.7v-24V216v-23.3
		H720V216v0.7v24h24V264h-23.3H720h-23.3H696h-23.3H672h-23.3H648h-23.3v-23.3V240v-23.3h24v-24V192v-23.3V168v-23.3H672h0.7H696
		h0.7h24v-24h24v-24V96V72.7V72V48H720v24h-23.3H696h-24v24v0.7V120h-23.3V96H624v24v0.7V144h-23.3H600h-24v24.7h24h0.7H624V192v0.7
		V216h-23.3v-24H576v24v0.7v24h24v24h24V288h-23.3H600h-24v24h-24v24h-23.3v-23.3V312v-23.3h24v-24V264v-24h-24v-23.3h24V192h-24
		v-24h-24v-23.3h24v-24H552h0.7h24V96h-24V72.7H576h0.7H600h0.7h24V48h-24H600h-23.3H576h-24v24h-23.3V48H504v24h-24v24v0.7v24h24
		V144h-23.3H480h-23.3v-24H432v24v0.7v24h24h0.7H480V192v0.7V216v0.7v24h24v24h24V288h-23.3H504h-23.3H480h-23.3v-23.3V264v-24h-24
		v-23.3h24V192H432v24h-23.3v-23.3V192v-24h-24v-24H360v24v0.7V192h-24v24h-23.3v-24H288v24v0.7v24h24h0.7H336V264h-24v24.7h24V312
		h-24v24h-23.3v-23.3V312v-24h-24v-23.3V264v-23.3V240v-23.3V216v-23.3V192v-24H240v24v0.7V216v0.7V240v0.7V264h-23.3v-24H192v24
		h-23.3v-24h-24H144h-23.3H120H96v24v0.7V288H72.7v-24H48v24.7h24V312v0.7V336H48v24v0.7v24h24.7v-24H96v24h24V408H96.7H96H72.7H72
		H48v24.7h24V456H48v24v0.7v24h24V528H48v24v0.7V576v0.7V600v0.7V624v0.7V648v0.7V672v0.7V696v0.7V720v0.7v24h24.7v-24V720v-23.3
		V696v-23.3V672v-23.3H96h0.7H120v24h24V696v0.7V720v0.7v24h24.7v-24H192v24h24h0.7H240v24h24h0.7H288V792h-24v24h-24v24v0.7V864
		v0.7v24h24v24h24.7V888h-24v-23.3V864v-23.3H288v24h24v24h24V912v0.7v24h24.7v-24H384v24h24.7v-24h24v-24H456h0.7H480V912h-24v24.7
		h24h0.7h24v-24V912v-24h-24v-24h-24H456h-23.3H432h-23.3H408h-23.3H384h-23.3v-23.3V840v-23.3H384h0.7H408v24h24h0.7h24v-24V816
		v-23.3V792v-23.3H480V792v0.7V816v0.7v24h24h0.7H528V864v0.7v24h24h0.7H576V912h-23.3H552h-24v24.7h24h0.7H576h0.7h24v-24V912v-24
		h-24v-23.3h24v-24H624v24h24h0.7H672v24h24V912h-23.3H672h-23.3v-24H624v24v0.7v24h24h0.7H672h0.7H696h0.7h24v-24H744v24h24h0.7
		H792h0.7H816h0.7H840h0.7H864h0.7H888h0.7H912h0.7h24v-24V912v-23.3V888v-24H912v24v0.7V912h-23.3H888h-23.3H864h-23.3v-24h-24
		v-23.3H840h0.7H864v24h24.7v-24V864v-23.3V840v-23.3H912h0.7h24v-24V792v-24h-24H912h-24v24v0.7V816h-24v24h-23.3v-23.3V816v-23.3
		h24V768h-24v-23.3V744v-24h-24H816h-23.3H792h-23.3v-23.3H792h0.7h24v-24V672v-23.3H840h0.7H864V672v0.7v24h24h0.7H912v24h24.7v-24
		V696v-24h-24v-23.3V648v-23.3V624v-23.3h24V576H912v24h-23.3v-24h-24v-23.3H888h0.7H912h0.7h24v-24V528v-23.3V504v-24h-24H912
		h-23.3v-23.3V456v-23.3h24v-24h24V384h-24H912h-23.3v-23.3H912h0.7h24v-24V336v-23.3V312v-24h-24H912h-23.3H888h-23.3v-23.3H888z
		 M720,96.7V120h-23.3V96.7H720z M864,312h-23.3v-23.3H864V312z M888,408.7V432h-24v24h-23.3v-23.3V432v-23.3h24v-24H888V408V408.7z
		 M840,480h-23.3v-23.3H840V480z M696.7,456.7V456v-23.3h24v-24V408v-23.3H744v24h24V432h-24v24h-24v24h-23.3V456.7z M792.7,432
		v-23.3H816V432H792.7z M792,384h-23.3v-23.3H792V384z M720.7,480.7H744V504h-23.3V480.7z M768.7,504.7V504v-24h-24v-23.3H768h0.7
		H792V480v0.7V504v0.7V528h-23.3V504.7z M840,384v0.7V408h-23.3v-23.3V384v-23.3H840V384z M720,288.7h0.7h24v-24H768V288v0.7V312
		v0.7V336h-23.3v-24H720v24.7h24V360h-24v24h-23.3v-23.3V360v-23.3V336v-23.3V312v-23.3H720z M528,192.7V216h-23.3v-23.3H528z
		 M528,96.7V120h-23.3V96.7H528z M384,216h-23.3v-23.3H384V216z M360,240h-23.3v-23.3H360V240z M384.7,216.7H408V240h-23.3V216.7z
		 M264,360v24h-23.3v-23.3V360v-23.3H264h0.7H288V360H264z M312.7,576.7H336V600h-23.3V576.7z M168.7,576.7H192V600h-23.3V576.7z
		 M96,480.7V504H72.7v-23.3H96z M120.7,480.7V480v-23.3V456v-23.3V432v-23.3H144V432v0.7V456v0.7v24h24h0.7H192V504h-23.3H168h-23.3
		H144h-23.3V480.7z M120.7,336.7H144V360h-23.3V336.7z M192.7,264.7H216V288h-23.3V264.7z M192.7,456.7H216h0.7H240V480h-23.3H216
		h-23.3V456.7z M240.7,432H240h-23.3H216h-23.3H192h-23.3v-23.3H192h0.7h24v-24H240v24h24V432H240.7z M144.7,288.7H168V312h-23.3
		V288.7z M192.7,312.7H216V336h-23.3V312.7z M144.7,384v-23.3h24v-24H192v24h24V384h-23.3H192h-24v24h-23.3v-23.3V384z M192.7,600.7
		H216h0.7H240V624h-23.3H216h-23.3V600.7z M240,528.7V552v0.7V576h-23.3H216h-23.3v-23.3h24V528h-24v-23.3H216h0.7H240V528V528.7z
		 M240,312h-23.3v-23.3H240V312z M96.7,312v-23.3H120V312v0.7V336H96.7v-23.3V312z M120.7,648v-24h-24H96H72.7v-23.3H96h0.7h24V576
		h-24v-24h-24v-23.3H96h0.7H120h0.7H144v24h24V576h-24v24.7h24V624h-24v24H120.7z M240.7,744v-24h-24H216h-23.3v-23.3h24V672H192v24
		h-23.3v-23.3V672v-23.3V648v-23.3H192v24h24h0.7H240h0.7h24v-24V624v-23.3H288v24h24h0.7H336v24h24h0.7H384h0.7H408V672v0.7V696
		v0.7V720v0.7V744h-24v24h-24v24v0.7V816h-23.3H336h-23.3v-23.3V792v-23.3h24v-24h24V720h-24H336h-23.3v-23.3V696v-24h-24H288h-23.3
		H264h-24v24.7h24V720v0.7V744H240.7z M408.7,744.7H432V768h-23.3V744.7z M360,888h-23.3v-23.3H360V888z M336,864h-23.3v-23.3H336
		V864z M288.7,744v-23.3H312V744v0.7V768h-23.3v-23.3V744z M408,888.7V912h-23.3v-23.3H408z M384.7,792v-23.3H408V792H384.7z
		 M504.7,816v-23.3h24V768h-24v-24h-24v-24h-24v-24h-24v-23.3H456h0.7H480v24h24h0.7h24v-24h24v-24V648v-24H528v24v0.7V672h-23.3
		v-24h-24v-24H456v24h-23.3H432h-23.3v-24h-24H384h-23.3v-23.3V600v-23.3V576v-23.3V552v-23.3V528v-24h-24H336h-23.3H312h-24v24.7
		h24h0.7H336V552h-24v24h-23.3v-24h-24v-23.3V528v-23.3V504v-23.3H288h0.7h24V456h-24v-23.3h24V408h-24H288h-23.3v-23.3H288h0.7h24
		v-24H336V384v0.7v24h24.7v-24V384v-23.3V360v-23.3V336v-23.3V312v-23.3V288v-23.3H384h0.7H408h0.7H432v24h24V312h-24v24h-23.3H408
		h-24v24.7h24h0.7H432h0.7h24v-24V336v-23.3H480h0.7H504V336v0.7v24h24h0.7h24v-24H576h0.7h24v-24h24v-24H648v24h24V336h-23.3H648
		h-24v24.7h24V384h-24v24.7h24.7v-24H672h0.7H696V408h-24v24h-24v24h-24v24v0.7V504v0.7v24h24V552h-24v24.7h24V600h-24v24v0.7v24
		h24.7v-24H672v24h24V672h-23.3H672h-23.3H648h-23.3H624h-23.3v-23.3V648v-24H576v24v0.7v24h24V696h-24v24.7h24V744h-23.3H576h-23.3
		v-24H528v24.7h24V768v0.7V792v0.7V816h-23.3H528H504.7z M720.7,648.7H744h0.7H768V672v0.7V696h-23.3v-24h-24V648.7z M648,720h-23.3
		v-23.3H648h0.7H672h0.7H696V720h-23.3H672h-23.3H648z M720.7,720v-23.3H744V720H720.7z M552.7,840.7H576V864h-23.3V840.7z
		 M624.7,840v-23.3V816v-24h-24v-23.3H624h0.7h24v-24H672h0.7H696V768h-24v24.7h24.7v-24H720V792v0.7V816h-23.3H696h-23.3H672h-24
		v24H624.7z M816,864h-23.3v-23.3H816V864z M792,888h-23.3v-23.3H792V888z M768,864h-23.3v-23.3H768V864z M672.7,840.7H696h0.7H720
		V864v0.7V888h-23.3v-24h-24V840.7z M744.7,912v-23.3H768V912H744.7z M792.7,912v-23.3H816V912H792.7z M792,744.7h0.7H816V768v0.7
		V792v0.7V816h-23.3H792h-23.3H768h-23.3v-23.3V792v-23.3V768v-23.3H768h0.7H792z M816.7,624v-24H792v24v0.7V648h-23.3v-24h-24H744
		h-24v24h-23.3v-24h-24v-23.3H696h0.7h24V576h-24H696h-23.3v-23.3h24V528h-24H672h-23.3v-23.3V504v-23.3H672v24h24h0.7H720v24h24
		h0.7H768v24h24v24h24.7v-24H840V576v0.7V600v0.7V624H816.7z M888,600.7V624h-23.3v-23.3H888z M864.7,528H864h-23.3v-23.3V504v-23.3
		H864h0.7H888V504v0.7V528H864.7z M888,336h-23.3v-23.3H888V336z"/>
	<rect x="384" y="288" class="st1" width="24.7" height="24.7"/>
	<rect x="336" y="432" class="st1" width="24.7" height="24.7"/>
	<rect x="744" y="576" class="st1" width="24.7" height="24.7"/>
	<rect x="336" y="672" class="st1" width="24.7" height="24.7"/>
	<polygon class="st1" points="96,720 96,720.7 96,744.7 120.7,744.7 120.7,720.7 120.7,720 120.7,696 96,696 	"/>
	<rect x="864" y="720" class="st1" width="24.7" height="24.7"/>
	<rect x="768" y="768" class="st1" width="24.7" height="24.7"/>
</g>
<g>
	<g transform="translate(48,48)">
		<g transform="scale(12)">
			<path class="st1" d="M0,0v9.6C0,12,2,14,4.4,14h5.1C12,14,14,12,14,9.6V4.4C14,2,12,0,9.6,0H0z M9.2,12H4.8C3.3,12,2,10.7,2,9.2
				V2h7.2C10.7,2,12,3.3,12,4.8v4.4C12,10.7,10.7,12,9.2,12z"/>
		</g>
	</g>
	<g transform="translate(768,48)">
		<g transform="scale(12) rotate(90 7 7)">
			<path class="st1" d="M0,0v9.6C0,12,2,14,4.4,14h5.1C12,14,14,12,14,9.6V4.4C14,2,12,0,9.6,0H0z M9.2,12H4.8C3.3,12,2,10.7,2,9.2
				V2h7.2C10.7,2,12,3.3,12,4.8v4.4C12,10.7,10.7,12,9.2,12z"/>
		</g>
	</g>
	<g transform="translate(48,768)">
		<g transform="scale(12) rotate(-90 7 7)">
			<path class="st1" d="M0,0v9.6C0,12,2,14,4.4,14h5.1C12,14,14,12,14,9.6V4.4C14,2,12,0,9.6,0H0z M9.2,12H4.8C3.3,12,2,10.7,2,9.2
				V2h7.2C10.7,2,12,3.3,12,4.8v4.4C12,10.7,10.7,12,9.2,12z"/>
		</g>
	</g>
	<g transform="translate(96,96)">
		<g transform="scale(12)">
			<rect x="0.9" y="0.9" transform="matrix(0.7071 -0.7071 0.7071 0.7071 -1.2426 3)" class="st1" width="4.2" height="4.2"/>
		</g>
	</g>
	<g transform="translate(816,96)">
		<g transform="scale(12)">
			<rect x="0.9" y="0.9" transform="matrix(0.7071 -0.7071 0.7071 0.7071 -1.2426 3)" class="st1" width="4.2" height="4.2"/>
		</g>
	</g>
	<g transform="translate(96,816)">
		<g transform="scale(12)">
			<rect x="0.9" y="0.9" transform="matrix(0.7071 -0.7071 0.7071 0.7071 -1.2426 3)" class="st1" width="4.2" height="4.2"/>
		</g>
	</g>
</g>
<g>
	<g>
		<path class="st2" d="M440.5,450.9c0.9,0.9,1.6,1.4,2,1.4c0.2,0,0.4,0,0.6-0.1c0,0.6,0.2,0.9,0.6,0.9c0.1,0,0.2,0,0.3,0
			c0.2,0,0.3,0,0.3,0c0,0,0.1,0.1,0.3,0.1c0.2,0,0.4-0.2,0.6-0.5c0.2-0.5,0.4-0.8,0.4-0.8c0.2,0,0.5,0,1-0.1c0.4,0,0.7-0.1,0.9-0.1
			c0.8,0,1.4,0.2,1.6,0.6h0.8c0.3,1,0.5,2.1,0.5,3.2c0,0.8-0.1,2-0.3,3.6c-0.2,1.6-0.3,2.8-0.3,3.6c0,0.6,0,1.1,0.1,1.5
			c-0.1,0.2-0.5,0.4-1,0.5c-0.5,0.1-0.7,0.3-0.7,0.8c-0.1-0.3-0.6-0.5-1.4-0.5c-0.7,0-1.1-0.4-1.1-1.2c-0.1-0.2-0.8-1.2-1.9-3.1
			c-0.8-1.3-1.5-2.2-2.2-2.5c-0.3-0.1-0.6-0.2-1-0.3c-0.2-0.1-0.5-0.3-0.9-0.8c-0.4-0.4-0.7-0.6-1.1-0.6c-0.2,0-0.4,0-0.5,0.1
			c0-0.4-0.2-0.6-0.5-0.6c-0.1,0-0.3,0.1-0.4,0.2c-0.3,0.1-0.8,0.4-1.6,0.9c-0.6,0.3-1.2,0.5-1.8,0.5c-0.2,0-0.4,0-0.8-0.1
			c-0.9,0.6-1.3,1.5-1.3,2.8c0,0.6,0.1,1.5,0.4,2.8c0.6,0.9,0.9,1.4,1.1,1.6c0.4,0.4,1,0.6,1.8,0.6c0.4,0,0.7,0,0.9-0.1
			c0,0.4,0.1,0.7,0.3,0.7c0,0,0.3,0,0.8,0c0.3,0,0.6,0.1,1,0.4c0.4,0.3,0.7,0.4,1.1,0.4c0.2,0,0.5-0.1,0.7-0.2
			c0.1,0,0.4,0.2,0.7,0.6c0.3,0.2,0.5,0.4,0.8,0.4c0.1,0,0.2,0,0.3,0c0.1,0,0.2,0,0.3,0c0,0.3,0.2,0.5,0.7,0.5c0.1,0,0.3,0,0.5,0
			c0.2,0,0.4,0,0.5,0c0.6,0.5,1.5,0.8,2.6,0.8c1.1,0.7,2,1.2,2.5,1.7c1.3,1.1,2.4,2.7,3.3,4.7c0.9,2,1.3,3.9,1.3,5.6
			c0,2.2-0.5,3.9-1.4,5c-1.1,1.4-1.8,2.4-2,3c-0.7,0-1.3,0.4-1.7,1.3c-0.3,0.1-0.7,0.4-1.3,0.8c-0.5,0.4-1,0.6-1.5,0.6
			c-0.1,0-0.3,0-0.6-0.1c-0.3,0.4-0.8,0.6-1.6,0.6c-0.2,0-0.4,0-0.8,0c-0.3,0-0.6,0-0.8,0c-0.4,0-0.7,0.1-1.1,0.3
			c-0.4,0.2-0.6,0.3-0.8,0.3c-0.3,0-0.7-0.1-1.4-0.3c-0.6-0.2-1.1-0.3-1.5-0.3c-0.3,0-0.4,0-0.5,0.1c-0.9-0.8-1.6-1.3-2.2-1.3
			c0-0.3-0.4-0.4-1.2-0.4c-0.6-0.6-1.2-0.9-1.8-0.9c0,0.4-0.2,0.6-0.6,0.6c-0.4,0-0.7,0.1-0.7,0.3c0,0.1,0,0.3,0.1,0.4
			c-0.2,0-0.5,0-0.9,0c-0.4,0-0.7,0-0.9,0c-0.6,0-1-0.2-1.2-0.5c-0.5,0-0.7-0.3-0.9-0.9c-0.1-0.3-0.2-0.8-0.3-1.4
			c-0.1-0.8-0.2-1.9-0.2-3.5c0-1.5,0-2.7-0.1-3.4c-0.2-1.2-0.3-1.7-0.3-1.5c0-1.7,0.4-3,1.3-3.8c0.4,0,1.5,0.3,3.4,0.8
			c0.7,0.6,1.6,2.2,2.4,4.6c0.8,2.2,1.8,3.7,3.1,4.3c0.4-0.1,0.7-0.1,0.8-0.1c0.3,0,0.5,0.2,0.5,0.5c0.2,0,0.6,0,1.1,0
			c0.5,0,0.9,0,1.2,0c0.9,0,1.6-0.2,2-0.5v-1.3c0.2-0.3,0.5-0.5,1.1-0.7s0.9-0.3,1-0.6c0.1,0,0.2,0.1,0.3,0.1c0.3,0,0.5-0.2,0.7-0.5
			c0.2-0.3,0.5-0.5,0.7-0.5c0.1,0,0.2,0,0.3,0.1c0.2-1.1,0.4-2,0.4-2.7c0-0.9-0.1-1.8-0.4-2.4c-0.5-0.5-1-0.9-1.6-1.4
			c-0.5-0.5-1.1-0.7-1.8-0.7c0-0.5-0.3-0.7-0.9-0.8c-0.7-0.1-1.1-0.2-1.2-0.5c-0.3,0.2-0.5,0.2-0.8,0.2c-0.3,0-0.7-0.2-1.3-0.5
			c-0.6-0.4-1.1-0.5-1.5-0.5c-0.2,0-0.4,0-0.6,0.1c0-0.4-0.2-0.6-0.5-0.6c-0.1,0-0.2,0-0.4,0c-0.2,0-0.3,0-0.4,0
			c-0.2,0-0.3-0.1-0.3-0.4c-0.1,0-0.3,0.1-0.6,0.1c-0.6,0-1.2-0.2-1.8-0.7c-0.6-0.5-1.1-0.7-1.4-0.7c-1.1-0.9-2.4-2.3-3.8-4.2
			c-0.4-1-0.6-2.2-0.6-3.6c0-0.5,0.1-1,0.2-1.5c-0.2-0.3-0.3-0.5-0.3-0.6c0-0.2,0.1-0.5,0.3-0.8c0.2-0.4,0.3-0.6,0.3-0.8
			c0-0.2-0.1-0.5-0.3-0.7c2.7-4,4.8-6,6.4-6l0.4-0.9c1.3-0.3,2.6-0.4,3.9-0.4C437.8,450.5,439.2,450.6,440.5,450.9z"/>
		<path class="st2" d="M479.2,452.1c0.1,0,1.1,0.1,2.9,0.2c1.2,0.1,2.1,0.4,2.6,1.1c0.2,0,0.5,0.1,0.9,0.4c0.4,0.3,0.8,0.4,1.1,0.4
			c0.3,0,0.8-0.2,1.4-0.5c0.6-0.3,1.1-0.5,1.5-0.5c0.4,0,0.7,0.1,1,0.2c0.7,1.3,1.1,2.8,1.1,4.5c0,0.4,0,1-0.1,1.7
			c-0.1,0.8-0.1,1.4-0.1,1.7c0,0.4,0,1-0.1,1.8c0,0.1,0,0.3-0.1,0.5c0,0.2,0,0.4,0,0.5c0,0.4,0.1,1.1,0.2,2c0.1,0.9,0.2,1.6,0.2,2.1
			c0,0.7-0.1,1.2-0.3,1.7c-0.8,0.3-2.3,0.4-4.6,0.4c-1-0.9-1.6-2.9-1.9-6c-0.2-2.8-1.1-4.4-2.8-5c-0.4,0.1-0.6,0.1-0.8,0.1
			c-0.4,0-0.8-0.3-1.2-0.8c-0.5-0.5-1-0.8-1.4-0.8c-0.4,0-0.7,0-0.8,0.1c-0.7,0.4-1.7,1.3-3,2.5h-0.4c-0.5,0-0.8,0.3-1,0.8
			c-0.2,0.6-0.5,0.8-0.7,0.8c-0.4,1-0.7,2.5-0.9,4.5c-0.2,2.1-0.5,3.6-0.8,4.5c0.1,0.5,0.2,1.7,0.2,3.7c0,1.5,0.2,2.7,0.6,3.6
			c0,3.2,1.6,5.9,4.7,8.1c0.3-0.1,0.7-0.1,1.2-0.1c0.2,0,0.5,0,0.9,0c0.4,0,0.7,0,0.9,0c0.6,0,1-0.1,1.3-0.4c0.6,0,1.2-0.4,1.7-1.3
			c0.5-1,1-1.5,1.3-1.7c0.4-0.5,0.9-1.6,1.5-3.3c0.5-1.4,1.1-2.4,2-3.1h3.4c0.9,0.7,1.3,1.6,1.3,2.6c0,0.4-0.1,1-0.2,1.7
			c-0.2,0.8-0.2,1.4-0.2,1.8v0.8c0,0.3-0.1,0.6-0.2,1c-0.5,2.4-2,4.5-4.5,6.2c-0.4,0.4-1.2,1-2.1,1.7c-0.1,0.1-0.2,0.1-0.4,0.1
			c-0.1,0-0.2,0-0.4,0c-0.2,0-0.4,0-0.5,0c-0.3,0-0.4,0.1-0.4,0.4c-1.1,0.2-2.2,0.2-3.4,0.2s-2.2-0.1-3-0.2c-0.1-0.4-0.5-0.6-1-0.6
			c-0.1,0-0.3,0-0.6,0c-0.3,0-0.5,0-0.6,0c-0.4,0-0.6-0.1-0.7-0.3c-1.7-0.3-3.4-1.8-5.1-4.7c-1.4-0.7-2.4-2.3-3-4.8
			c-0.4-2-0.8-3.9-1.2-5.9c0-0.2,0.1-0.6,0.1-1c0-0.4,0-0.9-0.1-1.7c-0.1-0.8-0.1-1.3-0.1-1.7l0.2-1.4c0-3.9,0.8-7.3,2.5-10.2
			c0-1.1,0.5-2.2,1.4-3.2c1.1-1.3,1.8-2.2,2.1-2.7c0.5-0.1,1.2-0.5,2-1.1c0.8-0.6,1.4-0.9,1.9-1.1c0.1-0.2,0.3-0.3,0.6-0.3
			c0.1,0,0.2,0,0.4,0c0.2,0,0.3,0,0.4,0c0.4,0,0.6-0.2,0.6-0.6c0.2,0,0.4,0,0.8-0.1c0.4,0,0.6-0.1,0.8-0.1
			C478.5,451.5,479,451.7,479.2,452.1z"/>
		<path class="st2" d="M519.6,451.5c1.5,3.1,2.2,5.5,2.2,7.2c0,0.4,0,0.8-0.1,1.3c1.7,3.3,3.4,7.4,5.1,12.3
			c1.4,4.2,2.8,8.4,4.2,12.7c0.2,0,0.3-0.1,0.3-0.1c0.2,0,0.4,0.1,0.8,0.4c0.3,0.2,0.6,0.4,0.8,0.4c0.3,0,0.5-0.1,0.7-0.2
			c1,1,1.6,2.1,1.6,3.3c0,1.5-1.6,2.3-4.9,2.3c-0.3,0-0.7,0-1.3,0c-0.6,0-1,0-1.3,0c0-0.2,0-0.3-0.1-0.3c-0.1-0.1-0.2-0.1-0.4,0
			c-0.4,0.2-0.9,0.3-1.6,0.4c-0.5,0-1.1,0-1.9,0c-0.9-0.1-1.5-0.1-1.7-0.1c-0.3,0-0.8,0-1.6,0.1c-0.4-0.4-0.7-0.8-1.1-1.3
			c-0.4-0.5-0.6-1-0.6-1.6c0-0.3,0.1-0.8,0.4-1.4c0.6,0.1,0.9-0.3,0.9-1.2c0.2,0,0.5,0,0.8,0c0.4,0,0.6,0,0.8,0
			c1.5,0,2.3-0.6,2.3-1.9c0-1.1-0.3-2-0.9-2.8c-0.7-0.9-1.5-1.3-2.5-1.3c-0.7,0-1.2,0.3-1.4,0.8c-0.4,0.1-0.8,0.2-1.2,0.2
			c-0.6,0-1.4-0.1-2.4-0.2c-1.1-0.2-1.9-0.2-2.4-0.2c-1.4,0-2.3,0.4-2.8,1.2c-0.4,0.6-0.5,1.7-0.5,3.3c0,0.7,0.3,1,0.9,0.9
			c0.1,0.6,0.6,0.8,1.4,0.8c0.8,0,1.2,0.3,1.2,0.9c0,1.1-0.2,1.9-0.5,2.5c-1.5,0.5-4.8,0.8-10,0.8c-1.6,0-2.8,0-3.5,0.1
			c-0.5-0.6-0.7-1.4-0.7-2.2c0-0.6,0.1-1.1,0.3-1.6c0.2-0.1,0.5-0.4,0.8-0.8c0.3-0.4,0.6-0.7,0.9-0.9c0.1,0,0.3,0.1,0.5,0.1
			c0.5,0,1-0.3,1.4-0.8c0.4-0.5,0.7-0.9,1.1-1.4c0.6-1.5,1.5-4.4,2.8-8.7c1.1-3.7,2.1-6.6,3.1-8.7v-2.1h0.5c0.1-0.6,0.5-1.7,1.2-3.1
			c0.6-1.3,0.9-2.3,0.9-3.3c0.3-0.3,0.5-0.9,0.7-1.8c0.2-0.9,0.5-1.6,1-2c0,0,0.3-0.4,1-1.2c0.3-0.4,0.7-0.6,1.2-0.6
			c0.1,0,0.3,0,0.5,0c0.5-0.5,0.9-0.8,1.2-0.8c0,0.5,0.5,0.7,1.5,0.7C519.2,451.4,519.4,451.5,519.6,451.5z M515,468.2
			c0,0.8-0.4,1.9-1.3,3.2c-0.9,1.3-1.3,2.5-1.3,3.4c0,0,0.2-0.1,0.7-0.2c0.3,0.5,0.8,0.7,1.4,0.7c0.2,0,0.4,0,0.6-0.1
			c0.3,0,0.5-0.1,0.6-0.1c0-0.4,0.2-0.6,0.5-0.6c0.1,0,0.3,0.1,0.4,0.2c0.3,0,0.8,0.1,1.5,0.3c0.7,0.2,1.2,0.3,1.6,0.3
			c0.2,0,0.5,0,0.8-0.1c0-0.4,0.2-0.6,0.5-0.6l0.4,0.2c0-1-0.5-2.4-1.4-4.2c-1-1.9-1.5-3.3-1.6-4.3c-0.2-1.5-0.6-2.3-1.2-2.3
			c-0.5,0-1,0.5-1.5,1.4c-0.5,0.9-0.8,1.7-0.7,2.2V468.2z"/>
		<path class="st2" d="M549.4,451.8c1.4,0.9,2.2,2.2,2.5,3.9c0.4,0.3,0.7,1.2,1.2,2.7c0.4,1.3,1,2.1,1.8,2.4c1,2.6,2.3,4.4,3.8,5.5
			c0.7,1.4,1.4,2.8,2.1,4.3c1,1.7,2,2.8,3.1,3.4c0.4-0.3,0.7-0.9,0.8-2c0.1-1.2,0.2-1.9,0.4-2.2c0-1.6-0.4-2.6-1.2-3
			c-0.2-0.4-0.3-0.9-0.3-1.6c0-0.6,0.1-1.5,0.4-2.7c0.3-1.2,0.4-2.1,0.4-2.7c0-1-0.2-1.8-0.5-2.4c-0.3-0.5-1.3-0.7-2.8-0.7
			c-0.5,0-0.8,0-1-0.1l-0.5-0.6c-0.1,0-0.2,0.1-0.3,0.2h-0.5c-0.3-1.1-0.5-1.8-0.5-2.1c0-0.6,0.5-1.3,1.4-2.2
			c0.8-0.1,1.9-0.1,3.5-0.1c0.6,0,2.3,0.1,4.9,0.2c2,0.1,3.6,0.1,4.8,0c0.1,0.2,0.3,0.6,0.6,1.3c0.3,0.6,0.4,1,0.4,1.3
			c0,0.4-0.2,0.8-0.6,1.2c0,0.5-0.2,0.8-0.7,0.9c0.1,0-0.4,0-1.4,0c-0.9,0-1.3,0.4-1.3,1.2v11c0,0.1,0,0.3,0,0.6c0,0.2,0,0.4,0,0.6
			c0,0.5,0.1,1.2,0.2,2.1c0.1,0.9,0.2,1.6,0.2,2.1c0,0.6-0.1,1.2-0.3,2c0.1,0.4,0.1,0.8,0.1,1.1c0,0.4,0,1-0.1,1.9
			c-0.1,0.8-0.1,1.4-0.1,1.8c0,0.9,0.2,1.7,0.6,2.4c-0.1,0.5-0.2,1.9-0.2,4.1c0,1.9-0.5,2.9-1.4,2.9c-0.2,0-0.5,0-0.9-0.1
			c-0.4-0.1-0.7-0.1-0.9-0.1c-0.1-0.4-0.3-0.6-0.5-0.6c-0.1,0-0.2,0.1-0.4,0.2c-1-0.7-2-1.8-3-3.4c-1.4-2.2-2.2-3.5-2.5-3.8
			c0-0.8-0.3-1.5-0.8-2.2c-0.5-0.6-1-1.2-1.5-1.8c-0.1-0.2-0.4-0.7-0.7-1.6c-0.5-1.3-2-4.1-4.7-8.1c-0.3-0.4-0.7-1.1-1.3-2
			c-0.4-0.9-0.8-1.5-1-1.8c-0.4-0.6-1-1-1.6-1.2c-0.4,0.7-0.5,1.5-0.5,2.4c0,0.4,0,1,0.1,1.8c0.1,0.8,0.1,1.4,0.1,1.8
			c0,0.2,0,0.4,0,0.6c0,0.3,0,0.4,0,0.5c0,0.2,0,0.4,0,0.7c0,0.3,0,0.5,0,0.7c0,0.6-0.1,1.5-0.2,2.6c-0.1,1.2-0.2,2.1-0.2,2.6
			c0,0.9,0.1,1.6,0.3,2.3c-0.1,0.4-0.2,0.7-0.2,1.2c0,0.5,0.2,1.3,0.5,2.2c0.4,0.9,0.5,1.6,0.5,2.1c2.8,0,4.6,0.4,5.5,1.3v0.3
			c0,1.8-0.4,2.9-1.3,3.1c0,0.1-0.2,0.1-0.4,0.1c-0.1,0-0.2,0-0.4,0c-0.2,0-0.3,0-0.4,0c-0.3,0-0.4,0.1-0.4,0.4l-5.9,0.4
			c0-0.6-0.6-0.9-1.8-0.9c-0.3,0-0.4,0.2-0.4,0.5c-1.2,0.3-2.1,0.4-2.7,0.4c-1.1,0-1.9-0.3-2.4-0.9h-0.4c-0.3-0.5-0.5-1-0.5-1.7
			c0-1,0.3-2,0.9-3c0.3,0,0.7,0,1.2,0.1c0.6,0.1,1,0.1,1.2,0.1c1.2,0,1.8-0.5,1.8-1.4c0-1.1-0.1-4-0.3-8.9c0-0.9,0-2.4-0.1-4.3
			c0-0.3-0.1-0.7-0.1-1.3c-0.1-0.6-0.1-1-0.1-1.4c0-0.7,0.1-1.9,0.2-3.4c0.2-1.5,0.2-2.7,0.2-3.5c0-1.5-0.2-2.8-0.7-4.1
			c-0.1,0-0.3,0.1-0.5,0.1c-0.3,0-0.7-0.2-1.2-0.5c-0.5-0.3-0.9-0.5-1.2-0.5c-0.1,0-0.2,0-0.3,0c-0.1,0-0.2,0-0.3,0
			c-0.8-0.8-1.2-1.7-1.2-2.6c0-0.8,0.3-1.3,0.8-1.4c0.6-0.1,0.8-0.4,0.8-0.7c2.3-0.1,4-0.1,5.1-0.1
			C545.4,451.7,547.1,451.7,549.4,451.8z"/>
	</g>
	<g>
		<path class="st1" d="M457.9,508.7h8.8c-0.1,0.1-0.1,0.2-0.1,0.3c0,0.3,0.3,0.4,0.9,0.4s0.9,0.2,0.9,0.5c0,0.1,0,0.2-0.1,0.3
			c0.8,0.7,1.3,1.7,1.3,2.9c0,0.5-0.1,1.1-0.2,2c-0.1,0.9-0.2,1.6-0.2,2c0,1.2,0.4,2.1,1.2,2.8c0.6,3.8,1.5,6.7,2.8,8.7
			c-0.2,0.4-0.3,0.8-0.3,1.2c0,0.7,0.3,1.8,1,3.2c0.6,1.4,1,2.4,1,3.2v0.6c0,0.5,0.2,1,0.6,1.6c0.8-0.2,1.4-0.9,1.8-2
			c0.5-1.7,0.8-2.7,0.9-2.8c0.2-2.9,0.9-6.3,2-10.2c1-3.3,2-6.6,3-10c0.2-0.9,0.4-1.9,0.6-2.8c0.4-1.4,0.9-2.1,1.5-2.1
			c0.2,0,0.5,0,0.9,0c0.4,0,0.7,0,0.9,0c0.7,0,1.2-0.2,1.4-0.7c0.2,0.5,0.9,0.7,2.1,0.7c0.4,0,0.9,0,1.7,0s1.3,0,1.7,0
			c0-0.6,0.2-1,0.7-1c0.2,0,0.6,0.1,1,0.2c0.4,0.1,0.8,0.2,1,0.2c0,0.4,0.4,0.6,1.1,0.6c0.6,0,1,0.4,1.2,1.1c0.2,1,0.4,1.5,0.4,1.6
			c-0.3,0.1-0.4,0.7-0.6,1.6c-0.1,0.9-0.4,1.4-0.8,1.4l-0.8-0.3c-0.2,0.5-0.8,0.8-1.8,0.9c-0.9,0.1-1.4,0.5-1.4,1.3
			c0,0.2,0,0.6,0.1,1c0.1,0.5,0.1,0.9,0.2,1.1c0.1,1.4,0.2,2.7,0.3,4c0.1,2.3,0.1,4.7,0.2,7c0.1,2.7,0.4,5.1,0.9,7
			c-0.7,1-1.1,2.1-1.1,3.3c0,0.5,0.1,1.3,0.3,2.4c0.2,1.1,0.3,1.9,0.3,2.4c0,0.5,0,0.9-0.1,1.2l0.6,2.2c-0.1,0-0.4,0.3-1.1,1
			c0,0.4,0.2,0.7,0.7,1.1c0.5,0.5,0.9,0.8,1,1c0.2-0.1,0.4-0.1,0.8-0.1c0.9,0,1.7,0.6,2.4,1.7c0.3,0.4,0.4,1.1,0.4,2.2
			c0,2-0.8,3-2.5,3c-0.5,0-1.1-0.1-1.9-0.2c-0.8-0.1-1.5-0.2-1.9-0.2c0-0.4-0.2-0.6-0.6-0.6c-0.1,0-0.3,0-0.5,0c-0.2,0-0.4,0-0.5,0
			c-0.8,0-1.1,0.2-1.1,0.5c-0.6,0.2-1.3,0.3-2,0.3c-0.6,0-2.3-0.3-5-0.8c-0.2-0.1-0.5-0.4-0.7-0.9c-0.1-0.4-0.3-0.8-0.4-1.2
			c0.5-0.7,1-1.5,1.4-2.2c0.6-0.8,1.4-1.3,2.3-1.3c0.2,0,0.6,0.1,1.2,0.2c0.3-0.8,0.5-1.8,0.5-3c0-0.6-0.1-1.6-0.2-2.8
			c-0.2-1.2-0.2-2.2-0.2-2.8c0-0.3,0.1-0.6,0.2-1c0.1-1,0.2-1.8,0.2-2.3c0-1.6-0.3-3-0.9-4.3c0.2-0.5,0.3-1.1,0.3-1.6
			c0-0.4,0-1-0.1-1.7c-0.1-0.7-0.1-1.3-0.1-1.6c-1.3,1.2-2.4,3.4-3.2,6.6c-0.8,3.5-1.8,5.8-2.8,7c0.2,0.3,0.3,0.6,0.3,1.1
			c0,0.6-0.4,1.1-1.1,1.7c-0.7,0.5-1.1,1-1.1,1.3c0,0.5,0.3,0.9,0.8,1.3c-0.1,1.5-0.2,2.9-0.4,4.4c-0.2,1.8-1,2.8-2.3,3.3
			c0,0.5-0.3,0.7-1,0.7c-0.2,0-0.6-0.1-1.2-0.2c-0.6-0.4-1.1-0.7-1.7-1.1c-0.7-0.4-1-0.9-1-1.6c0.3-0.3,0.5-0.6,0.5-1.1
			c0-0.3-0.2-0.8-0.6-1.4c-0.4-0.6-0.6-1.1-0.6-1.5c0-0.2,0-0.3,0.1-0.4c-0.4-2.8-0.8-4.7-1-5.7c-0.6-2.2-1.3-4-2.3-5.2
			c0.2-0.4,0.3-0.9,0.3-1.3c0-1.6-0.6-2.7-1.8-3.1c0.1-0.7,0.2-1.3,0.2-1.7c0-1.7-0.4-2.8-1.3-3.2c0-1.8-0.2-2.9-0.5-3.2
			c-0.1-0.1-0.3-0.1-0.5-0.1c-0.4,0-0.6,0.3-0.8,0.9c-0.1,0.8-0.3,1.2-0.4,1.4c0.4,0.6,0.6,1.5,0.6,2.5c0,0.6-0.1,1.6-0.3,3
			c-0.2,1.3-0.3,2.3-0.3,3c0,0.6,0,1,0.1,1.3l-0.5,0.6c0.5,1,0.8,2.6,0.8,4.7v1.8c0,3.5,1,5.7,3,6.5c-0.1,0.1-0.1,0.1-0.1,0.3
			c0,0.1,0.3,0.3,0.8,0.4c0.6,0.1,0.8,0.5,0.8,1c0.3,0.3,0.4,0.7,0.4,1.4c0,0.8-0.1,1.4-0.4,1.8h-14.1c-0.1,0-0.3-0.1-0.6-0.3
			s-0.6-0.3-1.1-0.3c0-2.6,0.7-4.4,2.2-5.5c0.8,0,1.4-0.5,1.5-1.4c0.2-1.3,0.4-2.1,0.6-2.3l-0.5-1.1c0.3-2,0.5-4.5,0.5-7.5
			c0-2.1,0.1-3.7,0.2-4.7c0.2-2.1,0.3-2.9,0.3-2.4c0-0.4,0-0.9-0.1-1.7s-0.1-1.3-0.1-1.7c0-0.7,0-1.7,0.1-3.1s0.1-2.4,0.1-3
			c0-1.3-0.1-2.5-0.3-3.6c0-0.2-0.1-0.4-0.2-0.8c-0.1-0.4-0.1-0.6-0.1-0.8c0-0.3,0.1-0.7,0.4-1.2c0.2-0.5,0.4-0.9,0.4-1.3
			c0-0.2-0.1-0.5-0.2-0.8c-0.4-0.2-0.9-0.3-1.4-0.3c-0.2,0-0.6,0-1,0.1s-0.8,0.1-1,0.1c-1,0-1.6-0.7-1.6-2.2c0-1.4,0.9-2.6,2.8-3.6
			c0.2,0,0.5,0,0.9,0s0.7,0,0.8,0C457.7,508,458,508.2,457.9,508.7z M464.5,520c-0.5,0.5-0.8,1.2-0.8,2c0,0.3,0.1,0.7,0.2,1.3
			c0.1-0.1,0.3-0.2,0.7-0.3c0.3-0.1,0.5-0.2,0.5-0.3L464.5,520z"/>
		<path class="st1" d="M523.2,507c0.5,0,0.6,0.2,0.5,0.6c0.8-0.6,1.9-0.9,3.3-0.9c0.5,0,1.3,0.1,2.4,0.2s1.9,0.2,2.4,0.2
			c0.4,0.6,1.2,1,2.4,1c0.5,0,1.2-0.1,2.1-0.2c0.9-0.1,1.6-0.2,2.1-0.2l0.5-0.6c0,0.6,0.6,0.8,1.7,0.8c1.2,0,2,0.3,2.2,0.8
			c0.6,0.3,1,0.9,1.2,1.9c0.1,0.8,0.3,1.6,0.4,2.4c-0.1,0.4-0.2,0.6-0.2,0.8c0,0.4,0.1,0.9,0.3,1.6c0.2,0.7,0.3,1.3,0.3,1.7
			c0,0.8-0.4,1.5-1.1,1.9c0.4,1.7,0.6,3.2,0.6,4.4c0,1.4-0.2,2.5-0.6,3.2H539c-0.8-0.8-1.4-2.4-1.7-4.7c-0.4-2.8-0.7-4.5-0.9-5.1
			c-0.7-1.6-2-2.3-3.9-2.2c-0.4-0.6-1.9-0.9-4.5-0.9c-0.7,0-1.2-0.1-1.5-0.2l-1.1,1.1c-0.3,0-0.8-0.2-1.3-0.6
			c-0.6-0.4-1-0.6-1.4-0.6c-0.1,0-0.2,0.1-0.3,0.1c-0.1,0.1-0.2,0.1-0.3,0.1c-0.7,0.4-1.4,1.8-2.2,4.1c0.5,0.3,0.8,0.7,0.8,1.4
			c0,0.7-0.3,1.3-0.8,1.8c-0.1-0.1-0.2-0.2-0.3-0.2c-0.2,0-0.3,0.2-0.3,0.7c0,0.5,0.2,1,0.5,1.7c0.3,0.7,0.5,1.1,0.5,1.4
			c0,0.3-0.1,0.5-0.3,0.8c0,2.3,1.2,3.4,3.6,3.4c0.6,0,1,0,1.3-0.1c0.4-0.4,0.6-1,0.6-1.7c0-0.6-0.2-1.1-0.6-1.6
			c0.2-0.8,0.4-1.5,0.6-2.3c0.3-1,0.9-1.5,1.6-1.5c0.7,0,1.1-0.3,1.1-1c0,0.7,0.7,1,2.2,1c0.5,0,0.8,0.5,1,1.4
			c0.2,1.1,0.6,1.7,1.1,1.9c-0.1,1.3-0.2,2.2-0.2,2.8c0,1.2,0.1,3.1,0.3,5.5s0.3,4.3,0.3,5.5c0,1.9-0.1,3.7-0.3,5.1
			c-0.8,0.4-2.3,0.6-4.4,0.6c0-0.4-0.2-0.7-0.6-0.9c-0.5-0.2-0.9-0.5-1-0.8c-0.1-0.5-0.3-1.2-0.6-2.1c-0.3-1-0.8-2.5-1.6-4.4
			c-2.9,0-4.3,0.7-4.3,2.2c0,0.1,0,0.4,0,0.6c0,0.3,0,0.5,0,0.6c0,0.7-0.1,1.7-0.4,3c-0.3,1.3-0.4,2.3-0.4,3c0,0.6,0,1.1,0.1,1.4
			c-0.2-0.2-0.3-0.3-0.4-0.3c0.1,0-0.2,0.3-0.7,0.8c0.7,2.1,1.8,3.4,3.2,3.8c0.2-0.6,1.4-1,3.6-1c0.6,0,1.1-0.1,1.4-0.2
			c0.2,0.6,1.4,1,3.5,1c0.6,0,1.1,0.1,1.4,0.2v-0.6h0.5l1.1-0.6c0,0.6,0.2,0.9,0.6,1c-0.1,0,0.3,0,1.2,0c0.4,0,0.7,0.1,0.9,0.2
			c1.2-1,1.9-3.1,1.9-6.1c0.1-2.8,0.9-4.6,2.4-5.3c0-0.5,0.4-0.8,1.1-0.8c0.7,0,1.1-0.3,1.1-0.8c2.2,0.7,3.3,2,3.3,3.8
			c-0.3,0.3-0.5,0.8-0.5,1.4s0.3,1.3,0.8,2.3c0.5,0.9,0.8,1.6,0.8,2c0,0.5-0.4,1-1.1,1.4c-0.2,0.8-0.2,2.2-0.2,4
			c0,1.8-0.1,3.2-0.3,4.1c-0.8,0-1.1,0.2-1.1,0.5h-7c-0.3-0.3-0.9-0.5-1.8-0.5c-0.3,0-0.7,0-1.3,0.1c-0.6,0.1-1,0.1-1.3,0.1
			c-0.4,0-0.9-0.1-1.6-0.2c0,0.6-0.3,0.9-0.8,0.9c-0.2,0-0.5-0.1-0.9-0.2c-0.4-0.1-0.7-0.2-1-0.2c-0.4-0.3-1-0.5-1.8-0.5
			c-0.3,0-0.7,0-1.3,0.1c-0.6,0.1-1,0.1-1.4,0.1c-0.4,0-0.9-0.1-1.5-0.2c0,0.5-0.2,0.7-0.6,0.7c-0.1,0-0.3,0-0.5-0.1
			c-0.2-0.1-0.4-0.1-0.5-0.1c-0.4-0.3-1.1-0.5-1.9-0.5c-0.3,0-0.8,0-1.4,0.1c-0.6,0.1-1.1,0.1-1.4,0.1c-0.6,0-1-0.1-1.3-0.2
			c0,0.3-0.2,0.5-0.5,0.5c-0.3,0-0.6-0.1-1-0.3c-0.3-0.2-0.6-0.3-0.7-0.3c-0.4,0-0.6,0.2-0.6,0.7c-0.2,0-0.6,0-1.1,0.1
			c-0.5,0.1-0.9,0.1-1.1,0.1c-0.9,0-1.5-0.2-1.7-0.7h-2.2c-0.6-0.5-0.9-1.1-0.9-1.8c0-0.4,0.2-1,0.5-1.8s0.5-1.4,0.5-1.9
			c0.2-0.5,0.8-0.7,1.7-0.7c0.3,0,0.7,0,1.3,0.1c0.6,0.1,1,0.1,1.3,0.1c1.4-0.8,2.1-2.4,2.1-4.8c0-0.6,0-1.4-0.1-2.4
			c-0.1-1-0.1-1.8-0.1-2.4c0-1.1,0.1-1.9,0.3-2.4c-0.2-1.6-0.3-4-0.3-7.3c0-2.4,0-4-0.1-4.9l-0.2-2.5c0-0.3,0-0.7,0.1-1.2
			s0.1-1,0.1-1.3c0-1.9-0.3-4.1-0.8-6.7l-3.2-1.7c-1.5,0-2.2-1.1-2.2-3.3c0-2.8,1.8-4.2,5.4-4.2c1,0,2.6,0.1,4.7,0.4
			s3.6,0.4,4.7,0.4c0.5,0,1.1-0.1,1.9-0.2c0.1,0,0.3,0,0.4-0.1S523.2,507,523.2,507z"/>
	</g>
</g>
<polygon class="st1" points="431.9,400 396.9,400 396.9,406 396.9,406 396.9,435.1 402.9,435.1 402.9,406 431.9,406 "/>
<polygon class="st1" points="601.9,435.1 601.9,400 595.9,400 595.9,400 566.8,400 566.8,406 595.9,406 595.9,435.1 "/>
<polygon class="st1" points="566.9,604.9 601.9,604.9 601.9,598.9 601.9,598.9 601.9,569.8 595.9,569.8 595.9,598.9 566.9,598.9 "/>
<polygon class="st1" points="395.9,569.8 395.9,604.9 401.9,604.9 401.9,604.9 431,604.9 431,598.9 401.9,598.9 401.9,569.8 "/>
</svg>
