<?xml version="1.0" encoding="utf-8"?>
<!-- Generator: Adobe Illustrator 26.2.1, SVG Export Plug-In . SVG Version: 6.00 Build 0)  -->
<svg version="1.1" id="Layer_1" xmlns="http://www.w3.org/2000/svg" xmlns:xlink="http://www.w3.org/1999/xlink" x="0px" y="0px"
	 viewBox="0 0 517.5 93.1" style="enable-background:new 0 0 517.5 93.1;" xml:space="preserve">
<style type="text/css">
	.st0{fill:#3C4349;}
	.st1{fill:#1F2937;}
</style>
<path class="st0" d="M410.2,115L410.2,115c0.1,0.1,0.2,0.2,0.3,0.3C410.4,115.2,410.2,115.1,410.2,115z"/>
<path class="st1" d="M512.1,46.6c-9.8,7.6-19.2,15.8-29.5,22.7c-17.2,11.4-35.9,19.5-56.3,23.6c-7.9,1.6-14.3-3.7-14.5-11.6
	c-0.1-5.3,2.2-8.2,7.4-9.7c9.4-2.8,18.7-5.7,28.1-8.7c1.7-0.5,3.2-1.5,4.8-2.2c-0.1-0.5-0.1-1.1-0.2-1.6c-9.4,0-18.8,0.4-28.1-0.1
	c-64.6-3.2-129.1-6.6-193.7-10c-54.3-2.9-108.5-5.3-162.9-4c-18.5,0.5-36.9,1.9-55.4,2.8C4.7,48,0.6,44.5,0.1,37.9
	C-0.4,32.1,2.6,27.8,8.7,27c18.6-2.6,37.2-6.2,56-7c35.6-1.6,71.3-2.6,106.9-1.9c33.1,0.7,66.2,3.8,99.2,6.2
	c32.1,2.3,64.1,5.2,96.2,7.2c27.4,1.7,54.9,2.9,82.4,3.5c12.5,0.3,17.4,8.6,12.9,20.5c6.9-4.2,12.8-7.8,20.2-12.3
	c-13.6-5.9-25.8-11.6-38.2-16.4c-10.2-3.9-20.9-6.7-31.3-10.2c-2.1-0.7-5.2-1.7-5.8-3.3c-1.1-3-1.6-6.8-0.8-9.7
	c1.1-3.7,4.9-3.9,8.4-3.4c25.8,3.1,49.8,11.7,72.9,23.1c4.8,2.4,9.4,5.1,14.2,7.3c4.8,2.1,8.4,5.1,10.3,10.1
	C512.1,42.6,512.1,44.6,512.1,46.6z"/>
</svg>
