<?xml version="1.0" encoding="utf-8"?>
<!-- Generator: Adobe Illustrator 26.2.1, SVG Export Plug-In . SVG Version: 6.00 Build 0)  -->
<svg version="1.1" id="Layer_1" xmlns="http://www.w3.org/2000/svg" xmlns:xlink="http://www.w3.org/1999/xlink" x="0px" y="0px"
	 viewBox="0 0 47.4 54.1" style="enable-background:new 0 0 47.4 54.1;" xml:space="preserve">
<style type="text/css">
	.st0{fill:#993415;}
</style>
<path class="st0" d="M9.1,11.1c2.2,2.5,4.9,4.8,8.2,6.9c2.9,1.8,5.8,3.6,8.7,5.4l1.2,0.7v0.1l1,0.7c1.1,0.7,1.9,1.4,2.9,2.2
	c0.2,0.2,0.5,0.4,0.8,0.6c-2.7,2.1-5.4,4.2-8.1,6.4c-3.4,2.7-7.4,5.4-11.3,7.9c-1.3,0.9-2.7,1.8-4,2.6c-0.6,0.4-1,1.1-1,1.8
	c0,0.3,0,0.8,0.4,1.3C8,48,8.1,48.2,8.3,48.4c0.5,0.6,1.4,2.8,2.3,2.5c0.6-0.2,1.1-0.4,1.5-0.6c0.4-0.2,0.8-0.4,1.2-0.6
	c1.1-0.6,2.3-1.2,3.4-1.9c2.9-1.9,5.8-2.8,8.4-4.5c1.1-0.7,2.2-1.4,3.1-2.1l0,0c3.9-2.8,6.9-7.9,9.9-10c1.1-0.8,1.7-1.6,1.8-2.5
	c0.1-0.7-0.1-1.3-0.5-1.9c-0.2-0.2-0.4-0.4-0.6-0.6c-0.6-1-1.4-1.8-1.8-2.1c-1.5-1.2-2.8-3-4-3.8c-1.4-0.9-2.6-1.8-4.3-3.1
	c-1-0.8-1.9-1.5-2.9-2.3c-1.8-1.5-3.8-3-5.8-4.5c-1.7-1.2-3.5-2.2-5.2-3.2C14.2,6.7,13.6,6.4,13,6s-1.5-0.6-2.3-0.6
	c-0.6,0-1.2,1.1-1.7,1.3c-0.7,0.4-1.7,1.4-0.6,3.4C8.6,10.5,8.8,10.8,9.1,11.1z"/>
</svg>
