<?xml version="1.0" encoding="utf-8"?>
<!-- Generator: Adobe Illustrator 26.2.1, SVG Export Plug-In . SVG Version: 6.00 Build 0)  -->
<svg version="1.1" id="Layer_1" xmlns="http://www.w3.org/2000/svg" xmlns:xlink="http://www.w3.org/1999/xlink" x="0px" y="0px"
	 viewBox="0 0 331.1 452.2" style="enable-background:new 0 0 331.1 452.2;" xml:space="preserve">
<style type="text/css">
	.st0{fill:#1F2937;}
</style>
<path class="st0" d="M7.2,243.4c0-24.8,0-49.6,0-74.5c0-2.8-0.5-4.7-2.8-6.8c-2.2-2-4.4-5.6-4.4-8.5C0.1,126.2,2.2,99,13.2,73.3
	c11.5-26.9,32.3-43.8,58.4-55.2C96.3,7.4,122.3,3.3,149,3.9c33.9,0.8,66.8,7.1,98,20.8c38.8,17,61.2,47.6,69.5,88.1
	c5.6,27.5,8.9,55.5,12.2,83.4c2.9,24.7,3.1,49.5,1.2,74.4c-3.4,43.6-14.2,84.7-41.1,120.2c-34.8,46-82,64.5-138.6,61
	c-36.5-2.3-69.4-14.6-98.7-36.6c-21-15.8-32.1-37.4-35.4-62.6c-3.3-25.1-4.5-50.4-6.1-75.6c-0.7-11.1-0.1-22.3-0.1-33.5
	C8.9,243.4,8.1,243.4,7.2,243.4z M310.6,245.8c-0.9-14.3-1-28.7-3-42.8c-4-28.1-8-56.4-14.1-84.1C286.3,85.8,267.6,60.6,235,48
	c-41.1-16-83.6-20.7-127-11.6c-12,2.5-23.9,7.4-35,12.8c-26.6,13.1-38.6,36.5-42,64.9c-1.5,12.4-1.5,24.9-2.9,37.3
	c-0.4,3.8-2.5,7.9-5.1,10.8c-1.9,2.1-2.6,3.6-2.3,6.3c3.6,43.6,7,87.3,10.6,130.9c1.4,16.7,2.2,33.6,4.9,50.1
	c4.1,25,17,44.8,40,56.5c13,6.6,26.3,13.1,40.1,17.5c32.5,10.3,65.3,10.5,97.6-1.5c38.5-14.3,62.9-43,78.9-79.7
	C306.1,311.6,310.3,279.1,310.6,245.8z"/>
<path class="st0" d="M213.9,132c-0.8,18-4.1,34.9-14.9,49.7c-13.7,18.7-37.5,25.4-57.2,16c-13.3-6.4-20.5-17.6-21.7-31.9
	c-0.8-9.7,0.1-19.6,0.8-29.4c1-14.1,2.4-28.2,4-42.2c0.5-3.9,1.6-8.3,4-11.1c5.1-6.2,9.7-14.1,19.2-14c10.2,0,20.8-0.4,30.7,1.7
	c17,3.6,27.5,15.2,31.1,32.2C211.7,112.5,212.5,122.3,213.9,132z M141.3,93.9c0,15-0.4,29.9,0.2,44.6c0.4,9.2,1.3,18.7,3.7,27.5
	c3.1,11.2,11.1,14.2,21.8,9.7c9.9-4.2,15.1-12.1,17.8-22.1c3.1-11.6,2.7-23.4,1.3-35.2c-2.5-21-9.7-26.6-30.8-24.6
	C151,94.3,146.7,93.9,141.3,93.9z"/>
<path class="st0" d="M150.6,349.1c0.4-6.9,0.7-13.8,1.2-20.7c0.9-11.6,1.8-23.2,3.1-34.7c0.4-3.7,0.8-8.7,6.1-9
	c5.2-0.3,6.4,4.5,7.2,8.2c3.2,15.6,5.9,31.3,8.8,46.9c0.4,2.4,0.4,4.9,0.7,7.6c7.1-4.7,13.8-9.3,20.7-13.5c7-4.2,12.4-3.4,15.8,1.6
	c3.5,5.3,1.8,10.8-4.3,15.9c-13.6,11.2-27,22.6-40.4,34.1c-5,4.3-11.2,4.4-15.4-0.6c-14.3-17.3-28.5-34.7-42.7-52.1
	c-1.8-2.2-4.1-4.4-1.4-7.4c2.6-2.9,5.8-2.5,8.5-0.5c8.3,6.1,16.5,12.3,24.6,18.6c2.2,1.7,3.7,4.2,5.5,6.3
	C149.3,349.6,150,349.4,150.6,349.1z"/>
<path class="st0" d="M160.8,257.8c-9.6-0.1-17.2-8-17-17.8c0.2-9,8-16.6,17.3-16.6c9.7,0,17.2,7.7,17.3,17.6
	C178.4,250.2,170.4,257.9,160.8,257.8z"/>
</svg>
