<?xml version="1.0" encoding="utf-8"?>
<!-- Generator: Adobe Illustrator 26.1.0, SVG Export Plug-In . SVG Version: 6.00 Build 0)  -->
<svg version="1.1" id="Layer_1" xmlns="http://www.w3.org/2000/svg" xmlns:xlink="http://www.w3.org/1999/xlink" x="0px" y="0px"
	 viewBox="0 0 80 80" style="enable-background:new 0 0 80 80;" xml:space="preserve">
<style type="text/css">
	.st0{fill:#FFFFFF;stroke:#FFFFFF;stroke-width:0.75;stroke-miterlimit:10;}
	.st1{fill:#FFFFFF;}
</style>
<path class="st0" d="M44.7,32.7c3.3-0.3,6.6-0.2,9.8,0.6c1.7,0.4,3.5,1.1,4.8,2.3c1.9,1.6,2.8,4,4.3,5.9c1.6,2,3.6,3.8,5.3,5.8
	c2.4,2.8,2.4,6.7,3.5,10.1c0.7,2.1,0.6,4.5-0.8,6.3c-2.6,3.4-6.4,5.7-10.3,7.2c-2.1,0.9-4.4,1.4-6.7,1.4c-3.6,0.1-7.1,0.4-10.7,0.5
	c-2.7,0.1-5.4-1.2-8.1-0.6c-2.2,0.4-4.3,1-6.4,1.4c-3.7,0.9-7.6,0.8-11.4,1c-2.8-0.2-5.7,0.1-8.4-0.7c-2-1.5-3.2-3.9-3.3-6.4
	c-0.2-2.9,1.1-5.5,2.1-8.1c1.2-3,1.5-6.2,2.6-9.2c1.1-2.9,3.1-5.5,5.9-7c2-1,3.8-2.2,5.4-3.8c3.2-3.1,7.6-4.7,11.9-5.7
	C37.7,33.1,41.2,32.9,44.7,32.7z M41.7,34.3c0.9,1.9,0.8,4.1,0.4,6.1c-0.7,3.4-2.5,6.8-5.4,8.8c1.7,2.1,2.3,4.9,2.1,7.6
	c2.7-3,6.1-5.5,10-6.6c3.4-1,7.4-0.8,10.3,1.5c1.2,0.9,1.8,2.3,2,3.7c1.1-0.3,2.3-0.6,3.5-0.7c-2,2.8-5.5,3.6-8.5,4.6
	c0.1-1.7,2.2-2,3.3-2.9c-0.2-1.3-0.5-2.8-1.8-3.5c-3.4-2.4-8-1.5-11.6,0c-0.9,3.1-1,6.7,0.7,9.6c2-1.3,3.6-3.2,4.6-5.4
	c-0.4-0.7-0.7-1.4-1-2.2c1.8-0.7,3.7,0,4.7,1.7c-0.6,0.3-1.3,0.4-1.8,0.8c-0.8,1-1.3,2.2-2.2,3.2c-1,1.2-2.3,1.9-3.6,2.7
	c2.5,1.9,5.6,2.6,8.7,2.3c1.2-0.2,2.2-1.1,3.4-1.1c-0.3,1.6-1.8,2.8-3.4,2.9c-3.8,0.4-8.2-0.3-10.7-3.5c-2-2.8-2.2-6.6-1.5-9.9
	c-1.9,1.4-4.1,2.7-5.3,4.8c-1.3,4.5-3.8,8.8-7.2,12c2-0.4,3.9-0.9,5.9-1c1.7-2.4,4.3-4,7.1-4.8c-1.1,2.1-2.9,3.7-4.7,5.1
	c4.9,1.5,10,0.8,15,0.7c3.3,0,6.4-1.4,9.3-2.9c0.9-0.6,2.2-1,2.3-2.2c0.3-2.8,0.2-5.7-0.7-8.4c0.7-0.2,1.8-0.3,2,0.6
	c0.8,2.3,0.6,4.8,0.6,7.1c1.3-1.4,3-2.8,3.1-4.9c-0.1-1.8-0.7-3.6-1.1-5.3c-0.5-1.9-0.7-3.9-1.8-5.6c-1.3-1.9-3.1-3.5-4.6-5.3
	c-1.5-1.7-2.7-3.7-3.8-5.7c-0.6,1-1.1,2.2-2.2,2.8c-1,0.6-2.2,0.8-3.3,1.1c0.9,2.1,3.3,2.5,5.2,3.4c0.9-0.6,1.8-1.3,3-1.3
	c-0.8,1.9-1.7,3.8-3.3,5.2c-0.7-0.7-0.9-1.6-0.8-2.6c-2.3-0.4-4.4-2.2-4.7-4.6c-3.3,0.7-6.9,1-9.7,3.1c0.6,0.9,1.7,1.3,2.7,1.7
	c-1.9,1.5-4.5-0.2-5-2.2c0.3,0,1,0,1.3,0.1c0.4-0.6,0.9-1.2,1.6-1.6c2.9-1.8,6.4-2.5,9.6-3.4c1-0.3,2-0.6,2.9-1.3
	c0.6-0.6,0.9-1.3,1.3-2C53.5,33.2,47.2,33.7,41.7,34.3z M27.8,38c0.2,1.2,0.3,2.5,1.2,3.4c0.9,0.9,2.1,1.3,3.3,1.8
	c0.2-0.9,0.6-3,2-2c0.5,1.9,0,3.9-0.7,5.7c-0.5-0.8-0.9-1.6-1.1-2.5c-1.3,0.2-2.7,0.2-3.8-0.6c-1.5-1.2-2.1-3.2-2.1-5
	c-1.6,1-3,2.2-4.4,3.5c-2.1,1.9-4.9,2.8-7.1,4.7c-0.3,1.8-0.1,3.7,1.2,5.1c1.4,1.5,3.2,2.6,5.2,3.2c-1.6,0.7-3.5,0.1-5-0.7
	c-1.9-1.2-2.6-3.4-2.9-5.5c-2.1,3.5-2.2,7.7-3.8,11.4c-1.1,2.7-2.5,5.4-2.3,8.4c1.2,1,1.7,2.5,2.6,3.8c2.9,0.4,5.8,0.1,8.7,0.1
	c3.4-0.4,7-0.4,10.3-1.4c1.5-0.9,2.4-2.3,3.6-3.6c-1-1.2-2.3-2.3-4-2.3c-3.7-0.2-6.6,2.7-10.2,3.1c-1.6,0.3-3.3-0.1-4.4-1.4
	c-1.6-1.9-2.1-4.6-1.7-7c-0.7-0.4-0.9-1.2-1-1.9c2-0.8,4.2-0.7,6.2,0.1c-1.2,0.6-2.5,1-3.8,1.4c0.3,1.9,0.3,3.9,1.4,5.5
	c0.7,1.1,2,1.6,3.3,1.4c3.4-0.4,6.3-2.8,9.9-2.5c2,0,3.7,1.2,4.9,2.8c1.8-2.6,3.2-5.5,4-8.5c0.5-2.4,0.4-5.1-1.1-7.1
	c-1.2-1.8-3.4-2.5-5.4-2.2c-1.9,0.3-3.9,1-5.3,2.4c-0.2,2,0.8,4,1.9,5.6c0.7-0.7,1.5-1.3,2.3-1.8c0.4,0.5,0.6,1.1,0.2,1.7
	c-0.6,1.2-1.8,2.1-2.9,2.7c-1,0.6-2.4,1.1-3.4,0.2c1.2-0.4,2.3-1.1,3.3-2c-2.4-0.9-3.3-3.7-3.2-6.1c0.1-1.2,1.1-2.2,2.1-2.8
	c2.9-1.6,6.5-2.4,9.6-0.9c2.5-1.5,4-4.2,4.8-6.9c0.6-2.2,1-4.6-0.2-6.7C35.6,35,31.6,36.1,27.8,38z"/>
<g>
	<path class="st1" d="M38.2,9.4c-1.4,0-2.8,0.5-3.8,1.3c0-0.1,0.1-0.1,0.1-0.2c0.1-0.1,0.2-0.1,0.3-0.4c0.1-0.3-0.2-0.5-0.4-0.5
		c-1.2-0.3-2.5,0.9-1.6,2c0,0.1,0.1,0.2,0.2,0.1c0.1-0.1,0.3-0.2,0.5-0.2c-1.3,1.4-1.9,3.4-1.4,5.4c0.7,2.9,3.4,4.7,6.2,4.8
		c-0.2,0.1-0.1,0.4,0.1,0.4c0.9,0.7,2.3,0.6,2.8-0.3c0.2-0.2,0.3-0.4,0.4-0.6c0.1-0.1,0-0.2-0.1-0.2c0.6-0.3,1.1-0.6,1.6-1.1
		C47.3,15.6,44.1,9,38.2,9.4z M33.4,15.6c0.1-5.5,9.7-6.4,9.6-0.3c-0.2-0.1-0.4-0.1-0.6-0.1c0,0,0,0,0,0c0,0,0,0-0.1,0
		c-0.1,0.1-0.4,0.2-0.4,0.2s0.1,0,0.1,0c0,0,0,0.1,0.1,0.2c0.1,0.1,0.3,0.1,0.3,0.2c0,0.1-0.1,0,0,0.2c0,0.1,0.2,0.2,0.3,0.1
		c0.1,0,0.2,0,0.3,0c-0.1,1.2-0.7,2.1-1.5,2.7c0.5-0.6,0.9-1.3,0.9-2.2c0-0.2-0.1-0.3-0.2-0.2c-0.4,1.1-1.8,1.5-2.6,2.1
		C39,18.8,38.2,19,37.5,19c-0.1,0-0.2,0-0.2,0c-0.2,0-0.4,0-0.7-0.1c-0.1,0-0.1,0-0.2,0c0,0,0,0,0,0c0,0,0,0,0,0
		c-0.1,0-0.2,0.2-0.2,0.3c0,0,0,0.1,0,0.1C34.7,18.7,33.5,17.5,33.4,15.6z M37.2,9.6c0.3-0.1,0.6-0.1,1-0.1
		C37.9,9.5,37.5,9.6,37.2,9.6z"/>
	<path class="st1" d="M52.1,15.9c-0.1,0-0.3,0-0.3-0.1c-0.3-0.1-0.8,0-0.7,0.2c0.1,0.1,0.3,0.1,0.3,0.2c0.1,0.1-0.2,0.2,0,0.4
		c0.1,0,0.1,0.1,0.2,0.1c0,0.1-0.1,0.1-0.1,0.2c-0.3,0.5-0.9,0.6-1.2,0.9c0.2-0.2,0.4-0.4,0.4-0.7c0.4-1.4,0.6-3.4-0.9-4.3
		c-0.9-0.4-1.6-0.3-2.6-0.4l-0.6-0.9l0.8-0.8c1.7-1.2,1.6-3.2,0.1-4.5c-1.3-1.4-3.1-1.8-4.5-0.3c-0.3,0.4-0.6,0.8-0.9,1l-0.7-0.1
		c0-0.1,0-0.2,0-0.2c0-0.3,0-0.9,0-1.2c0-0.5,0-0.9-0.1-1.3c0,0,0.1,0.1,0.1,0.1c0.1,0,0.2,0.2,0.2,0.2c0,0.1,0.2,0.2,0.3,0.1
		c0.2-0.1,0.2-0.4,0.2-0.5c0.3-0.9-0.1-2.4-1.4-2.1c-0.2,0.1-0.5,0.3-0.3,0.6c0.1,0.1,0.1,0.1,0.2,0.1c0,0.1,0,0.1,0,0.1
		c0,0.1,0,0.2,0.1,0.3c0.1,0.1,0.3,0.2,0.4,0.4c0,0,0,0,0,0c0,0.1,0,0.1,0,0.2c-0.5-0.8-1.5-1.2-2.8-1.2c-1.8-0.1-3.4,0.9-3.2,2.8
		c0.1,0.5,0,0.8,0,1.2c0,0,0,0.1,0.1,0.1l-0.9,0.7c-0.6-0.7-1.1-1.5-2-2c-0.1,0-0.2-0.1-0.3-0.1c0.1,0,0.2,0,0.3,0
		c0.3,0,0.5,0.1,0.7,0.2c0.2,0.1,0.4,0.2,0.6,0c0.1-0.1,0-0.3,0-0.3c-0.9-1.7-3.8-1.5-4.1,0.3c0,0.1,0,0.1,0,0.2h0c0,0,0,0,0.1,0
		c0.2,0,0.5,0,0.7-0.1c-0.7,0.5-1.3,1.2-1.8,1.9c-0.4,0.5-0.5,0.9-0.4,1.4c-0.1,0.8,0.5,1.3,1.1,2c0.1,0.1,0.3,0.3,0.4,0.4h0h0
		c0,0,0.1,0.1,0.1,0.1c0,0,0,0,0,0h0c0,0,0.1,0.1,0.1,0.1l0,0c-0.1,0.1-0.1,0.1,0,0.1c0,0,0,0,0,0l-0.2,0.9c-0.8-0.1-1.6-0.2-2.6,0
		c-0.1-0.1-0.2-0.2-0.3-0.3c-0.4-0.2-0.8-0.1-1,0.1c-0.3,0.3-0.1,0.8,0.1,0.9c0,0,0,0,0,0.1c0,0,0,0,0,0c-1,1.5-0.7,4.4,0.6,5.3
		c0.5,0.3,1.2,0.4,1.7,0.4c0.5-0.1,0.8,0,1.2-0.1l0.3,0.5c-0.6,0.5-1.3,1.1-1.7,1.7c0,0,0,0,0-0.1c0-0.1,0-0.2,0-0.3
		c0-0.1-0.2-0.2-0.2-0.1c-0.1,0.2-0.4,0.3-0.5,0.5c-0.1,0.1-0.1,0.1-0.2,0.2c0,0-0.1,0.1-0.1,0.1C27,21.5,27,21.7,27,22
		c0,0.6,0.2,1,0.5,1.5c0,0,0-0.1,0-0.2c0.1,0.2,0.2,0.4,0.4,0.4c0.4,0.9,1.2,1.6,2.1,2c0.5,0.3,1.3,0.6,1.9,0.4
		c0.6-0.3,1.1-0.7,1.5-1c0.4-0.3,0.6-0.6,0.9-0.8l0.6,0.1c-0.1,0.6-0.1,1.1,0,1.5c-0.1,0-0.2,0-0.3,0.1c-0.5,1.1,0.1,2.5,1.2,2.9
		c0.8,0.4,1.6,0.1,2.5-0.1c0.1,0,0.1-0.2,0-0.2c0,0,0,0-0.1,0c0.1,0,0.3,0,0.4,0c0,0,0,0,0,0c0,0,0,0,0,0.1c0,0-0.1,0-0.1,0
		c0,0,0,0,0,0c0,0-0.1,0-0.1,0.2c0,0.2,0.1,0.2,0.1,0.3c0.1,0.3,0.3,0.4,0.5,0.4c0.2-0.2,0.3-0.6,0.2-0.9c-0.1,0-0.1-0.2-0.1-0.2
		c0.2,0,0.5-0.1,0.7-0.1c0.5-0.1,1.2-0.5,1.5-1c0.3-0.6,0.3-1.2,0.3-1.7c0-0.4,0-0.8-0.1-1.3l0.7-0.5c1,1.3,2,2.6,3.7,1.6
		c0,0,0.1,0,0.1-0.1c0.9-0.3,1.7-1.1,2.1-1.9c-0.4,0.8-1.2,1.5-2,1.9c1.4-1,2.7-2.8,1.3-4.2c0-0.3-0.1-0.6-0.2-0.8
		c0.5,0.5,1.1,1.1,1.2,2c0,0.4-0.1,0.7-0.3,1.1c0.3-0.5,0.4-1,0.4-1.5c0-0.9-1.2-1.7-1.7-2.3c-0.1,0-0.1-0.1-0.2,0c0,0,0,0,0,0
		c0,0,0,0,0,0c0,0,0,0,0,0c0,0,0,0,0,0c0,0,0,0,0,0c0,0,0,0,0,0c0-0.1,0-0.2,0.1-0.3c0.1-0.3,0.2-0.6,0.2-0.9c0,0,0,0,0-0.1
		c1.1,0,2.7,0.2,3.5-0.6c-0.1,0-0.1,0.1-0.1,0.2c-0.1,0.1-0.2,0.1-0.2,0.2c-0.5,0.2-1,0.4-1.6,0.5c0,0,0,0,0,0c0,0-0.1,0-0.2,0.2
		c-0.1,0.3,0.2,0.5,0.4,0.5c1.7,0.5,4-0.8,3.2-2.6c0,0,0,0,0,0c0,0,0.1,0,0.1,0c0.1,0,0.1-0.1,0.2-0.1C52.3,16.5,52.5,16,52.1,15.9z
		 M40.9,2.3C40.9,2.3,40.9,2.3,40.9,2.3c-0.1,0-0.1-0.1-0.1-0.1C40.9,2.3,40.9,2.3,40.9,2.3z M45.9,17.1c-0.3,0.3-0.2,0.7-0.3,1
		L45.4,19c0,0.4-0.2,0.6-0.1,1c0,0,0,0,0,0c0,0,0,0,0,0.1c0,0.2,0,0.4,0.1,0.5c0.4,0.2,0.8,0.5,1.1,0.7c0.5,0.7,0.7,1.5-0.2,2.4
		c-1.3,1.3-2.5-0.4-3.5-1.4c-0.1-0.1-0.3-0.3-0.5-0.3s-0.4,0.1-0.5,0.2c-0.5,0.5-1.3,0.8-1.8,1.2c-0.3,0.3-0.2,0.9-0.2,1.2
		c0,0.6,0,1.4-0.4,1.7c-0.4,0.3-1.2,0.3-1.7,0.2s-0.6-0.7-0.6-1.3c0-0.5,0.1-1.1,0.1-1.6c0.1-0.3-0.2-1.1-0.6-1.2
		c-0.5-0.1-1.4-0.3-1.9-0.4c-0.2,0-0.9-0.1-1.2,0.1c-0.4,0.3-0.7,0.7-1,1c-0.5,0.4-1,0.6-1.4,0.4c-0.5-0.2-1.1-0.8-1.1-1.2
		c-0.1-0.3,0.4-1,0.9-1.4c0.4-0.2,1-0.8,1.1-1.1c0.2-0.4,0-0.8-0.2-1.1c-0.2-0.2-0.7-1-0.9-1.3c-0.3-0.3-0.5-0.6-0.9-0.6
		c-0.5,0-1.3,0.1-1.8,0c-0.9,0-1.3-1.2-1-2.1c0.5-1,2.1-0.7,3.3-0.7c0.1,0,0.2-0.1,0.4-0.2c0,0,0,0,0,0c0-0.1,0.1-0.1,0.1-0.2
		c0.1-0.1,0.2-0.3,0.2-0.5c0-0.4,0.2-1.3,0.3-1.6s0.2-0.8-0.1-1l-0.2-0.2c-0.6-0.5-1.1-1.1-1.2-1.6c-0.1-0.2,0-0.5,0-0.7
		c0.1-0.2,0.2-0.3,0.4-0.5c0.6-0.7,1.2-0.7,1.7-0.4c0,0,0.1,0,0.1,0.1c0.6,0.3,1,1.3,1.7,1.7c0,0,0,0,0,0c0.2,0.2,0.4,0.2,0.6,0.1
		c0,0,0,0,0,0c0.1,0,0.2,0,0.3-0.1c0,0,0.2-0.2,0.3-0.2L36,8.2c0.5-0.2,0.9-0.3,1.4-0.6c0.1-0.3,0-1,0-1.3c0-0.7,0.1-1.2,0.4-1.4
		c0.5-0.2,1.7-0.4,1.9,0.3c0.2,0.4,0.1,1.4,0.1,1.9c-0.2,0.5,0,1.3,0.7,1.5L42.6,9h-0.1c0.4,0.2,0.9,0,1.1-0.2
		c0.5-0.6,1.3-1.5,2-1.3c0.5,0.2,1.2,0.8,1.1,1.3c-0.2,0.7-1.1,1.3-1.7,1.9c-0.3,0.3-0.4,1-0.1,1.4l0.5,0.7l0.4,0.5
		c0,0.1,0.1,0.1,0.1,0.2c0.1,0.2,0.4,0.6,0.7,0.7c0.7,0.1,1.6-0.1,2.1,0c0.1,0,0.2,0,0.2,0.1c0,0,0,0,0.1,0c0.6,0.4,0.7,1.7,0.3,2.2
		c-0.4,0.5-1.6,0.4-2.3,0.4C46.6,16.9,46.2,16.8,45.9,17.1z M30.3,11.3C30.2,11.2,30.3,11.1,30.3,11.3L30.3,11.3z M46.2,17.6
		c0.2-0.1,0.5,0,0.7,0c0.1,0,0.2,0,0.3,0C46.8,17.6,46.5,17.6,46.2,17.6z M46.7,18.2C46.7,18.2,46.7,18.2,46.7,18.2c0,0,0,0.1,0,0.1
		C46.7,18.3,46.7,18.2,46.7,18.2z M26.6,12.1C26.6,12.1,26.6,12.1,26.6,12.1C26.6,12.1,26.6,12,26.6,12.1z M34.5,26.4
		c0,0,0.1,0.1,0.1,0.1C34.6,26.5,34.6,26.5,34.5,26.4L34.5,26.4z M39,28.8C39,28.8,39,28.8,39,28.8C39,28.8,39,28.8,39,28.8z
		 M38.7,28.6C38.7,28.6,38.7,28.6,38.7,28.6C38.7,28.5,38.7,28.5,38.7,28.6C38.7,28.5,38.7,28.6,38.7,28.6z M40.9,25.9
		c0,0.4-0.1,0.7-0.3,1c0.1-0.3,0.2-0.7,0.2-1.1c0-0.4,0-0.9,0-1.2c0-0.1,0-0.2,0-0.2c0,0,0.1,0,0.1-0.1c0,0,0,0.1,0,0.2V25.9z
		 M46.6,19.8c0,0-0.1-0.1-0.1-0.1C46.5,19.7,46.6,19.8,46.6,19.8z M51.5,15.9c0,0,0.1,0,0.1,0C51.6,15.9,51.6,15.9,51.5,15.9z
		 M51.9,16.1c0,0,0,0.1,0,0.1C51.8,16.1,51.8,16.1,51.9,16.1z"/>
	<path class="st1" d="M19.8,16.1C19.8,16.2,19.7,16.2,19.8,16.1c-0.1,0.2-0.1,0.2-0.1,0.2c-0.1,0.2,0,0.3,0.1,0.5c0,0.1,0,0.2,0,0.4
		c0,0.1,0.1,0.2,0.2,0.3s0.1,0.2,0.3,0.2l0.1-0.1c0-0.1,0-0.1,0.1-0.2c0.1-0.1,0.1-0.2,0.1-0.2c0.1-0.1,0.1-0.2,0.1-0.2
		c0.1-0.3,0.2-0.6-0.1-1.1c-0.1-0.1-0.3-0.4-0.7-0.3c-0.1,0-0.4,0-0.4,0.2C19.4,16,19.6,16.1,19.8,16.1z"/>
	<path class="st1" d="M25.5,27.7c-0.2-0.1-0.4-0.1-0.5-0.1c0-0.1,0-0.1,0.1-0.2c0.5-1.3,0-2.6-1.4-2.9c-0.3-0.1-0.5-0.2-0.8-0.3
		l-0.1-0.6c0.6-0.3,1.3-0.6,1.7-1.1c0.9-1.2,0.1-2.6-0.9-3.5c-0.7-0.6-1.9-0.6-2.6-0.1c-0.3,0.2-0.6,0.3-0.8,0.5L19.3,19
		c0.1-0.2,0-0.3,0.1-0.4c0,0,0-0.1,0-0.1c0-0.1,0.1-0.3,0.2-0.4c0.1-0.3,0.1-0.5,0.1-0.7c0-0.2,0-0.4,0-0.6c-0.1-1-1.2-1.4-1.9-1.6
		c-1.3-0.4-2.8,0-2.9,1.5c0,0.4-0.2,0.6-0.2,0.9c0,0.1,0,0.1,0,0.2L14.2,18c-0.3-0.7-0.6-1.2-0.9-1.5c0.1,0.1,0.3,0.1,0.4,0.2
		c0.1,0.1,0.3,0.2,0.4,0c0.1-0.1,0-0.3,0-0.4c-0.3-1.3-2.5-1.7-3-0.3c0,0.1,0,0.1,0,0.1c0,0,0,0,0,0c0,0,0,0,0,0c0,0,0,0,0,0
		c0,0,0,0-0.1,0c0,0,0.1,0,0.1,0c0,0,0,0,0,0c-0.4,0.2-0.9,0.5-1.4,0.9c-1.1,0.8-0.3,2.2,0.2,3.2l-0.3,0.5c-0.6-0.3-1.2-0.5-2.1-0.5
		c0,0,0,0,0,0c-0.1-0.1-0.2-0.1-0.4-0.1C7,20,6.7,20.5,6.7,20.8c-1,1-1.4,3.1-0.5,4c0.3,0.4,0.8,0.5,1.2,0.6
		c0.4,0.1,0.6,0.1,0.9,0.2l0.1,0.4c-0.5,0.2-1,0.5-1.4,0.9c0,0,0,0,0,0c-0.1,0.1-0.3,0.1-0.6,0.3c-0.2,0.1-0.3,0.2-0.3,0.4
		c0,0.1-0.1,0.1-0.1,0.1c-0.1,0.3,0,0.8,0.2,1.1c0,0.1,0,0.2,0,0.3c0.1,0.1,0.3,0.2,0.4,0.1c0.4,1.2,1.2,2.4,2.5,2.5
		c0.6,0,1-0.2,1.3-0.4c0.3-0.2,0.6-0.3,0.8-0.5l0.2,0.1c-0.2,0.4-0.3,0.9-0.3,1.2c0-0.1-0.1-0.1-0.2,0c-0.1,0.2-0.1,0.2-0.1,0.2
		c-0.9,1.3,0.6,3.1,2,2.4c0.1,0,0.2,0,0.3,0.1c-0.1,0-0.1-0.1-0.2-0.1c0.1,0,0.1-0.1,0.2-0.1c0.1,0,0.3,0,0.4,0.1c0,0,0,0,0,0h-0.1
		c-0.1,0-0.2,0-0.2,0.1c-0.1,0.1,0,0.2,0,0.3c0,0.2,0.2,0.4,0.3,0.4s0.3-0.3,0.3-0.6c-0.1,0,0-0.1,0-0.2c1.7,0.1,2.3-0.8,2.5-2.6
		l0.6-0.2c0.5,1.1,1.1,2.4,2.4,1.9c0,0,0.1,0,0.1,0c1.1-0.1,2.2-1.1,2.4-2.1c0.1-0.7-0.6-1.5-0.9-2c-0.1,0-0.1-0.1,0,0
		c0.3-0.3,0.4-0.6,0.6-0.9c0.6,0.2,1.2,0.3,1.8,0.3c-0.1,0.1-0.3,0.1-0.4,0.2c-0.1,0-0.3,0-0.4,0c-0.1,0-0.2,0-0.3-0.1
		c0,0-0.2,0-0.3,0.1c-0.1,0.2,0,0.5,0.2,0.5c0.9,0.6,2.4,0.6,2.9-0.4c0.2-0.3,0.2-0.6,0.2-0.9v-0.1c0.1-0.1-0.1-0.2-0.1-0.1
		c-0.2,0.1-0.4,0.2-0.6,0.3c0.2-0.2,0.3-0.5,0.5-0.8c0,0,0.1,0,0.1,0L25,27.7c0,0,0,0,0,0c0,0,0,0,0,0c0,0,0.1,0.1,0.2,0.1
		c0,0,0,0-0.1,0c0,0,0.1,0,0.1,0c0,0,0,0,0,0c0,0.1-0.2,0-0.1,0.3c0,0.1,0.1,0.2,0.3,0.2c0.1,0,0.1,0,0.2,0c0.3,0,0.5-0.3,0.2-0.5
		C25.7,27.8,25.5,27.7,25.5,27.7z M13.3,35C13.3,35,13.4,35,13.3,35C13.3,35,13.3,35.1,13.3,35z M21.5,31.2c0-0.1-0.1-0.3-0.2-0.4
		c0-0.3-0.1-0.5-0.2-0.8C21.3,30.5,21.6,30.8,21.5,31.2z M14.3,18.5l0.9-0.3c0,0,0,0,0.1,0C14.9,18.3,14.6,18.4,14.3,18.5
		c-0.1,0.1-0.1,0-0.2-0.1C14.2,18.5,14.2,18.5,14.3,18.5z M11.1,16.8c1.6-1,2.3,0,2.9,1.4c-0.3-0.7-0.8-1.5-1.3-1.6
		c-0.9-0.2-1.8,0.3-2.6,1C10.3,17.3,10.6,17.1,11.1,16.8z M13.5,34.6C13.5,34.6,13.5,34.6,13.5,34.6C13.5,34.6,13.5,34.6,13.5,34.6
		C13.5,34.6,13.5,34.6,13.5,34.6z M17.7,31C17.7,31,17.7,31,17.7,31c0.1,0.1,0.1,0.2,0.1,0.3C17.8,31.2,17.7,31.1,17.7,31z
		 M17.9,31.4c0.3,0.6,0.7,1.3,1.3,1.4C18.6,32.7,18.2,32,17.9,31.4z M23.5,27.7c-0.6,0.4-1.6,0-2.5-0.3c-0.2,0-0.3,0-0.4,0.2
		c-0.2,0.5-0.5,1-0.7,1.5c-0.1,0.1-0.1,0.3,0,0.4c0,0.3,0.2,0.4,0.3,0.6c0.2,0.3,0.4,0.8,0.4,1.2c0,0.6-0.4,0.9-0.7,1.1
		c-1,0.9-1.7-0.6-2-1.3c-0.1-0.1-0.1-0.2-0.3-0.3c-0.1-0.1-0.3-0.2-0.4-0.2c-0.5,0.2-1.1,0.3-1.5,0.5c-0.1,0-0.2,0.1-0.2,0.2
		c-0.2,0.1-0.3,0.2-0.3,0.4c-0.2,1.3-0.5,2-1.9,1.4c-0.5-0.3-0.2-1.2,0-1.7l0.1-0.4c0.2-0.3,0-1-0.4-1.2c-0.3-0.2-0.9-0.5-1.2-0.6
		c-0.3-0.1-0.7-0.3-1-0.2c-0.5,0.2-1.4,1-1.9,0.6c-0.9-0.7-0.8-1.3,0.3-1.8c0.3-0.2,0.8-0.4,1-0.6c0.2-0.3,0.2-0.6,0.1-0.9
		c-0.1-0.3-0.3-1-0.4-1.2c-0.1-0.3-0.2-0.5-0.5-0.6c-0.2,0-0.5-0.1-0.6-0.1C8,24.3,7.3,24,7.5,23.1c0.1-1.6,1.5-0.9,2.6-0.6
		c0.3,0.1,0.6-0.1,0.7-0.3c0.1-0.1,0.3-0.4,0.3-0.5l0.3-0.7c0.2-0.4,0.2-0.7,0-1c-0.2-0.4-0.5-0.9-0.5-1.3c0-0.5,0.5-0.8,0.9-1
		c1.3-0.6,1,2,2.3,2.1c0.3,0,1-0.2,1.3-0.3c0.4-0.1,0.7,0.1,1-0.4c0.3-0.5,0.2-0.6,0.3-1c0.2-0.9,0.5-1.2,1.6-0.7
		c0.3,0.3,0.2,0.7,0.1,1c-0.1,0.3-0.2,0.8-0.3,1.2c-0.1,0.3,0,0.7,0.4,0.9l1.4,0.7l-0.1-0.1c0.4,0.3,1,0.1,1.3-0.1
		c0.3-0.2,1-0.5,1.3-0.3c0.2,0.1,0.4,0.5,0.5,0.7c0,0.2-0.1,0.3-0.3,0.5c-0.3,0.2-0.9,0.5-1.3,0.7c-0.7,0.4-0.4,1.1-0.2,1.7
		c0.2,0.4,0.3,1.2,0.7,1.4c0.4,0.2,1.1,0.2,1.5,0.4C23.9,26.3,23.8,27.3,23.5,27.7z M25.5,28.1C25.4,28,25.4,28,25.5,28.1
		C25.5,28,25.5,28.1,25.5,28.1z"/>
	<path class="st1" d="M16.7,20.6c-1-0.2-1.9-0.2-2.7,0c0.1-0.1,0.1-0.2,0-0.2c0.2-0.4-0.5-0.7-0.9-0.6c-0.2,0-0.3,0.1-0.5,0.2
		c-0.4,0.2-0.5,1.1-0.1,1.3c0,0,0.1,0,0.1,0c-2.7,2-2.4,6.8,1.9,8.4c-0.1,0.1-0.1,0.3,0.1,0.4c0.5,0.5,1.6,0.8,2.1,0.2
		c0.2-0.1,0.3-0.3,0.4-0.4C21.6,29,22.5,21.7,16.7,20.6z M13.8,20.2C13.9,20.2,13.8,20.2,13.8,20.2C13.8,20.2,13.8,20.2,13.8,20.2z
		 M19,25.6c-0.1,0-0.2-0.1-0.3,0c0,0.1-0.6,0-0.6,0.2c0,0.1,0.2,0.1,0.2,0.2s0,0,0,0.2c0.1,0.1,0.3,0.2,0.5,0.1
		c-0.2,0.6-0.6,1-1,1.3c0.3-0.3,0.5-0.7,0.5-1c0-0.1,0.1-0.1,0.1-0.2c0,0,0,0,0,0c0,0,0,0,0-0.1c0,0-0.1,0.1-0.1,0.1
		c0,0,0-0.1,0-0.1c-0.5,0.8-1.6,0.7-2.5,0.8c-0.7,0.3-1.6,0.3-2.2-0.1c-0.2-0.1-0.4,0-0.4,0.2c-0.9-0.7-1.4-1.7-1.2-3
		C13.1,20.3,20.4,21.4,19,25.6z"/>
</g>
<g>
	<path class="st1" d="M56.6,18.1c0.1,0,0.1-0.1,0.1-0.2l0-0.1c-1.1,0.4-1.9,0.9-2,1.7C54.9,18.9,55.7,18.5,56.6,18.1z"/>
	<path class="st1" d="M58.7,22C58.7,22,58.7,22,58.7,22C58.7,22.1,58.7,22.1,58.7,22z"/>
	<path class="st1" d="M64.6,13.8C64.6,13.7,64.5,13.8,64.6,13.8L64.6,13.8z"/>
	<path class="st1" d="M54.5,19.5c0-0.2,0.1-0.4,0.2-0.6c0.2-0.2,0.4-0.4,0.2-0.6c-0.1-0.1-0.3,0-0.4,0c-1.3,0.3-1.7,2.5-0.3,3
		c0.1,0,0,0,0.2-0.1c0.2-0.5,0.2-1,0.1-1.3C54.5,19.7,54.5,19.6,54.5,19.5z M54.3,21.1C54.3,21.1,54.3,21.1,54.3,21.1
		C54.3,21.1,54.4,21.1,54.3,21.1z"/>
	<path class="st1" d="M66.6,7.1C66.6,6.9,66.5,7.1,66.6,7.1L66.6,7.1z"/>
	<path class="st1" d="M73.1,18.4C73.1,18.4,73,18.4,73.1,18.4c0-1.7-0.9-2.3-2.8-2.5l-0.2-0.6c1-0.4,2-1,1.9-2.1
		c0.1-1.2-0.9-2.6-2.1-2.8c-0.7-0.1-1.5,0.6-2,0.9c-0.1,0-0.2,0,0.1-0.3h0.1c-0.4-0.2-0.7-0.3-1-0.5c0.1-0.5,0.3-0.9,0.3-1.3
		c0,0.2,0,0.4,0.1,0.6c0,0,0,0,0,0c0,0,0,0.1,0,0.1c0,0,0,0.2,0.1,0.3c0.2,0.1,0.5,0,0.5-0.2c0.6-0.8,0.6-2.3-0.4-2.8
		C67.4,7,67.1,7,66.8,7l0,0c-0.1,0-0.1,0-0.2,0c0.1,0,0,0.1,0,0c0,0,0,0,0,0c0,0,0,0,0,0.1c0,0.1,0.1,0.2,0.1,0.3
		c-0.1-0.1-0.2-0.1-0.3-0.2c0.1,0,0.2-0.1,0.2-0.3c0-0.1,0-0.1,0-0.2c0-0.3-0.3-0.5-0.5-0.2c0,0.1-0.1,0.3-0.1,0.3
		c0,0.1,0,0.1-0.1,0.2c0,0,0,0,0,0c-1.3-0.5-2.6,0-2.9,1.3c-0.1,0.3-0.2,0.5-0.3,0.8l-0.5,0.1c-0.3-0.6-0.6-1.3-1.2-1.8
		c-1.2-0.8-2.6,0-3.5,1c-0.6,0.7-0.6,1.9-0.1,2.6c0.2,0.3,0.3,0.6,0.5,0.8l-0.3,0.6c0,0-0.1,0-0.1,0c-0.6-0.1-1.2-0.4-1.8-0.3
		c0.1-0.1,0.2-0.1,0.2-0.3l-0.1-0.1c-0.1,0-0.1,0-0.2-0.1c-0.1-0.1-0.2-0.1-0.2-0.1c-0.1-0.1-0.2-0.1-0.2-0.1
		c-0.3-0.1-0.6-0.2-1.1,0.1c-0.1,0.1-0.4,0.3-0.3,0.7c0,0.1,0,0.4,0.2,0.4c0.2,0.1,0.3-0.1,0.3-0.3c0,0,0,0.1,0.1,0.1
		c0.1,0,0.1,0,0.1,0c0.1,0.1,0.3,0.1,0.4,0c0,0,0,0,0.1,0c-1.1,0.8-1.4,3-0.6,3.9c0,0,0,0,0.1,0.1c0,0,0,0,0,0c0,0,0,0,0,0
		c0.1,0.1,0.3,0.3,0.6,0.4c0.2,0.1,0.4,0.1,0.6,0.1c0.2,0.1,0.6,0.3,0.7,0.2l0.2,0.7c0,0,0,0,0,0c0,0.1,0.1,0.2,0.1,0.3
		c-0.7,0.3-1.9,0.9-2,1.5c-0.1,0.5,0,1,0.2,1.4c-0.3-0.6-0.4-1.1-0.3-1.5c-0.2,0.4-0.1,0.9,0.3,1.6c0.1,0.1,0.2,0.2,0.2,0.4
		c0-0.1-0.1-0.2-0.1-0.3c0-0.1,0-0.1-0.1-0.1c0.1,0.2,0.2,0.4,0.4,0.6c-0.1-0.1-0.1-0.2-0.2-0.2c0.2,0.4,0.4,0.7,0.7,0.9
		c0.7,0.9,1.5,0.5,2.3,0c0.1,0,0.1-0.1,0.2-0.1c0.1,0,0.1-0.1,0.2-0.1c0,0,0,0.1,0,0.1c0,0,0-0.1,0.1-0.1c0,0,0,0,0,0c0,0,0,0,0,0
		c0,0,0.1,0,0.1-0.1c0,0,0,0,0,0s0,0,0.1,0c0,0,0.1,0,0.1,0c0,0,0,0,0,0c0.1,0.1,0.3,0.1,0.5,0.2c-0.3,0.8-0.4,1.5-0.3,2
		c0,0-0.1,0-0.1,0c-0.3,0.2-0.4,0.3-0.4,0.6c-0.2,0.4,0.4,0.7,0.7,0.5c0.2,0,0.2-0.2,0.1-0.2c0,0,0-0.1,0-0.1
		c0.2,0.3,0.5,0.5,0.8,0.6c0.5,0.3,1.1,0.4,2,0.5c0.9,0.1,1.9-0.7,2-1.7c0.1-0.4,0.1-0.6,0.2-0.9l0.1,0c0.2,0.5,0.5,1,0.8,1.5
		c-0.2-0.1-0.3,0-0.2,0.1c0.1,0.1,0.1,0.2,0.2,0.4c0.1,0.2,0.2,0.5,0.6,0.6c0.5,0.1,0.9,0,1.2-0.2c0.1,0,0.2,0,0.3,0
		c0.1-0.1,0.2-0.2,0.1-0.3c1.2-0.4,2.4-1.2,2.5-2.5c0-0.6-0.2-1-0.4-1.3c-0.2-0.3-0.3-0.6-0.5-0.8l0.1-0.2c0.5,0.2,0.9,0.3,1.3,0.3
		c0,0-0.1,0.1-0.1,0.1c-0.1,0-0.1,0.1,0,0.2c0.2,0.1,0.2,0.1,0.2,0.1c1.4,0.8,3.2-1,2.4-2.3c0,0,0,0,0-0.1c0-0.1,0-0.2,0-0.2
		c0,0,0,0,0.1,0c0.1,0.1,0.2,0,0.3,0c0.2,0,0.4-0.2,0.4-0.3C73.7,18.6,73.4,18.4,73.1,18.4z M54.1,12.2
		C54.1,12.2,54.1,12.2,54.1,12.2C54.1,12.2,54.1,12.2,54.1,12.2C54.1,12.2,54.1,12.2,54.1,12.2z M63.3,9.7
		C63.3,9.7,63.3,9.7,63.3,9.7C63.3,9.7,63.3,9.6,63.3,9.7C63.3,9.6,63.3,9.6,63.3,9.7C63.3,9.6,63.3,9.6,63.3,9.7
		C63.3,9.6,63.3,9.6,63.3,9.7z M63.4,9.1C63.4,9.1,63.4,9.1,63.4,9.1c0-0.1,0-0.2,0.1-0.3C63.5,8.9,63.5,9,63.4,9.1z M58,18.1
		c0-0.3-0.2-1-0.3-1.3c-0.1-0.4,0-0.7-0.4-1c-0.5-0.3-0.6-0.2-1-0.3c-0.9-0.2-1.2-0.5-0.7-1.6c0.3-0.3,0.7-0.2,1-0.1
		c0.3,0.1,0.8,0.2,1.2,0.3c0.3,0.1,0.7,0,0.9-0.4l0.7-1.4l-0.1,0.1c0.3-0.4,0.1-1-0.1-1.3c-0.2-0.3-0.5-1-0.3-1.3
		c0.1-0.2,0.5-0.4,0.7-0.5c0.2,0,0.3,0.1,0.5,0.3c0.2,0.3,0.5,0.9,0.7,1.3c0.4,0.6,1.1,0.3,1.7,0.1c0.4-0.2,1.2-0.3,1.4-0.7
		c0.2-0.4,0.2-1.1,0.4-1.5c0.2-0.6,1.2-0.5,1.6-0.2c0.4,0.6,0,1.6-0.3,2.5c0,0.2,0,0.3,0.2,0.4c0.5,0.2,1,0.5,1.5,0.7
		c0.1,0.1,0.3,0.1,0.4,0c0,0,0,0,0,0c0,0,0,0,0.1,0c0.3,0,0.4-0.2,0.6-0.3c0.3-0.2,0.8-0.4,1.2-0.4c0.4,0,0.7,0.2,0.9,0.4
		c0.1,0.1,0.1,0.2,0.2,0.3c0.5,0.7,0.1,1.2-0.3,1.6c-0.3,0.2-0.6,0.3-0.9,0.5c0,0-0.1,0-0.1,0c0,0,0,0,0,0c-0.1,0.1-0.3,0.1-0.4,0.2
		c-0.1,0.1-0.2,0.3-0.2,0.4c0.2,0.5,0.3,1.1,0.5,1.5c0,0.1,0.1,0.2,0.3,0.3c0.1,0.2,0.2,0.3,0.4,0.3c0.7,0.1,1.3,0.3,1.5,0.6
		c0.1,0.2,0.1,0.5,0,0.9c0,0.2-0.1,0.3-0.1,0.5c-0.3,0.4-1.2,0.1-1.7-0.1l-0.4-0.1c-0.3-0.2-1,0-1.2,0.4c-0.2,0.3-0.5,0.9-0.6,1.2
		c-0.1,0.3-0.3,0.7-0.2,1c0.2,0.5,1,1.4,0.6,1.9c-0.7,0.9-1.3,0.8-1.8-0.3c-0.2-0.3-0.4-0.8-0.6-1c-0.3-0.2-0.6-0.2-0.9-0.1
		c-0.3,0.1-1,0.3-1.2,0.4c-0.3,0.1-0.5,0.2-0.6,0.5c0,0.2-0.1,0.5-0.1,0.6c-0.1,0.8-0.4,1.5-1.3,1.3c-1.6-0.1-0.9-1.5-0.6-2.6
		c0.1-0.3-0.1-0.6-0.3-0.7c-0.1-0.1-0.4-0.3-0.5-0.3l-0.7-0.3c-0.2-0.1-0.4-0.1-0.5-0.1c-0.1,0-0.2,0-0.2,0c0,0,0,0,0,0c0,0,0,0,0,0
		c0,0,0,0,0,0c-0.1,0-0.1,0.1-0.2,0.1c-0.4,0.2-0.8,0.5-1.3,0.5s-0.8-0.5-1-0.9C55.3,19.1,57.9,19.4,58,18.1z M69.6,10.8
		c-0.2,0-0.4,0.1-0.6,0.2c-0.3-0.1-0.5,0-0.8,0.1C68.8,10.8,69.3,10.5,69.6,10.8z M66.2,6.8C66.2,6.8,66.3,6.8,66.2,6.8
		C66.2,6.9,66.2,6.9,66.2,6.8z M66,7C66,7,66,7,66,7C66,7.1,66,7.1,66,7C66,7,66,7,66,7z M56.4,17.1C56.4,17.1,56.4,17,56.4,17.1
		C56.4,17,56.4,17,56.4,17.1C56.4,17.1,56.4,17.1,56.4,17.1z M57.1,18.5c-0.5,0.4-1.3,0.8-1.6,1.3C55.5,19.1,56.4,18.8,57.1,18.5z
		 M58.7,24.6C58.7,24.6,58.7,24.6,58.7,24.6C58.7,24.6,58.6,24.6,58.7,24.6z M59.2,25.1C59.2,25,59.2,25,59.2,25.1L59.2,25.1z
		 M70.5,21.5C70.5,21.5,70.6,21.5,70.5,21.5C70.6,21.5,70.5,21.5,70.5,21.5z M73.2,18.9C73.2,18.9,73.2,18.8,73.2,18.9
		C73.2,18.9,73.3,18.9,73.2,18.9z"/>
	<path class="st1" d="M58.2,19.6c0.2,0.4,0.9,0.5,1.2,0.2c0,0,0,0,0.1,0c0,0,0,0,0-0.1c0,0,0,0,0,0c0,0,0,0,0,0c2,2.7,7,2.4,8.4-1.9
		c0.1,0.1,0.2,0,0.3-0.1c0.5-0.5,0.8-1.6,0.2-2.1c-0.1-0.2-0.3-0.3-0.4-0.4c0,0,0,0,0,0c-1-4.4-8-5.2-9.2,0.5
		c-0.2,1.1-0.2,2.1,0.1,2.9c0,0,0,0-0.1-0.1c0,0,0-0.1,0-0.1c0,0-0.1,0-0.1,0c-0.4-0.4-0.8,0.4-0.7,0.8C58,19.3,58.1,19.4,58.2,19.6
		z M63.8,13.2c0,0.1-0.1,0.2,0,0.3c0.1,0,0,0.7,0.2,0.6c0.1,0,0.1-0.2,0.2-0.2c0.1,0,0,0,0.2,0c0.1-0.1,0.2-0.3,0.1-0.5
		c0.5,0.2,0.8,0.5,1.1,0.8c-0.3-0.2-0.7-0.4-1-0.4c0,0,0,0,0,0c0,0,0,0,0,0c0,0-0.1,0-0.1,0c0.8,0.7,0.7,1.6,0.8,2.5
		c0.3,0.7,0.3,1.6-0.1,2.2c-0.1,0.2,0,0.4,0.2,0.4c0,0,0.1,0,0.1,0c-0.7,0.9-1.8,1.6-3.1,1.3C58.6,19.2,59.6,11.9,63.8,13.2z
		 M58.6,18.5C58.5,18.5,58.5,18.5,58.6,18.5C58.5,18.5,58.5,18.5,58.6,18.5z"/>
</g>
</svg>
