<?xml version="1.0" encoding="utf-8"?>
<!-- Generator: Adobe Illustrator 26.2.1, SVG Export Plug-In . SVG Version: 6.00 Build 0)  -->
<svg version="1.1" id="Layer_1" xmlns="http://www.w3.org/2000/svg" xmlns:xlink="http://www.w3.org/1999/xlink" x="0px" y="0px"
	 viewBox="0 0 80 80" style="enable-background:new 0 0 80 80;" xml:space="preserve">
<style type="text/css">
	.st0{fill:#FFFFFF;stroke:#FFFFFF;stroke-width:0.75;stroke-miterlimit:10;}
	.st1{fill:#FFFFFF;}
</style>
<path class="st0" d="M44.7,32.7c3.3-0.3,6.6-0.2,9.8,0.6c1.7,0.4,3.5,1.1,4.8,2.3c1.9,1.6,2.8,4,4.3,5.9c1.6,2,3.6,3.8,5.3,5.8
	c2.4,2.8,2.4,6.7,3.5,10.1c0.7,2.1,0.6,4.5-0.8,6.3c-2.6,3.4-6.4,5.7-10.3,7.2c-2.1,0.9-4.4,1.4-6.7,1.4c-3.6,0.1-7.1,0.4-10.7,0.5
	c-2.7,0.1-5.4-1.2-8.1-0.6c-2.2,0.4-4.3,1-6.4,1.4c-3.7,0.9-7.6,0.8-11.4,1c-2.8-0.2-5.7,0.1-8.4-0.7c-2-1.5-3.2-3.9-3.3-6.4
	c-0.2-2.9,1.1-5.5,2.1-8.1c1.2-3,1.5-6.2,2.6-9.2c1.1-2.9,3.1-5.5,5.9-7c2-1,3.8-2.2,5.4-3.8c3.2-3.1,7.6-4.7,11.9-5.7
	C37.7,33.1,41.2,32.9,44.7,32.7z M41.7,34.3c0.9,1.9,0.8,4.1,0.4,6.1c-0.7,3.4-2.5,6.8-5.4,8.8c1.7,2.1,2.3,4.9,2.1,7.6
	c2.7-3,6.1-5.5,10-6.6c3.4-1,7.4-0.8,10.3,1.5c1.2,0.9,1.8,2.3,2,3.7c1.1-0.3,2.3-0.6,3.5-0.7c-2,2.8-5.5,3.6-8.5,4.6
	c0.1-1.7,2.2-2,3.3-2.9c-0.2-1.3-0.5-2.8-1.8-3.5c-3.4-2.4-8-1.5-11.6,0c-0.9,3.1-1,6.7,0.7,9.6c2-1.3,3.6-3.2,4.6-5.4
	c-0.4-0.7-0.7-1.4-1-2.2c1.8-0.7,3.7,0,4.7,1.7c-0.6,0.3-1.3,0.4-1.8,0.8c-0.8,1-1.3,2.2-2.2,3.2c-1,1.2-2.3,1.9-3.6,2.7
	c2.5,1.9,5.6,2.6,8.7,2.3c1.2-0.2,2.2-1.1,3.4-1.1c-0.3,1.6-1.8,2.8-3.4,2.9c-3.8,0.4-8.2-0.3-10.7-3.5c-2-2.8-2.2-6.6-1.5-9.9
	c-1.9,1.4-4.1,2.7-5.3,4.8c-1.3,4.5-3.8,8.8-7.2,12c2-0.4,3.9-0.9,5.9-1c1.7-2.4,4.3-4,7.1-4.8c-1.1,2.1-2.9,3.7-4.7,5.1
	c4.9,1.5,10,0.8,15,0.7c3.3,0,6.4-1.4,9.3-2.9c0.9-0.6,2.2-1,2.3-2.2c0.3-2.8,0.2-5.7-0.7-8.4c0.7-0.2,1.8-0.3,2,0.6
	c0.8,2.3,0.6,4.8,0.6,7.1c1.3-1.4,3-2.8,3.1-4.9c-0.1-1.8-0.7-3.6-1.1-5.3c-0.5-1.9-0.7-3.9-1.8-5.6c-1.3-1.9-3.1-3.5-4.6-5.3
	c-1.5-1.7-2.7-3.7-3.8-5.7c-0.6,1-1.1,2.2-2.2,2.8c-1,0.6-2.2,0.8-3.3,1.1c0.9,2.1,3.3,2.5,5.2,3.4c0.9-0.6,1.8-1.3,3-1.3
	c-0.8,1.9-1.7,3.8-3.3,5.2c-0.7-0.7-0.9-1.6-0.8-2.6c-2.3-0.4-4.4-2.2-4.7-4.6c-3.3,0.7-6.9,1-9.7,3.1c0.6,0.9,1.7,1.3,2.7,1.7
	c-1.9,1.5-4.5-0.2-5-2.2c0.3,0,1,0,1.3,0.1c0.4-0.6,0.9-1.2,1.6-1.6c2.9-1.8,6.4-2.5,9.6-3.4c1-0.3,2-0.6,2.9-1.3
	c0.6-0.6,0.9-1.3,1.3-2C53.5,33.2,47.2,33.7,41.7,34.3z M27.8,38c0.2,1.2,0.3,2.5,1.2,3.4c0.9,0.9,2.1,1.3,3.3,1.8
	c0.2-0.9,0.6-3,2-2c0.5,1.9,0,3.9-0.7,5.7c-0.5-0.8-0.9-1.6-1.1-2.5c-1.3,0.2-2.7,0.2-3.8-0.6c-1.5-1.2-2.1-3.2-2.1-5
	c-1.6,1-3,2.2-4.4,3.5c-2.1,1.9-4.9,2.8-7.1,4.7c-0.3,1.8-0.1,3.7,1.2,5.1c1.4,1.5,3.2,2.6,5.2,3.2c-1.6,0.7-3.5,0.1-5-0.7
	c-1.9-1.2-2.6-3.4-2.9-5.5c-2.1,3.5-2.2,7.7-3.8,11.4c-1.1,2.7-2.5,5.4-2.3,8.4c1.2,1,1.7,2.5,2.6,3.8c2.9,0.4,5.8,0.1,8.7,0.1
	c3.4-0.4,7-0.4,10.3-1.4c1.5-0.9,2.4-2.3,3.6-3.6c-1-1.2-2.3-2.3-4-2.3c-3.7-0.2-6.6,2.7-10.2,3.1c-1.6,0.3-3.3-0.1-4.4-1.4
	c-1.6-1.9-2.1-4.6-1.7-7c-0.7-0.4-0.9-1.2-1-1.9c2-0.8,4.2-0.7,6.2,0.1c-1.2,0.6-2.5,1-3.8,1.4c0.3,1.9,0.3,3.9,1.4,5.5
	c0.7,1.1,2,1.6,3.3,1.4c3.4-0.4,6.3-2.8,9.9-2.5c2,0,3.7,1.2,4.9,2.8c1.8-2.6,3.2-5.5,4-8.5c0.5-2.4,0.4-5.1-1.1-7.1
	c-1.2-1.8-3.4-2.5-5.4-2.2c-1.9,0.3-3.9,1-5.3,2.4c-0.2,2,0.8,4,1.9,5.6c0.7-0.7,1.5-1.3,2.3-1.8c0.4,0.5,0.6,1.1,0.2,1.7
	c-0.6,1.2-1.8,2.1-2.9,2.7c-1,0.6-2.4,1.1-3.4,0.2c1.2-0.4,2.3-1.1,3.3-2c-2.4-0.9-3.3-3.7-3.2-6.1c0.1-1.2,1.1-2.2,2.1-2.8
	c2.9-1.6,6.5-2.4,9.6-0.9c2.5-1.5,4-4.2,4.8-6.9c0.6-2.2,1-4.6-0.2-6.7C35.6,35,31.6,36.1,27.8,38z"/>
<g>
	<g>
		<path class="st1" d="M46.6,19.8c-0.1-0.1-0.2-0.1-0.2-0.1c0-0.1,0-0.1,0.1-0.3c0.1-0.4,0.2-0.7,0.2-1.2c0.3,0,0.6,0,1.1,0
			c2.2,0.1,3-0.4,3.1-2.8c0-2-0.9-2.9-2.8-2.9c-0.4,0-1.3-0.2-1,0.2c-0.2-0.3-0.4-0.6-0.6-1c-0.1-0.1-0.2-0.3-0.3-0.4
			c0.4-0.4,0.9-0.9,1.4-1.3c1.5-1.4,0.5-3.1-1.1-4.1c-1.8-1.3-2.8,0-4.1,1.4c-0.5-0.1-1-0.2-1.5-0.3c0,0,0-0.1,0-0.2
			c0-0.5,0.1-1.2,0.1-1.7C41.2,3.4,40,3,38.3,3c-1.4,0-2.7,0.4-2.9,1.9c0,0.3,0,0.6,0,0.9c0,0.4-0.2,1.3,0.2,1
			c-0.4,0.3-1,0.6-1.4,0.9c-0.6-0.7-1.6-2.1-2.6-2.1c-1.3,0-2.3,1.2-3.1,2.1c-0.9,1.3-0.2,2.1,0.7,3c0.2,0.2,0.5,0.5,0.7,0.7
			c0,0.1,0,0.1,0,0.2c-0.1,0.4-0.2,0.7-0.2,1.2c-1.1-0.1-2.7-0.3-3.3,0.3c-1,0.9-0.9,2.6-0.6,3.7c0.2,1.3,1.1,1.6,2.2,1.6
			c0.4,0,0.9,0,1.2,0c0.1,0,0.2,0,0.2,0c0.2,0.4,0.5,0.9,0.7,1.2c-0.7,0.6-2.1,1.6-2.1,2.6c0,1.3,1.2,2.3,2.1,3.1
			c1.3,0.9,2.1,0.2,3-0.7c0.2-0.2,0.5-0.5,0.7-0.7c0.1,0,0.1,0,0.2,0c0.4,0.1,0.7,0.2,1.2,0.2c-0.1,1.1-0.3,2.7,0.3,3.3
			c0.9,1,2.6,0.9,3.7,0.6c1.3-0.2,1.6-1.1,1.6-2.2c0-0.4,0-0.9,0-1.2c0-0.1,0-0.2,0-0.2c0.4-0.2,0.9-0.5,1.2-0.7
			c1.1,1.3,2.1,2.8,3.8,1.8c1.5-0.9,3-2.9,1.5-4.3C47.3,20.5,47,20.1,46.6,19.8z M30.3,11.3C30.2,11.2,30.3,11.1,30.3,11.3
			L30.3,11.3z M34.1,23.6C34,23.7,33.9,23.6,34.1,23.6L34.1,23.6z M46.3,23.8c-1.4,1.5-2.6-0.4-3.5-1.4c-0.1-0.2-0.4-0.2-0.6-0.1
			c-0.6,0.4-1.2,0.7-1.8,1.2c-0.1,0.1-0.3,0.2-0.2,0.4c0.1,1.6,0.3,3-1.8,3.1c-2.2,0.1-1.7-1.9-1.7-3.5c0-0.2-0.2-0.4-0.4-0.5
			c-0.7-0.1-1.4-0.3-2.1-0.4c-0.2,0-0.4,0-0.5,0.1c-1.1,1.2-2,2.2-3.5,0.9c-1.5-1.4,0.4-2.6,1.4-3.5c0.2-0.2,0.2-0.4,0.1-0.6
			c-0.4-0.6-0.7-1.2-1.2-1.8c-0.1-0.1-0.3-0.3-0.4-0.2c-1.6,0.1-3,0.3-3.1-1.8c-0.1-2.2,1.9-1.7,3.5-1.7c0.2,0,0.4-0.2,0.5-0.4
			c0.1-0.7,0.3-1.4,0.4-2.1c0-0.2,0-0.4-0.1-0.5c-1.2-1.1-2.2-2-0.9-3.5C31.8,6,33,7.9,33.9,8.9c0.2,0.2,0.4,0.2,0.6,0.1
			c0.6-0.4,1.2-0.7,1.8-1.2c0.1-0.1,0.3-0.3,0.2-0.4c0.1-1.5-0.2-3,1.9-3c2.2-0.1,1.7,1.9,1.7,3.5c0,0.2,0.1,0.4,0.3,0.4
			c0.6,0.1,1.4,0.2,2.1,0.4c0.1,0.1,0.3,0,0.4-0.1c1.2-1.2,2.1-2.2,3.6-0.7s-0.4,2.7-1.4,3.6c-0.1,0.1-0.2,0.4-0.1,0.6
			c0.4,0.6,0.7,1.2,1.2,1.8c0.1,0.1,0.2,0.2,0.4,0.2c1.6-0.1,3-0.3,3.1,1.8c0.1,2.2-2,1.7-3.5,1.7c-0.2,0-0.4,0.2-0.5,0.4
			c-0.1,0.7-0.3,1.4-0.4,2.1c0,0.2,0,0.4,0.1,0.5C46.7,21.3,47.8,22.2,46.3,23.8z"/>
		<g>
			<path class="st1" d="M46.6,19.8c-0.1-0.1-0.3-0.1-0.2-0.2c0.2-0.4,0.1-1.1,0.4-1.5c1,0,2,0.1,2.9-0.2c1.5-0.5,1.4-4.2,0-4.7
				c-0.6-0.3-1.6-0.2-2.3-0.2c0,0,0,0,0.1-0.1c0-0.2,0-0.1,0-0.1l-0.6,0.4l-1-1.4c-0.1-0.2-0.1-0.4,0.1-0.5c1.2-1.3,2.8-2.3,1-4.1
				c-1.8-1.7-2.6-1-4,0.8c-0.1,0.1-0.3,0.2-0.4,0.1L41,7.7c-0.3,0-0.4-0.3-0.3-0.6c0,0,0-0.4,0.1-0.6c0.2-2,0.2-3-2.2-3.1
				c-1-0.1-2,0.1-2.5,0.9c-0.4,0.6-0.2,1.7-0.3,2.5c0,0,0,0-0.1,0l0,0l0.2,0.3L34.5,8c-0.1,0-0.2,0-0.2,0c-1.4-1.8-2.6-3.1-4.5-1.1
				c-2,2-1.2,2.8,0.6,4.5c0.1,0.1,0.1,0.2,0.1,0.3c-0.1,0.5-0.2,1-0.2,1.4c0,0.2-0.2,0.3-0.4,0.3c-1.4,0-2.9-0.5-3.4,1
				c-0.3,1-0.3,2.9,0.5,3.5c0.4,0.3,1.3,0.2,1.9,0.2c0.2,0,0.5,0,0.5,0l0.6,0.2l0.7,1.2c0.4,0.7-0.9,1.2-1.2,1.7
				c-0.6,0.6-1.1,1.1-0.6,1.9c0.4,0.9,1.7,2.2,2.8,2.1c0.6-0.1,1.4-1,2-1.7c0.3-0.3,0.9,0,1.3,0c0.4,0.1,1.2,0.1,1.2,0.7
				c-0.1,1-0.2,2,0,2.7c0.5,1.1,2.3,1,3.4,0.7c1-0.1,1.2-0.9,1.3-1.7v-1.4c0-0.2,0-0.3,0.1-0.4l1.3-0.7c0.1-0.1,0.3,0,0.4,0.1
				c0.6,0.7,1.2,1.6,1.9,1.9c1.6,0.7,3.7-1.4,3.7-3C48.2,21.1,47.2,20.6,46.6,19.8L46.6,19.8z M46.7,19.7c0.5,0.6,1.7,1.4,1.7,2.3
				c0.1,1.8-2.2,4.2-4.1,3.4c-1-0.4-1.6-1.3-2.2-1.9l0.4,0.1l-1.2,0.9l0.1-0.4c0.1,0.6,0.1,1.1,0.1,1.6s0,1.1-0.3,1.7
				c-0.3,0.5-1,0.9-1.5,1c-3.8,0.7-5.4-0.5-4.8-4.5l0.4,0.6L34,24.2l0.5-0.2c-0.3,0.3-0.6,0.7-1.1,1.1c-0.4,0.3-0.9,0.7-1.5,1
				c-0.6,0.2-1.4-0.1-1.9-0.4c-1-0.5-1.8-1.3-2.2-2.3c-1-1.8,0.9-3.3,2.1-4.3l0.1,0.6l-0.7-1.2l0.6,0.2c-0.7,0.1-1.1,0-1.7,0.1
				c-0.5,0-1.2-0.1-1.7-0.4c-1.6-1.1-1.6-5.3,0.3-6.1c1.2-0.3,2.1-0.1,3.1,0l-0.3,0.2l0.3-1.4l0.1,0.3c-1.1-1.1-2.7-2.6-1.5-4.1
				c0.9-1.2,2.2-2.8,3.8-2.1c1,0.5,1.5,1.4,2.1,2.1h-0.2l1.4-1c0.1-0.1,0.2-0.1,0.3,0c0.1,0.2-0.1,0.4-0.4,0.4
				c-0.2,0-0.3-0.2-0.3-0.3c0-0.4,0.1-0.7,0-1.2c-0.2-1.9,1.4-2.9,3.2-2.8c2-0.1,3.3,0.9,3.1,3c0,0.3,0,0.9,0,1.2
				c0,0.1,0,0.3-0.1,0.5L41,6.7L42.5,7l-0.4,0.1c0.3-0.3,0.6-0.7,1-1.2c1.4-1.5,3.2-1.1,4.5,0.3c1.5,1.3,1.6,3.3-0.1,4.5l-1.1,1
				l0.1-0.5l0.9,1.5c0.1,0.2,0.1,0.4-0.1,0.6c-0.4,0.2-0.7-0.2-0.6-0.6c0.1-0.3,0.3-0.3,0.4-0.3c1,0.1,1.8,0,2.7,0.4
				c1.5,0.9,1.3,2.9,0.9,4.3c-0.5,1.7-2.7,1.3-4.1,1.3h0.1c-0.1,0.5-0.2,1-0.3,1.5l-0.1-0.1C46.6,19.6,46.6,19.7,46.7,19.7
				L46.7,19.7z"/>
			<path class="st1" d="M30.3,11.4c0,0.1-0.2,0.2-0.3,0.1c-0.1-0.1-0.1-0.1-0.2-0.1s-0.1,0,0-0.1c0.1,0,0.3,0,0.3-0.1v-0.1
				c0.1-0.3,0.4-0.2,0.5,0c0,0,0,0,0.1,0.1c0,0.1,0.1,0,0.2,0.1l0.1,0.1c-0.1,0.1-0.1,0-0.2,0.1C30.6,11.5,30.3,11.5,30.3,11.4
				L30.3,11.4z M30.2,11.2c0-0.2-0.3-0.2-0.4-0.1c-0.1,0.1-0.1,0-0.2,0c0,0,0.1,0,0.1,0.1c0,0,0,0,0.1,0c0.1,0.1,0.3,0.3,0.5,0.2
				c0.1-0.1,0.2-0.2,0.1-0.2l0,0c0,0,0.5,0,0.2,0c0,0-0.1,0-0.2-0.1C30.4,11.1,30.2,11.1,30.2,11.2L30.2,11.2z"/>
			<path class="st1" d="M34.2,23.6c0.1,0,0.2,0.2,0.1,0.3c-0.1,0.1-0.1,0.1-0.1,0.2s0,0.1-0.1,0c0-0.1,0-0.3-0.1-0.3h-0.1
				c-0.3-0.1-0.2-0.4,0-0.5c0,0,0,0,0.1-0.1c0.1,0,0-0.1,0.1-0.2l0.1-0.1c0.1,0.1,0,0.1,0.1,0.2C34.4,23.2,34.4,23.6,34.2,23.6
				L34.2,23.6z M34.1,23.6c-0.2,0-0.2,0.3-0.1,0.4c0.1,0.1,0,0.1,0,0.2c0,0,0-0.1,0.1-0.1c0,0,0,0,0-0.1c0.1-0.1,0.3-0.3,0.2-0.5
				c-0.1-0.1-0.2-0.2-0.2-0.1l0,0c0,0,0-0.5,0-0.2c0,0,0,0.1-0.1,0.2S34,23.6,34.1,23.6L34.1,23.6z"/>
			<path class="st1" d="M46.4,23.8c-1.3,1.5-2.7-0.2-3.5-1.2c-0.2-0.3-0.5-0.3-0.7-0.1l-0.9,0.6c-0.3,0.2-0.7,0.4-0.9,0.7
				c0,1,0.3,2.1-0.4,3c-1,0.7-2.8,0.9-3.4-0.3c-0.5-0.9-0.2-2.3-0.3-3c-0.2,0-1.9-0.4-2.1-0.4c-0.4,0.4-1.1,1.3-1.9,1.6
				c-1.3,0.4-2.8-0.7-3-2.1c0-1,0.6-1.5,1.3-2.1l0.9-0.6c0.1-0.1,0.1-0.1,0.1-0.2c-0.3-0.5-0.7-1.3-1.1-1.8
				c-0.1-0.2-0.3-0.1-0.4-0.1c-1.4,0.1-3,0-3.1-1.8c-0.3-2.5,1.9-2.2,3.6-2.1c0.5,0,0.4-0.6,0.5-1.1l0.2-1.1c0-0.2,0.1-0.4,0-0.5
				c-1.5-1.2-2.5-2.6-0.7-4.1c1.4-1.4,3,0.5,3.9,1.5c0.1,0,0,0.1,0.4-0.2l0.9-0.6c0.2-0.2,0.7-0.4,0.6-0.4c0,0.1,0-0.1,0-0.3
				c0-0.5-0.1-1.1,0-1.7c0.3-1.5,2.1-1.8,3.4-1.4c1.4,0.5,1.3,2.2,1.2,3.4v0.4c0,0,0-0.1-0.1-0.1L43,8h0.1c-0.1-0.1-0.3,0-0.3,0
				c0.9-0.9,1.9-2,3.3-1.6c1.1,0.4,2.2,1.5,1.9,2.8c-0.2,1.1-1.5,1.9-2.1,2.5v-0.1l0.4,0.7c0.3,0.4,0.7,1.3,0.6,1.1
				c0.6,0,1.3-0.1,1.9,0.1c1.6,0.3,1.9,2.6,1,3.7c-0.9,0.9-1.9,0.5-2.9,0.4c-0.2,0-0.5-0.1-0.7,0C46.1,17.7,46,18,46,18.3
				c-0.1,0.4-0.4,1.3-0.4,1.7c0.1,0.2,0.4,0.4,0.5,0.6C47.1,21.5,47.6,22.7,46.4,23.8L46.4,23.8z M46.3,23.7
				c1.3-1.3,0.4-2.3-0.7-3.3c-0.1-0.1-0.3-0.2-0.3-0.4c-0.1-0.4,0.1-0.6,0.1-1l0.2-0.9c0.1-0.3,0-0.7,0.3-1s0.7-0.2,1.1-0.2
				c0.7,0,1.9,0.1,2.3-0.4c0.4-0.5,0.2-2.2-0.6-2.3c-0.5-0.1-1.4,0.1-2.1,0c-0.3-0.1-0.6-0.5-0.7-0.7l-0.5-0.7l-0.5-0.7
				c-0.3-0.4-0.2-1.1,0.1-1.4c0.6-0.6,1.5-1.2,1.7-1.9c0.1-0.5-0.6-1.1-1.1-1.3c-0.7-0.2-1.5,0.7-2,1.3C43.4,9,42.9,9.2,42.5,9h0.1
				l-2.1-0.4c-0.7-0.2-0.9-1-0.7-1.5c0-0.5,0.1-1.5-0.1-1.9c-0.2-0.7-1.4-0.5-1.9-0.3c-0.3,0.2-0.4,0.7-0.4,1.4c0,0.3,0.1,1,0,1.3
				C36.9,7.9,36.5,8,36,8.2l-0.9,0.5c-0.1,0-0.3,0.2-0.3,0.2c-1.2,0.6-1.8-1.3-2.6-1.7c-1-1.1-2.5,0.5-2.2,1.5
				c0.1,0.5,0.6,1.1,1.2,1.6l0.2,0.2c0.3,0.2,0.2,0.7,0.1,1s-0.3,1.2-0.3,1.6c0,0.2-0.1,0.4-0.2,0.5c-0.3,0.3-0.7,0.2-1.2,0.2
				c-0.7,0-1.4-0.1-2,0.1c-1.1,0.4-0.9,2.9,0.4,2.9c0.5,0.1,1.3,0,1.8,0c0.4,0,0.6,0.3,0.9,0.6c0.2,0.3,0.7,1.1,0.9,1.3
				c0.2,0.3,0.4,0.7,0.2,1.1c-0.1,0.3-0.7,0.9-1.1,1.1c-0.5,0.4-1,1.1-0.9,1.4c0,0.4,0.6,1,1.1,1.2c0.4,0.2,0.9,0,1.4-0.4
				c0.3-0.3,0.6-0.7,1-1c0.3-0.2,1-0.1,1.2-0.1c0.5,0.1,1.4,0.3,1.9,0.4c0.4,0.1,0.7,0.9,0.6,1.2c0,0.5-0.1,1.1-0.1,1.6
				c0,0.6,0.1,1.2,0.6,1.3s1.3,0.1,1.7-0.2c0.4-0.3,0.4-1.1,0.4-1.7c0-0.3-0.1-0.9,0.2-1.2c0.5-0.4,1.3-0.7,1.8-1.2
				c0.1-0.1,0.3-0.2,0.5-0.2s0.4,0.2,0.5,0.3C43.8,23.3,45,25,46.3,23.7L46.3,23.7z"/>
		</g>
	</g>
	<g>
		<path class="st1" d="M38.2,9.5c-3.5,0.1-5.7,2.9-5.8,6.1c0,0,0,0,0,0.1c0,0,0,0,0,0.1c0.1,7.9,12.1,7.4,12-0.5
			C44.2,11.7,41.5,9.4,38.2,9.5z M33.3,15.6c0.1-6.3,9.5-6.8,10-0.4C43.9,21.8,33.7,22.3,33.3,15.6z"/>
		<g>
			<path class="st1" d="M38.2,9.5c-3.3,0-5.1,3.3-5.3,6.1c-0.3,3.2,2.3,5.9,5.7,5.3C45.6,20.2,45.3,9.7,38.2,9.5L38.2,9.5z
				 M38.2,9.4c5.9-0.4,9.1,6.2,4.9,10.5c-3.4,3.4-9.9,1.7-11-3C31.1,13,34.2,9.4,38.2,9.4L38.2,9.4z"/>
			<path class="st1" d="M33.3,15.6c0-7.4,9.6-7,10.4-0.2C44.2,22.6,33.3,23,33.3,15.6L33.3,15.6z M33.4,15.6
				c0.3,5.4,9.7,5.5,9.6-0.1C43.4,9.2,33.5,10,33.4,15.6L33.4,15.6z"/>
		</g>
	</g>
	<g>
		<path class="st1" d="M42.3,16.3c-1.2,2.5-3.4,3-5.9,2.7c0,0,0,0,0,0.1C38.6,20.1,41.9,18.9,42.3,16.3L42.3,16.3z"/>
		<path class="st1" d="M42.3,16.4c-1.4,3.5-2.6,2.9-5.9,2.9h-0.1c0.3-0.1,0.3-0.3,0.1-0.4c1.7,0.4,3.4-0.3,4.8-1.2
			c0.3-0.2,0.7-0.5,0.9-1C42.2,16.5,42.3,16.3,42.3,16.4L42.3,16.4z M42.2,16.3c0.1-0.1,0.2,0,0.2,0.2c-0.2,2.1-1.8,3.5-3.9,3.5
			c-0.7,0-1.5-0.2-2.1-0.6c-0.1,0-0.2-0.1-0.2-0.2c0-0.2,0.2-0.4,0.4-0.3c1,0.3,2.1,0,3-0.5C40.4,17.8,41.8,17.4,42.2,16.3
			L42.2,16.3z"/>
	</g>
	<g>
		<path class="st1" d="M42.5,15.2c0,0.1,0,0.2-0.1,0.3c0,0.1,0,0.3,0,0.4l0,0C42.6,15.8,42.8,15.4,42.5,15.2L42.5,15.2z"/>
		<path class="st1" d="M42.5,15.2c0,0.2,0.5,0.3,0.3,0.4c-0.1,0.1-0.3,0.1-0.3,0.2c0,0,0,0.1,0-0.1c0-0.1-0.2-0.1-0.3-0.1
			c-0.1-0.2-0.3-0.2-0.3-0.2s0.3-0.1,0.4-0.2C42.5,15.3,42.5,15.2,42.5,15.2L42.5,15.2z M42.4,15.2c0.3-0.1,0.9,0.1,0.9,0.3
			c0,0.3-0.2,0.6-0.6,0.6c-0.1,0.1-0.3,0-0.3-0.1c-0.1-0.2,0-0.1,0-0.2c0-0.1-0.2-0.1-0.3-0.2C41.8,15.3,42.4,15.3,42.4,15.2
			L42.4,15.2z"/>
	</g>
	<g>
		<path class="st1" d="M29.6,5.5c0.6-0.4,1.2-0.7,1.9-0.7c0.6,0,1.2,0.3,1.8,0.5c0,0,0.1,0,0-0.1C32.4,4,30.3,4.2,29.6,5.5
			C29.5,5.5,29.5,5.5,29.6,5.5z"/>
		<path class="st1" d="M29.5,5.4c0.3-0.7,1.1-1.3,1.9-1.2C32.2,4.3,32.5,5,33.3,5c0,0-0.2,0-0.3,0.1v0.1c0,0,0.1,0.1,0,0.1
			C32,4.9,30.7,5,29.5,5.4C29.6,5.5,29.6,5.5,29.5,5.4C29.6,5.4,29.6,5.4,29.5,5.4L29.5,5.4z M29.6,5.5h-0.1c0-0.1,0-0.1,0-0.2
			c0.3-1.8,3.2-2,4.1-0.3c0,0,0.1,0.2,0,0.3c-0.3,0.4-0.7-0.2-1.1-0.2C31.7,5,30.6,5.5,29.6,5.5L29.6,5.5z"/>
	</g>
	<g>
		<path class="st1" d="M38.2,28.7c-0.7-0.2-1.5-0.2-2.1-0.5c-0.9-0.4-0.9-1.2-1.3-1.9h-0.1C34.5,28.1,36.6,29,38.2,28.7
			C38.2,28.8,38.2,28.7,38.2,28.7z"/>
		<path class="st1" d="M38.2,28.7c-0.9-0.2-1.8,0.5-2.6-0.3c-0.6-0.6-0.4-1.5-1.1-2l0.1,0.1c0.1,0,0.1,0,0.2-0.1
			c0.1-0.2,0-0.1,0.1-0.1c0.3,1.2,1.3,1.5,2.1,2C37.4,28.6,37.7,28.7,38.2,28.7C38.2,28.7,38.1,28.7,38.2,28.7L38.2,28.7z
			 M38.2,28.6c0.1,0,0.1,0.2,0,0.2c-0.9,0.2-1.7,0.5-2.5,0.1c-1.1-0.4-1.7-1.8-1.2-2.9c0.1-0.2,0.4-0.1,0.5,0
			c0.2,0.6,0.5,1.4,1.2,1.5C36.8,27.8,37.5,28.5,38.2,28.6L38.2,28.6z"/>
	</g>
	<g>
		<path class="st1" d="M51.6,16.6c-0.5,1.6-1.8,2-3.3,2.2c-0.1,0,0,0.1,0,0.1C49.9,19.1,51.6,18.4,51.6,16.6
			C51.7,16.6,51.6,16.6,51.6,16.6z"/>
		<path class="st1" d="M51.7,16.6c-0.2,0.7-0.2,1.9-1.2,2.1c-0.6,0.2-1.2,0.1-1.8,0.3c-0.1,0-0.2,0.1-0.3,0.1s0.1,0,0.1-0.1
			c0.1-0.1,0-0.3-0.2-0.3l0,0c0.7-0.2,1.4-0.4,1.9-0.7c0.3-0.2,1-0.5,1.2-0.9C51.5,16.9,51.6,16.8,51.7,16.6
			C51.6,16.7,51.7,16.7,51.7,16.6L51.7,16.6z M51.6,16.6c1,1.9-1.4,3.3-3.1,2.8c-0.2,0-0.5-0.2-0.4-0.5c0.1-0.2,0.3-0.2,0.2-0.2
			c0.3,0,0.5,0,0.9-0.1c0.3-0.1,0.6-0.4,0.9-0.6C50.4,17.5,51.4,17.4,51.6,16.6L51.6,16.6z"/>
	</g>
	<g>
		<path class="st1" d="M41,2.6c0.2,0.1,0.3,0.3,0.4,0.5c0.2,0.3,0.2,0.7,0.4,1.2H42c0-0.5-0.2-1-0.4-1.4c-0.2-0.3-0.5-0.7-1-0.6
			c0,0,0,0,0,0.1C40.8,2.5,40.9,2.5,41,2.6z"/>
		<path class="st1" d="M41,2.6c0.3,0.2,1.2,0.4,1.1,1C42.1,3.8,42,4,42,4.2c0,0.1-0.1-0.1-0.2-0.1l-0.1,0.1c0-0.1,0-0.2,0-0.2
			c-0.2-0.4-0.6-0.7-0.9-1c-0.1-0.1-0.1-0.2-0.1-0.3c0,0,0,0,0-0.1c0.2,0,0.2-0.1,0.2-0.2c0-0.1,0-0.1-0.1-0.2
			C40.8,2.3,41,2.5,41,2.6L41,2.6z M41,2.7c-0.2-0.1-0.3,0-0.5-0.2c-0.2-0.3,0.1-0.5,0.3-0.6c1.3-0.3,1.7,1.2,1.4,2.1
			c0,0.1,0,0.4-0.2,0.5c-0.1,0.1-0.3,0-0.3-0.1c0,0-0.1-0.2-0.2-0.2C41.3,4,41,3.8,41.2,3.4C41.2,3.2,41.2,2.9,41,2.7L41,2.7z"/>
	</g>
	<g>
		<path class="st1" d="M27.8,20.6c-0.6,0.9-0.7,1.9-0.1,2.8c0,0,0.1,0,0,0c-0.1-0.4-0.3-0.9-0.2-1.4C27.6,21.4,27.8,21,27.8,20.6
			C27.9,20.6,27.9,20.5,27.8,20.6z"/>
		<path class="st1" d="M27.9,20.6c-0.3,0.3,0.1,1-0.1,1.4s-0.3,1,0.2,1.2c-0.1-0.1-0.3-0.1-0.4,0s-0.1,0.3-0.1,0.3
			C27.2,23,27,22.6,27,22C26.9,21.1,27.7,20.8,27.9,20.6L27.9,20.6z M27.8,20.5c0-0.1,0.2,0,0.2,0.1s0,0.2,0,0.3
			c0.2,0.7,0.2,1.3,0.2,2c0,0.1,0,0.2,0,0.3c0,0.1,0,0.3-0.1,0.4c-0.6,0.4-0.6-0.6-0.7-0.9c-0.3-0.4-0.6-1.2-0.1-1.6
			C27.4,20.8,27.7,20.7,27.8,20.5L27.8,20.5z"/>
	</g>
	<g>
		<path class="st1" d="M51.8,15.8C51.7,15.8,51.7,15.8,51.8,15.8c-0.2,0.2-0.2,0.3-0.2,0.5c0,0,0,0.1,0.1,0
			C51.8,16.2,51.8,16,51.8,15.8z"/>
		<path class="st1" d="M51.7,15.8L51.7,15.8c0.1,0.1,0.5,0.2,0.4,0.2c-0.1,0-0.4,0.1-0.2,0.2c0.1-0.3-0.3-0.4-0.5-0.2
			c0,0-0.1,0-0.1-0.1h-0.1c0,0,0.1,0,0.2,0C51.6,16,51.7,15.9,51.7,15.8L51.7,15.8z M51.8,15.8c0,0.1,0.2,0.1,0.3,0.1
			c0.4,0.1,0.2,0.6-0.1,0.7c-0.1,0-0.1,0.1-0.2,0.1c-0.2,0.1-0.3-0.1-0.4-0.1c-0.2-0.2,0.1-0.3,0-0.4c0-0.1-0.2-0.1-0.3-0.2
			C51,15.8,51.5,15.7,51.8,15.8L51.8,15.8z"/>
	</g>
	<g>
		<path class="st1" d="M39,28.7c-0.2-0.1-0.4-0.1-0.6,0l0,0C38.6,28.9,38.9,28.9,39,28.7C39.1,28.8,39.1,28.8,39,28.7z"/>
		<path class="st1" d="M39,28.8c-0.1-0.1-0.3,0.5-0.3,0.4s-0.1-0.4-0.2-0.2l0,0c0.1-0.1,0.2-0.2,0-0.4l0,0c0.2-0.3,0.1-0.4,0.2,0
			c0,0.1,0.1,0.1,0.1,0.2C38.9,28.8,39,28.8,39,28.8L39,28.8z M39.1,28.7c0.1,0.3,0,0.7-0.2,0.9c-0.2,0-0.4-0.1-0.5-0.4
			c0-0.1-0.1-0.1-0.1-0.3c0.1-0.3,0.2-0.1,0.3-0.2s0.3-0.6,0.4-0.2C39,28.5,39,28.7,39.1,28.7L39.1,28.7z"/>
	</g>
	<g>
		<path class="st1" d="M25.9,13.1c0.1-0.2,0.3-0.3,0.4-0.4c0.1-0.1,0.3-0.1,0.4-0.3v-0.1c-0.2,0-0.4,0.1-0.5,0.2
			C26,12.7,25.9,12.9,25.9,13.1L25.9,13.1z"/>
		<path class="st1" d="M25.9,13c0.1-0.1-0.1-0.9,0.2-0.9c0.2-0.1,0.4,0.2,0.5,0c0-0.1-0.1,0.1,0,0.2c0.2,0.1,0.1,0.1,0.1,0.1
			c0,0.2,0,0.3-0.1,0.4c0,0-0.1,0-0.3,0C26.2,13,26,13,25.9,13C25.9,13.1,25.9,13,25.9,13L25.9,13L25.9,13z M26,13.1
			c-0.3-0.1-0.5-0.7-0.2-1c0.2-0.2,0.6-0.3,1-0.1c0.1,0.1,0.4,0.2,0.3,0.4C27,12.6,27,12.6,27,12.6c-0.2,0.1-0.3,0.3-0.3,0.5
			C26.6,13.3,26,12.9,26,13.1L26,13.1z"/>
	</g>
	<g>
		<path class="st1" d="M32.9,11.7c0.2-0.2,0.4-0.5,0.6-0.7c0.3-0.3,0.7-0.4,1-0.7c0.1-0.1,0-0.2-0.1-0.2c-0.4,0-0.9,0.3-1.2,0.6
			C33,10.9,32.7,11.3,32.9,11.7L32.9,11.7z"/>
		<path class="st1" d="M32.9,11.6c0.3-0.3,0-1.2,0.6-1.3c0.3-0.1,0.7,0,0.9-0.2c-0.1,0,0.1,0.1,0,0.2c-0.2,0.2-0.4,0.5-0.6,0.7
			C33.5,11.3,32.9,11.3,32.9,11.6L32.9,11.6z M33,11.7c-0.1,0.1-0.2,0-0.2-0.1c-0.9-1.1,0.4-2.3,1.6-2c0.2,0,0.5,0.2,0.4,0.5
			s-0.2,0.3-0.3,0.4c-0.2,0.2-0.3,0.4-0.4,0.6C34,11.5,33.3,11.4,33,11.7L33,11.7z"/>
	</g>
	<g>
		<path class="st1" d="M41.5,21.1c-0.5,0.2-1,0.3-1.5,0.5c-0.5,0.1-1,0.2-1.5,0.3V22C39.6,22.3,40.8,21.8,41.5,21.1
			C41.6,21.1,41.6,21.1,41.5,21.1z"/>
		<path class="st1" d="M41.6,21.1c-0.5,0.2-0.9,1-1.5,1c-0.5,0-1.1-0.3-1.5,0.1c0.2-0.1,0.1-0.3,0-0.4c0.9-0.1,1.4-0.5,2.2-0.4
			C41.2,21.2,41.3,21.2,41.6,21.1L41.6,21.1z M41.5,21c0.1,0,0.2,0.1,0.1,0.2c-0.1,0.2-0.2,0.4-0.4,0.6c-0.5,0.9-1.9,1-2.8,0.3
			c-0.2,0-0.3-0.4,0-0.5h0.2c0.4,0,0.9-0.3,1.2-0.5C40.3,20.8,41,21.2,41.5,21L41.5,21z"/>
	</g>
</g>
<g>
	<g>
		<path class="st1" d="M20.9,29.7c-0.1-0.1-0.1-0.1-0.1-0.1s0.1-0.1,0.1-0.2c0.1-0.3,0.2-0.5,0.4-0.9c0.2,0.1,0.5,0.1,0.7,0.2
			c1.6,0.4,2.2,0.2,2.8-1.5c0.4-1.5-0.1-2.2-1.5-2.6c-0.3-0.1-0.9-0.4-0.7,0c-0.1-0.3-0.2-0.5-0.3-0.9c0-0.1-0.1-0.2-0.1-0.3
			c0.4-0.2,0.9-0.4,1.2-0.6c1.4-0.7,1-2.1,0-3.2c-1.1-1.3-2-0.5-3.2,0.3c-0.3-0.2-0.6-0.3-1.1-0.5c0,0,0-0.1,0.1-0.1
			c0.1-0.4,0.2-0.9,0.4-1.2c0.4-1.4-0.4-1.8-1.6-2.1c-1.1-0.3-2-0.2-2.5,0.9c-0.1,0.2-0.1,0.4-0.1,0.6c-0.1,0.3-0.4,0.9,0,0.7
			c-0.4,0.1-0.7,0.2-1.2,0.4c-0.3-0.7-0.9-1.9-1.5-2c-1-0.2-1.9,0.4-2.7,1.1c-0.9,0.7-0.5,1.5,0,2.3c0.1,0.2,0.3,0.4,0.4,0.6
			c0,0,0,0.1-0.1,0.1c-0.1,0.2-0.2,0.5-0.4,0.7C9.2,21.2,8,20.7,7.4,21c-0.9,0.4-1.1,1.7-1.2,2.6c-0.1,1,0.5,1.4,1.4,1.6
			c0.3,0.1,0.5,0.1,0.9,0.2c0.1,0,0.1,0,0.2,0C8.8,25.7,8.9,26,9,26.5c-0.7,0.3-1.9,0.9-2,1.5c-0.2,1,0.4,1.9,1.1,2.7
			c0.7,0.9,1.5,0.5,2.3,0c0.2-0.1,0.4-0.3,0.6-0.4c0,0,0.1,0,0.1,0.1c0.2,0.1,0.5,0.2,0.7,0.4c-0.2,0.7-0.7,1.9-0.4,2.5
			c0.4,0.9,1.7,1.1,2.6,1.2c1,0.1,1.4-0.5,1.6-1.4c0.1-0.3,0.1-0.5,0.2-0.9c0-0.1,0-0.1,0-0.2c0.3-0.1,0.6-0.2,1.1-0.3
			c0.5,1.1,1.1,2.5,2.5,2c1.3-0.3,2.7-1.5,1.9-2.9C21.3,30.4,21.1,30.1,20.9,29.7z M10.5,20.5C10.5,20.4,10.5,20.4,10.5,20.5
			L10.5,20.5z M11.1,30.2C11.1,30.2,11,30.1,11.1,30.2L11.1,30.2z M19.9,32.5c-1.3,0.9-1.8-0.7-2.3-1.7c-0.1-0.1-0.3-0.2-0.4-0.2
			c-0.5,0.2-1.1,0.3-1.5,0.5c-0.1,0-0.2,0.1-0.3,0.3c-0.2,1.2-0.3,2.2-1.8,1.9c-1.6-0.3-0.9-1.7-0.5-2.9c0-0.2,0-0.3-0.2-0.4
			c-0.5-0.2-1-0.5-1.5-0.7c-0.1-0.1-0.3-0.1-0.4,0c-1.1,0.6-1.9,1.3-2.8-0.1c-0.9-1.3,0.7-1.8,1.7-2.3c0.1-0.1,0.2-0.3,0.2-0.4
			C9.9,26,9.8,25.4,9.6,25c0-0.1-0.1-0.2-0.3-0.3c-1.2-0.2-2.2-0.3-1.9-1.8c0.3-1.6,1.7-0.9,2.9-0.5c0.2,0,0.3,0,0.4-0.2
			c0.2-0.5,0.5-1,0.7-1.5c0.1-0.1,0.1-0.3,0-0.4c-0.6-1.1-1.3-1.9,0.1-2.8c1.3-0.9,1.8,0.7,2.3,1.7c0.1,0.1,0.3,0.2,0.4,0.2
			c0.5-0.2,1.1-0.3,1.5-0.5c0.1,0,0.2-0.1,0.3-0.3c0.2-1.2,0.3-2.2,1.8-1.9c1.6,0.3,0.9,1.7,0.6,2.9c0,0.1,0,0.3,0.1,0.3
			c0.4,0.2,1,0.4,1.5,0.6c0.1,0.1,0.2,0.1,0.3,0c1.1-0.6,1.9-1.3,2.8,0.1s-0.7,1.8-1.7,2.3c-0.1,0.1-0.2,0.3-0.2,0.4
			c0.2,0.5,0.3,1.1,0.5,1.5c0,0.1,0.1,0.2,0.3,0.2c1.2,0.2,2.2,0.3,1.9,1.9c-0.3,1.6-1.7,0.9-2.9,0.5c-0.2,0-0.3,0-0.4,0.2
			c-0.2,0.5-0.5,1-0.7,1.5c-0.1,0.1-0.1,0.3,0,0.4C20.7,30.8,21.3,31.7,19.9,32.5z"/>
		<g>
			<path class="st1" d="M20.9,29.7c-0.1-0.1-0.2-0.1-0.1-0.2c0.2-0.3,0.3-0.7,0.5-1.1c0.7,0.2,1.4,0.4,2.1,0.3
				c1.2-0.1,1.7-2.8,0.9-3.4c-0.4-0.3-1.2-0.4-1.6-0.5c0,0,0,0,0.2-0.1c0.1-0.2,0-0.1,0-0.1l-0.6,0.2l-0.5-1.2
				c-0.1-0.2,0-0.3,0.2-0.4c0.5-0.4,1.4-0.7,1.7-1.2c0.6-0.7-0.6-2.6-1.5-2.6c-0.5,0-1.1,0.4-1.7,0.9c-0.3,0.3-1-0.3-1.5-0.5
				c-0.3-0.2-0.1-0.7,0-1.1s0.4-1.1,0.4-1.5c-0.1-1.1-2.6-1.7-3.3-1c-0.4,0.4-0.4,1.2-0.6,1.7c0,0,0,0-0.1-0.1c-0.1,0,0,0,0,0
				l0.1,0.3l-1.2,0.4c-0.1,0-0.2,0-0.2-0.1c-0.6-1.5-1.3-2.7-3-1.6c-1.8,1.1-1.4,1.8-0.3,3.3c0.1,0.1,0.1,0.2,0,0.3l-0.4,1
				c-0.1,0.1-0.2,0.2-0.4,0.2c-0.7-0.2-1.5-0.5-2-0.4c-1,0.3-1.5,2.5-1,3.2c0.2,0.3,1,0.4,1.3,0.4c0.1,0,0.4,0.1,0.3,0.1l0.5,0.3
				c0.1,0.5,0.7,1.4,0.1,1.6c-0.9,0.5-1.9,0.6-1.8,1.7c0.2,0.6,0.7,1.8,1.5,1.9c0.4,0,1.1-0.4,1.7-0.9c0.1-0.1,0.3-0.1,0.5,0
				s0.7,0.3,1,0.5c0.2,0.1,0.3,0.4,0.2,0.6c-0.2,0.7-0.5,1.4-0.5,1.9c0.1,0.6,1.5,1.1,2.2,1.1c1.3,0.1,1.1-1.6,1.6-2.2l1.1-0.3
				c0.1,0,0.3,0,0.3,0.1c0.3,0.6,0.5,1.4,1.1,1.8c1.1,0.7,3-0.3,3.2-1.5C21.8,30.9,21.2,30.4,20.9,29.7L20.9,29.7z M21,29.6
				c0.3,0.5,1,1.3,0.9,2c-0.3,1.4-2.3,2.7-3.6,1.8c-0.6-0.5-1-1.3-1.3-1.8l0.3,0.1l-1.1,0.4l0.2-0.4c-0.2,2.3-0.9,3.3-3.3,2.8
				c-2.5-0.5-2.3-2.2-1.5-4.2l0.3,0.6l-1-0.3h0.5c-0.3,0.2-0.6,0.4-1,0.6c-0.3,0.2-0.7,0.4-1.3,0.4c-1.4-0.1-2.2-1.6-2.6-2.9
				C6,27,7.7,26.2,8.7,25.8l-0.2,0.6l-0.3-1.1l0.5,0.3c-0.6,0-0.7-0.1-1.3-0.2c-0.4-0.1-0.9-0.2-1.2-0.6c-1.1-1.2-0.2-4.3,1.5-4.5
				c1,0,1.6,0.3,2.3,0.6l-0.4,0.2l0.5-1v0.3c-0.5-0.9-1.5-2.5-0.3-3.3c2.1-1.8,3.4-1.6,4.5,1.1l-0.2-0.1l1-0.5
				c0.2-0.1,0.4,0.2,0.1,0.3c-0.1,0-0.1,0.1-0.3,0s-0.2-0.2-0.2-0.3c0-0.3,0.2-0.5,0.2-0.9c0.1-1.5,1.6-1.9,2.9-1.5
				c0.7,0.2,1.8,0.6,1.9,1.6c0.1,0.6-0.2,1.2-0.3,1.8c-0.1,0.2,0,0.3-0.2,0.6l0.1-0.2l1.1,0.5H20c0.3-0.2,0.6-0.4,1-0.6
				c0.7-0.5,1.9-0.5,2.6,0.1c1,0.9,1.8,2.3,0.9,3.5c-0.5,0.6-1.4,0.9-2,1.3l0.2-0.4l0.3,1.2v0.1c0.1,0.4-0.5,0.6-0.6,0.2
				c0-0.2-0.1-0.2,0-0.5c0.2-0.2,0.3-0.2,0.4-0.2c0.3,0.1,0.5,0.2,0.9,0.3c1.4,0.3,1.9,1.6,1.4,2.9c-0.6,2.1-2,1.8-3.6,1.3h0.1
				C21.4,29,21.3,29.3,21,29.6L21,29.6C20.9,29.5,20.9,29.6,21,29.6L21,29.6z"/>
			<path class="st1" d="M10.5,20.6c0,0.1-0.2,0.1-0.2,0c-0.1-0.1-0.1-0.1-0.1-0.1c-0.1,0-0.1-0.1,0-0.1s0.3,0.1,0.3,0v-0.1
				c0.1-0.1,0.2-0.2,0.4-0.1c0.1,0.1,0.1,0.1,0.2,0.2c0,0.1,0.1,0.1,0.1,0.1s0.1,0.1,0,0.1c0,0,0,0-0.2,0
				C10.7,20.8,10.4,20.7,10.5,20.6L10.5,20.6z M10.5,20.5c0-0.2-0.2-0.3-0.3-0.2c-0.1,0.1-0.1,0-0.2,0c0,0,0.1,0,0.1,0.1
				c0,0,0,0,0.1,0.1s0,0.1,0.2,0.2c0.1,0.1,0.4,0,0.4-0.1c0,0-0.1-0.1,0-0.1l0.2,0.1c0.1,0,0,0,0,0s-0.1,0-0.1-0.1
				C10.7,20.2,10.5,20.2,10.5,20.5L10.5,20.5z"/>
			<path class="st1" d="M11.2,30.2c0.1,0,0.1,0.2,0,0.2c-0.1,0.1-0.1,0.2-0.1,0.2c0,0.1-0.1,0.1-0.1,0s0.1-0.3,0-0.3h-0.1
				c-0.2-0.1-0.1-0.4,0.1-0.5c0.1-0.1,0.3-0.2,0.3-0.2s0,0,0,0.2C11.4,30,11.4,30.2,11.2,30.2L11.2,30.2z M11.1,30.2
				c-0.2,0-0.3,0.2-0.2,0.3c0.1,0.1,0,0.1,0,0.2c0,0,0-0.1,0.1-0.1c0,0,0,0,0.1-0.1c0,0,0,0,0.1,0s0.2-0.2,0.2-0.3
				c0-0.1-0.1-0.2-0.2-0.1c0,0.1,0.1-0.2,0-0.2c0-0.1,0,0,0,0s0,0.1-0.1,0.1C11,30,11,30.2,11.1,30.2L11.1,30.2z"/>
			<path class="st1" d="M20,32.5c-1.2,0.9-1.9-0.6-2.3-1.5c-0.1-0.2-0.3-0.3-0.5-0.2l-0.7,0.3c-0.3,0.1-0.9,0.2-0.9,0.5
				c-0.1,0.6-0.1,1.5-0.9,2c-0.9,0.4-2.2,0.1-2.6-0.9c-0.2-0.6,0.2-1.8,0.3-2.2c0.2,0.1-0.2-0.1-0.4-0.2c-0.1-0.1-1-0.4-1-0.4l0,0
				l0,0c-0.5,0.3-1.1,0.7-1.7,0.7c-1.1,0.1-2-1.1-1.8-2.1c0.3-1.1,1.4-1.3,2.1-1.7c0,0,0,0,0-0.1l-0.1-0.2c-0.1-0.3-0.3-1-0.4-1.4
				c0-0.1-0.2-0.1-0.2-0.2c-0.6-0.2-1.6-0.2-1.8-1c-0.2-0.9,0-2,1-2.2c0.7-0.1,1.4,0.2,2,0.4c0.3,0.1,0.4-0.3,0.5-0.6
				c0-0.1,0.5-1,0.4-1.1c-0.9-1.1-1.3-2.3,0.2-3.2c1.3-0.9,2.1,1,2.7,1.8c-0.2,0.1,0.5-0.2,1-0.4c0.2-0.1,0.6-0.2,0.5-0.2
				c0,0.1,0.1-0.5,0.1-0.6c0.1-0.6,0.4-1.4,1.2-1.6c0.4-0.1,0.7-0.1,1.1,0c1.8,0.3,1.7,1.7,1.3,3.2L19,19.7c0,0,0-0.1-0.1-0.2
				l1.5,0.6l0.1,0.1c-0.1-0.1-0.3-0.1-0.3,0c0.7-0.5,1.8-1.2,2.8-0.5c0.7,0.5,1.4,1.6,1,2.5s-1.4,1.1-2,1.5c0,0,0,0,0.1-0.1v-0.1
				l0.2,0.6c0.1,0.4,0.3,1.1,0.2,0.9c0.4,0.1,1,0.2,1.4,0.4c1.1,0.5,1,2.2,0,3c-0.9,0.4-1.5,0-2.2-0.2c-0.1,0-0.4-0.2-0.5-0.1
				s-0.5,0.9-0.6,1.1s-0.2,0.4-0.3,0.5c0,0.1,0.2,0.3,0.3,0.5c0.2,0.4,0.5,0.9,0.4,1.3C20.8,32,20.3,32.3,20,32.5L20,32.5z
				 M19.9,32.4c0.3-0.2,0.7-0.5,0.7-1.1c0-0.4-0.2-0.9-0.4-1.2c-0.1-0.2-0.3-0.3-0.3-0.6c0-0.3,0.2-0.4,0.2-0.6l0.3-0.6
				c0.1-0.2,0.1-0.5,0.4-0.6c0.2-0.1,0.5,0,0.9,0c0.4,0.1,1.4,0.4,1.7,0.1c0.4-0.3,0.5-1.5-0.1-1.7c-0.4-0.2-1.1-0.2-1.5-0.4
				c-0.4-0.2-0.5-1-0.7-1.4c-0.2-0.6-0.5-1.3,0.2-1.7c0.4-0.2,1-0.5,1.3-0.7c0.2-0.2,0.3-0.3,0.3-0.5c-0.1-0.2-0.3-0.6-0.5-0.7
				c-0.3-0.2-1,0.1-1.3,0.3c-0.3,0.2-0.9,0.4-1.3,0.1l0.1,0.1l-1.4-0.7c-0.4-0.2-0.5-0.6-0.4-0.9c0.1-0.4,0.2-0.9,0.3-1.2
				c0.1-0.3,0.2-0.7-0.1-1c-1.1-0.5-1.4-0.2-1.6,0.7c-0.1,0.4,0,0.5-0.3,1s-0.6,0.3-1,0.4c-0.3,0.1-1,0.3-1.3,0.3
				c-1.3-0.1-1-2.7-2.3-2.1c-0.4,0.2-0.9,0.5-0.9,1c0,0.4,0.3,0.9,0.5,1.3c0.2,0.3,0.2,0.6,0,1l-0.3,0.7c0,0.1-0.2,0.4-0.3,0.5
				c-0.1,0.2-0.4,0.4-0.7,0.3c-1.1-0.3-2.5-1-2.6,0.6C7.3,24,8,24.3,8.8,24.4c0.1,0,0.4,0.1,0.6,0.1c0.3,0.1,0.4,0.3,0.5,0.6
				c0.1,0.2,0.3,0.9,0.4,1.2c0.1,0.3,0.1,0.6-0.1,0.9c-0.2,0.2-0.7,0.4-1,0.6c-1.1,0.5-1.2,1.1-0.3,1.8c0.5,0.4,1.4-0.4,1.9-0.6
				c0.3-0.1,0.7,0.1,1,0.2s0.9,0.4,1.2,0.6c0.4,0.2,0.6,0.9,0.4,1.2l-0.1,0.4c-0.2,0.5-0.5,1.4,0,1.7c1.4,0.6,1.7-0.1,1.9-1.4
				c0-0.5,0.7-0.5,1.1-0.7c0.3,0,1-0.4,1.3-0.2c0.2,0.1,0.2,0.2,0.3,0.3C18.2,31.8,18.9,33.3,19.9,32.4L19.9,32.4z"/>
		</g>
	</g>
	<g>
		<path class="st1" d="M16.6,20.6c-2.5-0.6-4.6,1-5.3,3.4l0,0l0,0c-1.4,5.8,7.5,7.7,8.7,1.8C20.7,23.3,19.1,21.1,16.6,20.6z
			 M11.9,24.2c1.3-4.6,8.2-3.3,7.4,1.5C18.5,30.7,11,29.1,11.9,24.2z"/>
		<g>
			<path class="st1" d="M16.6,20.7c-2.3-0.6-4.3,1.5-4.9,3.5c-0.9,2.2,0.5,4.7,3.1,4.9C19.9,29.7,21.7,22.1,16.6,20.7L16.6,20.7z
				 M16.7,20.6c6.7,1.3,4.5,10.7-2,9.1C8.5,27.8,10.2,19.1,16.7,20.6L16.7,20.6z"/>
			<path class="st1" d="M11.9,24.2c1.4-5.5,8.3-3.4,7.7,1.8c0,2.3-2.8,3.8-4.9,3.2C12.5,28.7,11.4,26.2,11.9,24.2L11.9,24.2z
				 M12,24.2c-0.7,3.9,6,5.7,7,1.6C20.6,21.4,13.1,20.2,12,24.2L12,24.2z"/>
		</g>
	</g>
	<g>
		<path class="st1" d="M18.4,26.3c-1.3,1.5-3,1.5-4.8,0.9l0,0C14.9,28.5,17.6,28.1,18.4,26.3C18.4,26.4,18.4,26.3,18.4,26.3z"/>
		<path class="st1" d="M18.4,26.4c-0.5,0.7-1.3,1.8-2.3,1.7c-0.9-0.1-1.7-0.5-2.6-0.6c0.3,0,0.3-0.3,0.2-0.4c1.2,0.5,2.5,0.3,3.6,0
			c0.3-0.1,0.6-0.2,0.9-0.5C18.3,26.5,18.3,26.3,18.4,26.4L18.4,26.4z M18.3,26.3c0.1,0.9-0.9,1.9-1.9,2.1c-1.1,0.2-2.3-0.1-3.1-1
			c-0.1-0.1-0.1-0.2-0.1-0.2c0-0.2,0.2-0.3,0.4-0.2c0.6,0.4,1.5,0.4,2.2,0.1C16.7,27,17.8,27.1,18.3,26.3L18.3,26.3z"/>
	</g>
	<g>
		<path class="st1" d="M18.7,25.6c0,0.1-0.1,0.1-0.1,0.2s-0.1,0.2-0.1,0.3l0,0C18.7,26,18.9,25.8,18.7,25.6
			C18.9,25.6,18.7,25.6,18.7,25.6z"/>
		<path class="st1" d="M18.7,25.7c0,0,0.1,0.2,0.2,0.2C19,26,19,26,19,26c-0.1,0-0.2,0-0.3,0.1l0,0c0,0,0,0.1,0-0.1
			c0-0.1-0.1-0.1-0.2-0.1c-0.1-0.1-0.3-0.2-0.2-0.2C18.3,25.7,18.6,25.7,18.7,25.7L18.7,25.7L18.7,25.7z M18.7,25.6
			c0.3-0.1,0.7,0.2,0.6,0.4c-0.1,0.4-0.9,0.4-1,0.2c0-0.2,0-0.1,0-0.2s-0.2-0.1-0.2-0.2C18.1,25.6,18.7,25.7,18.7,25.6L18.7,25.6z"
			/>
	</g>
	<g>
		<path class="st1" d="M11.1,16.1c0.5-0.2,1-0.3,1.5-0.2c0.5,0.1,0.9,0.4,1.2,0.7c0,0,0.1,0,0,0C13.4,15.6,11.8,15.3,11.1,16.1
			L11.1,16.1z"/>
		<path class="st1" d="M11.1,16.1c0.3-0.5,1.1-0.9,1.7-0.6c0.5,0.2,0.6,0.9,1.2,1c-0.1-0.1-0.3,0-0.3,0.1v0.1
			c-0.6-0.4-1.4-0.5-2.1-0.5C11.4,16.1,11.3,16.1,11.1,16.1C11.2,16.2,11.2,16.1,11.1,16.1L11.1,16.1z M11.2,16.2
			C11.1,16.2,11.1,16.2,11.2,16.2c-0.1-0.2-0.1-0.1-0.1-0.2c0.5-1.4,2.7-1,3,0.3c0,0.1,0.1,0.3,0,0.4c-0.3,0.3-0.5-0.2-0.9-0.3
			c-0.2-0.1-0.5-0.1-0.7-0.1C12,16.3,11.7,16.3,11.2,16.2L11.2,16.2z"/>
	</g>
	<g>
		<path class="st1" d="M13.1,34.7c-0.4-0.3-1.1-0.4-1.5-0.7c-0.5-0.4-0.4-1.1-0.6-1.6l0,0C10.5,33.6,11.9,34.5,13.1,34.7L13.1,34.7z
			"/>
		<path class="st1" d="M13.1,34.7c-0.5-0.3-1.5,0.1-1.9-0.6c-0.3-0.6,0-1.2-0.4-1.7c0,0.1,0.2,0.2,0.3,0.1c0.1-0.2,0.1-0.1,0.1-0.1
			c0.1,0.9,0.7,1.2,1.2,1.8C12.6,34.3,12.8,34.5,13.1,34.7C13.1,34.7,13,34.7,13.1,34.7L13.1,34.7z M13.1,34.5
			c-1.5,1-3.3-0.9-2.3-2.3c0,0,0,0,0.1-0.2c0.1-0.1,0.2-0.1,0.2,0c0.3,0.1,0.1,0.6,0.2,0.9c0.1,0.3,0.3,0.5,0.5,0.5
			C12.2,33.6,12.7,34.3,13.1,34.5L13.1,34.5z"/>
	</g>
	<g>
		<path class="st1" d="M25.1,28.4c-0.6,1.1-1.7,1.2-2.8,1.1v0.1C23.4,29.7,24.8,29.6,25.1,28.4L25.1,28.4z"/>
		<path class="st1" d="M25.1,28.4c0,0.6-0.5,1.4-1.3,1.4c-0.5,0-1.1-0.3-1.6-0.1c0.1,0,0.3-0.2,0.1-0.4
			C23.3,29.2,24.2,29.1,25.1,28.4C25,28.4,25,28.4,25.1,28.4C25,28.4,25.1,28.5,25.1,28.4L25.1,28.4z M25.1,28.3
			c0-0.1,0.2,0,0.1,0.1v0.1c0,0.3,0,0.6-0.2,0.9c-0.5,1-2,1-2.9,0.4c-0.2,0-0.3-0.3-0.2-0.5c0.1-0.1,0.3-0.1,0.3-0.1
			c0.4,0.2,1,0,1.4-0.3C24.2,28.7,24.5,28.6,25.1,28.3L25.1,28.3z"/>
	</g>
	<g>
		<path class="st1" d="M20,16.2c0.1,0.1,0.1,0.3,0.2,0.4c0.1,0.3,0,0.6,0.1,0.9l0,0c0.1-0.3,0.1-0.6,0-1.1c-0.1-0.2-0.2-0.6-0.5-0.6
			l0,0C19.8,16,19.9,16.1,20,16.2z"/>
		<path class="st1" d="M20,16.2c0.2,0.2,0.9,0.5,0.6,1c0,0.1-0.1,0.2-0.2,0.3c0,0,0,0,0,0.1c0-0.1-0.1-0.1-0.2-0.1l-0.1,0.1
			c0.2-0.4-0.7-0.9-0.4-1.3c0,0,0,0,0-0.1c0.2-0.1,0.2-0.2,0.2-0.3C19.9,15.9,20,16.1,20,16.2L20,16.2z M19.9,16.2
			c-0.1-0.1-0.5-0.1-0.4-0.4c0-0.2,0.3-0.2,0.4-0.2c0.4-0.1,0.6,0.2,0.7,0.3c0.4,0.7,0,1.1-0.2,1.7l-0.1,0.1c-0.2,0-0.2-0.1-0.3-0.2
			c-0.1-0.1-0.2-0.2-0.2-0.3C19.6,16.8,20.1,16.5,19.9,16.2L19.9,16.2z"/>
	</g>
	<g>
		<path class="st1" d="M7.1,26.8c-0.6,0.5-0.9,1.3-0.5,2l0,0c0-0.3,0-0.7,0.1-1.1C6.7,27.4,6.9,27.1,7.1,26.8L7.1,26.8z"/>
		<path class="st1" d="M7.1,26.9c-0.3,0.2,0,0.7-0.2,1c-0.3,0.2-0.5,0.5-0.1,0.9c-0.2-0.3-0.5-0.1-0.5,0.1C6,28.5,5.9,28,6,27.6
			C6.2,27,6.9,27,7.1,26.9L7.1,26.9z M7,26.8c0.1-0.1,0.2,0,0.1,0.2s0,0.7,0,1C7,28.1,7,28.6,6.8,28.8c0,0,0,0,0,0.1
			c0,0.3-0.5,0.3-0.6,0.1c0-0.3,0-0.4,0-0.6C6,28,5.9,27.3,6.4,27.1C6.7,26.9,6.9,26.9,7,26.8L7,26.8z"/>
	</g>
	<g>
		<path class="st1" d="M25.4,27.7L25.4,27.7c-0.1,0.1-0.2,0.2-0.2,0.4l0,0C25.4,28,25.5,27.8,25.4,27.7z"/>
		<path class="st1" d="M25.4,27.7l0.1,0.1c0,0,0.3,0.3,0.2,0.2c-0.1,0-0.4,0-0.2,0.1c0.1-0.2-0.2-0.4-0.4-0.3L25,27.7
			c-0.2,0-0.1,0.1,0.1,0.1C25.3,27.8,25.4,27.7,25.4,27.7L25.4,27.7z M25.5,27.7c0,0,0.2,0.1,0.3,0.1c0.3,0.2,0.1,0.5-0.2,0.5
			c-0.1,0-0.1,0-0.2,0c-0.2,0-0.3-0.1-0.3-0.2c-0.1-0.3,0.1-0.2,0.1-0.3C24.6,27.5,24.9,27.5,25.5,27.7L25.5,27.7z"/>
	</g>
	<g>
		<path class="st1" d="M13.7,34.9c-0.1-0.1-0.3-0.1-0.4-0.1l0,0C13.4,34.9,13.6,34.9,13.7,34.9L13.7,34.9z"/>
		<path class="st1" d="M13.7,34.9c-0.1-0.1-0.3,0.4-0.3,0.3c0-0.1,0-0.3-0.1-0.2c0,0.1,0.1,0,0.1-0.1c0.1-0.1-0.1-0.2,0-0.2
			c0.1-0.1,0.1-0.2,0.1-0.2S13.5,34.8,13.7,34.9C13.6,34.8,13.7,34.9,13.7,34.9L13.7,34.9z M13.8,34.8c0,0.3-0.2,0.6-0.3,0.6
			s-0.3-0.2-0.3-0.4c0-0.1-0.1-0.2,0-0.3c0-0.1,0.1-0.1,0.2-0.1h0.1c0.1-0.1,0.3-0.5,0.4-0.1C13.8,34.7,13.7,34.8,13.8,34.8
			L13.8,34.8z"/>
	</g>
	<g>
		<path class="st1" d="M7,21c0.1-0.1,0.3-0.2,0.4-0.2s0.2,0,0.3-0.1l0,0c-0.1-0.1-0.3,0-0.4,0.1C7.2,20.7,7.1,20.8,7,21L7,21z"/>
		<path class="st1" d="M7,20.9c-0.1-0.3,0.1-0.6,0.3-0.6c0.2,0,0.3,0.3,0.4,0.1c0-0.1-0.1,0.1-0.1,0.2c0.1,0.2,0.1,0.1,0.1,0.1
			c0,0.1,0,0.2,0,0.2c-0.1,0.2-0.2,0-0.5,0C7.1,21.1,7.1,20.9,7,20.9L7,20.9L7,20.9z M7,21c0,0.1-0.2,0.1-0.2-0.1
			c-0.2-0.3,0.1-0.9,0.5-0.7c0.3,0,0.4,0.1,0.6,0.4c0.1,0.3-0.2,0.3-0.3,0.3c-0.1,0.1-0.1,0.2-0.1,0.3C7.5,21.3,7.4,21.2,7,21L7,21z
			"/>
	</g>
	<g>
		<path class="st1" d="M12.5,21.3c0.2-0.1,0.4-0.3,0.6-0.4c0.2-0.1,0.5-0.2,0.9-0.3c0.1-0.1,0.1-0.2,0-0.2c-0.3-0.1-0.7,0.1-1,0.2
			S12.3,20.9,12.5,21.3C12.3,21.3,12.5,21.3,12.5,21.3z"/>
		<path class="st1" d="M12.5,21.2c0.3-0.2,0.2-1,0.7-1c0.2,0,0.4,0.1,0.5,0.1s0.2-0.1,0.1-0.1s0.1,0.2,0,0.2
			c-0.2,0.2-0.3,0.3-0.6,0.4c-0.1,0.1-0.4,0-0.6,0.1C12.5,21.1,12.5,21.2,12.5,21.2L12.5,21.2L12.5,21.2z M12.5,21.3
			c-0.4-0.2-0.3-1.1,0.1-1.3c0.2-0.1,0.3-0.2,0.5-0.2c0.5-0.1,1.5,0.4,0.6,0.9c-0.2,0.1-0.3,0.4-0.5,0.5
			C13.1,21.3,12.7,21.1,12.5,21.3L12.5,21.3z"/>
	</g>
	<g>
		<path class="st1" d="M16.9,29.7c-0.4,0-0.7,0.1-1.2,0.1c-0.4,0-0.7,0-1.2,0l0,0C15.3,30.2,16.3,30.2,16.9,29.7
			C17,29.7,17,29.6,16.9,29.7z"/>
		<path class="st1" d="M16.9,29.7c-0.4,0-0.7,0.6-1.2,0.5c-0.3-0.1-0.7-0.4-1.1-0.2c0.2,0,0.2-0.3,0.1-0.4c0.6,0,1.1-0.2,1.6,0
			C16.6,29.7,16.7,29.7,16.9,29.7L16.9,29.7L16.9,29.7z M16.9,29.6c0.1,0,0.1,0.1,0.1,0.2c-0.1,0.1-0.2,0.3-0.4,0.4
			c-0.5,0.6-1.6,0.3-2.1-0.2c-0.3-0.2-0.1-0.6,0.3-0.4c0.3,0.1,0.6-0.1,1-0.2C16.1,29.1,16.5,29.6,16.9,29.6L16.9,29.6z"/>
	</g>
</g>
<g>
	<g>
		<path class="st1" d="M67.9,11.3c-0.1,0.1-0.1,0.1-0.1,0.1s-0.1-0.1-0.2-0.1c-0.3-0.1-0.5-0.2-0.9-0.4c0.1-0.2,0.1-0.5,0.2-0.7
			c0.4-1.6,0.2-2.2-1.5-2.8c-1.5-0.4-2.2,0.1-2.6,1.5c-0.1,0.3-0.4,0.9,0,0.7c-0.3,0.1-0.5,0.2-0.9,0.3c-0.1,0-0.2,0.1-0.3,0.1
			c-0.2-0.4-0.4-0.9-0.6-1.2c-0.7-1.4-2.1-1-3.2,0c-1.3,1.1-0.5,2,0.3,3.2c-0.2,0.3-0.3,0.6-0.5,1.1c0,0-0.1,0-0.1-0.1
			c-0.4-0.1-0.9-0.2-1.2-0.3c-1.4-0.4-1.8,0.4-2.1,1.6c-0.3,1.1-0.2,2,0.9,2.5c0.2,0.1,0.4,0.1,0.6,0.1c0.3,0.1,0.9,0.4,0.7,0
			c0.1,0.4,0.2,0.7,0.4,1.2c-0.7,0.3-1.9,0.9-2,1.5c-0.2,1,0.4,1.9,1.1,2.7c0.7,0.9,1.5,0.5,2.3,0c0.2-0.1,0.4-0.3,0.6-0.4
			c0,0,0.1,0,0.1,0.1c0.2,0.1,0.5,0.2,0.7,0.4c-0.2,0.7-0.7,1.9-0.4,2.5c0.4,0.9,1.7,1.1,2.6,1.2c1,0.1,1.4-0.5,1.6-1.4
			c0.1-0.3,0.1-0.5,0.2-0.9c0-0.1,0-0.1,0-0.2c0.3-0.1,0.6-0.2,1.1-0.3c0.3,0.7,0.9,1.9,1.5,2c1,0.2,1.9-0.4,2.7-1.1
			c0.9-0.7,0.5-1.5,0-2.3c-0.1-0.2-0.3-0.4-0.4-0.6c0,0,0-0.1,0.1-0.1c0.1-0.2,0.2-0.5,0.4-0.7c0.7,0.2,1.9,0.7,2.5,0.4
			c0.9-0.4,1.1-1.7,1.2-2.6c0.1-1-0.5-1.4-1.4-1.6c-0.3-0.1-0.5-0.1-0.9-0.2c-0.1,0-0.1,0-0.2,0c-0.1-0.3-0.2-0.6-0.3-1.1
			c1.1-0.5,2.5-1.1,2-2.5c-0.3-1.3-1.5-2.7-2.9-1.9C68.6,10.9,68.3,11.1,67.9,11.3z M58.7,21.7C58.7,21.7,58.5,21.6,58.7,21.7
			L58.7,21.7z M68.4,21.1C68.4,21.2,68.4,21.2,68.4,21.1L68.4,21.1z M70.7,12.2c0.9,1.3-0.7,1.8-1.7,2.3c-0.1,0.1-0.2,0.3-0.2,0.4
			c0.2,0.5,0.3,1.1,0.5,1.5c0,0.1,0.1,0.2,0.3,0.3c1.2,0.2,2.2,0.3,1.9,1.8c-0.3,1.6-1.7,0.9-2.9,0.5c-0.2,0-0.3,0-0.4,0.2
			c-0.2,0.5-0.5,1-0.7,1.5c-0.1,0.1-0.1,0.3,0,0.4c0.6,1.1,1.3,1.9-0.1,2.8c-1.3,0.9-1.8-0.7-2.3-1.7C65,22.1,64.8,22,64.7,22
			c-0.5,0.2-1.1,0.3-1.5,0.5c-0.1,0-0.2,0.1-0.3,0.3c-0.2,1.2-0.3,2.2-1.8,1.9c-1.6-0.3-0.9-1.7-0.5-2.9c0-0.2,0-0.3-0.2-0.4
			c-0.5-0.2-1-0.5-1.5-0.7c-0.1-0.1-0.3-0.1-0.4,0c-1.1,0.6-1.9,1.3-2.8-0.1c-0.9-1.3,0.7-1.8,1.7-2.3c0.1-0.1,0.2-0.3,0.2-0.4
			c-0.2-0.5-0.3-1.1-0.5-1.5c0-0.1-0.1-0.2-0.3-0.3c-1.2-0.2-2.2-0.3-1.9-1.8c0.3-1.6,1.7-0.9,2.9-0.6c0.1,0,0.3,0,0.3-0.1
			c0.2-0.4,0.4-1,0.6-1.5c0.1-0.1,0.1-0.2,0-0.3c-0.6-1.1-1.3-1.9,0.1-2.8c1.4-0.9,1.8,0.7,2.3,1.7c0.1,0.1,0.3,0.2,0.4,0.2
			c0.5-0.2,1.1-0.3,1.5-0.5c0.1,0,0.2-0.1,0.2-0.3c0.2-1.2,0.3-2.2,1.9-1.9c1.6,0.3,0.9,1.7,0.5,2.9c0,0.2,0,0.3,0.2,0.4
			c0.5,0.2,1,0.5,1.5,0.7c0.1,0.1,0.3,0.1,0.4,0C69,11.5,69.9,10.9,70.7,12.2z"/>
		<g>
			<path class="st1" d="M67.9,11.3c-0.1,0.1-0.1,0.2-0.2,0.1c-0.3-0.2-0.7-0.3-1.1-0.5c0.2-0.7,0.4-1.4,0.3-2.1
				c-0.1-1.2-2.8-1.7-3.4-0.9C63.2,8.3,63.1,9,63,9.5c0,0,0,0-0.1-0.2c-0.2-0.1-0.1,0-0.1,0L63,9.9l-1.2,0.5c-0.2,0.1-0.3,0-0.4-0.2
				c-0.4-0.5-0.7-1.4-1.2-1.7c-0.7-0.6-2.6,0.6-2.6,1.5c0,0.5,0.4,1.1,0.9,1.7c0.3,0.3-0.3,1-0.5,1.5c-0.2,0.3-0.7,0.1-1.1,0
				c-0.4-0.1-1.1-0.4-1.5-0.4c-1.1,0.1-1.7,2.6-1,3.3c0.4,0.4,1.2,0.4,1.7,0.6c0,0,0,0-0.1,0.1c0,0.1,0,0,0,0l0.3-0.1l0.4,1.2
				c0,0.1,0,0.2-0.1,0.2c-1.5,0.6-2.7,1.3-1.6,3c1.1,1.8,1.8,1.4,3.3,0.3c0.1-0.1,0.2-0.1,0.3,0l1,0.4c0.1,0.1,0.2,0.2,0.2,0.4
				c-0.2,0.7-0.5,1.5-0.4,2c0.2,0.9,2.3,1.4,3.1,0.9c0.3-0.2,0.4-1,0.4-1.3c0-0.1,0.1-0.4,0.1-0.3l0.3-0.5c0.5-0.1,1.4-0.7,1.6-0.1
				c0.5,0.9,0.6,1.9,1.7,1.8c0.6-0.2,1.8-0.7,1.9-1.5c0-0.4-0.4-1.1-0.9-1.7c-0.1-0.1-0.1-0.3,0-0.5s0.3-0.7,0.5-1
				c0.1-0.2,0.4-0.3,0.6-0.2c0.7,0.2,1.4,0.5,1.9,0.5c0.6-0.1,1.1-1.5,1.1-2.2c0.1-1.3-1.6-1.1-2.2-1.6l-0.3-1.1
				c0-0.1,0-0.3,0.1-0.3c0.6-0.3,1.4-0.5,1.8-1.1c0.7-1.1-0.3-3-1.5-3.2C69.2,10.4,68.6,11,67.9,11.3L67.9,11.3z M67.9,11.3
				c0.5-0.3,1.3-1,2-0.9c1.4,0.3,2.7,2.3,1.8,3.6c-0.5,0.6-1.3,1-1.8,1.3L70,15l0.4,1.1l-0.3-0.2c2.3,0.2,3.3,0.9,2.8,3.3
				s-2.2,2.3-4.2,1.5l0.6-0.3l-0.4,1v-0.5c0.2,0.3,0.4,0.6,0.6,1c0.2,0.3,0.4,0.7,0.4,1.3c-0.1,1.4-1.6,2.2-2.9,2.6
				c-1.6,0.4-2.3-1.4-2.8-2.5l0.6,0.2L64,23.7l0.3-0.5c0,0.6-0.1,0.7-0.2,1.3c-0.1,1-1.1,1.8-2,1.7c-2.9-0.2-3.8-1.6-2.6-4.3
				l0.2,0.4l-1-0.5H59c-1.7,1.1-2.8,1.5-3.9-0.6c-1.2-2,0-2.8,1.8-3.5l-0.1,0.2l-0.4-1.2c-0.1-0.2,0.2-0.3,0.3-0.1
				c0,0.1,0.1,0.1,0,0.3c-0.2,0.3-0.4,0.1-0.6,0.1c-0.5-0.2-1.2-0.2-1.6-0.6c-1.1-1-0.4-4.1,1.2-4.3c0.6-0.1,1.2,0.2,1.8,0.3
				c0.2,0.1,0.3,0,0.6,0.2l-0.6,0.1l0.5-1.1V12c-0.2-0.3-0.4-0.6-0.6-1c-0.5-0.7-0.5-1.9,0.1-2.6c0.9-1,2.3-1.8,3.5-1
				c0.6,0.5,0.9,1.4,1.3,2l-0.4-0.2L63,9h0.1c0.4-0.1,0.6,0.5,0.2,0.6c-0.2,0-0.2,0.1-0.5,0c-0.2-0.2-0.2-0.3-0.2-0.4
				c0.1-0.3,0.2-0.5,0.3-0.9C63.2,7,64.5,6.5,65.8,7c2.1,0.5,1.8,2,1.3,3.6v-0.1c0.3,0.2,0.6,0.3,1,0.5H68
				C67.7,11.3,67.8,11.3,67.9,11.3L67.9,11.3z"/>
			<path class="st1" d="M58.8,21.7c0.1,0,0.1,0.2,0,0.2C58.7,22,58.7,22,58.7,22c0,0.1-0.1,0.1-0.1,0s0.1-0.3,0-0.3h-0.1
				c-0.1-0.1-0.2-0.2-0.1-0.4c0.1-0.1,0.1-0.1,0.2-0.2c0.1,0,0.1-0.1,0.1-0.1s0.1-0.1,0.1,0c0,0,0,0,0,0.2
				C59,21.5,59,21.7,58.8,21.7L58.8,21.7z M58.7,21.7c-0.2,0-0.3,0.2-0.2,0.3c0.1,0.1,0,0.1,0,0.2c0,0,0-0.1,0.1-0.1
				c0,0,0,0,0.1-0.1c0,0,0,0,0.1,0s0.2-0.2,0.2-0.3c0-0.1-0.1-0.2-0.2-0.1c0,0.1,0.1-0.2,0-0.2c0-0.1,0,0,0,0s0,0.1-0.1,0.1
				C58.5,21.5,58.5,21.7,58.7,21.7L58.7,21.7z"/>
			<path class="st1" d="M68.4,21.1c0-0.1,0.2-0.1,0.2,0c0.1,0.1,0.1,0.1,0.1,0.1c0.1,0,0.1,0.1,0,0.1s-0.3-0.1-0.3,0v0.1
				c-0.1,0.2-0.4,0.1-0.5-0.1c-0.1-0.1-0.2-0.3-0.2-0.3s0,0,0.2,0C68.2,20.8,68.5,20.9,68.4,21.1L68.4,21.1z M68.4,21.2
				c0,0.2,0.2,0.3,0.3,0.2c0.1-0.1,0.1,0,0.2,0c0,0-0.1,0-0.1-0.1c0,0,0,0-0.1-0.1c0,0,0,0,0-0.1s-0.2-0.2-0.3-0.2
				c-0.1,0-0.2,0.1-0.1,0.2c0.1,0-0.2-0.1-0.2,0c-0.1,0,0,0,0,0s0.1,0,0.1,0.1S68.4,21.3,68.4,21.2L68.4,21.2z"/>
			<path class="st1" d="M70.8,12.2c0.9,1.2-0.6,1.9-1.5,2.3c-0.2,0.1-0.3,0.3-0.2,0.5l0.3,0.7c0.1,0.3,0.2,0.9,0.5,0.9
				c0.6,0.1,1.5,0.1,2,0.9c0.4,0.9,0.1,2.2-0.9,2.6c-0.6,0.2-1.8-0.2-2.2-0.3c0.1-0.2-0.1,0.2-0.2,0.4c-0.1,0.1-0.4,1-0.4,1l0,0l0,0
				c0.3,0.5,0.7,1.1,0.7,1.7c0.1,1.1-1.1,2-2.1,1.8c-1.1-0.3-1.3-1.4-1.7-2.1c0,0,0,0-0.1,0l-0.2,0.1c-0.3,0.1-1,0.3-1.4,0.4
				c-0.1,0-0.1,0.2-0.2,0.2c-0.2,0.6-0.2,1.6-1,1.8c-0.9,0.2-2,0-2.2-1c-0.1-0.7,0.2-1.4,0.4-2c0.1-0.3-0.3-0.4-0.6-0.5
				c-0.1,0-1-0.5-1.1-0.4c-1.1,0.9-2.3,1.3-3.2-0.2c-0.9-1.3,1-2.1,1.8-2.7c0.1,0.2-0.2-0.5-0.4-1c-0.1-0.2-0.2-0.6-0.2-0.5
				c0.1,0-0.5-0.1-0.6-0.1c-0.6-0.1-1.4-0.4-1.6-1.2c-0.1-0.4-0.1-0.7,0-1.1c0.3-1.8,1.7-1.7,3.2-1.3l0.3,0.1c0,0-0.1,0-0.2,0.1
				l0.6-1.5l0.1-0.1c-0.1,0.1-0.1,0.3,0,0.3c-0.5-0.7-1.2-1.8-0.5-2.8c0.5-0.7,1.6-1.4,2.5-1c0.9,0.4,1.1,1.4,1.5,2c0,0,0,0-0.1-0.1
				h-0.1l0.6-0.2c0.4-0.1,1.1-0.3,0.9-0.2c0.1-0.4,0.2-1,0.4-1.4c0.5-1.1,2.2-1,3,0c0.4,0.9,0,1.5-0.2,2.2c0,0.1-0.2,0.4-0.1,0.5
				s0.9,0.5,1.1,0.6s0.4,0.2,0.5,0.3c0.1,0,0.3-0.2,0.5-0.3c0.4-0.2,0.9-0.5,1.3-0.4C70.2,11.4,70.5,11.8,70.8,12.2L70.8,12.2z
				 M70.7,12.2c-0.2-0.3-0.5-0.7-1.1-0.7c-0.4,0-0.9,0.2-1.2,0.4c-0.2,0.1-0.3,0.3-0.6,0.3c-0.3,0-0.4-0.2-0.6-0.2l-0.6-0.3
				c-0.2-0.1-0.5-0.1-0.6-0.4c-0.1-0.2,0-0.5,0-0.9c0-0.4,0.3-1.4,0-1.7c-0.3-0.4-1.5-0.5-1.7,0.1c-0.2,0.4-0.2,1.1-0.4,1.5
				c-0.2,0.4-1,0.5-1.4,0.7c-0.6,0.2-1.3,0.5-1.7-0.1c-0.2-0.4-0.5-1-0.7-1.3c-0.2-0.2-0.3-0.3-0.5-0.3c-0.2,0.1-0.6,0.3-0.7,0.5
				c-0.2,0.3,0.1,1,0.3,1.3s0.4,0.9,0.1,1.3l0.1-0.1l-0.7,1.4c-0.2,0.4-0.6,0.5-0.9,0.4c-0.4-0.1-0.9-0.2-1.2-0.3s-0.7-0.2-1,0.1
				c-0.5,1.1-0.2,1.4,0.7,1.6c0.4,0.1,0.5,0,1,0.3c0.4,0.3,0.3,0.6,0.4,1c0.1,0.3,0.3,1,0.3,1.3c-0.1,1.3-2.7,1-2,2.3
				c0.2,0.4,0.5,0.9,1,0.9s0.9-0.3,1.3-0.5c0.3-0.2,0.6-0.2,1,0l0.7,0.3c0.1,0,0.4,0.2,0.5,0.3c0.2,0.1,0.4,0.4,0.3,0.7
				c-0.3,1.1-1,2.5,0.6,2.6c0.9,0.2,1.2-0.5,1.3-1.3c0-0.1,0.1-0.4,0.1-0.6c0.1-0.3,0.3-0.4,0.6-0.5c0.2-0.1,0.9-0.3,1.2-0.4
				c0.3-0.1,0.6-0.1,0.9,0.1c0.2,0.2,0.4,0.7,0.6,1c0.5,1.1,1.1,1.2,1.8,0.3c0.4-0.5-0.4-1.4-0.6-1.9c-0.1-0.3,0.1-0.7,0.2-1
				s0.4-0.9,0.6-1.2c0.2-0.4,0.9-0.6,1.2-0.4l0.4,0.1c0.5,0.2,1.4,0.5,1.7,0c0.6-1.4-0.1-1.7-1.4-1.9c-0.5,0-0.5-0.7-0.7-1.1
				c0-0.3-0.4-1-0.2-1.3c0.1-0.2,0.2-0.2,0.3-0.3C70,14.1,71.5,13.4,70.7,12.2L70.7,12.2z"/>
		</g>
	</g>
	<g>
		<path class="st1" d="M58.8,15.6c-0.5,2.6,1.1,4.6,3.4,5.3l0,0l0,0c5.8,1.4,7.6-7.5,1.8-8.7C61.6,11.6,59.4,13.1,58.8,15.6z
			 M62.4,20.2c-4.6-1.3-3.3-8.2,1.5-7.4C68.9,13.6,67.3,21.2,62.4,20.2z"/>
		<g>
			<path class="st1" d="M58.9,15.6c-0.6,2.3,1.5,4.3,3.5,4.9c2.2,0.9,4.7-0.5,4.9-3.1C68,12.2,60.3,10.5,58.9,15.6L58.9,15.6z
				 M58.8,15.6c1.3-6.7,10.7-4.5,9.1,2C66.1,23.7,57.4,22.1,58.8,15.6L58.8,15.6z"/>
			<path class="st1" d="M62.4,20.4C56.8,19,59,12,64.2,12.7c2.3,0,3.8,2.8,3.2,4.9C66.9,19.8,64.5,20.9,62.4,20.4L62.4,20.4z
				 M62.4,20.2c3.9,0.7,5.7-6,1.6-7C59.6,11.7,58.5,19.2,62.4,20.2L62.4,20.2z"/>
		</g>
	</g>
	<g>
		<path class="st1" d="M64.6,13.8c1.5,1.3,1.5,3,0.9,4.8l0,0C66.7,17.3,66.3,14.6,64.6,13.8C64.6,13.7,64.5,13.8,64.6,13.8z"/>
		<path class="st1" d="M64.6,13.8c0.7,0.5,1.8,1.3,1.7,2.3c-0.1,0.9-0.5,1.7-0.6,2.6c0-0.3-0.3-0.3-0.4-0.2c0.5-1.2,0.3-2.5,0-3.6
			c-0.1-0.3-0.2-0.6-0.5-0.9C64.7,14,64.5,13.8,64.6,13.8L64.6,13.8z M64.5,13.8c0.9-0.1,1.9,0.9,2.1,1.9s-0.1,2.3-1,3.1
			c0,0-0.1,0.1-0.2,0.1c-0.2,0-0.3-0.2-0.2-0.4c0.4-0.6,0.4-1.5,0.1-2.2C65.2,15.4,65.3,14.5,64.5,13.8L64.5,13.8z"/>
	</g>
	<g>
		<path class="st1" d="M63.8,13.4c0.1,0,0.1,0.1,0.2,0.1c0.1,0,0.2,0.1,0.3,0.1l0,0C64.3,13.4,64,13.3,63.8,13.4L63.8,13.4z"/>
		<path class="st1" d="M63.9,13.4c0,0,0.2-0.1,0.2-0.2c0.1-0.1,0.1-0.1,0.1-0.1c0,0.1,0,0.2,0.1,0.3l0,0c0,0,0.1,0-0.1,0
			c-0.1,0-0.1,0.1-0.1,0.2c-0.1,0.1-0.2,0.3-0.2,0.2C63.9,13.8,63.9,13.5,63.9,13.4C64,13.4,63.9,13.4,63.9,13.4L63.9,13.4z
			 M63.8,13.5c-0.1-0.3,0.2-0.7,0.4-0.6c0.4,0.1,0.4,0.9,0.2,1c-0.2,0-0.1,0-0.2,0s-0.1,0.2-0.2,0.2C63.8,14.2,63.9,13.5,63.8,13.5
			L63.8,13.5z"/>
	</g>
	<g>
		<path class="st1" d="M54.4,21.1c-0.2-0.5-0.3-1-0.2-1.5s0.4-0.9,0.7-1.2c0,0,0-0.1,0,0C53.9,18.9,53.5,20.4,54.4,21.1L54.4,21.1z"
			/>
		<path class="st1" d="M54.3,21.1c-0.5-0.3-0.9-1.1-0.6-1.7c0.2-0.5,0.9-0.6,1-1.2c-0.1,0.1,0,0.3,0.1,0.3h0.1
			c-0.4,0.6-0.5,1.4-0.5,2.1C54.4,20.8,54.4,21,54.3,21.1C54.4,21.1,54.3,21,54.3,21.1L54.3,21.1z M54.4,21.1
			C54.4,21.1,54.4,21.2,54.4,21.1c-0.2,0.1-0.1,0.1-0.2,0.1c-1.4-0.5-1-2.7,0.3-3c0.1,0,0.3-0.1,0.4,0c0.3,0.3-0.2,0.5-0.3,0.9
			c-0.1,0.2-0.1,0.5-0.1,0.7C54.6,20.1,54.6,20.6,54.4,21.1L54.4,21.1z"/>
	</g>
	<g>
		<path class="st1" d="M72.8,19.1c-0.3,0.4-0.4,1.1-0.7,1.5c-0.4,0.5-1.1,0.4-1.6,0.6l0,0C71.8,21.6,72.8,20.4,72.8,19.1
			C73,19.1,72.8,19.1,72.8,19.1z"/>
		<path class="st1" d="M72.8,19.2c-0.3,0.5,0.1,1.5-0.6,1.9c-0.6,0.3-1.2,0-1.7,0.4c0.1,0,0.2-0.2,0.1-0.3c-0.2-0.1-0.1-0.1-0.1-0.1
			c0.9-0.1,1.2-0.7,1.8-1.2C72.6,19.6,72.7,19.4,72.8,19.2C72.8,19.1,72.8,19.2,72.8,19.2L72.8,19.2z M72.8,19.1
			c1,1.4-0.9,3.3-2.3,2.5c0,0,0,0-0.2-0.1c-0.1-0.1-0.1-0.2,0-0.2c0.1-0.3,0.6-0.1,0.9-0.2s0.5-0.3,0.5-0.5
			C71.9,19.9,72.5,19.6,72.8,19.1L72.8,19.1z"/>
	</g>
	<g>
		<path class="st1" d="M66.6,7.1c1.1,0.6,1.2,1.7,1.1,2.8h0.1C68,8.8,67.8,7.4,66.6,7.1C66.6,7,66.6,7,66.6,7.1z"/>
		<path class="st1" d="M66.6,7C67.2,7,68,7.5,68,8.3c0,0.5-0.3,1.1-0.1,1.6c0-0.1-0.2-0.3-0.4-0.1c-0.1-1-0.2-1.9-0.9-2.7
			C66.6,7.1,66.6,7.1,66.6,7C66.6,7.1,66.7,7,66.6,7L66.6,7z M66.6,7.1C66.5,7.1,66.6,6.9,66.6,7.1L66.8,7c0.3,0,0.6,0,0.9,0.2
			c1,0.5,1,2,0.4,2.8c0,0.2-0.3,0.3-0.5,0.2c-0.1-0.1-0.1-0.3-0.1-0.3c0.2-0.4,0-1-0.3-1.4C66.9,8.1,66.8,7.8,66.6,7.1L66.6,7.1z"/>
	</g>
	<g>
		<path class="st1" d="M54.4,12.2c0.1-0.1,0.3-0.1,0.4-0.2c0.3-0.1,0.6,0,0.9-0.1l0,0c-0.3-0.1-0.6-0.1-1.1,0
			C54.4,12,54,12.1,54,12.5l0,0C54.3,12.4,54.3,12.4,54.4,12.2z"/>
		<path class="st1" d="M54.4,12.1c0.2-0.2,0.5-0.9,1-0.6c0.1,0,0.2,0.1,0.3,0.2c0,0,0,0,0.1,0c-0.1,0-0.1,0.1-0.1,0.2l0.1,0.1
			c-0.4-0.2-0.9,0.7-1.3,0.4c0,0,0,0-0.1,0c-0.1-0.2-0.2-0.2-0.3-0.2C54.1,12.4,54.3,12.2,54.4,12.1L54.4,12.1z M54.4,12.2
			c-0.1,0.1-0.1,0.5-0.4,0.4c-0.2,0-0.2-0.3-0.2-0.4c-0.1-0.4,0.2-0.6,0.3-0.7c0.7-0.4,1.1,0,1.7,0.2l0.1,0.1c0,0.2-0.1,0.2-0.2,0.3
			c-0.1,0.1-0.2,0.2-0.3,0.2C55,12.7,54.7,12,54.4,12.2L54.4,12.2z"/>
	</g>
	<g>
		<path class="st1" d="M65.1,25.2c0.5,0.6,1.3,0.9,2,0.5l0,0c-0.3,0-0.7,0-1.1-0.1S65.4,25.3,65.1,25.2C65.1,25,65,25.2,65.1,25.2z"
			/>
		<path class="st1" d="M65.1,25.2c0.2,0.3,0.7,0,1,0.2c0.2,0.3,0.5,0.5,0.9,0.1c-0.4,0.2-0.2,0.5,0,0.5c-0.3,0.2-0.7,0.3-1.2,0.2
			C65.2,26,65.2,25.3,65.1,25.2L65.1,25.2z M65,25.2c-0.1-0.1,0-0.2,0.2-0.1s0.7,0,1,0c0.2,0.1,0.6,0.1,0.9,0.3c0,0,0,0,0.1,0
			c0.3,0,0.3,0.5,0.1,0.6c-0.3,0-0.4,0-0.6,0c-0.4,0.2-1.1,0.3-1.3-0.2C65.2,25.6,65.1,25.3,65,25.2L65,25.2z"/>
	</g>
	<g>
		<path class="st1" d="M65.9,6.8L65.9,6.8C66,6.9,66.1,7,66.3,7l0,0C66.2,6.8,66.1,6.8,65.9,6.8z"/>
		<path class="st1" d="M65.9,6.9L65.9,6.9c0.1-0.1,0.4-0.4,0.3-0.3c0,0.1,0,0.4,0.1,0.2C66.1,6.7,65.9,7,66,7.2l-0.1,0.1
			c0,0.2,0.1,0.1,0.1-0.1S66,6.8,65.9,6.9L65.9,6.9z M65.9,6.8c0,0,0.1-0.2,0.1-0.3c0.2-0.3,0.5-0.1,0.5,0.2c0,0.1,0,0.1,0,0.2
			c0,0.2-0.1,0.3-0.2,0.3C66,7.3,66.1,7.1,66,7.1C65.8,7.5,65.7,7.3,65.9,6.8L65.9,6.8z"/>
	</g>
	<g>
		<path class="st1" d="M73.1,18.4C73,18.5,73,18.8,73,18.9l0,0C73.1,18.8,73.2,18.6,73.1,18.4L73.1,18.4z"/>
		<path class="st1" d="M73.1,18.5c-0.1,0.1,0.4,0.3,0.3,0.3s-0.3,0-0.2,0.1c0.1,0,0-0.1-0.1-0.1c-0.1-0.1-0.2,0.1-0.2,0
			c-0.1-0.1-0.2-0.1-0.2-0.1S73,18.7,73.1,18.5C73.1,18.5,73.1,18.5,73.1,18.5L73.1,18.5z M73.1,18.4c0.3,0,0.6,0.2,0.6,0.3
			c0,0.1-0.2,0.3-0.4,0.3c-0.1,0-0.2,0.1-0.3,0c-0.1,0-0.1-0.1-0.1-0.2v-0.1c-0.1-0.1-0.5-0.3-0.1-0.4C72.8,18.4,73,18.4,73.1,18.4
			L73.1,18.4z"/>
	</g>
	<g>
		<path class="st1" d="M59.2,25.2C59.1,25,59,24.8,59,24.7s0-0.2-0.1-0.3l0,0c-0.1,0.1,0,0.3,0.1,0.4C59,25,59.1,25.2,59.2,25.2
			C59.2,25.3,59.2,25.2,59.2,25.2z"/>
		<path class="st1" d="M59.2,25.3c-0.3,0.1-0.6-0.1-0.6-0.3c0-0.2,0.3-0.3,0.1-0.4c-0.1,0,0.1,0.1,0.2,0.1c0.2-0.1,0.1-0.1,0.1-0.1
			c0.1,0,0.2,0,0.2,0c0.2,0.1,0,0.2,0,0.5C59.3,25,59.2,25,59.2,25.3C59.1,25.2,59.2,25.3,59.2,25.3L59.2,25.3z M59.3,25.2
			c0.1,0,0.1,0.2-0.1,0.2c-0.3,0.2-0.9-0.1-0.7-0.5c0-0.3,0.1-0.4,0.4-0.6c0.3-0.1,0.3,0.2,0.3,0.3c0.1,0.1,0.2,0.1,0.3,0.1
			C59.5,24.7,59.5,24.8,59.3,25.2L59.3,25.2z"/>
	</g>
	<g>
		<path class="st1" d="M59.5,19.8c-0.1-0.2-0.3-0.4-0.4-0.6c-0.1-0.2-0.2-0.5-0.3-0.9c-0.1-0.1-0.2-0.1-0.2,0
			c-0.1,0.3,0.1,0.7,0.2,1C58.9,19.6,59.1,19.8,59.5,19.8L59.5,19.8z"/>
		<path class="st1" d="M59.5,19.8c-0.2-0.3-1-0.2-1-0.7c0-0.2,0.1-0.4,0.1-0.5s-0.1-0.1-0.1-0.1c0,0.1,0.2-0.1,0.2,0
			c0.2,0.2,0.3,0.3,0.4,0.6c0.1,0.1,0,0.4,0.1,0.6C59.4,19.7,59.4,19.7,59.5,19.8C59.5,19.8,59.4,19.8,59.5,19.8L59.5,19.8z
			 M59.5,19.7c-0.2,0.4-1.1,0.3-1.3-0.1c-0.1-0.2-0.2-0.3-0.2-0.5c-0.1-0.5,0.4-1.5,0.9-0.6c0.1,0.2,0.4,0.3,0.5,0.5
			C59.6,19.2,59.4,19.6,59.5,19.7L59.5,19.7z"/>
	</g>
	<g>
		<path class="st1" d="M67.9,15.2c0,0.4,0.1,0.7,0.1,1.2c0,0.4,0,0.7,0,1.2l0,0C68.5,16.8,68.4,16,67.9,15.2L67.9,15.2z"/>
		<path class="st1" d="M67.9,15.2c0,0.4,0.6,0.7,0.5,1.2c-0.1,0.3-0.4,0.7-0.2,1.1c0-0.2-0.3-0.2-0.4-0.1c0-0.6-0.2-1.1,0-1.6
			C67.9,15.7,67.9,15.4,67.9,15.2C67.9,15.2,67.9,15.3,67.9,15.2L67.9,15.2z M67.8,15.2c0-0.1,0.1-0.1,0.2-0.1
			c0.1,0.1,0.3,0.2,0.4,0.4c0.6,0.5,0.3,1.6-0.2,2.1c-0.2,0.3-0.6,0.1-0.4-0.3c0.1-0.3-0.1-0.6-0.2-1C67.3,16.1,67.9,15.7,67.8,15.2
			L67.8,15.2z"/>
	</g>
</g>
</svg>
