<?xml version="1.0" encoding="utf-8"?>
<!-- Generator: Adobe Illustrator 26.2.1, SVG Export Plug-In . SVG Version: 6.00 Build 0)  -->
<svg version="1.1" xmlns="http://www.w3.org/2000/svg" xmlns:xlink="http://www.w3.org/1999/xlink" x="0px" y="0px"
	 viewBox="0 0 744.8 162.7" style="enable-background:new 0 0 744.8 162.7;" xml:space="preserve">
<style type="text/css">
	.st0{fill:#993415;}
	.st1{fill:#9F402A;}
	.st2{fill:#FFFFFF;}
</style>
<g id="Layer_1">
	<g>
		<path class="st0" d="M721.8,149.2h-702c-2.2,0-4-1.7-4-3.9l2.3-119.4c0-3.7-3.1-14.4,0.7-14.4h702.9c3.8,0,2.9,20.8,2.9,24.5
			l3.9,106.5C728.6,146.2,725.6,149.2,721.8,149.2z"/>
		<g>
			<g>
				<g>
					<g>
						<path class="st1" d="M227.8,156.6C228.5,156.7,228.9,156.6,227.8,156.6L227.8,156.6z"/>
						<path class="st1" d="M223.8,2.6c0.2,0,0.3,0,0.5,0c0.4-0.2,0.8-0.4,1.1-0.5L223.8,2.6z"/>
						<path class="st1" d="M312.9,3.9c0.2,0,0.4,0,0.5,0.1C313.4,3.8,313.6,3.7,312.9,3.9z"/>
						<path class="st1" d="M13.7,6.3c-0.9,0.6-1.3,1.2-1.5,1.6C12.5,7.4,13,6.8,13.7,6.3z"/>
						<path class="st1" d="M391.1,155.6c0,0-0.2,0-0.4,0c0.3,0,0.6,0.1,1,0.1L391.1,155.6z"/>
						<path class="st1" d="M389.3,155.9c-2-0.1,0.5-0.3,1.4-0.3c-2.2-0.3-4.3-0.3-6.5-0.2C384.2,155.7,388.3,155.7,389.3,155.9z"/>
						<path class="st1" d="M687.3,154.7l-0.9,0.1C686.8,154.8,687.1,154.7,687.3,154.7z"/>
						<path class="st1" d="M27.4,19.9c-0.1,0-0.1,0-0.2,0.1C27.4,19.9,27.4,19.9,27.4,19.9z"/>
						<path class="st1" d="M640.6,154.4l-0.5,0.5C640.5,154.7,640.6,154.5,640.6,154.4z"/>
						<path class="st1" d="M225.5,2.1l0.6-0.2C225.9,1.9,225.7,2,225.5,2.1z"/>
						<path class="st1" d="M395.3,4.2c0,0.2,0.2,0.3,0.4,0.4c0.1,0,0.2,0,0.2,0L395.3,4.2z"/>
						<path class="st1" d="M726.5,99.1c0.1,0,0.1-0.1,0.2-0.2l-0.4-1.6C726.3,98.1,726.4,98.7,726.5,99.1z"/>
						<path class="st1" d="M508.2,6.3c0.1-0.1,0.4-0.1,0.4-0.2c-1.9-0.2-7-0.2-13.5-0.2l-0.4,0.6L508.2,6.3z"/>
						<path class="st1" d="M631.7,20.6l-12-1.2c38.6-0.6,56.7,0.7,89.7-0.3l-1.8,0.3c1.2,0.1,2.3,0,4-0.2c0.9-0.1,1.9-0.2,3.3-0.3
							c0.3-0.1,0.8-0.2,1.4-0.2c0.1,0,0.3,0,0.5,0c0.2,0,0.3,0,0.4,0.2c0.2,0.3,0.3,0.6,0.4,1c0.1,0.4,0.1,0.8,0.1,1.3
							c0,0.3,0,0.7,0,1.1c0,0.4,0,0.8,0,1.2c0,0.8,0,1.7,0,2.7c0,1.9-0.1,3.9-0.2,6.1c-0.1,1.1-0.1,2.3-0.2,3.6c0,1.3,0,2.7,0,4.1
							c-0.1,5.2-0.2,11-0.3,17.7l-0.1,0c0.1,1.8,0.3,1.8,0.1,5.5l0.4-9.2c0.5,5.5,1.3,10.3,1.6,17.6c-0.1,1.6-0.3,2.1-0.5,2.3
							l0.9,18l-0.6,5.5c0.6,5.5,2.2,2.9,1.8,17.7c1-5.6,1,7.3,1.5,5.4c-0.1,0.7-0.3,2.4-0.4,3.8c0.2,4.4,0.6,10.7,1,16.4
							c0,0.7,0.1,1.4,0.1,2.1c0,0.3,0,0.2,0,0.2c0,0,0,0,0,0c0,0,0,0.1,0,0.1c0,0.1,0,0.3-0.1,0.5c-0.2,0.4-0.6,0.6-0.8,0.7
							c0-0.1,0.6,0.3,1.4-0.2c0.2-0.1,0.4-0.3,0.6-0.5c0.1-0.1,0.2-0.2,0.2-0.4c0-0.1,0-0.1,0.1-0.2c0,0,0-0.1,0-0.1l0-0.2l0-0.4
							c0.1-2.2,0.2-4.5,0.3-7c0.4-9.7,0.9-20.6,1.4-25.2c0.1,12.3,0.3,3.2,0.6,0.8l-0.3-0.8c0-7.4,0.7-7.4,0.8-11.1
							c-0.1,0-0.1,0.1-0.2,0.2l0.1,0.5c-0.1,0.4-0.2,0.1-0.3-0.2c-0.2,0.1-0.3-0.2-0.3-2.3l0.1,0.4c-0.2-3.1-0.3-8.4-0.3-10.7
							l0.6-0.1c-1.4-5.4,0.4-36.8,0.2-44.2c0.1-1.9,0.1-3.8,0.1-5.9c0-0.8,0-2,0-3c0-1.1,0-2.2,0-3.2c0-2.2-0.1-4.5-0.2-6.8
							c0-0.6-0.1-1.2-0.1-1.7l-0.1-1.9c-0.1-1.4-0.2-2.7-0.4-4.1c-0.4-2.1-0.9-3.8-1.7-5c-0.1-0.1-0.2-0.3-0.3-0.4
							c-0.1-0.1-0.2-0.2-0.4-0.3c-0.3-0.2-0.5-0.2-0.8-0.3c-0.5-0.1-1-0.2-1.4-0.3c-1.7-0.2-2.5-0.4-3.1-0.5
							c-0.5-0.1-0.8-0.3-1.5-0.4c-0.4-0.1-0.9-0.1-1.6-0.2c-0.3,0-0.6-0.1-1-0.1c-0.4,0-0.8-0.1-1.2-0.1c-9.2-0.4,1.9,0.7-1.8,0.8
							l-11-0.9c6.4-0.1,2.9-0.4,1.8-0.7c-9.5-0.1-24.6-1.2-27.5,0c-12.9-0.6-12.9-1.1-18.4-1.1c1.8,0.2,5.5,0.4,5.6,0.7
							c-5.2-0.5-2.5,0.1-0.4,0.3c-7.9,0.5-40.8-2.2-42.5-0.9V6c-1.8,1,1.1,2-4.4,2.5l-3.7-0.4L605,8.5c-3.7-0.3-1.9-0.6-1.9-0.7
							c-9,0.5-21.5-0.1-32.4-0.2l11.5,2.7c-9.2-0.6-25.8-1.9-27.6-1l-5.5-0.9c-18.4-1.7-12.9,0.8-20.2,0.2l-9.3-1l9.2,0
							c-9.2-0.5-12.9-0.8-20.2-1.5c0,0-0.1,0-0.1,0c0.5,0,0.8,0.1,0.9,0.1l-1.3,0c-1.1,0.5-5.9,0.8-12.4,0.8
							c-9.2-0.1-16.4,0.6-31.1-0.5l-3.7,1l-11-0.6V6.3c10.8,0,31.2-0.3,45.1-0.3l0.2-0.4c-8.2,0-17.6,0.4-23.1,0.3
							c-2.7-0.2-9.5-1-4.5-1.6l-5.1,0.8c-27.5,0.1-27.7,0.1-56.4-0.8l2.5,0.4c-5.7,0.2-11.4,0.5-13-0.2c-17.2-0.1-35.1-0.6-46.3-1.7
							l-2.5,1c-3.6-0.1-9.1-1.5-10.9-0.2l-7.8,0.4c-5-0.1-8,0.5-13.7-0.1v0c0,0,0,0,0,0c-0.3,0-0.7-0.1-1.1-0.1c0,0,0,0.1,0.1,0.1
							c-11.3-0.4,0.1,0.9-12.8,0.3c-4.1-0.7-4.6,1.2-10.9,1l-6.3-1.4c-11.4-0.8-13.3,0.6-29.8,0.6c-7.9-0.5-11.8-1.7-6.5-2.7
							c-7.2,1.3-3.3,0.8-12.9,1.4c-1.5-0.5-0.5-0.6,1.7-1.1c-8.5-0.6-5.2,0.5-11.7,0.4c-1.9,1-4,2.5-6.1,2.6l2.5,0.3
							C214,6,206.6,6.2,198.7,5.8l0.3-0.5l-8.4,0.2L190,4.9l-12,0.2l1.6,0.2c-2.8,0.1-12.1,0.3-17.3,0l0.2-0.3
							c-14.9-1.1-27.2,0.3-44.7,0.5l2.3-0.7c-6-0.7-1.6,1.1-8.7,0.7l-0.4-0.9c-6.2,1.1-8.1-0.2-12.4-0.7l2,1.1l-8.1-0.2
							c-8.9-0.4-5.5-1.4-4.2-2l-6.1,0.9l-1.2-1C76.7,3.7,76.7,2.4,69,3c-0.6-0.4,1.3-0.6-1.3-0.8L54.8,3.7L62.5,3l-0.9,1.5
							c-8.1,1.1-10.9-0.2-16.7,0.3l4-0.4C39.5,4.7,39,4,33.7,3.7c1.6,0.3,4.2,0.7,0.4,0.9c-2.8,0.1-1.5-0.5-4.2-0.7
							c-0.2,0.2-0.7,0.5-1.5,0.6c-0.5,0.2-2.7,0.3-4.7,0.4c-2,0.1-4.6,0-6.6,0.6c-0.6,0.1-1,0.3-1.4,0.5c-0.4,0.2-1,0.3-1.4,0.6
							c-0.4,0.2-0.9,0.6-1.3,1c-0.4,0.4-0.7,0.9-1,1.3c-0.1-0.2-0.1-0.4,0.2-1c-0.6,1-0.8,1.8-1.1,2.8c-0.3,1-0.6,2.2-0.7,4.3
							c-0.3-1-0.6-2-0.8-3c-0.2,2.8,0.5,6,1.2,8.9c0.1,0.7,0.2,1.5,0.3,2.3c0.1,0.5,0.1,0.9,0.2,1.4c0.1,0.3,0.1,0.7,0.1,1l0,0.2
							l0,0.1l0,0.2c0,0.1,0,0.2,0,0.3c0,1.6,0,2.8-0.3,2.6l-0.2-2l-0.8,26.4l-0.9,0.3c1.1,2.6-0.7,14.4,0.8,13.5
							c-0.9,5,0.2,19.6-1.4,16.6c-0.5,17.3,1,26.7-0.3,47.8c-0.2,0.9-0.4,2.1-0.5,3.4c-0.1,0.7-0.1,1.3-0.2,2.1
							c0,0.4-0.1,0.7-0.1,1.1c0,0.2,0,0.4,0,0.6c0,0.3,0,0.6,0,0.9c-0.1,1.5-0.1,3.1-0.2,4.7c-0.1,1.6,0.1,3.2,0.5,4.7
							c0.4,1.4,1.1,2.8,2.1,4c1,1.3,2.3,2.4,3.7,3.2c0.7,0.4,1.4,0.7,2.2,1c0.4,0.1,0.8,0.3,1.2,0.3c0.4,0.1,0.8,0.2,1.3,0.2
							c1.8,0.3,3.7,0.1,5.6,0.2c2.3,0,4.6,0,6.9,0c3.9,0,7.8,0,11.1,0c26.4-0.6,43.5-1.1,70.5-1.6c16.2,2,40.5-0.7,58,0.4l4.8-0.8
							c11.6,1.3,29.4-0.3,45.7,1c4-0.3,6.1-0.5,7-0.5c-0.7,0-1.9-0.2-2.2-0.7c4.7,0.4,14.1-0.1,13.4,0.9l-1.2,0.1
							c-0.7,1,14.1-0.5,19.3,0.4l-2.8-1.1l8.8,0.2l-2.4,0.2c38.3-2.4,55.6,1,91.6-1.2c-4.8,1.2,7.1-0.6,7.6,0.7
							c9.1,1.6,16.8-0.4,24.2-0.8c0-0.1,0.1-0.1,0.5-0.2l13,0.2c-7.8,1.6,9.4-1.4,2.2,0c33.9,1.2,78.2,0,117.4,0.5l-1.7-0.4
							c10,0.1,22.3-0.4,29.9,0.2c7.6,0.7,16.5-1.1,19.5-1.1c8.3-0.7,15.8,0.7,12.3,0.6c8.9-0.2,17.2-1.7,29.5-1.1
							c4.2,1.4,33.5-1.4,33.9,0.2l0.1-0.1c15.7,1.1,30.6-0.8,47.5,0.2c0,0-0.3,0.1-0.9,0.2l34.5-4.7l-9.8-5.2l-29.9-4.2l-81,0.9
							l-64.6-1.7l-157.3,0.6l-11.2,1.2c-30.9-2.1-70.6,0.3-103.9-1.2l-0.7,1c-9.4,0.1-8.7-0.6-11.1-0.7c-43.7,0.2-88,0.5-131.2,0.7
							c-21.6,0.1-42.9,0.2-63.8,0.1c-10.4-0.1-20.7-0.1-30.9-0.2l-0.7,0l-0.2,0l-0.3,0c-0.2,0-0.5,0-0.7-0.1
							c-0.2-0.1-0.4-0.2-0.5-0.5c-0.1-0.2,0-0.5,0-0.7l0.1-0.7c0-1.2,0.1-2.5,0.1-3.7c0.1-2.5,0.2-4.9,0.3-7.4
							c0.8-7.6,0.9-30.6,1.7-36.5c-0.4-12.8-0.4-25.9-0.3-39.1c0.1-6.6,0.2-13.1,0.3-19.7c0-1.6,0.1-3.3,0.1-4.9l0-1.2l0-0.7
							c0-0.4,0-0.7,0-1.1c-0.1-1.4-0.2-2.3-0.3-3.2l-0.1-0.8l0-0.4c0-0.3,0-0.5,0-0.8c0,0.1,0.1,0.2,0.1,0.2c0-0.2,0-0.3,0.1-0.5
							c0.1-0.1,0.3-0.1,0.4-0.1l1-0.1c0.1,0,0,0.1,0.1,0.1c0,0.1-0.1,0.1-0.1,0.1l0,0c0,0,0.1,0,0.1,0l0.3,0c0.2,0,0.4,0,0.7,0
							c0.4,0,0.9,0,1.3-0.1c0.9,0,1.8-0.1,2.8-0.1c1.9-0.1,3.9-0.1,6-0.1c4.2,0,8.6,0,13.2,0.1c9.1,0.2,18.6,0.5,26.9,0.6l-1,0.1
							c97,0.2,187.1-1.7,283.3-0.3c44.7,1.6,96.8-0.6,148.1,0.7C518.7,21.8,622.5,21,631.7,20.6z"/>
						<path class="st1" d="M718.4,73.6l0-0.4C718,73.2,718.1,73.8,718.4,73.6z"/>
						<path class="st1" d="M570.1,7.6c0.2,0,0.5,0,0.7,0L568.2,7L570.1,7.6z"/>
						<path class="st1" d="M707.4,7.2c-6.2-0.1-6.5,0-5.6,0.1C704.1,7.4,706,7.4,707.4,7.2z"/>
						<path class="st1" d="M721.1,123.9c0.1,3.2,0.3,2,0.5,0.1c-0.2-3.3-0.3-5.6-0.3-5.6C721.3,120.2,721.1,122,721.1,123.9z"/>
						<path class="st1" d="M726.4,110.5l0.4,1C726.6,109.6,726.5,109.7,726.4,110.5z"/>
					</g>
				</g>
			</g>
		</g>
	</g>
</g>
<g id="Layer_2">
	<g>
		<path class="st2" d="M73.7,120.2h-0.4c-3.2-2.6-5.5-5-6.9-7.2l0.5-1.4l-0.3-6.9l-0.1-0.4l-0.1-1.3v-5.1l2.4,0.4v-0.6
			c-0.2-0.6-1-1.5-2.4-2.7v-4.4h-0.2L66.2,90c-1-1-1.6-2.3-1.9-3.6c-3.8-2.6-4.2-3.5,0.4-7.6c0.3-1.2,0.9-2.3,1.7-3.1V62.4l0.5-5.8
			l-0.3-2.5L66,54l-0.1-0.1c1.4-2.3,3.7-4.7,6.9-7.2h1.2l0.1-0.7l0.9,0.2l1.6-2.6l-1.1-1l1.1-1.1V41c-0.3-0.8-1-1.3-2-1.5l0.1-0.5
			c-0.7,0.2-1.5,0.4-2.2,0.6l-0.2-0.2v-0.5L71,39.1L71,40c-1.8,0.5-3.5,1.2-5.1,1.9c-3.9,4.1-6,8.5-6.4,13.3l-1.1,4l0.2,4.4
			c-0.2,0.9-0.3,2.1-0.4,3.4h0.6l0.1,2.1c0,4.3-1.7,7.7-5,10l-2.7,0.9l-1.4,1.4v1.4c0.6,3.1,2.2,4.6,4.7,4.6c2.9,0.4,4.3,3,4.3,7.8
			v0.6l-0.8,0.8c0,0.3,0.3,0.6,0.8,0.9l-0.1,2.2h-0.1c0,0.3,0.1,0.5,0.1,0.8l-0.2,3.5l0.7,0c0.5,1.8,1.2,2.7,2.2,2.7h0.5l-0.5,0.5
			v0.5l0.5,0.5v0.5c-1.3,0.1-2,0.6-2,1.4c0,5.4,2.2,10.4,6.5,14.9c2.7,1.2,5.6,2.2,8.8,2.9l-0.1-0.9l1.2,0.2l0.3-2.5v-0.9l0.2-3.5
			l-1.8-0.3L73.7,120.2z"/>
		<path class="st2" d="M143,60.7c-0.3,0.5-0.7,0.9-1.1,1.2c-0.5,0.3-1,0.5-1.6,0.7c-0.6,0.2-1.2,0.4-1.8,0.6
			c-0.6,0.2-1.2,0.5-1.8,0.8c-0.6,0.3-1.1,0.8-1.6,1.4c-0.4,0.5-0.8,1.1-1,1.8c-0.2,0.6-0.4,1.3-0.6,2c-0.2,0.7-0.4,1.4-0.6,2
			c-0.2,0.7-0.5,1.3-1,1.9c-0.1,0.2-0.2,0.3-0.3,0.5s-0.1,0.3-0.1,0.6c0,0.3,0,0.6,0.1,0.9c0.1,0.3,0.1,0.6,0.1,0.8
			c0,0.2,0,0.7-0.1,1.3c-0.1,0.6-0.2,1.3-0.4,2c-0.2,0.7-0.3,1.5-0.5,2.3c-0.2,0.8-0.4,1.6-0.7,2.2c-0.2,0.7-0.5,1.3-0.8,1.7
			c-0.3,0.5-0.5,0.7-0.8,0.8c0.4,1.1,0.6,2.3,0.6,3.6c0,0.8,0,1.3-0.1,1.6s-0.2,0.5-0.3,0.6c-0.1,0.1-0.2,0.2-0.4,0.3
			c-0.1,0.1-0.3,0.3-0.4,0.7c-0.3,0.9-0.6,1.8-1,2.7c-0.4,0.9-0.6,1.8-0.6,2.8c0,0.2-0.1,0.6-0.2,1.1c-0.1,0.5-0.3,1-0.5,1.4
			c-0.2,0.5-0.4,0.9-0.7,1.3c-0.3,0.4-0.5,0.5-0.8,0.5c0,0.2,0.1,0.5,0.2,0.7c0.1,0.2,0.2,0.4,0.4,0.6c0.1,0.2,0.3,0.4,0.4,0.7
			c0.1,0.2,0.2,0.5,0.2,0.7c0,0.1-0.1,0.3-0.2,0.7c-0.1,0.4-0.3,0.8-0.5,1.2c-0.2,0.4-0.5,0.9-0.8,1.3c-0.3,0.4-0.6,0.7-0.9,0.9
			c-0.2,0.1-0.4,0.3-0.7,0.4c-0.3,0.1-0.6,0.3-0.9,0.4c-0.3,0.1-0.6,0.2-0.9,0.3c-0.3,0.1-0.6,0.1-0.8,0.1c-0.1,0-0.4-0.1-0.8-0.2
			c-0.4-0.1-0.8-0.3-1.2-0.5c-0.4-0.2-0.9-0.4-1.2-0.5c-0.4-0.2-0.6-0.3-0.7-0.4c-0.2-0.2-0.4-0.6-0.6-1.2c-0.2-0.6-0.4-1.3-0.6-2
			c-0.2-0.7-0.4-1.4-0.6-2.1c-0.2-0.7-0.3-1.2-0.5-1.5c-0.3-0.9-0.6-1.7-0.9-2.5c-0.3-0.8-0.6-1.7-0.8-2.5c-0.1-0.4-0.2-0.8-0.3-1.2
			c-0.1-0.4-0.2-0.7-0.4-1.1v-0.2c0-0.4,0.1-0.7,0.2-1c0.1-0.3,0.2-0.7,0.2-1c0-0.2-0.1-0.5-0.2-0.8c-0.3-0.9-0.6-1.9-0.8-2.8
			c-0.3-0.9-0.5-1.9-0.8-2.8c-0.1-0.4-0.3-0.9-0.5-1.4c-0.2-0.5-0.4-0.9-0.6-1.4c-0.2-0.5-0.4-1-0.5-1.4c-0.1-0.5-0.2-0.9-0.2-1.4
			c0-0.7,0.2-1.4,0.6-1.9c-0.2-0.6-0.5-1.2-0.7-1.7c-0.2-0.6-0.4-1.2-0.6-1.8c-0.3-0.9-0.4-1.8-0.5-2.6c-0.1-0.9-0.2-1.7-0.3-2.5
			c-0.1-0.8-0.3-1.7-0.5-2.5c-0.2-0.8-0.6-1.6-1.2-2.5c-0.4-0.6-0.8-1-1.1-1.2c-0.3-0.3-0.7-0.4-1-0.5c-0.4-0.1-0.7-0.2-1.2-0.2
			c-0.4,0-0.9-0.1-1.5-0.2c-0.8-0.1-1.6-0.5-2.3-1c-0.7-0.5-1-1.2-1-2.1c0-0.5,0.2-0.8,0.5-1.1c0.3-0.3,0.7-0.5,1.2-0.7
			c0.5-0.2,1.1-0.3,1.7-0.4c0.6-0.1,1.2-0.2,1.8-0.2c0.6-0.1,1.2-0.1,1.7-0.2c0.5,0,0.9-0.1,1.2-0.3c0.4-0.1,0.7-0.2,1.1-0.3
			c0.4-0.1,0.8-0.1,1.2-0.1c0.5,0,1,0,1.5,0.1c0.5,0.1,1,0.1,1.5,0.2c0.6,0,1.2,0.1,1.8,0.1c0.6,0,1.1,0.2,1.6,0.3
			c0.5,0.2,0.9,0.4,1.3,0.8s0.7,0.9,0.9,1.5c0.1,0.4,0.2,0.7,0.2,1c0,0.5-0.1,0.9-0.4,1.3c-0.3,0.4-0.6,0.7-1.1,0.9
			c-0.4,0.3-0.9,0.5-1.3,0.7c-0.5,0.2-0.9,0.4-1.3,0.6l0,0.3c0,0.4-0.1,0.9-0.2,1.3c-0.2,0.4-0.4,0.7-0.9,1c0.4,0.3,0.7,0.6,0.8,1
			c0.1,0.4,0.2,0.9,0.2,1.4c0,0.5,0,1,0.1,1.5c0.1,0.5,0.2,0.9,0.6,1.3c0.4,0.5,0.7,1,0.8,1.6c0.1,0.6,0.2,1.1,0.2,1.8v1.4
			c0,0.4,0,0.8,0.1,1.2c0,0.4,0.1,0.8,0.3,1.2c0.1,0.2,0.2,0.4,0.3,0.6c0.1,0.2,0.2,0.4,0.2,0.7c0,0.2-0.1,0.4-0.2,0.5
			c-0.1,0.1-0.3,0.3-0.5,0.4c0.3,0.6,0.6,1.3,0.8,2c0.3,0.7,0.7,1.3,1.3,1.7c0,0.1,0,0.3,0,0.4s0,0.3,0,0.4c0,0.3,0,0.7,0.1,1.1
			c0.1,0.4,0.1,0.8,0.2,1.2c0.1,0.4,0.2,0.8,0.3,1.1c0.1,0.4,0.3,0.7,0.5,1l0.1,0v0.2c0,0.3-0.1,0.6-0.3,0.9
			c-0.2,0.3-0.3,0.5-0.3,0.9c0,0.2,0.1,0.5,0.2,0.8c0.2,0.3,0.4,0.6,0.6,0.9c0.2,0.3,0.5,0.6,0.7,0.9c0.3,0.3,0.5,0.5,0.6,0.7h0.2
			c0.6,0,1-0.1,1.4-0.3c0.4-0.2,0.7-0.5,0.9-0.9c0.2-0.4,0.4-0.8,0.6-1.2c0.1-0.5,0.3-0.9,0.4-1.4c0.1-0.2,0.2-0.7,0.3-1.4
			c0.1-0.7,0.3-1.4,0.5-2.2c0.2-0.8,0.4-1.4,0.7-2c0.3-0.6,0.5-0.9,0.8-0.9h0.1c-0.1-0.2-0.1-0.4-0.3-0.6c-0.1-0.2-0.3-0.4-0.4-0.6
			c-0.1-0.2-0.3-0.4-0.4-0.6c-0.1-0.2-0.2-0.4-0.2-0.6c0-0.2,0-0.4,0.1-0.6c0.1-0.2,0.1-0.4,0.2-0.5c0.3-0.6,0.5-1.2,0.7-1.6
			c0.2-0.5,0.3-0.9,0.5-1.3c0.1-0.4,0.2-0.9,0.3-1.4c0.1-0.5,0.2-1.1,0.2-1.7c0-0.2,0.1-0.6,0.3-1.1c0.2-0.5,0.4-1.1,0.7-1.7
			c0.3-0.6,0.5-1.2,0.8-1.7c0.3-0.5,0.4-0.9,0.6-1v0c0-0.1,0-0.2,0.1-0.3s0-0.2,0-0.3c0-0.1,0-0.3-0.1-0.4s-0.1-0.3-0.1-0.4
			c0-0.3,0.1-0.6,0.3-0.9c0.2-0.3,0.3-0.6,0.3-0.9c0-0.3-0.1-0.7-0.3-1c-0.2-0.3-0.4-0.6-0.7-0.9c-0.3-0.3-0.6-0.6-0.9-0.8
			c-0.3-0.3-0.6-0.5-0.8-0.7h-1.1c-0.3-0.3-0.5-0.7-0.6-1s-0.3-0.7-0.6-1c-0.2-0.1-0.3-0.3-0.5-0.5c-0.2-0.2-0.2-0.4-0.2-0.6
			c0-0.3,0.1-0.6,0.2-0.9c0.1-0.3,0.2-0.6,0.3-0.9c0.1-0.4,0.2-0.7,0.3-0.9c0.1-0.2,0.2-0.3,0.3-0.4c0.1-0.1,0.3-0.1,0.5-0.2
			c0.2,0,0.5-0.1,0.9-0.2c0.4-0.1,0.8-0.2,1.2-0.2c0.2,0,0.4,0,0.7,0c0.2,0,0.4,0,0.6,0c0.3,0,0.6-0.1,1-0.2
			c0.4-0.1,0.8-0.2,1.3-0.4c0.5-0.1,1-0.3,1.5-0.4c0.5-0.1,1.1-0.2,1.6-0.2c0.6,0,1.2,0.1,1.7,0.3c0.6,0.2,1.1,0.3,1.7,0.3
			c0.2,0,0.4,0,0.6,0c0.2,0,0.4,0,0.6,0c0.4,0,0.7,0,1,0.1c0.3,0.1,0.6,0.2,0.9,0.4c0.4,0.2,0.8,0.3,1.2,0.4
			c0.4,0.1,0.8,0.2,1.2,0.3c0.4,0.1,0.8,0.2,1.2,0.4c0.4,0.1,0.8,0.3,1.1,0.5v0.6C143.5,59.5,143.3,60.2,143,60.7z"/>
		<path class="st2" d="M184.1,108.3c0,0.4-0.1,0.8-0.2,1.2c-0.2,0.4-0.4,0.7-0.7,1c-0.3,0.3-0.6,0.5-1,0.7c-0.4,0.2-0.8,0.3-1.2,0.3
			c-0.2,0-0.3,0-0.3-0.1c-0.1,0-0.1-0.1-0.3-0.3c-0.4-0.4-0.8-0.6-1.3-0.6c-0.5-0.1-1-0.1-1.6-0.2c-0.5-0.1-1.1-0.2-1.5-0.4
			c-0.5-0.2-0.9-0.6-1.2-1.3c-0.2-0.4-0.4-0.7-0.6-0.8c-0.2-0.1-0.6-0.2-1.1-0.2c-1.1,0-2.2,0.2-3.2,0.5c-1,0.3-2,0.7-3,1.2
			c-1,0.4-2,0.8-3,1.2c-1,0.3-2.1,0.5-3.2,0.5c-0.6,0-1.2-0.1-1.8-0.2c-0.6-0.1-1.2-0.3-1.7-0.5c-0.1,0.1-0.3,0.2-0.4,0.3
			c-0.2,0-0.3,0.1-0.5,0.1c-0.2,0-0.3,0-0.5,0c-0.2,0-0.3,0-0.4,0c0,0-0.2,0-0.4,0.1c-0.3,0.1-0.4,0.1-0.5,0.2l0.2,0.4
			c-0.2,0.2-0.5,0.4-1,0.6c-0.5,0.2-1.1,0.4-1.7,0.5s-1.2,0.3-1.8,0.4c-0.6,0.1-1,0.1-1.3,0.1c-0.8,0-1.5-0.1-2-0.4
			c-0.5-0.3-1-0.7-1.5-1.3c-0.2-0.2-0.4-0.5-0.7-0.7c-0.3-0.2-0.5-0.5-0.8-0.8c-0.2-0.3-0.4-0.5-0.6-0.8c-0.2-0.3-0.2-0.6-0.2-0.9
			c0-0.4,0.2-0.7,0.6-0.9c0.4-0.2,0.9-0.4,1.4-0.6c0.6-0.2,1.1-0.3,1.7-0.3c0.6-0.1,1-0.1,1.3-0.1c0.6,0,1.2,0.1,1.8,0.2
			c0.6,0.2,1.2,0.2,1.8,0.2c0.6,0,1.1-0.1,1.6-0.2c0.5-0.1,1-0.2,1.6-0.2c0.5,0,0.9,0,1.4,0.1s0.9,0.1,1.4,0.1
			c0.6,0,1.2-0.1,1.8-0.3c0.6-0.2,1.1-0.5,1.6-0.8c0.2-1.2,0.3-2.4,0.4-3.6s0.1-2.4,0.1-3.6c0-1.2-0.1-2.4-0.3-3.6
			c-0.2-1.2-0.3-2.4-0.3-3.6c0-0.1,0-0.2,0.1-0.2c0.1,0,0.1,0,0.2,0s0.1,0,0.2-0.1c0.1,0,0.1-0.1,0.1-0.3c0-0.5-0.1-1-0.2-1.5
			s-0.2-1-0.2-1.5c0-0.6,0.1-1.3,0.3-1.9c0.2-0.6,0.3-1.2,0.3-1.9c0-0.4-0.1-0.9-0.3-1.3c-0.2-0.4-0.5-0.8-0.8-1.2
			c-0.3-0.3-0.7-0.6-1.1-0.8c-0.4-0.2-0.9-0.3-1.4-0.3c-0.5,0-1.1,0.1-1.6,0.2c-0.5,0.1-1.1,0.3-1.6,0.4c-0.6,0.2-1.1,0.3-1.7,0.4
			c-0.6,0.1-1.2,0.2-1.8,0.2c-0.7,0-1.4,0-2.2-0.1c-0.7-0.1-1.4-0.2-2.2-0.3c-0.4,0-0.7-0.1-1.2-0.1c-0.4,0-0.9-0.1-1.3-0.3
			c-0.4-0.1-0.7-0.3-1-0.5c-0.3-0.2-0.4-0.6-0.4-1.1c0-0.9,0.2-1.5,0.5-2c0.3-0.5,0.7-0.8,1.2-1s1-0.4,1.6-0.4
			c0.6,0,1.1-0.1,1.7-0.1c1-0.1,1.9-0.1,2.9-0.2c0.9-0.1,1.9-0.1,2.8-0.1c1.2,0,2.3,0.1,3.5,0.2c1.1,0.1,2.3,0.2,3.5,0.2
			c0.8,0,1.6,0.1,2.4,0.4c0.8,0.2,1.4,0.6,2,1.1c0.6,0.5,1,1.1,1.3,1.9c0.3,0.8,0.5,1.6,0.5,2.6c0,0.7-0.1,1.3-0.4,1.9
			c-0.3,0.6-0.7,1.2-1.1,1.7c0.2,0.3,0.4,0.5,0.5,0.6c0.2,0.1,0.3,0.2,0.5,0.3c0.2,0.1,0.3,0.2,0.4,0.3c0.1,0.1,0.2,0.4,0.2,0.8
			c0,0.2,0,0.4,0.1,0.7c0.1,0.3,0.2,0.4,0.5,0.4c0,1.3,0,2.6,0,3.9c0,1.3,0,2.6,0,3.9c0,1.1,0,2.2,0,3.3c0,1.1,0.1,2.2,0.3,3.3
			c0.1,0.7,0.3,1.2,0.6,1.6c0.3,0.4,0.8,0.5,1.6,0.5c1.1,0,2.3-0.1,3.4-0.3c1.1-0.2,2.2-0.3,3.4-0.3c0.7,0,1.3,0.2,1.9,0.5
			s1.2,0.7,1.7,1c0.5,0.4,1.1,0.7,1.6,1c0.5,0.3,1,0.5,1.4,0.5c0.2,0,0.4,0.1,0.5,0.2c0.1,0.1,0.2,0.3,0.3,0.5
			c0.1,0.2,0.1,0.4,0.1,0.6C184.1,108,184.1,108.1,184.1,108.3z M165.8,63.7c0,0.7-0.1,1.4-0.4,2.2c-0.2,0.7-0.6,1.4-1,2.1
			c-0.5,0.6-1,1.1-1.6,1.5c-0.6,0.4-1.4,0.6-2.1,0.6c-0.5,0-1.2-0.1-2-0.2c-0.8-0.2-1.5-0.4-2.2-0.7c-0.7-0.3-1.3-0.7-1.8-1.2
			c-0.5-0.5-0.8-1.1-0.8-1.7c0-0.6,0.1-1.2,0.2-1.8c0.1-0.6,0.2-1.3,0.2-1.9c0.3-0.1,0.5-0.3,0.8-0.7c0.3-0.3,0.5-0.6,0.7-1
			c0.2-0.3,0.5-0.6,0.7-0.9c0.2-0.3,0.5-0.4,0.7-0.4l-0.2,0.1c0.4-0.1,0.7-0.3,1.1-0.4c0.4-0.1,0.8-0.1,1.2-0.1
			c0.5,0,1.2,0.1,1.9,0.4c0.7,0.3,1.5,0.6,2.1,1c0.7,0.4,1.3,0.9,1.7,1.5C165.6,62.5,165.8,63.1,165.8,63.7z"/>
		<path class="st2" d="M230.5,108.3c0,0.3-0.1,0.6-0.2,0.8c-0.1,0.2-0.3,0.3-0.4,0.4c-0.2,0.1-0.3,0.2-0.4,0.4
			c-0.1,0.1-0.2,0.3-0.2,0.5c0,0.1,0,0.3,0,0.3c-0.9,0.2-1.9,0.4-2.9,0.4s-2.1,0.1-3,0.1c-0.1,0-0.3,0-0.5-0.1
			c-0.2-0.1-0.4-0.1-0.5-0.2c-0.2-0.1-0.3-0.2-0.4-0.3c-0.1-0.1-0.2-0.3-0.2-0.4c-0.3,0.1-0.6,0.2-1,0.2c-0.4,0.1-0.7,0.1-1.1,0.2
			c-0.3,0.1-0.7,0.2-1,0.4s-0.6,0.4-0.8,0.7c-0.3-0.1-0.8-0.2-1.3-0.3s-1.1-0.2-1.7-0.3s-1.2-0.2-1.8-0.3c-0.6-0.1-1.2-0.3-1.6-0.5
			c-0.5-0.2-0.9-0.5-1.2-0.8c-0.3-0.3-0.5-0.7-0.5-1.1c0-0.1,0-0.3,0-0.6c0-0.3,0.1-0.6,0.2-0.9c0.1-0.3,0.2-0.6,0.3-0.8
			c0.1-0.2,0.2-0.4,0.4-0.4c0.3,0,0.5,0,0.7,0.1c0.2,0.1,0.5,0.1,0.8,0.1l0.4,0l0-0.3c0-0.2-0.1-0.3-0.2-0.5
			c-0.1-0.1-0.3-0.2-0.4-0.2c-0.2,0-0.4-0.1-0.5-0.1c-0.2,0-0.3,0-0.5,0c0.3-0.3,0.5-0.7,0.6-1.1c0.1-0.4,0.2-0.9,0.2-1.3
			c0-0.4-0.1-0.9-0.2-1.5c-0.1-0.6-0.3-1.1-0.5-1.7c-0.3-0.5-0.6-1-0.9-1.4c-0.4-0.4-0.8-0.7-1.3-0.8c-0.2-0.3-0.3-0.7-0.5-1
			c-0.2-0.4-0.4-0.7-0.7-1c-0.3-0.3-0.6-0.5-0.9-0.7c-0.3-0.2-0.7-0.3-1.1-0.3c-0.5,0-1,0.2-1.7,0.7c-0.7,0.5-1.4,1-2.1,1.6
			c-0.7,0.6-1.2,1.2-1.7,1.7c-0.5,0.6-0.7,0.9-0.7,1.1c0,0.3,0,0.5,0.1,0.8c0.1,0.2,0.1,0.5,0.1,0.8c0,0.4-0.1,0.8-0.3,1.1
			c-0.2,0.3-0.4,0.6-0.7,0.9c0.1,0.4,0.3,0.8,0.6,1c0.3,0.2,0.7,0.4,1.1,0.5c0.4,0.1,0.8,0.2,1.3,0.2c0.4,0,0.8,0.1,1.2,0.2
			c0.2,0.1,0.4,0.3,0.7,0.5c0.3,0.2,0.6,0.5,0.8,0.7c0.3,0.3,0.5,0.5,0.7,0.8c0.2,0.3,0.3,0.5,0.3,0.7c0,0.2-0.1,0.4-0.3,0.4
			c-0.2,0-0.4,0.1-0.6,0.1s-0.4,0.1-0.6,0.1c-0.2,0.1-0.3,0.2-0.3,0.5c0,0.2,0,0.3,0.1,0.4c-1.2,0-2.4,0.2-3.5,0.3
			c-1.1,0.2-2.3,0.4-3.5,0.7c-0.5,0.1-1,0.2-1.4,0.2c-0.5,0-1,0-1.5,0c-0.5,0-1,0-1.5,0c-0.5,0-1,0.1-1.5,0.2
			c-0.4,0.1-0.7,0.1-1.1,0.1c-0.6,0-1.1-0.1-1.6-0.3c-0.5-0.2-0.9-0.5-1.3-0.9s-0.7-0.8-0.9-1.3s-0.3-1-0.3-1.6c0-0.5,0.2-1,0.5-1.5
			s0.8-0.7,1.5-0.7c0.2,0,0.4,0.1,0.5,0.3c0.1,0.2,0.3,0.3,0.5,0.3c0.1,0,0.2-0.1,0.3-0.2c0.1-0.1,0.2-0.2,0.2-0.4s0.2-0.3,0.4-0.4
			s0.3-0.2,0.6-0.3c0.7-0.1,1.3-0.3,1.8-0.7c0.5-0.4,0.8-0.8,1.1-1.3c0.3-0.5,0.4-1.1,0.5-1.7c0.1-0.6,0.2-1.2,0.2-1.8
			c0-0.5-0.1-1-0.2-1.4c-0.1-0.5-0.2-0.9-0.2-1.4c0-0.6,0.1-1.3,0.4-2s0.4-1.4,0.4-2.3c0-1.1-0.1-2.3-0.2-3.4
			c-0.1-1.1-0.2-2.2-0.2-3.4c0-0.9,0.1-1.7,0.2-2.6c0.1-0.9,0.2-1.7,0.2-2.6c0-0.3,0-0.6-0.1-0.9c-0.1-0.3-0.2-0.5-0.3-0.8
			c-0.1-0.3-0.2-0.5-0.3-0.7c-0.1-0.2-0.1-0.5-0.1-0.7c0-0.5,0.1-1,0.3-1.5c0.2-0.5,0.3-1,0.3-1.5c0-0.6-0.1-1.1-0.3-1.6
			c-0.2-0.5-0.3-1-0.3-1.6c0-0.4,0-0.8,0.1-1.3c0.1-0.4,0.1-0.9,0.1-1.3c0-0.9-0.2-1.5-0.6-2c-0.4-0.4-0.9-0.8-1.5-1
			c-0.6-0.2-1.2-0.3-1.9-0.4c-0.7,0-1.3-0.1-1.9-0.2c-0.6-0.1-1.1-0.3-1.5-0.6c-0.4-0.3-0.6-0.7-0.6-1.3c0-0.7,0.2-1.3,0.5-1.7
			c0.3-0.5,0.7-0.8,1.2-1c0.5-0.2,1.1-0.4,1.7-0.5c0.6-0.1,1.2-0.1,1.8-0.1c1.6,0.3,2.9,0.6,3.9,0.9c0.9,0.2,1.6,0.5,2.1,0.6
			c0.5,0.2,0.8,0.3,0.9,0.4c0.1,0.1,0.2,0.2,0.2,0.3c0.2,0.4,0.3,1.1,0.4,2c0.1,0.9,0.2,1.8,0.3,2.8c0.1,1,0.1,1.9,0.2,2.8
			c0,0.9,0.1,1.6,0.1,2c0,0.7-0.1,1.3-0.3,1.9c-0.2,0.6-0.3,1.2-0.3,1.8c0,0.7,0.1,1.3,0.3,2c0.2,0.6,0.3,1.3,0.4,2
			c0,0.4,0,0.9,0.1,1.3s0,0.9,0,1.3c0,0.6,0,1.3,0,1.9s0,1.3,0,2c0,0.9,0,1.8,0.1,2.7c0.1,0.9,0.2,1.8,0.3,2.7
			c0.1,0,0.2,0.1,0.3,0.1c0.1,0,0.2,0,0.3,0c0.5,0,0.9-0.1,1.2-0.4c0.3-0.3,0.6-0.6,0.9-0.9c0.3-0.3,0.6-0.7,0.9-1
			c0.3-0.4,0.7-0.6,1.1-0.8c0.6-0.2,1.1-0.6,1.5-1.1c0.4-0.5,0.8-1,1.2-1.5s0.8-1,1.2-1.4c0.4-0.5,0.9-0.8,1.5-1
			c0.6-0.2,0.9-0.7,0.9-1.3c0-0.4-0.1-0.7-0.2-1.1c-0.1-0.4-0.2-0.7-0.4-1c-0.1-0.3-0.3-0.7-0.4-1c-0.1-0.4-0.2-0.7-0.2-1.1l0-0.4
			l0.3,0h0.1c0.1,0,0.2,0,0.3,0c0.1,0,0.2-0.1,0.2-0.2c-0.1-0.2-0.2-0.4-0.2-0.7c0-0.3,0.1-0.6,0.2-0.7c0.2-0.1,0.4-0.1,0.7-0.1
			c0.6,0,1.1,0.1,1.6,0.3c0.5,0.2,1.1,0.3,1.6,0.3c0.4,0,0.8-0.1,1.2-0.2c0.4-0.1,0.7-0.2,1.1-0.4c0.4-0.1,0.7-0.3,1.1-0.4
			c0.4-0.1,0.7-0.2,1.2-0.2c0.7,0,1.3,0.1,2,0.3c0.7,0.2,1.3,0.3,2,0.3c0.7,0,1.4-0.1,2.1-0.3c0.7-0.2,1.4-0.3,2.1-0.3
			c0.1,0,0.3,0,0.5,0.1s0.4,0.2,0.7,0.3c0.2,0.1,0.4,0.3,0.6,0.4s0.2,0.3,0.2,0.4c-0.1,0.2-0.2,0.3-0.3,0.3
			c-0.2,0.1-0.2,0.1-0.2,0.2c0,0.1,0.1,0.3,0.2,0.4c0.1,0.2,0.3,0.3,0.4,0.5c0.2,0.2,0.3,0.4,0.4,0.6c0.1,0.2,0.2,0.4,0.2,0.6
			c0,0.3-0.3,0.6-0.9,0.9s-1.3,0.6-2.1,0.8c-0.8,0.2-1.6,0.4-2.3,0.5c-0.8,0.1-1.3,0.2-1.6,0.2c-0.5,0-0.9-0.1-1.2-0.3
			c-0.3-0.2-0.5-0.3-0.8-0.3c-0.4,0-0.9,0.2-1.5,0.5c-0.6,0.3-1.3,0.7-2,1.2c-0.7,0.5-1.4,1-2.2,1.7c-0.7,0.6-1.4,1.2-2,1.8
			s-1.1,1.2-1.5,1.8c-0.4,0.6-0.6,1-0.6,1.4c0,0.4-0.1,0.8-0.2,1.1c-0.1,0.4-0.2,0.7-0.2,1.1c0,0.3,0.1,0.6,0.3,0.8
			c0.2,0.2,0.5,0.4,0.8,0.6c0.3,0.2,0.6,0.4,0.9,0.6c0.3,0.2,0.5,0.5,0.7,0.8c0.2,0.5,0.6,1,1,1.7c0.5,0.6,0.9,1.3,1.5,2
			c0.5,0.7,1.1,1.4,1.6,2.1c0.6,0.7,1.1,1.4,1.5,2.1c0.5,0.7,0.8,1.3,1.1,1.9c0.3,0.6,0.4,1.1,0.4,1.6v0.3c1.3-0.3,2.5-0.4,3.7-0.4
			c0.8,0,1.7,0,2.5,0.1c0.8,0.1,1.6,0.2,2.4,0.3v0.3v0.2c0,0.5,0.1,0.9,0.3,1.2c0.2,0.3,0.4,0.6,0.6,0.8c0.2,0.2,0.4,0.5,0.6,0.7
			C230.4,107.8,230.5,108,230.5,108.3z"/>
		<path class="st2" d="M269.8,96.7c0,0.8-0.1,1.5-0.3,2.2c-0.2,0.7-0.4,1.4-0.6,2.1c-0.2,0.7-0.5,1.4-0.7,2.1
			c-0.2,0.7-0.4,1.4-0.5,2.1c-0.2,1.2-0.7,2.2-1.4,3c-0.7,0.8-1.5,1.4-2.5,1.9c-1,0.5-2,0.8-3.2,1.1c-1.2,0.2-2.4,0.4-3.6,0.5
			c-1.2,0.1-2.4,0.2-3.6,0.3s-2.3,0.1-3.3,0.3c-0.4-0.3-0.7-0.6-0.9-0.9c-0.3-0.3-0.5-0.6-0.7-0.9c-0.2-0.3-0.5-0.5-0.8-0.7
			c-0.3-0.2-0.6-0.3-1.1-0.3c-0.2,0-0.3-0.2-0.4-0.6c-0.1-0.4-0.2-0.9-0.2-1.4c-0.1-0.5-0.2-1-0.2-1.4c-0.1-0.4-0.2-0.6-0.4-0.6
			c-0.6,0-1-0.1-1.4-0.4c-0.3-0.2-0.6-0.6-0.8-0.9c-0.2-0.4-0.3-0.8-0.4-1.3s-0.1-0.9-0.1-1.4c0-0.3-0.1-0.7-0.2-1
			c-0.2-0.3-0.3-0.6-0.5-0.9c-0.2-0.3-0.3-0.6-0.5-0.9s-0.2-0.6-0.2-0.9c0-0.4,0-0.8,0.1-1.4c0-0.5,0.1-1.1,0.1-1.7
			c0-0.6,0.1-1.2,0.1-1.7c0-0.6,0.1-1,0.1-1.4c0-0.4,0.1-0.8,0.2-1.1c0.1-0.3,0.2-0.5,0.4-0.8s0.3-0.4,0.4-0.6
			c0.1-0.2,0.2-0.4,0.2-0.6c0-0.3-0.1-0.5-0.2-0.7c-0.1-0.2-0.2-0.4-0.2-0.6c0-0.3,0.1-0.5,0.3-0.8c0.2-0.3,0.3-0.5,0.4-0.8
			c0.3-1.1,0.4-2.1,0.4-3.2c0-0.2,0-0.4,0-0.6c0-0.2,0-0.4-0.1-0.6c-0.6-0.5-1.2-0.8-1.9-0.9c-0.7-0.1-1.4-0.2-2.1-0.3
			c-0.7-0.1-1.4-0.1-2-0.2c-0.7-0.1-1.2-0.4-1.7-0.8c-0.4-0.3-0.7-0.7-1-1.2s-0.7-0.7-1.2-0.9c-0.4-0.1-0.6-0.3-0.9-0.5
			c-0.2-0.2-0.4-0.5-0.4-0.9c0-0.6,0.2-1,0.5-1.3c0.4-0.3,0.8-0.5,1.3-0.7c0.5-0.2,1-0.3,1.6-0.5c0.5-0.1,1-0.3,1.4-0.6
			c0.4-0.3,0.8-0.4,1.4-0.4c0.2,0,0.4,0,0.7,0c0.2,0,0.4,0,0.7,0c0.6,0,1.2-0.1,1.6-0.3c0.4-0.2,0.7-0.5,1-0.8
			c0.2-0.4,0.4-0.8,0.5-1.2c0.1-0.5,0.1-1,0.1-1.5c0-0.8-0.1-1.5-0.2-2.3c-0.1-0.7-0.2-1.5-0.2-2.3c0-0.9,0.1-1.7,0.4-2.5
			c0.3-0.8,0.7-1.5,1.4-2.1c0.2-0.1,0.3-0.3,0.5-0.5c0.2-0.2,0.4-0.4,0.6-0.6c0.2-0.2,0.4-0.3,0.6-0.5c0.2-0.1,0.4-0.2,0.7-0.2
			c0.2,0,0.3,0,0.4,0.1c0.1,0.1,0.2,0.1,0.4,0.2c0.6,0.5,0.9,0.9,1.1,1.2c0.2,0.3,0.2,0.6,0.2,0.9c0,0.2,0,0.4,0,0.6
			c0,0.2,0,0.5,0,0.9c0,0.8,0.1,1.6,0.3,2.3c0.2,0.8,0.3,1.4,0.3,1.9c0,0.5-0.1,0.9-0.3,1.3c-0.2,0.4-0.3,0.9-0.3,1.3
			c0,0.3,0.1,0.7,0.2,0.9s0.4,0.6,0.6,0.8c0.2,0.3,0.4,0.5,0.6,0.8c0.2,0.3,0.3,0.6,0.3,1c0.3,0.2,0.8,0.3,1.7,0.5
			c0.9,0.1,1.9,0.2,2.9,0.3c1.1,0.1,2.2,0.2,3.3,0.2c1.1,0,2,0.1,2.8,0.1c0.7,0,1.2,0,1.5,0.1c0.4,0.1,0.6,0.2,0.9,0.3
			c0.2,0.1,0.5,0.2,0.7,0.3c0.2,0.1,0.5,0.2,0.8,0.2c0.4,0,0.7,0.2,1,0.3c0.3,0.2,0.4,0.5,0.4,0.9c0,0.6-0.2,1-0.5,1.4
			c-0.3,0.3-0.7,0.6-1.2,0.8c-0.5,0.2-1,0.3-1.5,0.3c-0.5,0-1,0.1-1.5,0.1c-0.7,0-1.5,0-2.2-0.1c-0.7,0-1.5-0.1-2.2-0.1
			c-1.2,0-2.3,0.1-3.3,0.3c-1,0.2-1.8,0.6-2.5,1.1c-0.7,0.5-1.3,1.2-1.7,2c-0.4,0.8-0.6,1.9-0.6,3.2c0,1.2,0.1,2.5,0.2,3.7
			c0.2,1.2,0.2,2.4,0.2,3.7c0,1.2,0,2.1,0.1,2.8c0,0.7,0.2,1.3,0.4,1.8c0.3,0.7,0.6,1.5,0.8,2.4c0.2,0.9,0.5,1.8,0.8,2.6
			c0.3,0.8,0.8,1.5,1.3,2c0.6,0.5,1.4,0.8,2.5,0.8c0.4,0,0.9,0,1.5-0.1c0.6-0.1,1.3-0.2,1.9-0.5c0.6-0.2,1.2-0.5,1.6-0.8
			c0.5-0.3,0.7-0.7,0.7-1.2c0-0.4-0.1-0.8-0.4-1.3c-0.3-0.4-0.4-0.9-0.4-1.4c0-0.3,0.1-0.6,0.2-0.9c0.2-0.3,0.4-0.5,0.6-0.7
			c0.3-0.2,0.5-0.4,0.8-0.5c0.3-0.2,0.6-0.3,0.8-0.4c0.5-0.6,1-1,1.6-1.4c0.6-0.4,1.3-0.6,2.1-0.6c0.5,0,1,0.1,1.5,0.3
			s0.9,0.4,1.3,0.7C269.8,95.7,269.8,96.2,269.8,96.7z"/>
		<path class="st2" d="M313.6,93.6c0,0.3-0.1,0.7-0.2,1c-0.1,0.3-0.2,0.6-0.4,0.8s-0.3,0.4-0.4,0.5c-0.1,0.1-0.2,0.2-0.2,0.3
			c0,0.2,0.1,0.5,0.2,0.8s0.2,0.6,0.2,0.9c0,0.1-0.1,0.2-0.2,0.3c-0.1,0-0.2,0.1-0.4,0.1c-0.2,0-0.4,0-0.6-0.1
			c0,0.5,0.1,0.9,0.1,1.4c0.1,0.4,0.1,0.9,0.1,1.4c0,0.7-0.1,1.2-0.2,1.4c-0.1,0.2-0.3,0.3-0.4,0.4c-0.2,0-0.3,0.1-0.4,0.2
			c-0.1,0.1-0.2,0.3-0.2,0.7c0,0.2-0.2,0.5-0.5,0.8c-0.3,0.3-0.7,0.7-1.1,1c-0.4,0.3-0.9,0.6-1.4,0.9c-0.5,0.2-0.8,0.4-1.1,0.4
			c-0.1,0-0.2,0-0.3-0.1c0,0.2,0,0.4,0,0.6c0,0.2,0,0.4,0,0.6c0,0.3-0.1,0.5-0.3,0.6c-0.2,0.1-0.4,0.2-0.7,0.3
			c-0.4,0.2-0.8,0.4-1.2,0.8c-0.4,0.3-0.8,0.7-1.2,1c-0.4,0.3-0.9,0.6-1.3,0.9c-0.4,0.3-0.9,0.4-1.4,0.4c-0.4,0-0.8-0.1-1.1-0.3
			c-0.3-0.2-0.7-0.3-1.2-0.3c-0.4,0-0.7,0.1-1,0.2c-0.3,0.1-0.5,0.2-0.8,0.4c-0.2,0.1-0.5,0.3-0.7,0.4c-0.3,0.1-0.5,0.2-0.9,0.2
			c-0.7,0-1.3-0.2-2-0.5c-0.7-0.3-1.3-0.6-1.9-0.8c-0.4-0.1-0.7-0.2-1.1-0.3c-0.4-0.1-0.8-0.1-1.2-0.2c-0.4-0.1-0.7-0.2-1.1-0.3
			c-0.3-0.2-0.6-0.4-0.9-0.7c-0.5-0.6-1.1-1.2-1.8-1.6c-0.7-0.4-1.4-0.8-2.2-1.2c-0.7-0.4-1.4-0.8-2.1-1.2c-0.7-0.4-1.3-0.9-1.8-1.6
			c-0.4-0.5-0.8-1.1-1.3-1.7c-0.5-0.6-0.9-1.2-1.3-1.9c-0.4-0.7-0.8-1.3-1-2c-0.3-0.7-0.4-1.4-0.4-2c0-0.5,0.1-1,0.2-1.4
			c0.1-0.5,0.2-0.9,0.3-1.4c0.1-0.5,0.2-0.9,0.3-1.4c0.1-0.5,0.2-0.9,0.2-1.4v-0.4c0-0.1,0-0.2-0.1-0.3s-0.2-0.2-0.2-0.3
			c-0.1-0.1-0.2-0.2-0.3-0.3c-0.1-0.1-0.1-0.1-0.2-0.1c-0.1,0-0.1,0-0.1,0c0-0.2,0.1-0.6,0.2-1c0.1-0.5,0.2-0.9,0.4-1.4
			c0.2-0.5,0.3-0.9,0.5-1.3c0.2-0.4,0.3-0.7,0.4-0.8c0.2-0.1,0.3-0.2,0.4-0.4c0.1-0.1,0.2-0.3,0.2-0.5c0-0.2,0-0.4,0-0.6
			c0-0.2,0-0.4,0-0.6c0-0.3,0-0.5,0.1-0.5c0.1-0.1,0.2-0.1,0.3-0.1c0.1,0,0.3,0,0.4-0.1c0.1,0,0.3-0.2,0.4-0.4
			c0.2-0.4,0.4-0.8,0.7-1.2c0.2-0.4,0.4-0.7,0.7-1c0.3-0.3,0.5-0.6,0.9-0.9c0.3-0.3,0.7-0.5,1.2-0.8c0.4-0.2,0.8-0.5,1.2-0.8
			c0.4-0.3,0.8-0.6,1.2-1c0.4-0.3,0.8-0.6,1.2-0.8c0.4-0.2,0.9-0.3,1.3-0.3c0.7,0,1.3-0.1,2-0.3c0.6-0.2,1.3-0.4,1.9-0.5
			c1-0.1,2.1-0.3,3.1-0.4c1-0.1,2.1-0.2,3.1-0.2c0.6,0,1.3,0.1,2.1,0.3c0.8,0.2,1.7,0.4,2.5,0.7c0.9,0.3,1.7,0.6,2.5,1
			c0.8,0.4,1.4,0.7,1.8,1.1v0.1c0,0.3-0.1,0.7-0.2,1c-0.1,0.4-0.2,0.7-0.2,1c0,0,0,0.1,0,0.1c0,0,0,0.1,0.1,0.1
			c0.4,0,0.8-0.1,1.2-0.2c0.4-0.1,0.8-0.2,1.2-0.2c0.1,0.4,0.2,0.7,0.6,0.8c0.3,0.1,0.7,0.3,1,0.4c0.3,0.1,0.6,0.4,0.8,0.8
			c0.3,0.4,0.5,0.8,0.7,1.3c0.2,0.5,0.4,0.9,0.7,1.4c0.2,0.5,0.4,0.8,0.6,1.1c0.2,0.3,0.4,0.6,0.5,1c0.2,0.4,0.3,0.8,0.4,1.3
			c0.1,0.4,0.2,0.9,0.2,1.3c0.1,0.4,0.1,0.8,0.1,1.2c0,0.5-0.1,0.9-0.3,1.2c-0.2,0.3-0.4,0.6-0.6,0.9c-0.2,0.3-0.4,0.5-0.6,0.7
			c-0.2,0.2-0.3,0.5-0.3,0.8c0,0.2,0,0.3,0.1,0.5s0.2,0.3,0.3,0.4c0.1,0,0.2,0,0.3-0.1c0.2,0,0.2-0.1,0.2-0.2v0
			c0-0.2-0.1-0.4-0.2-0.5c-0.2-0.2-0.2-0.4-0.2-0.6c0,0,0-0.1,0.1-0.2c0.1-0.1,0.1-0.2,0.2-0.2c0.2,0,0.3,0.1,0.5,0.3
			c0.2,0.2,0.3,0.4,0.4,0.6s0.2,0.4,0.3,0.5s0.1,0.2,0.1,0.1l0,0c0,0.1,0,0.2,0.1,0.3C313.5,93.4,313.6,93.5,313.6,93.6z
			 M309.8,93.9c0-0.4-0.2-0.6-0.5-0.7s-0.6-0.1-1-0.2s-0.7-0.1-1.1-0.1c-0.4,0-0.6-0.2-0.7-0.5V92c0-0.5-0.1-1.2-0.2-1.9
			c-0.1-0.7-0.3-1.5-0.5-2.2c-0.2-0.7-0.4-1.5-0.6-2.2s-0.4-1.4-0.6-1.9c-0.2-0.6-0.4-1.2-0.7-1.9c-0.2,0-0.4,0.1-0.5,0.1
			c-0.4,0-0.8-0.1-1.1-0.3c-0.3-0.2-0.7-0.4-1.1-0.5c-0.4-0.2-0.9-0.4-1.4-0.5c-0.6-0.2-1.3-0.3-2.2-0.3c-1,0-2.1-0.1-3.1-0.2
			c-1-0.1-2-0.2-3.1-0.2c-1.4,0-2.7,0.3-4,0.9c-1.2,0.6-2.3,1.4-3.2,2.5c-0.9,1-1.7,2.2-2.2,3.4c-0.5,1.3-0.8,2.6-0.8,3.8
			c0,0.5,0,1.2,0,1.9c0,0.7,0.1,1.4,0.2,2.2c0.1,0.7,0.3,1.4,0.5,2c0.2,0.6,0.5,1.1,0.9,1.4v1c0.1,0.1,0.2,0.2,0.4,0.2
			c0.2,0,0.3,0,0.5,0c0.2,0,0.3,0,0.4,0.1c0.1,0,0.2,0.1,0.3,0.3c0.3,0.9,0.8,1.6,1.3,2.1c0.5,0.5,1.1,0.9,1.7,1.2
			c0.6,0.3,1.2,0.7,1.8,1c0.6,0.3,1.2,0.8,1.7,1.4c0.2,0,0.4,0,0.6-0.1s0.4,0,0.6,0c0.8,0,1.6,0.1,2.4,0.2c0.8,0.1,1.5,0.2,2.3,0.2
			c0.8,0,1.6-0.2,2.2-0.6c0.7-0.4,1.2-0.9,1.7-1.6c0.3-0.4,0.6-0.8,0.8-1.1c0.3-0.3,0.5-0.6,0.8-0.8c0.3-0.3,0.6-0.5,0.9-0.7
			c0.3-0.2,0.7-0.5,1.1-0.8c0.2-0.1,0.3-0.2,0.5-0.4s0.4-0.3,0.6-0.5c0.2-0.2,0.4-0.4,0.5-0.5c0.2-0.2,0.2-0.4,0.2-0.5
			c0-0.2,0-0.4-0.1-0.7c-0.1-0.2-0.1-0.4-0.1-0.7c0-0.2,0-0.5,0.1-0.9c0.1-0.3,0.2-0.7,0.4-1c0.2-0.3,0.4-0.6,0.6-0.8
			c0.2-0.2,0.5-0.3,0.9-0.3c0.3,0,0.6,0.1,0.8,0.2c0.3,0.1,0.5,0.3,0.8,0.4C309.8,94.2,309.8,94,309.8,93.9z M292.8,69.5
			c0-0.3,0.2-0.6,0.5-1c0.3-0.4,0.7-0.8,1.2-1.2c0.5-0.4,0.9-0.7,1.4-1.1c0.5-0.3,0.8-0.5,1.1-0.7c1-0.5,1.7-0.9,2.1-1.1
			c0.5-0.2,0.9-0.5,1.2-0.8c0.4-0.3,0.7-0.6,1.2-0.9c0.4-0.4,1.1-0.9,1.9-1.6c0.3-0.3,0.6-0.6,0.8-1c0.2-0.4,0.4-0.7,0.7-0.9
			c0.3-0.2,0.8-0.4,1.3-0.5c0.5-0.1,1-0.2,1.3-0.2c0.4,0,0.7,0.1,1,0.2c0.3,0.2,0.5,0.4,0.7,0.6c0.2,0.2,0.3,0.5,0.4,0.8
			c0.1,0.3,0.1,0.6,0.1,1c0,0.3,0,0.6-0.1,1c-0.1,0.3-0.2,0.7-0.3,1c-0.1,0.3-0.3,0.6-0.5,0.9c-0.2,0.3-0.4,0.5-0.7,0.7
			c-0.3,0.2-0.6,0.3-1,0.4c-0.4,0.1-0.7,0.1-1.1,0.2c-0.4,0-0.7,0.1-1.1,0.1c-0.4,0.1-0.7,0.2-1,0.3c-0.7,0.4-1.3,0.6-1.6,0.8
			c-0.3,0.2-0.6,0.4-0.9,0.5c-0.3,0.2-0.6,0.3-0.9,0.5c-0.3,0.2-0.8,0.5-1.5,0.8c-0.2,0.1-0.3,0.2-0.5,0.4c-0.1,0.2-0.3,0.4-0.5,0.5
			c-0.2,0.1-0.4,0.3-0.7,0.3c-0.3,0.1-0.5,0.2-0.7,0.3c-0.4,0.3-0.7,0.6-0.9,1c-0.3,0.3-0.6,0.5-1.2,0.5c-0.2,0-0.4-0.1-0.7-0.2
			c-0.2-0.1-0.4-0.3-0.6-0.5c-0.2-0.2-0.3-0.4-0.4-0.6C292.9,69.9,292.8,69.7,292.8,69.5z"/>
		<path class="st2" d="M360.4,82.9c0,0.5-0.1,0.9-0.3,1.2c-0.2,0.3-0.4,0.7-0.7,1c-0.2,0.3-0.5,0.6-0.7,0.9
			c-0.2,0.3-0.4,0.7-0.5,1.1c-0.2-0.1-0.5-0.2-0.7-0.2c-0.2,0-0.5,0-0.7,0c-0.6,0-1.2,0-1.8,0.1s-1.2,0.1-1.8,0.1
			c-0.7,0-1.2-0.2-1.7-0.6c-0.4-0.4-0.8-0.9-1.1-1.5c-0.3-0.6-0.4-1.2-0.5-1.9c-0.1-0.7-0.2-1.3-0.2-1.8c0-0.7,0.1-1.4,0.3-2.1
			c-0.2-0.1-0.4-0.1-0.5-0.1c-0.3,0-0.6,0.1-0.7,0.3c-0.1,0.2-0.3,0.3-0.6,0.3c-0.2,0-0.4-0.1-0.6-0.2c-0.2-0.2-0.4-0.2-0.6-0.2
			c-0.4,0-0.8,0.1-1.4,0.3c-0.6,0.2-1.1,0.5-1.6,0.9c-0.5,0.4-1,0.8-1.4,1.2c-0.4,0.4-0.6,0.8-0.6,1.2c-0.5,0-1,0.2-1.5,0.4
			s-0.9,0.5-1.3,0.8c-0.3,0.2-0.6,0.5-0.8,0.9c-0.2,0.4-0.4,0.9-0.6,1.3c-0.2,0.5-0.4,1-0.6,1.4c-0.2,0.5-0.4,0.9-0.7,1.2
			c-0.4,0.5-0.8,1.1-1.1,1.6c-0.3,0.5-0.5,1.2-0.5,1.8c0,0.9,0.1,1.7,0.4,2.6c0.3,0.9,0.4,1.8,0.4,2.7c0,0.6,0,1.2-0.1,1.8
			s-0.1,1.2-0.1,1.7c0,0.7,0.1,1.2,0.4,1.6c0.3,0.4,0.6,0.7,1,1c0.4,0.2,0.9,0.4,1.5,0.5c0.6,0.1,1.1,0.1,1.7,0.1
			c0.6,0,1.2,0,1.8-0.1c0.6,0,1.1-0.1,1.6-0.1c0.2,0.2,0.3,0.4,0.3,0.5c0,0.2,0,0.3,0,0.5c0,0.2-0.1,0.4-0.2,0.5
			c-0.1,0.2-0.1,0.4-0.1,0.6c0,0.1,0,0.2,0.1,0.4c0.4,0,0.7-0.1,1-0.3c0.3-0.2,0.5-0.4,0.6-0.8c0.2,0,0.3,0.1,0.5,0.2
			c0.1,0.1,0.2,0.2,0.2,0.4c0,0.1,0,0.3-0.1,0.4c-0.1,0.1-0.2,0.3-0.3,0.4c-0.1,0.1-0.2,0.3-0.3,0.4c-0.1,0.1-0.1,0.3-0.1,0.5
			c0,0.1,0,0.2,0,0.3c0,0.1,0.1,0.2,0.1,0.3c-0.1,0.2-0.3,0.3-0.5,0.4c-0.2,0.1-0.5,0.1-0.7,0.1c-0.4,0-0.7-0.1-1-0.2
			c-0.3-0.1-0.5-0.3-0.7-0.4c-0.2-0.1-0.4-0.3-0.6-0.4c-0.2-0.1-0.4-0.2-0.6-0.2c-0.1,0-0.3,0-0.5,0.1c-0.2,0-0.4,0.1-0.6,0.2
			c-0.2,0.1-0.4,0.2-0.5,0.3c-0.2,0.1-0.2,0.2-0.2,0.3c0,0.2,0.1,0.4,0.2,0.5c0.1,0.1,0.2,0.3,0.2,0.5c0,0.2-0.1,0.3-0.2,0.4
			c-0.1,0.1-0.3,0.2-0.5,0.2c-0.2,0-0.4,0.1-0.5,0.1c-0.2,0-0.3,0-0.5,0c-1,0-2-0.1-2.9-0.3c-1-0.2-1.9-0.3-2.9-0.3
			c-0.5,0-0.9,0.1-1.4,0.3c-0.5,0.2-0.9,0.3-1.4,0.3c-0.3,0-0.5-0.1-0.6-0.2c-0.1-0.1-0.3-0.2-0.4-0.4c-0.1-0.1-0.2-0.3-0.3-0.4
			c-0.1-0.1-0.3-0.2-0.6-0.2c-0.5,0-1,0-1.4,0.1c-0.5,0.1-0.9,0.2-1.4,0.3c-0.5,0.1-0.9,0.2-1.4,0.3c-0.5,0.1-0.9,0.1-1.4,0.1
			c-0.3,0-0.6,0-0.9-0.1c-0.4-0.1-0.7-0.2-1-0.3c-0.3-0.1-0.6-0.3-0.8-0.5c-0.2-0.2-0.3-0.5-0.3-0.8c0-0.2,0.1-0.5,0.4-0.8
			c0.2-0.3,0.5-0.6,0.8-0.9c0.3-0.3,0.6-0.6,0.9-0.8c0.3-0.2,0.5-0.3,0.7-0.3c0.4,0,0.8,0,1.2,0c0.4,0,0.8,0,1.2,0
			c0.7,0,1.4-0.1,2.1-0.3c0.7-0.2,1.3-0.5,1.9-0.9c0.6-0.4,1-0.9,1.4-1.5c0.4-0.6,0.5-1.2,0.5-2c0-0.3,0-0.6-0.1-0.9
			c-0.1-0.3-0.1-0.6-0.1-0.9c0-0.6,0.1-1.3,0.2-1.9c0.2-0.6,0.2-1.3,0.2-1.9c0-0.9-0.1-1.7-0.3-2.6c-0.2-0.9-0.3-1.8-0.3-2.7
			c0-0.8,0-1.6,0.1-2.4c0-0.8,0.1-1.6,0.1-2.4c0-0.4,0-0.9,0-1.6c0-0.7-0.1-1.4-0.2-2.1c-0.1-0.7-0.4-1.3-0.6-1.9
			c-0.3-0.5-0.7-0.8-1.2-0.8c-0.6,0-1.1,0.1-1.7,0.2c-0.6,0.1-1.1,0.2-1.7,0.2c-0.4,0-0.9,0-1.5-0.1c-0.6-0.1-1.1-0.2-1.7-0.4
			c-0.5-0.2-1-0.4-1.4-0.8c-0.4-0.3-0.6-0.8-0.6-1.4c0-0.6,0.1-1.1,0.3-1.5c0.2-0.4,0.4-0.7,0.7-0.9c0.3-0.2,0.6-0.3,1-0.4
			s0.8-0.1,1.3-0.1c0.4,0,0.8,0,1.2,0c0.4,0,0.8,0,1.2,0c0.8,0,1.6,0,2.4-0.1c0.8-0.1,1.6-0.1,2.4-0.1c0.6,0,1.1,0,1.7,0.1
			c0.6,0,1.1,0.2,1.6,0.3c0.5,0.1,0.8,0.4,1.1,0.8c0.2,0.4,0.4,0.8,0.6,1.2c0.2,0.4,0.4,0.8,0.7,1.1c0.3,0.3,0.7,0.5,1.2,0.5
			c0.3,0,0.5-0.1,0.7-0.2c0.2-0.1,0.4-0.3,0.6-0.5c0.2-0.2,0.4-0.3,0.6-0.5c0.2-0.1,0.4-0.2,0.7-0.3c0.6-0.1,1.1-0.2,1.5-0.5
			c0.5-0.3,0.9-0.5,1.4-0.8c0.5-0.3,0.9-0.5,1.4-0.7c0.5-0.2,1-0.3,1.5-0.3c0.3,0,0.7,0,1.2-0.1c0.5-0.1,1-0.2,1.5-0.3
			c0.5-0.1,1-0.3,1.4-0.5c0.4-0.2,0.8-0.4,1-0.7c0.7,0,1.5,0.2,2.4,0.5c0.9,0.3,1.8,0.6,2.6,1.1c0.8,0.5,1.6,1,2.2,1.6
			c0.6,0.6,1,1.3,1.1,2.1c0.1,0.5,0.2,0.9,0.4,1.3c0.2,0.4,0.4,0.8,0.6,1.2c0.2,0.4,0.4,0.8,0.6,1.2C360.3,82,360.4,82.5,360.4,82.9
			z"/>
		<path class="st2" d="M405.3,108.3c0,0.4-0.1,0.8-0.2,1.2s-0.4,0.7-0.7,1c-0.3,0.3-0.6,0.5-1,0.7s-0.8,0.3-1.2,0.3
			c-0.2,0-0.3,0-0.3-0.1c-0.1,0-0.1-0.1-0.3-0.3c-0.4-0.4-0.8-0.6-1.3-0.6c-0.5-0.1-1-0.1-1.6-0.2c-0.5-0.1-1.1-0.2-1.5-0.4
			c-0.5-0.2-0.9-0.6-1.2-1.3c-0.2-0.4-0.4-0.7-0.6-0.8c-0.2-0.1-0.6-0.2-1.1-0.2c-1.1,0-2.2,0.2-3.2,0.5c-1,0.3-2,0.7-3,1.2
			c-1,0.4-2,0.8-3,1.2c-1,0.3-2.1,0.5-3.2,0.5c-0.6,0-1.2-0.1-1.8-0.2c-0.6-0.1-1.2-0.3-1.7-0.5c-0.1,0.1-0.3,0.2-0.4,0.3
			c-0.2,0-0.3,0.1-0.5,0.1c-0.2,0-0.3,0-0.5,0c-0.2,0-0.3,0-0.4,0c0,0-0.2,0-0.4,0.1c-0.3,0.1-0.4,0.1-0.5,0.2l0.2,0.4
			c-0.2,0.2-0.5,0.4-1,0.6c-0.5,0.2-1.1,0.4-1.7,0.5s-1.2,0.3-1.8,0.4c-0.6,0.1-1,0.1-1.3,0.1c-0.8,0-1.5-0.1-2-0.4
			c-0.5-0.3-1-0.7-1.5-1.3c-0.2-0.2-0.4-0.5-0.7-0.7c-0.3-0.2-0.5-0.5-0.8-0.8c-0.2-0.3-0.4-0.5-0.6-0.8c-0.2-0.3-0.2-0.6-0.2-0.9
			c0-0.4,0.2-0.7,0.6-0.9c0.4-0.2,0.9-0.4,1.4-0.6c0.6-0.2,1.1-0.3,1.7-0.3c0.6-0.1,1-0.1,1.3-0.1c0.6,0,1.2,0.1,1.8,0.2
			c0.6,0.2,1.2,0.2,1.8,0.2c0.6,0,1.1-0.1,1.6-0.2c0.5-0.1,1-0.2,1.6-0.2c0.5,0,0.9,0,1.4,0.1s0.9,0.1,1.4,0.1
			c0.6,0,1.2-0.1,1.8-0.3c0.6-0.2,1.1-0.5,1.6-0.8c0.2-1.2,0.3-2.4,0.4-3.6s0.1-2.4,0.1-3.6c0-1.2-0.1-2.4-0.3-3.6
			c-0.2-1.2-0.3-2.4-0.3-3.6c0-0.1,0-0.2,0.1-0.2c0.1,0,0.1,0,0.2,0c0.1,0,0.1,0,0.2-0.1c0.1,0,0.1-0.1,0.1-0.3c0-0.5-0.1-1-0.2-1.5
			c-0.2-0.5-0.2-1-0.2-1.5c0-0.6,0.1-1.3,0.3-1.9c0.2-0.6,0.3-1.2,0.3-1.9c0-0.4-0.1-0.9-0.3-1.3c-0.2-0.4-0.5-0.8-0.8-1.2
			c-0.3-0.3-0.7-0.6-1.1-0.8c-0.4-0.2-0.9-0.3-1.4-0.3c-0.5,0-1.1,0.1-1.6,0.2c-0.5,0.1-1.1,0.3-1.6,0.4c-0.6,0.2-1.1,0.3-1.7,0.4
			c-0.6,0.1-1.2,0.2-1.8,0.2c-0.7,0-1.4,0-2.2-0.1c-0.7-0.1-1.4-0.2-2.2-0.3c-0.4,0-0.7-0.1-1.2-0.1c-0.4,0-0.9-0.1-1.3-0.3
			c-0.4-0.1-0.7-0.3-1-0.5c-0.3-0.2-0.4-0.6-0.4-1.1c0-0.9,0.2-1.5,0.5-2c0.3-0.5,0.7-0.8,1.2-1s1-0.4,1.6-0.4
			c0.6,0,1.1-0.1,1.7-0.1c1-0.1,1.9-0.1,2.9-0.2c0.9-0.1,1.9-0.1,2.8-0.1c1.2,0,2.3,0.1,3.5,0.2c1.1,0.1,2.3,0.2,3.5,0.2
			c0.8,0,1.6,0.1,2.4,0.4c0.8,0.2,1.4,0.6,2,1.1c0.6,0.5,1,1.1,1.3,1.9c0.3,0.8,0.5,1.6,0.5,2.6c0,0.7-0.1,1.3-0.4,1.9
			c-0.3,0.6-0.7,1.2-1.1,1.7c0.2,0.3,0.4,0.5,0.5,0.6c0.2,0.1,0.3,0.2,0.5,0.3c0.2,0.1,0.3,0.2,0.4,0.3c0.1,0.1,0.2,0.4,0.2,0.8
			c0,0.2,0,0.4,0.1,0.7c0.1,0.3,0.2,0.4,0.5,0.4c0,1.3,0,2.6,0,3.9c0,1.3,0,2.6,0,3.9c0,1.1,0,2.2,0,3.3c0,1.1,0.1,2.2,0.3,3.3
			c0.1,0.7,0.3,1.2,0.6,1.6s0.8,0.5,1.6,0.5c1.1,0,2.3-0.1,3.4-0.3c1.1-0.2,2.2-0.3,3.4-0.3c0.7,0,1.3,0.2,1.9,0.5s1.2,0.7,1.7,1
			c0.5,0.4,1.1,0.7,1.6,1c0.5,0.3,1,0.5,1.4,0.5c0.2,0,0.4,0.1,0.5,0.2c0.1,0.1,0.2,0.3,0.3,0.5c0.1,0.2,0.1,0.4,0.1,0.6
			S405.3,108.1,405.3,108.3z M387,63.7c0,0.7-0.1,1.4-0.4,2.2c-0.2,0.7-0.6,1.4-1,2.1c-0.5,0.6-1,1.1-1.6,1.5
			c-0.6,0.4-1.4,0.6-2.1,0.6c-0.5,0-1.2-0.1-2-0.2c-0.8-0.2-1.5-0.4-2.2-0.7c-0.7-0.3-1.3-0.7-1.8-1.2c-0.5-0.5-0.8-1.1-0.8-1.7
			c0-0.6,0.1-1.2,0.2-1.8c0.1-0.6,0.2-1.3,0.2-1.9c0.3-0.1,0.5-0.3,0.8-0.7c0.3-0.3,0.5-0.6,0.7-1c0.2-0.3,0.5-0.6,0.7-0.9
			c0.2-0.3,0.5-0.4,0.7-0.4l-0.2,0.1c0.4-0.1,0.7-0.3,1.1-0.4c0.4-0.1,0.8-0.1,1.2-0.1c0.5,0,1.2,0.1,1.9,0.4c0.7,0.3,1.5,0.6,2.1,1
			c0.7,0.4,1.3,0.9,1.7,1.5C386.8,62.5,387,63.1,387,63.7z"/>
		<path class="st2" d="M448.7,103.3c0,0.4-0.1,0.8-0.2,1.2c-0.2,0.4-0.3,0.7-0.4,1.1c-0.1,0.3-0.2,0.6-0.2,0.8
			c0,0.2-0.1,0.4-0.2,0.6s-0.2,0.3-0.4,0.4c-0.2,0.1-0.4,0.3-0.8,0.5c-0.8,0.4-1.6,0.8-2.4,1.2c-0.8,0.4-1.7,0.6-2.5,0.6
			c-0.7,0-1.4-0.2-2.1-0.5c-0.6-0.3-1.2-0.7-1.8-1.1c-0.5-0.4-1-0.8-1.5-1.1c-0.4-0.3-0.8-0.5-1.1-0.5c-0.3,0-0.6,0.1-0.8,0.3
			c-0.2,0.2-0.5,0.4-0.7,0.5c-0.2,0.2-0.5,0.4-0.8,0.5s-0.6,0.3-1.1,0.3c-0.4,0-0.7,0.1-1.1,0.2s-0.8,0.3-1.1,0.4s-0.8,0.3-1.2,0.5
			c-0.4,0.2-0.7,0.3-1.1,0.4c-1.1,0.3-2.3,0.5-3.4,0.5c-1.1,0-2.3,0.1-3.5,0.1c-0.3,0-0.8,0-1.4,0c-0.6,0-1.3-0.1-1.9-0.2
			c-0.6-0.1-1.2-0.3-1.7-0.5c-0.5-0.2-0.7-0.6-0.7-1c0-0.1,0-0.2,0-0.3c-0.2,0.2-0.4,0.4-0.6,0.5s-0.5,0.2-0.8,0.2
			c-0.4,0-0.9-0.3-1.5-0.8c-0.6-0.5-1.1-1.2-1.7-1.9c-0.5-0.7-1-1.4-1.4-2.1c-0.4-0.7-0.6-1.2-0.6-1.6c0-0.3,0.1-0.5,0.2-0.7
			c0.2-0.2,0.2-0.5,0.2-0.7c0-0.3,0-0.7-0.1-1c-0.1-0.3-0.1-0.6-0.1-1c0-0.4,0.1-0.9,0.3-1.4c0.2-0.5,0.4-1,0.6-1.5
			c0.3-0.5,0.5-1,0.8-1.5c0.3-0.5,0.5-0.9,0.8-1.3c0.3-0.5,0.6-0.9,1.1-1.2s0.9-0.5,1.4-0.8c0.5-0.2,1-0.4,1.5-0.7
			c0.5-0.2,0.9-0.5,1.3-0.9c0.4,0.4,0.9,0.6,1.5,0.6c0.6,0,1.2-0.1,1.8-0.3c0.6-0.2,1.2-0.3,1.8-0.3c0.5,0,1,0,1.5,0.1
			s0.9,0.1,1.5,0.1c0.6,0,1-0.1,1.2-0.2c0.3-0.1,0.6-0.4,1-0.7c0.4-0.3,0.9-0.6,1.5-0.8c0.6-0.2,1.3-0.3,1.9-0.4
			c0.7-0.1,1.3-0.2,2-0.3c0.7-0.1,1.3-0.3,1.8-0.5c0.5-0.2,1-0.5,1.3-1c0.3-0.4,0.5-1,0.5-1.7c0-0.8-0.2-1.6-0.7-2.5
			s-1.1-1.7-1.8-2.4c-0.7-0.7-1.5-1.3-2.4-1.8c-0.9-0.5-1.7-0.7-2.5-0.7c-0.1,0-0.2,0-0.3,0c-0.1,0-0.2,0-0.3,0
			c-0.6,0.1-1.3,0.2-2,0.2c-0.8,0-1.5,0.1-2.1,0.3c-0.7,0.2-1.2,0.5-1.7,0.9c-0.5,0.4-0.7,1.1-0.7,1.9c0,0.5,0,1,0.1,1.4
			c0.1,0.5,0.1,1,0.1,1.4c0,0.7-0.2,1.3-0.5,1.8c-0.4,0.5-0.8,0.9-1.4,1.2c-0.6,0.3-1.2,0.5-1.9,0.6c-0.7,0.1-1.3,0.2-2,0.2
			c-0.8,0-1.4-0.1-2-0.3c-0.6-0.2-1-0.6-1.4-1.4c-0.3-0.5-0.6-1.1-0.9-1.7c-0.3-0.6-0.5-1.2-0.5-1.8c0-0.7,0.1-1.3,0.4-1.8
			s0.5-1.1,0.8-1.7c0.3-0.5,0.6-1.1,0.9-1.6c0.3-0.5,0.5-1.1,0.6-1.8c0.2-0.1,0.4-0.2,0.7-0.3c0.3-0.1,0.7-0.2,1-0.3
			c0.4-0.1,0.7-0.2,1.1-0.3c0.3-0.1,0.6-0.2,0.8-0.2c0.6-0.2,1.2-0.4,1.8-0.6c0.6-0.2,1.1-0.4,1.7-0.6c0.6-0.2,1.2-0.4,1.8-0.5
			s1.2-0.2,1.8-0.3l1.2,0c1.1,0,2.2,0.1,3.3,0.3c1.1,0.2,2.2,0.5,3.3,0.9c1.1,0.4,2.1,0.9,3.1,1.4c1,0.6,1.8,1.3,2.6,2
			c0.6,0.6,1,1.3,1.4,2.1c0.4,0.8,0.7,1.6,0.9,2.5c0.2,0.9,0.4,1.8,0.5,2.7c0.1,0.9,0.1,1.7,0.1,2.5c0,1,0,2-0.1,3
			c-0.1,1-0.1,2-0.1,3c0,1,0.1,1.9,0.2,2.9c0.1,1,0.2,1.9,0.4,2.9c0.2,1,0.3,1.9,0.4,2.9c0.1,1,0.2,1.9,0.2,2.9
			c0.1,0.6,0.1,0.9,0.2,1.1c0.1,0.1,0.2,0.2,0.4,0.2c0.6,0,1-0.2,1.3-0.5c0.3-0.3,0.6-0.7,0.9-1.1c0.3-0.4,0.6-0.8,0.9-1.1
			c0.3-0.3,0.7-0.5,1.2-0.5c0.2,0,0.5,0,0.7,0c0.2,0,0.5,0.1,0.7,0.2c0.2,0.1,0.4,0.2,0.5,0.4C448.7,102.8,448.7,103,448.7,103.3z
			 M436.3,94.1c0-0.1,0-0.4,0-0.8c0-0.4,0-0.7-0.1-1.1c-0.1-0.4-0.1-0.7-0.2-1c-0.1-0.3-0.3-0.4-0.5-0.4c-0.1,0-0.1,0-0.2,0.1
			c-0.1,0-0.1,0.1-0.2,0.1c-1,0.5-1.8,0.9-2.5,1.3c-0.7,0.3-1.4,0.6-2,0.8s-1.4,0.3-2.1,0.4s-1.7,0.1-2.8,0.1
			c-0.2,0-0.6,0.1-1.2,0.2s-1.4,0.3-2.2,0.4c-0.8,0.2-1.6,0.3-2.3,0.5c-0.7,0.2-1.1,0.3-1.3,0.3c-0.3,0.1-0.6,0.2-0.7,0.4
			c-0.1,0.1-0.2,0.3-0.3,0.4c-0.1,0.1-0.2,0.3-0.2,0.5s-0.2,0.3-0.4,0.5c-0.3,0.2-0.5,0.4-0.8,0.5s-0.6,0.3-0.8,0.5
			c-0.4,0.4-0.7,0.8-1.1,1.4c-0.3,0.6-0.5,1.2-0.5,1.7c0,0.7,0.2,1.2,0.5,1.8c0.4,0.5,0.8,1,1.4,1.3c0.6,0.4,1.2,0.7,2,1
			c0.7,0.3,1.5,0.5,2.2,0.6c0.7,0.1,1.5,0.3,2.2,0.3c0.7,0.1,1.3,0.1,1.8,0.1c0.6,0,1.3,0,2.2-0.1c0.8-0.1,1.7-0.2,2.5-0.4
			c0.8-0.2,1.6-0.4,2.3-0.8c0.7-0.3,1.3-0.7,1.7-1.2c0.2-0.2,0.3-0.4,0.4-0.5c0.1-0.2,0.2-0.3,0.2-0.5c0.1-0.2,0.2-0.3,0.3-0.5
			c0.1-0.2,0.3-0.4,0.5-0.5c0.6-0.5,1-1,1.3-1.5c0.3-0.6,0.5-1.1,0.7-1.8c0.2-0.6,0.2-1.2,0.3-1.9C436.3,95.5,436.3,94.8,436.3,94.1
			z"/>
		<path class="st2" d="M516.9,108c0,0.2-0.3,0.4-0.8,0.6c-0.6,0.1-1.3,0.3-2.1,0.3c-0.8,0.1-1.7,0.1-2.6,0.1c-0.9,0-1.7,0-2.5,0
			h-1.8c-0.7,0-1.4,0-2.1,0.1c-0.7,0-1.4,0.1-2.1,0.1c-0.2,0-0.5,0-0.9,0s-0.8-0.1-1.1-0.2s-0.7-0.2-0.9-0.4
			c-0.3-0.2-0.4-0.4-0.4-0.8c0,0,0.1-0.3,0.2-0.7s0.3-0.9,0.6-1.4c0.3-0.5,0.6-1,1-1.4c0.4-0.4,0.8-0.6,1.3-0.6c0.3,0,0.5,0,0.8,0.1
			c0.1-0.3,0.1-0.7,0.1-1c0-0.7-0.1-1.4-0.4-1.9c-0.3-0.6-0.6-1.2-1-1.7c-0.4-0.6-0.7-1.1-1.1-1.7c-0.4-0.6-0.6-1.2-0.7-1.9
			c-0.1-0.4-0.2-0.7-0.4-1c-0.2-0.3-0.4-0.6-0.6-0.8c-0.2-0.3-0.4-0.5-0.6-0.8c-0.2-0.3-0.3-0.6-0.4-1.1c-0.1-0.3-0.1-0.6-0.2-0.7
			c-0.1-0.2-0.1-0.3-0.2-0.4c-0.1-0.1-0.2-0.2-0.4-0.3c-0.2-0.1-0.4-0.2-0.6-0.4c-0.3-0.1-0.4-0.3-0.5-0.5c-0.1-0.2-0.2-0.4-0.2-0.6
			c0-0.2-0.1-0.4-0.1-0.7c0-0.2-0.1-0.5-0.2-0.7c-0.2-0.1-0.4-0.2-0.5-0.3c-0.2-0.1-0.3-0.2-0.5-0.3c-0.2-0.3-0.3-0.7-0.4-1.2
			c-0.1-0.4-0.3-0.8-0.5-1.2c-0.2-0.4-0.4-0.7-0.7-1c-0.3-0.3-0.7-0.4-1.2-0.4c-0.3,0-0.7,0.1-1,0.4c-0.3,0.3-0.7,0.6-1.1,1
			c-0.4,0.4-0.7,0.8-1.1,1.2c-0.4,0.4-0.7,0.8-1.1,1.1c0,0.1,0,0.2,0,0.3c0,0.1,0,0.2,0,0.3c0,0.3,0,0.6,0,0.9c0,0.3,0,0.6,0,0.9
			c0,0.4-0.1,0.8-0.2,1.1c-0.1,0.3-0.2,0.6-0.4,0.9c-0.2,0.3-0.3,0.6-0.4,0.8c-0.1,0.3-0.2,0.6-0.2,1c0,0.8,0.1,1.6,0.3,2.3
			c0.2,0.8,0.3,1.6,0.3,2.3c0,0.4,0,0.8-0.1,1.2c0,0.4-0.1,0.8-0.1,1.2c0,0.9,0.2,1.6,0.5,2c0.3,0.5,0.7,0.8,1.2,1.1
			c0.5,0.3,1,0.5,1.6,0.6c0.6,0.1,1.1,0.2,1.6,0.3c0.5,0.1,0.9,0.3,1.2,0.4c0.3,0.2,0.5,0.5,0.5,0.9c0,0.3-0.1,0.7-0.2,1
			c-0.2,0.4-0.4,0.7-0.7,1c-0.3,0.3-0.6,0.6-0.9,0.8c-0.3,0.2-0.7,0.4-1,0.4c-0.2,0-0.3,0-0.5,0s-0.3,0-0.5,0c-0.4,0-0.8,0-1.1-0.1
			c-0.4-0.1-0.8-0.1-1.2-0.1c-0.3,0-0.6,0-1,0.1c-0.3,0.1-0.6,0.2-1,0.3c-0.8,0.2-1.6,0.3-2.5,0.5s-1.6,0.2-2.5,0.2
			c-0.3,0-0.7-0.1-1.2-0.3c-0.5-0.2-0.9-0.5-1.3-0.8c-0.4-0.3-0.8-0.7-1.1-1.1c-0.3-0.4-0.4-0.8-0.4-1.3c0-0.7,0.2-1.2,0.7-1.7
			c0.5-0.5,1-0.8,1.6-1c0.2-0.4,0.5-0.6,0.8-0.7c0.3-0.1,0.6-0.1,0.9-0.2c0.3,0,0.5-0.1,0.8-0.3c0.2-0.2,0.4-0.5,0.4-1.1
			c0.1-0.5,0.2-0.9,0.4-1.3c0.2-0.4,0.4-0.8,0.4-1.3l0-0.2c-0.2-1.7-0.4-3.4-0.5-5.1c-0.2-1.7-0.3-3.4-0.3-5.1c0-1.6,0-3.2,0.1-4.9
			c0.1-1.6,0.2-3.2,0.4-4.9c0.1-0.3,0.1-0.7,0.2-1c0.1-0.4,0.1-0.7,0.1-1.1c0-0.4-0.1-0.8-0.3-1.1c-0.2-0.3-0.3-0.7-0.3-1.1
			c0-0.5,0-1,0.1-1.4c0.1-0.5,0.1-0.9,0.1-1.4c0-0.3,0-0.7-0.1-1c-0.1-0.3-0.1-0.6-0.1-1c0-0.5,0-0.9,0-1.4c0-0.5,0-0.9,0-1.3
			c0-1-0.1-1.7-0.2-2.3c-0.1-0.6-0.3-1-0.7-1.3c-0.3-0.3-0.8-0.5-1.4-0.5c-0.6-0.1-1.4-0.1-2.4-0.1c-0.4,0-0.8,0-1.2,0
			c-0.4,0-0.8-0.1-1.1-0.3c-0.3-0.1-0.6-0.4-0.8-0.6c-0.2-0.3-0.3-0.7-0.3-1.2s0.1-1,0.4-1.6c0.2-0.5,0.6-0.9,1-1.3
			c0.3-0.2,0.8-0.5,1.5-0.6c0.7-0.2,1.5-0.3,2.4-0.5c0.9-0.1,1.8-0.2,2.8-0.3c1-0.1,2-0.1,2.9-0.1c0.9,0,1.8-0.1,2.6-0.1
			c0.8,0,1.4,0,1.9,0c0.8,0,1.5,0,2.1,0.1c0.5,0.1,1,0.3,1.3,0.6c0.3,0.3,0.6,0.7,0.7,1.2c0.1,0.5,0.2,1.2,0.2,2
			c0,0.9-0.2,1.6-0.6,2.2c-0.4,0.6-1.1,0.9-2.1,0.9c-0.3,0-0.6,0-0.8-0.1c-0.3,0-0.6-0.1-0.8-0.1c-0.4,0-0.8,0.1-1.1,0.4
			s-0.7,0.6-1,1s-0.5,0.7-0.7,1.1c-0.2,0.3-0.3,0.6-0.3,0.7c0,0.4,0.1,0.8,0.2,1.2c0.2,0.4,0.2,0.8,0.2,1.2c0,0.5-0.1,1-0.2,1.4
			c-0.2,0.4-0.2,0.9-0.2,1.4c0,0.2,0,0.4,0,0.5c0,0.2,0.1,0.3,0.1,0.5c0,0.2,0.1,0.5,0.1,1c0,0.4,0.1,0.9,0.1,1.5
			c0,0.5,0.1,1.1,0.1,1.7c0.1,0.6,0.1,1.1,0.2,1.6c0.1,0.5,0.2,0.9,0.4,1.2c0.2,0.3,0.4,0.5,0.7,0.5c0.4,0,0.9-0.3,1.4-1
			c0.5-0.6,1.1-1.4,1.6-2.2c0.5-0.8,1-1.7,1.4-2.5c0.4-0.8,0.6-1.4,0.7-1.8c0.5-0.2,1-0.5,1.4-0.8c0.4-0.3,0.8-0.7,1.2-1
			c0.3-0.2,0.6-0.6,1.2-1.2c0.5-0.6,1-1.2,1.6-1.8c0.5-0.6,1-1.2,1.4-1.8s0.6-1,0.6-1.4c0-0.4-0.1-0.8-0.3-1.2
			c-0.2-0.4-0.4-0.9-0.6-1.3c-0.2-0.5-0.4-0.9-0.6-1.4c-0.2-0.5-0.3-1-0.3-1.5c0-0.4,0.3-0.8,0.8-1.1c0.6-0.3,1.2-0.5,2-0.6
			s1.5-0.3,2.3-0.3c0.8-0.1,1.4-0.1,1.8-0.1c1.9,0,3.8,0.2,5.6,0.7c1.9,0.5,3.6,1.1,5.3,1.8c-0.3,0.8-0.6,1.4-1,1.7
			c-0.4,0.4-0.8,0.6-1.3,0.8c-0.5,0.2-0.9,0.3-1.5,0.3c-0.5,0-1.1,0.1-1.6,0.2c-0.6,0.1-1.1,0.2-1.7,0.5c-0.6,0.2-1.1,0.6-1.6,1.1
			c-0.4,0.4-0.8,0.8-1.1,1.3c-0.4,0.4-0.7,0.9-1.1,1.3c-0.4,0.4-0.7,0.8-1.2,1.2c-0.4,0.4-0.9,0.7-1.4,1v0.2c0,0.9-0.2,1.7-0.7,2.3
			c-0.5,0.7-1,1.4-1.6,2.1c-0.6,0.7-1.1,1.5-1.6,2.3c-0.5,0.8-0.7,1.8-0.7,3c0,0.6,0.1,1.2,0.2,1.9c0.1,0.7,0.3,1.4,0.6,2
			c0.3,0.6,0.6,1.2,1.1,1.7s1,0.9,1.6,1.1c0,0.1,0,0.4,0.1,0.8c0.1,0.4,0.1,0.9,0.2,1.4c0.1,0.5,0.2,1,0.3,1.5
			c0.1,0.5,0.3,0.8,0.5,1c0.2,0.2,0.2,0.3,0.3,0.4c0,0.1,0.1,0.2,0.1,0.3c0,0.1,0,0.2,0,0.3c0,0.1,0.1,0.3,0.1,0.4
			c0.2,0.1,0.4,0.2,0.5,0.3c0.2,0.1,0.4,0.2,0.6,0.3V94c0.1,0.2,0.2,0.4,0.3,0.4c0.1,0,0.3,0.1,0.5,0.1c0.2,0,0.3,0.2,0.4,0.5
			c0.1,0.3,0.2,0.7,0.3,1.2c0.1,0.5,0.2,0.9,0.3,1.4c0.1,0.5,0.3,0.9,0.5,1.2c0.3,0.4,0.5,0.9,0.7,1.3c0.2,0.5,0.4,0.9,0.6,1.4
			c0.2,0.5,0.4,0.9,0.6,1.3c0.2,0.4,0.5,0.8,0.8,1.2c0.5,0.5,1.1,0.9,1.8,1.2c0.7,0.3,1.4,0.5,2.1,0.6c0.2,0,0.5,0.2,0.9,0.3
			c0.4,0.2,0.9,0.3,1.3,0.6c0.4,0.2,0.8,0.5,1.2,0.7C516.7,107.6,516.9,107.8,516.9,108z"/>
		<path class="st2" d="M556.6,93.6c0,0.3-0.1,0.7-0.2,1c-0.1,0.3-0.2,0.6-0.4,0.8c-0.1,0.2-0.3,0.4-0.4,0.5
			c-0.1,0.1-0.2,0.2-0.2,0.3c0,0.2,0.1,0.5,0.2,0.8s0.2,0.6,0.2,0.9c0,0.1-0.1,0.2-0.2,0.3c-0.1,0-0.2,0.1-0.4,0.1
			c-0.2,0-0.4,0-0.6-0.1c0,0.5,0.1,0.9,0.1,1.4c0.1,0.4,0.1,0.9,0.1,1.4c0,0.7-0.1,1.2-0.2,1.4c-0.1,0.2-0.3,0.3-0.4,0.4
			c-0.2,0-0.3,0.1-0.4,0.2c-0.1,0.1-0.2,0.3-0.2,0.7c0,0.2-0.2,0.5-0.5,0.8c-0.3,0.3-0.7,0.7-1.1,1c-0.4,0.3-0.9,0.6-1.4,0.9
			c-0.5,0.2-0.8,0.4-1.1,0.4c-0.1,0-0.2,0-0.3-0.1c0,0.2,0,0.4,0,0.6c0,0.2,0,0.4,0,0.6c0,0.3-0.1,0.5-0.3,0.6
			c-0.2,0.1-0.4,0.2-0.7,0.3c-0.4,0.2-0.8,0.4-1.2,0.8c-0.4,0.3-0.8,0.7-1.2,1c-0.4,0.3-0.9,0.6-1.3,0.9c-0.4,0.3-0.9,0.4-1.4,0.4
			c-0.4,0-0.8-0.1-1.1-0.3c-0.3-0.2-0.7-0.3-1.2-0.3c-0.4,0-0.7,0.1-1,0.2c-0.3,0.1-0.5,0.2-0.8,0.4c-0.2,0.1-0.5,0.3-0.7,0.4
			c-0.3,0.1-0.5,0.2-0.9,0.2c-0.7,0-1.3-0.2-2-0.5c-0.7-0.3-1.3-0.6-1.9-0.8c-0.4-0.1-0.7-0.2-1.1-0.3c-0.4-0.1-0.8-0.1-1.2-0.2
			c-0.4-0.1-0.7-0.2-1.1-0.3c-0.3-0.2-0.6-0.4-0.9-0.7c-0.5-0.6-1.1-1.2-1.8-1.6c-0.7-0.4-1.4-0.8-2.2-1.2c-0.7-0.4-1.4-0.8-2.1-1.2
			c-0.7-0.4-1.3-0.9-1.8-1.6c-0.4-0.5-0.8-1.1-1.3-1.7c-0.5-0.6-0.9-1.2-1.3-1.9c-0.4-0.7-0.8-1.3-1-2c-0.3-0.7-0.4-1.4-0.4-2
			c0-0.5,0.1-1,0.2-1.4c0.1-0.5,0.2-0.9,0.3-1.4c0.1-0.5,0.2-0.9,0.3-1.4c0.1-0.5,0.2-0.9,0.2-1.4v-0.4c0-0.1,0-0.2-0.1-0.3
			s-0.2-0.2-0.2-0.3c-0.1-0.1-0.2-0.2-0.3-0.3c-0.1-0.1-0.1-0.1-0.2-0.1c-0.1,0-0.1,0-0.1,0c0-0.2,0.1-0.6,0.2-1
			c0.1-0.5,0.2-0.9,0.4-1.4c0.2-0.5,0.3-0.9,0.5-1.3c0.2-0.4,0.3-0.7,0.4-0.8c0.2-0.1,0.3-0.2,0.4-0.4c0.1-0.1,0.2-0.3,0.2-0.5
			c0-0.2,0-0.4,0-0.6c0-0.2,0-0.4,0-0.6c0-0.3,0-0.5,0.1-0.5c0.1-0.1,0.2-0.1,0.3-0.1c0.1,0,0.3,0,0.4-0.1c0.1,0,0.3-0.2,0.4-0.4
			c0.2-0.4,0.4-0.8,0.7-1.2c0.2-0.4,0.4-0.7,0.7-1c0.3-0.3,0.5-0.6,0.9-0.9c0.3-0.3,0.7-0.5,1.2-0.8c0.4-0.2,0.8-0.5,1.2-0.8
			c0.4-0.3,0.8-0.6,1.2-1c0.4-0.3,0.8-0.6,1.2-0.8c0.4-0.2,0.9-0.3,1.3-0.3c0.7,0,1.3-0.1,2-0.3c0.6-0.2,1.3-0.4,1.9-0.5
			c1-0.1,2.1-0.3,3.1-0.4c1-0.1,2.1-0.2,3.1-0.2c0.6,0,1.3,0.1,2.1,0.3c0.8,0.2,1.7,0.4,2.5,0.7c0.9,0.3,1.7,0.6,2.5,1
			c0.8,0.4,1.4,0.7,1.8,1.1v0.1c0,0.3-0.1,0.7-0.2,1c-0.1,0.4-0.2,0.7-0.2,1c0,0,0,0.1,0,0.1c0,0,0,0.1,0.1,0.1
			c0.4,0,0.8-0.1,1.2-0.2c0.4-0.1,0.8-0.2,1.2-0.2c0.1,0.4,0.2,0.7,0.6,0.8c0.3,0.1,0.7,0.3,1,0.4c0.3,0.1,0.6,0.4,0.8,0.8
			c0.3,0.4,0.5,0.8,0.7,1.3c0.2,0.5,0.4,0.9,0.7,1.4c0.2,0.5,0.4,0.8,0.6,1.1c0.2,0.3,0.4,0.6,0.5,1c0.2,0.4,0.3,0.8,0.4,1.3
			c0.1,0.4,0.2,0.9,0.2,1.3c0.1,0.4,0.1,0.8,0.1,1.2c0,0.5-0.1,0.9-0.3,1.2c-0.2,0.3-0.4,0.6-0.6,0.9c-0.2,0.3-0.4,0.5-0.6,0.7
			c-0.2,0.2-0.3,0.5-0.3,0.8c0,0.2,0,0.3,0.1,0.5s0.2,0.3,0.3,0.4c0.1,0,0.2,0,0.3-0.1c0.2,0,0.2-0.1,0.2-0.2v0
			c0-0.2-0.1-0.4-0.2-0.5s-0.2-0.4-0.2-0.6c0,0,0-0.1,0.1-0.2c0.1-0.1,0.1-0.2,0.2-0.2c0.2,0,0.3,0.1,0.5,0.3
			c0.2,0.2,0.3,0.4,0.4,0.6c0.1,0.2,0.2,0.4,0.3,0.5s0.1,0.2,0.1,0.1l0,0c0,0.1,0,0.2,0.1,0.3C556.6,93.4,556.6,93.5,556.6,93.6z
			 M552.8,93.9c0-0.4-0.2-0.6-0.5-0.7c-0.3-0.1-0.6-0.1-1-0.2c-0.4,0-0.7-0.1-1.1-0.1c-0.4,0-0.6-0.2-0.7-0.5V92
			c0-0.5-0.1-1.2-0.2-1.9c-0.1-0.7-0.3-1.5-0.5-2.2c-0.2-0.7-0.4-1.5-0.6-2.2c-0.2-0.7-0.4-1.4-0.6-1.9c-0.2-0.6-0.4-1.2-0.7-1.9
			c-0.2,0-0.4,0.1-0.5,0.1c-0.4,0-0.8-0.1-1.1-0.3c-0.3-0.2-0.7-0.4-1.1-0.5c-0.4-0.2-0.9-0.4-1.4-0.5c-0.6-0.2-1.3-0.3-2.2-0.3
			c-1,0-2.1-0.1-3.1-0.2c-1-0.1-2-0.2-3.1-0.2c-1.4,0-2.7,0.3-4,0.9c-1.2,0.6-2.3,1.4-3.2,2.5c-0.9,1-1.7,2.2-2.2,3.4
			c-0.5,1.3-0.8,2.6-0.8,3.8c0,0.5,0,1.2,0,1.9c0,0.7,0.1,1.4,0.2,2.2c0.1,0.7,0.3,1.4,0.5,2c0.2,0.6,0.5,1.1,0.9,1.4v1
			c0.1,0.1,0.2,0.2,0.4,0.2c0.2,0,0.3,0,0.5,0c0.2,0,0.3,0,0.4,0.1c0.1,0,0.2,0.1,0.3,0.3c0.3,0.9,0.8,1.6,1.3,2.1
			c0.5,0.5,1.1,0.9,1.7,1.2c0.6,0.3,1.2,0.7,1.8,1c0.6,0.3,1.2,0.8,1.7,1.4c0.2,0,0.4,0,0.6-0.1c0.2,0,0.4,0,0.6,0
			c0.8,0,1.6,0.1,2.4,0.2c0.8,0.1,1.5,0.2,2.3,0.2c0.8,0,1.6-0.2,2.2-0.6c0.7-0.4,1.2-0.9,1.7-1.6c0.3-0.4,0.6-0.8,0.8-1.1
			c0.3-0.3,0.5-0.6,0.8-0.8c0.3-0.3,0.6-0.5,0.9-0.7c0.3-0.2,0.7-0.5,1.1-0.8c0.2-0.1,0.3-0.2,0.5-0.4c0.2-0.1,0.4-0.3,0.6-0.5
			c0.2-0.2,0.4-0.4,0.5-0.5c0.2-0.2,0.2-0.4,0.2-0.5c0-0.2,0-0.4-0.1-0.7c-0.1-0.2-0.1-0.4-0.1-0.7c0-0.2,0-0.5,0.1-0.9
			c0.1-0.3,0.2-0.7,0.4-1c0.2-0.3,0.4-0.6,0.6-0.8c0.2-0.2,0.5-0.3,0.9-0.3c0.3,0,0.6,0.1,0.8,0.2c0.3,0.1,0.5,0.3,0.8,0.4
			C552.8,94.2,552.8,94,552.8,93.9z M535.8,69.5c0-0.3,0.2-0.6,0.5-1c0.3-0.4,0.7-0.8,1.2-1.2c0.5-0.4,0.9-0.7,1.4-1.1
			c0.5-0.3,0.8-0.5,1.1-0.7c1-0.5,1.7-0.9,2.1-1.1c0.5-0.2,0.9-0.5,1.2-0.8c0.4-0.3,0.7-0.6,1.2-0.9c0.4-0.4,1.1-0.9,1.9-1.6
			c0.3-0.3,0.6-0.6,0.8-1c0.2-0.4,0.4-0.7,0.7-0.9c0.3-0.2,0.8-0.4,1.3-0.5c0.5-0.1,1-0.2,1.3-0.2c0.4,0,0.7,0.1,1,0.2
			c0.3,0.2,0.5,0.4,0.7,0.6c0.2,0.2,0.3,0.5,0.4,0.8c0.1,0.3,0.1,0.6,0.1,1c0,0.3,0,0.6-0.1,1c-0.1,0.3-0.2,0.7-0.3,1
			c-0.1,0.3-0.3,0.6-0.5,0.9c-0.2,0.3-0.4,0.5-0.7,0.7c-0.3,0.2-0.6,0.3-1,0.4c-0.4,0.1-0.7,0.1-1.1,0.2c-0.4,0-0.7,0.1-1.1,0.1
			c-0.4,0.1-0.7,0.2-1,0.3c-0.7,0.4-1.3,0.6-1.6,0.8c-0.3,0.2-0.6,0.4-0.9,0.5c-0.3,0.2-0.6,0.3-0.9,0.5c-0.3,0.2-0.8,0.5-1.5,0.8
			c-0.2,0.1-0.3,0.2-0.5,0.4c-0.1,0.2-0.3,0.4-0.5,0.5c-0.2,0.1-0.4,0.3-0.7,0.3c-0.3,0.1-0.5,0.2-0.7,0.3c-0.4,0.3-0.7,0.6-0.9,1
			c-0.3,0.3-0.6,0.5-1.2,0.5c-0.2,0-0.4-0.1-0.7-0.2c-0.2-0.1-0.4-0.3-0.6-0.5c-0.2-0.2-0.3-0.4-0.4-0.6
			C535.9,69.9,535.8,69.7,535.8,69.5z"/>
		<path class="st2" d="M597.4,96.7c0,0.8-0.1,1.5-0.3,2.2c-0.2,0.7-0.4,1.4-0.6,2.1c-0.2,0.7-0.5,1.4-0.7,2.1
			c-0.2,0.7-0.4,1.4-0.5,2.1c-0.2,1.2-0.7,2.2-1.4,3c-0.7,0.8-1.5,1.4-2.5,1.9c-1,0.5-2,0.8-3.2,1.1c-1.2,0.2-2.4,0.4-3.6,0.5
			c-1.2,0.1-2.4,0.2-3.6,0.3s-2.3,0.1-3.3,0.3c-0.4-0.3-0.7-0.6-0.9-0.9c-0.3-0.3-0.5-0.6-0.7-0.9c-0.2-0.3-0.5-0.5-0.8-0.7
			c-0.3-0.2-0.6-0.3-1.1-0.3c-0.2,0-0.3-0.2-0.4-0.6c-0.1-0.4-0.2-0.9-0.2-1.4s-0.2-1-0.2-1.4c-0.1-0.4-0.2-0.6-0.4-0.6
			c-0.6,0-1-0.1-1.4-0.4c-0.3-0.2-0.6-0.6-0.8-0.9c-0.2-0.4-0.3-0.8-0.4-1.3c-0.1-0.5-0.1-0.9-0.1-1.4c0-0.3-0.1-0.7-0.2-1
			s-0.3-0.6-0.5-0.9c-0.2-0.3-0.3-0.6-0.5-0.9S569,98.3,569,98c0-0.4,0-0.8,0.1-1.4c0-0.5,0.1-1.1,0.1-1.7c0-0.6,0.1-1.2,0.1-1.7
			c0-0.6,0.1-1,0.1-1.4c0-0.4,0.1-0.8,0.2-1.1c0.1-0.3,0.2-0.5,0.4-0.8s0.3-0.4,0.4-0.6c0.1-0.2,0.2-0.4,0.2-0.6
			c0-0.3-0.1-0.5-0.2-0.7c-0.1-0.2-0.2-0.4-0.2-0.6c0-0.3,0.1-0.5,0.3-0.8c0.2-0.3,0.3-0.5,0.4-0.8c0.3-1.1,0.4-2.1,0.4-3.2
			c0-0.2,0-0.4,0-0.6c0-0.2,0-0.4-0.1-0.6c-0.6-0.5-1.2-0.8-1.9-0.9c-0.7-0.1-1.4-0.2-2.1-0.3c-0.7-0.1-1.4-0.1-2-0.2
			c-0.7-0.1-1.2-0.4-1.7-0.8c-0.4-0.3-0.7-0.7-1-1.2s-0.7-0.7-1.2-0.9c-0.4-0.1-0.6-0.3-0.9-0.5c-0.2-0.2-0.4-0.5-0.4-0.9
			c0-0.6,0.2-1,0.5-1.3c0.4-0.3,0.8-0.5,1.3-0.7c0.5-0.2,1-0.3,1.6-0.5c0.5-0.1,1-0.3,1.4-0.6c0.4-0.3,0.8-0.4,1.4-0.4
			c0.2,0,0.4,0,0.7,0c0.2,0,0.4,0,0.7,0c0.6,0,1.2-0.1,1.6-0.3c0.4-0.2,0.7-0.5,1-0.8c0.2-0.4,0.4-0.8,0.5-1.2
			c0.1-0.5,0.1-1,0.1-1.5c0-0.8-0.1-1.5-0.2-2.3c-0.1-0.7-0.2-1.5-0.2-2.3c0-0.9,0.1-1.7,0.4-2.5c0.3-0.8,0.7-1.5,1.4-2.1
			c0.2-0.1,0.3-0.3,0.5-0.5c0.2-0.2,0.4-0.4,0.6-0.6c0.2-0.2,0.4-0.3,0.6-0.5c0.2-0.1,0.4-0.2,0.7-0.2c0.2,0,0.3,0,0.4,0.1
			c0.1,0.1,0.2,0.1,0.4,0.2c0.6,0.5,0.9,0.9,1.1,1.2c0.2,0.3,0.2,0.6,0.2,0.9c0,0.2,0,0.4,0,0.6c0,0.2,0,0.5,0,0.9
			c0,0.8,0.1,1.6,0.3,2.3c0.2,0.8,0.3,1.4,0.3,1.9c0,0.5-0.1,0.9-0.3,1.3c-0.2,0.4-0.3,0.9-0.3,1.3c0,0.3,0.1,0.7,0.2,0.9
			s0.4,0.6,0.6,0.8c0.2,0.3,0.4,0.5,0.6,0.8c0.2,0.3,0.3,0.6,0.3,1c0.3,0.2,0.8,0.3,1.7,0.5c0.9,0.1,1.9,0.2,2.9,0.3
			c1.1,0.1,2.2,0.2,3.3,0.2c1.1,0,2,0.1,2.8,0.1c0.7,0,1.2,0,1.5,0.1c0.4,0.1,0.6,0.2,0.9,0.3c0.2,0.1,0.5,0.2,0.7,0.3
			c0.2,0.1,0.5,0.2,0.8,0.2c0.4,0,0.7,0.2,1,0.3c0.3,0.2,0.4,0.5,0.4,0.9c0,0.6-0.2,1-0.5,1.4c-0.3,0.3-0.7,0.6-1.2,0.8
			c-0.5,0.2-1,0.3-1.5,0.3c-0.5,0-1,0.1-1.5,0.1c-0.7,0-1.5,0-2.2-0.1c-0.7,0-1.5-0.1-2.2-0.1c-1.2,0-2.3,0.1-3.3,0.3
			c-1,0.2-1.8,0.6-2.5,1.1c-0.7,0.5-1.3,1.2-1.7,2c-0.4,0.8-0.6,1.9-0.6,3.2c0,1.2,0.1,2.5,0.2,3.7c0.2,1.2,0.2,2.4,0.2,3.7
			c0,1.2,0,2.1,0.1,2.8c0,0.7,0.2,1.3,0.4,1.8c0.3,0.7,0.6,1.5,0.8,2.4c0.2,0.9,0.5,1.8,0.8,2.6c0.3,0.8,0.8,1.5,1.3,2
			c0.6,0.5,1.4,0.8,2.5,0.8c0.4,0,0.9,0,1.5-0.1c0.6-0.1,1.3-0.2,1.9-0.5c0.6-0.2,1.2-0.5,1.6-0.8c0.5-0.3,0.7-0.7,0.7-1.2
			c0-0.4-0.1-0.8-0.4-1.3c-0.3-0.4-0.4-0.9-0.4-1.4c0-0.3,0.1-0.6,0.2-0.9c0.2-0.3,0.4-0.5,0.6-0.7c0.3-0.2,0.5-0.4,0.8-0.5
			c0.3-0.2,0.6-0.3,0.8-0.4c0.5-0.6,1-1,1.6-1.4c0.6-0.4,1.3-0.6,2.1-0.6c0.5,0,1,0.1,1.5,0.3c0.5,0.2,0.9,0.4,1.3,0.7
			C597.4,95.7,597.4,96.2,597.4,96.7z"/>
		<path class="st2" d="M642.5,103.3c0,0.4-0.1,0.8-0.2,1.2c-0.2,0.4-0.3,0.7-0.4,1.1c-0.1,0.3-0.2,0.6-0.2,0.8
			c0,0.2-0.1,0.4-0.2,0.6s-0.2,0.3-0.4,0.4s-0.4,0.3-0.8,0.5c-0.8,0.4-1.6,0.8-2.4,1.2c-0.8,0.4-1.7,0.6-2.5,0.6
			c-0.7,0-1.4-0.2-2.1-0.5c-0.6-0.3-1.2-0.7-1.8-1.1c-0.5-0.4-1-0.8-1.5-1.1c-0.4-0.3-0.8-0.5-1.1-0.5c-0.3,0-0.6,0.1-0.8,0.3
			c-0.2,0.2-0.5,0.4-0.7,0.5c-0.2,0.2-0.5,0.4-0.8,0.5c-0.3,0.2-0.6,0.3-1.1,0.3c-0.4,0-0.7,0.1-1.1,0.2c-0.4,0.1-0.8,0.3-1.1,0.4
			c-0.4,0.2-0.8,0.3-1.2,0.5c-0.4,0.2-0.7,0.3-1.1,0.4c-1.1,0.3-2.3,0.5-3.4,0.5c-1.1,0-2.3,0.1-3.5,0.1c-0.3,0-0.8,0-1.4,0
			c-0.6,0-1.3-0.1-1.9-0.2c-0.6-0.1-1.2-0.3-1.7-0.5c-0.5-0.2-0.7-0.6-0.7-1c0-0.1,0-0.2,0-0.3c-0.2,0.2-0.4,0.4-0.6,0.5
			s-0.5,0.2-0.8,0.2c-0.4,0-0.9-0.3-1.5-0.8c-0.6-0.5-1.1-1.2-1.7-1.9s-1-1.4-1.4-2.1c-0.4-0.7-0.6-1.2-0.6-1.6
			c0-0.3,0.1-0.5,0.2-0.7c0.2-0.2,0.2-0.5,0.2-0.7c0-0.3,0-0.7-0.1-1c-0.1-0.3-0.1-0.6-0.1-1c0-0.4,0.1-0.9,0.3-1.4
			c0.2-0.5,0.4-1,0.6-1.5c0.3-0.5,0.5-1,0.8-1.5c0.3-0.5,0.5-0.9,0.8-1.3c0.3-0.5,0.6-0.9,1.1-1.2c0.5-0.3,0.9-0.5,1.4-0.8
			c0.5-0.2,1-0.4,1.5-0.7c0.5-0.2,0.9-0.5,1.3-0.9c0.4,0.4,0.9,0.6,1.5,0.6c0.6,0,1.2-0.1,1.8-0.3c0.6-0.2,1.2-0.3,1.8-0.3
			c0.5,0,1,0,1.5,0.1c0.5,0.1,0.9,0.1,1.5,0.1c0.6,0,1-0.1,1.2-0.2c0.3-0.1,0.6-0.4,1-0.7c0.4-0.3,0.9-0.6,1.5-0.8
			c0.6-0.2,1.3-0.3,1.9-0.4c0.7-0.1,1.3-0.2,2-0.3c0.7-0.1,1.3-0.3,1.8-0.5c0.5-0.2,1-0.5,1.3-1c0.3-0.4,0.5-1,0.5-1.7
			c0-0.8-0.2-1.6-0.7-2.5c-0.5-0.9-1.1-1.7-1.8-2.4c-0.7-0.7-1.5-1.3-2.4-1.8c-0.9-0.5-1.7-0.7-2.5-0.7c-0.1,0-0.2,0-0.3,0
			c-0.1,0-0.2,0-0.3,0c-0.6,0.1-1.3,0.2-2,0.2c-0.8,0-1.5,0.1-2.1,0.3c-0.7,0.2-1.2,0.5-1.7,0.9c-0.5,0.4-0.7,1.1-0.7,1.9
			c0,0.5,0,1,0.1,1.4c0.1,0.5,0.1,1,0.1,1.4c0,0.7-0.2,1.3-0.5,1.8c-0.4,0.5-0.8,0.9-1.4,1.2c-0.6,0.3-1.2,0.5-1.9,0.6
			c-0.7,0.1-1.3,0.2-2,0.2c-0.8,0-1.4-0.1-2-0.3c-0.6-0.2-1-0.6-1.4-1.4c-0.3-0.5-0.6-1.1-0.9-1.7c-0.3-0.6-0.5-1.2-0.5-1.8
			c0-0.7,0.1-1.3,0.4-1.8c0.2-0.6,0.5-1.1,0.8-1.7c0.3-0.5,0.6-1.1,0.9-1.6c0.3-0.5,0.5-1.1,0.6-1.8c0.2-0.1,0.4-0.2,0.7-0.3
			c0.3-0.1,0.7-0.2,1-0.3c0.4-0.1,0.7-0.2,1.1-0.3c0.3-0.1,0.6-0.2,0.8-0.2c0.6-0.2,1.2-0.4,1.8-0.6c0.6-0.2,1.1-0.4,1.7-0.6
			c0.6-0.2,1.2-0.4,1.8-0.5s1.2-0.2,1.8-0.3l1.2,0c1.1,0,2.2,0.1,3.3,0.3c1.1,0.2,2.2,0.5,3.3,0.9c1.1,0.4,2.1,0.9,3.1,1.4
			c1,0.6,1.8,1.3,2.6,2c0.6,0.6,1,1.3,1.4,2.1c0.4,0.8,0.7,1.6,0.9,2.5c0.2,0.9,0.4,1.8,0.5,2.7c0.1,0.9,0.1,1.7,0.1,2.5
			c0,1,0,2-0.1,3c-0.1,1-0.1,2-0.1,3c0,1,0.1,1.9,0.2,2.9c0.1,1,0.2,1.9,0.4,2.9c0.2,1,0.3,1.9,0.4,2.9c0.1,1,0.2,1.9,0.2,2.9
			c0.1,0.6,0.1,0.9,0.2,1.1c0.1,0.1,0.2,0.2,0.4,0.2c0.6,0,1-0.2,1.3-0.5c0.3-0.3,0.6-0.7,0.9-1.1c0.3-0.4,0.6-0.8,0.9-1.1
			c0.3-0.3,0.7-0.5,1.2-0.5c0.2,0,0.5,0,0.7,0c0.2,0,0.5,0.1,0.7,0.2c0.2,0.1,0.4,0.2,0.5,0.4C642.4,102.8,642.5,103,642.5,103.3z
			 M630.1,94.1c0-0.1,0-0.4,0-0.8c0-0.4,0-0.7-0.1-1.1c-0.1-0.4-0.1-0.7-0.2-1c-0.1-0.3-0.3-0.4-0.5-0.4c-0.1,0-0.1,0-0.2,0.1
			c-0.1,0-0.1,0.1-0.2,0.1c-1,0.5-1.8,0.9-2.5,1.3c-0.7,0.3-1.4,0.6-2,0.8s-1.4,0.3-2.1,0.4s-1.7,0.1-2.8,0.1
			c-0.2,0-0.6,0.1-1.2,0.2s-1.4,0.3-2.2,0.4c-0.8,0.2-1.6,0.3-2.3,0.5c-0.7,0.2-1.1,0.3-1.3,0.3c-0.3,0.1-0.6,0.2-0.7,0.4
			c-0.1,0.1-0.2,0.3-0.3,0.4s-0.2,0.3-0.2,0.5s-0.2,0.3-0.4,0.5c-0.3,0.2-0.5,0.4-0.8,0.5s-0.6,0.3-0.8,0.5
			c-0.4,0.4-0.7,0.8-1.1,1.4c-0.3,0.6-0.5,1.2-0.5,1.7c0,0.7,0.2,1.2,0.5,1.8c0.4,0.5,0.8,1,1.4,1.3c0.6,0.4,1.2,0.7,2,1
			c0.7,0.3,1.5,0.5,2.2,0.6c0.7,0.1,1.5,0.3,2.2,0.3s1.3,0.1,1.8,0.1c0.6,0,1.3,0,2.2-0.1c0.8-0.1,1.7-0.2,2.5-0.4
			c0.8-0.2,1.6-0.4,2.3-0.8c0.7-0.3,1.3-0.7,1.7-1.2c0.2-0.2,0.3-0.4,0.4-0.5s0.2-0.3,0.2-0.5c0.1-0.2,0.2-0.3,0.3-0.5
			c0.1-0.2,0.3-0.4,0.5-0.5c0.6-0.5,1-1,1.3-1.5c0.3-0.6,0.5-1.1,0.7-1.8c0.2-0.6,0.2-1.2,0.3-1.9C630,95.5,630.1,94.8,630.1,94.1z"
			/>
		<path class="st2" d="M683.6,80.1l-2.7-0.9c-3.3-2.4-5-5.7-5-10l0.1-2.1h0.6c-0.1-1.3-0.2-2.5-0.4-3.4l0.2-4.4l-1.1-4
			c-0.4-4.8-2.5-9.3-6.4-13.3c-1.6-0.7-3.3-1.4-5.1-1.9l0.1-0.9l-1.4-0.3v0.5l-0.2,0.2c-0.7-0.2-1.5-0.4-2.2-0.6l0.1,0.5
			c-1.1,0.2-1.8,0.7-2,1.5v0.6l1.1,1.1l-1.1,1l1.6,2.6l0.9-0.2l0.1,0.7h1.2c3.2,2.6,5.5,5,6.9,7.2l-0.1,0.1l-0.7,0.1l-0.3,2.5
			l0.5,5.8v10.9c0.3,0.5,0.6,3.9,0.8,4.5c6.7,7.3,2.8,7.9-0.3,10.5l2.6-2l-2.9,4.3h-0.2V95c-1.4,1.2-2.2,2.1-2.4,2.7v0.6l2.4-0.4
			v5.1l-0.1,1.3l-0.1,0.4l-0.3,6.9l0.5,1.4c-1.4,2.3-3.7,4.7-6.9,7.2h-0.4l-1.4-0.3l-1.8,0.3l0.2,3.5v0.9l0.3,2.5l1.2-0.2l-0.1,0.9
			c3.2-0.7,6.1-1.7,8.8-2.9c4.3-4.5,6.5-9.5,6.5-14.9c0-0.8-0.7-1.3-2-1.4v-0.5l0.5-0.5v-0.5l-0.5-0.5h0.5c0.9,0,1.7-0.9,2.2-2.7
			l0.7,0l-0.2-3.5c0-0.2,0-0.5,0.1-0.8h-0.1l-0.1-2.2c0.5-0.3,0.8-0.6,0.8-0.9l-0.8-0.8v-0.6c0-4.8,1.4-7.4,4.3-7.8
			c2.5,0,4.1-1.5,4.7-4.6v-1.4L683.6,80.1z"/>
	</g>
</g>
</svg>
