<?xml version="1.0" encoding="utf-8"?>
<!-- Generator: Adobe Illustrator 26.2.1, SVG Export Plug-In . SVG Version: 6.00 Build 0)  -->
<svg version="1.0" id="Layer_1" xmlns="http://www.w3.org/2000/svg" xmlns:xlink="http://www.w3.org/1999/xlink" x="0px" y="0px"
	 viewBox="0 0 280 171" style="enable-background:new 0 0 280 171;" xml:space="preserve">
<style type="text/css">
	.st0{fill:#3B4349;}
</style>
<g>
	<path class="st0" d="M79.8,36.5c0-0.5,0.1-0.9,0.2-1.4c0.1-0.5,0.5-0.7,1.2-0.7c0.1,0,0.2,0,0.4,0c0.2,0,0.4,0,0.7,0.1
		c0.2,0,0.5,0.1,0.7,0.1c0.2,0,0.4,0,0.5,0c0.4,0,0.8,0,1.1-0.1c0.4-0.1,0.8-0.1,1.1-0.1c0.5,0,0.8,0.1,1,0.4
		c0.2,0.2,0.3,0.5,0.3,0.8c0,0.1,0,0.1,0,0.2c0,0.1,0,0.1,0,0.2c0,0,0,0.3-0.1,0.8c0,0.5-0.1,1-0.1,1.6c0,0.6,0,1.1-0.1,1.6
		c0,0.5-0.1,0.7-0.1,0.6c0,0.4,0,0.7,0.1,1.1c0,0.3,0.1,0.7,0.1,1c0,0.1,0,0.5-0.1,1c-0.1,0.5-0.1,0.9-0.1,1c0,0.2,0,0.5,0.1,1
		c0.1,0.5,0.1,0.8,0.1,1c0,0.2,0,0.4,0,0.6c0,0.2,0,0.4,0,0.7c0,0.1,0,0.4,0.1,0.8c0,0.4,0.1,0.7,0.1,0.9c0,0.3,0,0.6-0.1,0.9
		c0,0.3-0.1,0.6-0.1,0.9c0,0.1,0,0.4,0.1,0.9c0,0.4,0.1,0.7,0.1,0.9c0,0.1,0,0.3,0,0.6c0,0.3,0,0.5,0,0.6c0,0.1,0,0.3,0,0.6
		c0,0.3,0,0.5,0,0.6c0,0.1,0,0.3,0,0.5c0,0.3,0,0.5,0,0.5c0,0.4,0,0.7,0.1,0.8v1.1c0,0.1,0.1,0.4,0.1,0.8c0,0.4,0.1,0.7,0.1,0.8
		c0,0.1,0,0.2,0,0.4c0,0.2-0.1,0.4-0.2,0.5c-0.1,0.2-0.2,0.4-0.4,0.5C86.2,62,86,62,85.7,62c-0.1,0-0.5,0-0.9-0.1
		c-0.5-0.1-0.8-0.1-1-0.1c-0.1,0-0.2,0-0.4,0c-0.2,0-0.4,0-0.7,0.1c-0.2,0-0.4,0.1-0.6,0.1c-0.2,0-0.3,0-0.4,0c-0.2,0-0.4,0-0.8-0.1
		c-0.3-0.1-0.6-0.3-0.8-0.7c-0.1-0.1-0.1-0.3-0.2-0.6c0-0.3-0.1-0.8-0.1-1.6v-0.3c0-0.4,0.1-0.8,0.2-1.1c0.1-0.4,0.1-0.8,0.2-1.1
		v-1.7c0-0.1,0-0.3,0-0.6c0-0.3,0-0.6-0.1-1c0-0.3,0-0.7-0.1-1c0-0.3,0-0.5,0-0.6c0-0.1,0-0.4,0-0.8c0-0.4,0-0.7,0-0.8
		c0-0.1,0-0.4,0-0.8c0-0.4,0-0.7,0-0.8c0-0.1,0-0.3,0-0.7c0-0.4,0-0.6,0-0.8c0-0.1,0-0.3,0-0.6c0-0.3,0-0.5,0-0.6s0-0.3,0-0.7
		c0-0.3,0-0.6,0-0.7v-1.7c0-0.1,0-0.3,0-0.5c0-0.2,0-0.5,0-0.7c0-0.3,0-0.5,0-0.7c0-0.2,0-0.4,0-0.5c0-0.3,0-0.6-0.1-0.7
		C80,39.2,80,39,80,38.8c0-0.2-0.1-0.4-0.1-0.8c0-0.1,0-0.4-0.1-0.8C79.8,36.9,79.8,36.6,79.8,36.5z M79.8,28.1c0-0.7,0-1.2,0.1-1.4
		s0.1-0.4,0.3-0.6c0.2-0.4,0.5-0.6,0.8-0.7c0.3-0.1,0.5-0.1,0.7-0.1c0.3,0,0.7,0,1,0.1c0.3,0.1,0.7,0.1,1,0.1c0.1,0,0.4,0,0.9-0.1
		c0.4-0.1,0.7-0.1,0.9-0.1c0.3,0,0.6,0.1,0.8,0.2c0.2,0.1,0.4,0.3,0.4,0.4c0.1,0.2,0.1,0.3,0.2,0.5c0,0.2,0,0.3,0,0.4
		c0,0.1,0,0.4-0.1,0.8s-0.1,0.7-0.1,0.8c0,0.2,0,0.5,0.1,1c0,0.5,0.1,0.8,0.1,1c0,0.4-0.1,0.7-0.2,0.9c-0.2,0.2-0.3,0.4-0.5,0.5
		S85.7,32,85.4,32c-0.2,0-0.5,0-0.6,0c-0.1,0-0.4,0-0.8-0.1c-0.4-0.1-0.7-0.1-0.8-0.1c-0.3,0-0.5,0-0.8,0.1C82.1,32,81.8,32,81.5,32
		c-0.3,0-0.7-0.1-0.9-0.3c-0.3-0.2-0.5-0.4-0.5-0.6S80,30.8,80,30.6v-0.9c0-0.1,0-0.4-0.1-0.8C79.9,28.5,79.8,28.2,79.8,28.1z"/>
	<path class="st0" d="M92,30.1c0-0.1,0-0.2,0.1-0.5c0-0.3,0.1-0.5,0.1-0.5c0.1-0.5,0.2-0.8,0.5-1s0.7-0.4,1.2-0.5c0.1,0,0.5,0,1-0.1
		c0.5-0.1,0.8-0.1,1-0.1c0.1,0,0.4-0.1,0.8-0.2c0.4-0.1,0.6-0.1,0.8-0.1c1,0,1.5,0.7,1.5,2.1c0,0.2,0,0.3,0,0.5c0,0.2,0,0.3-0.1,0.5
		c-0.1,0.6-0.2,0.9-0.3,1.1c0,0.2-0.1,0.4-0.1,0.6c0,0.5,0,0.9,0,1.3c0,0.3,0.1,0.6,0.1,0.8c0.1,0.2,0.2,0.3,0.4,0.4
		c0.2,0.1,0.4,0.1,0.8,0.2c0.3,0,0.5,0,0.8,0c0.2,0,0.5,0,0.7,0.1c0.5,0.1,0.9,0.2,1.2,0.3c0.3,0.1,0.5,0.4,0.5,0.9c0,0,0,0.2,0,0.4
		c0,0.2,0,0.4-0.1,0.6c0,0.2,0,0.5-0.1,0.7c0,0.2,0,0.4,0,0.5s0,0.3,0,0.7c0,0.4,0,0.6,0,0.7c0,0.2,0,0.4-0.1,0.5
		c-0.1,0.1-0.1,0.2-0.1,0.2c-0.2,0.2-0.6,0.3-1.1,0.4c-0.5,0.1-0.8,0.1-1,0.1c-0.2,0-0.3,0-0.5,0c-0.2,0-0.3,0.1-0.5,0.2
		c-0.2,0.1-0.3,0.3-0.4,0.5c-0.1,0.2-0.2,0.4-0.2,0.6c-0.1,0.2-0.1,0.4-0.1,0.6c0,0.2,0,0.3,0,0.3c0,0.1,0,0.3,0.1,0.7
		c0,0.4,0.1,0.6,0.1,0.8c0,0.1,0,0.3-0.1,0.7c-0.1,0.3-0.1,0.6-0.1,0.7c0,0.1,0,0.2,0.1,0.5c0,0.3,0.1,0.4,0.1,0.5
		c0,0.2,0,0.4,0,0.6c0,0.2,0,0.4,0,0.6c0,0.1,0,0.3,0.1,0.7c0,0.4,0.1,0.6,0.1,0.7c0,0.2,0,0.4-0.1,0.6c0,0.2-0.1,0.4-0.1,0.6
		c0,0.1,0,0.3,0.1,0.7c0,0.3,0.1,0.6,0.1,0.7v0.4c0,0.1,0,0.2,0,0.3c0,0.1,0,0.2,0,0.3c0,0.1,0,0.2,0,0.4c0,0.2,0,0.3,0,0.4
		c0,0.1,0,0.4,0.1,0.8c0.1,0.4,0.1,0.7,0.2,0.8c0.2,0.5,0.5,0.8,0.8,0.9c0.3,0.1,0.6,0.1,1,0.1c0.6,0.1,1.1,0.2,1.5,0.3
		c0.4,0.1,0.5,0.4,0.5,0.8c0,0.1,0,0.3-0.1,0.6c0,0.1-0.1,0.2-0.1,0.3c0,0.1,0,0.2,0,0.3s0,0.3,0.1,0.5c0,0.2,0.1,0.5,0.1,0.7
		c0,0.2,0,0.5,0.1,0.7c0,0.2,0.1,0.4,0.1,0.5c0,0.1,0,0.2,0,0.3c0,0.2-0.1,0.3-0.1,0.3c-0.1,0-0.2,0.1-0.5,0.2s-0.4,0.2-0.5,0.2
		c-0.2,0.1-0.5,0.1-0.7,0.1c-0.2,0-0.5,0-0.7,0c-0.2,0-0.4,0-0.6,0c-0.2,0-0.4,0-0.6,0.1c-0.3,0-0.5,0.1-0.8,0.1
		c-0.2,0.1-0.5,0.1-0.7,0.1h-0.2c-0.3,0-0.6,0-0.9,0c-0.3,0-0.7-0.1-1-0.3c-0.4-0.2-0.7-0.4-1.1-0.7c-0.4-0.3-0.7-0.8-1.1-1.4
		c-0.3-0.5-0.5-1-0.7-1.6c-0.2-0.6-0.3-0.9-0.3-1.1c0,0,0-0.2-0.1-0.4c0-0.3-0.1-0.5-0.1-0.8c0-0.3,0-0.6-0.1-0.8c0-0.2,0-0.4,0-0.5
		c0-0.1,0-0.3,0.1-0.7c0-0.3,0.1-0.6,0.1-0.7c0-0.1,0-0.3,0-0.5c0-0.3,0-0.5,0-0.6v-1.9c0-0.1,0-0.2,0-0.4c0-0.2,0-0.5,0-0.7
		c0-0.2,0-0.5,0-0.7c0-0.2,0-0.4,0-0.5s0-0.3,0-0.5c0-0.2,0-0.5,0-0.8c0-0.3,0-0.5,0-0.8c0-0.2,0-0.4,0-0.5c0-0.1,0-0.2,0-0.5
		c0-0.3,0-0.5,0-0.5c0-0.1,0-0.2,0-0.3c0-0.2,0-0.3,0-0.3v-0.6c0-0.1,0-0.2,0-0.4c0-0.2,0-0.3-0.1-0.4c0,0,0-0.1,0-0.2
		c0-0.1,0-0.2,0-0.2c0-0.1,0-0.3-0.1-0.4s-0.1-0.2-0.1-0.4c-0.2-0.5-0.4-0.8-0.6-0.9c-0.2-0.1-0.6-0.2-1.1-0.3
		c-0.1,0-0.3-0.1-0.5-0.2s-0.3-0.5-0.3-1c0-0.3,0-0.5,0.1-0.8c0.1-0.3,0.1-0.5,0.1-0.8c0-0.1,0-0.3-0.1-0.6c0-0.3-0.1-0.5-0.1-0.7
		c0-0.3,0-0.6,0.1-0.9c0.1-0.3,0.3-0.6,0.8-0.7c0.1,0,0.2-0.1,0.3-0.1c0.1,0,0.2,0,0.3-0.1c0.6-0.2,0.9-0.5,1-1
		c0.1-0.5,0.2-0.9,0.2-1.2c0-0.1,0-0.3,0-0.4c0-0.1,0-0.3-0.1-0.4c0-0.2,0-0.5-0.1-0.7C92,30.5,92,30.3,92,30.1z"/>
	<path class="st0" d="M106.1,30.1c0-0.1,0-0.2,0.1-0.5c0-0.3,0.1-0.5,0.1-0.5c0.1-0.5,0.2-0.8,0.5-1s0.7-0.4,1.2-0.5
		c0.1,0,0.5,0,1-0.1c0.5-0.1,0.8-0.1,1-0.1c0.1,0,0.4-0.1,0.8-0.2c0.4-0.1,0.6-0.1,0.8-0.1c1,0,1.5,0.7,1.5,2.1c0,0.2,0,0.3,0,0.5
		c0,0.2,0,0.3-0.1,0.5c-0.1,0.6-0.2,0.9-0.3,1.1c0,0.2-0.1,0.4-0.1,0.6c0,0.5,0,0.9,0,1.3c0,0.3,0.1,0.6,0.1,0.8
		c0.1,0.2,0.2,0.3,0.4,0.4c0.2,0.1,0.4,0.1,0.8,0.2c0.3,0,0.5,0,0.8,0c0.2,0,0.5,0,0.7,0.1c0.5,0.1,0.9,0.2,1.2,0.3
		c0.3,0.1,0.5,0.4,0.5,0.9c0,0,0,0.2,0,0.4c0,0.2,0,0.4-0.1,0.6c0,0.2,0,0.5-0.1,0.7c0,0.2,0,0.4,0,0.5s0,0.3,0,0.7
		c0,0.4,0,0.6,0,0.7c0,0.2,0,0.4-0.1,0.5c-0.1,0.1-0.1,0.2-0.1,0.2c-0.2,0.2-0.6,0.3-1.1,0.4c-0.5,0.1-0.8,0.1-1,0.1
		c-0.2,0-0.3,0-0.5,0c-0.2,0-0.3,0.1-0.5,0.2c-0.2,0.1-0.3,0.3-0.4,0.5c-0.1,0.2-0.2,0.4-0.2,0.6c-0.1,0.2-0.1,0.4-0.1,0.6
		c0,0.2,0,0.3,0,0.3c0,0.1,0,0.3,0.1,0.7c0,0.4,0.1,0.6,0.1,0.8c0,0.1,0,0.3-0.1,0.7c-0.1,0.3-0.1,0.6-0.1,0.7c0,0.1,0,0.2,0.1,0.5
		c0,0.3,0.1,0.4,0.1,0.5c0,0.2,0,0.4,0,0.6c0,0.2,0,0.4,0,0.6c0,0.1,0,0.3,0.1,0.7c0,0.4,0.1,0.6,0.1,0.7c0,0.2,0,0.4-0.1,0.6
		c0,0.2-0.1,0.4-0.1,0.6c0,0.1,0,0.3,0.1,0.7c0,0.3,0.1,0.6,0.1,0.7v0.4c0,0.1,0,0.2,0,0.3c0,0.1,0,0.2,0,0.3c0,0.1,0,0.2,0,0.4
		c0,0.2,0,0.3,0,0.4c0,0.1,0,0.4,0.1,0.8c0.1,0.4,0.1,0.7,0.2,0.8c0.2,0.5,0.5,0.8,0.8,0.9c0.3,0.1,0.6,0.1,1,0.1
		c0.6,0.1,1.1,0.2,1.5,0.3c0.4,0.1,0.5,0.4,0.5,0.8c0,0.1,0,0.3-0.1,0.6c0,0.1-0.1,0.2-0.1,0.3c0,0.1,0,0.2,0,0.3s0,0.3,0.1,0.5
		c0,0.2,0.1,0.5,0.1,0.7c0,0.2,0,0.5,0.1,0.7c0,0.2,0.1,0.4,0.1,0.5c0,0.1,0,0.2,0,0.3c0,0.2-0.1,0.3-0.1,0.3
		c-0.1,0-0.2,0.1-0.5,0.2s-0.4,0.2-0.5,0.2c-0.2,0.1-0.5,0.1-0.7,0.1c-0.2,0-0.5,0-0.7,0c-0.2,0-0.4,0-0.6,0c-0.2,0-0.4,0-0.6,0.1
		c-0.3,0-0.5,0.1-0.8,0.1c-0.2,0.1-0.5,0.1-0.7,0.1h-0.2c-0.3,0-0.6,0-0.9,0c-0.3,0-0.7-0.1-1-0.3c-0.4-0.2-0.7-0.4-1.1-0.7
		c-0.4-0.3-0.7-0.8-1.1-1.4c-0.3-0.5-0.5-1-0.7-1.6c-0.2-0.6-0.3-0.9-0.3-1.1c0,0,0-0.2-0.1-0.4c0-0.3-0.1-0.5-0.1-0.8
		c0-0.3,0-0.6-0.1-0.8c0-0.2,0-0.4,0-0.5c0-0.1,0-0.3,0.1-0.7c0-0.3,0.1-0.6,0.1-0.7c0-0.1,0-0.3,0-0.5c0-0.3,0-0.5,0-0.6v-1.9
		c0-0.1,0-0.2,0-0.4c0-0.2,0-0.5,0-0.7c0-0.2,0-0.5,0-0.7c0-0.2,0-0.4,0-0.5s0-0.3,0-0.5c0-0.2,0-0.5,0-0.8c0-0.3,0-0.5,0-0.8
		c0-0.2,0-0.4,0-0.5c0-0.1,0-0.2,0-0.5c0-0.3,0-0.5,0-0.5c0-0.1,0-0.2,0-0.3c0-0.2,0-0.3,0-0.3v-0.6c0-0.1,0-0.2,0-0.4
		c0-0.2,0-0.3-0.1-0.4c0,0,0-0.1,0-0.2c0-0.1,0-0.2,0-0.2c0-0.1,0-0.3-0.1-0.4s-0.1-0.2-0.1-0.4c-0.2-0.5-0.4-0.8-0.6-0.9
		c-0.2-0.1-0.6-0.2-1.1-0.3c-0.1,0-0.3-0.1-0.5-0.2s-0.3-0.5-0.3-1c0-0.3,0-0.5,0.1-0.8c0.1-0.3,0.1-0.5,0.1-0.8
		c0-0.1,0-0.3-0.1-0.6c0-0.3-0.1-0.5-0.1-0.7c0-0.3,0-0.6,0.1-0.9c0.1-0.3,0.3-0.6,0.8-0.7c0.1,0,0.2-0.1,0.3-0.1
		c0.1,0,0.2,0,0.3-0.1c0.6-0.2,0.9-0.5,1-1c0.1-0.5,0.2-0.9,0.2-1.2c0-0.1,0-0.3,0-0.4c0-0.1,0-0.3-0.1-0.4c0-0.2,0-0.5-0.1-0.7
		C106.1,30.5,106.1,30.3,106.1,30.1z"/>
	<path class="st0" d="M135.3,28c0-0.3,0-0.6,0.1-0.9c0.1-0.3,0.1-0.6,0.3-0.9c0.1-0.3,0.3-0.5,0.6-0.8s0.6-0.3,1-0.3
		c0.1,0,0.4,0,0.9,0.1c0.4,0.1,0.7,0.1,0.9,0.1c0.2,0,0.3,0,0.5-0.1c0.1,0,0.3-0.1,0.5-0.1h0.6c0.5,0,0.9,0,1,0.1
		c0.2,0.1,0.4,0.2,0.6,0.5c0.2,0.2,0.3,0.6,0.3,1.1c0,0.2,0,0.6-0.1,1.1c-0.1,0.5-0.1,0.7-0.1,0.8c0,0.2-0.1,0.4-0.1,0.5
		c-0.1,0.2-0.1,0.4-0.1,0.5c0,0,0,0.2,0,0.4c0,0.2,0,0.5-0.1,0.8c0,0.3-0.1,0.6-0.1,0.9c0,0.3,0,0.5,0,0.6c0,0.1,0,0.4,0,0.8
		c0,0.4,0,0.7,0.1,1.1c0,0.4,0.1,0.8,0.1,1.1c0,0.4,0,0.6,0,0.8c0,0.4,0,0.7,0,0.9c0,0.2,0,0.4,0,0.6c0,0.2,0,0.3,0,0.3
		c0,0.2,0,0.3,0,0.5c0,0.1,0,0.3,0,0.6c0,0.2,0,0.6,0,0.9c0,0.4,0,0.9,0,1.5c0,0.1,0,0.3,0,0.6c0,0.3,0,0.6,0,0.9s0,0.6,0,0.9
		c0,0.3,0,0.5,0,0.6c0,0.1,0,0.4,0,0.7c0,0.3,0,0.7,0,1.1c0,0.4,0,0.8,0,1.1c0,0.4,0,0.6,0,0.8c0,0.1,0,0.4,0.1,0.8
		c0,0.4,0.1,0.7,0.1,0.8c0,0.1,0,0.3,0,0.6s0,0.5,0,0.6c0,0.1,0,0.4,0.1,0.8c0,0.4,0.1,0.7,0.1,0.9v2.2c0,0.1,0,0.3-0.1,0.7
		c0,0.4-0.1,0.6-0.1,0.8c0,0.1,0,0.4,0.1,0.8c0.1,0.4,0.1,0.7,0.2,1.1c0.1,0.4,0.1,0.8,0.2,1.1c0.1,0.3,0.1,0.5,0.1,0.6
		c0,0.2,0,0.5-0.1,0.8c-0.1,0.3-0.2,0.5-0.3,0.7c-0.1,0.1-0.2,0.2-0.4,0.3c-0.2,0.1-0.5,0.2-0.9,0.2c-0.2,0-0.5,0-1-0.1
		c-0.5-0.1-0.9-0.1-1-0.1c-0.2,0-0.5,0.1-1,0.2c-0.5,0.1-0.8,0.2-1,0.2c-0.4,0-0.7-0.1-0.8-0.3c-0.2-0.2-0.3-0.3-0.4-0.4
		c-0.1-0.2-0.2-0.6-0.2-1c0-0.5,0-0.9,0-1.2c0,0,0-0.2,0.1-0.5c0-0.3,0.1-0.7,0.1-1.1s0.1-0.8,0.1-1.2c0-0.4,0.1-0.6,0.1-0.8
		c0-0.1,0-0.3,0-0.7c0-0.3,0-0.5-0.1-0.6c0-0.1,0-0.2,0-0.4c0-0.2,0-0.3,0-0.4c0-0.1,0-0.3-0.1-0.6c0-0.3-0.1-0.5-0.1-0.6v-1.6
		c0-0.1,0-0.4-0.1-0.9c0-0.4-0.1-0.7-0.1-0.9c0-0.2,0-0.5,0.1-1c0.1-0.5,0.1-0.8,0.1-1c0-0.1,0-0.3,0-0.5c0-0.2,0-0.5,0-0.8
		c0-0.3,0-0.5,0-0.8c0-0.2,0-0.4,0-0.5c0-0.5,0-0.9,0-1.4c0-0.4,0-0.8,0.1-1.2c0-0.3,0.1-0.5,0.1-0.6c0-0.1,0-0.2,0-0.3
		c0-0.2,0-0.5,0-0.7c0-0.2,0-0.5,0-0.8c0-0.1,0-0.4,0.1-0.8c0.1-0.5,0.1-0.7,0.1-0.9c0-0.3,0-0.6-0.1-0.9c-0.1-0.3-0.1-0.6-0.1-0.9
		c0-0.1,0-0.5,0-1c0-0.5,0-0.9,0-1c0-0.1,0-0.4,0-0.9c0-0.4,0-0.7,0-0.9c0-0.1,0-0.3,0-0.6c0-0.4,0-0.6,0-0.7c0-0.1,0-0.2,0-0.4
		c0-0.2,0-0.5-0.1-0.7c0-0.3-0.1-0.5-0.1-0.7C135.3,28.3,135.3,28.1,135.3,28z"/>
	<path class="st0" d="M146,46.9c0-0.5,0-0.9,0.1-1.3c0-0.3,0.1-0.9,0.3-1.6c0-0.3,0.1-0.6,0.1-0.8c0.1-0.2,0.1-0.4,0.1-0.5
		c0-0.2,0.1-0.3,0.1-0.5c0.1-0.2,0.1-0.4,0.2-0.7c0.1-0.1,0.1-0.3,0.2-0.5c0.1-0.2,0.2-0.4,0.3-0.7c0.1-0.2,0.2-0.4,0.3-0.6
		c0.1-0.2,0.2-0.4,0.3-0.6c0.6-1.1,1.1-1.8,1.5-2.1c0.4-0.3,0.7-0.6,1-0.9c0.4-0.3,0.7-0.5,1-0.7c0.3-0.2,0.5-0.3,0.8-0.4
		c0.2-0.1,0.5-0.2,0.7-0.3c0.3-0.1,0.6-0.2,0.9-0.3c0.2-0.1,0.3-0.1,0.5-0.2c0.2,0,0.3-0.1,0.5-0.2c0.3-0.1,0.7-0.2,1.1-0.2
		c0.4,0,0.8-0.1,1.2-0.1c0.3,0,0.6,0,0.9,0c0.3,0,0.6,0,0.9,0c0.5,0,0.9,0.1,1.4,0.1c0.4,0,0.9,0.1,1.3,0.3c0,0,0.2,0.1,0.4,0.2
		c0.2,0.1,0.5,0.2,0.7,0.3c0.3,0.1,0.6,0.3,1,0.5c0,0,0.1,0.1,0.3,0.2c0.2,0.1,0.4,0.3,0.6,0.4c0.2,0.1,0.4,0.3,0.6,0.4
		c0.2,0.1,0.3,0.2,0.3,0.3c0.2,0.2,0.5,0.5,0.8,0.9c0.3,0.4,0.5,0.7,0.7,1.1c0.2,0.4,0.4,0.7,0.5,1s0.2,0.5,0.3,0.6
		c0.2,0.5,0.3,0.9,0.4,1.5c0.1,0.5,0.2,1,0.2,1.5c0.1,0.5,0.1,0.8,0.1,1.1s0,0.5,0,0.5c0,0.2,0,0.4-0.1,0.5c0,0.1-0.1,0.3-0.2,0.6
		c-0.1,0.4-0.2,0.6-0.3,0.8c-0.1,0.1-0.2,0.3-0.5,0.6c-0.5,0.5-0.8,0.8-1.2,0.8c-0.3,0.1-0.8,0.1-1.4,0.1h-0.8c-0.1,0-0.2,0-0.5,0
		c-0.2,0-0.4,0-0.5,0c-0.1,0-0.3,0-0.7,0.1c-0.4,0-0.6,0.1-0.7,0.1c-0.1,0-0.3,0-0.5,0c-0.2,0-0.5,0-0.7,0c-0.3,0-0.5,0-0.8,0
		c-0.2,0-0.4,0-0.5,0h-0.9c-0.2,0-0.4,0-0.5,0c-0.2,0-0.4,0-0.5,0c-0.1,0-0.3,0-0.7,0.1c-0.4,0-0.6,0.1-0.8,0.1c-0.1,0-0.3,0-0.6,0
		c-0.3,0-0.5,0-0.7,0c-0.5,0-0.8,0.2-1,0.7c-0.2,0.5-0.3,0.8-0.3,1.1c0,0.6,0,1.2,0.1,1.7c0.1,0.5,0.3,1.2,0.8,2.1
		c0.3,0.7,0.7,1.2,1.2,1.6c0.5,0.4,0.9,0.7,1.4,0.8c0.5,0.2,0.9,0.3,1.3,0.3c0.4,0,0.7,0.1,1,0.1c0.2,0,0.5,0,0.7,0
		c0.2,0,0.5,0,0.7-0.1c0.4-0.1,0.9-0.2,1.5-0.5c0.6-0.3,1.1-0.5,1.5-0.9c0.2-0.2,0.5-0.4,0.7-0.6c0.2-0.2,0.4-0.4,0.6-0.5
		c0.1-0.1,0.3-0.1,0.6-0.1c0.5,0,0.8,0.1,1,0.4c0.2,0.3,0.3,0.5,0.4,0.7c0.1,0.1,0.2,0.3,0.3,0.7c0.1,0.4,0.2,0.6,0.3,0.7
		c0.1,0.3,0.3,0.5,0.5,0.7c0.2,0.2,0.4,0.4,0.5,0.6c0.2,0.3,0.3,0.5,0.3,0.8c0,0.2,0,0.4,0,0.5c0,0.6-0.2,1.1-0.6,1.4
		c-0.4,0.4-0.8,0.6-1.3,0.8c-0.3,0.1-0.5,0.2-0.8,0.3c-0.2,0.1-0.5,0.1-0.8,0.2c-0.3,0.1-0.6,0.2-0.9,0.3c-0.3,0.1-0.6,0.2-0.9,0.3
		c0,0-0.2,0-0.5,0.1c-0.3,0-0.7,0.1-1.1,0.1c-0.4,0.1-0.8,0.1-1.2,0.1c-0.4,0-0.7,0.1-1,0.1c-0.9,0-1.8,0-2.7-0.1
		c-0.9-0.1-1.5-0.2-1.7-0.2c0,0-0.1,0-0.3-0.1c-0.2-0.1-0.3-0.1-0.5-0.2c-0.2-0.1-0.4-0.1-0.7-0.2c-0.1,0-0.2-0.1-0.5-0.3
		c-0.2-0.1-0.4-0.2-0.5-0.3c-0.3-0.1-0.6-0.4-1.1-0.7c-0.5-0.3-0.9-0.7-1.4-1.2c-0.5-0.5-0.9-1-1.4-1.7s-0.9-1.3-1.2-2.1
		c-0.4-1-0.7-1.8-0.8-2.2s-0.2-0.8-0.2-1.2c0-0.2-0.1-0.5-0.1-0.7s-0.1-0.4-0.1-0.7c0-0.1-0.1-0.4-0.1-0.8c0-0.4,0-0.8-0.1-1.2
		c0-0.4,0-0.8,0-1.2C146,47.3,146,47,146,46.9z M157.8,38.8c-0.1,0-0.3,0-0.7,0.1c-0.4,0.1-0.6,0.1-0.7,0.1
		c-0.2,0.1-0.4,0.2-0.7,0.3c-0.3,0.2-0.5,0.3-0.7,0.4c-0.5,0.5-0.9,1-1,1.6c-0.2,0.6-0.3,1-0.3,1.2c0,0.4,0.1,0.6,0.3,0.8
		c0.1,0.1,0.4,0.2,0.8,0.2c0.4,0,0.7,0.1,0.7,0.1c0.1,0,0.2,0,0.4,0c0.2,0,0.3,0,0.4,0c0.1,0,0.4,0,0.8,0.1c0.4,0.1,0.7,0.1,0.8,0.1
		c0.1,0,0.2,0,0.5-0.1c0.3-0.1,0.4-0.1,0.5-0.1c0.1,0,0.3-0.1,0.6-0.1c0.4,0,0.8,0,1.3-0.1c0.5-0.1,0.8-0.3,0.8-0.7
		c0-0.8-0.2-1.6-0.6-2.3s-0.9-1.2-1.5-1.4c0,0-0.2,0-0.6-0.1c-0.4-0.1-0.7-0.1-0.9-0.1H157.8z"/>
	<path class="st0" d="M171.2,41.6c0-1,0.1-2,0.3-2.7c0.2-0.8,0.6-1.6,1.2-2.3c0.3-0.4,0.6-0.7,1-1.1c0.4-0.3,0.8-0.6,1.3-0.9
		s1.1-0.4,1.8-0.6s1.5-0.2,2.5-0.2c0.4,0,0.8,0,1.2,0c0.4,0,0.8,0,1.2,0.1c0.2,0,0.5,0.1,0.7,0.1c0.2,0,0.5,0.1,0.7,0.1
		c0.2,0,0.5,0,0.7,0c0.2,0,0.5,0,0.7,0.1c0.6,0.1,1,0.3,1.4,0.4c0.3,0.2,0.5,0.4,0.7,0.6c0.2,0.2,0.2,0.5,0.3,0.7c0,0.3,0,0.5,0,0.8
		c0,0.1,0,0.4-0.1,0.9c0,0.5-0.1,0.7-0.1,0.9c0,0.1,0,0.3,0,0.6c0,0.3,0,0.5,0,0.6c0,0.5-0.2,0.8-0.5,1.1c-0.4,0.2-0.7,0.3-1,0.3
		c-0.4,0-0.8-0.1-1.1-0.2c-0.3-0.2-0.7-0.4-1.1-0.6c-0.1-0.1-0.3-0.2-0.5-0.3c-0.2-0.1-0.5-0.2-0.6-0.2c-0.2,0-0.4,0-0.5-0.1
		c-0.1,0-0.2-0.1-0.3-0.1c-0.1,0-0.2-0.1-0.3-0.1c-0.1,0-0.3,0-0.6,0c-0.3,0-0.6,0-0.6,0c-0.5,0-1,0.2-1.4,0.5
		c-0.4,0.3-0.6,0.9-0.6,1.7c0,0.3,0.1,0.6,0.4,1c0.3,0.4,0.5,0.6,0.8,0.8c0,0,0.3,0.1,0.8,0.4c0.5,0.3,0.9,0.4,1.4,0.5
		c0.4,0.1,0.8,0.2,1.1,0.4c0.4,0.1,0.7,0.3,1.1,0.5c0.2,0.1,0.4,0.3,0.7,0.3c0.2,0.1,0.5,0.2,0.7,0.3c0.3,0.1,0.6,0.3,1,0.6
		c0.4,0.3,0.8,0.6,1.2,1c0.8,0.7,1.3,1.3,1.6,1.8c0.2,0.5,0.4,1,0.5,1.4c0.1,0.5,0.3,0.8,0.3,1.1c0.1,0.3,0.1,0.5,0.2,0.8
		c0,0.2,0.1,0.5,0.1,0.8c0,0.3,0,0.6,0,1c0,0.3,0,0.6-0.1,0.7c0,0.1,0,0.2-0.1,0.5c-0.1,0.2-0.1,0.5-0.2,0.8
		c-0.1,0.3-0.1,0.5-0.2,0.7c-0.1,0.2-0.1,0.4-0.2,0.4c-0.1,0.2-0.2,0.6-0.5,1.1c-0.3,0.5-0.6,0.9-0.8,1.1c-0.1,0.1-0.2,0.2-0.3,0.3
		c-0.1,0.1-0.2,0.2-0.3,0.3c-0.2,0.1-0.3,0.2-0.4,0.4c-0.5,0.5-1,0.8-1.6,1c-0.6,0.2-1.1,0.3-1.6,0.4c-0.2,0-0.3,0-0.4,0
		c-0.1,0-0.3,0-0.4,0.1c-0.2,0-0.3,0.1-0.5,0.1c-0.2,0.1-0.3,0.1-0.5,0.1c-0.2,0-0.4,0-0.5,0c-0.2,0-0.4,0-0.6,0
		c-0.1,0-0.3,0-0.5,0.1c-0.3,0-0.5,0.1-0.5,0.1c-0.1,0-0.3,0-0.6,0c-0.3,0-0.5,0-0.8-0.1c-0.3,0-0.6-0.1-0.9-0.1
		c-0.3,0-0.5-0.1-0.6-0.1c-0.1-0.1-0.3-0.1-0.4-0.2c-0.1,0-0.2-0.1-0.4-0.1c-0.1,0-0.2-0.1-0.3-0.1c-0.1,0-0.2,0-0.3-0.1
		c-0.1,0-0.2-0.1-0.3-0.2c-0.1-0.1-0.2-0.1-0.3-0.2c-0.2-0.1-0.4-0.1-0.7-0.1s-0.5-0.1-0.7-0.1c-0.4-0.1-0.7-0.3-1-0.6
		c-0.3-0.3-0.4-0.7-0.4-1.1c0-0.2,0-0.3,0.1-0.4c0-0.1,0.1-0.3,0.1-0.4c0-0.2,0.1-0.4,0.1-0.7c0-0.1,0-0.3,0-0.5c0-0.2,0-0.5,0-0.7
		c0-0.2,0-0.5,0-0.7c0-0.2,0-0.4,0-0.5c0-0.3,0-0.7,0.1-0.9c0.1-0.3,0.2-0.5,0.4-0.7c0.2-0.2,0.3-0.3,0.5-0.3
		c0.1-0.1,0.3-0.1,0.4-0.1c0.1,0,0.3,0,0.6,0.1c0.3,0.1,0.7,0.3,1.1,0.7c0.2,0.2,0.4,0.3,0.5,0.5c0.2,0.2,0.4,0.3,0.5,0.4
		c0.2,0.1,0.4,0.3,0.6,0.4s0.4,0.2,0.6,0.3c0.5,0.2,0.9,0.3,1.3,0.4c0.4,0.1,0.7,0.1,1,0.1c0.2,0,0.3,0,0.5,0c0.2,0,0.3,0,0.5-0.1
		c0.2,0,0.4-0.1,0.6-0.1s0.5-0.1,0.7-0.3c0.3-0.2,0.6-0.5,0.9-0.9c0.3-0.4,0.5-0.9,0.5-1.5c0-0.4-0.1-0.8-0.3-1.2s-0.4-0.6-0.5-0.8
		c-0.2-0.2-0.5-0.3-0.8-0.4c-0.3-0.1-0.6-0.2-0.9-0.3c-0.2-0.1-0.4-0.2-0.6-0.3s-0.4-0.2-0.6-0.3c-0.2-0.1-0.4-0.3-0.5-0.4
		s-0.4-0.2-0.6-0.3c-0.2-0.1-0.4-0.2-0.5-0.2c-0.2-0.1-0.4-0.1-0.6-0.2c-0.2-0.1-0.5-0.2-0.8-0.4c-0.3-0.2-0.6-0.3-0.9-0.5
		c-0.3-0.2-0.6-0.3-0.8-0.4c-0.2-0.1-0.4-0.2-0.4-0.3c-0.2-0.1-0.4-0.4-0.8-0.8c-0.3-0.4-0.6-0.7-0.8-1.1c-0.2-0.4-0.3-0.7-0.4-0.9
		c-0.1-0.2-0.2-0.4-0.3-0.6c-0.1-0.2-0.1-0.3-0.1-0.4c-0.1-0.3-0.1-0.7-0.2-1.2C171.2,42.3,171.2,41.9,171.2,41.6z"/>
	<path class="st0" d="M198.6,40.5c-0.3,0-0.7,0-1,0.1c-0.3,0.1-0.7,0.1-1,0.2c-0.2,0-0.4,0.1-0.6,0.1c-0.2,0-0.5,0-0.7,0
		c-0.2,0-0.3,0-0.5,0c-0.1,0-0.3,0-0.5,0c-0.1,0-0.3,0-0.7,0.1c-0.4,0.1-0.6,0.1-0.8,0.1c-0.4,0-0.6-0.2-0.8-0.5s-0.2-0.6-0.2-0.7
		c0-0.1,0-0.5,0.1-1s0.1-0.8,0.1-1c0-0.1,0-0.2-0.1-0.4c-0.1-0.2-0.1-0.3-0.1-0.4c0-0.1,0-0.1,0-0.2c0-0.1,0-0.2,0-0.2
		c0.1-0.3,0.1-0.5,0.2-0.6c0-0.1,0.2-0.3,0.5-0.6c0.2-0.2,0.4-0.4,0.7-0.6s0.7-0.3,1.4-0.3c0.1,0,0.4,0,0.7,0.1
		c0.3,0,0.7,0.1,1.1,0.1c0.4,0,0.7,0.1,1,0.1c0.3,0,0.5,0.1,0.5,0.1c0.1,0,0.3,0,0.5-0.1c0.2,0,0.5-0.1,0.7-0.1
		c0.3,0,0.5-0.1,0.7-0.1c0.2,0,0.4-0.1,0.5-0.1c0.6,0,1.1,0,1.3,0.1c0.2,0,0.6,0.1,0.9,0.2c0.4,0.1,0.8,0.2,1.2,0.2
		c0.2,0,0.4,0,0.5-0.1c0.2,0,0.5-0.1,0.7-0.1c0.2,0,0.5-0.1,0.8-0.1c0.3-0.1,0.6-0.1,0.8-0.1c0.5,0,0.9,0.1,1.3,0.2
		c0.4,0.2,0.6,0.5,0.6,1v1.8c0,0.1,0,0.5,0.1,0.9c0.1,0.5,0.1,0.8,0.1,1c0,0.3-0.1,0.5-0.2,0.8c-0.1,0.2-0.3,0.6-0.5,0.9
		c-0.1,0.1-0.2,0.3-0.4,0.5c-0.2,0.3-0.4,0.5-0.6,0.8c-0.2,0.3-0.4,0.6-0.6,0.9c-0.2,0.3-0.3,0.5-0.4,0.6c-0.2,0.4-0.5,0.8-0.6,1.2
		c-0.2,0.4-0.4,0.8-0.6,1.2c-0.2,0.4-0.5,0.8-0.8,1.1c-0.3,0.4-0.5,0.7-0.8,1.1c0,0.1-0.2,0.3-0.4,0.7c-0.2,0.4-0.4,0.9-0.7,1.3
		c-0.2,0.5-0.5,0.9-0.7,1.3c-0.2,0.4-0.3,0.6-0.3,0.7c-0.1,0.2-0.2,0.4-0.2,0.5c-0.1,0.1-0.2,0.3-0.4,0.6c-0.2,0.2-0.3,0.4-0.4,0.7
		c-0.1,0.2-0.2,0.5-0.2,0.7c0,0.1,0,0.1,0.1,0.2c0,0.1,0.1,0.2,0.3,0.3c0.2,0.1,0.3,0.1,0.5,0.1s0.3,0,0.5,0.1c0.1,0,0.3,0,0.4,0.1
		c0.1,0,0.3,0.1,0.4,0.1c0.1,0,0.2,0,0.4-0.1c0.2-0.1,0.4-0.1,0.4-0.1c0.1,0,0.4,0,0.8,0.1c0.4,0.1,0.7,0.1,0.8,0.1
		c0.3,0,0.6,0,0.8-0.1c0.2-0.1,0.5-0.1,0.7-0.2c0.3-0.1,0.6-0.2,0.7-0.3c0.1,0,0.3-0.1,0.4-0.1c0,0,0.1,0,0.3,0
		c0.2,0,0.3,0.1,0.5,0.2c0.2,0.1,0.3,0.3,0.4,0.6c0.1,0.3,0.2,0.7,0.2,1.1v0.4c0,0.3,0.1,0.7,0.2,1c0.1,0.3,0.2,0.6,0.2,1
		c0,0.3-0.1,0.6-0.3,1c-0.2,0.3-0.4,0.6-0.6,0.8c-0.5,0.4-1.1,0.6-1.9,0.7c-0.8,0.1-1.5,0.2-2.1,0.2h-0.3c-0.1,0-0.3,0-0.5,0
		c-0.2,0-0.5,0-0.8,0c-0.3,0-0.5,0-0.8,0c-0.3,0-0.4,0-0.5,0c-0.1,0-0.3,0-0.6-0.1c-0.3,0-0.6-0.1-1-0.1c-0.3,0-0.7-0.1-1-0.1
		c-0.3,0-0.5,0-0.7,0h-2.1c-0.2,0-0.5,0.1-1.1,0.2c-0.6,0.1-0.9,0.1-1.1,0.1c-1,0-1.7-0.1-2-0.4c-0.3-0.3-0.5-0.7-0.5-1.2
		c0-0.2,0-0.5,0.1-1.1c0.1-0.5,0.1-0.9,0.1-1.1c0-0.1,0-0.2,0-0.4s0-0.3,0-0.4c0-0.2,0-0.5,0.1-0.7c0.1-0.3,0.3-0.5,0.4-0.8
		c0.2-0.2,0.4-0.5,0.5-0.7c0.1-0.1,0.2-0.3,0.4-0.7c0.2-0.3,0.4-0.7,0.6-1.1c0.2-0.4,0.4-0.7,0.6-1.1c0.2-0.3,0.3-0.6,0.4-0.7
		c0.2-0.3,0.4-0.6,0.5-0.9c0.2-0.3,0.4-0.6,0.5-0.9c0.1-0.2,0.3-0.5,0.4-0.7c0.1-0.2,0.3-0.5,0.4-0.7c0.1-0.2,0.2-0.3,0.3-0.4
		c0.1-0.1,0.2-0.3,0.3-0.4c0.1-0.2,0.2-0.4,0.3-0.7c0.1-0.2,0.2-0.4,0.3-0.6c0.2-0.6,0.6-1.1,1-1.7c0.1-0.1,0.2-0.2,0.3-0.3
		c0.1-0.1,0.2-0.2,0.3-0.3c0.2-0.3,0.5-0.7,0.7-1.2c0.3-0.5,0.4-0.9,0.4-1.2c0-0.5-0.2-0.8-0.5-0.9c-0.3-0.1-0.7-0.2-0.9-0.2H198.6z
		"/>
	<path class="st0" d="M78.3,114.1c0,0.1,0,0.4,0.1,0.8c0,0.4,0.1,0.7,0.1,0.8c0,0.3,0,0.6,0,0.9c0,0.3,0,0.6-0.1,0.9
		c0,0.1,0,0.3,0,0.6c0,0.3,0,0.6,0,0.9s0,0.6,0,0.9c0,0.3,0,0.5,0,0.6c0,0.3,0,0.7,0.1,1.2c0.1,0.4,0.1,0.8,0.2,1.2
		c0.1,0.3,0.2,0.6,0.3,0.8c0,0.1,0.1,0.3,0.1,0.6c0,0.4,0,0.6-0.1,0.8c0,0.1-0.1,0.2-0.2,0.3c-0.2,0.4-0.4,0.6-0.7,0.6
		c-0.2,0.1-0.5,0.1-0.8,0.1c-0.1,0-0.2,0-0.4,0c-0.2,0-0.4,0-0.7-0.1c-0.2,0-0.5,0-0.7-0.1c-0.2,0-0.4,0-0.5,0c-0.2,0-0.5,0-1,0.1
		s-0.8,0.1-1,0.1c-0.4,0-0.6-0.1-0.8-0.4c-0.1-0.1-0.1-0.2-0.2-0.3c0-0.1-0.1-0.2-0.2-0.3c-0.1-0.2-0.3-0.3-0.5-0.3
		c-0.2,0-0.3,0-0.4,0.1c-0.1,0.1-0.4,0.3-0.7,0.5c-0.2,0.2-0.3,0.3-0.4,0.3c-0.2,0.1-0.3,0.2-0.4,0.2c-0.1,0-0.2,0.1-0.3,0.2
		c-0.1,0.1-0.3,0.1-0.5,0.2c-0.2,0.1-0.5,0.1-0.7,0.2c-0.2,0-0.5,0.1-0.7,0.1c-0.2,0-0.3,0-0.4,0c-0.4,0-0.7,0-1.1-0.1
		c-0.3,0-0.7-0.1-1-0.2c-0.1,0-0.3,0-0.5-0.1c-0.2,0-0.3,0-0.4,0s-0.3,0-0.4-0.1c-0.1,0-0.3-0.1-0.6-0.3c-0.3-0.1-0.6-0.2-0.7-0.3
		c-0.2-0.1-0.5-0.3-0.9-0.7c-0.3-0.2-0.6-0.5-0.9-0.6c-0.2-0.2-0.4-0.4-0.6-0.5c-0.2-0.2-0.3-0.4-0.5-0.6s-0.4-0.5-0.6-0.8
		c-0.2-0.2-0.3-0.5-0.4-0.6c-0.1-0.2-0.2-0.3-0.2-0.5c-0.1-0.2-0.1-0.3-0.1-0.5c0-0.2-0.1-0.4-0.1-0.7c0-0.2-0.1-0.3-0.1-0.5
		c0-0.1-0.1-0.3-0.2-0.5c-0.1-0.6-0.2-1-0.3-1.4c0-0.3-0.1-0.7-0.1-0.9v-0.7c0-0.4,0-0.8,0.1-1.1c0,0,0-0.1,0.1-0.3
		c0.1-0.2,0.1-0.4,0.2-0.7c0.1-0.2,0.1-0.5,0.2-0.6c0.1-0.2,0.1-0.3,0.1-0.3c0.1-0.2,0.2-0.3,0.3-0.5c0.1-0.1,0.1-0.2,0.1-0.3
		s0-0.2,0.1-0.3s0.1-0.2,0.2-0.3c0.1-0.1,0.2-0.3,0.2-0.4c0.1-0.1,0.1-0.3,0.2-0.4c0.1-0.1,0.2-0.3,0.3-0.4c0.1-0.2,0.2-0.3,0.4-0.4
		s0.3-0.2,0.4-0.3c0.5-0.5,0.9-0.8,1.1-0.9c0.3-0.2,0.7-0.3,1.4-0.5c0.3-0.1,0.6-0.1,0.9-0.1c0.3,0,0.6-0.1,0.9-0.1
		c0.3,0,0.6-0.1,0.9-0.1c0.3-0.1,0.6-0.1,0.9-0.1c0.2,0,0.3,0,0.5,0s0.3,0,0.5-0.1c0.2,0,0.4,0,0.5-0.1c0.2,0,0.4-0.1,0.6-0.1
		c0.2,0,0.5,0,0.9,0.1c0.5,0.1,0.8,0.1,1.2,0.2c0.2,0.1,0.4,0.1,0.5,0.2c0.3,0.1,0.5,0.1,0.6,0.1c0.2,0,0.3-0.1,0.5-0.2
		c0.2-0.1,0.3-0.3,0.3-0.4c0-0.1,0.1-0.2,0.1-0.5c0-0.2,0-0.4,0-0.5c0-0.1,0-0.3-0.1-0.6s-0.1-0.5-0.1-0.6c-0.1-0.3-0.1-0.5-0.2-0.6
		c0-0.1-0.2-0.3-0.4-0.5c-0.1-0.1-0.3-0.3-0.5-0.4c-0.2-0.1-0.6-0.2-1.2-0.3c-0.1,0-0.3,0-0.4,0c-0.1,0-0.3,0-0.4-0.1
		c-0.2,0-0.3,0-0.5-0.1c-0.2,0-0.3-0.1-0.5-0.1c-0.1,0-0.2,0-0.3,0c-0.1,0-0.4,0.1-0.7,0.1c-0.7,0.1-1.1,0.2-1.3,0.3
		c-0.2,0.1-0.4,0.2-0.7,0.4c-0.2,0.1-0.3,0.2-0.5,0.3c-0.2,0.1-0.3,0.2-0.5,0.3c-0.3,0.2-0.6,0.3-0.9,0.3c-0.3,0-0.6,0-0.7,0
		c-0.3,0-0.6-0.1-0.9-0.4c-0.3-0.2-0.5-0.6-0.7-1.1c0-0.1-0.1-0.3-0.1-0.6c0-0.3,0-0.6-0.1-0.9c0-0.3,0-0.7-0.1-1.1
		c0-0.3,0-0.6,0.1-0.7c0.1-0.2,0.1-0.3,0.2-0.5c0.2-0.4,0.5-0.7,1-1c0.5-0.3,0.9-0.4,1.2-0.5c0.1,0,0.3-0.1,0.6-0.2
		c0.3-0.1,0.6-0.1,1-0.2c0.3-0.1,0.7-0.1,1-0.1c0.3,0,0.6-0.1,0.8-0.1h0.8H67c0,0,0.1,0,0.1,0.1h0.1h0.1h0.4c0.1,0,0.3,0,0.5,0
		c0.2,0,0.5,0,0.8-0.1c0.3,0,0.5,0,0.8-0.1c0.3,0,0.4,0,0.5,0c0.5,0,1,0.1,1.5,0.2c0.5,0.1,1,0.2,1.5,0.4c0.5,0.2,0.8,0.3,1.2,0.5
		c0.3,0.2,0.6,0.3,0.7,0.4c0.1,0.1,0.3,0.3,0.5,0.4c0.2,0.2,0.4,0.4,0.6,0.6s0.4,0.4,0.5,0.6c0.2,0.2,0.3,0.3,0.3,0.4
		c0.2,0.2,0.4,0.6,0.5,1.2c0.2,0.6,0.3,1,0.4,1.4c0.1,0.3,0.2,0.7,0.2,1.2c0.1,0.5,0.1,0.9,0.1,1.3c0,0.4,0.1,0.8,0.1,1.1
		c0,0.3,0,0.5,0,0.5c0,0.1,0,0.4-0.1,0.8c-0.1,0.4-0.1,0.7-0.1,0.8c0,0.1,0,0.3,0,0.7c0,0.4,0,0.6,0,0.8c0,0.1,0,0.5-0.1,0.9
		c0,0.5-0.1,0.8-0.1,1V114.1z M66.6,113c-0.4,0-0.8,0.1-1.2,0.2c-0.4,0.2-0.8,0.3-1.1,0.5c-0.4,0.3-0.7,0.7-1,1.4
		c-0.3,0.6-0.4,1.2-0.4,1.5c0,0.6,0.1,1,0.2,1.3c0.1,0.3,0.2,0.6,0.4,0.9c0.2,0.3,0.4,0.6,0.6,0.9c0.2,0.3,0.6,0.5,1.2,0.8
		c0.2,0.1,0.3,0.1,0.4,0.1c0.1,0,0.3,0,0.7,0c0.1,0,0.2,0,0.4,0c0.2,0,0.3,0,0.4,0c0.1,0,0.2,0,0.3-0.1c0.1,0,0.2,0,0.3-0.1
		c0.1,0,0.2-0.1,0.3-0.1c0.1,0,0.3-0.1,0.4-0.1c0.1,0,0.2,0,0.4-0.1c0.2,0,0.5-0.1,0.9-0.3c0.3-0.2,0.6-0.4,1-0.8
		c0.6-0.6,0.9-1.2,1.1-1.7c0.1-0.5,0.2-1,0.2-1.4c0-0.2,0-0.4-0.1-0.5c-0.1-0.2-0.2-0.4-0.3-0.6c-0.2-0.2-0.3-0.4-0.4-0.5
		c-0.1-0.3-0.3-0.5-0.4-0.6c-0.1-0.1-0.2-0.2-0.3-0.3c-0.1-0.1-0.2-0.1-0.3-0.2c-0.2-0.1-0.4-0.1-0.6-0.2c-0.3-0.1-0.6-0.1-1.1-0.2
		c-0.2-0.1-0.4-0.1-0.7-0.1C67.4,113,67,113,66.6,113z"/>
	<path class="st0" d="M105.2,120.8c0,0.6,0.1,1.2,0.2,1.9c0.1,0.6,0.2,1,0.2,1.2c0,0.2,0,0.3,0,0.4c0,0.5-0.1,0.9-0.4,1.3
		c-0.2,0.3-0.8,0.5-1.7,0.5c-0.1,0-0.4,0-0.9,0c-0.4,0-0.7,0-0.9,0c-0.1,0-0.4,0-0.8,0c-0.4,0-0.6,0-0.7,0c-0.8,0-1.3-0.3-1.5-0.8
		c-0.2-0.5-0.3-1.2-0.3-1.9c0-0.4,0-0.7,0.1-0.8l0.2-0.9v-1.3c0-0.2,0.1-0.4,0.1-0.6c0-0.2,0-0.4,0-0.6c0-0.1,0-0.3-0.1-0.6
		c0-0.3-0.1-0.5-0.1-0.6c0-0.1,0-0.2,0-0.5c0-0.2,0-0.4,0-0.5c0-0.1,0-0.2,0-0.5c0-0.3,0-0.4,0-0.5c0-0.2,0-0.5,0-0.7
		c0-0.2,0-0.5,0-0.7c0-0.1,0-0.4-0.1-0.9c-0.1-0.5-0.1-0.8-0.1-0.9c0-0.1,0-0.4,0.1-0.9c0.1-0.5,0.1-0.8,0.1-1v-1.9
		c0-0.3,0-0.5,0-0.8c0-0.2,0-0.5,0-0.8c0-0.2,0-0.5,0.1-1c0-0.5,0.1-0.9,0.1-1c0-0.1,0-0.4,0-0.9c0-0.4,0-0.7-0.1-0.9
		c0-0.3,0-0.6,0-0.7c0-0.1-0.1-0.4-0.1-0.8c0-0.2-0.1-0.3-0.1-0.4c0-0.1,0-0.3,0-0.4c0-0.2,0-0.5,0.1-0.8c0.1-0.3,0.2-0.6,0.3-0.9
		c0.2-0.3,0.4-0.5,0.7-0.7c0.3-0.2,0.7-0.3,1.2-0.3c0.1,0,0.5,0,0.9,0.1c0.5,0.1,0.8,0.1,0.9,0.1c0.1,0,0.2,0,0.3,0
		c0.1,0,0.3,0,0.5,0c0.2,0,0.3-0.1,0.5-0.1c0.1,0,0.2,0,0.3,0c0.2,0,0.3,0,0.4,0.1c0.4,0.1,0.6,0.3,0.7,0.5c0.1,0.3,0.2,0.5,0.2,0.8
		c0.1,0.5,0.1,0.8,0.2,1c0.1,0.2,0.2,0.3,0.4,0.3c0.2,0,0.3-0.1,0.4-0.2c0.1-0.1,0.2-0.3,0.4-0.6c0.3-0.4,0.7-0.8,1.1-1.1
		c0.5-0.4,1.1-0.6,1.8-0.8c0.2-0.1,0.6-0.1,1.1-0.2c0.5-0.1,0.9-0.1,1.1-0.1c0.3,0,0.9,0.1,1.7,0.3c0.8,0.2,1.6,0.7,2.4,1.4
		c0.5,0.5,0.8,0.8,1,1.1c0.2,0.3,0.5,0.7,0.7,1.2c0.3,0.6,0.5,1.1,0.5,1.6c0.1,0.5,0.1,1,0.1,1.7c0,0.1,0,0.3,0.1,0.7
		c0,0.3,0.1,0.6,0.1,0.7s0,0.3-0.1,0.7c0,0.4-0.1,0.6-0.1,0.7c0,0.1,0,0.4,0,0.9c0,0.5,0,0.8,0,1c0,0.1,0,0.5-0.1,0.9
		c0,0.5-0.1,0.8-0.1,1c0,0.1,0,0.3,0.1,0.6c0,0.3,0.1,0.5,0.1,0.6v1.3c0,0.1,0,0.3,0,0.5c0,0.3,0,0.5,0,0.9c0,0.3,0,0.6,0,0.9
		c0,0.3,0,0.4,0,0.5c0,0.1,0,0.4-0.1,0.8c-0.1,0.4-0.1,0.7-0.1,0.8c0,0.2,0,0.4,0,0.5c0,0.2,0,0.4,0,0.5v0.9c0,0,0,0.1,0,0.3
		c0,0.1,0,0.3,0.1,0.5c0,0.2,0,0.3,0.1,0.5c0,0.2,0,0.3,0,0.3c0,0.2,0.1,0.4,0.1,0.6s0,0.4,0,0.6c0,0.6-0.1,1.1-0.2,1.6
		c-0.2,0.5-0.6,0.7-1.4,0.7c-0.1,0-0.4,0-0.9-0.1c-0.4,0-0.7-0.1-0.9-0.1c-0.1,0-0.5,0-0.9,0.1c-0.5,0-0.8,0.1-1,0.1
		c-0.8,0-1.3-0.3-1.5-0.8c-0.2-0.5-0.3-1.1-0.3-1.7c0-0.1,0-0.2,0-0.3c0-0.1,0-0.2,0.1-0.4c0.1-0.5,0.1-1,0.2-1.5s0.1-1,0.1-1.5
		c0-0.1,0-0.4,0-0.8c0-0.4,0-0.8-0.1-1.2c0-0.4,0-0.8-0.1-1.2c0-0.4,0-0.6,0-0.8c0-0.1,0-0.4,0-0.8c0-0.4,0-0.8,0-1.2
		c0-0.4,0-0.8,0-1.2c0-0.4,0-0.7,0-0.9c0-0.1,0-0.3-0.1-0.5c0-0.3-0.1-0.5-0.1-0.5v-1.5c0-1.1-0.2-1.9-0.5-2.4
		c-0.3-0.5-0.6-0.8-0.9-0.9c-0.3-0.2-0.5-0.3-0.6-0.3c-0.1,0-0.4-0.1-0.8-0.1s-0.8,0.1-1.2,0.3c-0.4,0.2-0.9,0.7-1.5,1.7
		c-0.2,0.3-0.4,0.5-0.5,0.8c-0.1,0.2-0.2,0.5-0.3,0.8c-0.1,0.3-0.1,0.6-0.2,1c0,0.4-0.1,0.9-0.1,1.5c0,0.1,0,0.2,0,0.4
		c0,0.2,0,0.4,0,0.6c0,0.2,0,0.4,0,0.6c0,0.2,0,0.3,0,0.4s0,0.4-0.1,0.9c0,0.5-0.1,0.8-0.1,0.9c0,0.1,0,0.4,0.1,0.9
		c0.1,0.5,0.1,0.8,0.1,1c0,0.1,0,0.4-0.1,0.8c0,0.4-0.1,0.7-0.1,0.8V120.8z"/>
	<path class="st0" d="M122.4,110.9c0-0.5,0-0.9,0.1-1.3c0-0.3,0.1-0.9,0.3-1.6c0-0.3,0.1-0.6,0.1-0.8c0.1-0.2,0.1-0.4,0.1-0.5
		c0-0.2,0.1-0.3,0.1-0.5c0.1-0.2,0.1-0.4,0.2-0.7c0.1-0.1,0.1-0.3,0.2-0.5c0.1-0.2,0.2-0.4,0.3-0.7c0.1-0.2,0.2-0.4,0.3-0.6
		c0.1-0.2,0.2-0.4,0.3-0.6c0.6-1.1,1.1-1.8,1.5-2.1c0.4-0.3,0.7-0.6,1-0.9c0.4-0.3,0.7-0.5,1-0.7c0.3-0.2,0.5-0.3,0.8-0.4
		c0.2-0.1,0.5-0.2,0.7-0.3c0.3-0.1,0.6-0.2,0.9-0.3c0.2-0.1,0.3-0.1,0.5-0.2c0.2,0,0.3-0.1,0.5-0.2c0.3-0.1,0.7-0.2,1.1-0.2
		c0.4,0,0.8-0.1,1.2-0.1c0.3,0,0.6,0,0.9,0c0.3,0,0.6,0,0.9,0c0.5,0,0.9,0.1,1.4,0.1c0.4,0,0.9,0.1,1.3,0.3c0,0,0.2,0.1,0.4,0.2
		c0.2,0.1,0.5,0.2,0.7,0.3c0.3,0.1,0.6,0.3,1,0.5c0,0,0.1,0.1,0.3,0.2c0.2,0.1,0.4,0.3,0.6,0.4c0.2,0.1,0.4,0.3,0.6,0.4
		c0.2,0.1,0.3,0.2,0.3,0.3c0.2,0.2,0.5,0.5,0.8,0.9c0.3,0.4,0.5,0.7,0.7,1.1c0.2,0.4,0.4,0.7,0.5,1s0.2,0.5,0.3,0.6
		c0.2,0.5,0.3,0.9,0.4,1.5c0.1,0.5,0.2,1,0.2,1.5c0.1,0.5,0.1,0.8,0.1,1.1s0,0.5,0,0.5c0,0.2,0,0.4-0.1,0.5c0,0.1-0.1,0.3-0.2,0.6
		c-0.1,0.4-0.2,0.6-0.3,0.8c-0.1,0.1-0.2,0.3-0.5,0.6c-0.5,0.5-0.8,0.8-1.2,0.8c-0.3,0.1-0.8,0.1-1.4,0.1h-0.8c-0.1,0-0.2,0-0.5,0
		c-0.2,0-0.4,0-0.5,0c-0.1,0-0.3,0-0.7,0.1c-0.4,0-0.6,0.1-0.7,0.1c-0.1,0-0.3,0-0.5,0c-0.2,0-0.5,0-0.7,0c-0.3,0-0.5,0-0.8,0
		c-0.2,0-0.4,0-0.5,0h-0.9c-0.2,0-0.4,0-0.5,0c-0.2,0-0.4,0-0.5,0c-0.1,0-0.3,0-0.7,0.1c-0.4,0-0.6,0.1-0.8,0.1c-0.1,0-0.3,0-0.6,0
		c-0.3,0-0.5,0-0.7,0c-0.5,0-0.8,0.2-1,0.7c-0.2,0.5-0.3,0.8-0.3,1.1c0,0.6,0,1.2,0.1,1.7c0.1,0.5,0.3,1.2,0.8,2.1
		c0.3,0.7,0.7,1.2,1.2,1.6c0.5,0.4,0.9,0.7,1.4,0.8c0.5,0.2,0.9,0.3,1.3,0.3c0.4,0,0.7,0.1,1,0.1c0.2,0,0.5,0,0.7,0
		c0.2,0,0.5,0,0.7-0.1c0.4-0.1,0.9-0.2,1.5-0.5c0.6-0.3,1.1-0.5,1.5-0.9c0.2-0.2,0.5-0.4,0.7-0.6c0.2-0.2,0.4-0.4,0.6-0.5
		c0.1-0.1,0.3-0.1,0.6-0.1c0.5,0,0.8,0.1,1,0.4c0.2,0.3,0.3,0.5,0.4,0.7c0.1,0.1,0.2,0.3,0.3,0.7c0.1,0.4,0.2,0.6,0.3,0.7
		c0.1,0.3,0.3,0.5,0.5,0.7c0.2,0.2,0.4,0.4,0.5,0.6c0.2,0.3,0.3,0.5,0.3,0.8c0,0.2,0,0.4,0,0.5c0,0.6-0.2,1.1-0.6,1.4
		c-0.4,0.4-0.8,0.6-1.3,0.8c-0.3,0.1-0.5,0.2-0.8,0.3c-0.2,0.1-0.5,0.1-0.8,0.2c-0.3,0.1-0.6,0.2-0.9,0.3c-0.3,0.1-0.6,0.2-0.9,0.3
		c0,0-0.2,0-0.5,0.1c-0.3,0-0.7,0.1-1.1,0.1c-0.4,0.1-0.8,0.1-1.2,0.1c-0.4,0-0.7,0.1-1,0.1c-0.9,0-1.8,0-2.7-0.1
		c-0.9-0.1-1.5-0.2-1.7-0.2c0,0-0.1,0-0.3-0.1c-0.2-0.1-0.3-0.1-0.5-0.2c-0.2-0.1-0.4-0.1-0.7-0.2c-0.1,0-0.2-0.1-0.5-0.3
		c-0.2-0.1-0.4-0.2-0.5-0.3c-0.3-0.1-0.6-0.4-1.1-0.7c-0.5-0.3-0.9-0.7-1.4-1.2c-0.5-0.5-0.9-1-1.4-1.7s-0.9-1.3-1.2-2.1
		c-0.4-1-0.7-1.8-0.8-2.2s-0.2-0.8-0.2-1.2c0-0.2-0.1-0.5-0.1-0.7s-0.1-0.4-0.1-0.7c0-0.1-0.1-0.4-0.1-0.8c0-0.4,0-0.8-0.1-1.2
		c0-0.4,0-0.8,0-1.2C122.4,111.3,122.4,111,122.4,110.9z M134.2,102.8c-0.1,0-0.3,0-0.7,0.1c-0.4,0.1-0.6,0.1-0.7,0.1
		c-0.2,0.1-0.4,0.2-0.7,0.3c-0.3,0.2-0.5,0.3-0.7,0.4c-0.5,0.5-0.9,1-1,1.6c-0.2,0.6-0.3,1-0.3,1.2c0,0.4,0.1,0.6,0.3,0.8
		c0.1,0.1,0.4,0.2,0.8,0.2c0.4,0,0.7,0.1,0.7,0.1c0.1,0,0.2,0,0.4,0c0.2,0,0.3,0,0.4,0c0.1,0,0.4,0,0.8,0.1c0.4,0.1,0.7,0.1,0.8,0.1
		c0.1,0,0.2,0,0.5-0.1c0.3-0.1,0.4-0.1,0.5-0.1c0.1,0,0.3-0.1,0.6-0.1c0.4,0,0.8,0,1.3-0.1c0.5-0.1,0.8-0.3,0.8-0.7
		c0-0.8-0.2-1.6-0.6-2.3s-0.9-1.2-1.5-1.4c0,0-0.2,0-0.6-0.1c-0.4-0.1-0.7-0.1-0.9-0.1H134.2z"/>
	<path class="st0" d="M146.6,103.2c-0.2-0.3-0.3-0.7-0.4-1.1c-0.1-0.4-0.2-0.9-0.2-1.4c0-0.1,0-0.3,0-0.6c0-0.4,0.1-0.7,0.2-0.9
		c0.1-0.2,0.3-0.3,0.5-0.5c0.2-0.2,0.4-0.2,0.7-0.2c0.1,0,0.3,0,0.4,0.1c0.1,0,0.3,0.1,0.4,0.1c0.1,0,0.2,0.1,0.3,0.1
		c0.1,0,0.2,0,0.3,0h0.3c0.1,0,0.2,0,0.4,0c0.2,0,0.4,0,0.7-0.1c0.2,0,0.5-0.1,0.7-0.1c0.2,0,0.4,0,0.5,0c0.4,0,0.7,0.1,0.9,0.2
		c0.2,0.2,0.4,0.3,0.5,0.6c0.1,0.2,0.2,0.5,0.3,0.7c0.1,0.2,0.1,0.4,0.1,0.6c0,0.3,0.1,0.5,0.1,0.8c0,0.2,0.1,0.5,0.2,0.8
		c0.1,0.3,0.1,0.6,0.2,0.8c0.1,0.3,0.2,0.6,0.2,0.8c0.1,0.2,0.1,0.4,0.1,0.5c0,0.2,0,0.4,0.1,0.5c0.1,0.3,0.1,0.5,0.2,0.8
		c0.1,0.3,0.2,0.5,0.2,0.8c0.1,0.3,0.1,0.6,0.2,0.9c0.1,0.3,0.1,0.6,0.2,0.9c0.1,0.2,0.1,0.3,0.2,0.5c0.1,0.2,0.1,0.3,0.2,0.5
		c0.1,0.2,0.1,0.3,0.1,0.5c0,0.1,0.1,0.3,0.1,0.5l0.3,0.8c0,0.1,0.1,0.3,0.2,0.7c0.1,0.4,0.2,0.7,0.2,1.1c0.1,0.4,0.1,0.7,0.2,1
		c0.1,0.3,0.1,0.5,0.1,0.5v0.5c0,0.2,0.1,0.4,0.2,0.5c0.1,0.1,0.2,0.2,0.3,0.2c0.2,0,0.4-0.2,0.4-0.6c0-0.1,0-0.2,0-0.3
		c0-0.2,0-0.3,0-0.3c0-0.1,0-0.1,0.1-0.1c0-0.1,0-0.3,0.1-0.6c0.1-0.3,0.1-0.5,0.1-0.6c0.1-0.2,0.1-0.5,0.1-0.7c0-0.2,0-0.5,0.1-0.8
		c0-0.2,0.1-0.5,0.2-0.7c0.1-0.2,0.1-0.5,0.2-0.7c0.2-0.7,0.3-1.3,0.3-1.9c0-0.2,0.1-0.4,0.1-0.6s0.1-0.4,0.1-0.6
		c0.1-0.5,0.2-1,0.4-1.4c0.2-0.5,0.3-0.9,0.4-1.4c0-0.1,0-0.3,0-0.4s0-0.2,0.1-0.4c0.1-0.5,0.2-0.8,0.2-1c0-0.2,0-0.4,0.1-0.6
		c0.1-0.7,0.2-1.3,0.3-1.7c0.1-0.4,0.3-0.8,0.6-1c0.1-0.1,0.3-0.3,0.6-0.4c0.3-0.1,0.6-0.2,0.8-0.2c0.2,0,0.3,0,0.5,0.1
		c0.2,0,0.3,0.1,0.5,0.1c0.2,0,0.3,0.1,0.5,0.1c0.2,0,0.3,0,0.5,0c0.1,0,0.2,0,0.4,0c0.2,0,0.4,0,0.6-0.1c0.2,0,0.4,0,0.5,0
		c0.2,0,0.3,0,0.4,0s0.2,0,0.5,0c0.3,0,0.4,0,0.5,0c0.1,0,0.2,0.1,0.4,0.3c0.2,0.2,0.3,0.5,0.3,1c0,0.6,0,1-0.1,1.3
		c-0.1,0.3-0.2,0.6-0.3,0.9c-0.2,0.3-0.3,0.8-0.5,1.3c-0.2,0.5-0.3,1-0.5,1.5c-0.2,0.5-0.3,1-0.4,1.4c-0.1,0.5-0.2,0.8-0.3,1
		c0,0,0,0.3-0.1,0.7c-0.1,0.4-0.2,0.8-0.3,1.3c-0.1,0.5-0.2,0.8-0.3,1.2c-0.1,0.3-0.1,0.5-0.1,0.5c-0.1,0.4-0.2,0.7-0.3,1
		c-0.1,0.3-0.2,0.6-0.3,0.9c-0.2,0.6-0.3,1.1-0.4,1.5c-0.1,0.4-0.2,0.8-0.3,1.2c-0.1,0.4-0.2,0.7-0.2,0.9c0,0.2-0.1,0.4-0.1,0.5
		c0,0.2,0,0.4-0.1,0.5c-0.1,0.3-0.3,0.7-0.4,1c-0.2,0.3-0.3,0.7-0.4,1.1c-0.1,0.2-0.1,0.3-0.1,0.5c0,0.2-0.1,0.3-0.1,0.5
		c-0.1,0.2-0.1,0.3-0.2,0.5c0,0.2-0.1,0.3-0.1,0.5c0,0.2-0.1,0.3-0.1,0.5c0,0.1,0,0.3-0.1,0.5c0,0.1,0,0.3-0.1,0.7
		c-0.1,0.4-0.1,0.6-0.2,0.8c-0.1,0.6-0.3,1-0.5,1.4c-0.3,0.4-0.7,0.6-1.2,0.6c-0.2,0-0.5,0-1-0.1c-0.5,0-0.9-0.1-1-0.1
		c-0.1,0-0.3,0-0.5,0c-0.2,0-0.4,0-0.7,0c-0.3,0-0.5,0-0.7,0c-0.2,0-0.4,0-0.5,0c-0.1,0-0.3,0-0.5,0c-0.2,0-0.4-0.1-0.6-0.2
		c-0.2-0.1-0.4-0.3-0.6-0.6c-0.2-0.3-0.4-0.7-0.6-1.1c-0.1-0.2-0.2-0.6-0.3-1.1c-0.1-0.5-0.3-1.1-0.4-1.7c-0.1-0.6-0.3-1.1-0.3-1.6
		c-0.1-0.5-0.1-0.8-0.2-0.8c-0.1-0.4-0.3-0.8-0.5-1.2c-0.2-0.4-0.3-0.8-0.4-1.2c0-0.2-0.1-0.4-0.1-0.5c0-0.2,0-0.4-0.1-0.5
		c-0.1-0.3-0.1-0.6-0.2-0.7c0-0.1-0.1-0.3-0.2-0.5c-0.1-0.2-0.2-0.5-0.3-0.7c-0.1-0.3-0.2-0.5-0.3-0.7c-0.1-0.2-0.1-0.4-0.2-0.5
		c-0.1-0.2-0.1-0.5-0.2-0.7c0-0.2-0.1-0.4-0.2-0.7c-0.1-0.3-0.2-0.6-0.3-0.8c-0.1-0.3-0.2-0.6-0.3-0.8c-0.1-0.2-0.1-0.4-0.1-0.6
		s-0.1-0.4-0.1-0.6c0-0.1-0.1-0.3-0.2-0.7c-0.1-0.4-0.2-0.8-0.4-1.2c-0.1-0.4-0.3-0.8-0.4-1.1c-0.1-0.3-0.2-0.5-0.2-0.6L146.6,103.2
		z"/>
	<path class="st0" d="M168.6,110.9c0-0.5,0-0.9,0.1-1.3c0-0.3,0.1-0.9,0.3-1.6c0-0.3,0.1-0.6,0.1-0.8c0.1-0.2,0.1-0.4,0.1-0.5
		c0-0.2,0.1-0.3,0.1-0.5c0.1-0.2,0.1-0.4,0.2-0.7c0.1-0.1,0.1-0.3,0.2-0.5c0.1-0.2,0.2-0.4,0.3-0.7c0.1-0.2,0.2-0.4,0.3-0.6
		c0.1-0.2,0.2-0.4,0.3-0.6c0.6-1.1,1.1-1.8,1.5-2.1c0.4-0.3,0.7-0.6,1-0.9c0.4-0.3,0.7-0.5,1-0.7c0.3-0.2,0.5-0.3,0.8-0.4
		c0.2-0.1,0.5-0.2,0.7-0.3c0.3-0.1,0.6-0.2,0.9-0.3c0.2-0.1,0.3-0.1,0.5-0.2c0.2,0,0.3-0.1,0.5-0.2c0.3-0.1,0.7-0.2,1.1-0.2
		c0.4,0,0.8-0.1,1.2-0.1c0.3,0,0.6,0,0.9,0c0.3,0,0.6,0,0.9,0c0.5,0,0.9,0.1,1.4,0.1c0.4,0,0.9,0.1,1.3,0.3c0,0,0.2,0.1,0.4,0.2
		c0.2,0.1,0.5,0.2,0.7,0.3c0.3,0.1,0.6,0.3,1,0.5c0,0,0.1,0.1,0.3,0.2c0.2,0.1,0.4,0.3,0.6,0.4c0.2,0.1,0.4,0.3,0.6,0.4
		c0.2,0.1,0.3,0.2,0.3,0.3c0.2,0.2,0.5,0.5,0.8,0.9c0.3,0.4,0.5,0.7,0.7,1.1c0.2,0.4,0.4,0.7,0.5,1s0.2,0.5,0.3,0.6
		c0.2,0.5,0.3,0.9,0.4,1.5c0.1,0.5,0.2,1,0.2,1.5c0.1,0.5,0.1,0.8,0.1,1.1s0,0.5,0,0.5c0,0.2,0,0.4-0.1,0.5c0,0.1-0.1,0.3-0.2,0.6
		c-0.1,0.4-0.2,0.6-0.3,0.8c-0.1,0.1-0.2,0.3-0.5,0.6c-0.5,0.5-0.8,0.8-1.2,0.8c-0.3,0.1-0.8,0.1-1.4,0.1h-0.8c-0.1,0-0.2,0-0.5,0
		c-0.2,0-0.4,0-0.5,0c-0.1,0-0.3,0-0.7,0.1c-0.4,0-0.6,0.1-0.7,0.1c-0.1,0-0.3,0-0.5,0c-0.2,0-0.5,0-0.7,0c-0.3,0-0.5,0-0.8,0
		c-0.2,0-0.4,0-0.5,0h-0.9c-0.2,0-0.4,0-0.5,0c-0.2,0-0.4,0-0.5,0c-0.1,0-0.3,0-0.7,0.1c-0.4,0-0.6,0.1-0.8,0.1c-0.1,0-0.3,0-0.6,0
		c-0.3,0-0.5,0-0.7,0c-0.5,0-0.8,0.2-1,0.7c-0.2,0.5-0.3,0.8-0.3,1.1c0,0.6,0,1.2,0.1,1.7c0.1,0.5,0.3,1.2,0.8,2.1
		c0.3,0.7,0.7,1.2,1.2,1.6c0.5,0.4,0.9,0.7,1.4,0.8c0.5,0.2,0.9,0.3,1.3,0.3c0.4,0,0.7,0.1,1,0.1c0.2,0,0.5,0,0.7,0
		c0.2,0,0.5,0,0.7-0.1c0.4-0.1,0.9-0.2,1.5-0.5c0.6-0.3,1.1-0.5,1.5-0.9c0.2-0.2,0.5-0.4,0.7-0.6c0.2-0.2,0.4-0.4,0.6-0.5
		c0.1-0.1,0.3-0.1,0.6-0.1c0.5,0,0.8,0.1,1,0.4c0.2,0.3,0.3,0.5,0.4,0.7c0.1,0.1,0.2,0.3,0.3,0.7c0.1,0.4,0.2,0.6,0.3,0.7
		c0.1,0.3,0.3,0.5,0.5,0.7c0.2,0.2,0.4,0.4,0.5,0.6c0.2,0.3,0.3,0.5,0.3,0.8c0,0.2,0,0.4,0,0.5c0,0.6-0.2,1.1-0.6,1.4
		c-0.4,0.4-0.8,0.6-1.3,0.8c-0.3,0.1-0.5,0.2-0.8,0.3c-0.2,0.1-0.5,0.1-0.8,0.2c-0.3,0.1-0.6,0.2-0.9,0.3c-0.3,0.1-0.6,0.2-0.9,0.3
		c0,0-0.2,0-0.5,0.1c-0.3,0-0.7,0.1-1.1,0.1c-0.4,0.1-0.8,0.1-1.2,0.1c-0.4,0-0.7,0.1-1,0.1c-0.9,0-1.8,0-2.7-0.1
		c-0.9-0.1-1.5-0.2-1.7-0.2c0,0-0.1,0-0.3-0.1c-0.2-0.1-0.3-0.1-0.5-0.2c-0.2-0.1-0.4-0.1-0.7-0.2c-0.1,0-0.2-0.1-0.5-0.3
		c-0.2-0.1-0.4-0.2-0.5-0.3c-0.3-0.1-0.6-0.4-1.1-0.7c-0.5-0.3-0.9-0.7-1.4-1.2c-0.5-0.5-0.9-1-1.4-1.7s-0.9-1.3-1.2-2.1
		c-0.4-1-0.7-1.8-0.8-2.2s-0.2-0.8-0.2-1.2c0-0.2-0.1-0.5-0.1-0.7s-0.1-0.4-0.1-0.7c0-0.1-0.1-0.4-0.1-0.8c0-0.4,0-0.8-0.1-1.2
		c0-0.4,0-0.8,0-1.2C168.6,111.3,168.6,111,168.6,110.9z M180.4,102.8c-0.1,0-0.3,0-0.7,0.1c-0.4,0.1-0.6,0.1-0.7,0.1
		c-0.2,0.1-0.4,0.2-0.7,0.3c-0.3,0.2-0.5,0.3-0.7,0.4c-0.5,0.5-0.9,1-1,1.6c-0.2,0.6-0.3,1-0.3,1.2c0,0.4,0.1,0.6,0.3,0.8
		c0.1,0.1,0.4,0.2,0.8,0.2c0.4,0,0.7,0.1,0.7,0.1c0.1,0,0.2,0,0.4,0c0.2,0,0.3,0,0.4,0c0.1,0,0.4,0,0.8,0.1c0.4,0.1,0.7,0.1,0.8,0.1
		c0.1,0,0.2,0,0.5-0.1c0.3-0.1,0.4-0.1,0.5-0.1c0.1,0,0.3-0.1,0.6-0.1c0.4,0,0.8,0,1.3-0.1c0.5-0.1,0.8-0.3,0.8-0.7
		c0-0.8-0.2-1.6-0.6-2.3s-0.9-1.2-1.5-1.4c0,0-0.2,0-0.6-0.1c-0.4-0.1-0.7-0.1-0.9-0.1H180.4z"/>
	<path class="st0" d="M202.5,100.9c0.2,0,0.3-0.1,0.5-0.2c0.1-0.1,0.3-0.3,0.5-0.4c0.2-0.2,0.4-0.4,0.6-0.6c0.2-0.2,0.4-0.4,0.6-0.5
		c0.2-0.1,0.5-0.3,0.8-0.4c0.3-0.1,0.7-0.2,1.1-0.3s0.7-0.2,1-0.2c0.3-0.1,0.6-0.1,0.7-0.1c0.5,0,1,0.1,1.6,0.2
		c0.6,0.2,0.9,0.3,1,0.3c0.2,0.1,0.5,0.2,0.7,0.3c0.2,0.2,0.7,0.5,1.2,1.1c0.2,0.2,0.5,0.4,0.7,0.6c0.2,0.2,0.5,0.2,0.7,0.2h0.2
		c0.2,0,0.4-0.1,0.6-0.2c0.2-0.1,0.5-0.3,1-0.8c0.2-0.2,0.7-0.5,1.4-0.8c0.7-0.4,1.4-0.6,2-0.7c0.2,0,0.3-0.1,0.5-0.1s0.3,0,0.5-0.1
		c0.2,0,0.4-0.1,0.6-0.1c0.2,0,0.3,0,0.4-0.1c0.1,0,0.3,0,0.5,0c0.2,0,0.4,0,0.7,0c0.4,0,0.8,0.1,1.4,0.3c0.5,0.2,0.8,0.4,0.8,0.4
		c0.2,0.1,0.4,0.3,0.7,0.5c0.3,0.3,0.5,0.4,0.6,0.5c0.1,0.1,0.3,0.3,0.3,0.4c0.1,0.1,0.2,0.3,0.3,0.4c0.1,0.1,0.2,0.2,0.3,0.3
		c0.1,0.1,0.2,0.2,0.3,0.4c0,0.1,0.1,0.3,0.3,0.6c0.2,0.3,0.3,0.6,0.3,0.6c0.1,0.3,0.2,0.7,0.3,1.2c0.1,0.5,0.1,0.8,0.1,0.9
		c0,0.1,0,0.2-0.1,0.5c0,0.3-0.1,0.5-0.1,0.5c0,0.1,0,0.3,0.1,0.7c0.1,0.4,0.1,0.6,0.1,0.8c0,0.2,0,0.5-0.1,0.7
		c0,0.2-0.1,0.5-0.1,0.7c0,0.3,0,0.5,0.1,0.8c0,0.2,0.1,0.5,0.1,0.8c0,0.1,0,0.3-0.1,0.7c-0.1,0.3-0.1,0.6-0.1,0.7
		c0,0.1,0,0.3,0.1,0.7c0.1,0.3,0.1,0.6,0.1,0.7c0,0.1,0,0.3-0.1,0.7c-0.1,0.4-0.1,0.6-0.1,0.8c0,0.1,0,0.3,0.1,0.6s0.1,0.5,0.1,0.6
		c0,0.1,0,0.2,0,0.4c0,0.2,0,0.3,0,0.4c0,0.1,0,0.3,0.1,0.6c0.1,0.3,0.1,0.5,0.1,0.7c0,0.1,0,0.4-0.1,0.9c-0.1,0.4-0.1,0.7-0.1,0.9
		c0,0.1,0,0.3,0,0.7c0,0.4,0,0.7,0.1,1.1c0.1,0.3,0.1,0.5,0.1,0.6c0,0.1,0.1,0.3,0.1,0.6c0,0.1,0.1,0.3,0.1,0.4
		c0.1,0.1,0.1,0.3,0.2,0.4c0,0.1,0.1,0.3,0.1,0.6c0,0.3,0,0.5,0,0.6c0,0.4-0.1,0.7-0.4,1s-0.6,0.5-1.1,0.5c-0.1,0-0.3,0-0.5,0
		c-0.3,0-0.5,0-0.8-0.1c-0.3,0-0.5,0-0.8,0c-0.3,0-0.5,0-0.6,0c-0.1,0-0.3,0-0.6,0.1c-0.3,0-0.5,0.1-0.7,0.1c-0.3,0-0.7-0.1-1.2-0.4
		c-0.5-0.3-0.7-0.8-0.7-1.6c0-0.2,0-0.3,0-0.5c0-0.1,0-0.3,0.1-0.5c0.1-0.7,0.2-1.4,0.2-2.1c0-0.1,0-0.3,0-0.7c0-0.4,0-0.6,0-0.7
		c0-0.2,0-0.3,0-0.4c0-0.1,0-0.3,0-0.4c0-0.1,0-0.2-0.1-0.5c0-0.3-0.1-0.5-0.1-0.5v-0.8c0-0.1,0-0.2,0-0.5c0-0.3,0-0.5,0-0.5
		c0-0.1,0-0.3,0-0.6s0-0.5,0-0.6c0-0.2,0-0.5,0-0.7c0-0.2,0-0.5,0-0.8c0-0.1,0-0.3,0-0.5c0-0.3,0-0.5,0-0.6c0-0.1,0-0.4-0.1-0.9
		c-0.1-0.5-0.1-0.8-0.1-0.9c0-0.1,0-0.3,0-0.7c0-0.4,0-0.6,0-0.7c0-0.4-0.1-0.8-0.2-1.2c-0.1-0.4-0.3-0.7-0.5-1
		c-0.1-0.2-0.3-0.4-0.6-0.6c-0.3-0.3-0.9-0.4-1.7-0.4c-0.5,0-0.9,0.1-1.3,0.3c-0.4,0.2-0.7,0.4-1,0.7c-0.3,0.3-0.5,0.6-0.7,0.9
		c-0.2,0.3-0.3,0.6-0.4,0.9c-0.1,0.4-0.2,0.7-0.2,0.9c0,0.2,0,0.6,0,1c0,0.1,0,0.3-0.1,0.7c0,0.3-0.1,0.6-0.1,0.7
		c0,0.3,0,0.6,0.1,0.8c0.1,0.3,0.1,0.6,0.1,0.8c0,0.1,0,0.3-0.1,0.7c0,0.4-0.1,0.6-0.1,0.8c0,0.2,0,0.5,0,0.9c0,0.4,0,0.8,0.1,1
		c0,0,0,0.2,0.1,0.4c0,0.2,0.1,0.4,0.1,0.5c0,0.1,0,0.3-0.1,0.7c-0.1,0.4-0.1,0.6-0.1,0.7v1.6c0,0.2,0,0.4,0,0.6
		c0,0.2,0,0.4,0.1,0.6c0.1,0.3,0.1,0.6,0.2,0.9c0.1,0.3,0.1,0.6,0.1,0.9c0,1-0.2,1.7-0.5,2c-0.4,0.3-0.8,0.5-1.3,0.5
		c-0.1,0-0.4,0-0.9,0c-0.5,0-0.8,0-0.9,0c-0.1,0-0.4,0-0.9,0c-0.4,0-0.7,0-0.9,0c-0.4,0-0.7-0.1-1-0.3c-0.2-0.2-0.4-0.4-0.5-0.6
		c-0.1-0.2-0.2-0.5-0.2-0.7c0-0.2-0.1-0.4-0.1-0.5c0,0,0-0.2,0-0.4s0-0.4,0.1-0.7c0-0.2,0-0.5,0.1-0.6c0-0.2,0-0.2,0-0.2
		c0-0.4,0.1-0.8,0.2-1.1v-0.6c0-0.1,0-0.3,0-0.6c0-0.3,0-0.5,0-0.6c0-0.4,0-0.7-0.1-0.8c0-0.1,0-0.2,0-0.4c0-0.2,0-0.4-0.1-0.6
		c0-0.2,0-0.4-0.1-0.6c0-0.2,0-0.3,0-0.4c0-0.1,0-0.2,0-0.5c0-0.3,0-0.4,0-0.5c0-0.1,0-0.4,0-0.9c0-0.5,0-0.8,0-1V112
		c0-0.1,0-0.4-0.1-0.9c-0.1-0.5-0.1-0.8-0.1-1c0-0.1,0-0.2,0-0.5c0-0.3,0-0.4,0-0.5c0-0.2,0-0.5-0.1-1c-0.1-0.4-0.1-0.7-0.2-0.8
		c-0.1-0.4-0.3-0.8-0.5-1c-0.2-0.2-0.4-0.4-0.7-0.5c-0.2-0.1-0.5-0.2-0.7-0.2c-0.2,0-0.4,0-0.5,0c-0.6,0-1,0.1-1.4,0.3
		c-0.3,0.2-0.7,0.5-1.1,1c-0.4,0.4-0.7,0.9-1,1.6c-0.3,0.6-0.4,1.7-0.4,3c0,0.1,0,0.4,0.1,0.8c0,0.4,0.1,0.7,0.1,0.8
		c0,0.1,0,0.3,0,0.5s0,0.4-0.1,0.7c0,0.3,0,0.5-0.1,0.7c0,0.2,0,0.4,0,0.5c0,0.1,0,0.5,0.1,0.9c0,0.5,0.1,0.8,0.1,1
		c0,0.1,0,0.2,0,0.5c0,0.3,0,0.5,0,0.6c0,0.1,0,0.2,0,0.5c0,0.2,0,0.4,0,0.5c0,0.1,0,0.4-0.1,0.8c0,0.4-0.1,0.6-0.1,0.8
		c0,0.3,0,0.7,0.1,1c0,0.3,0.1,0.6,0.2,0.9c0.1,0.3,0.1,0.6,0.2,0.9c0.1,0.3,0.1,0.6,0.1,0.8c0,0.8-0.2,1.2-0.7,1.4
		c-0.5,0.2-0.9,0.2-1.2,0.2c-0.1,0-0.2,0-0.5,0s-0.5,0-0.8-0.1c-0.3-0.1-0.6-0.1-0.8-0.1c-0.1,0-0.3,0-0.6,0.1
		c-0.3,0.1-0.5,0.1-0.7,0.1c-0.2,0-0.4,0-0.6-0.1c-0.2,0-0.4-0.1-0.6-0.3c-0.2-0.2-0.4-0.4-0.5-0.8c-0.1-0.3-0.2-0.8-0.2-1.5
		c0-0.2,0-0.4,0-0.6s0-0.4,0.1-0.6c0-0.3,0.1-0.6,0.1-0.8c0-0.2,0.1-0.4,0.1-0.6c0-0.2,0-0.4,0-0.6s0-0.5,0-0.8c0-0.1,0-0.4-0.1-0.9
		c-0.1-0.4-0.1-0.7-0.1-0.9v-0.8c0-0.1,0-0.3,0-0.5c0-0.3,0-0.5,0-0.6c0-0.1,0-0.3,0.1-0.5c0-0.3,0.1-0.5,0.1-0.5
		c0-0.1,0-0.3-0.1-0.7c0-0.4-0.1-0.6-0.1-0.8c0-0.3,0-0.7,0.1-1c0.1-0.3,0.1-0.6,0.1-1c0-0.1,0-0.2-0.1-0.5c0-0.3-0.1-0.4-0.1-0.5
		c0-0.1,0-0.2,0-0.4s0-0.3,0-0.4c0-0.1,0-0.3,0-0.7c0-0.3,0-0.6,0-0.7c0-0.4,0-0.8,0-1.2s0-0.8,0-1.2c0-0.1,0-0.4,0-0.9
		c0-0.4,0-0.7-0.1-0.9c0-0.2,0-0.4,0-0.6c0-0.2,0-0.4,0-0.6c0-0.1-0.1-0.3-0.2-0.7c-0.1-0.4-0.1-0.6-0.1-0.8c0-0.2,0-0.4,0.1-0.7
		c0.1-0.3,0.2-0.6,0.3-0.9c0.2-0.3,0.4-0.5,0.6-0.7c0.3-0.2,0.6-0.3,1-0.3c0.1,0,0.4,0,0.8,0c0.4,0,0.7,0,0.8,0c0.1,0,0.2,0,0.4,0
		s0.4,0,0.6,0c0.2,0,0.4,0,0.7,0s0.4,0,0.5,0c0.5,0,0.9,0.1,1,0.3c0.2,0.2,0.3,0.6,0.3,1.2c0,0.2,0.1,0.5,0.2,0.6
		C202,100.8,202.2,100.9,202.5,100.9z"/>
</g>
</svg>
