<?xml version="1.0" encoding="utf-8"?>
<!-- Generator: Adobe Illustrator 26.1.0, SVG Export Plug-In . SVG Version: 6.00 Build 0)  -->
<svg version="1.1" xmlns="http://www.w3.org/2000/svg" xmlns:xlink="http://www.w3.org/1999/xlink" x="0px" y="0px"
	 viewBox="0 0 80 80" style="enable-background:new 0 0 80 80;" xml:space="preserve">
<style type="text/css">
	.st0{fill:#FFFFFF;}
</style>
<g id="Layer_2">
</g>
<g id="Layer_1">
	<path class="st0" d="M21.4,57.9c-2.8,0-5.7-0.9-7.7-3c-0.5-0.6-1-1.3-1.5-1.9c-0.2-0.3-0.4-0.3-0.6-0.1c-0.1,0.2,0.1,0.4,0.1,0.6
		c1.2,3.7,5.5,6.2,9.3,4.8c0.1-0.1,0.4-0.1,0.5-0.2C21.6,58.1,21.5,57.9,21.4,57.9z M21.4,58.1c-0.1,0-0.3,0.1-0.4,0.1
		C21.1,58.2,21.3,58.1,21.4,58.1C21.4,58.1,21.5,58.1,21.4,58.1C21.5,58.1,21.5,58.1,21.4,58.1z"/>
	<g>
		<path class="st0" d="M70.6,20.6C70.6,20.7,70.7,20.7,70.6,20.6L70.6,20.6z"/>
		<path class="st0" d="M71.1,18.9c-0.2-0.2-0.3-0.4-0.5-0.6c-0.1-0.2-0.2-0.4-0.3-0.5c-0.1-0.1-0.1-0.3-0.2-0.4
			c-0.2-0.3-0.7-0.2-0.7,0.1c0,0.2,0.1,0.6,0.2,0.9c0.1,0.5,0.2,1,0.6,1.5c0.1,0.2,0.3,0.4,0.4,0.6c0,0.1,0,0.2,0,0.2
			c0,0.1,0.1,0.1,0.3,0c0-0.1,0.1-0.2,0.1-0.3C71.2,19.9,71.4,19.3,71.1,18.9z"/>
		<path class="st0" d="M66.5,15.1c-0.6-0.1-0.9,0.8-0.4,1.1c1.2,0.8,2.4,1.7,2.9,3.2c0.4,1.3,0,2.8,0.4,4l0.1,0.2
			c0.1,0.3,0.6,0.5,0.9,0.2c0.2-0.2,0.1-0.3,0.1-0.5C69.8,20.4,69.9,16.3,66.5,15.1z"/>
	</g>
	<g>
		<path class="st0" d="M24.6,11.9c-0.2-0.1-0.2,0-0.4,0c-3.5,0.5-7.2,0.6-10.3,2.4c-2.6,1.7-3.7,4.8-4.1,7.7c0,0-0.1,0.2,0.1,0.5
			c0.2,0.5,0.9,0.3,1-0.1c0.1-0.2,0.2-0.5,0.3-0.8c0.8-3.1,1.6-6.4,4.9-7.6c2.6-1,5.5-0.4,8.1-1.1c0,0,0,0,0,0h0
			c0.1,0,0.3-0.1,0.4-0.1C25,12.5,24.9,12.1,24.6,11.9z M10.8,22.3C10.8,22.3,10.8,22.3,10.8,22.3C10.8,22.4,10.8,22.5,10.8,22.3z"
			/>
		<path class="st0" d="M24.4,12.9h-0.2c0,0,0,0,0,0C24.3,13,24.5,12.9,24.4,12.9z"/>
		<path class="st0" d="M27.4,12c-0.2-0.1-0.2-0.1-0.2-0.1c-0.4-0.2-0.7-0.2-1.1-0.2c-0.3,0-0.6,0.3-0.8,0.5c-0.3,0.1-0.1,0.4,0,0.4
			c0.4,0,0.8,0.6,1.1,0.3c0.1,0,0.1,0,0.1-0.1c0.3,0,0.6-0.2,0.9-0.3c0,0,0,0,0-0.1c0,0,0.1-0.1,0.1-0.1c0,0,0,0,0,0c0,0,0,0,0,0
			C27.6,12.2,27.6,12.1,27.4,12z M27.3,12.1C27.3,12.1,27.2,12.1,27.3,12.1C27.2,12.1,27.3,12.1,27.3,12.1z"/>
	</g>
	<g>
		<path class="st0" d="M69.9,51c-2,5.1-8,6.4-12.8,6.7c-0.1,0-0.6,0.1-0.7,0.1c-0.2,0-0.3,0.3-0.2,0.4c0.1,0.2,0.3,0.2,0.5,0.2
			c4.7,0.5,11.1-0.4,12.9-5.5c0.2-0.6,0.4-1.2,0.5-1.8C70.2,51,70,50.8,69.9,51z"/>
	</g>
	<path class="st0" d="M35.2,26c-0.1-0.1-0.2,0-0.3,0c-0.2,0.1-1.1,0.7-1.3,0.8c-3.9,2.5-8.1,4.7-11.5,8.1c-0.2-0.1-0.4-0.2-0.6-0.3
		c-0.6-0.2-0.9,0.6-0.5,0.9c0.1,0.1,0.2,0.2,0.3,0.3c-0.2,0.3,0.1,0.8,0.6,0.7c0.1,0,0.2-0.1,0.3-0.1c1.9,1.6,4,3.1,5.9,4.7
		c1.9,1.7,3.8,3.4,6,4.7l0.1,0.1c0.4,0.3,0.9-0.1,0.8-0.5c0-0.2-0.1-0.3-0.2-0.4c-0.2-0.2-0.8-0.8-1-1c-3.2-2.8-6.4-6-10-8.4
		c4.1-2.9,8-5.9,11.6-9.4C35.5,26.1,35.4,25.9,35.2,26z"/>
	<g>
		<path class="st0" d="M62.1,35.9c-0.1-0.1-0.2-0.2-0.3-0.3c0.2-0.3-0.1-0.8-0.6-0.7c-0.1,0-0.2,0.1-0.3,0.1c-1.9-1.6-4-3.1-5.9-4.7
			c-1.9-1.7-3.8-3.4-6-4.7l-0.1-0.1c-0.4-0.3-0.9,0.1-0.8,0.5c0,0.2,0.1,0.3,0.2,0.4c0.2,0.2,0.8,0.8,1,1c3.1,2.8,6.4,6,10,8.4
			c-4.1,2.9-8,5.9-11.6,9.4c0,0.1,0,0.3,0.2,0.2c0.1,0.1,0.2,0,0.3,0c0.2-0.1,1.1-0.7,1.3-0.8c3.9-2.5,8.1-4.7,11.5-8.1
			c0.2,0.1,0.4,0.2,0.6,0.3C62.2,37,62.5,36.2,62.1,35.9z"/>
	</g>
	<g>
		<path class="st0" d="M46.1,26c-0.2-0.4-0.6-0.8-1-0.5c-0.4,0.3,0,0.6-0.1,0.9c0,0.3-0.1,0.5-0.2,0.7c-0.1,0.3,0.3,0.8,0.7,0.9
			c-1.4,2.4-2.9,4.6-3.8,7.2c-0.8,2-1.5,4.1-2.2,6.1c-0.2,0.5-0.4,1.1-0.5,1.7c0,0.1,0,0.2,0,0.3c0.2,0.2,0.6,0.1,0.7-0.1
			c2.6-4.3,4.9-9,6-13.8c0.1-0.4,0.3-1.3,0.4-1.6c0-0.1,0-0.1,0-0.2C46.4,27.1,46.5,26.5,46.1,26z M45.7,27.6
			C45.7,27.6,45.7,27.6,45.7,27.6C45.7,27.6,45.7,27.6,45.7,27.6C45.7,27.6,45.7,27.6,45.7,27.6z"/>
	</g>
	<path class="st0" d="M69.7,37.5c0-4.3-0.2-8.6-0.7-12.8c-0.3-3.1-1.2-6.2-3.9-8.1c-3.3-2.4-7.6-2.8-11.6-2.8
		c-6.4,0-12.9,0.2-19.2,0.5c-0.1,0-0.1,0-0.2,0c-3.7-0.1-7.4,0-11.1,0.3c-2.9,0.3-7.1,0.6-9.1,3.2c-1.9,2.4-2,6.6-2.2,9.6
		c-0.5,4.6-0.5,9.3-0.4,13.9c0.2,6.8,1.6,14.7,9.8,15.3c4.5,0.3,9,0.3,13.5,0.3c0,1.2,0,2.4-0.3,3.5c-0.4,1.7-2.9,1.5-4.3,2.1
		c-1.2,0.5-3.4,1.7-3,3.4c0.4,1.6,2.1,2.2,3.6,2.5c3,0.6,6.4-0.2,9.4-0.3c2-0.1,14,0.9,12.9-3.3c-0.4-1.5-2.7-2.5-4-3
		c-0.6-0.3-1.2-0.5-1.9-0.7c-1-0.3-0.7-1.9-0.7-2.6s0-1.3-0.2-1.8c5.3-0.1,10.8,0,16-0.8c3.1-0.5,5.1-1.9,6.2-4.9
		C70,47,69.7,41.9,69.7,37.5z M48.2,64.5c0.2,0,0.2,0.3,0.1,0.4c0,0,0,0-0.1,0c-0.3,0.1-1.2,0.3-1.6,0.4c-4.9,1.1-10,1-15,0.6
		c-0.2,0-0.5-0.3-0.4-0.5c0.1-0.4,0.6-0.3,0.9-0.4C37.5,64.1,42.7,63.9,48.2,64.5z M65.3,38.2c-0.3,4.3,1,10.7-2.9,13.5
		c-1.4,0.4-3.2,0.5-4.7,0.6c-6.4,0.3-12.9,0.4-19.4,0.5c-4.8,0-9.7,0-14.5-0.4C18.3,52,15.9,48,16,42.8c0.4-6.7-2.6-18.6,3.2-23.2
		c1.3-1,2.9-1.2,4.5-1.3c6.4-0.4,12.9-0.4,19.4-0.5c4.8,0,9.7-0.2,14.5,0.1c1.5,0.3,3,0.8,4.2,1.8c2.5,2.1,2.5,5.8,3,8.8
		C65.3,31.7,65.4,35,65.3,38.2z"/>
</g>
</svg>
