<?xml version="1.0" encoding="utf-8"?>
<!-- Generator: Adobe Illustrator 26.2.1, SVG Export Plug-In . SVG Version: 6.00 Build 0)  -->
<svg version="1.1" id="Layer_1" xmlns="http://www.w3.org/2000/svg" xmlns:xlink="http://www.w3.org/1999/xlink" x="0px" y="0px"
	 viewBox="0 0 80 80" style="enable-background:new 0 0 80 80;" xml:space="preserve">
<style type="text/css">
	.st0{fill:#FFFFFF;}
	.st1{fill:#364148;}
	.st2{fill:#3C4349;}
</style>
<g>
	<path class="st0" d="M21.4,58c-2,0-3.8,0-5.6-1c-1.7-0.9-2.7-2.5-4-3.9c0,0-0.1,0-0.1,0.1c1.4,3.6,5.9,6.1,9.7,4.9
		C21.5,58.1,21.5,58,21.4,58z"/>
	<path class="st0" d="M21.4,58.1c-2,0.1-4.2,0.6-5.9-0.7c-1.6-1.1-2.4-2.8-3.8-4c0.1,0.1,0.4,0,0.3-0.2c1.6,3,4.9,4.9,8.2,5.1
		C20.6,58.3,21.1,58.2,21.4,58.1C21.5,58.1,21.5,58,21.4,58.1L21.4,58.1z M21.4,57.9c0.1,0,0.2,0.2,0.1,0.2
		c-0.1,0.1-0.4,0.1-0.5,0.2c-3.8,1.4-8.1-1.1-9.3-4.8c0-0.2-0.2-0.4-0.1-0.6c0.2-0.2,0.4-0.2,0.6,0.1c0.5,0.6,1,1.3,1.5,1.9
		C15.7,57,18.6,57.9,21.4,57.9L21.4,57.9z"/>
</g>
<g>
	<path class="st0" d="M16.1,14c2.6-1,5.6-0.9,8.3-1.5c0.1,0,0-0.1,0-0.1c-3,0.3-6.2,0.2-9,1.4c-3.4,1.5-4.6,5-5,8.4c0,0,0,0.1,0.1,0
		c0.7-1.7,0.9-3.5,1.9-5.1C13.1,15.6,14.5,14.6,16.1,14z"/>
	<path class="st0" d="M16.1,13.9c2.6-1,5.4-1.4,8.1-1.8c0,0,0.1,0,0.1,0l0,0l0,0c-0.4,0.1-0.4,0.6-0.1,0.8c0.1,0.1,0.3,0,0.2,0
		l-0.2,0c-3.4,0.2-7.3-0.3-10.1,2c-2.1,1.8-2.9,4.7-3.3,7.4c0,0.3,0.1-0.1-0.1-0.3c-0.1-0.2-0.3-0.3-0.5-0.2C10,21.8,9.9,22,9.9,22
		c0,0,0-0.1,0-0.1c0.7-1.7,1-3.6,2.2-5.2C13.1,15.4,14.6,14.5,16.1,13.9L16.1,13.9z M16.1,14c-3.3,1.2-4.1,4.5-4.9,7.6
		c-0.1,0.3-0.2,0.6-0.3,0.8c-0.1,0.4-0.8,0.6-1,0.1c-0.2-0.3-0.1-0.5-0.1-0.5c0.4-2.9,1.5-6,4.1-7.7c3.1-1.8,6.8-1.9,10.3-2.4
		c0.2,0,0.2-0.1,0.4,0c0.3,0.2,0.4,0.6,0,0.9C21.9,13.7,18.8,12.9,16.1,14L16.1,14z"/>
</g>
<g>
	<path class="st0" d="M39.5,69.4c-2.6,0.2-5.2,0.4-7.8,0.3c-2.9-0.2-5.5-1-6.8-3.7c0,0-0.1,0-0.1,0c0.2,2.6,3.3,3.7,5.5,4
		C33.4,70.4,36.5,70.1,39.5,69.4C39.6,69.5,39.6,69.4,39.5,69.4z"/>
	<path class="st0" d="M39.5,69.5c-2.7,0.2-5.5,1-8.2,0.6c-2.6-0.3-5.3-1.6-6.6-4c-0.1-0.1,0.1,0.1,0.2,0.1c0.1,0,0.2,0,0.2-0.1
		c0-0.2,0-0.1,0-0.1c1.2,4.1,7.1,3.5,10.5,3.7c1.3,0,2.6,0,3.8-0.2C39.4,69.5,39.5,69.5,39.5,69.5C39.5,69.5,39.5,69.5,39.5,69.5
		L39.5,69.5z M39.5,69.4c0.1,0,0.1,0.2,0,0.2l-0.1,0c-2.6,0.5-5.2,1.3-8,1.1c-2.7-0.2-6.7-1.3-6.9-4.6c-0.1-0.4,0.5-0.5,0.6-0.2
		c0.9,2.6,3.7,3.4,6.2,3.3C34.1,69.3,36.8,69.5,39.5,69.4L39.5,69.4z"/>
</g>
<g>
	<path class="st0" d="M70.6,20.6C70.6,20.7,70.7,20.7,70.6,20.6c0.2-1.1-0.2-2.3-0.9-3.1c0,0-0.1,0-0.1,0.1
		C70.2,18.5,70.4,19.5,70.6,20.6z"/>
	<path class="st0" d="M70.7,20.6c-0.1-0.7-0.5-0.9-0.5-1.5c0.1-0.5,0-1.2-0.6-1.4c0,0-0.1,0,0,0c0.3,0.2,0.5-0.1,0.4-0.3
		c0.6,0.6,1.1,1.5,0.9,2.3C70.7,20,70.6,20.3,70.7,20.6L70.7,20.6z M70.6,20.6c0-0.3-0.2-0.5-0.4-0.8c-0.4-0.5-0.5-1-0.6-1.5
		c-0.1-0.3-0.2-0.7-0.2-0.9c0-0.3,0.5-0.4,0.7-0.1c0.2,0.6,0.6,1,1,1.6c0.3,0.4,0.1,1-0.1,1.4c0,0.1-0.1,0.2-0.1,0.3
		C70.7,20.7,70.6,20.7,70.6,20.6L70.6,20.6z"/>
</g>
<g>
	<path class="st0" d="M69,19.4c0.4,1.3,0.5,2.8,0.9,4.1c0,0,0.1,0,0.1,0c0-2.8-0.7-6.7-3.6-7.9c-0.1,0-0.1,0.1,0,0.1
		C67.8,16.7,68.5,17.8,69,19.4z"/>
	<path class="st0" d="M69.1,19.4c0.4,1.3,1,2.6,1.3,4c-0.1-0.4-0.8-0.3-0.8,0.1c0,0,0-0.2,0-0.2c0.5-2.8-0.7-6-3.4-7.1
		c0.5,0.2,1-0.5,0.5-0.9C68.1,16.2,68.7,17.9,69.1,19.4L69.1,19.4z M69,19.4c-0.5-1.5-1.7-2.4-2.9-3.2c-0.5-0.3-0.2-1.2,0.4-1.1
		c3.4,1.2,3.3,5.3,4,8.2c0,0.2,0.1,0.3-0.1,0.5c-0.3,0.3-0.8,0.1-0.9-0.2c0,0-0.1-0.2-0.1-0.2C69,22.2,69.4,20.7,69,19.4L69,19.4z"
		/>
</g>
<g>
	<path class="st0" d="M25.4,12.6c0.7,0.1,1.3,0,2-0.2c0.1,0,0.1-0.1,0-0.1c-0.6,0.1-1.3,0-2,0.1C25.2,12.4,25.2,12.5,25.4,12.6z"/>
	<path class="st0" d="M25.4,12.5c0.3,0.1,0.7-0.5,1-0.4c0.3,0.1,0.6,0.3,0.9,0c-0.1,0-0.2,0.2,0,0.3c0.1,0,0.1,0,0.1,0.1
		c-0.5,0.3-1.1,0.5-1.6,0.2C25.6,12.7,25.4,12.5,25.4,12.5C25.4,12.4,25.3,12.5,25.4,12.5L25.4,12.5z M25.3,12.6
		c-0.1,0-0.3-0.3,0-0.4c0.2-0.2,0.5-0.5,0.8-0.5c0.4,0,0.7,0,1.1,0.2c0,0,0,0,0.2,0.1c0.2,0.1,0.2,0.2,0.1,0.3
		c0,0.1-0.1,0.2-0.3,0.2c-0.3,0-0.5,0.3-0.8,0.4C26.1,13.2,25.7,12.6,25.3,12.6L25.3,12.6z"/>
</g>
<g>
	<path class="st1" d="M48.9,61.8c-0.6-0.3-1.2-0.5-1.9-0.7c-1-0.3-0.7-1.9-0.7-2.6c0-0.7,0-1.3-0.2-1.8c5.3-0.1,10.8,0,16-0.8
		c3.1-0.5,5.1-1.9,6.2-4.9c1.6-4.1,1.3-9.2,1.3-13.6c0-4.3-0.2-8.6-0.7-12.8c-0.3-3.1-1.2-6.2-3.9-8.1c-3.3-2.4-7.6-2.8-11.6-2.8
		c-6.4,0-12.9,0.2-19.2,0.5c-0.1,0-0.1,0-0.2,0c-3.7-0.1-7.4,0-11.1,0.3c-2.9,0.3-7.1,0.6-9.1,3.2c-1.9,2.4-2,6.6-2.2,9.6
		c-0.5,4.6-0.5,9.3-0.4,13.9c0.2,6.8,1.6,14.7,9.8,15.3c4.5,0.3,9,0.3,13.5,0.3c0,1.2,0,2.4-0.3,3.5c-0.4,1.7-2.9,1.5-4.3,2.1
		c-1.2,0.5-3.4,1.7-3,3.4c0.4,1.6,2.1,2.2,3.6,2.5c3,0.6,6.4-0.2,9.4-0.3c2-0.1,14,0.9,12.9-3.3C52.5,63.4,50.2,62.4,48.9,61.8z
		 M23.2,55.5c-1.3,0-2.6,0-3.9-0.3c-4.2-0.9-6-5-6.4-8.8c-0.7-5.5-0.5-11.2-0.1-16.7c0.2-2.8,0.5-5.6,1.1-8.3
		c0.6-2.5,1.6-3.7,4.1-4.5c5.2-1.6,10.8-1.2,16.1-1.4c0.1,0,0.2,0,0.2-0.1c6.8,0.1,13.6-0.4,20.4-0.3c5.3,0.1,11.2,1.5,12.7,7.3
		c1,3.9,0.8,8.5,1,12.5c0.1,5.2,0.4,10.9-1.2,15.8c-1.3,4-5.4,4.1-8.9,4.3c-3.3,0.2-6.7,0.2-10,0.3C39.9,55.6,31.6,55.7,23.2,55.5z
		 M51.3,65.8c-1.1,0.8-3,0.7-4.3,0.8c-2.8,0.2-5.6,0.2-8.4,0.3c-2.2,0.1-4.5,0.5-6.7,0.4c-2.2-0.1-5.2-1.5-2.2-3.3
		c1.7-1,4.3-0.6,5.4-2.2c0.8-1.3,0.8-3.3,0.7-4.9c3,0,5.9-0.1,8.9-0.2c0.1,0,0.1,0,0.2,0c0.6,1.6-0.3,3.4,0.7,4.9
		c0.8,1.2,3.4,1.5,4.6,2.2C50.5,64.1,52.3,65.2,51.3,65.8z"/>
	<g>
		<path class="st2" d="M48.9,61.9c-2.5-0.9-2.9-0.6-2.6-3.5c0-0.6,0-1.1-0.2-1.6c0-0.1,0-0.1,0.1-0.1c3.8,0,7.6-0.1,11.4-0.4
			c2.7-0.3,5.8-0.3,8.1-1.9c3.7-3.1,3.5-8.6,3.6-13c-0.1-3.8,0-7.6-0.3-11.4c-0.4-5.5-0.2-12-6.3-14.3c-5.1-2.2-11.4-1.4-16.9-1.4
			c-3.8,0.1-7.7,0.2-11.5,0.3c-4.9-0.2-9.8,0.1-14.6,0.8c-6.2,0.9-7.1,4.9-7.4,10.5c-0.3,3.3-0.5,6.5-0.5,9.8
			c0,8.1-0.5,20.6,10.6,20.5c4.1,0.2,8.2,0.3,12.3,0.2c0.3,0,0.5,0.2,0.5,0.5c0,1,0,2-0.2,3c-0.1,2.7-3.3,2.4-5,3.1
			c-1.5,0.6-3.5,2.1-2,3.7c2.1,1.9,5.4,1.6,8.2,1.4c4.9-0.7,9.9,0.5,14.7-0.8C55.2,65.8,51.6,62.8,48.9,61.9L48.9,61.9z M48.9,61.8
			c1.3,0.6,2.8,1.2,3.7,2.4c1.1,1.6-0.3,3-1.8,3.4C46,69,41,68,36.1,68.8c-2.9,0.3-8.7,0.9-9.6-2.9c-0.1-0.6,0.1-1.2,0.5-1.7
			c1.3-1.7,3.6-2.3,5.4-2.7c0.6-0.2,1.1-0.4,1.3-1c0.3-1.1,0.3-2.3,0.3-3.5c0,0,0.5,0.5,0.5,0.5c-3.3,0-6.6,0-9.9-0.1l-2.5-0.1
			c-7.3,0-10.4-5-11.1-11.7c-0.7-6.6-0.4-13.2,0.3-19.8c0.4-5.8,1.6-10.2,8.2-11c4.8-0.7,10.3-0.9,14.8-0.6
			c3.8-0.1,7.6-0.2,11.4-0.3c3.4,0,8.1-0.4,11.5-0.1c10.7,1,12.2,6.4,12.6,16.1c0.3,5.7,0.6,11.5-0.1,17.2c-1.2,8-4.7,9.3-12.2,9.6
			c-3.8,0.2-7.6,0.1-11.4,0.2c0,0,0.1-0.1,0.1-0.1c0.4,1.1,0,2.3,0.1,3.4c0,0.6,0.4,1,1,1.1C47.3,61.2,48.9,61.8,48.9,61.8
			L48.9,61.8z"/>
		<path class="st2" d="M23.2,55.5c-6.6,0.5-9.8-3.2-10.6-9.4c-0.7-5.3-0.7-10.6-0.3-15.9c0.1-2.7,0.4-5.3,1-8c0.5-3.1,2-5.2,5.2-5.8
			c5.2-1.4,10.7-0.8,15.8-1.1c6.9,0.1,13.9-0.4,20.8-0.4c8.8,0.2,13.3,3.6,13.6,12.7c0.1,7.5,1.2,15.1-0.7,22.5
			c-1.1,5-5.9,5.5-10.2,5.6c0,0-6.9,0.1-6.9,0.1C41.6,55.9,32.4,55.8,23.2,55.5L23.2,55.5z M23.2,55.4c11.4,0.3,23.1-0.3,34.5-0.8
			c3.2-0.2,7.1-0.1,8.7-3.3c1.3-3.1,1.5-6.6,1.6-9.9c-0.6-18.5,3.3-27-19.8-26c-6,0.1-11.9,0.2-17.8,0.5c-3.9,0.1-8,0.2-11.7,1.3
			c-1.3,0.3-2.5,0.9-3.2,1.8c-0.8,0.9-1.1,2.2-1.3,3.5c-1.3,7.8-1.7,15.8-1.1,23.7C13.7,52.2,16.7,55.8,23.2,55.4L23.2,55.4z"/>
		<path class="st2" d="M51.4,65.9c-1.3,0.9-3,0.7-4.5,0.9l-4.6,0.4c-3.1,0.2-6.1,0.3-9.2,0.4c-1.5,0-3.2-0.2-4.5-1.3
			c-0.7-0.7-0.2-1.7,0.5-2.2c1.2-1,3-1,4.3-1.6c2.3-0.9,1.9-3.6,1.8-5.7c0-0.3,0.2-0.5,0.5-0.5c3-0.1,6-0.2,9-0.2
			c0.2,0,0.4,0.1,0.5,0.3c0.7,1.8-0.2,3.2,0.5,4.8c1.1,1.8,3.9,1.6,5.3,3.1C51.5,64.8,52,65.5,51.4,65.9L51.4,65.9z M51.3,65.8
			c0.5-0.4,0.1-0.9-0.3-1.2c-1.3-1.1-2.9-1.1-4.5-1.7c-1.1-0.3-1.9-1.6-1.9-2.8c-0.1-1.2,0.1-2.2-0.3-3c0,0,0.5,0.3,0.5,0.3
			c-3,0.1-6,0.1-9,0.1l0.5-0.5c0.2,4.1-0.3,6.4-4.9,6.8c-2.8,0.5-4.3,2.6-0.6,3.3c2.3,0.3,4.5-0.3,6.8-0.5c2.7-0.2,6.5-0.1,9.2-0.1
			C48.3,66.4,50,66.6,51.3,65.8L51.3,65.8z"/>
	</g>
</g>
<g>
	<path class="st0" d="M70.9,47.8C70.9,47.8,70.8,47.7,70.9,47.8c-0.4,0.5-0.4,1.3-0.5,2c0,0.1,0.1,0.1,0.2,0
		C70.8,49.2,70.9,48.4,70.9,47.8z"/>
	<path class="st0" d="M70.8,47.8c0,0.3,0.3,0.7,0.1,0.9c-0.2,0.3-0.5,0.6-0.2,1c0-0.2-0.3-0.4-0.5-0.2c0-0.5,0-0.9,0.3-1.3
		C70.7,48.2,70.8,48,70.8,47.8L70.8,47.8z M70.9,47.8c0,0.2,0.2,0.4,0.3,0.6c0.3,0.5,0.1,1-0.2,1.5c0,0-0.1,0.1-0.1,0.1
		c-0.2,0.3-0.7,0.3-0.8,0c0-0.1,0-0.1,0-0.2c0.3-0.4,0-0.7-0.1-1.1c-0.1-0.4,0.4-0.7,0.6-0.9C70.8,47.7,70.9,47.7,70.9,47.8
		L70.9,47.8z"/>
</g>
<g>
	<path class="st0" d="M69.9,51.1c-1,2.8-3,4.7-5.8,5.7c-2.5,0.9-5.1,0.7-7.7,1.3c0,0,0,0.1,0,0.1c2.8,0.3,6-0.2,8.6-1.2
		c2.6-1,4.4-3,5-5.8C70.1,51,70,51,69.9,51.1z"/>
	<path class="st0" d="M70,51.1c-2.6,7.6-7.1,5.9-13.3,7.2c0,0-0.1,0-0.1,0c0.1,0,0.2-0.2,0.2-0.3c0-0.1-0.3-0.1-0.2-0.1
		C61.5,57.7,68.6,56.7,70,51.1L70,51.1z M69.9,51c0.1-0.2,0.3,0,0.2,0.1c-0.1,0.6-0.3,1.2-0.5,1.8c-1.8,5.1-8.2,6-12.9,5.5
		c-0.2,0-0.4,0-0.5-0.2c-0.1-0.1,0-0.4,0.2-0.4c0.1,0,0.6-0.1,0.7-0.1C61.9,57.4,67.9,56.1,69.9,51L69.9,51z"/>
</g>
<g>
	<path class="st0" d="M69.7,37.5c0-4.3-0.2-8.6-0.7-12.8c-0.3-3.1-1.2-6.2-3.9-8.1c-3.3-2.4-7.6-2.8-11.6-2.8
		c-6.4,0-12.9,0.2-19.2,0.5c-0.1,0-0.1,0-0.2,0c-3.7-0.1-7.4,0-11.1,0.3c-2.9,0.3-7.1,0.6-9.1,3.2c-1.9,2.4-2,6.6-2.2,9.6
		c-0.5,4.6-0.5,9.3-0.4,13.9c0.2,6.8,1.6,14.7,9.8,15.3c4.5,0.3,9,0.3,13.5,0.3c0,1.2,0,2.4-0.3,3.5c-0.4,1.7-2.9,1.5-4.3,2.1
		c-1.2,0.5-3.4,1.7-3,3.4c0.4,1.6,2.1,2.2,3.6,2.5c3,0.6,6.4-0.2,9.4-0.3c2-0.1,14,0.9,12.9-3.3c-0.4-1.5-2.7-2.5-4-3
		c-0.6-0.3-1.2-0.5-1.9-0.7c-1-0.3-0.7-1.9-0.7-2.6c0-0.7,0-1.3-0.2-1.8c5.3-0.1,10.8,0,16-0.8c3.1-0.5,5.1-1.9,6.2-4.9
		C70,47,69.7,41.9,69.7,37.5z"/>
	<path class="st0" d="M69.6,37.5c-0.1-4.4-0.3-8.9-0.8-13.3c-0.3-2.2-0.9-4.4-2.3-6c-4.8-5-12.4-3.8-18.8-3.7
		c-4.5,0.1-9,0.3-13.5,0.3c-0.6-0.1-1.7,0-2.3-0.1c-2.4,0-5,0-7.4,0.2c-3.2,0.3-6.7,0.3-9.4,2.1c-2.7,2-2.9,5.8-3.2,8.8
		c-0.7,6.5-0.9,13.2-0.2,19.7c0.8,6.3,3.6,11,10.5,10.9c0,0,2.5,0.1,2.5,0.1c3.3,0.1,6.6,0.1,9.9,0c0.2,0,0.4,0.2,0.4,0.4
		c0,1.5,0.1,3.1-0.6,4.4c-0.6,0.8-1.7,1-2.5,1.2c-1.1,0.2-2.1,0.5-3,1.1c-0.9,0.6-1.6,1.4-1.4,2.2c1.5,3.6,8.8,1.9,12,1.8
		c3.4-0.1,6.7,0.3,10-0.4c1-0.2,2.2-0.5,2.7-1.2c1.3-2.2-3.4-3.8-5-4.3c-1.6-0.3-1.4-2.1-1.3-3.4c0-0.5,0-1.1-0.1-1.5
		c-0.1-0.3,0.1-0.6,0.4-0.6c4.8,0,9.5,0.1,14.2-0.4C70.5,56,69.6,44.8,69.6,37.5L69.6,37.5z M69.7,37.5c-0.1,5.6,1,14.5-4.6,17.8
		c-3,1.4-6.3,1.3-9.4,1.6c-3.2,0.2-6.4,0.2-9.5,0.3c0,0,0.4-0.6,0.4-0.6c0.5,1.2,0.1,2.5,0.2,3.4c0.1,0.5,0.1,0.6,0.7,0.8
		c2.3,0.7,7.5,2.6,5.5,5.9c-0.9,1-2.1,1.3-3.3,1.6c-3.3,0.7-6.8,0.4-10.2,0.4c-3.8,0.2-8.4,1.4-11.9-1c-2.7-2.3-0.2-4.8,2.4-5.7
		c1.3-0.5,3.7-0.3,3.9-1.8c0.2-1.1,0.3-2.2,0.3-3.3l0.4,0.4c-4.1,0-8.3-0.1-12.4-0.3c-7.2-0.1-10.1-5-10.8-11.5
		c-0.7-8.2-0.5-16.6,0.9-24.7c1.1-5.8,7.3-6.3,12.2-6.7c3.1-0.3,6.2-0.3,9.3-0.3c3.9,0.1,9.4-0.3,13.9-0.3c6.4-0.1,14.3-1,19.1,4.3
		c1.5,1.8,2,4.1,2.3,6.3C69.5,28.6,69.7,33.1,69.7,37.5L69.7,37.5z"/>
</g>
<g>
	<path class="st1" d="M65.4,38.2c0.1-3.2,0-6.4-0.4-9.6c-0.7-5.3-0.5-9.4-6.7-11c-3.2-0.8-34.1,0.1-36.9,0.8c-4,1-5.4,4.8-5.8,8.5
		c-0.6,5,0.1,10.1,0,15.1c-0.1,5.4,1.4,9.7,7.2,10.7c6.7,1.2,37.6,0.5,39.8-0.9C66.2,49.7,65.2,41.8,65.4,38.2z M30.6,35.5
		c0.1,0,0.2,0,0.3,0c0.1,0,0.2,0.1,0.2,0.2c-0.1,0.1-0.1,0.2-0.1,0.3c-0.1,0.1-0.1,0.1-0.2,0.2c-0.2,0.1-0.3,0.2-0.5,0.3
		c-0.3,0.1-0.5,0.2-0.9,0.3c-0.1,0-0.2-0.1-0.1-0.2c0.2-0.2,0.4-0.4,0.7-0.6c0.2-0.1,0.3-0.2,0.5-0.3C30.4,35.5,30.5,35.5,30.6,35.5
		z M26.9,50.9c-2.3,0.5-5.5-0.1-7.2-1.9c-2.2-2.4-2-5.7-1.8-8.7c0.2-4.5-0.3-9.1,0.1-13.6c0.2-2.6,0.9-5,3.6-5.7
		c0.2-0.1,0.3,0.2,0.1,0.3c-3.1,1.5-2.8,6.1-2.8,9c0,3.1,0.2,6.2,0.1,9.3c-0.1,2.6-0.8,6.8,1.4,8.7c1.9,1.6,4.2,1.8,6.4,2.4
		C27,50.6,27,50.8,26.9,50.9z M27.1,35.7c0.5-0.3,1.1-0.6,1.6-0.9c0.3-0.2,0.7-0.6,1.1-0.4c0.1,0,0.1,0.1,0.1,0.1
		c-0.1,0.5-0.7,0.7-1.1,0.9c-0.5,0.2-1.1,0.4-1.6,0.5C27.1,35.9,27,35.7,27.1,35.7z M31.6,50.9c-1.1,0.4-2.2,0.3-3.3,0.1
		c-0.1,0-0.1-0.2,0-0.2c1.1-0.2,2.2-0.3,3.3-0.2C31.7,50.6,31.8,50.8,31.6,50.9z M44.3,27.4c0,0.1-0.1,0.2-0.2,0.2
		c-0.7-0.3-0.4-1.5-0.1-2c0.1-0.1,0.4-0.1,0.3,0.1c0,0.3-0.1,0.6-0.1,0.9C44.2,26.9,44.3,27.2,44.3,27.4z M45.8,28c0,0-0.1,0-0.1,0
		c-0.3-0.1-0.3-0.5-0.4-0.8c0-0.4-0.1-0.8-0.1-1.2c0-0.2,0.3-0.2,0.4,0c0.2,0.4,0.2,0.9,0.3,1.3C45.9,27.5,46,27.8,45.8,28z
		 M47.3,43.5c-0.2-0.5-0.4-0.9-0.6-1.3c-0.1-0.3-0.3-0.6-0.2-0.9c0,0,0.1,0,0.1,0c0.1,0.1,0.2,0.2,0.3,0.3c0.1,0.2,0.3,0.4,0.4,0.6
		c0.2,0.4,0.4,0.7,0.5,1.1C47.9,43.6,47.4,43.8,47.3,43.5z M48.8,42.5c-0.2,0.2-0.5-0.2-0.6-0.4c-0.1-0.2-0.2-0.4-0.3-0.5
		c-0.1-0.1-0.2-0.3-0.4-0.4c-0.1-0.1,0-0.2,0.1-0.1c0.2,0.1,0.4,0.1,0.6,0.2c0.2,0.1,0.3,0.2,0.4,0.4c0.1,0.2,0.2,0.3,0.3,0.5
		C48.9,42.2,48.9,42.4,48.8,42.5z M61.3,25.1c-2.4-6.6-11.5-4.1-17-4.8c-0.1,0-0.2-0.2,0-0.2c4-0.3,8.6-1,12.6-0.2
		c2,0.4,3.9,1.5,4.8,3.5c2.2,4.4,1.2,9.7,0.7,14.4c0,0.1-0.2,0.1-0.2,0C61.9,33.6,62.7,29,61.3,25.1z M62.3,40.8
		c-0.1-0.4-0.1-0.8-0.1-1.2c0-0.4-0.1-0.9-0.1-1.3c0-0.1,0.2-0.2,0.3-0.1c0.4,0.7,0.3,1.8,0.2,2.6C62.6,41,62.4,41,62.3,40.8z"/>
	<g>
		<path class="st2" d="M65.3,38.2c0.1-3.2,0-6.5-0.5-9.7c-0.5-3-0.5-6.7-3-8.8c-1.2-1-2.7-1.5-4.2-1.8c-4.8-0.3-9.7-0.1-14.5-0.1
			c-6.5,0.1-13,0.1-19.4,0.5c-1.6,0.1-3.2,0.3-4.5,1.3c-5.8,4.6-2.8,16.5-3.2,23.2c-0.1,5.2,2.3,9.2,7.8,9.6
			c4.8,0.4,9.7,0.4,14.5,0.4c6.5-0.1,13-0.2,19.4-0.5c1.5-0.1,3.3-0.2,4.7-0.6C66.3,48.9,65,42.5,65.3,38.2L65.3,38.2z M65.4,38.2
			c-0.2,4.3,1.1,11-2.9,13.9c-1.6,0.6-3.2,0.6-4.9,0.9c-6.5,0.7-13,0.9-19.5,0.9c-4.9,0-9.8,0.1-14.6-0.5c-6-0.5-8.7-4.9-8.5-10.6
			C15.7,36,13,24,18.9,19.4c1.3-1,3.1-1.3,4.7-1.4c6.5-0.5,13-0.8,19.4-1c4.9-0.1,9.7-0.3,14.6,0.2c1.7,0.3,3.3,0.9,4.6,2.1
			c2.6,2.4,2.4,6.1,2.8,9.3C65.5,31.7,65.6,34.9,65.4,38.2L65.4,38.2z"/>
		<path class="st2" d="M30.6,35.4c0.2,0,0.1,0,0.3-0.1c0.3-0.1,0.5,0.3,0.4,0.5c0,0,0.1,0.1-0.1,0.4c-0.3,0.3-0.7,0.2-1,0.3
			c-0.3,0.1-0.5,0.4-0.9,0.6c-0.7,0.1-0.9-0.7-0.4-1.1c0.1-0.1,0.2-0.2,0.4-0.3C29.6,35.3,30.2,35.6,30.6,35.4L30.6,35.4z
			 M30.6,35.5c-0.3,0.2-0.4,0.8-0.7,1c-0.1,0.1-0.3,0.2-0.4,0.3c0,0-0.1,0.1,0,0c0.1-0.1,0.1-0.4,0-0.4c-0.2-0.2-0.5-0.1,0,0
			C30.2,36.5,30.2,35.9,30.6,35.5c-0.1,0.2,0,0.2,0.1,0c0,0.2,0.1,0.2,0.2,0.1c0,0-0.1,0-0.1-0.1C30.7,35.5,30.7,35.5,30.6,35.5
			L30.6,35.5z"/>
		<path class="st2" d="M26.9,50.9c-3,0.6-6.7-0.2-8.4-3c-1.7-2.8-1.1-6.2-1-9.2c0.1-3.1,0.1-6.1,0.1-9.2c0.2-2.3,0.1-4.8,1.3-6.9
			c0.5-0.9,1.4-1.5,2.4-1.9c0.2,0,0.1-0.1,0.4-0.1c0.3,0,0.5,0.3,0.5,0.6c0,0.2-0.2,0.3-0.4,0.4c-0.9,0.5-1.4,1.3-1.8,2.2
			c-1.2,4.4-0.2,9.1-0.4,13.6c0.1,3.1-0.8,6.2,0,9c0.7,2.1,3.3,3.1,5.3,3.6c0,0,1.1,0.3,1.1,0.3c0.2,0.1,0.7,0.1,0.9,0.3
			C27.1,50.7,27,50.9,26.9,50.9L26.9,50.9z M26.8,50.8c0.1,0,0.1-0.1,0-0.1c0,0-0.2,0-0.2-0.1c-2.7-0.7-6.3-0.9-7.6-3.8
			c-1.3-3-0.4-6.2-0.5-9.3c0.2-4.6-0.8-9.4,0.7-13.9c0.4-1.1,1.3-2.1,2.4-2.6c0,0-0.1,0.1-0.1,0.1c0,0.1,0,0.1,0.1,0.1
			c0.1,0,0,0,0,0c-1.7,0.4-2.8,1.9-3.1,3.6c-0.9,4.6-0.1,9.2-0.1,13.8c0.1,3-0.6,6.1,0.7,8.9C20.4,50.3,24,51.4,26.8,50.8L26.8,50.8
			z"/>
		<path class="st2" d="M27.1,35.6c0.5-0.3,0.7-1.1,1.3-1.2c0.5,0,1.3-0.5,1.7-0.2c0.3,0.5-0.2,1.1-0.6,1.3c-0.7,0.5-1.4,0.7-2.2,0.4
			c0,0-0.2,0-0.3-0.1C26.9,35.8,27,35.6,27.1,35.6L27.1,35.6z M27.1,35.7c-0.1,0.2,0.3-0.1,0.5-0.3c0.5-0.6,1.4-0.6,2.1-1
			c0-0.1,0,0.1,0.1,0.1c0.1,0,0,0,0,0c-0.4-0.1-0.6,0.4-0.9,0.7C28.4,35.6,27.6,35.4,27.1,35.7L27.1,35.7z"/>
		<path class="st2" d="M31.6,50.9c-0.6,0.2-1.1,0.9-1.8,0.7c-0.3-0.1-0.6-0.3-0.9-0.3c-0.2-0.1-0.5-0.1-0.7-0.1
			c-0.2-0.1-0.3-0.3-0.1-0.5c1-0.7,2.4-0.9,3.5-0.2C31.8,50.5,31.9,50.8,31.6,50.9L31.6,50.9z M31.6,50.8c0.1-0.1,0-0.2-0.1-0.1
			c-0.2,0-0.3,0.1-0.5,0.2c-0.9,0.4-1.8,0.3-2.7,0.2c0,0,0.1,0,0.1-0.1c0.1-0.1,0-0.2-0.1-0.2c0,0,0,0,0,0c0.5,0.2,1,0.1,1.4-0.1
			C30.4,50.5,31,51.1,31.6,50.8L31.6,50.8z"/>
		<path class="st2" d="M44.3,27.5c0,0.3-0.5,0.3-0.8,0.2c-0.3-0.1-0.5-0.5-0.4-0.8c0-0.3,0.3-0.5,0.3-0.7c0.1-0.3,0.1-0.6,0.1-0.9
			c0.2-0.5,1.1-0.4,1.1,0.2c0,0,0,0.4,0,0.4C44.9,26.5,44.4,27,44.3,27.5L44.3,27.5z M44.2,27.4c0-0.2-0.2-0.4-0.3-0.6
			c-0.2-0.2-0.2-0.5-0.2-0.7c0-0.2,0-0.4,0.1-0.6c0,0,0-0.1,0,0c0,0.2,0.4,0.4,0.4,0.1c-0.2,0.1-0.4,0.3-0.4,0.6
			c0,0.4,0.4,0.5,0.2,0.9c0,0.1,0,0.2,0.1,0.3C44.1,27.6,44.2,27.5,44.2,27.4L44.2,27.4z"/>
		<path class="st2" d="M45.8,28c-0.5,0.2-1.1-0.5-1-0.9c0.1-0.2,0.2-0.4,0.2-0.7c0.1-0.3-0.3-0.6,0.1-0.9c0.4-0.3,0.8,0.1,1,0.5
			C46.6,26.7,46.3,27.5,45.8,28L45.8,28z M45.8,28c0.1-0.2,0-0.4-0.2-0.5c-0.3-0.3-0.3-0.7-0.4-1.1c0-0.1,0-0.2,0-0.2
			c0.1,0.1,0.3-0.1,0.2-0.2c-0.3,0.6,0.6,1.1,0.3,1.6C45.5,27.8,45.6,28,45.8,28L45.8,28z"/>
		<path class="st2" d="M47.2,43.5c-0.2-0.4-0.9-0.6-0.9-1.1c0-0.3,0-0.9,0.1-1.2c0.1-0.1,0.3-0.1,0.4,0c0.1,0.1,0.2,0.1,0.3,0.2
			c0.7,0.5,1.1,1.2,1.1,2C48.1,43.9,47.3,43.9,47.2,43.5L47.2,43.5z M47.3,43.5c0.6,0.1-0.2,0-0.4-0.5c-0.3-0.6-0.3-1.2-0.5-1.6
			c0.1,0.1,0.2,0.1,0.2,0c0-0.1,0,0,0,0c0,0.3,0.3,0.4,0.5,0.6C47.5,42.4,47.1,43,47.3,43.5L47.3,43.5z"/>
		<path class="st2" d="M48.8,42.6c-0.2,0.3-0.8,0.1-1.1-0.2c-0.2-0.2,0-0.5-0.2-0.8c-0.1-0.2-0.3-0.2-0.4-0.4c0-0.3,0.2-0.4,0.5-0.4
			c0.6-0.2,1.6,0.4,1.5,1.1C49.1,42.1,49,42.4,48.8,42.6L48.8,42.6z M48.7,42.5c0,0,0-0.2,0-0.2c0-0.1-0.1,0-0.2-0.1
			c-0.2-0.1-0.3-0.1-0.4-0.2c-0.2-0.1-0.2-0.3-0.6-0.6c0,0-0.1,0,0,0c0.1,0,0.1-0.1,0.1-0.2c-0.1-0.2-0.1,0,0,0
			c0.1,0.1,0.1,0.2,0.2,0.2c0.2,0.1,0.7,0.3,0.8,0.6C48.6,42.1,48.5,42.6,48.7,42.5L48.7,42.5z"/>
		<path class="st2" d="M61.2,25.1c-2.8-6.6-11.3-3.4-16.8-4.5c-0.3,0-0.7-0.3-0.5-0.7c0.2-0.3,0.4-0.2,0.6-0.2c5.1,0,13.2-2,17,2.5
			c3.1,4.6,2,10.4,1.5,15.6c-0.1,0.9-1.3,0.7-1.2-0.1C61.5,33.4,62.6,29.1,61.2,25.1L61.2,25.1z M61.3,25c1.4,4,1,8.4,1.4,12.6
			c-0.1-0.4-0.7-0.5-0.8,0c0.4-4.9,1.6-10.5-1.1-15c-3.7-4.6-11.1-2.8-16.3-2.3c0,0-0.3,0-0.3,0c0,0,0.1,0,0.2-0.1
			c0.1-0.2-0.1-0.3-0.1-0.3c0,0,0.1,0,0.1,0C50.1,20.2,58.7,18.3,61.3,25L61.3,25z"/>
		<path class="st2" d="M62.3,40.9c0-0.2-0.2-0.5-0.3-0.7c-0.4-0.5,0-1,0.1-1.5c0-0.3,0-0.7,0.4-0.6c0.7,0.3,0.9,1.2,0.9,1.8
			c0,0.5-0.3,0.8-0.5,1.2C62.6,41.1,62.3,41,62.3,40.9L62.3,40.9z M62.4,40.8c0,0.1,0.2,0,0.1,0c-0.4-0.7-0.3-1.5-0.3-2.4
			c0-0.1,0,0,0.1,0c0.1,0,0,0,0,0c-0.1,0.3,0.2,0.6,0.3,1C62.9,39.9,62.3,40.3,62.4,40.8L62.4,40.8z"/>
	</g>
</g>
<g>
	<path class="st0" d="M35.3,26.1c0.1-0.1-0.1-0.3-0.2-0.2c-2.5,1.5-4.9,3.2-7.2,4.9c-1.9,1.4-3.9,2.7-5.5,4.5
		c-0.3-0.1-0.5-0.3-0.8-0.4c-0.2-0.1-0.3,0.1-0.2,0.2c0.2,0.2,0.4,0.4,0.6,0.6c-0.1,0.1-0.2,0.2-0.2,0.2c-0.1,0.1,0.1,0.3,0.2,0.2
		c0.1-0.1,0.2-0.1,0.3-0.2c1.8,1.7,3.9,3.2,5.8,4.9c2,1.7,4,3.4,6.4,4.7c0.2,0.1,0.3-0.1,0.2-0.3c-2.1-2.1-4.3-3.9-6.6-5.8
		c-1.6-1.4-3.3-2.8-5.2-3.9c2.2-1.4,4.2-3,6.3-4.5C31.3,29.6,33.5,28.1,35.3,26.1z"/>
	<path class="st0" d="M35.3,26.1c0.1-0.1-0.1-0.2-0.2-0.1l-0.4,0.3c-2,1.3-3.9,2.8-5.7,4.2c-2.1,1.7-4.4,3.2-6.2,5.1
		c-0.3,0.3-0.7,0-1-0.2c0,0-0.2-0.1-0.2-0.1l-0.1,0c0,0,0,0,0,0c0.2,0,0.4-0.1,0.3-0.3c0-0.1-0.1-0.2-0.1-0.2
		c0.1,0.1,0.4,0.4,0.6,0.6c0.2,0.1,0.2,0.4,0,0.5c0,0-0.2,0.2-0.2,0.2c-0.1,0.1,0,0,0-0.1c0-0.1,0-0.2-0.1-0.2
		c-0.1-0.1-0.3,0-0.2-0.1l0.2-0.1c0.1-0.1,0.3-0.1,0.4,0c3.7,3.4,7.5,7,12,9.5c0.1,0,0.2,0.1,0,0c-0.2,0-0.2,0.3-0.1,0.3
		c-0.3-0.2-0.9-0.8-1.2-1.1c-3.4-2.9-6.9-6-10.6-8.4c-0.4-0.2-0.4-0.7,0-0.9c2.2-1.4,4.3-3,6.5-4.3C31.3,29.4,33.5,28,35.3,26.1
		L35.3,26.1z M35.4,26.2c-3.7,3.7-7.9,6.8-12.2,9.9c0,0,0-0.9,0-0.9c3.8,2.4,7.2,5.8,10.6,8.8c0.2,0.2,0.8,0.8,1,1
		c0.1,0.1,0.2,0.2,0.2,0.4c0.1,0.4-0.4,0.8-0.8,0.5c0,0-0.1-0.1-0.1-0.1c-2.2-1.3-4.1-3-6-4.7c-2-1.7-4.1-3.2-6.1-4.9l0.4,0
		c-0.2,0.1-0.2,0.2-0.5,0.3c-0.5,0.1-0.8-0.5-0.5-0.8c0,0,0.2-0.2,0.2-0.2l0,0.5c-0.1-0.1-0.5-0.4-0.6-0.5c-0.4-0.3-0.1-1.1,0.5-0.9
		c0.3,0.1,0.7,0.3,0.9,0.4c0,0-0.5,0.1-0.5,0.1c3.4-3.5,7.7-5.7,11.7-8.3c0.2-0.1,1.1-0.7,1.3-0.8c0.1,0,0.2-0.1,0.3,0
		C35.4,25.9,35.5,26.1,35.4,26.2L35.4,26.2z"/>
</g>
<g>
	<path class="st0" d="M47.8,45.2c-0.1,0.1,0.1,0.3,0.2,0.2c2.5-1.5,4.9-3.2,7.2-4.9c1.9-1.4,3.9-2.7,5.5-4.5
		c0.3,0.1,0.5,0.3,0.8,0.4c0.2,0.1,0.3-0.1,0.2-0.2c-0.2-0.2-0.4-0.4-0.6-0.6c0.1-0.1,0.2-0.2,0.2-0.2c0.1-0.1-0.1-0.3-0.2-0.2
		c-0.1,0.1-0.2,0.1-0.3,0.2c-1.8-1.7-3.9-3.2-5.8-4.9c-2-1.7-4-3.4-6.4-4.7c-0.2-0.1-0.3,0.1-0.2,0.3c2.1,2.1,4.3,3.9,6.6,5.8
		c1.6,1.4,3.3,2.8,5.2,3.9c-2.2,1.4-4.2,3-6.3,4.5C51.8,41.8,49.6,43.3,47.8,45.2z"/>
	<path class="st0" d="M47.8,45.3c-0.1,0.1,0.1,0.2,0.2,0.1l0.4-0.3c2-1.3,3.9-2.8,5.7-4.2c2.1-1.7,4.4-3.2,6.2-5.1
		c0.3-0.3,0.7,0,1,0.2c0,0,0.2,0.1,0.2,0.1l0.1,0c0,0,0,0,0,0c-0.2,0-0.4,0.1-0.3,0.3c0,0.1,0.1,0.2,0.1,0.2
		c-0.1-0.1-0.4-0.4-0.6-0.6c-0.2-0.1-0.2-0.4,0-0.5c0,0,0.2-0.2,0.2-0.2c0.1-0.1,0,0,0,0.1c0,0.1,0,0.2,0.1,0.2
		c0.1,0.1,0.3,0,0.2,0.1L61,35.7c-0.1,0.1-0.3,0.1-0.4,0c-3.7-3.4-7.5-7-12-9.5c-0.1,0-0.2-0.1,0,0c0.2,0,0.2-0.3,0.1-0.3
		c0.3,0.2,0.9,0.8,1.2,1.1c3.4,2.9,6.9,6,10.6,8.4c0.4,0.2,0.4,0.7,0,0.9c-2.2,1.4-4.3,3-6.5,4.3C51.8,42,49.6,43.4,47.8,45.3
		L47.8,45.3z M47.7,45.2c3.7-3.7,7.9-6.8,12.2-9.9c0,0,0,0.9,0,0.9c-3.8-2.4-7.3-5.8-10.6-8.8c-0.2-0.2-0.8-0.8-1-1
		c-0.1-0.1-0.2-0.2-0.2-0.4c-0.1-0.4,0.4-0.8,0.8-0.5c0,0,0.1,0.1,0.1,0.1c2.2,1.3,4.1,3,6,4.7c2,1.7,4.1,3.2,6.1,4.9l-0.4,0
		c0.2-0.1,0.2-0.2,0.5-0.3c0.5-0.1,0.8,0.5,0.5,0.8c0,0-0.2,0.2-0.2,0.2l0-0.5c0.1,0.1,0.5,0.4,0.6,0.5c0.4,0.3,0.1,1.1-0.5,0.9
		c-0.3-0.1-0.7-0.3-0.9-0.4c0,0,0.5-0.1,0.5-0.1c-3.4,3.5-7.7,5.7-11.7,8.3c-0.2,0.1-1.1,0.7-1.3,0.8c-0.1,0-0.2,0.1-0.3,0
		C47.7,45.5,47.7,45.3,47.7,45.2L47.7,45.2z"/>
</g>
<g>
	<path class="st0" d="M45.7,27.6c-1.4,2.6-2.6,5.2-3.8,7.9c-1.1,2.4-2.3,4.8-2.7,7.5c0,0.2,0.2,0.2,0.3,0.1c1.4-2.5,2.5-5.3,3.7-7.9
		c1.1-2.4,2.2-4.8,2.8-7.4C46.1,27.5,45.8,27.5,45.7,27.6z"/>
	<path class="st0" d="M45.8,27.7c-1.4,2.5-2,5.3-3.4,7.9c-1.3,2.4-2.7,4.7-2.9,7.5c0-0.1-0.2-0.2-0.2-0.1c2-4.8,3.8-8.9,6.2-13.6
		c0.1-0.3,0.2-0.7,0.4-1C45.9,28,46.1,27.4,45.8,27.7L45.8,27.7z M45.7,27.6c0.2-0.3,0.5,0,0.4,0.2c-0.1,0.3-0.3,1.2-0.4,1.6
		c-1.1,4.8-3.4,9.5-6,13.8c-0.1,0.2-0.5,0.3-0.7,0.1C39,43.2,39,43.1,39,43c0.1-0.6,0.3-1.2,0.5-1.7c0.7-2,1.4-4.1,2.2-6.1
		C42.6,32.5,44.3,30.1,45.7,27.6L45.7,27.6z"/>
</g>
<g>
	<path class="st1" d="M48.2,64.6c-2.9-0.2-5.8-0.1-8.8,0c-2.6,0.1-5.4,0-7.9,0.8c-0.2,0-0.1,0.3,0,0.3c2.9,0.2,5.9-0.1,8.8-0.1
		c2.7,0,5.3-0.1,7.9-0.7C48.4,64.9,48.3,64.6,48.2,64.6z"/>
	<path class="st2" d="M48.2,64.7c-2.9-0.2-5.7,0.5-8.5,0.4c-2.7-0.1-5.5-0.4-8,0.6c0.1,0,0.1-0.2,0-0.3c5-0.3,9.9-0.5,14.9-0.4
		c0.4,0,0.7-0.1,1.1-0.1C47.8,64.9,48.5,64.9,48.2,64.7L48.2,64.7z M48.2,64.5c0.3,0,0.2,0.4,0,0.4c-0.3,0.1-1.2,0.3-1.6,0.4
		c-4.9,1.1-10,1-15,0.6c-0.2,0-0.5-0.3-0.4-0.5c0.1-0.4,0.6-0.3,0.9-0.4C37.5,64.1,42.7,63.9,48.2,64.5L48.2,64.5z"/>
</g>
</svg>
